<?xml version="1.0" encoding="UTF-8"?>
<svg id="_レイヤー_2" data-name="レイヤー 2" xmlns="http://www.w3.org/2000/svg" viewBox="0 0 75.61 74.42">
  <defs>
    <style>
      .cls-1 {
        fill: #fff;
      }

      .cls-2 {
        fill: #e4bec6;
        fill-rule: evenodd;
      }
    </style>
  </defs>
  <g id="_レイヤー_1-2" data-name="レイヤー 1">
    <g id="stars">
      <g>
        <polyline class="cls-2" points="39.7 71.7 39.82 71.01 39.63 70.44 39.88 69.85 39.51 69.3 39.59 68.72 39.57 68.15 39.81 67.5 39.78 66.85 39.77 66.2 39.67 65.54 39.64 64.89 39.54 64.23 39.58 63.58 39.48 62.92 39.52 62.27 39.53 61.62 39.99 61 39.82 60.37 39.83 59.74 39.95 59.11 40.03 58.48 39.65 57.84 39.94 57.21 39.93 56.58 40.21 55.96 40.1 55.33 40.25 54.7 40.17 54.07 40.06 53.42 39.97 52.78 40.2 52.17 40.49 51.57 40.66 50.96 40.71 50.33 40.7 49.69 40.74 49.05 41.01 48.47 40.99 47.81 41.19 47.21 41.62 46.69 41.84 46.1 41.75 45.39 42.03 44.82 42.12 44.17 42.53 43.68 42.85 43.16 43.38 42.8 43.54 42.15 43.93 41.68 44.63 41.5 45.06 41.08 45.44 40.67 45.86 40.17 46.49 40.14 47.1 40.06 47.66 39.81 48.22 39.54 48.83 39.41 49.46 39.34 50.07 39.18 50.73 39.3 51.26 38.79 51.88 38.7 52.52 38.68 53.15 38.66 53.75 38.45 54.34 38.18 54.98 38.25 55.58 37.98 56.25 38.29 56.87 38.2 57.5 38.2 58.06 37.63 58.73 38.01 59.35 37.91 59.94 37.51 60.56 37.4 61.19 37.43 61.84 37.66 62.46 37.61 63.09 37.69 63.7 37.49 64.31 37.16 64.95 37.38 65.57 37.19 66.21 37.52 66.82 37.16 67.45 37.13 68.07 37.09 68.7 37.1 69.33 37.16 69.95 37.07 70.58 37.28 71.2 37.03 71.83 36.94 72.46 37.34 73.08 37.09 73.71 37.3 74.33 37.11 74.94 36.97 75.61 36.64 75.44 35.9 75.41 35.27 74.89 34.91 74.32 34.86 73.71 34.56 73.12 34.89 72.52 34.58 71.92 34.68 71.34 34.63 70.9 34.75 70.39 34.5 69.73 34.61 69.06 34.67 68.41 34.88 67.75 35.02 67.14 34.99 66.53 35.02 65.93 34.82 65.31 35.14 64.72 34.78 64.11 34.95 63.52 34.69 62.89 35.05 62.29 34.9 61.69 34.91 61.09 34.84 60.46 34.71 59.83 34.53 59.2 34.53 58.55 34.69 57.93 34.43 57.32 34.18 56.66 34.37 56.07 34 55.4 34.2 54.76 34.21 54.12 34.12 53.5 34 52.91 33.69 52.24 33.76 51.73 33.21 51.01 33.42 50.45 33.08 49.82 32.95 49.3 32.51 48.74 32.19 48.06 32.19 47.48 31.95 46.87 31.76 46.35 31.37 45.79 31.07 45.28 30.68 44.65 30.52 44.1 30.2 43.59 29.82 43.13 29.36 42.58 29.04 42.05 28.7 41.74 28.11 40.95 28 40.75 27.34 40.42 26.8 40.02 26.31 39.97 25.64 39.51 25.17 39.35 24.56 39.26 23.94 39.14 23.33 38.76 22.77 38.67 22.14 38.38 21.54 38.48 20.9 38.54 20.27 38.57 19.64 38.67 19.01 38.47 18.38 38.4 17.75 38.29 17.12 38.37 16.49 38.61 15.88 38.75 15.25 38.51 14.61 38.66 13.99 38.91 13.37 38.61 12.72 38.77 12.1 38.54 11.46 38.77 10.84 38.83 10.22 38.86 9.59 38.8 8.96 38.92 8.34 38.73 7.72 38.86 7.08 38.83 6.45 38.71 5.83 38.65 5.2 38.52 4.58 38.67 3.94 38.85 3.3 38.79 2.68 38.43 2.05 38.69 1.42 38.64 .79 38.5 .25 38.27 .22 37.56 0 37.33 .72 37.09 1.23 37.12 1.86 36.92 2.48 36.86 3.11 36.82 3.74 36.62 4.36 36.47 4.98 36.5 5.62 36.49 6.25 36.76 6.9 36.36 7.51 36.65 8.16 36.48 8.78 36.53 9.42 36.09 10.02 36.18 10.66 36.22 11.3 36.13 11.92 36.27 12.57 36.29 13.21 36.16 13.83 36 14.45 35.81 15.07 35.75 15.7 35.72 16.33 36.02 16.99 35.81 17.61 35.48 18.21 35.81 18.88 35.78 19.51 35.65 20.13 35.36 20.74 35.11 21.35 35.24 22 35.25 22.64 35.07 23.26 35.37 23.92 35.03 24.52 34.74 25.13 34.8 25.76 34.73 26.41 34.33 26.92 33.98 27.44 33.44 27.8 33.23 28.51 32.64 28.81 32.24 29.36 31.68 29.69 30.95 29.73 30.46 30.16 30.05 30.67 29.33 30.66 28.83 31.01 28.41 31.57 27.75 31.6 27.19 31.87 26.68 32.28 26.08 32.43 25.42 32.42 24.91 32.87 24.23 32.71 23.64 32.92 23.04 33.04 22.47 33.34 21.89 33.58 21.29 33.76 20.62 33.49 20.02 33.63 19.45 34.05 18.79 33.81 18.21 34.14 17.56 33.87 16.98 34.34 16.36 34.31 15.75 34.46 15.13 34.45 14.5 34.44 13.89 34.52 13.28 34.57 12.65 34.42 12.02 34.47 11.4 34.73 10.77 34.82 10.14 34.79 9.51 34.87 8.88 34.81 8.24 34.51 7.61 34.63 6.98 34.71 6.35 34.49 5.71 34.88 5.04 34.75 4.58 34.38 3.9 34.39 3.33 34.33 2.75 34.41 2.18 34.56 1.6 34.63 1.03 34.65 .31 34.51 0 35.17 .03 35.76 .11 36.29 .47 36.74 1.03 36.92 1.66 37.03 2.29 36.94 2.91 37.08 3.54 37.08 4.17 37.16 4.8 37 5.42 37.3 6.05 37.13 6.68 37.18 7.31 37.01 7.93 37.26 8.56 37.31 9.19 37.26 9.84 36.97 10.44 37.37 11.07 37.38 11.71 37.23 12.35 37.2 12.96 37.39 13.59 37.4 14.19 37.71 14.81 37.84 15.46 37.7 16.11 37.56 16.69 37.98 17.33 37.94 17.98 37.83 18.58 38.05 19.18 38.3 19.79 38.45 20.39 38.66 21.01 38.76 21.62 38.91 22.26 38.9 22.89 38.95 23.49 39.14 24.15 39.14 24.68 39.56 25.29 39.73 25.94 39.74 26.45 40.22 27.03 40.46 27.67 40.55 28.37 40.51 28.85 41.01 29.49 41.14 29.93 41.67 30.71 41.56 31.1 42.16 31.75 42.33 32.17 42.83 32.57 43.34 33.1 43.69 33.55 44.13 33.88 44.67 34.26 45.16 34.65 45.65 35.21 46.07 35.16 46.78 35.31 47.39 35.53 47.97 36.03 48.48 35.95 49.14 36.22 49.72 36.41 50.31 36.37 50.95 36.21 51.61 36.43 52.2 36.5 52.81 36.88 53.39 36.58 54.05 37.1 54.62 37.12 55.24 36.89 55.88 37.13 56.49 37.06 57.11 37.18 57.73 36.87 58.36 37.01 58.98 37.13 59.59 37.12 60.21 37.39 60.83 37.39 61.45 37.18 62.07 37.32 62.69 36.94 63.31 37.2 63.93 37.4 64.55 37.01 65.17 37.34 65.8 37.25 66.42 37.33 67.04 37.11 67.66 37.15 68.28 37.06 68.9 37.35 69.51 37 70.14 37.26 70.75 37.42 71.37 37.15 72 37.01 72.62 37.26 73.23 37.28 73.97 37.98 74.2 38.57 74.35 39.31 74.42 39.52 73.69 39.98 73.1 39.93 72.39 39.51 71.7"/>
        <g>
          <path class="cls-1" d="M53.21,34.67c.28-.18.55-.37.79-.57l-.5-.1-.58-.31-.67.07-.52-.54-.71.2-.57-.33-.62-.14-.21-.18c-.27.41-.6.77-1.04,1.05-.62,0-1.25,0-1.85,0-.34.31-.67.61-.98.9-.35-.3-.67-.57-1.02-.88-.38.71-1.34.91-1.33,1.83.09-.02.17-.04.26-.06-.03.04-.06.07-.09.11h1.29c.29.63.6,1.28.98,2.1.86-.43,1.63-.81,2.37-1.18,1.98,1.21,2.04,1.22,2.75.5.12-1.05-.32-2.16.3-3.14.93-.52,1.44.11,1.96.68Z"/>
          <path class="cls-1" d="M38.72,22.48l-.05-.34-.29-.6.04-.23c-.09.04-.21.06-.38.03-.16-.04-.22-.49-.32-.75-.49-.29-.99-.57-1.37-.8-.24.12-.47.24-.7.36l-.28.59-.25.61.11.57c.41-.58.71-.65,1.21-.2.78.7,1.51.99,2.29.75Z"/>
          <path class="cls-1" d="M41.28,42.16c.48-1.2.1-2.42.2-3.61.02-.25-.19-.53-.3-.79-1.4-.65-1.76.73-2.58,1.34.09.39.18.81.28,1.27.53-.3.95-.54,1.4-.8.19,1.17.58,2.17,1,2.58Z"/>
          <path class="cls-1" d="M39.58,65.07c-1.05.74-1.62-.67-2.36-1.09l.18.58-.39.62.33.62v.03c.25.38.48.74.68,1.04,1.58.17,1.66-.54,1.56-1.79Z"/>
          <path class="cls-1" d="M9.21,36.74c.03.18.06.33.09.47l.53-.24.61.4h.63s.64-.14.64-.14h.37c-.03-.17-.06-.32-.09-.49h-2.78Z"/>
          <path class="cls-1" d="M35.68,41.46c-.99.49-1.84.91-2.69,1.32v.84l.11.07.36.35c.23-.18.45-.35.68-.47.52-.25,1.08-.4,1.68-.61-.04-.5-.08-.92-.14-1.5Z"/>
          <path class="cls-1" d="M40.99,47.81l.2-.6.43-.53.17-.47c-.32-.05-.72-.04-1.33-.1.24,1.18-.19,1.97.39,2.66,0,0,.01,0,.02,0l.14-.31v-.65Z"/>
          <path class="cls-1" d="M30.76,36.53c.43-.43.86-.86,1.29-1.29-.09-.48.29-1.18-.61-1.28-.43.43-.86.86-1.29,1.29.09.48-.29,1.18.61,1.28Z"/>
          <path class="cls-1" d="M41.11,28.02c.21.08.43.13.66.14l-.03-.05-.63-.09Z"/>
          <path class="cls-1" d="M40.86,27.71s-.08.09-.13.15c.07.04.14.06.2.09l-.07-.24Z"/>
          <path class="cls-1" d="M61.21,36.04c-.83-.51-1.67-.47-2.98.21,2.22.45,2.22.44,2.98-.21Z"/>
          <path class="cls-1" d="M36.3,45.17c-.68.63-.68,1.26,0,1.9.68-.63.68-1.26,0-1.9Z"/>
          <path class="cls-1" d="M53.15,38.66h.02c-.27-.05-.53-.08-.8-.09-.05,0-.14.06-.2.13h.35s.63-.04.63-.04Z"/>
          <path class="cls-1" d="M64.16,35.52c-.01-.19.02-.39.04-.6l-.1.03-.59-.26-.12.07c-.07.43.13.56.75.92-.02-.08-.04-.16-.06-.23.03.03.05.05.08.07Z"/>
          <path class="cls-1" d="M38.33,61.13c.51-.55.48-1.08-.14-1.85-.61.86-.89,1.46.14,1.85Z"/>
          <path class="cls-1" d="M35.37,23.92l-.15.26c.06.04.12.08.21.11.35-1.07.4-1.23-.2-1.6l-.17.57.3.66Z"/>
          <path class="cls-1" d="M38.53,7.96c-.11-.2-.22-.4-.34-.61-.11.11-.31.23-.3.31.05.22.19.42.3.63.1-.11.21-.21.34-.34Z"/>
          <path class="cls-1" d="M36.59,11.77c-.05-.22-.19-.42-.3-.63-.02.02-.05.05-.08.07v.09s-.07.5-.07.5c.05.09.1.19.15.28.1-.11.31-.23.3-.31Z"/>
          <path class="cls-1" d="M32.99,29.57c-.21-.1-.41-.25-.63-.3-.03,0-.06.02-.1.06l-.02.03h-.02c-.06.08-.12.16-.17.21.21.11.41.23.61.34.13-.13.23-.23.34-.34Z"/>
          <path class="cls-1" d="M39.47,29.71c-.11-.2-.22-.4-.34-.61-.11.1-.31.23-.3.31.05.22.19.42.3.63.11-.1.21-.21.34-.34Z"/>
          <path class="cls-1" d="M39.14,27.2c.11-.21.23-.41.34-.61-.13-.13-.23-.23-.34-.34-.1.21-.25.41-.3.63-.02.08.19.21.3.31Z"/>
          <path class="cls-1" d="M38.54,20.27v-.07c-.05-.18-.11-.34-.2-.36-.57-.13-.66.29-.63.75h.79l.03-.32Z"/>
          <path class="cls-1" d="M37.24,69.75s-.03.03-.05.04l-.19.35.2.48s.03.05.04.07c.1-.11.21-.21.34-.34-.11-.2-.22-.4-.34-.61Z"/>
          <path class="cls-1" d="M14.55,34.77c.06-.11.12-.22.18-.32h-.23s-.24.02-.24.02c0,.08.19.2.29.3Z"/>
          <path class="cls-1" d="M57.43,34.43c-.04-.08-.09-.16-.13-.24l-.43.12c.07.15.15.31.23.46.1-.11.21-.21.34-.34Z"/>
          <path class="cls-1" d="M29.84,32.11c-.22.05-.42.19-.63.3.1.11.21.21.34.34.2-.11.4-.22.61-.34-.1-.11-.23-.31-.31-.3Z"/>
          <path class="cls-1" d="M36.95,31.3c.05.22.19.42.3.63.1-.11.21-.21.34-.34-.11-.2-.22-.4-.34-.61-.11.11-.31.23-.3.31Z"/>
          <path class="cls-1" d="M26.2,37.92c.02-.08-.19-.21-.3-.31-.11.21-.23.41-.34.61.13.13.23.23.34.34.11-.21.25-.41.3-.63Z"/>
          <path class="cls-1" d="M13.9,36.35c-.05-.22-.19-.42-.3-.63-.11.1-.31.23-.3.31.05.22.19.42.3.63.11-.1.31-.23.3-.31Z"/>
          <path class="cls-1" d="M27.32,36.66h.04c-.14-.63-.17-1.12-.9-.56.25.21.5.43.93.8-.02-.08-.05-.17-.08-.24Z"/>
          <path class="cls-1" d="M28.26,36.7c.63-.14,1.12-.17.56-.9-.2.23-.41.48-.73.86h.17s0,.03,0,.04Z"/>
          <path class="cls-1" d="M43.39,35.67c-.63.14-1.13.17-.56.9.2-.23.41-.48.73-.86.03-.04.06-.07.09-.11-.09.02-.17.05-.26.06Z"/>
          <path class="cls-1" d="M55.82,36.32c.13.13.23.23.34.34.1-.21.25-.41.3-.63.02-.08-.19-.21-.3-.31-.11.21-.23.41-.34.61Z"/>
          <path class="cls-1" d="M64.16,35.52s-.05-.04-.08-.07c.02.08.04.16.06.23.15.64.17,1.16.91.59-.24-.2-.49-.42-.88-.75Z"/>
          <path class="cls-1" d="M27.39,36.9c.07.24.13.49.24.51.55.12.65-.27.63-.71,0-.01,0-.03,0-.04h-.95c.03.07.05.15.08.24Z"/>
          <path class="cls-1" d="M37.38,51.92c-.2.11-.4.22-.61.34.1.11.23.31.31.3.22-.05.42-.19.63-.3-.11-.1-.21-.21-.34-.34Z"/>
        </g>
      </g>
    </g>
  </g>
</svg>