<?xml version="1.0" encoding="UTF-8"?>
<svg id="_レイヤー_2" data-name="レイヤー 2" xmlns="http://www.w3.org/2000/svg" viewBox="0 0 175.92 176.76">
  <defs>
    <style>
      .cls-1 {
        fill: #fff;
      }

      .cls-2 {
        fill: none;
      }

      .cls-3 {
        fill: #c5c2de;
        fill-rule: evenodd;
      }
    </style>
  </defs>
  <g id="_レイヤー_1-2" data-name="レイヤー 1">
    <g id="stars">
      <g>
        <path class="cls-3" d="M6.38,154.59l1.14-.41.95-.78,1.18-.33,1.36.02,1.07-.55,1.05-.59,1.08-.53.91-.87.98-.72,1.28-.12.93-.82,1.12-.44,1.2-.29.81-1.08,1.05-.58,1.11-.48,1.2-.29,1.21-.25.89-.91,1.17-.34.95-.8,1.29-.1,1.13-.43.86-.99,1.02-.65,1.28-.12,1.03-.64,1.02-.65.91-.87,1.29-.1,1.1-.49.96-.77,1.14-.41,1.28-.12.73-1.24,1.36.05,1-.7,1.06-.57,1.18-.32,1.08-.54,1.04-.61,1.14-.41,1.06-.57.76-1.15,1.42.13,1.01-.66.79-1.1h1.36s.95-.77.95-.77l1.07-.56,1-.68.99-.7,1.2-.31,1.15-.41,1.17-.37.75-1.14.96-.74,1.07-.54,1.07-.55,1.02-.64,1.45.12,1.07-1.36.78,1.08.55,1.07.29,1.23.43,1.14.97.8.61,1.03.62,1.02,1.04.75-.1,1.48,1.31.57.72.96.31,1.22.84.88-.05,1.45,1.43.51.24,1.27.69.98.48,1.11.49,1.11,1.06.74.35,1.19.44,1.14,1.25.62.22,1.28,1.13.7.57,1.06.14,1.33.91.84.73.95.59,1.04.3,1.23.76.94,1.22.64.54,1.07.29,1.23,1,.78.38,1.18.8.92.43,1.15.43,1.15.55,1.07,1.46.48-.04,1.44,1.32.57-.05,1.46,1.16.68.69.98.76.94.47,1.13.81.91.42,1.15.38,1.19.95.82.69.99.19,1.36.24-1.47-.7-1.04-.4-1.14-.81-1,.03-1.28-.37-1.15-.79-1.01.03-1.28-.83-1,.13-1.31-.03-1.26-1.17-.89-.33-1.16.37-1.39-1.21-.87.32-1.38-.51-1.1-.61-1.07-.04-1.26-1.03-.93.25-1.36-.83-1-.44-1.12-.58-1.08.35-1.39-.95-.96.22-1.34-1.01-.94-.28-1.18-.33-1.16.24-1.36-.67-1.05-.69-1.04.14-1.32-.87-.98-.69-1.04.03-1.29-.81-1,.47-1.44-.77-1.01-.49-1.11-.74-1.02.17-1.33-1.05-.92-.06-1.26-.28-1.18-.21-1.2-1.04-.91-.2-1.21-.2-1.21-.22-1.2-.66-1.05-.35-1.16-.53-1.09.05-1.3-.78-1-.33-1.16-.11-1.25-.45-1.12-1-.92.19-1.36-.89-.96-.24-1.2-.56-1.08-.18-1.22-.11-1.25-1.17-.85.14-1.34-.39-1.14-1.03-.9.22-1.38-.83-.56h-1.08s-.44,1.34-.44,1.34l-1.34.29-1.01.68-.5,1.28-.96.74-1.19.47-.59,1.18-1.1.58-.62,1.14-1.38.25-.91.8-.74.99-1.24.4-.4,1.39-.95.75-.8.93-1.22.44-1.07.61-.9.82-.81.91-1.25.4-.58,1.19-.8.93-.82.91-1.49.11-.81.92-.65,1.1-.71,1.04-1.48.12-.71,1.04-1.11.56-.69,1.06-.72,1.03-1.26.38-.63,1.14-.92.79-.88.83-1.11.56-1.14.52-1.03.65-.57,1.22-1.02.66-.71,1.05-1.05.63-1.35.26-.54,1.26-1.16.49-1,.69-.86.86-.94.77-1.14.51-.75,1-1.08.56-.67,1.08-.93.75-1.29.29-.74.99-1.04.61-.61,1.16-.84.86-1.02.63-1.33.24-.52,1.27-1.11.52-.79.93-1.13.49-.96.71-1.14.48-.75.97-1.19.43-.68,1.06-.98.69-1.03.63-.86.84-.86.84-.94.74-1.06.59-.77,1.31-.12-.63ZM174.12,89.53l-1.2-.16-1.2.26-1.2-.24-1.21-.63h-1.2s-1.2.07-1.2.07h-1.2s-1.2.38-1.2.38l-1.2.22-1.21-.45-1.2.34-1.2-.08-1.21-.25-1.19.63-1.2.08-1.2-.03-1.21-.24-1.21-.28-1.19.46-1.21-.18-1.19.33-1.21-.44-1.2-.07-1.19.55-1.2.18-1.22-.42-1.2.17-1.2.17-1.19.43-1.22-.44h-1.2s-1.19.32-1.19.32l-1.21-.09-1.22-.41-1.17.84-1.23-.6-1.19.24-1.2.09-1.21-.19-1.2.05-1.2.13-1.21-.1-1.2.08-1.17.74-1.24-.71-1.19.19-1.17.67-1.23-.57-1.19.3-1.2.06-1.19.19-1.19.21-1.22-.23-1.24-.12-1.24-.16-1.18.71-1.21.26-1.23.04-1.23.04-1.22.15-1.29-.73-1.15,1.01-1.22.15h-1.23s-1.26-.34-1.26-.34l-1.24-.15-1.19.48-1.23.05-1.23.06-1.19.55-1.28-.8-1.18.87-1.22.16-1.17-.38.66.94-.33,1.41,1.3.79-.03,1.29.47,1.1.24,1.19.25,1.19.89.95.1,1.24.19,1.21,1.09.88-.06,1.3.95.93.33,1.16-.15,1.33.7,1.02.5,1.1.34,1.15.02,1.27.53,1.08,1.05.9.29,1.17v1.27s.79.99.79.99l.1,1.24.56,1.07.15,1.22.15,1.22.28,1.17,1.31.82-.38,1.4,1.15.87-.39,1.4.97.94.44,1.12.51,1.09.18,1.21.57,1.07.13,1.22.08,1.24.72,1.02.43,1.12-.16,1.32.32,1.16.7,1.03.4,1.13.81,1-.03,1.27.37,1.14.79,1-.03,1.28.83.99-.13,1.31.03,1.26,1.17.88.33,1.15-.37,1.39,1.21.87-.32,1.37.51,1.1.61,1.06.04,1.25,1.02.93-.26,1.35.83.99.44,1.12.02.74.24-.72-.72-1.13.51-1.24-.76-1.13v-1.2s-.04-1.19-.04-1.19l.56-1.24-.39-1.16-.41-1.16.46-1.23-.6-1.15-.41-1.16.36-1.22-.53-1.15.82-1.25-.48-1.16-.19-1.18-.44-1.16.51-1.23-.77-1.14.28-1.21.05-1.2.12-1.2-.76-1.14.13-1.2.13-1.2.12-1.2-.35-1.17-.03-1.19-.21-1.18.4-1.22-.47-1.16v-1.19s.24-1.21.24-1.21l-.12-1.18-.71-1.14.56-1.23-.59-1.15.1-1.2-.25-1.17.16-1.21.24-1.21-.89-1.12.5-1.24-.06-1.19-.75-1.13.59-1.25-.88-1.11.78-1.27-.86-1.11.52-1.25v-1.2s-.75-1.24-.75-1.24l1.29-.34,1.27.09,1.04-.81,1.24-.05,1.06-.75,1.35.38,1.17-.32,1.1-.56,1.29.19.98-1.07,1.18-.25,1.13-.47,1.28.15,1.23-.06,1.17-.32,1.14-.45,1.29.21,1.05-.8,1.13-.47,1.14-.44,1.38.58,1.14-.45,1.08-.69,1.1-.61,1.37.57,1.1-.6h1.24s1.09-.63,1.09-.63l1.1-.6,1.3.23,1.07-.73,1.17-.3,1.16-.35h1.24s1.25.04,1.25.04l1.21-.13,1.04-.84,1.21-.15,1.09-.63,1.22-.11,1.33.35,1.02-.91,1.26.05,1.2-.2,1.14-.42,1.17-.31h1.25s1.09-.61,1.09-.61l1.23-.08,1.06-.72,1.16-.32,1.32.24,1.08-.62,1.21-.15,1.03-.83,1.12-.47,1.2-.19,1.11.25.15.1ZM.9,40.63l.72.98,1.01.69.65,1.04.37,1.31.83.87.86.83.82.88,1.09.62.98.73.49,1.19,1.06.65.75.94.62,1.06,1.27.45.86.83.78.91.63,1.06.6,1.08,1.13.58.67,1.02,1.04.67.48,1.19.75.94,1.2.52.93.78.49,1.18.92.78.92.78,1.11.6.48,1.2.79.9,1.02.68.73.96.5,1.18,1.4.32.36,1.31.97.73.86.84.66,1.03.84.86.89.81.73.96.86.83,1.33.37.3,1.39.94.76,1.28.41.41,1.29,1.02.67.85.84.95.75.96.73.66,1.05.74.97.7,1,1.31.36.99.69.84.85.94,1.03-.7,1.21-1.37.51.05,1.51-.66,1.01-.79.91-1.04.73-.91.83-.4,1.2-.74.95-.74.95-.33,1.25-1.42.44-.08,1.44-.65,1.02-1.04.73-.54,1.1-1.38.47.02,1.52-1.11.67-.69.99-.89.84-.88.84-.34,1.26-1,.75-.93.8-.17,1.39-1.13.65-.29,1.3-.81.9-1.21.58-.49,1.14-.66,1.01-.79.91-1.06.7-.63,1.03-.2,1.37-.84.87-1.07.69-.42,1.2-.99.75-.61,1.05-.95.78-.94.79-.84.87.02,1.55-1.38.44-.11,1.44-1.39.43-.26,1.32-.7.98-.64,1.03-.91.81-.59,1.07-.95.78-.99.75-.46,1.17-.7.98-1.19.6-.79.91-.47,1.23.99-.77.65-1.11,1.21-.42.94-.75.67-1.1,1.21-.42.65-1.12,1.28-.33,1.17-.46.43-1.4.98-.71,1.43-.13.4-1.43,1.4-.17.86-.86.79-.94,1.16-.47.52-1.28,1.36-.22.65-1.12.9-.8.81-.91,1.42-.14.57-1.22,1.33-.26.53-1.27,1.01-.67.97-.71,1.35-.24.75-.99.73-1.01,1.28-.33.61-1.15.73-1.01,1.21-.42.65-1.11,1.51-.06.67-1.08.86-.85.69-1.05,1.3-.31.48-1.3,1.15-.5,1-.68,1.05-.62.48-1.3,1.05-.61,1.05-.61,1.05-.62.74-.98.95-.73.84-.87,1.23-.41.67-1.08.97-.72,1.13-.53.89-.81.51-1.26,1.34-.29.59-1.16,1.04-.64.82-.89,1.08-.58,1.14-.52.4-1.39,1.31-.32.95-.74.5-1.27,1.37-.24.42-1.36,1.5-.09.44-1.35,1.33-.28,1-.68.5-1.28.9-.62-.69-.9-1.28-.24-.84-.9-1.25-.29-.6-1.25-1-.66-1.15-.44-.72-1.08h-1.44s-.97-.71-.97-.71l-1.1-.51-.74-1.04-.86-.86-1.02-.63-1.09-.52-.72-1.08-1.29-.22-1.11-.5-1.09-.52-.51-1.4-1.1-.51-1.23-.31-1.19-.38-.52-1.38-1.18-.38-.84-.89-1.2-.35-1.18-.38-.71-1.09-1.26-.27-1.01-.64-1.04-.59-.85-.89-.82-.93-.92-.78-1.32-.17-.93-.77-1.2-.35-.91-.8-.65-1.2-1.35-.12-.81-.95-.95-.73-1.07-.54-1.01-.64-.84-.91-1.18-.38-.88-.85-1.24-.29-1.01-.64-.69-1.13-1.18-.38-.91-.79-1.3-.2-1.09-.52-.93-.77-.66-1.18-1.37-.08-.86-.88-1.13-.45-.83-.92-.99-.68-.82-.93-1.16-.4-.78-.99-1.22-.32-.97-.71-.92-.78-1.07-.56-1.07-.55-1-.66-.89-.83-1.34-.13-.78-1.01-.91-.8-1.59-.33.68-.32ZM106.42,0l-.45,1.14-.05,1.24-.53,1.12-.92,1.03-.29,1.18-.24,1.19-.3,1.18.07,1.27-.09,1.23-.74,1.07.02,1.26-.39,1.16-.55,1.11.3,1.33-.24,1.19-.35,1.17-.55,1.12-.59,1.11.12,1.28-.5,1.13v1.25s-.75,1.06-.75,1.06l-.39,1.15.21,1.31-.16,1.21-.74,1.07-.18,1.21-.17,1.21.07,1.27-.77,1.05-.35,1.16-.05,1.24-.44,1.14-.76,1.05.45,1.38-.94,1-.14,1.22-.29,1.18-.55,1.1-.32,1.17-.25,1.19-.47,1.13-.3,1.17.33,1.35-1.06.96-.2,1.2.27,1.33-.93,1-.09,1.23-.33,1.17-.2,1.2-.18,1.21-.61,1.09-.5,1.12-.54,1.11.3,1.33-.14,1.22-.35,1.16-.35,1.16-.25,1.19-1.1.97.6,1.4-.24,1.19-.39,1.15-.69,1.08-.52,1.12.1,1.27-.31,1.17-.29,1.18.2,1.28-1.11,1,.53,1.35-.15,1.2-.62,1.11-.08.95.97.64,1.15-1,1.23.41,1.2-.13,1.22.12,1.22.1,1.17-.58,1.23.25,1.22.15,1.15-.81,1.24.4,1.16-.66h1.21s1.25.49,1.25.49l1.18-.4,1.19-.19,1.21-.02,1.23.32,1.19-.22,1.16-.76,1.21.05,1.23.35,1.19-.48,1.23.25,1.2-.24,1.22.2,1.22.19,1.21.06,1.16-1.03,1.25.76,1.17-.86,1.25.77,1.18-.67,1.21-.11,1.2-.19,1.22.16,1.2-.24,1.22.22,1.22.27,1.2-.4,1.21-.09,1.23.52,1.21.02,1.2-.38,1.21-.06,1.2-.49,1.22.39,1.21-.03,1.2-.48,1.22.4,1.2-.51,1.23.5,1.22.34,1.19-.87,1.21.02,1.23.76,1.19-.9,1.23.71,1.21-.17,1.21-.27,1.22.33,1.2-.71,1.22.64,1.2-.49,1.21-.09,1.21-.23,1.22.75,1.2-.62,1.22.61,1.2-.67,1.21.1,1.21.05,1.22.65,1.21-.31,1.21-.33,1.61.21-1.59-.19-1.23.09-1.09-.67-1.26.2-.99-1.13-1.25.16-1.19-.13-1.24.12-1.05-.82-1.31.44-1.1-.59-1.14-.36-1.13-.43-1.31.43-1.13-.45-1.13-.45-1.13-.43-1.22.03-1.16-.29-1.19-.12-1.07-.71-1.25.14-1.15-.32-1.1-.56-1.18-.2-1.29.38-1.04-.87-1.27.26-1.13-.42-1.2-.08-1.12-.48-1.11-.56-1.32.56-1.06-.82-1.16-.27-1.29.41-1.04-.91-1.31.54-1.01-1.1-1.3.52-1.06-.84-1.15-.33-1.29.45-1.17-.25-1.11-.6-1.26.33-1.13-.45-1.25.27-1.07-.87-1.18-.16-1.22.1-1.11-.66-1.29.63-1.18-.2-1.2.04-1.13-.6-1.16-.37-1.19-.1-1.2.04-1.13-.63-1.27.39-.19-1.23-.15-1.2.9-1.18-.16-1.2-.4-1.2-.32-1.2.89-1.18-.31-1.2.3-1.19-.34-1.2-.31-1.2.55-1.18-.44-1.2v-1.19s-.04-1.19-.04-1.19l.3-1.19.36-1.18.18-1.19-.55-1.21.17-1.19-.33-1.2.21-1.19.69-1.17-.6-1.21.39-1.18.12-1.19-.09-1.2.02-1.19.34-1.18-.28-1.2.27-1.18-.39-1.21.02-1.19.61-1.17-.28-1.2.21-1.19-.49-1.21-.11-1.2.18-1.19.67-1.17-.64-1.22.32-1.18-.19-1.2.36-1.18.08-1.19.38-1.18-.25-1.2.45-1.18-.35-1.21.12-1.19.2-1.19-.07-1.2-.07-1.2.06-1.19.26-1.18-.58-1.21.47-1.18.22-1.19-.68-1.22.79-.85.03-.25ZM101.14.92l-.74.95-.38,1.16-.81.9-1.16.71-.6,1.03-.56,1.05-.61,1.02-.28,1.21-.42,1.13-1,.79-.32,1.19-.69.98-.84.89-.07,1.34-.55,1.06-.65,1-.83.89-.86.87-.23,1.25-.78.92-.34,1.18-1,.8-.68.98-.14,1.29-.47,1.1-.98.81-.48,1.1-.47,1.1-.25,1.23-1,.8-.62,1.02-.34,1.17-.7.97-.98.82.11,1.43-1.14.73-.42,1.15-.56,1.07-.8.94-.59,1.05-.53,1.09-.72.98-.57,1.07v1.39s-1.25.68-1.25.68l-.47,1.12-.04,1.35-1.13.76-.36,1.18-.57,1.06-.44,1.13-.41,1.14-.81.94-.7,1-.73.99.07,1.36-.33,1.17-.52,1.08-.67,1.25-1.34-.47-.76-1.25-1.48.35-1.13-.43-1.07-.57-.96-.84-1.03-.68-1.27-.08-1.11-.47-1.12-.45-1.3.02-.83-1.24-1.4.34-1.17-.32-1.01-.77-1.22-.18-.87-1.17-1.45.49-.98-.85-1.16-.34-1.08-.58-1.08-.57-1.31.07-1.03-.73-1.05-.64-1.38.26-.96-.88-1.33.11-1.1-.51-.91-.99-1.24-.15-1.15-.36-1.08-.52-.94-.85-1.15-.35-1.37.14-1.04-.61-.91-.89-1.26-.13-.95-.8-1.16-.36-.96-.76-.96-.75-1.02-.64-1.51.34-.71-1.26-1.43.19-.71-1.27-1.35.02-1.1-.48-1.14-.4-.99-.71-1.17-.34-.97-.75-.95-.79-1.24-.17-1.11-.44-.87-1-1.08-.53-1.3-.12,1.03.7,1.25.27.77,1.01,1,.66,1.24.28.77,1.01,1.26.25.71,1.1.8.96,1.46-.05.98.69.58,1.31,1.48-.09.6,1.27,1.08.53,1.14.44.81.94,1.38.08.64,1.21,1.26.25,1.04.59,1.12.47.59,1.3,1.33.14.66,1.18,1.36.1.94.74.97.7.64,1.21,1.17.4,1.18.38.7,1.12,1.28.23,1.18.38.76,1.02,1.24.28.5,1.42,1.22.32,1.06.56,1.2.35.68,1.15,1.38.08.81.95.93.76.89.82,1.38.08.89.83.89.83.89.82,1.15.43.97.7,1.07.55.73,1.06,1.21.33.95.73.82.93,1.02.63,1.34.14.64,1.2,1.27.25.89.82,1.08.54.85.88.81.95h1.44s.66,1.17.66,1.17l.97.7,1.35.13.6,1.25,1.42.03.49,1.42,1.41.05.63,1.2.92.78,1.36.13.96.72.76,1.01,1.28.24.85.9-.21-1.28.92-1.04.22-1.18-.02-1.23.74-1.07-.52-1.35.3-1.17.08-1.22.71-1.07.5-1.12.24-1.18.12-1.21.78-1.05-.22-1.3.1-1.22.13-1.21,1.16-.94.13-1.21-.1-1.27-.02-1.25,1.15-.94v-1.25s.57-1.09.57-1.09l-.04-1.26v-1.25s.82-1.02.82-1.02l-.13-1.29.3-1.17.25-1.18.59-1.09.64-1.07.47-1.12-.24-1.32.45-1.12-.02-1.26.49-1.11.95-.99-.29-1.33.66-1.07.4-1.14.19-1.2.3-1.16.61-1.08v-1.24s.53-1.1.53-1.1l-.11-1.27.28-1.15.85-1-.02-1.23.46-1.1-.23-1.28.14-1.18.43-1.11.9-.99-.37-1.31.56-1.08.06-1.2.6-1.07.32-1.14.61-1.07v-1.22l.68-1.05-.1-1.24.36-1.13.43-1.11.17-1.18.17-1.18.3-1.14.49-1.1-.32-1.3.69-1.05.45-1.11-.42-1.32.93-.65.08-.22Z"/>
        <g>
          <path class="cls-2" d="M68.47,86.17c.26.22.51.44.89.91-.14-.82-.07-1.55-.89-.91Z"/>
          <path class="cls-1" d="M99.41,153.62c-.66.22-1.21.41-1.82.61.95.83,2.4.76,2.82,2.04-.3.36-.59.71-.89,1.06.06.64.11,1.25.2,1.85.02.12.21.22.32.34.67-.83,1.63-1.4,2.23-2.33l-.09-.19-.61-1.07-.03-.97s-.02-.03-.02-.04c-.4-.25-.65-.47-.91-.69.1-.07.18-.13.25-.16l-.35-.32.25-1.36-.28-.34c-.26.04-.53.09-.77.13-.13.64-.22,1.07-.29,1.44Z"/>
          <path class="cls-1" d="M107.17,136.33c.03.36.06.79.09,1.17.55.19,1.03.36,1.38.48l.11-1.15-.28-.94c-.44-.03-.89-.02-1.3.44Z"/>
          <path class="cls-1" d="M103.06,142.4c-.36.14-.77.05-1.08.16l.06.24.49.72c.22.09.44.17.67.26.05.51.1,1.01.2,1.5l.55.68-.02.69c.1.15.21.3.34.44.1.11-.07.47-.16.75l.17.53.53.68c.16-.17.32-.34.49-.52,0-1.23,0-2.48.01-3.72,0-.11.21-.22.32-.33.31-.02.61-.05.95-.07.32.3.66.61,1.09,1.01.93-1.32.13-2.45-.43-3.63.64-.11,1.23-.2,1.8-.3l-.69-1.03.13-1.2.1-.94c-.69.84-1.38,1.68-2,2.43h-2.97c-.23.66-.42,1.2-.59,1.67Z"/>
          <path class="cls-1" d="M101.53,154.69l-.08-.07c.02.1.04.21.07.32,0,0,.01,0,.02-.01v-.23Z"/>
          <path class="cls-1" d="M37.89,138.94c-.5-.46-.91-.84-1.25-1.15q-1.86-.04-2.29-.48v-1.37c-.09.02-.17.04-.26.07.01-.01.02-.02.03-.03-.22.06-.45.12-.53.26-.26.49-.38,1.05-.57,1.62-.4-.38-.72-.68-1.09-1.03-.68,1.14-.4,2.32-.29,3.47.28.11.53.21.78.31-.02-.08-.04-.16-.06-.25.05.04.08.07.12.11.03-.54-.24-1.14.41-1.68.32.03.96-.09,1.12.14.68.95,1.62.7,2.52.77.07,0,.13.04.19.09l.86-.82.32-.02Z"/>
          <path class="cls-1" d="M108.1,129.73l.11-.57c-.33.22-.67.45-1.01.65.28.31.58.4.9.42v-.5Z"/>
          <path class="cls-1" d="M108.3,134.03s0,0,0,0l-.13-.73.4-1.22-.03-.06c-.57-.32-.9-1.16-1.92-.79-.14.25-.34.62-.5.92.47.95.97,1.69,2.17,1.89Z"/>
          <path class="cls-1" d="M27.57,129.59c-.51-.57-1.14-.23-1.7-.31.02.09.04.17.06.26-.04-.03-.06-.05-.1-.08.05.83-.24,1.71.28,2.48.12.04.25.08.38.12l.02-.03,1.42-.14.3-.65c-.5-.1-.91-.17-1.38-.26.28-.55.5-.97.71-1.38Z"/>
          <path class="cls-1" d="M23.48,132.99c-.45-.35-.75-.58-1.09-.84-.97,1.25.22,1.73.64,2.5v.4l1.13-.19.65-1.12.78-.69c-.8.02-1.48,0-2.11-.06Z"/>
          <path class="cls-1" d="M70.21,86.34l-.46-.18-.72-1.08h-1.44s-.21-.16-.21-.16c-.06.21-.12.47-.18.7-.62.26-1.35-.06-1.67,1.05.61.42,1.38.95,2.1,1.45-.28.69-.45,1.08-.55,1.34-.58.12-1.01.21-1.63.35.15.66.27,1.18.38,1.63h2.08c.45-.45,1.33-1.01,1.25-1.31-.28-1.04,1.07-1.36.87-2.23-.28-.27-.5-.48-.68-.82-.38-.47-.64-.69-.89-.91.83-.64.76.09.89.91,0-.48.48-.52.85-.74Z"/>
          <path class="cls-1" d="M106.2,171.86c-.09.02-.18.04-.27.07.04-.04.07-.08.1-.12-.1,0-.2-.02-.25,0l.22.59.38,1.19.95.82.69.99.09.64c.09-.09.17-.17.26-.26l.08-.5-.7-1.04-.4-1.14-.29-.36c-.47-.05-.92-.12-.87-.89Z"/>
          <path class="cls-1" d="M62.3,74.97l.38.39c.73-.03,1.44-.06,2.06.69-.12.24-.24.49-.37.74h1.03s.66,1.17.66,1.17l.97.7,1.35.13.57,1.18c.09-.05.18-.12.27-.21-.93-1.27-1.13-3.05-2.76-3.81.37-.4.67-.72,1.12-1.21-1.09-.47-2.17-.21-3.19-.32-.48-.05-.83-.35-.72-.93-.87.1-1.79-.23-2.82.36,0,.08.02.16.03.25l.36.33,1.08.54Z"/>
          <path class="cls-1" d="M101.67,18.86l-.38.76c.69.02,1.38,0,2.05-.3v-1.17c-.43-.22-.86-.43-1.29-.65l-.04.18-.35,1.17Z"/>
          <path class="cls-1" d="M97.17,16.81c-.08.17-.14.35-.2.52l.24-.42v-.18s-.03.05-.04.08Z"/>
          <path class="cls-1" d="M53.54,60.27h1.14c.46.46.9.9,1.37,1.37-.61.65-1.22,1.3-1.83,1.95.13.13.23.32.35.34.61.07,1.22.1,1.74.13,1.07-.45,1.4-1.73,2.56-1.91-.02-.09-.04-.18-.07-.27.04.03.07.06.11.09,0-.4,0-.8,0-1.21-.69-.77-1.34-1.59-2.52-1.65-.12,0-.21-.49-.32-.75-.89.12-1.85-.28-2.87.44.1.45.22.98.32,1.47Z"/>
          <path class="cls-1" d="M76.92,96.65s.05-.05.07-.08l-.91.62-.5,1.28-.58.45v1.99c1.91-.26,1.64-2.38,2.8-3.28-.3-.33-.59-.67-.88-.99Z"/>
          <path class="cls-1" d="M68.45,92.49h-2.55c-.48.51-.88.93-1.4,1.48.56.16.97.27,1.38.39.39-.36.73-.67,1.09-1h1.85c.33.31.66.62,1,.93h1.87c.45-.45.89-.89,1.4-1.4-1.01-.51-2-1.01-2.94-1.49-.58.37-1.07.68-1.7,1.09Z"/>
          <path class="cls-1" d="M109.94,164.3c.13,0,.26-.02.39-.04l-.06-.09v-1.2s0-.02,0-.02c-.25.29-.49.57-.74.85l.43.39-.02.11Z"/>
          <path class="cls-1" d="M43.35,137.06l.72-1.22.99.04c-.29-.32-.58-.64-.86-.95-1.12.18-2.24-.41-3.49.68.51.36.96.76,1.48,1.02.37.19.77.28,1.15.43Z"/>
          <path class="cls-1" d="M42.61,112.54c.32.45.4,1.07.58,1.6h1.14c.15-.33.32-.71.41-.91-1.09-1.08-2.07-2.05-3.06-3.03.56-.6.86-.93,1.2-1.29-.67-.54-1.31-.7-1.9.07v1.88c.56.56,1.19,1.06,1.64,1.68Z"/>
          <path class="cls-1" d="M40.61,127.82l-.29.19-.49.73c.38.18.76.37,1.14.56h0c-.05-.46-.18-.97-.35-1.47Z"/>
          <path class="cls-1" d="M78.32,99.95c-.45.45-.9.9-1.54,1.53.68.53-.62,1.61.68,2.17.28-.59.55-1.16.85-1.8.79.8,1.43,1.53,2.3.44-.28-.33-.56-.65-.81-.94.3-.37.56-.69.87-1.08-.83-.54-1.63-.21-2.36-.33Z"/>
          <path class="cls-1" d="M108.95,86.03l1.23.35,1.19-.48.2.04c-.02-.06-.04-.12-.06-.17-1.08.13-2.11-.24-3.09.24l.54.02Z"/>
          <path class="cls-1" d="M28.6,141.02c-.2-.1-.42-.14-.67-.21-.11.48-.13.93-.32,1.31-.17.35-.51.62-.78.94.53.36,1.17.43,1.71.78l.49-.42,1.29-.1,1.11-.43c-.68-1.01-1.81-1.37-2.84-1.87Z"/>
          <path class="cls-1" d="M35.79,76.3c.75-.75,1.53-1.53,2.37-2.37-.07-.38-.14-.81-.21-1.25-.75.3-1.44.47-2.01.83-.62.4-1.14.97-1.6,1.38.03.85.03,1.5,1.46,1.4Z"/>
          <path class="cls-1" d="M89.96,128.62c.5.8-.33,1.91.67,2.54.72-.17,1.55.33,2.35-.49-.07-.32-.16-.73-.26-1.19l-.17-.24c-.46.4-.77.67-1.18,1.03-.15-.53-.26-.95-.37-1.32q.97-1.1.62-1.5h-2.34c-.35,1.16.64.69.66,1.16Z"/>
          <path class="cls-1" d="M16.49,135.4l-.27.09-.11,1.44-.07.02c.29.51.38,1.15.7,1.67.79-.79,1.58-1.58,2.53-2.53-1.02-.14-1.87-.26-2.67-.37-.04-.12-.07-.21-.11-.32Z"/>
          <path class="cls-1" d="M116.67,83.51c.28.37.46.44.81-.1.02-.4.06-1,.07-1.31-1.02-1.32-1.67-2.16-2.37-3.07-.23.51-.43.77-.46,1.05-.11.96,1.25,1.33,1.02,2.44-.05.25.65.62.93,1Z"/>
          <path class="cls-1" d="M123.21,76.63v1.64c.53.8.91,1.39,1.35,2.05.57-1.11.95-1.86,1.35-2.64-.65-.47-1-1.83-2.7-1.05Z"/>
          <path class="cls-1" d="M94.41,134.16l-.81-1h-.73c.45.78.66,1.35,1.04,1.74.16,0,.32-.03.48-.06l.02-.68Z"/>
          <path class="cls-1" d="M94.38,135.26v-.31c-.06.06-.13.12-.2.18.06.05.13.09.2.14Z"/>
          <path class="cls-1" d="M35.19,118.02c.36-.2.68-.37,1.42-.78-1-.67-1.76-1.17-2.53-1.68-.1-.84.69-1.96-.28-2.29l-.18.69-.23.17v.46c-.31.33-.62.66-.93.99.94.75,1.55,1.88,2.73,2.44Z"/>
          <path class="cls-1" d="M87.73,125.29c.5-.36,1.1-.79,1.67-1.19-.31-.7-.47-1.07-.64-1.46-.41.35-.73.63-1.02.89-.37-.3-.68-.56-.86-.7-.57.45-1.05.83-1.56,1.23.91.46,1.69.86,2.42,1.24Z"/>
          <path class="cls-1" d="M100.64,20.88c.22.4.46.81.67,1.19-.25.32-.49.62-.86,1.09.62.12,1.04.2,1.43.28.59-.83,1.96-1.18,1.16-2.92-.88.17-1.66-.24-2.4.37Z"/>
          <path class="cls-1" d="M41.86,107.1c.02-.3.03-.59.05-1.06-.31-.25-.69-.54-1.18-.93l-.28.44-1.04.73-.29.59c.05.15.12.31.24.49.86.16,1.73.51,2.49-.26Z"/>
          <path class="cls-1" d="M65.36,73.21c.02-.12.08-.29.04-.32-1.12-.88-.82-2.95-2.69-3.18-.28.49-.57.99-.87,1.51.57.25,1.2.54,1.82.82v1.45c.57-.11,1.21.26,1.71-.28Z"/>
          <path class="cls-1" d="M19.06,47.2c-.05-.06-.11-.13-.16-.2l.1.18h.06Z"/>
          <path class="cls-1" d="M30.47,52.13c-.19-.18-.3-.36-.41-.37-1-.02-2.01-.02-3.01,0l.26.2.97.7.02.04c.79-.19,1.73.53,2.17-.58Z"/>
          <path class="cls-1" d="M19.92,52.98l-.48-.03c-.08.08-.16.16-.25.25.07.38.14.81.19,1.09.29-.24.58-.48.88-.72l-.33-.59Z"/>
          <path class="cls-1" d="M101.35,68.7c-.46-.26-.91-.53-1.35-.78q-.42,1.41.1,2.74h2.31c-.21-.37-.44-.73-.63-1.11-.12-.24-.2-.49-.3-.74-.09.02-.18.04-.28.07.05-.06.1-.12.15-.17Z"/>
          <path class="cls-1" d="M105.46,16.46c-.49-.89.17-1.73-.59-2.45h-1.85c.62,1.12-.04,1.96.82,2.77.4-.08.93-.19,1.62-.32Z"/>
          <path class="cls-1" d="M81.69,129.07c.87-1.62,1.41-2.48,1.78-3.4.12-.3-.22-.77-.37-1.22-.54.12-.96.21-1.41.32v4.3Z"/>
          <path class="cls-1" d="M72.24,91.6c.83-.16,1.25-.24,2.01-.39-.47-.77.08-1.59-.42-2.3l-.09-.1-.66-.15c-.26.05-.54.1-.84.16v2.78Z"/>
          <path class="cls-1" d="M134.49,75.86l-1.11.35-.97-.84c-.29.14-.53.27-.78.39.66.66,1.09,1.09,1.51,1.51.35-.5,1.07-.88,1.35-1.41Z"/>
          <path class="cls-1" d="M105.33,4.06c-.03-.14-.05-.27-.08-.4l-.6.68c.24-.1.46-.19.68-.28Z"/>
          <path class="cls-1" d="M97.04,37.73c-.44.86-.49,1.69.03,2.52.87.09,1.77.53,2.55-.37-.66-.3-1.31-.58-1.59-.71-.56-.62.08-1.48-.98-1.45Z"/>
          <path class="cls-1" d="M88.7,49.09l-.21-1.18.45-1.12h0c-.6.6-1.15,1.14-1.71,1.73.42.16.8.31,1.47.57Z"/>
          <path class="cls-1" d="M91.93,23.75c.14.67.2.95.31,1.51.98-.54,1.76-.98,2.48-1.37-.5-.58-.88-1.02-1-1.15-.69.39-1.34.76-1.8,1.02Z"/>
          <path class="cls-1" d="M106.3.35l.1-.1.03-.25-.11.28s0,.05-.01.07Z"/>
          <path class="cls-1" d="M76.95,117.52c.49.49.92.92,1.15,1.15.62-.41,1.23-.81,1.81-1.19-.26-.68-.41-1.07-.53-1.39-.85.5-1.63.96-2.43,1.43Z"/>
          <path class="cls-1" d="M52.19,109.09c.59.11.97.83,1.46,1.16l.05-.04.84-.87.52-.17c-.04-.18-.08-.37-.12-.54-.99-.08-1.9-.54-2.75.47Z"/>
          <path class="cls-1" d="M86.94,131.21c.55-1.16,2-1.52,2.24-2.88-.47,0-.93,0-1.4,0q-1.57,1.62-.84,2.88Z"/>
          <path class="cls-1" d="M97.95,160.27l.06.16.42,1.1c.41-.24.86-.5,1.37-.8-.75-.15-1.17-.24-1.75-.35-.02-.03-.07-.07-.09-.1Z"/>
          <path class="cls-1" d="M144.96,78.66v-.27l-.93-.78-1.05.21c-.26.37-.56.78-.93,1.3,1.04-.29,2,.65,2.91-.46Z"/>
          <path class="cls-1" d="M84.03,53.6c-.38.48-.83,1.06-1.27,1.63.78.6,1.72.64,2.7-.23-.08-.4-.16-.81-.23-1.18-.42-.08-.71-.13-1.19-.22Z"/>
          <path class="cls-1" d="M34.23,67.56s.06.06.1.08c-.07-1.55-.09-1.55-1.49-1.64-.35.54-1.14.77-1.14,1.7h2.56s-.02-.1-.04-.15Z"/>
          <path class="cls-1" d="M61.76,67.82h0s0,0,0,0c-.62-.34-1.23-.67-1.8-.98-.34.13-.61.23-.87.34.41.85.82,1.69,1.18,2.44.5-.29,1-.57,1.49-.85v-.95s0,0,0,0Z"/>
          <path class="cls-1" d="M110.53,102.93c.58-1.4.58-2.65,0-4.05-.45.9-.82,1.64-1.3,2.6.4.45.8.9,1.3,1.45Z"/>
          <path class="cls-1" d="M66.42,84.29l-.9-.41-.65-.91c-.75,0-1.49.08-2.19.67,1.33-.03,2.48.35,3.69,1.21.02-.2.03-.38.04-.56Z"/>
          <path class="cls-1" d="M45.51,84.19c-.67-.59-1.47-.14-2.17-.29-.33-.31-.66-.62-.98-.93-.31.32-.47.63-.49.93l.27.27.86.68h2.21c.1-.22.2-.43.3-.65Z"/>
          <path class="cls-1" d="M127.94,83.16c-.6-.98-.97-1.58-1.36-2.22-.79,1.01-.58,1.85-.27,2.86.5.04,1.06.08,1.63.13,0-.01,0-.02,0-.03v-.73Z"/>
          <path class="cls-1" d="M104.78,81.06c-.1.22-.2.43-.3.65.67.59,1.47.14,2.17.29.33.31.66.62.98.93.64-.67.7-1.3-.09-1.87-.93,0-1.85,0-2.77,0Z"/>
          <path class="cls-1" d="M81.44,105.64h-2.21c-.69.71-.37,1.33-.46,1.89.96-.15,1.53-1.14,2.56-1.17.09,0,.18-.42.26-.67-.08.02-.17.04-.25.06.03-.04.06-.07.09-.11Z"/>
          <path class="cls-1" d="M117.54,99.34v1.53c.09-.02.18-.04.26-.07-.04.05-.07.09-.11.13.52-.04,1.05-.08,1.75-.14-.08-.69-.13-1.21-.21-1.93-.75.21-1.25.34-1.69.47Z"/>
          <path class="cls-1" d="M98.5,124.2c2.08.37,2.08.35,2.82-.27-.43-.43-.85-.85-1.28-1.28-.43.43-.85.85-1.55,1.54Z"/>
          <path class="cls-1" d="M38.99,121.52v-1.83c-.83.16-1.25.24-1.87.36.12.65.22,1.18.33,1.77.63-.12,1.06-.2,1.54-.29Z"/>
          <path class="cls-1" d="M87.37,119.99s.01.06.02.1c-.02-.02-.04-.03-.06-.05-.35.47-.66.88-1.01,1.34.45.14.86.28,1.18.38.55-.41,1.06-.79,1.86-1.38l-.07-.41c-.99-.09-1.47-.13-1.78-.16-.05.07-.09.12-.14.19Z"/>
          <path class="cls-1" d="M82.71,113.97c.43.08.84.15,1.23.23.42-.6,1.18-.87,1.31-1.77-.43-.08-.84-.15-1.23-.23-.42.6-1.18.87-1.31,1.77Z"/>
          <path class="cls-1" d="M46.61,74.93c-.83-.43-1.66-.86-2.6-1.34-.25.57-.45,1.1.07,1.63.87.15,1.76.52,2.53-.28Z"/>
          <path class="cls-1" d="M103.8,64.96l-.18-.69.69-.91c-.05-.39-.15-.83-.21-1.33-.7.13-1.13.21-1.58.3.47.95.87,1.78,1.28,2.62Z"/>
          <path class="cls-1" d="M27.14,68.55c-.28-.58-.56-1.13-.82-1.68-.24.22-.38.45-.45.69l.3.35.97.64Z"/>
          <path class="cls-1" d="M60.34,65.93c.43-.43.85-.85,1.55-1.54-2.08-.37-2.08-.35-2.83.27.43.43.85.85,1.28,1.28Z"/>
          <path class="cls-1" d="M131.84,90.46l-1-.49h-.07v.53s0,0,0,0c0,0,0,0,0,0v.03c.34-.03.68-.05,1.07-.08Z"/>
          <path class="cls-1" d="M132.68,90.4c0-.08-.02-.16-.03-.24l-.38.27c.13-.01.26-.02.41-.03Z"/>
          <path class="cls-1" d="M30.54,127.8c-.69-.43-.93-1.34-1.83-1.37.02.09.04.17.07.26-.04-.03-.07-.06-.11-.09,0,.41,0,.83,0,1.24.56.39.81,1.19,1.75,1.23.04-.45.08-.88.12-1.27Z"/>
          <path class="cls-1" d="M102.49,128.52v1.83c.83-.16,1.25-.24,1.87-.36-.12-.65-.22-1.18-.33-1.77-.63.12-1.06.2-1.54.29Z"/>
          <path class="cls-1" d="M102.02,37.65h-1.83c.6,1.12-.04,1.94.7,2.67.76-.17.54-.81.57-1.31q.94-.97.56-1.35Z"/>
          <path class="cls-1" d="M97.35,45c.43-.43.86-.86,1.29-1.29-.09-.48.29-1.18-.61-1.28-.43.43-.86.86-1.29,1.29.09.48-.29,1.18.61,1.28Z"/>
          <path class="cls-1" d="M97.75,5.16c.04.28.18.65.41,1.19.33-.31.62-.7,1-.91.07-.04.17-.05.26-.05l-.03-.13.52-.78c-.27-.03-.56-.01-.83,0-.37,0-.66.02-.87.06l-.16.1-.3.52Z"/>
          <path class="cls-1" d="M106.09,6.28l.09-.4-.3-.62c-.61.65-.57.69-.24,1.02h.45Z"/>
          <path class="cls-1" d="M104.64,10h0c.39.08.36.07,0,0Z"/>
          <path class="cls-1" d="M105.93,9.42l-.04-.61c-.76.34-1.34.61-2.2,1,.42.09.74.15.95.19.5-.23.91-.41,1.28-.58Z"/>
          <path class="cls-1" d="M96.45,120.61c.45-.54.46-1.06-.15-1.75-.42.08-.95.17-1.65.29.73.61,1.03,1.31,1.8,1.46Z"/>
          <path class="cls-1" d="M63.48,121.3c-1.43-.31-1.52-1.31-2.38-1.32-.43.56-.46,1.09.18,1.76.42-.08.94-.19,2.2-.44Z"/>
          <path class="cls-1" d="M100.64,74.09c.25.12.51.36.74.33.37-.05.73-.27,1.04-.39,0-.59,0-1.03,0-1.47-.91.14-1.37.81-1.77,1.54Z"/>
          <path class="cls-1" d="M33.88,51.72c-.42.08-.94.19-2.2.44,1.43.31,1.52,1.31,2.38,1.32.43-.56.46-1.09-.18-1.76Z"/>
          <path class="cls-1" d="M41.85,133.02c-.08,0-.16-.01-.24-.03.44.45.7.95.97.96.69.02,1.49.34,2.11-.37-.72-.93-1.69-.45-2.79-.55,0,0,0,.02,0,.02-.02-.01-.04-.02-.06-.03Z"/>
          <path class="cls-1" d="M118.5,78.71c.64.66,1.26.66,1.93-.08-.07-.37-.15-.79-.23-1.22-.88.17-1.18.87-1.69,1.3Z"/>
          <path class="cls-1" d="M104.97,78.38c.29.11.18.54.34.73.07-.02.14-.03.21-.05-.04.04-.07.08-.1.12.07.02.15.03.28-.01.71-.56.71-1.17.06-1.87-.36.03-.77.06-1.76.14.56.56.73.86.98.95Z"/>
          <path class="cls-1" d="M100.87,85.9c-.4.49-.53.94-.26,1.35l1.15-.39.27-.04c-.29-.38-.7-.66-1.15-.92Z"/>
          <path class="cls-1" d="M136.78,85.11l1.19-.06c-.78-.35-1.58-.34-2.73.37.14.02.25.04.37.06l1.17-.37Z"/>
          <path class="cls-1" d="M110.05,91.85c-.45-.13-.66-.55-.99-.86l-.84-.11c-.06.35-.13.68-.18.99.67.73,1.3.73,2.01-.02Z"/>
          <path class="cls-1" d="M146.37,82.94c.49-.07,1.18.29,1.3-.6-.43-.43-.86-.86-1.29-1.29-.67.62-.68,1.25,0,1.89Z"/>
          <path class="cls-1" d="M23.07,62.55c-.71-.2-.82-1.15-1.79-1.2-.05.29-.1.56-.15.83l.34.28.24.59c.44.17.88.01,1.36-.5Z"/>
          <path class="cls-1" d="M77,109.07c.25.12.51.36.74.33.37-.05.73-.27,1.04-.39,0-.59,0-1.03,0-1.47-.91.14-1.37.81-1.77,1.54Z"/>
          <path class="cls-1" d="M50.13,100.5c2.22.45,2.22.44,2.98-.21-.83-.51-1.67-.47-2.98.21Z"/>
          <path class="cls-1" d="M120.77,100.99c-.25.37-.7.61-.95,1.03l.18-.08,1.28.15h.05c.02-.45.07-.88-.57-1.11Z"/>
          <path class="cls-1" d="M105.41,84.85c.07.02.15.03.28-.01.71-.57.71-1.17.06-1.87-.36.03-.77.06-1.76.14.56.56.73.86.98.95.29.11.18.54.34.73.07-.02.14-.03.21-.05-.04.04-.07.08-.1.12Z"/>
          <path class="cls-1" d="M98.61,65.45c.08.42.19.94.44,2.2.31-1.44,1.31-1.52,1.32-2.38-.56-.43-1.09-.46-1.76.18Z"/>
          <path class="cls-1" d="M57.73,101.08c.11-.7.19-1.22.32-2.06-.73,0-.89-.03-1.03,0-.27.08-.52.21-.78.31.11.21.19.46.35.64.29.33.62.61,1.14,1.11Z"/>
          <path class="cls-1" d="M127,99.49c.06.4-.16.93.23,1.17l.84-.35c.27-.27.55-.55.82-.82-.62-.67-1.25-.68-1.89,0Z"/>
          <path class="cls-1" d="M112.83,73.05c-.01-.08-.03-.17-.05-.26l-.55-.09-.96.03c-.09.14-.16.29-.19.48.54.45,1.06.46,1.75-.15Z"/>
          <path class="cls-1" d="M104.43,28.71c.23.23.47.46.7.7l.16-.88-.17-.42c-.32,0-.61.07-.68.61Z"/>
          <path class="cls-1" d="M93.66,47.96c.38.09.76-.03,1.21-.46-.08-.42-.19-.94-.44-2.2-.08.37-.21.65-.35.88l-.2.74-.22,1.04Z"/>
          <path class="cls-1" d="M14.45,138.69h0c.38-.07.79-.24,1.26-.53-.46-.08-.81-.14-1.11-.19l-.14.72Z"/>
          <path class="cls-1" d="M91.11,135.49c.9.6,1.76.71,3.07-.36.07-.06.14-.11.21-.18v-.11c-.16.03-.33.05-.48.06-1.22.08-2.12-.28-2.8.59Z"/>
          <path class="cls-1" d="M100.45,41.9c.71.2.82,1.15,1.79,1.2.08-.43.16-.85.23-1.22-.67-.73-1.3-.73-2.01.02Z"/>
          <path class="cls-1" d="M3.28,43.33l.24.85c.22.04.46.09.74.14-.09-.5-.16-.85-.22-1.18l-.55-.05-.29-.38c-.06.06-.13.13-.19.19l.27.43Z"/>
          <path class="cls-1" d="M111.39,74.44c-.68.63-.68,1.26,0,1.9.68-.63.68-1.26,0-1.9Z"/>
          <path class="cls-1" d="M78.82,47.96s.02.09.03.13c.48.83.55.82,1.79.41-.44-.82-1.2-.45-1.82-.54Z"/>
          <path class="cls-1" d="M27.6,48.04c-.83.48-.82.55-.43,1.74.99-.34.41-1.16.55-1.77-.04,0-.08.02-.12.03Z"/>
          <path class="cls-1" d="M30.98,60.12l-.43-.14c-.06.46-.11.91.56,1.14.09-.27.15-.47.2-.65l-.33-.36Z"/>
          <path class="cls-1" d="M31.58,50.33c-.86-.61-1.46-.89-1.85.14.55.51,1.08.48,1.85-.14Z"/>
          <path class="cls-1" d="M103.34,71.83c.07-.63-.04-1.24-.93-1.17v1.89c.58.11.87-.24.93-.72Z"/>
          <path class="cls-1" d="M84.5,39.49c.02.08.04.16.06.23-.03-.03-.05-.05-.08-.07.03.58-.38,1.3.53,1.62.41-1.23.41-1.25-.5-1.78Z"/>
          <path class="cls-1" d="M51.69,60.37c-.51.55-.48,1.08.14,1.85.61-.86.89-1.46-.14-1.85Z"/>
          <path class="cls-1" d="M95.97,61.52c.06.22.21.59.34.6.41.02.84-.09,1.25-.15-.01-.2-.02-.4-.03-.6-.42-.06-.84-.13-1.26-.15-.1,0-.32.23-.3.3Z"/>
          <path class="cls-1" d="M10.31,40.81l.77.54c.18-.09.33-.28.46-.61-.53-.49-1.04-.47-1.77.09l.54-.02Z"/>
          <path class="cls-1" d="M104.31,24.8c-.63-.68-1.26-.68-1.9,0,.63.68,1.26.68,1.9,0Z"/>
          <path class="cls-1" d="M97.67,73.02c0-.1-.23-.32-.3-.3-.22.06-.59.21-.6.34-.02.41.09.84.15,1.25.2-.01.4-.02.6-.03.06-.42.13-.84.15-1.26Z"/>
          <path class="cls-1" d="M88.22,26.69c0-.1-.23-.32-.3-.3-.22.06-.59.21-.6.34-.02.41.09.84.15,1.25.2-.01.4-.02.6-.03.06-.42.13-.84.15-1.26Z"/>
          <path class="cls-1" d="M103.04,44.35c-.22.06-.59.21-.6.34-.02.41.09.84.15,1.25.2-.01.4-.02.6-.03.06-.42.13-.84.15-1.26,0-.1-.23-.32-.3-.3Z"/>
          <path class="cls-1" d="M80.29,35.78l.1,1.28-.43.27c.06.08.14.16.23.24.64-.6.67-1.19.1-1.79Z"/>
          <path class="cls-1" d="M95.8,64.51c-.63-.68-1.26-.68-1.9,0,.63.68,1.26.68,1.9,0Z"/>
          <path class="cls-1" d="M95.11,58.26c-.05.06-.1.11-.14.17.63-.18,1.37.27,1.69-.61-1.18-.39-1.26-.4-1.78.5.08-.02.15-.04.23-.06Z"/>
          <path class="cls-1" d="M61.76,67.82q.97-.56.55-1.81c-1.01.35-.38,1.2-.55,1.81h0s0,0,0,0Z"/>
          <path class="cls-1" d="M51.36,66.4c.63.68,1.26.68,1.9,0-.63-.68-1.26-.68-1.9,0Z"/>
          <path class="cls-1" d="M27.29,65.9c.41.02.84-.09,1.25-.15-.01-.2-.02-.4-.03-.6-.42-.06-.84-.13-1.26-.15-.1,0-.32.23-.3.3.06.22.21.59.34.6Z"/>
          <path class="cls-1" d="M82.23,43.13c.51-.55.48-1.08-.14-1.85-.61.86-.89,1.46.14,1.85Z"/>
          <path class="cls-1" d="M90.12,30.48c-.63-.68-1.26-.68-1.9,0,.63.68,1.26.68,1.9,0Z"/>
          <path class="cls-1" d="M49.94,64.06c-.1,0-.32.23-.3.3.06.22.21.59.34.6.41.02.84-.09,1.25-.15-.01-.2-.02-.4-.03-.6-.42-.06-.84-.13-1.26-.15Z"/>
          <path class="cls-1" d="M28.74,58.84c.17.27.38.4.6.45l-.42-.4-.18-.04Z"/>
          <path class="cls-1" d="M79.72,45.6c.63.68,1.26.68,1.9,0-.63-.68-1.26-.68-1.9,0Z"/>
          <path class="cls-1" d="M54.36,68.93c-.04.27-.08.54-.11.81h.02s.71.55.71.55c.07-.04.12-.09.12-.13.02-.41-.09-.84-.15-1.25-.2.01-.4.02-.6.03Z"/>
          <path class="cls-1" d="M44.85,55.2c.55.51,1.08.48,1.85-.14-.07-.05-.13-.09-.19-.13l-.3.1-.59-.51c-.31-.02-.57.16-.77.68Z"/>
          <path class="cls-1" d="M95.82,155.94c.01.24-.04.5-.06.75l.64.5.03.1c.31-.95.25-1.03-.59-1.51.02.08.04.16.06.23-.03-.03-.05-.05-.08-.07Z"/>
          <path class="cls-1" d="M105.72,138.73c.68-.63.68-1.26,0-1.9-.68.63-.68,1.26,0,1.9Z"/>
          <path class="cls-1" d="M88.23,133.53c-.63-.68-1.26-.68-1.9,0,.63.68,1.26.68,1.9,0Z"/>
          <path class="cls-1" d="M92.96,141.09c.63.68,1.26.68,1.9,0-.63-.68-1.26-.68-1.9,0Z"/>
          <path class="cls-1" d="M128.88,94.77c.63.68,1.26.68,1.9,0-.63-.68-1.26-.68-1.9,0Z"/>
          <path class="cls-1" d="M125.88,93.98c-.06-.22-.21-.59-.34-.6-.41-.02-.84.09-1.25.15.01.2.02.4.03.6.42.06.84.13,1.26.15.1,0,.32-.23.3-.3Z"/>
          <path class="cls-1" d="M135.98,97.13c.68-.63.68-1.26,0-1.9-.68.63-.68,1.26,0,1.9Z"/>
          <path class="cls-1" d="M143.14,95.37c.16.3.3.66.55.77.34.15.81.05,1.22.04-.01-.04-.02-.09-.03-.14-.16-.3-.3-.66-.55-.77-.34-.15-.81-.05-1.22-.04.01.04.02.09.03.14Z"/>
          <path class="cls-1" d="M130.78,90.51q-.97.56-.55,1.81c1.01-.35.38-1.2.55-1.81,0,0,0,0,0,0,0,0,0,0,0,0Z"/>
          <path class="cls-1" d="M74.92,92.91c-.08-.17-.21-.34-.39-.51-.37.35-.53.7-.5,1.04l.14-.03.75-.51Z"/>
          <path class="cls-1" d="M45.25,104.66c.41.02.84-.09,1.25-.15-.01-.2-.02-.4-.03-.6-.42-.06-.84-.13-1.26-.15-.1,0-.32.23-.3.3.06.22.21.59.34.6Z"/>
          <path class="cls-1" d="M72.77,104.58c.51-.55.48-1.08-.14-1.85-.61.86-.89,1.46.14,1.85Z"/>
          <path class="cls-1" d="M50.55,97.31c.01.2.02.4.03.6.42.06.84.13,1.26.15.1,0,.32-.23.3-.3-.06-.22-.21-.59-.34-.6-.41-.02-.84.09-1.25.15Z"/>
          <path class="cls-1" d="M46.64,100.44c-.63-.68-1.26-.68-1.9,0,.63.68,1.26.68,1.9,0Z"/>
          <path class="cls-1" d="M98.08,82.87c.99-.34.41-1.16.55-1.77-.04,0-.08.02-.12.03-.83.48-.82.55-.43,1.74Z"/>
          <path class="cls-1" d="M119.54,81.67c.55.51,1.08.48,1.85-.14-.86-.61-1.46-.89-1.85.14Z"/>
          <path class="cls-1" d="M100.4,76.27c-.63.18-1.37-.27-1.69.61,1.17.39,1.26.4,1.78-.5-.08.02-.15.04-.23.06.05-.06.1-.11.15-.17Z"/>
          <path class="cls-1" d="M52.31,86.26c-.63-.68-1.26-.68-1.9,0,.63.68,1.26.68,1.9,0Z"/>
          <path class="cls-1" d="M60.34,84.84c.68-.63.68-1.26,0-1.9-.68.63-.68,1.26,0,1.9Z"/>
          <path class="cls-1" d="M119.6,83.11c-.06.42-.13.84-.15,1.26,0,.1.23.32.3.3.22-.06.59-.21.6-.34.02-.41-.09-.84-.15-1.25-.2.01-.4.02-.6.03Z"/>
          <path class="cls-1" d="M100.52,84.37c.63.68,1.26.68,1.9,0-.63-.68-1.26-.68-1.9,0Z"/>
          <path class="cls-1" d="M127.94,83.89s0,.02,0,.03c0,.37-.08.76,0,1.09l.35-.07.63.11c0-.19,0-.38-.08-.54-.13-.29-.59-.42-.91-.63Z"/>
          <path class="cls-1" d="M38.61,122.76c-.48-.27-.96-.14-1.44.37.11.12.23.22.34.3l.27-.38.82-.28Z"/>
          <path class="cls-1" d="M80.67,121.24c.63.68,1.26.68,1.9,0-.63-.68-1.26-.68-1.9,0Z"/>
          <path class="cls-1" d="M104.78,126.44c.68-.63.68-1.26,0-1.9-.68.63-.68,1.26,0,1.9Z"/>
          <path class="cls-1" d="M62.27,124.52c.41.02.84-.09,1.25-.15-.01-.2-.02-.4-.03-.6-.42-.06-.84-.13-1.26-.15-.1,0-.32.23-.3.3.06.22.21.59.34.6Z"/>
          <path class="cls-1" d="M85.36,118.37c.02-.41-.09-.84-.15-1.25-.2.01-.4.02-.6.03-.06.42-.13.84-.15,1.26,0,.1.23.32.3.3.22-.06.59-.21.6-.34Z"/>
          <path class="cls-1" d="M41,132.43c.12.27.54.41.85.6.02.01.04.02.06.03,0,0,0-.02,0-.02,0-.42.12-.89-.04-1.24-.13-.29-.59-.42-.91-.63,0,.43-.12.91.04,1.26Z"/>
          <path class="cls-1" d="M58.01,115.5c.44.82,1.2.45,1.82.54,0-.04-.02-.09-.03-.13-.48-.83-.55-.82-1.79-.41Z"/>
          <path class="cls-1" d="M95.67,20.57l.02-.38.33-.59c-.39-.1-.78.06-1.17.48.27.29.55.45.82.49Z"/>
          <path class="cls-1" d="M95.32,11.09c-.68.63-.68,1.26,0,1.9.68-.63.68-1.26,0-1.9Z"/>
          <path class="cls-1" d="M28.53,47.59l-.1-.09-.38-.12c-.16.18-.34.39-.59.69.05-.01.09-.02.14-.03.04,0,.08-.02.12-.03.44-.1.82-.15.81-.42Z"/>
          <path class="cls-1" d="M77.92,47.41c.26.22.52.44.97.82-.01-.05-.02-.09-.03-.14-.01-.04-.02-.09-.03-.13-.14-.62-.17-1.12-.9-.55Z"/>
          <path class="cls-1" d="M84.27,48.6c-.05-.22-.19-.42-.3-.63-.11.11-.31.23-.3.31.05.22.19.42.3.63.11-.11.31-.23.3-.31Z"/>
          <path class="cls-1" d="M102.24,48.6c-.05-.22-.19-.42-.3-.63-.11.11-.31.23-.3.31.05.22.19.42.3.63.1-.11.31-.23.3-.31Z"/>
          <path class="cls-1" d="M5.35,45.9c.22-.05.42-.19.63-.3-.11-.1-.21-.21-.34-.34-.2.11-.4.22-.61.34.11.11.23.31.31.3Z"/>
          <path class="cls-1" d="M98.3,46.21c-.2.11-.4.22-.61.34.11.1.23.31.31.3.22-.05.42-.19.63-.3-.1-.11-.21-.21-.34-.34Z"/>
          <path class="cls-1" d="M17.15,53.33c-.05-.22-.19-.42-.3-.63-.11.1-.21.21-.34.34.11.2.22.4.34.61.1-.11.31-.23.3-.31Z"/>
          <path class="cls-1" d="M79.72,53.17c.1.11.23.31.31.3.22-.05.42-.19.63-.3-.1-.11-.21-.21-.34-.34-.2.11-.4.22-.61.34Z"/>
          <path class="cls-1" d="M99.27,50.03c-.22.05-.42.19-.63.3.1.11.21.21.34.34.2-.11.4-.22.61-.34-.1-.1-.23-.31-.31-.3Z"/>
          <path class="cls-1" d="M16.91,51.7l-.1-.04s.03.06.05.09c.02-.02.04-.03.05-.05Z"/>
          <path class="cls-1" d="M84.5,39.49c-.15-.64-.17-1.16-.91-.59.24.2.49.42.88.75.03.02.05.04.08.07-.02-.08-.04-.16-.06-.23Z"/>
          <path class="cls-1" d="M13.58,40.9l-.02-.04s-.01.01-.02.02c.01,0,.02.01.04.02Z"/>
          <path class="cls-1" d="M77.31,41.25s.04.06.05.1c.11-.11.21-.21.34-.34-.04-.06-.07-.13-.11-.2l-.11.13-.17.31Z"/>
          <path class="cls-1" d="M18.09,44.82c-.05-.22-.19-.42-.3-.63-.1.11-.31.23-.3.31.05.22.19.42.3.63.11-.11.31-.23.3-.31Z"/>
          <path class="cls-1" d="M15.64,41.83s-.05.09-.07.13c.12.12.23.23.33.33l-.26-.46Z"/>
          <path class="cls-1" d="M85.57,42.61c.05.22.19.42.3.63.1-.11.21-.21.34-.34-.11-.2-.22-.4-.34-.61-.11.11-.31.23-.3.31Z"/>
          <path class="cls-1" d="M91.84,63.73c-.05-.22-.19-.42-.3-.63-.11.11-.31.23-.3.31.05.22.19.42.3.63.1-.1.31-.23.3-.31Z"/>
          <path class="cls-1" d="M97.86,63.4c.05.22.19.42.3.63.1-.1.31-.23.3-.31-.05-.22-.19-.42-.3-.63-.11.11-.31.23-.3.31Z"/>
          <path class="cls-1" d="M89.65,64.98c.1-.1.31-.23.3-.31-.05-.22-.19-.42-.3-.63-.1.11-.31.23-.3.31.05.22.19.42.3.63Z"/>
          <path class="cls-1" d="M28.85,69.08c.05.22.19.42.3.63.11-.1.21-.21.34-.34-.11-.2-.22-.4-.34-.61-.1.11-.31.23-.3.31Z"/>
          <path class="cls-1" d="M61.76,68.77c-.02.65.29.97.95.95.02-.65-.29-.97-.95-.95Z"/>
          <path class="cls-1" d="M92.01,69.24c.21.11.41.25.63.3.08.02.21-.19.31-.3-.21-.11-.41-.23-.61-.34-.13.13-.23.23-.34.34Z"/>
          <path class="cls-1" d="M40.96,70.18c-.1-.11-.21-.21-.34-.34-.2.11-.4.22-.61.34.1.11.23.31.31.3.22-.05.42-.19.63-.3Z"/>
          <path class="cls-1" d="M69.19,70.32c-.11-.2-.22-.4-.34-.61-.1.11-.31.23-.3.31.05.22.19.42.3.63.11-.11.21-.21.34-.34Z"/>
          <path class="cls-1" d="M34.27,67.71c.16.68.16,1.27.93.68-.24-.2-.48-.41-.87-.74-.03-.03-.06-.05-.1-.08.01.05.02.1.04.15Z"/>
          <path class="cls-1" d="M101.2,68.87c.09-.03.19-.05.28-.07.62-.14,1.1-.18.55-.9-.19.22-.38.45-.67.79-.05.06-.09.11-.15.17Z"/>
          <path class="cls-1" d="M35.6,57.24c.22-.05.42-.19.63-.3-.11-.11-.21-.21-.34-.34-.2.11-.4.22-.61.34.1.1.23.31.31.3Z"/>
          <path class="cls-1" d="M99.58,56.95c.21.1.41.25.63.3.08.02.21-.19.31-.3-.21-.11-.41-.23-.61-.34-.13.13-.23.23-.34.34Z"/>
          <path class="cls-1" d="M19.39,57.73c.05.22.19.42.3.63.11-.11.21-.21.34-.34-.11-.2-.22-.4-.34-.61-.1.11-.31.23-.3.31Z"/>
          <path class="cls-1" d="M56.09,58.11v.25c.1-.04.23-.07.35-.11l-.35-.14Z"/>
          <path class="cls-1" d="M93.43,55.53c.1-.11.21-.21.34-.34-.11-.2-.22-.4-.34-.61-.1.11-.31.23-.3.31.05.22.19.42.3.63Z"/>
          <path class="cls-1" d="M49,63.09c.11-.21.23-.41.34-.61-.13-.13-.23-.23-.34-.34-.1.21-.25.41-.3.63-.02.08.19.21.3.31Z"/>
          <path class="cls-1" d="M58.88,62.16c.14.62.18,1.11.9.55-.23-.2-.48-.41-.86-.73-.04-.03-.07-.06-.11-.09.03.09.05.18.07.27Z"/>
          <path class="cls-1" d="M83.5,58.84c.21.11.41.23.61.34.13-.13.23-.23.34-.34-.21-.1-.41-.25-.63-.3-.08-.02-.21.19-.31.3Z"/>
          <path class="cls-1" d="M94.88,58.32c-.64.15-1.16.17-.59.91.19-.22.38-.45.68-.8.05-.06.09-.11.14-.17-.08.02-.16.04-.23.06Z"/>
          <path class="cls-1" d="M100.05,58.37c-.1.1-.31.23-.3.31.05.22.19.42.3.63.11-.11.21-.21.34-.34-.11-.2-.22-.4-.34-.61Z"/>
          <path class="cls-1" d="M105.42,12.05c-.14.03-.28.06-.43.1.04-.04.06-.07.1-.11-.54.11-.9.2-.39.86.2-.23.41-.47.73-.85Z"/>
          <path class="cls-1" d="M105.42,12.05c.14-.03.27-.06.38-.1v-.1s.1-.54.1-.54c-.03-.04-.05-.08-.08-.12-.2.23-.41.47-.73.85-.03.04-.06.07-.1.11.15-.04.29-.07.43-.1Z"/>
          <path class="cls-1" d="M95.62,14.57c-.05-.22-.19-.42-.3-.63-.1.1-.21.21-.34.34.11.2.22.4.34.61.11-.11.31-.23.3-.31Z"/>
          <path class="cls-1" d="M98.3,30.7c.07-.12.13-.24.2-.36,0,0-.01-.01-.02-.02l-.16.23-.02.16Z"/>
          <path class="cls-1" d="M92.19,19.91c.05.22.19.42.3.63.1-.1.31-.23.3-.31-.05-.22-.19-.42-.3-.63-.11.11-.31.23-.3.31Z"/>
          <path class="cls-1" d="M85.4,115.56c.21.11.41.25.63.3.08.02.21-.19.31-.3-.21-.11-.41-.23-.61-.34-.13.13-.23.23-.34.34Z"/>
          <path class="cls-1" d="M62.71,112.73c-.21-.11-.41-.23-.61-.34-.13.13-.23.23-.34.34.21.1.41.25.63.3.08.02.21-.19.31-.3Z"/>
          <path class="cls-1" d="M85.06,120.63c.13-.13.23-.23.34-.34-.21-.11-.41-.25-.63-.3-.08-.02-.21.19-.31.3.21.11.41.23.61.34Z"/>
          <path class="cls-1" d="M82.25,119.05c-.22.05-.42.19-.63.3.11.1.23.31.31.3.22-.05.42-.19.63-.3-.1-.11-.23-.31-.31-.3Z"/>
          <path class="cls-1" d="M87.37,119.99c-.18-.7-.15-1.34-.94-.73.24.21.5.42.91.77.02.02.04.03.06.05,0-.03-.02-.06-.02-.1Z"/>
          <path class="cls-1" d="M59.76,115.77s.02.09.03.14c.01.04.02.09.03.13.14.62.17,1.12.9.55-.26-.22-.51-.44-.97-.82Z"/>
          <path class="cls-1" d="M75.63,116.21c-.22.05-.42.19-.63.3.1.11.21.21.34.34.2-.11.4-.22.61-.34-.1-.1-.23-.31-.31-.3Z"/>
          <path class="cls-1" d="M30.26,118.14l-.14.65c.29-.09.41-.25.14-.65Z"/>
          <path class="cls-1" d="M48.52,108c-.21-.11-.41-.25-.63-.3-.08-.02-.21.19-.31.3.21.11.41.23.61.34.13-.13.23-.23.34-.34Z"/>
          <path class="cls-1" d="M76.12,105c.05.22.19.42.3.63.1-.11.21-.21.34-.34-.11-.2-.22-.4-.34-.61-.1.11-.31.23-.3.31Z"/>
          <path class="cls-1" d="M81.44,105.64s-.06.07-.09.11c.08-.02.17-.04.25-.06.63-.14,1.14-.17.57-.9-.2.23-.41.48-.73.86Z"/>
          <path class="cls-1" d="M47.71,105.97c.11.2.22.4.34.61.1-.1.31-.23.3-.31-.05-.22-.19-.42-.3-.63-.11.1-.21.21-.34.34Z"/>
          <path class="cls-1" d="M52.17,105.97c-.13-.13-.23-.23-.34-.34-.1.21-.25.41-.3.63-.02.08.19.21.3.31.11-.21.23-.41.34-.61Z"/>
          <path class="cls-1" d="M47.4,111c-.05-.22-.19-.42-.3-.63-.11.11-.31.23-.3.31.05.22.19.42.3.63.1-.11.31-.23.3-.31Z"/>
          <path class="cls-1" d="M84.44,110.53c.12.54.21.9.86.39-.23-.2-.47-.4-.85-.73.03.14.06.28.1.43-.04-.04-.07-.06-.11-.1Z"/>
          <path class="cls-1" d="M49.94,110.36c.11-.21.23-.41.34-.61-.13-.13-.23-.23-.34-.34-.11.21-.25.41-.3.63-.02.08.19.21.3.31Z"/>
          <path class="cls-1" d="M83.59,109.81c.23.2.47.4.85.73.04.03.07.06.11.1-.04-.15-.07-.29-.1-.43-.12-.54-.21-.9-.86-.39Z"/>
          <path class="cls-1" d="M104.78,131.16c-.1.11-.31.23-.3.31.05.22.19.42.3.63.1-.1.21-.21.34-.34-.11-.2-.22-.4-.34-.61Z"/>
          <path class="cls-1" d="M18.74,133.06c.1-.11.31-.23.3-.31-.04-.16-.12-.32-.21-.47l-.33.28c.07.17.16.33.24.5Z"/>
          <path class="cls-1" d="M21.72,130.36c-.2.11-.4.22-.61.34.11.11.23.31.31.3.22-.05.42-.19.63-.3-.1-.11-.21-.21-.34-.34Z"/>
          <path class="cls-1" d="M40.21,130.54c-.13.57.29.66.75.63v-.95c-.26.1-.71.16-.75.32Z"/>
          <path class="cls-1" d="M41.71,129.9c.13-.57-.29-.66-.75-.63h0v.95c.26-.1.71-.16.75-.32Z"/>
          <path class="cls-1" d="M85.57,137.15c.05.22.19.42.3.63.11-.1.31-.23.3-.31-.05-.22-.19-.42-.3-.63-.11.1-.31.23-.3.31Z"/>
          <path class="cls-1" d="M20.16,133.53c.21.11.41.23.61.34.13-.13.23-.23.34-.34-.21-.1-.41-.25-.63-.3-.08-.02-.21.19-.31.3Z"/>
          <path class="cls-1" d="M34.34,135.93c.63-.14,1.12-.17.56-.9-.21.25-.43.5-.8.93-.01.01-.02.02-.03.03.09-.03.18-.05.26-.07Z"/>
          <path class="cls-1" d="M36.71,135.89c.1-.11.31-.23.3-.31-.05-.22-.19-.42-.3-.63-.11.11-.21.21-.34.34.11.2.22.4.34.61Z"/>
          <path class="cls-1" d="M107.14,122.18c-.21-.11-.41-.23-.61-.34-.13.13-.23.23-.34.34.21.1.41.25.63.3.08.02.21-.19.31-.3Z"/>
          <path class="cls-1" d="M25.88,129.28c-.14-.63-.17-1.13-.9-.56.24.2.48.41.87.74.03.03.06.05.1.08-.03-.09-.05-.17-.06-.26Z"/>
          <path class="cls-1" d="M31.51,127.86c.11.1.23.31.31.3,0,0,.01,0,.02,0l.51-.37h.02c-.08-.08-.16-.16-.25-.25-.2.11-.4.22-.61.34Z"/>
          <path class="cls-1" d="M90.3,124.86c.05.22.19.42.3.63.1-.11.21-.21.34-.34-.11-.2-.22-.4-.34-.61-.11.11-.31.23-.3.31Z"/>
          <path class="cls-1" d="M28.71,126.44c-.14-.63-.17-1.12-.9-.56.23.2.48.41.86.73.04.03.07.06.11.09-.03-.09-.05-.18-.07-.26Z"/>
          <path class="cls-1" d="M58.79,82.61c-.11-.2-.22-.4-.34-.61-.11.11-.31.23-.3.31.05.22.19.42.3.63.1-.11.21-.21.34-.34Z"/>
          <path class="cls-1" d="M110.15,83.26c.05.22.19.42.3.63.1-.1.21-.21.34-.34-.11-.2-.22-.4-.34-.61-.11.11-.31.23-.3.31Z"/>
          <path class="cls-1" d="M123.21,83.42c.21.11.41.25.63.3.08.02.21-.19.31-.3-.21-.11-.41-.23-.61-.34-.13.13-.23.23-.34.34Z"/>
          <path class="cls-1" d="M44.43,80.88c.08.02.21-.19.31-.3-.21-.11-.41-.23-.61-.34-.13.13-.23.23-.34.34.21.11.41.25.63.3Z"/>
          <path class="cls-1" d="M98.37,81.16s.09-.02.14-.03c.04,0,.08-.02.12-.03.63-.14,1.13-.17.57-.9-.22.26-.44.52-.82.97Z"/>
          <path class="cls-1" d="M140.23,80.58c.11.1.23.31.31.3.22-.05.42-.19.63-.3-.11-.1-.21-.21-.34-.34-.2.11-.4.22-.61.34Z"/>
          <path class="cls-1" d="M133.92,81.23c-.08-.02-.21.19-.31.3.21.11.41.23.61.34.13-.13.23-.23.34-.34-.21-.11-.41-.25-.63-.3Z"/>
          <path class="cls-1" d="M71.9,87.27l-.36-.24c-.11.06-.21.12-.32.18.1.1.23.31.31.3.14-.03.27-.1.4-.17l-.03-.06Z"/>
          <path class="cls-1" d="M62.71,88.15c-.21-.11-.41-.23-.61-.34-.13.13-.23.23-.34.34.21.11.41.25.64.3.08.02.21-.19.31-.3Z"/>
          <path class="cls-1" d="M49,86.73c.11-.21.23-.41.34-.61-.13-.13-.23-.23-.34-.34-.11.21-.25.41-.3.63-.02.08.19.21.3.31Z"/>
          <path class="cls-1" d="M104.69,85.7c.2-.23.4-.47.72-.85.03-.04.06-.07.1-.12-.07.02-.14.04-.21.05-.65.15-1.19.17-.61.91Z"/>
          <path class="cls-1" d="M122.13,74.1c-.03-.06-.07-.12-.1-.18l-.37.09-.1-.04c.07.15.15.31.23.46.1-.1.21-.21.34-.34Z"/>
          <path class="cls-1" d="M104.3,75.55c-.03-.14-.06-.28-.1-.43.04.04.07.06.11.1-.12-.54-.21-.9-.86-.39.23.2.47.4.85.73Z"/>
          <path class="cls-1" d="M125.58,74.44c-.1.11-.31.23-.3.31.05.22.19.42.3.63.1-.11.21-.21.34-.34-.11-.2-.22-.4-.34-.61Z"/>
          <path class="cls-1" d="M115.65,73.02c.1.1.21.21.34.34.2-.11.4-.22.61-.34-.04-.04-.09-.1-.14-.16l-.61.05c-.07.04-.13.07-.2.11Z"/>
          <path class="cls-1" d="M95.66,79.5c-.13-.13-.23-.23-.34-.34-.1.21-.25.41-.3.63-.02.08.19.21.3.31.11-.21.23-.41.34-.61Z"/>
          <path class="cls-1" d="M105.3,79.11c-.65.15-1.19.17-.61.91.2-.23.4-.47.72-.85.03-.04.06-.07.1-.12-.07.02-.14.04-.21.05Z"/>
          <path class="cls-1" d="M101.78,78.4c-.08-.02-.21.19-.31.3.21.11.41.23.61.34.13-.13.23-.23.34-.34-.21-.1-.41-.25-.63-.3Z"/>
          <path class="cls-1" d="M132.06,78.36c-.13.13-.23.23-.34.34.21.11.41.25.63.3.08.02.21-.19.31-.3-.21-.11-.41-.23-.61-.34Z"/>
          <path class="cls-1" d="M92.65,76.51c-.22.05-.42.19-.63.3.11.11.21.21.34.34.2-.11.4-.22.61-.34-.11-.11-.23-.31-.31-.3Z"/>
          <path class="cls-1" d="M100.26,76.44c.08-.02.16-.04.23-.06.64-.15,1.16-.17.59-.91-.19.22-.38.45-.68.8-.05.06-.09.11-.15.17Z"/>
          <path class="cls-1" d="M104.3,75.55c.11.54.2.9.86.39-.23-.2-.47-.4-.85-.73-.04-.03-.07-.06-.11-.1.04.15.07.29.1.43Z"/>
          <path class="cls-1" d="M130.6,76.02c-.05-.22-.19-.42-.3-.63-.11.11-.31.23-.3.31.05.22.19.42.3.63.1-.11.31-.23.3-.31Z"/>
          <path class="cls-1" d="M47.27,78.04c.08.02.21-.19.31-.3-.21-.11-.41-.23-.61-.34-.13.13-.23.23-.34.34.21.1.41.25.63.3Z"/>
          <path class="cls-1" d="M97.51,77.91c-.05-.22-.19-.42-.3-.63-.11.11-.31.23-.3.31.05.22.19.42.3.63.11-.11.31-.23.3-.31Z"/>
          <path class="cls-1" d="M114.23,78.22c.11-.21.23-.41.34-.61-.13-.13-.23-.23-.34-.34-.11.21-.25.41-.3.63-.02.08.19.21.3.31Z"/>
          <path class="cls-1" d="M107.61,99.02c-.11.11-.31.23-.3.31.05.22.19.42.3.63.1-.11.21-.21.34-.34-.11-.2-.22-.4-.34-.61Z"/>
          <path class="cls-1" d="M74.09,100.91c-.14-.63-.17-1.12-.9-.56.25.21.5.43.93.8-.02-.08-.05-.17-.08-.24h.04Z"/>
          <path class="cls-1" d="M115.47,103.44c-.05-.22-.19-.42-.3-.63-.1.11-.31.23-.3.31.04.2.16.39.26.58l.24-.12c.05-.05.09-.09.08-.13Z"/>
          <path class="cls-1" d="M74.05,100.91c.03.07.05.15.08.24.07.24.13.49.24.51.57.13.66-.29.63-.75h-.95Z"/>
          <path class="cls-1" d="M117.54,100.87c-.63.14-1.12.17-.56.9.2-.23.4-.47.71-.84.04-.04.07-.08.11-.13-.09.03-.18.05-.26.07Z"/>
          <path class="cls-1" d="M123.04,92.09c-.05-.22-.19-.42-.3-.64-.11.11-.31.23-.3.31.05.22.19.42.3.63.11-.11.31-.23.3-.31Z"/>
          <path class="cls-1" d="M132.67,91.93c.1.11.23.31.31.3.22-.05.42-.19.63-.3-.11-.11-.21-.21-.34-.34-.2.11-.4.22-.61.34Z"/>
          <path class="cls-1" d="M141.31,91.79c.11.2.22.4.34.61.11-.1.31-.23.3-.31-.05-.22-.19-.42-.3-.63-.1.11-.21.21-.34.34Z"/>
          <path class="cls-1" d="M71.08,90.17c-.11-.2-.22-.4-.34-.61-.1.11-.31.23-.3.31.05.22.19.42.3.63.1-.11.21-.21.34-.34Z"/>
          <path class="cls-1" d="M132.84,95.55c.05.22.19.42.3.63.1-.11.21-.21.34-.34-.11-.2-.22-.4-.34-.61-.11.1-.31.23-.3.31Z"/>
          <path class="cls-1" d="M144.92,96.2h.26c-.1-.09-.21-.18-.33-.28.01.04.02.09.03.13.01.05.02.09.03.14,0,0,0,.01,0,.02Z"/>
          <path class="cls-1" d="M102.55,93.68c.11.2.22.4.34.61.1-.11.31-.23.3-.31-.05-.22-.19-.42-.3-.63-.11.11-.21.21-.34.34Z"/>
          <path class="cls-1" d="M135.37,93.96c-.11-.2-.22-.4-.34-.61-.11.11-.31.23-.3.31.05.22.19.42.3.63.1-.11.21-.21.34-.34Z"/>
          <path class="cls-1" d="M55.32,92.71c.05.22.19.42.3.63.1-.11.21-.21.34-.34-.11-.2-.22-.4-.34-.61-.1.11-.31.23-.3.31Z"/>
          <path class="cls-1" d="M150.16,93.35c.1-.21.25-.41.3-.63.02-.08-.19-.21-.3-.31-.11.21-.23.41-.34.61.13.13.23.23.34.34Z"/>
          <path class="cls-1" d="M142.21,94.68c.26.22.52.44.97.82-.01-.04-.02-.09-.03-.13-.01-.05-.02-.09-.03-.14-.14-.63-.17-1.12-.9-.56Z"/>
          <path class="cls-1" d="M95.8,148.65c.21.11.41.23.61.34.13-.13.23-.23.34-.34-.21-.1-.41-.25-.63-.3-.08-.02-.21.19-.31.3Z"/>
          <path class="cls-1" d="M25.83,140.15c.21.1.41.25.63.3.08.02.21-.19.31-.3-.21-.11-.41-.23-.61-.34-.13.13-.23.23-.34.34Z"/>
          <path class="cls-1" d="M32.41,140.6c.14.64.17,1.15.9.58-.23-.2-.47-.4-.84-.72-.04-.04-.08-.07-.12-.11.02.08.04.16.06.25Z"/>
          <path class="cls-1" d="M95.93,140.96c.11.2.22.4.34.61.1-.1.31-.23.3-.31-.05-.22-.19-.42-.3-.63-.11.11-.21.21-.34.34Z"/>
          <path class="cls-1" d="M40.49,137.78c-.11.1-.31.23-.3.31,0,.03.02.05.03.07l.33-.27s-.04-.08-.06-.12Z"/>
          <path class="cls-1" d="M19.42,144.77c.06.2.18.38.27.57.11-.11.31-.23.3-.31-.04-.2-.16-.38-.26-.57l-.06.03-.24.28Z"/>
          <path class="cls-1" d="M22.05,144.87c.21.11.41.25.63.3.08.02.21-.19.31-.3-.21-.11-.41-.23-.61-.34-.13.13-.23.23-.34.34Z"/>
          <path class="cls-1" d="M25.2,144.58c-.08-.02-.21.19-.31.3.21.11.41.23.61.34.13-.13.23-.23.34-.34-.21-.11-.41-.25-.63-.3Z"/>
          <path class="cls-1" d="M98.25,145.26l-.26-.24c.06.11.12.22.18.33l.09-.09Z"/>
          <path class="cls-1" d="M24.89,142.04c.11.1.23.31.31.3.22-.05.42-.19.63-.3-.1-.1-.21-.21-.34-.34-.2.11-.4.22-.61.34Z"/>
          <path class="cls-1" d="M22.91,143.07c-.19-.16-.38-.33-.65-.56l-.24.04c.13.6.18,1.06.89.51Z"/>
          <path class="cls-1" d="M106.2,171.86c.13-.03.25-.05.36-.08v-.6c-.13.17-.3.37-.52.63-.03.04-.06.07-.1.12.09-.03.18-.05.27-.07Z"/>
          <path class="cls-1" d="M95.12,155.17l.05.21c.18.15.38.33.66.56.03.02.05.04.08.07-.02-.08-.04-.16-.06-.23-.13-.59-.18-1.07-.77-.68l.04.08Z"/>
        </g>
      </g>
    </g>
  </g>
</svg>