<?xml version="1.0" encoding="UTF-8"?>
<svg id="_レイヤー_2" data-name="レイヤー 2" xmlns="http://www.w3.org/2000/svg" viewBox="0 0 105.67 96.21">
  <defs>
    <style>
      .cls-1 {
        fill: #fff;
      }

      .cls-2 {
        fill: none;
      }

      .cls-3 {
        fill: #d1d5ea;
        fill-rule: evenodd;
      }
    </style>
  </defs>
  <g id="_レイヤー_1-2" data-name="レイヤー 1">
    <g id="stars">
      <g>
        <polygon class="cls-3" points="39.24 60.08 39.02 61.31 38.35 62.3 37.41 63.12 37.17 64.36 36.63 65.41 35.47 66.11 35.55 67.53 34.22 68.12 33.74 69.21 33.11 70.21 33.19 71.65 32.25 72.47 31.94 73.67 31.21 74.61 29.84 75.15 29.95 76.62 29.01 77.43 28.33 78.4 28.04 79.62 26.7 80.17 26.45 81.42 25.49 82.21 25.47 83.6 24.08 84.11 23.47 85.13 23.36 86.47 22.82 87.53 21.54 88.12 21.67 89.61 20.28 90.12 20.37 91.6 19.68 92.56 19.05 93.56 18.01 94.37 18.85 93.44 19.45 92.34 20.81 92.03 21.35 90.86 22.4 90.22 23.45 89.6 24.25 88.7 24.86 87.59 26.15 87.23 26.88 86.26 27.49 85.14 28.59 84.58 29.71 84.05 30.67 83.32 31.55 82.51 32.16 81.38 33.2 80.76 33.94 79.78 35.22 79.44 35.79 78.26 36.86 77.67 37.65 76.75 38.62 76.04 39.61 75.37 40.34 74.37 41.51 73.9 42 72.63 42.99 71.95 43.82 71.08 45.24 70.89 45.73 69.63 46.69 68.91 47.59 68.12 48.79 67.67 49.2 66.34 50.39 65.87 50.94 64.71 51.87 63.95 53.32 63.74 53.86 62.46 54.28 63.75 55.42 64.4 55.93 65.52 56.4 66.66 57.42 67.41 58.29 68.28 58.73 69.44 59.18 70.6 59.93 71.54 60.43 72.66 61.32 73.51 61.86 74.6 63.3 75.05 63.34 76.51 64.24 77.34 65.41 77.97 65.78 79.2 66.48 80.18 67.33 81.02 67.83 82.13 68.33 83.25 69.75 83.64 70.16 84.83 70.86 85.78 71.48 86.81 72.21 87.74 72.94 88.68 73.51 89.74 74.87 90.17 75.24 91.39 75.85 92.42 76.47 93.44 77.14 94.42 78.56 94.82 78.55 96.21 77.34 95.26 77.1 94.04 76.38 93.03 76.28 91.76 76.27 90.45 75.81 89.33 75.2 88.27 74.55 87.22 74.52 85.94 73.93 84.87 73.18 83.86 72.45 82.84 72.03 81.7 71.76 80.51 71.29 79.39 71.19 78.14 70.98 76.92 70.38 75.87 70.01 74.73 69.08 73.82 69.17 72.5 69.05 71.27 67.94 70.43 67.41 69.36 67.58 68.01 67.26 66.85 66.55 65.85 65.85 64.85 65.87 63.55 64.81 62.7 64.9 61.37 64.11 60.41 63.57 59.34 63.69 58.01 62.76 57.1 62.21 55.85 63.57 56.22 64.78 56.44 65.99 56.52 67.19 56.5 68.42 55.61 69.62 55.71 70.83 55.9 72.03 55.98 73.24 55.64 74.45 56.27 75.66 55.72 76.86 56.1 78.07 56.03 79.28 56.45 80.49 56.22 81.7 56.62 82.9 55.63 84.11 55.79 85.32 56.2 86.52 55.79 87.69 55.56 88.9 56.31 90.06 55.52 91.24 55.65 92.44 56.04 93.61 55.82 94.79 55.55 95.98 55.83 97.15 55.3 98.34 55.73 99.52 55.44 100.7 55.36 101.88 55.92 103.06 55.92 104.25 55.66 105.67 55.71 104.16 55.98 103 55.6 101.9 55.02 100.69 54.9 99.6 54.3 98.46 53.9 97.31 53.55 95.93 54.2 94.87 53.47 93.67 53.32 92.63 52.53 91.42 52.41 90.24 52.17 89.06 51.95 87.84 51.88 86.78 51.2 85.57 51.1 84.46 50.57 83.21 50.65 81.97 50.62 80.8 50.37 79.8 49.45 78.57 49.39 77.33 49.42 76.36 48.34 75.03 48.72 73.94 48.13 72.66 48.34 71.59 47.66 70.51 46.97 69.25 47.1 68.13 46.61 66.99 46.21 65.8 46.06 64.21 46.26 65.29 45.11 66.02 44.14 66.31 42.95 66.38 41.64 67.01 40.62 67.65 39.61 68.57 38.73 68.83 37.52 69.29 36.41 69.76 35.31 70.73 34.46 71 33.26 71.66 32.25 72.11 31.14 72.83 30.16 72.92 28.86 73.63 27.88 74.36 26.91 74.57 25.67 75.76 24.94 76.08 23.76 76.74 22.76 77.55 21.83 77.38 20.39 77.98 19.35 79.14 18.61 79 17.18 80.15 16.44 80.8 15.43 81.4 14.4 81.85 13.28 81.81 11.9 82.73 11.02 81.66 11.67 80.97 12.6 80.71 13.9 80.02 14.86 79.09 15.59 78.27 16.42 77.6 17.4 76.45 17.88 75.81 18.91 74.74 19.46 74.07 20.45 72.98 20.98 72.48 22.15 71.63 22.95 70.31 23.22 69.38 24 68.83 25.21 67.82 25.9 66.91 26.7 65.86 27.35 65.06 28.27 64.06 28.97 62.86 29.44 62.13 30.46 61.09 31.11 60.41 32.17 59.45 32.92 58.73 33.95 57.55 34.43 56.49 35.07 55.8 36.13 54.84 36.87 53.71 37.43 52.79 38.22 52.17 39.33 51.87 38.12 50.56 37.49 50.12 36.36 49.93 35.08 49.24 34.09 48.76 32.97 47.81 32.14 47.65 30.84 47.17 29.72 45.71 29.18 45.56 27.87 45 26.8 43.83 26.1 43.28 25.03 42.85 23.87 42.17 22.88 41.78 21.69 40.67 20.99 40.13 19.9 39.61 18.79 39.07 17.69 38.22 16.82 37.25 16.03 36.51 15.08 36.13 13.86 35.27 12.99 34.29 12.22 33.47 11.32 32.77 10.33 32.37 9.13 31.53 8.24 31.01 7.12 30.42 6.07 29.46 5.26 28.89 4.19 27.79 3.46 27.39 2.27 26.96 1.12 26.15 0 26.64 1.29 26.74 2.53 27.9 3.39 27.84 4.69 28.47 5.75 28.94 6.86 28.66 8.23 29.4 9.25 29.5 10.48 29.8 11.65 30.38 12.73 31.25 13.72 31.65 14.86 32.05 16 31.73 17.35 32.16 18.48 32.74 19.56 32.66 20.84 33.01 21.99 33.65 23.06 34.37 24.11 34.45 25.34 34.6 26.55 35.07 27.67 35.03 28.93 35.88 29.94 35.79 31.22 36.46 32.28 36.05 33.65 36.97 34.64 37.16 35.84 37.41 37.02 38.05 38.09 38.09 39.33 38.64 40.42 38.94 41.59 39.35 42.91 37.98 43.13 36.78 43.39 35.5 43 34.34 43.58 33.14 43.78 31.87 43.49 30.71 44.08 29.5 44.22 28.3 44.47 27.1 44.7 25.83 44.38 24.63 44.67 23.38 44.48 22.2 44.92 20.97 44.84 19.8 45.47 18.55 45.16 17.35 44.82 16.24 45.77 15.06 45.58 13.88 45.48 12.7 45.27 11.53 45.18 10.4 45.96 9.21 45.63 8.04 45.63 6.89 46.03 5.73 46.13 4.56 46.18 3.35 45.66 2.18 45.77 1.04 46.12 0 46.32 .95 47.09 2.11 47.37 3.35 47.43 4.44 47.95 5.41 48.77 6.63 48.91 7.75 49.32 8.97 49.43 10.15 49.69 11.19 50.31 12.36 50.59 13.31 51.48 14.47 51.78 15.62 52.12 16.93 51.99 17.79 53.15 18.93 53.51 20.25 53.36 21.29 54.01 22.49 54.19 23.56 54.76 24.79 54.87 25.85 55.44 26.88 56.1 28.22 55.9 29.2 56.71 30.35 57.04 31.43 57.59 32.65 57.74 33.84 57.97 35.03 58.2 36.07 58.84 37.14 59.42 38.21 60.02 39.5 59.92 39.24 60.08"/>
        <g>
          <path class="cls-2" d="M62.08,39.04c-.22.26-.44.51-.69.94.6-.18,1.33-.11.69-.94Z"/>
          <path class="cls-1" d="M72.86,88.58l.08.1.57,1.06.32.1c.1-.43.32-.79,1.18-.77.18.13.5.36.98.71l-.18-.45-.62-1.06-.3-.49c-.22-.2-.43-.39-.65-.59-.47.47-.93.92-1.39,1.38Z"/>
          <path class="cls-1" d="M58.77,62.29c.67.54,1.49.18,2.26.31.3.29.64.6.98.93h1.4c.24-.96.74-1.53,1.47-1.77l.02-.39-.79-.97-.54-1.07.03-.32c-.15.91-.28,1.75-.4,2.55q-4.21.09-4.43.72Z"/>
          <path class="cls-1" d="M61.07,37.09c-.11.09-.22.19-.59.49.7.57-.77,1.94.9,2.4.25-.43.47-.68.69-.94.64.83-.09.76-.69.94.27,1.12-.12,2.36.35,3.6,1.21-.11.32-1.39,1.4-1.76.2-.06.74-.23,1.49-.47-.59-1.22-1.09-2.25-1.61-3.31-.88.15-1.44-.35-1.94-.95Z"/>
          <path class="cls-1" d="M92.79,55.16c0,.28-.01.55-.02.82l.84-.16.3-.07c-.27-.27-.6-.5-1.12-.59Z"/>
          <path class="cls-1" d="M78.56,95.23v-.4s-.56-.16-.56-.16c.19.19.38.38.56.56Z"/>
          <path class="cls-1" d="M26.15,0l.06.17s.05,0,.07.01l-.13-.18Z"/>
          <path class="cls-1" d="M81.78,54.21c-.49.46-.93.87-1.44,1.35.11.21.12.44.11.68h.04s1.21.38,1.21.38l.54-.44c-.07-.67.65-1.57-.46-1.97Z"/>
          <path class="cls-1" d="M79.4,50.99v-1.56l-.83-.04h-.05c-1.04.48-1.86.86-2.67,1.24-.03.02.02.21.04.4,1.14.34,2.29.37,3.51-.04Z"/>
          <path class="cls-1" d="M80.25,52.36c-1.01-.13-1.91-.56-2.71.36.07.38.16.8.25,1.28h2.78c-.16-.83-.24-1.26-.32-1.64Z"/>
          <path class="cls-1" d="M72.23,82.25l-.2-.55-.11-.5v.82c.1.09.21.16.31.22Z"/>
          <path class="cls-1" d="M27.69,83.39c-.05.06-.08.11-.13.17,0,.03.02.06.02.1-.02-.02-.04-.03-.06-.05-.34.46-.65.86-.95,1.26.28.14.56.27.84.4l.07-.12,1.1-.56.79-.37c-.06-.28-.2-.56-.49-.81h-1.2Z"/>
          <path class="cls-1" d="M60.49,54.06c.56.05,1.14.02,1.86.02.06-.76.1-1.32.15-1.89h-.77c-.98.6-1.58.97-2.28,1.4.54.26.78.46,1.04.48Z"/>
          <path class="cls-1" d="M27.01,45.57c-.38.56-1.16.82-1.24,1.61.86.4,1.7.49,2.69-.17-.1-.45-.21-.97-.31-1.44-.53,0-.83,0-1.14,0Z"/>
          <path class="cls-1" d="M38.83,47.94c.64.67,1.27.69,1.94-.09-.08-.37-.16-.79-.29-1.41-.66.14-1.18.25-1.66.35v1.15Z"/>
          <path class="cls-1" d="M35.36,43.49c-.54.13-1.03.16-1.5.17l-.72.12-.38-.09c-.58.05-1.18.17-1.86.57q3.25.39,4.46-.77Z"/>
          <path class="cls-1" d="M48.67,52.36c.84-1.14.45-2.09.56-2.97-.09.02-.17.04-.26.06.03-.03.05-.06.08-.09-.77.12-1.03.94-1.68,1.35.43.54.85,1.07,1.31,1.65Z"/>
          <path class="cls-1" d="M85.05,50.85c-.15.14-.29.27-.42.39-.46,0-.9,0-1.33,0,.02.09.04.17.07.26-.01-.01-.02-.02-.03-.03.07.24.13.49.23.5.7.11,1.42.11,2.13.12.1,0,.21-.2.45-.43-.04-.16-.09-.34-.13-.53l-.45-.04-.51-.25Z"/>
          <path class="cls-1" d="M65.78,67.32c-.1.11-.2.23-.4.46v1.51c.84-.17,1.5.03,2.05-.1l.1-.81c-.58-.36-1.5-.25-1.75-1.05Z"/>
          <path class="cls-1" d="M56.34,55.76c-.7.28-1.09.44-1.15.47.36.6.75,1.24,1.11,1.83.7-.28,1.09-.44,1.15-.47-.36-.6-.75-1.24-1.11-1.83Z"/>
          <path class="cls-1" d="M64.64,33.54c.36.6.75,1.24,1.11,1.83.7-.28,1.09-.44,1.15-.47-.36-.6-.75-1.24-1.11-1.83-.7.28-1.09.44-1.15.47Z"/>
          <path class="cls-1" d="M28.53,78.12l-.07.11s.07.08.11.13c-.02-.08-.02-.15-.03-.23Z"/>
          <path class="cls-1" d="M8.87,47.61c-.45.54-.46,1.06.15,1.75.42-.08.95-.17,1.65-.29-.73-.61-1.03-1.31-1.8-1.46Z"/>
          <path class="cls-1" d="M40.45,49.9c2.28.43,2.28.41,2.95-.25-.84-.47-1.67-.47-2.95.25Z"/>
          <path class="cls-1" d="M57.26,38.03c.42-.08.94-.19,2.2-.44-1.43-.31-1.52-1.31-2.38-1.32-.43.56-.46,1.09.18,1.76Z"/>
          <path class="cls-1" d="M65.37,45.01l.65-.87.04-.17c-.14-.08-.29-.14-.47-.14-.3.39-.4.76-.22,1.18Z"/>
          <path class="cls-1" d="M47.09,43.85c.11-.69.19-1.22.32-2.06-.73,0-.89-.03-1.03,0-.27.08-.52.21-.78.31.11.21.19.46.35.64.29.33.62.61,1.14,1.11Z"/>
          <path class="cls-1" d="M23.19,50.33c-.41-.02-.84.09-1.25.15.01.2.02.4.03.6.42.06.84.13,1.26.15.1,0,.32-.23.3-.3-.06-.22-.21-.59-.34-.6Z"/>
          <path class="cls-1" d="M42.61,38.48c.63.68,1.26.68,1.9,0-.63-.68-1.26-.68-1.9,0Z"/>
          <path class="cls-1" d="M65.77,53.13c-.68.63-.68,1.26,0,1.9.68-.63.68-1.26,0-1.9Z"/>
          <path class="cls-1" d="M64.83,73.95c-.1,0-.32.23-.3.3.06.22.21.59.34.6.41.02.84-.09,1.25-.15-.01-.2-.02-.4-.03-.6-.42-.06-.84-.13-1.26-.15Z"/>
          <path class="cls-1" d="M48.83,63.45c.41-1.23.41-1.25-.5-1.78.02.08.04.16.06.23-.03-.03-.05-.05-.08-.07.03.58-.38,1.3.53,1.62Z"/>
          <path class="cls-1" d="M20.39,51.24c-.68.63-.68,1.26,0,1.9.68-.63.68-1.26,0-1.9Z"/>
          <path class="cls-1" d="M67.26,56.46l.86-.63c-.05-.26-.19-.54-.45-.88-.45.64-.72,1.13-.41,1.51Z"/>
          <path class="cls-1" d="M81.38,50.5l-.58-.12-.37-.34c-.12.4.03.81.47,1.21.27-.25.43-.5.48-.75Z"/>
          <path class="cls-1" d="M53.95,49.82c.63.68,1.26.68,1.9,0-.63-.68-1.26-.68-1.9,0Z"/>
          <path class="cls-1" d="M90.05,54.4c.06.22.21.59.34.6.41.02.84-.09,1.25-.15-.01-.2-.02-.4-.03-.6-.42-.06-.84-.13-1.26-.15-.1,0-.32.23-.3.3Z"/>
          <path class="cls-1" d="M31.19,77.16c-1.2-.4-1.26-.4-1.81.55,0,.04,0,.07,0,.1.66-.28,1.47.29,1.81-.66Z"/>
          <path class="cls-1" d="M38.83,35.17c.17.61-.46,1.46.55,1.81q.41-1.25-.55-1.81Z"/>
          <path class="cls-1" d="M48.33,61.67c-.15-.64-.17-1.16-.91-.59.24.2.49.42.88.75.03.02.05.04.08.07-.02-.08-.04-.16-.06-.23Z"/>
          <path class="cls-1" d="M44.5,58.33c-.21-.11-.41-.23-.61-.34-.13.13-.23.23-.34.34.21.11.41.25.63.3.08.02.21-.19.31-.3Z"/>
          <path class="cls-1" d="M64.31,64.47c.14.63.17,1.13.9.56-.24-.2-.48-.41-.88-.75,0,.06.02.12.02.19-.02,0-.03,0-.04,0Z"/>
          <path class="cls-1" d="M50.48,63.71c-.08-.02-.21.19-.31.3.21.11.41.23.61.34.13-.13.23-.23.34-.34-.21-.11-.41-.25-.63-.3Z"/>
          <path class="cls-1" d="M64.31,64.47s.03,0,.04,0c0-.07-.01-.13-.02-.19-.05-.51-.34-.78-.93-.76-.02.64.28.95.9.94Z"/>
          <path class="cls-1" d="M63.37,52.19c.14.63.17,1.12.9.56-.25-.21-.5-.43-.93-.8.02.08.05.17.08.24h-.04Z"/>
          <path class="cls-1" d="M58.86,49.66c.05.22.19.42.3.63.11-.11.31-.23.3-.31-.05-.22-.19-.42-.3-.63-.11.1-.31.23-.3.31Z"/>
          <path class="cls-1" d="M42.79,51.55c.05.22.19.42.3.63.11-.11.21-.21.34-.34-.11-.2-.22-.4-.34-.61-.1.1-.31.23-.3.31Z"/>
          <path class="cls-1" d="M63.37,52.19h.04c-.03-.07-.05-.15-.08-.24-.07-.24-.13-.49-.24-.51-.57-.13-.66.29-.63.75h.9Z"/>
          <path class="cls-1" d="M51.89,50.93c-.05-.22-.19-.42-.3-.63-.11.11-.31.23-.3.31.05.22.19.42.3.63.1-.11.31-.23.3-.31Z"/>
          <path class="cls-1" d="M83.31,51.24c-.05-.24-.09-.45-.16-.6h-.66s-.05.01-.08.04c.25.21.5.43.93.8.01.01.02.02.03.03-.03-.09-.05-.18-.07-.26Z"/>
          <path class="cls-1" d="M47.97,56.74c.08.02.21-.19.31-.3-.21-.11-.41-.23-.61-.34-.13.13-.23.23-.34.34.21.11.41.25.63.3Z"/>
          <path class="cls-1" d="M23.88,54.71s.01.05.04.08l.37.03c.08-.14.15-.28.23-.41-.13-.13-.23-.23-.34-.34-.1.21-.25.41-.3.63Z"/>
          <path class="cls-1" d="M28.75,78.46c.52.12.64-.23.62-.64,0-.04,0-.07,0-.1h0c-.19,0-.38,0-.57,0l-.26.38c.05.19.11.35.2.37Z"/>
          <path class="cls-1" d="M67.58,81.57l.25.56.05.12s.08-.09.07-.12c-.05-.22-.19-.42-.3-.63-.02.02-.05.05-.08.07Z"/>
          <path class="cls-1" d="M27.57,83.55c-.18-.7-.15-1.34-.94-.73.24.21.5.42.91.77.02.02.04.03.06.05,0-.03-.02-.06-.02-.1Z"/>
          <path class="cls-1" d="M30.32,81.02c.21.11.41.25.63.3.08.02.21-.19.31-.3-.21-.11-.41-.23-.61-.34-.13.13-.23.23-.34.34Z"/>
          <path class="cls-1" d="M41.19,30.44c-.11.1-.31.23-.3.31.05.22.19.42.3.63.1-.1.21-.21.34-.34-.11-.2-.22-.4-.34-.61Z"/>
          <path class="cls-1" d="M21.63,48.09c-.05-.22-.19-.42-.3-.63-.11.1-.31.23-.3.31.05.22.19.42.3.63.1-.1.31-.23.3-.31Z"/>
          <path class="cls-1" d="M56.79,48.88c.21.11.41.23.61.34.13-.13.23-.23.34-.34-.21-.11-.41-.25-.63-.3-.08-.02-.21.19-.31.3Z"/>
          <path class="cls-1" d="M49.22,49.39c.63-.14,1.13-.17.56-.9-.2.24-.41.48-.75.88-.03.03-.05.06-.08.09.09-.03.18-.05.26-.06Z"/>
          <path class="cls-1" d="M21.5,46.34c.08.02.21-.19.31-.3-.21-.11-.41-.23-.61-.34-.13.13-.23.23-.34.34.21.11.41.25.63.3Z"/>
          <path class="cls-1" d="M51.12,46.04c.21.1.41.25.63.3.08.02.21-.19.31-.3-.21-.11-.41-.23-.61-.34-.13.13-.23.23-.34.34Z"/>
          <path class="cls-1" d="M55.85,46.04c.21.11.41.23.61.34.13-.13.23-.23.34-.34-.21-.11-.41-.25-.63-.3-.08-.02-.21.19-.31.3Z"/>
          <path class="cls-1" d="M24.47,47.15c-.05-.22-.19-.42-.3-.63-.11.1-.31.23-.3.31.05.22.19.42.3.63.1-.11.31-.23.3-.31Z"/>
          <path class="cls-1" d="M38.59,34.3c-.24.07-.49.13-.51.24-.13.57.29.66.75.63v-.9c-.09.02-.17.04-.26.07,0-.01.02-.02.03-.03Z"/>
          <path class="cls-1" d="M61.34,35.8c-.05-.22-.19-.42-.3-.63-.11.1-.21.21-.34.34.11.2.22.4.34.61.1-.1.31-.23.3-.31Z"/>
          <path class="cls-1" d="M38.56,34.33c.09-.03.18-.05.26-.07.63-.14,1.12-.17.56-.9-.21.25-.43.5-.8.93,0,.01-.02.02-.03.03Z"/>
          <path class="cls-1" d="M58.99,34.05c.22-.05.42-.19.63-.3-.11-.11-.21-.21-.34-.34-.1.06-.2.11-.31.17l-.2.29c.08.09.15.19.21.18Z"/>
          <path class="cls-1" d="M65.13,38c-.54.12-.9.21-.39.86.2-.23.41-.47.73-.85-.14.03-.28.06-.43.1.04-.04.06-.07.1-.11Z"/>
          <path class="cls-1" d="M67.37,36.43c.05.22.19.42.3.63.1-.11.21-.21.34-.34-.11-.2-.22-.4-.34-.61-.11.11-.31.23-.3.31Z"/>
          <path class="cls-1" d="M65.13,38s-.06.07-.1.11c.15-.04.29-.07.43-.1.54-.12.9-.2.39-.86-.2.23-.41.47-.73.85Z"/>
          <path class="cls-1" d="M22.58,89.69c-.05-.22-.19-.42-.3-.63-.1.11-.31.23-.3.31.05.22.19.42.3.63.1-.11.31-.23.3-.31Z"/>
        </g>
      </g>
    </g>
  </g>
</svg>