<?xml version="1.0" encoding="UTF-8"?>
<svg id="_レイヤー_2" data-name="レイヤー 2" xmlns="http://www.w3.org/2000/svg" viewBox="0 0 52.78 53.03">
  <defs>
    <style>
      .cls-1 {
        fill: #fff;
      }

      .cls-2 {
        fill: #d1d5ea;
        fill-rule: evenodd;
      }
    </style>
  </defs>
  <g id="_レイヤー_1-2" data-name="レイヤー 1">
    <g id="stars">
      <g>
        <path class="cls-2" d="M50.86,6.65l-.34.12-.29.23-.35.1h-.41s-.32.16-.32.16l-.31.18-.32.16-.27.26-.29.22-.39.04-.28.25-.34.13-.36.09-.24.32-.32.17-.33.14-.36.09-.36.08-.27.27-.35.1-.28.24-.39.03-.34.13-.26.3-.31.2-.38.04-.31.19-.31.19-.27.26-.39.03-.33.15-.29.23-.34.12-.38.03-.22.37h-.41s-.3.2-.3.2l-.32.17-.35.1-.32.16-.31.18-.34.12-.32.17-.23.35-.43-.04-.3.2-.24.33h-.41s-.29.23-.29.23l-.32.17-.3.2-.3.21-.36.09-.34.12-.35.11-.22.34-.29.22-.32.16-.32.16-.31.19-.44-.04-.32.41-.23-.32-.17-.32-.09-.37-.13-.34-.29-.24-.18-.31-.19-.31-.31-.22.03-.44-.39-.17-.21-.29-.09-.36-.25-.26v-.43s-.42-.15-.42-.15l-.07-.38-.21-.29-.14-.33-.15-.33-.32-.22-.11-.36-.13-.34-.37-.19-.07-.38-.34-.21-.17-.32-.04-.4-.27-.25-.22-.29-.18-.31-.09-.37-.23-.28-.37-.19-.16-.32-.09-.37-.3-.24-.11-.35-.24-.27-.13-.34-.13-.34-.16-.32-.44-.14v-.43s-.38-.17-.38-.17v-.44s-.33-.2-.33-.2l-.21-.29-.23-.28-.14-.34-.24-.27-.13-.35-.11-.36-.29-.25-.21-.3-.06-.41-.07.44.21.31.12.34.24.3v.38s.1.34.1.34l.24.3v.38s.24.3.24.3l-.04.39v.38s.36.27.36.27l.1.35-.11.42.36.26-.1.41.15.33.18.32v.38s.32.28.32.28l-.08.41.25.3.13.34.17.32-.1.42.29.29-.06.4.3.28.08.35.1.35-.07.41.2.31.21.31-.04.4.26.29.21.31v.39s.23.3.23.3l-.14.43.23.3.15.33.22.31-.05.4.31.27.02.38.08.35.06.36.31.27.06.36.06.36.07.36.2.31.11.35.16.33v.39s.22.3.22.3l.1.35.03.37.13.34.3.28-.06.41.27.29.07.36.17.32.06.37.03.37.35.25-.04.4.12.34.31.27-.07.41.25.17h.32s.13-.4.13-.4l.4-.09.3-.2.15-.38.29-.22.36-.14.18-.35.33-.17.19-.34.41-.07.27-.24.22-.3.37-.12.12-.42.28-.23.24-.28.36-.13.32-.18.27-.24.24-.27.37-.12.17-.36.24-.28.24-.27.45-.03.24-.28.2-.33.21-.31.45-.03.21-.31.33-.17.21-.32.21-.31.38-.11.19-.34.27-.24.27-.25.33-.17.34-.15.31-.2.17-.36.31-.2.21-.31.31-.19.41-.08.16-.38.35-.15.3-.21.26-.26.28-.23.34-.15.22-.3.32-.17.2-.32.28-.23.39-.09.22-.3.31-.18.18-.35.25-.26.31-.19.4-.07.15-.38.33-.16.24-.28.34-.15.29-.21.34-.14.23-.29.36-.13.21-.32.29-.21.31-.19.26-.25.26-.25.28-.22.32-.18.23-.39.04.19ZM.54,26.17l.36.05.36-.08.36.07.36.19h.36s.36-.02.36-.02h.36s.36-.12.36-.12l.36-.07.36.13.36-.1.36.02.36.08.36-.19.36-.02h.36s.36.08.36.08l.36.08.36-.14.36.05.36-.1.36.13.36.02.36-.17.36-.05.36.12.36-.05.36-.05.36-.13.37.13h.36s.36-.09.36-.09l.36.03.37.12.35-.25.37.18.36-.07.36-.03.36.06.36-.02.36-.04.36.03.36-.03.35-.22.37.21.36-.06.35-.2.37.17.36-.09.36-.02.36-.06.36-.06.36.07.37.04.37.05.35-.21.36-.08h.37s.37-.02.37-.02l.37-.04.39.22.35-.3.37-.04h.37s.38.1.38.1l.37.05.36-.14.37-.02.37-.02.36-.17.38.24.35-.26.37-.05.35.11-.2-.28.1-.42-.39-.24v-.39s-.13-.33-.13-.33l-.07-.36-.07-.36-.27-.28-.03-.37-.06-.36-.33-.26.02-.39-.28-.28-.1-.35.05-.4-.21-.31-.15-.33-.1-.35v-.38s-.16-.33-.16-.33l-.31-.27-.09-.35v-.38s-.24-.3-.24-.3l-.03-.37-.17-.32-.04-.37-.05-.36-.08-.35-.39-.25.11-.42-.35-.26.12-.42-.29-.28-.13-.34-.15-.33-.05-.36-.17-.32-.04-.37-.02-.37-.22-.31-.13-.34.05-.4-.09-.35-.21-.31-.12-.34-.24-.3v-.38s-.1-.34-.1-.34l-.24-.3v-.38s-.24-.3-.24-.3l.04-.39v-.38s-.36-.26-.36-.26l-.1-.35.11-.42-.36-.26.1-.41-.15-.33-.18-.32v-.37s-.32-.28-.32-.28l.08-.4-.25-.3-.13-.34v-.22s-.08.22-.08.22l.21.34-.15.37.23.34v.36s.01.36.01.36l-.17.37.12.35.12.35-.14.37.18.34.12.35-.11.37.16.35-.25.38.15.35.06.35.13.35-.15.37.23.34-.08.36v.36s-.05.36-.05.36l.23.34-.04.36-.04.36-.04.36.11.35v.36s.07.35.07.35l-.12.37.14.35v.36s-.07.36-.07.36l.04.36.21.34-.17.37.18.34-.03.36.07.35-.05.36-.07.36.27.34-.15.37.02.36.22.34-.18.38.26.33-.23.38.26.33-.15.38v.36s.23.37.23.37l-.39.1-.38-.03-.31.24h-.37s-.32.24-.32.24l-.4-.11-.35.09-.33.17-.39-.06-.29.32-.36.07-.34.14-.38-.05-.37.02-.35.1-.34.13-.39-.06-.32.24-.34.14-.34.13-.41-.18-.34.14-.32.21-.33.18-.41-.17-.33.18h-.37s-.33.19-.33.19l-.33.18-.39-.07-.32.22-.35.09-.35.1h-.37s-.38-.01-.38-.01l-.36.04-.31.25-.36.04-.33.19-.36.03-.4-.1-.31.27-.38-.02-.36.06-.34.13-.35.09h-.37s-.33.18-.33.18l-.37.02-.32.22-.35.1-.39-.07-.33.19-.36.05-.31.25-.34.14-.36.06-.33-.08-.04-.03ZM52.51,40.84l-.22-.29-.3-.21-.2-.31-.11-.39-.25-.26-.26-.25-.25-.26-.33-.19-.29-.22-.15-.36-.32-.2-.22-.28-.19-.32-.38-.14-.26-.25-.23-.27-.19-.32-.18-.33-.34-.17-.2-.31-.31-.2-.14-.36-.22-.28-.36-.16-.28-.23-.15-.35-.27-.24-.28-.23-.33-.18-.14-.36-.24-.27-.31-.2-.22-.29-.15-.36-.42-.1-.11-.39-.29-.22-.26-.25-.2-.31-.25-.26-.27-.24-.22-.29-.26-.25-.4-.11-.09-.42-.28-.23-.39-.12-.12-.39-.31-.2-.26-.25-.28-.22-.29-.22-.2-.31-.22-.29-.21-.3-.39-.11-.3-.21-.25-.26-.28-.31.21-.36.41-.15-.02-.45.2-.3.24-.27.31-.22.27-.25.12-.36.22-.28.22-.29.1-.37.43-.13.02-.43.19-.31.31-.22.16-.33.41-.14v-.46s.33-.2.33-.2l.21-.3.27-.25.26-.25.1-.38.3-.22.28-.24.05-.42.34-.19.09-.39.24-.27.36-.18.15-.34.2-.3.24-.27.32-.21.19-.31.06-.41.25-.26.32-.21.12-.36.3-.23.18-.32.28-.24.28-.24.25-.26v-.46s.41-.13.41-.13l.03-.43.42-.13.08-.4.21-.29.19-.31.27-.24.18-.32.29-.23.3-.22.14-.35.21-.29.36-.18.24-.27.14-.37-.3.23-.2.33-.36.13-.28.22-.2.33-.36.12-.19.34-.38.1-.35.14-.13.42-.29.21-.43.04-.12.43-.42.05-.26.26-.24.28-.35.14-.16.39-.41.07-.2.34-.27.24-.24.27-.43.04-.17.37-.4.08-.16.38-.3.2-.29.21-.41.07-.22.3-.22.3-.38.1-.18.35-.22.3-.36.13-.19.33-.45.02-.2.32-.26.26-.21.31-.39.09-.14.39-.35.15-.3.2-.31.19-.14.39-.32.18-.32.18-.31.19-.22.3-.29.22-.25.26-.37.12-.2.32-.29.21-.34.16-.27.24-.15.38-.4.09-.18.35-.31.19-.25.27-.32.18-.34.16-.12.42-.39.1-.28.22-.15.38-.41.07-.13.41-.45.03-.13.4-.4.09-.3.2-.15.38-.27.18.21.27.39.07.25.27.38.09.18.38.3.2.34.13.21.32h.43s.29.21.29.21l.33.15.22.31.26.26.31.19.33.16.21.33.39.07.33.15.33.16.15.42.33.15.37.09.36.11.16.41.36.11.25.27.36.11.35.11.21.33.38.08.3.19.31.18.26.27.25.28.28.23.4.05.28.23.36.11.27.24.19.36.41.04.24.28.29.22.32.16.3.19.25.27.35.12.26.25.37.09.3.19.21.34.35.11.27.24.39.06.33.16.28.23.2.35.41.02.26.26.34.14.25.28.3.2.25.28.35.12.24.3.37.09.29.21.28.23.32.17.32.17.3.2.27.25.4.04.23.3.27.24.48.1-.2.1ZM20.85,53.03l.13-.34v-.37s.17-.34.17-.34l.27-.31.09-.35.07-.36.09-.35-.02-.38.03-.37.22-.32v-.38s.11-.35.11-.35l.17-.33-.09-.4.07-.36.1-.35.17-.33.18-.33-.04-.39.15-.34v-.38s.23-.32.23-.32l.12-.35-.06-.39.05-.36.22-.32.05-.36.05-.36-.02-.38.23-.32.1-.35v-.37s.15-.34.15-.34l.23-.31-.13-.41.28-.3.04-.37.09-.35.17-.33.1-.35.08-.36.14-.34.09-.35-.1-.41.32-.29.06-.36-.08-.4.28-.3.03-.37.1-.35.06-.36.05-.36.18-.33.15-.34.16-.33-.09-.4.04-.36.11-.35.1-.35.07-.36.33-.29-.18-.42.07-.36.12-.35.21-.32.16-.34-.03-.38.09-.35.09-.35-.06-.39.33-.3-.16-.4.05-.36.19-.33.02-.29-.29-.19-.35.3-.37-.12-.36.04-.36-.04-.36-.03-.35.18-.37-.08-.37-.05-.34.24-.37-.12-.35.2h-.36s-.37-.15-.37-.15l-.35.12-.36.06h-.36s-.37-.09-.37-.09l-.36.07-.35.23h-.36s-.37-.12-.37-.12l-.36.14-.37-.08-.36.07-.37-.06-.37-.06-.36-.02-.35.31-.37-.23-.35.26-.37-.23-.35.2-.36.03-.36.06-.37-.05-.36.07-.37-.07-.37-.08-.36.12-.36.03-.37-.16h-.36s-.36.11-.36.11l-.36.02-.36.15-.37-.12h-.36s-.36.15-.36.15l-.37-.12-.36.15-.37-.15-.37-.1-.36.26h-.36s-.37-.23-.37-.23l-.36.27-.37-.21-.36.05-.36.08-.37-.1-.36.21-.37-.19-.36.15-.36.03-.36.07-.37-.23-.36.19-.37-.18-.36.2-.36-.03h-.36s-.36-.21-.36-.21l-.36.09-.36.1-.48-.06.48.06.37-.03.33.2.38-.06.3.34.37-.05.36.04.37-.04.32.25.39-.13.33.18.34.11.34.13.39-.13.34.13.34.13.34.13h.37s.35.08.35.08l.36.04.32.21.37-.04.35.1.33.17.35.06.39-.11.31.26.38-.08.34.13.36.02.34.14.33.17.4-.17.32.25.35.08.39-.12.31.27.39-.16.3.33.39-.16.32.25.35.1.39-.13.35.07.33.18.38-.1.34.14.37-.08.32.26.35.05.37-.03.33.2.39-.19.35.06h.36s.34.17.34.17l.35.11.36.03h.36s.34.18.34.18l.38-.12.06.37.05.36-.27.35.05.36.12.36.1.36-.27.35.09.36-.09.36.1.36.09.36-.16.35.13.36v.36s.01.36.01.36l-.09.36-.11.36-.05.36.16.36-.05.36.1.36-.06.36-.21.35.18.36-.12.35-.04.36.03.36v.36s-.11.35-.11.35l.08.36-.08.36.12.36v.36s-.19.35-.19.35l.09.36-.06.36.15.36.03.36-.05.36-.2.35.19.36-.1.35.06.36-.11.35-.02.36-.11.35.08.36-.14.35.11.36-.04.36-.06.36.02.36.02.36-.02.36-.08.36.17.36-.14.35-.07.36.2.37-.24.25v.07ZM22.44,52.75l.22-.28.11-.35.24-.27.35-.21.18-.31.17-.32.18-.31.09-.36.13-.34.3-.24.1-.36.21-.29.25-.27.02-.4.17-.32.2-.3.25-.27.26-.26.07-.37.23-.28.1-.35.3-.24.2-.29.04-.39.14-.33.3-.24.14-.33.14-.33.08-.37.3-.24.19-.3.1-.35.21-.29.29-.24-.03-.43.34-.22.13-.34.17-.32.24-.28.18-.32.16-.33.22-.29.17-.32v-.42s.37-.2.37-.2l.14-.34v-.41s.35-.23.35-.23l.11-.35.17-.32.13-.34.12-.34.24-.28.21-.3.22-.3-.02-.41.1-.35.16-.32.2-.37.4.14.23.38.44-.11.34.13.32.17.29.25.31.2.38.02.33.14.34.14h.39s.25.37.25.37l.42-.1.35.1.3.23.36.05.26.35.43-.15.3.26.35.1.32.17.32.17.39-.02.31.22.32.19.41-.08.29.27.4-.03.33.15.27.3.37.05.35.11.32.16.28.25.35.11.41-.04.31.18.27.27.38.04.28.24.35.11.29.23.29.23.31.19.45-.1.21.38.43-.06.21.38h.4s.33.14.33.14l.34.12.3.21.35.1.29.23.29.24.37.05.33.13.26.3.32.16.39.04-.31-.21-.38-.08-.23-.3-.3-.2-.37-.08-.23-.3-.38-.08-.21-.33-.24-.29-.44.02-.29-.21-.17-.39-.44.03-.18-.38-.32-.16-.34-.13-.24-.28-.41-.02-.19-.36-.38-.08-.31-.18-.34-.14-.18-.39-.4-.04-.2-.35-.41-.03-.28-.22-.29-.21-.19-.36-.35-.12-.35-.12-.21-.33-.38-.07-.35-.11-.23-.31-.37-.08-.15-.42-.37-.1-.32-.17-.36-.1-.2-.34-.41-.02-.24-.29-.28-.23-.27-.25-.41-.03-.27-.25-.27-.25-.27-.25-.34-.13-.29-.21-.32-.17-.22-.32-.36-.1-.29-.22-.25-.28-.31-.19-.4-.04-.19-.36-.38-.07-.27-.25-.32-.16-.26-.26-.24-.28h-.43s-.2-.35-.2-.35l-.29-.21-.4-.04-.18-.38h-.43s-.15-.43-.15-.43l-.42-.02-.19-.36-.28-.23-.41-.04-.29-.21-.23-.3-.38-.07-.26-.27.06.38-.28.31-.07.35v.37s-.22.32-.22.32l.16.4-.09.35-.02.37-.21.32-.15.34-.07.35-.04.36-.23.31.07.39-.03.36-.04.36-.35.28-.04.36.03.38v.38s-.34.28-.34.28v.37s-.17.33-.17.33v.38s.01.38.01.38l-.25.31.04.39-.09.35-.07.35-.18.33-.19.32-.14.34.07.39-.14.34v.38s-.14.33-.14.33l-.28.3.09.4-.2.32-.12.34-.06.36-.09.35-.18.32v.37s-.16.33-.16.33l.03.38-.08.34-.25.3v.37s-.13.33-.13.33l.07.38-.04.36-.13.33-.27.3.11.39-.17.32-.02.36-.18.32-.1.34-.18.32v.37l-.2.32.03.37-.11.34-.13.33-.05.35-.05.35-.09.34-.15.33.1.39-.21.31-.14.33.12.4-.28.19-.02.07Z"/>
        <g>
          <path class="cls-1" d="M30.81,16.79s.07.06.11.1c.02-.1.03-.19.04-.29l-.15.19Z"/>
          <path class="cls-1" d="M24.55,24.2c0,.28.16.56.24.84.08.08.15.15.23.23h.12s.37-.02.37-.02l.36-.17.38.24.35-.26.37-.05.35.11-.2-.28.1-.42-.39-.24v-.39s-.13-.33-.13-.33l-.07-.36-.07-.36-.27-.28-.03-.37-.06-.36-.33-.26.02-.39-.28-.28-.1-.35.05-.4-.03-.04c-.32.32-.64.64-.99.99,0,1.02-.02,2.11.01,3.2Z"/>
          <path class="cls-1" d="M26.34,16.38c-.15.13-.28.22-.41.29l.03.19.06.36.07.36.2.31.11.35.16.33v.39s.22.3.22.3l.1.35.03.37.13.34.3.28-.06.41.27.29.07.36.17.32.06.37v.1c.18-.23.35-.46.53-.71v-2.89c1.91-.29.12-2.29,1.37-3,.3.27.6.53,1.03.92l-.2-.28-.17-.32-.09-.37-.13-.34-.29-.24-.18-.31-.19-.31-.31-.22.03-.44-.39-.17-.21-.29-.09-.36-.25-.26v-.37s-.06-.07-.1-.1l-.31-.11-.04-.2s-.02-.02-.03-.02c-.4.44-.82.9-1.32,1.45-.05.92-.11,1.98-.16,2.91Z"/>
          <path class="cls-1" d="M25.9,28.05c.61-.31.58-.84.53-1.38l-.23.02-.36-.04-.36-.03-.35.18-.37-.08-.19-.02s0,0,0,0c.45.45.89.89,1.34,1.34Z"/>
          <path class="cls-1" d="M21.89,18.63c.61-.36,1.23-.74,1.76-1.06.55.36.94.61,1.3.84l-.02-.05-.31-.27-.09-.35v-.38s-.24-.3-.24-.3l-.03-.37-.17-.32-.04-.37h0c-.6.34-1.09.63-1.61.93-.69-.64-1.24-1.15-1.65-1.54-.22-1.26.43-2.41-.63-3.51,0,0,0,0,0,.01v.08s.1.35.1.35v.36s.07.35.07.35l-.12.37.14.35v.36s-.07.36-.07.36l.04.36.21.34-.17.37.18.34-.03.36.07.35-.05.36-.07.36.27.34-.13.33c.36.34.67.76,1.29.64Z"/>
          <path class="cls-1" d="M35.52,15.7c.12-.27.23-.55.37-.8.21-.39.4-.79.58-1.2l-.24-.02-.3.2-.24.33h-.41s-.29.23-.29.23l-.07.04c-.06.51-.12.99.59,1.23Z"/>
          <path class="cls-1" d="M43.55,14.36c-.08.68-.13,1.38-.29,2.06-.04.15-.45.22-.72.31,0,.09.02.17.02.27-.02-.01-.03-.02-.04-.03.01.52-.2,1.09.46,1.65h.01s.28-.25.28-.25l.05-.42.34-.19.09-.39.24-.27.36-.18.15-.34.2-.3.24-.27.32-.21.19-.31.06-.41.25-.26.32-.21.12-.36.16-.12c-.29-.56-.11-.77.46-1.09.1.1.2.21.3.31l.13-.11.25-.26v-.46s.41-.13.41-.13l.03-.43.42-.13v-.07c-.06-.07-.12-.14-.19-.22v-.81l-.26.19-.43.04-.12.43-.42.05-.26.26-.24.28-.35.14-.16.39-.39.07c-.22.45-.44.9-.66,1.35-.2,0-.37-.04-.51,0-.22.07-.44.17-.67.27l-.04.09-.12.08Z"/>
          <path class="cls-1" d="M25.8,33.6c.06.12.14.24.21.36l.12-.25-.09-.4.04-.36.11-.35.07-.23c-.28.16-.53.3-.77.45.1.26.19.53.32.78Z"/>
          <path class="cls-1" d="M27.55,33.02l-.04.36.03.38v.38s-.34.28-.34.28v.37s-.09.17-.09.17c.04.03.07.05.09.09.27.49.4,1.05.57,1.55.44-.02.75-.03,1.16-.05.18-.51.37-1.06.46-1.33,1.06-.68,1.92-1.24,3.09-2-.92-.67-1.65-1.2-2.39-1.73.31-.31.47-.4.53-.54.24-.53.4-1.1.69-1.59.12-.19.48-.23.75-.33,0,0,0-.01,0-.02,0,0,.02,0,.03,0,0,0,0,0,0,0h0s0-.02-.01-.03h-.42s-.15-.43-.15-.43l-.42-.02-.19-.36-.05-.05c-.18.05-.39.13-.66.25.75,1.08-.49,1.38-.92,2.13-.15,1.03.36,2.14-.54,3.41-.29-.43-.57-.83-.83-1.21h0s-.35.29-.35.29Z"/>
          <path class="cls-1" d="M22.32,46.82c.16-.04.22-.5.33-.76h-1.44l.11.2-.1.35.06.36h0c.36-.03.71-.08,1.05-.16Z"/>
          <path class="cls-1" d="M46.89,39.91l.29.23.31.19.45-.1.21.38.43-.06.21.38h.4s.08.03.08.03c.06-.11.12-.22.18-.33l-.06-.04-.17-.39-.44.03-.18-.38-.32-.16-.34-.13-.24-.28-.41-.02-.11-.2-.63.63.07.02.29.23Z"/>
          <path class="cls-1" d="M49.19,38.74l.37.09.29.21.13.11c-.07-.2-.17-.41-.21-.55-.31-.06-.57-.12-.82-.17h.01s.24.3.24.3Z"/>
          <path class="cls-1" d="M47.66,35.52l-.31-.2-.14-.34v2.18h0s.26.27.26.27l.34.14.25.28.2.14v-1.85s0,0,0,0l-.06-.12-.34-.17-.2-.31Z"/>
          <path class="cls-1" d="M1.85,28.23l.37-.05.36.04.37-.04.15.12c.12-.19.25-.38.39-.6l-.11-.07-.36.19-.37-.18-.36.2-.35-.03c-.06.11-.12.23-.18.34l.07.08Z"/>
          <path class="cls-1" d="M34.39,28.9c.84-.43,1.61-.83,2.49-1.28-.26-1.31.2-2.71-.24-4.16h-1.41c-.6,1.41.12,2.55-.62,3.55-.43-.24-.84-.47-1.37-.76-.58,1.54.59,2.03,1.16,2.65Z"/>
          <path class="cls-1" d="M5.55,26.16l.04-.02.36-.02h.22c.25-.5.48-.96.69-1.4l-.38-.1-.31.27-.38-.02-.36.06-.34.13-.35.09h-.37s-.29.16-.29.16c.53.31,1,.58,1.47.85Z"/>
          <path class="cls-1" d="M38.72,21.03c-.07-.4-.15-.93-.23-1.43h-1.13c-.03-.07-.06-.13-.09-.2l-.09.05-.22.3-.29.22-.25.26-.37.12-.2.32-.17.12c.22.23.45.46.67.68.73-.15,1.52.29,2.37-.45Z"/>
          <path class="cls-1" d="M36.29,18.43l.2-.33.07-.1c-.32-.5-.74-.98-1.34-1.39-.32,1.02-.36,2-.24,2.97l.14-.29.24-.28.24-.27.45-.03.24-.28Z"/>
          <path class="cls-1" d="M16.09,27.23l-.35.2-.36.03-.15.02c.52,1,.9,1.73,1.22,2.34.84-.43,1.61-.83,2.4-1.23v-.94c-.16-.17-.29-.31-.41-.43l-.16-.03-.37-.06-.36-.02-.35.31-.37-.23-.35.26-.37-.23Z"/>
          <path class="cls-1" d="M43.24,11.35c.11.32.22.65.34,1l.27-.14.2-.32.28-.23.17-.04c.03-.51-.16-1-.59-1.49h-.48l-.08.03-.26.3-.31.2-.38.04-.31.19-.31.19-.27.26-.39.03-.33.15-.2.16c0,.39.07.77.34,1.14.9-.72,2.2-1.54,2.32-1.46Z"/>
          <path class="cls-1" d="M48.67,8.47l.13-.2c-.24.06-.46.19-.63.48v.04l.14-.19.36-.13Z"/>
          <path class="cls-1" d="M50.23,9.15l.36-.18.24-.27.06-.16s-.04-.07-.06-.1l-.15.12-.2.33-.36.13-.28.22c.05.09.11.17.17.26l.02-.06.21-.29Z"/>
          <path class="cls-1" d="M22.04,5.29l-.07.3.15.33.18.32v.38s.19.16.19.16c.22-.4.22-.86-.46-1.49Z"/>
          <path class="cls-1" d="M21.13,10.15c.27-.04.57-.09.9-.15l-.08-.12-.12-.34-.24-.3v-.38s-.1-.34-.1-.34l-.24-.3v-.38s-.24-.3-.24-.3l.04-.39v-.14c-.08.13-.15.26-.24.41.06.48-.34,1.55.32,2.73Z"/>
          <path class="cls-1" d="M43.64,38.37l.32.16.28.25.28.08c.31-.32.59-.66.82-1.05l-.07-.12-.41-.03-.28-.22-.29-.21h0c-.37.35-.72.69-1.07,1.02h.07s.35.12.35.12Z"/>
          <path class="cls-1" d="M21.4,37.68l-.05.36.16.36-.02.13c.71.18,1.12-.69,1.7-.86.33.26.64.51,1.2.97.08-.86.13-1.44.18-2.03h-2.5c-.05.3-.3.47-.54.65l-.02.06-.11.36Z"/>
          <path class="cls-1" d="M34.83,35.2c-.03-.12-.05-.23-.07-.33-.1.01-.18.03-.26.05l.28.24.05.04Z"/>
          <path class="cls-1" d="M23.26,4.59v-.03s-.18-.32-.18-.32l-.05-.02c.07.13.15.26.23.4,0-.01,0-.02,0-.03Z"/>
          <path class="cls-1" d="M9.65,29.72l.3-.06.12.04c.13-.46.23-.91.46-1.27.19-.3.5-.53.66-.84l-.17.07-.37-.12h-.36s-.36.15-.36.15l-.37-.12-.04.02c-.07.71-.36,1.45.13,2.13Z"/>
          <path class="cls-1" d="M35.48,33.94c.36.71.63,1.25.88,1.73h.17s.25.37.25.37l.42-.1.35.1.04.03c.08-.63.09-1.26.1-1.89,0-.11-.2-.21-.36-.37-.36.03-.77.06-1.84.15Z"/>
          <path class="cls-1" d="M40.21,15.19l.14-.29c-.26.09-.51.25-.74.57,0,.01,0,.03.01.05l.28-.13.31-.2Z"/>
          <path class="cls-1" d="M42.54,16.74c-.06-.65-.1-1.15-.14-1.6l-.17.23-.38.1-.18.35-.22.3h-.04c.33.26.69.53,1.12.86.02.01.03.02.04.03,0-.1-.02-.18-.02-.27Z"/>
          <path class="cls-1" d="M20.18,27.22c.33.32.68.65,1.07,1.03.17-.57.27-.92.25-1.22l-.33-.09-.36.07-.35.23h-.28Z"/>
          <path class="cls-1" d="M20.02,25.72l.37.05.23-.14c-.12-.14-.25-.28-.41-.45-.07.18-.14.36-.21.54h.01Z"/>
          <path class="cls-1" d="M22.73,45.98v-.38s.23-.32.23-.32l.12-.35-.06-.39.05-.36.22-.32.05-.36.05-.36-.02-.38.23-.31s0-.08,0-.13c-.09.02-.18.04-.26.07.03-.04.06-.07.09-.11-.44,0-.72.29-.75.67-.07,1.03-.02,2.08-.02,3.11.02,0,.03,0,.05,0l.03-.08Z"/>
          <path class="cls-1" d="M25.12,36.45l.28-.3.03-.37.1-.35.06-.36.05-.36c-.32,0-.67,0-1.08,0,0,.78,0,1.33-.01,1.88.2,0,.4,0,.61,0l-.03-.15Z"/>
          <path class="cls-1" d="M26.69,41.22s-.05.06-.08.1c.83-.05,1.69.23,2.49-.28.01-1-.78-.49-1.21-.67-.53-.23-.69-1.05-1.46-.93v1.85c.09-.02.17-.04.26-.07Z"/>
          <path class="cls-1" d="M18.67,30.96c-.46.02-.99-.19-1.37.17h0s.35.05.35.05l.37-.03.33.2.39-.19.12.02c0-.07.01-.14.02-.21-.1.02-.19.04-.29.07.03-.03.05-.06.07-.08Z"/>
          <path class="cls-1" d="M32.07,29.05c.04.56.08,1.11.14,1.86.66-.04,1.17-.08,1.79-.12-.17-.3-.34-.57-.51-.81h-.32s-.2-.35-.2-.35l-.29-.21-.41-.04-.16-.34s0,0,0,0c0,0-.02,0-.03,0,0,0,0,.01,0,.02Z"/>
          <path class="cls-1" d="M11.8,24.32c.29.33.62.61,1.14,1.11.11-.7.19-1.22.32-2.06-.26,0-.43,0-.57,0l-.15.08-.2-.08s-.08,0-.11.02c-.27.08-.52.21-.78.31.11.21.19.46.35.64Z"/>
          <path class="cls-1" d="M25.91,46.96v-.03s.24-.28.24-.28l.1-.35.17-.14c0-.35,0-.7,0-1.04-.91.14-1.37.81-1.78,1.54.46.37.88.51,1.26.31Z"/>
          <path class="cls-1" d="M40.13,19.61c.42-.08.94-.19,2.2-.44-1.43-.31-1.52-1.31-2.38-1.32-.43.56-.46,1.09.18,1.76Z"/>
          <path class="cls-1" d="M14.27,30.53l.21.17.27.08c.52-.58.47-1.16-.15-1.74-.53.5-.64.99-.33,1.49Z"/>
          <path class="cls-1" d="M23.59,9.66c.63.68,1.26.68,1.9,0-.63-.68-1.26-.68-1.9,0Z"/>
          <path class="cls-1" d="M26.16,38.26l.07.39-.14.34v.38s-.02.07-.02.07h.35c0-.46.02-.93-.01-1.39,0-.05-.04-.11-.09-.17l-.02.04-.14.34Z"/>
          <path class="cls-1" d="M24.53,31.88q-.56-.97-1.81-.55c.35,1.01,1.2.38,1.81.55Z"/>
          <path class="cls-1" d="M20.49,25.37c.73-.21,1.46-.14.82-.97-.22.26-.44.52-.82.97Z"/>
          <path class="cls-1" d="M38.28,26.14l-.04-.02-.25-.26-.05-.05s-.02.04-.03.06c.13.13.23.23.34.34.01-.02.02-.04.03-.06Z"/>
          <path class="cls-1" d="M32.57,24.31c.11-.21.23-.41.34-.61-.12-.12-.22-.22-.33-.33h-.02c-.1.21-.24.41-.29.62-.02.08.19.21.3.31Z"/>
          <path class="cls-1" d="M23.59,42.32s.03,0,.04,0l.07-.22v-.15c-.08.1-.17.21-.28.34-.03.04-.06.07-.09.11.09-.03.18-.05.26-.07Z"/>
          <path class="cls-1" d="M26.43,41.29c-.63.14-1.12.17-.56.9.2-.24.41-.48.74-.87.03-.03.05-.06.08-.1-.09.03-.18.05-.26.07Z"/>
          <path class="cls-1" d="M27.18,44.19c.06,0,.12-.02.19-.02,0,.02,0,.03,0,.04.05-.01.09-.02.14-.03l.02-.04.07-.37.3-.24.09-.14s-.03-.05-.05-.08c-.2.24-.41.48-.75.88Z"/>
          <path class="cls-1" d="M36.06,29.68c-.02.08.19.21.3.31.11-.21.23-.41.34-.61-.13-.13-.23-.23-.34-.34-.11.21-.25.41-.3.63Z"/>
          <path class="cls-1" d="M18.6,31.04c.1-.03.2-.05.29-.07.61-.13,1.08-.18.53-.89-.2.24-.41.49-.75.88-.03.03-.05.05-.07.08Z"/>
          <path class="cls-1" d="M4.83,28.66l.23-.07.34.13.07.03c.04-.12-.01-.29-.22-.56-.12.15-.25.3-.41.48Z"/>
          <path class="cls-1" d="M24.53,31.88c-.02.65.29.97.95.95.02-.65-.29-.97-.95-.95Z"/>
          <path class="cls-1" d="M27.18,44.19c-.52.05-.78.34-.76.93.27,0,.47-.05.62-.16l.14-.11c.12-.15.19-.36.19-.63,0-.02,0-.03,0-.04-.07,0-.13.01-.19.02Z"/>
        </g>
      </g>
    </g>
  </g>
</svg>