<?xml version="1.0" encoding="UTF-8"?>
<svg id="_レイヤー_2" data-name="レイヤー 2" xmlns="http://www.w3.org/2000/svg" viewBox="0 0 52.98 48.65">
  <defs>
    <style>
      .cls-1 {
        fill: #fff;
      }

      .cls-2 {
        fill: none;
      }

      .cls-3 {
        fill: #efdfcd;
        fill-rule: evenodd;
      }
    </style>
  </defs>
  <g id="_レイヤー_1-2" data-name="レイヤー 1">
    <g id="stars">
      <g>
        <path class="cls-3" d="M35.95,21.44l.13.43.43.04.18.37.27.25.41.06.28.23.22.32.39.09.25.28.38.11.17.39.3.21.34.15.2.34.44.03.29.23.33.17.21.33.25.28.3.21.32.18.2.34.39.09.33.17.32.18.13.43.32.18.37.12.35.14.14.43.35.14.24.28.36.13.35.14.2.34.38.11.3.22.3.21.24.29.22.31.25.27.39.1.25.27.35.16.22.27.12.38.39.09.19.31.25.24.3.18.28.2.24.27.35.1.28.22.37.02.3.09.27.24.34-.07.33-.08-.18-.3-.2-.24-.16-.28-.05-.37-.38-.15-.16-.32-.28-.22-.16-.33-.23-.27-.17-.33-.31-.19-.16-.34-.33-.16-.24-.26-.22-.28-.28-.22-.29-.22-.27-.25-.23-.29-.4-.1-.2-.33-.25-.27-.42-.07-.11-.44-.42-.06-.22-.31-.38-.1-.16-.38-.39-.09-.15-.41-.32-.18-.25-.27-.33-.17-.42-.06-.12-.43-.36-.13-.37-.12-.26-.26-.27-.24-.23-.29-.32-.18-.17-.37-.28-.22-.37-.12-.35-.14-.21-.32-.35-.14-.2-.33-.37-.11-.29-.22-.16-.39-.33-.17-.33-.17-.21-.33-.29-.22-.33-.16-.42-.05-.27-.24-.18-.37-.27-.24-.32-.17-.32-.17-.28-.23-.29-.21-.37-.12-.34-.16-.23-.31-.37-.12-.16-.41-.35-.14-.35-.14-.34-.15-.21-.36-.28-.25-.31-.21-.38-.09-.4-.05-.23-.34-.39-.05-.25-.31-.33-.16-.34-.15-.32-.21-.41.09-.27-.27-.38.05-.4-.22.46-.16.25-.33.39-.1.3-.25.38-.1.4-.03.25-.32.31-.19.42.08.3-.21.36-.07.28-.25.32-.16h.39s.27-.27.27-.27h.39s.23-.35.23-.35l.31-.18h.39s.28-.25.28-.25h.39s.27-.25.27-.25l.36-.08.3-.19.3-.2.37-.06.31-.16.27-.26h.39s.28-.27.28-.27l.31-.19.32-.15.3-.08h.35s.22-.23.22-.23l.34-.02-.17.1.37-.08.29-.16.32-.11.3-.15.26-.25.33-.19.36-.09.34-.16.43.1.28-.32.43.11.29-.29.41.05.27-.35.38-.03.41.04.29-.29.37-.08.3-.26.38-.06.38-.09.34-.18.32-.24.1-.4.04-.34-.17-.22-.32-.02-.32.03-.32.08-.38-.14h-.37s-.32.28-.32.28l-.39-.14-.31.28h-.37s-.33.18-.33.18l-.34.1-.39-.06-.36.05-.34.11h-.36s-.33.13-.33.13l-.32.18-.33.13-.35.07-.27.11-.35.07-.31.17-.3.22-.34.09-.33.14-.32.15-.35.08-.39-.03-.31.19-.36.05-.34.1-.29.25-.31.19-.34.11-.37.04-.33.14-.28.25-.4-.05-.34.12-.27.27-.31.19-.31.18-.4-.04-.3.19-.26.3-.41-.05-.25.32-.33.12-.41-.04-.27.27-.28.24-.37.04-.3.19-.28.23-.43-.05-.19.41-.33.13-.43-.04-.28.23-.27.24-.35.11-.3.19-.21.34-.3.2-.31.17-.31.17-.39.05-.25.27-.36.1-.25.26-.3.18-.33.4-.4.08-.29.2-.26.24-.29.21-.18.34-.44.02-.27.24-.1.43-.3.19-.36.13-.31.18-.22.28-.22.29-.21.3-.25.25-.29.22-.19.3-.27.21.05-.35.15-.34.06-.37.06-.37.15-.34.23-.31.03-.37.22-.32.05-.37.05-.37.02-.37.3-.28-.14-.41.26-.29.09-.34.13-.33-.04-.38.33-.27-.09-.4.2-.31v-.37s.15-.33.15-.33l.11-.34v-.37s.29-.29.29-.29l.14-.33.09-.34v-.37s.07-.34.07-.34v-.37s.14-.33.14-.33l.28-.29-.09-.39.2-.32-.09-.39.2-.31.19-.31-.08-.4.28-.28.05-.36.09-.34.23-.29-.07-.4.3-.27-.06-.4.35-.25-.13-.42.1-.34.11-.33.31-.28-.02-.37.07-.35-.1-.35.11-.36-.25-.4h-.38s-.31.22-.31.22l-.17.35-.21.3-.22.29-.23.29-.16.33-.27.26-.06.38-.27.27-.24.29v.41s-.17.35-.17.35l-.25.31-.15.36-.14.36-.11.39-.19.36-.05.36v.37s-.37.26-.37.26l.08.4-.05.36-.34.27-.03.36.03.38-.3.28-.05.35-.12.33-.02.36.03.38-.23.3-.12.33-.14.33.04.38-.06.35-.32.28.11.4-.17.32v.37s-.25.3-.25.3l-.14.33.03.38-.08.35-.24.3.08.4-.07.35-.32.28-.09.35-.11.34.08.4-.31.29-.08.35.07.39-.1.35-.2.32v.38s-.03.36-.03.36l-.25.31v.37s.02.37.02.37l-.19.33-.06.36-.06.36-.1.35-.2.33.13.39.03.37-.03.36-.11.35-.17.35.14.37-.14.35.05.36-.1.36.05.36.07.49-.37-.32-.09-.4-.33-.17-.3-.21-.26-.25-.09-.4-.18-.31-.39-.13-.11-.37-.2-.3-.26-.24-.23-.27-.16-.32-.35-.17-.23-.27-.19-.3-.29-.22-.13-.35-.3-.22-.18-.31-.22-.28-.28-.23-.24-.26-.07-.4-.2-.29-.42-.11-.13-.36-.23-.27-.24-.26-.33-.18-.13-.36-.23-.28-.2-.31-.42-.14-.07-.41-.34-.21-.15-.34-.13-.36-.35-.21-.03-.42-.15-.34-.22-.3-.25-.27-.15-.34-.24-.28-.32-.23v-.43s-.22-.3-.22-.3l-.36-.2-.04-.41-.3-.22-.22-.29-.14-.35-.38-.13-.17-.35-.33-.21-.39.05-.23.32.25.37-.12.36v.36s.14.33.14.33l.11.32.06.34v.36s.07.35.07.35l.19.3.27.25.17.3.14.32.13.3.21.26.07.36.1.32.31.21.03-.15.19.33.2.3.24.27.02.42.28.24.28.24.13.35.37.18v.44s.2.3.2.3l.37.17.25.26.03.42.28.23.34.19.03.43.24.26.23.28.33.19.26.25.15.34.27.24.12.37.4.14.07.41.25.26.21.29.26.25.38.15.16.34.32.2.08.4.37.15.14.36.3.21.19.32.32.19.1.39.42.11.18.34.17.35.3.23.32.2.22.3.23.29.34.18.22.3.2.33.25.28.29.24.31.21.38.13.22.32.27.25.31.14.24.25.34.08.32.12.36.26.39.1.31.22.31.22.34.16.25.31.39.08.25.28.31.25-.4.08-.35.09-.37-.15-.34.29-.36.02-.37-.12-.36.12-.36-.14-.36.07-.36.12-.36-.07-.36-.19-.36.16-.36.03-.36-.06-.36.09-.35-.19-.37.17-.35-.12-.35-.14-.36-.08-.37.08h-.36s-.37.08-.37.08l-.34-.19h-.36s-.35-.08-.35-.08l-.37.13-.35-.13-.35-.07-.35-.14-.37.04-.37.03-.34-.14-.36-.03-.37.1-.33-.23-.38.17-.32-.29-.38.13-.34-.18-.37.08h-.36s-.33-.25-.33-.25l-.37.04-.36-.04-.34-.18-.37.11-.34-.2h-.36s-.36,0-.36,0l-.36.08-.36.04-.35-.08-.35-.17-.36.15-.36.06-.35-.13-.35.09-.33-.28-.31.28-.22.07.11.28.3.19.31.17.28.22.29.21.36.07.25.29.37.03.26.31.37.02.34.11.34.1.34.1.36.04.3.27.36.03.37-.05.33.18.35.09.35.07.39-.14.32.22.35.08.38-.14.35.04.32.29.37-.05.37-.04.35.07.33.23.38-.2.34.16.35.09.36-.04.36-.04.34.19.36-.07.35.09.35.07.36-.05.36-.09.36.03.35.16.36-.13.35.1.35.12.36-.25.35.18.36-.1.36.06.36-.02.36.16.35-.25.36.18h.36s.36-.06.36-.06l.36-.06.36.08.36-.03.36-.05.36.06.35-.13.35-.09.36.05.35-.05.36-.03.35-.1.35-.14.37.05.34-.17h.37s.35-.09.35-.09l.37.03.36-.05.35-.07h.37s.31-.24.31-.24l.35-.08.35-.09.33-.14.41.1.27-.32.34-.1.49-.12-.32.39-.27.25-.21.3-.25.27-.2.31-.33.19-.31.2-.15.36-.26.25-.38.14-.15.37-.21.31-.44.07-.24.27-.16.36-.33.18-.24.27-.25.27-.35.16-.19.34-.36.14-.24.28-.24.28-.33.18-.32.19-.13.41-.34.16-.27.25-.28.23-.39.1-.17.36-.25.26-.39.1-.24.26-.25.26-.24.27-.38.09-.24.27-.17.35-.41.05-.31.18-.21.31-.23.29-.36.11-.31.17-.3.19-.17.36-.23.28-.34.14-.23.29-.38.08-.31.18-.25.25-.29.2-.37.13-.3.24-.27.29-.32.21-.32.23-.18.35-.06.37.26.06.32.05.4.03.38-.11.32-.31h.41s.35-.16.35-.16l.34-.11.35-.1.38-.04.23-.36.43.05.27-.26.35-.11.26-.28.36-.1.33-.16.17-.4h.44s.23-.29.23-.29l.34-.15.23-.3.37-.11.18-.36.29-.21.27-.24.32-.18.28-.23.32-.17.25-.26.28-.22.28-.23.31-.19.24-.27.18-.35.38-.11.17-.36.3-.21.33-.17.33-.17.19-.34.3-.21.18-.34.27-.24.31-.2.25-.26.3-.21.25-.27.28-.23.23-.29.31-.2.28-.23.15-.36.22-.29.26-.25.33-.18.22-.29.34-.18.25-.26.3-.21.24-.28.19-.32.18-.32.19-.32.36-.17.12-.37.28-.24.16-.34.26-.26.37-.17v-.46s.31-.21.31-.21l.19-.32.2-.31.38-.19v-.44s.29-.25.29-.25l.12-.36.33-.23.08-.39.37-.32-.08-.4.17-.31.14-.32.29-.1-.07.37v.36s.1.36.1.36l.02.36-.09.37.13.35.06.36-.04.37.2.35-.22.38v.36s.18.36.18.36l.06.36v.36s.09.36.09.36l-.19.37.09.36.13.36-.23.37.16.36-.03.36-.1.36.1.36.04.36-.19.36.03.36-.05.36v.36s.16.37.16.37l-.13.36.03.36.06.37-.18.35.18.37-.06.36.03.37-.27.34.23.38-.14.35-.19.34.14.37-.21.34.09.37-.05.35.13.36-.02.35-.07.36.03.36-.09.33.05.33.14.31-.03.36.17.31.34.13.33-.07.26-.21.2-.36.13-.38-.03-.42.15-.38.29-.29-.09-.39.13-.33v-.37s.06-.35.06-.35l.15-.32v-.36s.09-.34.09-.34l.24-.32.05-.35-.18-.37.07-.34.2-.34.1-.35-.12-.36.05-.35.09-.35.02-.35-.07-.35-.11-.35.18-.35-.04-.36-.08-.36.11-.36-.2-.36.28-.36-.02-.36-.02-.36-.03-.36v-.36s-.06-.36-.06-.36l-.06-.36.11-.36-.24-.35.16-.36v-.36s0-.36,0-.36l-.1-.35.08-.36.05-.36-.31-.34.14-.37.08-.36-.1-.35-.09-.35.09-.37-.05-.35-.06-.35-.03-.36-.21-.34-.02-.36.2-.38-.18-.34-.14-.35.1-.38-.19-.34.13-.39-.26-.33-.02-.37-.02-.37-.06-.36v-.38s-.05-.36-.05-.36l-.07-.36-.1-.36-.2-.32-.11-.35-.1-.35-.23-.3.03-.4M26.6,32.26l.42.16.28-.32.4.07.35-.09.26-.32.34-.13.38-.04.25-.3.36-.1.24-.3h.42s.3-.21.3-.21l.25-.27.38-.1.13-.41.28-.23.22-.29.35-.16.29-.22.22-.29.17-.32.33-.22.04-.39.1-.33.07-.33.35-.25.02-.35-.08-.36-.08-.34.26-.34-.11-.34.06-.35-.15-.35-.15-.34.08-.38-.22-.31-.11-.34-.14-.33-.05-.36-.06-.37-.12-.34-.33-.23-.15-.32-.29-.23-.17-.31-.08-.4-.39-.13-.18-.32-.25-.26-.31-.19-.3-.2-.26-.27-.36-.09-.3-.22-.4-.02-.35-.11-.32-.26-.39.02-.37-.11-.39.12-.37.03-.37-.04-.38-.17-.36.24-.36-.04-.34.13-.37-.02-.35.08h-.37s-.31.21-.31.21l-.38.02-.28.25-.33.14-.34.13-.29.21-.28.22-.3.2-.33.16-.16.37-.35.14-.29.21-.09.41-.44.1-.04.42-.29.23-.06.38-.35.21v.39s-.36.23-.36.23l-.08.36-.17.33-.02.37.14.39-.31.31.09.37.12.36-.04.33v.33s-.06.34-.06.34l.11.32-.11.38.11.33.26.29.25.28.08.37.28.25.1.38.34.19.25.26.11.4.32.2.33.18.21.33.3.21.35.13h.42s.3.2.3.2l.24.33.32.18.36.09.36.08.34.14.35.11.38-.02.37.02.33.18.38-.06.33.28.37-.05.03-.08"/>
        <g>
          <path class="cls-2" d="M14.61,27.35c.26.22.51.44.91.69-.16-.6-.09-1.33-.91-.69Z"/>
          <path class="cls-1" d="M14.02,33.23h-.36s-.37.08-.37.08l-.34-.19h-.36s-.35-.08-.35-.08l-.37.13-.17-.06v2.28l.33.18.36-.07.35.09.35.07h.08c.41-.17.83-.33,1.27-.5v-1.94s-.02-.03-.04-.04h-.02s-.37.07-.37.07Z"/>
          <path class="cls-1" d="M17.36,25.48v-1.32c-.09.02-.18.04-.26.07.03-.04.06-.07.09-.11h-.93l.02.07-.14.35.05.36-.1.36.05.36.07.49-.37-.32-.09-.4-.33-.17-.3-.21-.26-.25-.09-.39c-.24.23-.49.46-.73.7-.55.12-1.15-.12-1.69.03l.14.06.14.36.3.21.19.32.32.19.1.39.42.11.18.34.17.35.3.23.32.2.22.3.23.29.06.03c.08-.12.12-.27.11-.44-.4-.25-.65-.47-.91-.69.83-.64.76.09.91.69.88-.61,1.81-1.08,2.75-1.56-.34-.37-.63-.69-.91-.99Z"/>
          <path class="cls-1" d="M19.31,20.91c-.36-.38-.68-.71-1-1.05.09-1.02-.26-2.1.22-3.06.25-.25.47-.47.63-.63-.29-.51-.58-1-.87-1.5-.04,0-.06,0-.09-.01h0s.08.41.08.41l-.07.35-.32.28-.09.35-.11.34.08.4-.31.29-.08.35.07.39-.1.35-.2.32v.38s-.03.36-.03.36l-.25.31v.37s.02.38.02.38l-.19.33-.06.36-.06.36-.1.35-.2.33.13.39.03.37-.03.36-.05.18s.03.02.05.03c.37-.6.85-1.36,1.3-2.08.5.41.81.67,1.26,1.05.14-.58.23-.99.32-1.38Z"/>
          <path class="cls-1" d="M52.02,32.3l-.16-.32-.28-.22-.16-.33-.23-.27-.17-.33-.31-.19-.16-.34-.34-.16-.24-.26-.22-.28-.18-.14c-.05.13-.08.28-.08.45.3.5.66,1.1,1.06,1.75-.18.29-.35.57-.52.85l.19.12.28.2.24.27.28.08c.46-.3.85-.56,1.21-.8l-.22-.09Z"/>
          <path class="cls-1" d="M19.24,11.69l-.28.24.11.4-.17.32v.37s-.25.3-.25.3l-.14.33.03.38-.08.35-.15.19s.01.07.01.11c.26-.1.52-.21.95-.37,0-.84,0-1.72,0-2.61Z"/>
          <path class="cls-1" d="M16.89,33.47l-.36-.06-.34.08c.25.01.5.03.73.04.03-.03.05-.05.08-.08h-.12Z"/>
          <path class="cls-1" d="M15.73,33.35s.05.08.08.12c.1,0,.22.01.34.02l-.34-.18-.08.04Z"/>
          <path class="cls-1" d="M13.92,23.3l-.03-.05-.26-.24-.23-.27-.16-.32-.35-.17-.23-.27-.19-.3-.27-.21c-.14.06-.26.12-.38.18.46.81.9,1.61,1.35,2.41.25-.25.49-.48.76-.75Z"/>
          <path class="cls-1" d="M44.35,7.81l.27-.35.38-.03.41.04.05-.05c-.04-.08-.06-.15-.11-.23h-1.53v.7l.11-.11.41.05Z"/>
          <path class="cls-1" d="M9.18,19.51c-.51.55-.48,1.08.14,1.85.61-.86.89-1.46-.14-1.85Z"/>
          <path class="cls-1" d="M14.71,46.44c.15.08.29.16.45.19.08.02.21-.19.31-.3-.13-.07-.25-.14-.38-.21l-.15.09-.23.22Z"/>
          <path class="cls-1" d="M7.9,17.98c-.21-.11-.41-.25-.63-.3-.08-.02-.21.19-.31.3.21.11.41.23.61.34.13-.13.23-.23.34-.34Z"/>
          <path class="cls-1" d="M43.06,25.38c.05.22.19.42.3.63.1-.11.21-.21.34-.34-.11-.2-.22-.4-.34-.61-.1.1-.31.23-.3.31Z"/>
          <path class="cls-1" d="M17.36,24.17c.63-.14,1.12-.17.56-.9-.2.23-.41.48-.73.86-.03.04-.06.07-.09.11.09-.03.18-.05.26-.07Z"/>
          <path class="cls-1" d="M15.71,35.69l.24-.17h.02s-.03-.04-.04-.06c-.07.07-.15.15-.23.23Z"/>
          <path class="cls-1" d="M17.22,29.46c-.11-.2-.22-.4-.34-.61-.1.1-.31.23-.3.31.05.22.19.42.3.63.11-.1.21-.21.34-.34Z"/>
        </g>
      </g>
    </g>
  </g>
</svg>