<?xml version="1.0" encoding="UTF-8"?>
<svg id="_レイヤー_2" data-name="レイヤー 2" xmlns="http://www.w3.org/2000/svg" viewBox="0 0 81.58 85.46">
  <defs>
    <style>
      .cls-1 {
        fill: #fff;
      }

      .cls-2 {
        fill: #e4bec6;
        fill-rule: evenodd;
      }
    </style>
  </defs>
  <g id="_レイヤー_1-2" data-name="レイヤー 1">
    <g id="stars">
      <g>
        <polygon class="cls-2" points="0 18.18 .92 19.03 1.78 19.91 1.87 21.25 2.85 22.07 3.12 23.29 4.28 24.01 4.47 25.28 5.13 26.29 6 27.17 6.58 28.23 7.41 29.13 7.84 30.27 7.94 31.6 8.91 32.42 9.65 33.38 10.42 34.31 11.06 35.33 11.21 36.65 12.36 37.34 12.74 38.52 13.17 39.68 14.37 40.3 14.24 41.6 14.15 42.63 13.4 43.59 13.44 44.92 12.54 45.81 12.52 47.1 11.75 48.06 11.65 49.32 10.5 50.1 10.55 51.43 9.36 52.2 8.95 53.31 8.53 54.43 8.52 55.72 7.63 56.63 7.48 57.86 6.54 58.74 6.11 59.85 6.3 61.23 5.06 61.98 4.64 63.09 4.7 64.42 4.18 65.49 3.08 66.3 2.95 67.54 2.81 68.78 2.25 69.83 1.2 70.66 .67 71.72 .86 73.12 .36 73.7 1.04 73.42 2.26 73.34 3.22 72.49 4.41 72.3 5.69 72.36 6.87 72.15 7.99 71.74 9.09 71.3 10.05 70.5 11.1 69.93 12.08 69.18 13.26 68.93 14.29 68.34 15.44 68.02 16.61 67.77 17.76 67.46 18.94 67.22 20.07 66.85 21.12 66.29 22.31 66.07 23.46 65.76 24.24 64.51 25.34 64.06 26.76 64.46 27.6 63.32 28.93 63.49 30.04 63.1 31.19 62.79 32.19 61.91 32.53 63.26 33.48 64.06 34.76 64.61 34.75 66.16 35.81 66.88 36.55 67.84 37.03 69.01 38.12 69.7 39.06 70.51 39.71 71.54 39.97 72.88 41.37 73.33 41.65 74.65 42.46 75.57 43.2 76.53 44.01 77.45 44.53 78.57 45.54 79.33 46.24 80.33 47.13 81.18 47.54 82.39 48.29 83.35 49.03 84.32 49.94 85.46 50.13 84.01 50.03 82.8 49.7 81.55 49.96 80.36 50.26 79.18 50.16 77.96 51.05 76.84 51.26 75.64 50.52 74.35 51.2 73.21 51 71.98 51.61 70.81 51.75 69.58 51.05 68.29 51.73 67.09 51.95 65.86 51.78 64.61 51.39 63.35 51.67 62.12 52.29 60.92 51.66 59.64 51.49 58.38 52.03 57.18 52.51 55.98 52.19 54.71 52.79 53.53 52.83 52.46 53.7 51.88 54.74 51.26 55.93 50.97 57.05 50.55 57.99 49.69 59.13 49.3 60.39 49.2 61.34 48.35 62.41 47.81 63.77 47.93 64.56 46.72 65.99 47.02 67.04 46.41 68.15 45.95 68.93 44.72 70.18 44.58 71.13 43.76 72.28 43.4 73.73 43.72 74.48 42.43 75.73 42.29 76.85 41.85 77.78 40.99 79.21 41.27 80.12 40.35 81.58 39.85 79.96 39.99 78.99 38.85 77.8 38.62 76.47 38.95 75.27 38.79 74.27 37.77 72.87 38.36 71.92 37.2 70.52 37.74 69.37 37.36 68.19 37.04 67.16 36.24 65.97 36 64.71 35.99 63.78 34.94 62.49 35.01 61.43 34.39 60.37 33.77 59.18 33.52 57.91 33.53 56.94 32.61 55.72 32.49 54.44 32.58 53.35 31.97 53.36 30.75 53.14 29.6 52.84 28.47 52.13 27.43 52.07 26.24 51.54 25.16 51.83 23.88 51 22.83 50.94 21.59 50.45 20.46 50.22 19.26 50.04 18.04 49.45 16.94 49.52 15.65 48.59 14.64 48.4 13.43 47.96 12.28 48.4 10.89 47.46 9.89 47.21 8.69 46.88 7.51 46.98 6.21 45.95 5.25 46.02 3.95 45.2 2.93 44.9 1.74 44.94 0 44.24 1.51 43.16 2.23 42.89 3.54 41.99 4.38 41.05 5.2 40.66 6.42 40.11 7.52 39.15 8.33 38.2 9.13 37.54 10.16 36.64 11 36.12 12.12 35.24 12.98 35.25 14.5 33.87 14.99 33.35 16.11 33.08 17.43 32.01 18.15 31.26 19.1 30.67 20.18 29.72 20.98 28.75 21.77 28.74 23.28 27.67 24 26.91 24.96 25.79 24.5 24.64 24.19 23.5 23.87 22.4 23.37 21.05 23.83 20.02 23.08 18.9 22.63 17.79 22.2 16.66 21.82 15.28 22.37 14.19 21.87 13 21.73 11.92 21.15 10.7 21.11 9.65 20.42 8.62 19.64 7.47 19.34 6.27 19.22 5.05 19.13 4.01 18.41 2.81 18.28 1.56 18.31 .41 18.34 0 18.18"/>
        <g>
          <path class="cls-1" d="M51.1,68.39l-.05-.09.68-1.2.22-1.23-.07-.54c-.12.36-.24.71-.45,1-.43.59-1.03,1.07-1.55,1.59.38.44.8.49,1.22.48Z"/>
          <path class="cls-1" d="M45.58,76.02c-.33.28-.65.55-.94.8-.51-.48-.96-.91-1.35-1.28-.18-.53.32-1.34-.7-1.31-.28.38-.32.77-.3,1.15l.17.19.74.96.81.91.53,1.13,1.01.76.57.82c.33-.28.62-.61.85-1.07-.55-.2-1.1-.39-1.64-.59.07-.83,1.62-1.52.26-2.47Z"/>
          <path class="cls-1" d="M13,33.46c.06-.82-.44-1.02-1.13-1.01-.62.38-1.23.75-1.74,1.06-.29-.11-.52-.28-.73-.46l.25.32.77.93.64,1.01h0c1.07-.39,1.66-.97,1.95-1.87Z"/>
          <path class="cls-1" d="M53.31,41.78c.88-.62,1.25-1.93,2.61-1.76.54-.84,1.71-.79,2.4-1.51-.8-.66-1.59-.27-2.3-.34-.34.3-.67.58-.96.83-.37-.3-.68-.55-1.03-.83-.67,1.43-2.04.58-2.92,1.1l-1.69,1.69h-1.85c-.35.32-.69.62-1.01.91-.33-.29-.66-.57-.98-.86-.48.48-.93.93-1.53,1.52.71.53,1.17.87,1.61,1.2.35-.31.69-.61,1.06-.93h3.73c.65-1.33,1.95-.66,2.87-1.03Z"/>
          <path class="cls-1" d="M50.52,74.35l.42-.71c-.06-.33-.12-.65-.18-.94.1-.12.21-.21.31-.29l-.07-.44.61-1.17.07-.58c-.09,0-.18,0-.28.02-.52.4-.98.76-1.19.93-1.85.17-.8-1.66-2.01-1.89-.27.08-.69.19-1.11.31.28.85,1.74,1.29.61,2.38-.5.4-1.66-.13-1.6,1.08.09-.02.17-.04.26-.07-.03.04-.06.07-.09.11.71,0,1.42,0,2.13,0,.99.71,1.62,1.67,1.98,2.83.01.04.29,0,.44,0,.08-.2.15-.51.23-.67l-.53-.92Z"/>
          <path class="cls-1" d="M77.78,40.99l1.4.27v-1.2c-.09.02-.17.04-.26.07,0-.01.02-.02.03-.03-.2.06-.41.11-.53.25-.57.61-1.14.96-1.9.34-.1-.59-.2-1.17-.31-1.77l-.94-.13-.02-.03c-.51.54-.94,1.11-1.7,1.25.02.09.04.18.07.27-.04-.04-.08-.07-.12-.1-.01.13-.03.26.02.28.62.35,1.31.59,1.88,1,.27.2.51.43.74.67l.71-.28.93-.86Z"/>
          <path class="cls-1" d="M34.02,46.78c1.21-.39,2.43.44,2.64-1.09h-2.36c-.34-.31-.67-.61-1-.92-.71.95-.73,2.37-2.08,2.81-1.07.26-1.89-.47-2.81-.75-.92,1.45.61,1.82,1.13,2.63.34-.31.68-.62,1.03-.95h2.19c.41-.57.97-1.32,1.26-1.73Z"/>
          <path class="cls-1" d="M71.21,43.71c-.51.21-1.23-.05-1.44.63v.29l.42-.04.96-.82,1.15-.37.16.04c-.05-.2-.1-.41-.16-.64-.45.39-.72.76-1.08.91Z"/>
          <path class="cls-1" d="M38.08,46.61c1.27-.84,1.54-2.27,2.21-3.58-1.3-.2-2.47-.39-3.67.2.35.39.64.71.94,1.04-.3.31-.6.64-1.01,1.07.66.55,1.1.91,1.54,1.27Z"/>
          <path class="cls-1" d="M9.15,67.03c-.7-.6-.85-1.48-1.3-2.51-1.04.47-2.3-.55-3.4.59.01.15.07.27.13.37.06-.01.11-.03.17-.04-.04.05-.07.08-.1.12.27.29.73.38,1.01.59.79.59,1.79.91,2.74,1.26.18.07.5-.24.76-.38Z"/>
          <path class="cls-1" d="M37.11,26.78c.32-.33.65-.65.97-.97.66-.65.64-1.27-.17-1.95-.93.37-2.03-.29-3.09.45v1.16c.77.51,1.82.4,2.28,1.32Z"/>
          <path class="cls-1" d="M39.46,24.58c.34.33.86.82,1.41,1.34.75-1.16,2.1-1.57,2.37-2.88-.08.02-.17.04-.25.06.03-.04.06-.06.08-.1-.38.02-.78.09-1.08-.05-.29-.13-.42-.59-.63-.91-1.09.33-1.89.91-1.9,2.53Z"/>
          <path class="cls-1" d="M48.16,18.55c-.18.57-.35,1.1-.49,1.52-.58.11-1,.19-1.39.26q-.12,1.52,1.05,1.71c1.49-.72,1.64-2.28,2.39-3.46-.53-.49-1.05-.46-1.57-.04Z"/>
          <path class="cls-1" d="M15.39,50.42h-1.17c-.07.08-.11.14-.18.21,0,.02,0,.03.01.05-.01,0-.02-.02-.03-.03-.37.45-.69.84-.99,1.21.7.52,1.07,1.55,2.2,1.39.56-.44,1.11-.87,1.62-1.27-.65-.69-1.07-1.14-1.46-1.56Z"/>
          <path class="cls-1" d="M1.66,19.78c.31-.46.56-.83.8-1.18-.1-.1-.21-.21-.31-.31h-.58s-1,.04-1,.04c.03.16.06.3.09.44l.27.25.74.76Z"/>
          <path class="cls-1" d="M44.2,3.62c.25-.38.77-.58.91-1.03l-.1-.39h-1.81l-.04.03-.27,1.31-.86.8c.35.38.64.71,1.18.7-.02-.09-.04-.17-.06-.26.04.03.07.06.1.09.02-.61.66-.81.95-1.24Z"/>
          <path class="cls-1" d="M51.05,76.84l.17-.91c-.13.01-.27.02-.4.02-.11.27-.21.76-.33.77-1.2.03-1.84.8-2.48,1.8.46.12.88.23,1.28.33.32-.3.6-.56.88-.83v-.06s.88-1.12.88-1.12Z"/>
          <path class="cls-1" d="M44.63,68.38c-.69,0-1.4,0-2.28,0,.02.09.04.17.07.26-.11-.1-.22-.18-.31-.26h-.07c.43.41.68.73,1.01.93.23.14.6.07.84.2.33.17.59.46.53.4,1-.75,1.82-1.37,2.79-2.1-1.34-.86-1.92-.01-2.57.57Z"/>
          <path class="cls-1" d="M49.15,15.25l-.56-.61-.04-.28c-.25.27-.47.56-.62.9.16.42.26.69.29.77.3-.25.62-.51.94-.78Z"/>
          <path class="cls-1" d="M41.18,7.6c.17-.84.49-1.69-.13-2.39l-.39,1.21-.55,1.1-.44.36c.51.03,1.02.02,1.5-.29Z"/>
          <path class="cls-1" d="M38.53,37.7c-.43-.45-.83-.87-1.21-1.27-.82.33-1.32.61-1.87.73-.57.12-1.22-.13-1.63.49q2.06.52,4.71.05Z"/>
          <path class="cls-1" d="M26.25,49.48c.46.01.95-.09.73-.64-.31-.77-.82-1.46-1.31-2.3-.35.96-1.93,1.25-.97,2.94.64,0,1.1-.01,1.55,0Z"/>
          <path class="cls-1" d="M26.02,41.02c-.45-.35-.85-.66-1.24-.96-.44.44-.88.88-1.18,1.18.41.61.83,1.22,1.23,1.8.66-.27,1.06-.43,1.42-.58v-1.28c-.06-.05-.11-.09-.17-.13-.03,0-.06.01-.09.02.02-.02.03-.04.05-.06Z"/>
          <path class="cls-1" d="M28.29,39.71c.66.61,1.46.15,2.17.31.43-.53,1.15-.82,1.29-1.58-.66-.61-1.46-.15-2.17-.31-.43.53-1.15.82-1.29,1.58Z"/>
          <path class="cls-1" d="M3.52,70.72c.48.48.92.92,1.4,1.4.32-.28.64-.56.97-.84.34.26.68.52,1.1.84l.26-.1s-.02-.08-.03-.11c.04.03.07.06.1.09h.03c-.05-.62-.1-1.1-.14-1.57-1.38-.12-2.57-.43-3.69.3Z"/>
          <path class="cls-1" d="M13.21,53.68c-.58-.18-.97-.36-1.38-.41-.58-.08-1.22.14-1.66-.47-.31-.43-.64-.49-.96.01v.91c1.84.55,1.84.57,3.99-.05Z"/>
          <path class="cls-1" d="M41.25,44.21c1.01.79,1.85.58,2.86.27.04-.5.08-1.06.13-1.63h-.77c-.98.6-1.58.97-2.22,1.36Z"/>
          <path class="cls-1" d="M18.17,50.38c.45-.36.88-.71,1.46-1.18-.02-.29-.07-.86-.13-1.63-.69.07-1.21.13-1.71.18.06,1.05-.5,1.97.38,2.63Z"/>
          <path class="cls-1" d="M46.91,16.53c-.52-.07-.8-.11-1.08-.15-.71.49-1.48.92-1.61,1.78h2.8c-.04-.64-.07-1.16-.1-1.63Z"/>
          <path class="cls-1" d="M32.91,34.72c-.08-.38-.18-.8-.27-1.24h-2.01c.6,1.12-.04,1.94.63,2.6.77-.16,1.08-.86,1.65-1.36Z"/>
          <path class="cls-1" d="M20.57,31.99c-1.21-.33-2.47-.74-4.16-.07.77.62,1.3,1.04,1.68,1.34.92-.47,1.7-.87,2.48-1.26Z"/>
          <path class="cls-1" d="M1.2,70.66l-.48.96c.66-.26,1.34-.52,2.57-1-.84-.16-1.3-.25-1.64-.31l-.46.36Z"/>
          <path class="cls-1" d="M.67,71.72l.06.42c.15.03.29.06.42.08-.15-.18-.31-.36-.46-.54l-.02.04Z"/>
          <path class="cls-1" d="M14.62,45.59c-.63.12-1.06.2-1.54.29v1.83c.83-.16,1.25-.24,1.87-.36-.12-.65-.22-1.18-.33-1.77Z"/>
          <path class="cls-1" d="M37.54,10.16l-.5.46s.03.06.05.09c.55-.54,1-.98,1.43-1.41,0-.15,0-.3,0-.44l-.32.28-.66,1.02Z"/>
          <path class="cls-1" d="M.54,73.62s-.03-.06-.04-.09l-.14.17.18-.07Z"/>
          <path class="cls-1" d="M35.69,43.49c-.06-.5-.11-1.01-.19-1.71-.74.18-1.24.31-1.75.44,1-.02.68,1.71,1.94,1.27Z"/>
          <path class="cls-1" d="M14.74,42.2c-.17-.14-.34-.24-.52-.29l-.06.71-.76.96v.27c.58-.63,1.2-.95,1.34-1.66Z"/>
          <path class="cls-1" d="M71.67,37.86s0-.02,0-.03c-.45.44-.95.7-.96.97-.02.69-.34,1.49.37,2.11.92-.71.46-1.67.55-2.75-.09.02-.19.04-.28.07.12-.14.23-.26.32-.38Z"/>
          <path class="cls-1" d="M43.75,39.09c-.36.03-.77.06-1.76.14.56.56.73.86.98.95.41.15,0,.99.72.78.71-.57.71-1.17.06-1.87Z"/>
          <path class="cls-1" d="M43.12,63.05c-.43-.43-.86-.86-1.31-1.31-.59.65-.67,1.28.01,1.91.49-.07,1.19.29,1.3-.6Z"/>
          <path class="cls-1" d="M44.9.08l.04-.04v-.04s-.04.08-.04.08Z"/>
          <path class="cls-1" d="M52.12,60.58l-.46-.93-.09-.69c-.27.05-.54.22-.82.53.6.17.78.85,1.38,1.1Z"/>
          <path class="cls-1" d="M65.96,45.68c.27-.08.52-.21.78-.31-.11-.21-.19-.46-.35-.64-.29-.33-.62-.61-1.14-1.11-.11.7-.19,1.22-.32,2.06.73,0,.89.03,1.03,0Z"/>
          <path class="cls-1" d="M20.42,43.98c-.43-.08-.85-.16-1.27-.23-.62.68-.7,1.31.07,2.02.2-.72,1.15-.83,1.2-1.79Z"/>
          <path class="cls-1" d="M12.82,63.79c-.88.17-1.18.87-1.69,1.3.64.66,1.26.66,1.93-.08-.07-.37-.15-.79-.23-1.22Z"/>
          <path class="cls-1" d="M53.89,32.27l-.54-.3v-.48c-.53-.03-1.12.14-1.85.59,1.52.27,2.04.35,2.39.19Z"/>
          <path class="cls-1" d="M27.16,28.2c.08.42.19.94.44,2.2.31-1.43,1.31-1.52,1.32-2.38-.56-.43-1.09-.46-1.76.18Z"/>
          <path class="cls-1" d="M13.94,32.39c0,.73-.03.89,0,1.03.08.27.21.52.31.78.21-.11.46-.19.64-.35.33-.29.61-.62,1.11-1.14-.7-.11-1.22-.19-2.06-.32Z"/>
          <path class="cls-1" d="M44.2,18.27c-.31.2-.78.34-.91.63-.16.36-.04.84-.04,1.26.32-.2.78-.34.91-.63.16-.36.04-.84.04-1.26Z"/>
          <path class="cls-1" d="M4.05,21.08c.41.02.84-.09,1.25-.15-.01-.2-.02-.4-.03-.6-.42-.06-.84-.13-1.26-.15-.1,0-.32.23-.3.3.06.22.21.59.34.6Z"/>
          <path class="cls-1" d="M10.13,70.32c-.08.02-.16.04-.23.06.03-.03.05-.05.07-.08-.58.03-1.3-.38-1.62.53.48.16.78.26.99.26l.67-.56c.04-.06.08-.13.12-.2Z"/>
          <path class="cls-1" d="M19.78,59.71c.42.06.84.13,1.26.15.1,0,.32-.23.3-.3-.06-.22-.21-.59-.34-.6-.41-.02-.83.09-1.25.15.01.2.02.4.03.6Z"/>
          <path class="cls-1" d="M49.87,63.18c-.63-.68-1.26-.68-1.9,0,.63.68,1.26.68,1.9,0Z"/>
          <path class="cls-1" d="M48.96,83.07c-.02.41.09.84.15,1.25l.6-.03c.06-.42.13-.84.15-1.26,0-.1-.23-.32-.3-.3-.22.06-.59.21-.6.34Z"/>
          <path class="cls-1" d="M41.2,36.4c-.42-.06-.84-.13-1.26-.15-.1,0-.32.23-.3.3.06.22.21.59.34.6.41.02.84-.09,1.25-.15-.01-.2-.02-.4-.03-.6Z"/>
          <path class="cls-1" d="M47.03,37.66c.63.68,1.26.68,1.9,0-.63-.68-1.26-.68-1.9,0Z"/>
          <path class="cls-1" d="M43.25,40.96c-.61.17-1.46-.46-1.81.55q1.25.41,1.81-.55Z"/>
          <path class="cls-1" d="M19.14,40.96c-.68.63-.68,1.26,0,1.9.68-.63.68-1.26,0-1.9Z"/>
          <path class="cls-1" d="M22.37,30.96q-1.25-.41-1.81.55c.61-.17,1.46.46,1.81-.55Z"/>
          <path class="cls-1" d="M19.62,51.36c-.61.17-1.46-.46-1.81.55q1.25.41,1.81-.55Z"/>
          <path class="cls-1" d="M19.62,51.36c.58.11.87-.24.93-.72.07-.63-.04-1.24-.93-1.17v1.89Z"/>
          <path class="cls-1" d="M33.8,42.86c-.61.17-1.46-.46-1.81.55q1.25.41,1.81-.55Z"/>
          <path class="cls-1" d="M42.31,21.11c.65.02.97-.29.95-.95-.65-.02-.97.29-.95.95Z"/>
          <path class="cls-1" d="M34.64,21.79s.07.06.11.1c-.12-.54-.21-.9-.86-.39.23.2.47.41.85.73-.03-.14-.06-.28-.1-.43Z"/>
          <path class="cls-1" d="M41.36,22.06c.65.02.97-.29.95-.95-.65-.02-.97.29-.95.95Z"/>
          <path class="cls-1" d="M7.33,19.69c-.1-.11-.21-.21-.34-.34-.2.11-.4.22-.61.34.11.1.23.31.31.3.22-.05.42-.19.63-.3Z"/>
          <path class="cls-1" d="M10.93,25.53c-.05-.22-.19-.42-.3-.63-.11.11-.31.23-.3.31.05.22.19.42.3.63.11-.11.31-.23.3-.31Z"/>
          <path class="cls-1" d="M16.78,22.53c-.1-.11-.23-.31-.31-.3-.22.05-.42.19-.63.3.1.1.23.31.31.3.22-.05.42-.19.63-.3Z"/>
          <path class="cls-1" d="M34.74,22.22c.11.54.21.9.86.39-.23-.2-.47-.41-.85-.73-.04-.03-.07-.06-.11-.1.04.15.07.29.1.43Z"/>
          <path class="cls-1" d="M43.24,23.05c.63-.14,1.14-.17.57-.9-.2.24-.41.48-.74.87-.03.03-.05.06-.08.1.08-.02.17-.04.25-.06Z"/>
          <path class="cls-1" d="M64.86,38.74c-.11-.2-.22-.4-.34-.61-.11.1-.31.23-.3.31.05.22.19.42.3.63.1-.11.21-.21.34-.34Z"/>
          <path class="cls-1" d="M72.08,37.39c-.12.14-.25.29-.4.47-.09.11-.2.23-.32.38.1-.03.19-.05.28-.07.41-.09.74-.14.77-.37l-.33-.41Z"/>
          <path class="cls-1" d="M73.55,40.01c-.14-.62-.18-1.11-.9-.55.23.2.47.4.85.72.04.03.07.06.12.1-.03-.09-.05-.19-.07-.27Z"/>
          <path class="cls-1" d="M79.18,40.06c.28-.06.53-.11.67-.2l-.36-.42c-.15.18-.32.38-.56.65,0,.01-.02.02-.03.03.09-.03.18-.05.26-.07Z"/>
          <path class="cls-1" d="M44.02,35.93c-.05-.22-.19-.42-.3-.63-.11.11-.31.23-.3.31.05.22.19.42.3.63.1-.1.31-.23.3-.31Z"/>
          <path class="cls-1" d="M52.23,36.24c.11-.21.23-.41.34-.61-.13-.13-.23-.23-.34-.34-.1.21-.25.41-.3.63-.02.08.19.21.3.31Z"/>
          <path class="cls-1" d="M73.68,42.22c.05.22.19.42.3.63.1-.1.21-.21.34-.34-.11-.2-.22-.4-.34-.61-.11.1-.31.23-.3.31Z"/>
          <path class="cls-1" d="M26.79,40.11c-.21.25-.42.5-.78.91-.02.02-.03.03-.05.06.03,0,.06-.01.09-.02.7-.18,1.35-.15.73-.94Z"/>
          <path class="cls-1" d="M17.25,41.91c.11-.21.23-.41.34-.61-.13-.13-.23-.23-.34-.34-.1.21-.25.41-.3.63-.02.08.19.21.3.31Z"/>
          <path class="cls-1" d="M21.68,41.6c-.02.08.19.21.3.31.11-.21.23-.41.34-.61-.13-.13-.23-.23-.34-.34-.1.21-.25.41-.3.63Z"/>
          <path class="cls-1" d="M37.89,41.73c.22-.05.42-.19.63-.3-.11-.11-.21-.21-.34-.34-.2.11-.4.22-.61.34.1.1.23.31.31.3Z"/>
          <path class="cls-1" d="M30.83,27.39c-.11-.2-.22-.4-.34-.61-.1.1-.31.23-.3.31.05.22.19.42.3.63.1-.11.21-.21.34-.34Z"/>
          <path class="cls-1" d="M34.92,28.04c.05.22.19.42.3.63.1-.1.21-.21.34-.34-.11-.2-.22-.4-.34-.61-.11.11-.31.23-.3.31Z"/>
          <path class="cls-1" d="M9.99,28.36c-.05-.22-.19-.42-.3-.63-.1.11-.31.23-.3.31.05.22.19.42.3.63.11-.11.31-.23.3-.31Z"/>
          <path class="cls-1" d="M49.86,32.62c.12.54.21.9.86.39-.23-.2-.47-.41-.85-.73.03.14.06.28.1.43-.04-.04-.07-.06-.11-.1Z"/>
          <path class="cls-1" d="M49.98,32.72c-.04-.15-.07-.29-.1-.43-.12-.54-.2-.9-.86-.39.23.2.47.41.85.73.04.03.07.06.11.1Z"/>
          <path class="cls-1" d="M43.21,5.04c.14.63.17,1.13.9.56-.24-.2-.48-.41-.86-.73-.04-.03-.07-.06-.1-.09.03.09.05.18.06.26Z"/>
          <path class="cls-1" d="M32.68,56.73c-.05-.22-.19-.42-.3-.63-.11.11-.31.23-.3.31.05.22.19.42.3.63.11-.1.31-.23.3-.31Z"/>
          <path class="cls-1" d="M41.18,53.89c-.05-.22-.19-.42-.3-.63-.11.1-.31.23-.3.31.05.22.19.42.3.63.1-.11.31-.23.3-.31Z"/>
          <path class="cls-1" d="M24.34,60.35c.21.11.41.23.61.34.13-.13.23-.23.34-.34-.21-.11-.41-.25-.63-.3-.08-.02-.21.19-.31.3Z"/>
          <path class="cls-1" d="M45.45,60.64c.22-.05.42-.19.63-.3-.1-.11-.23-.31-.31-.3-.22.05-.42.19-.63.3.1.1.23.31.31.3Z"/>
          <path class="cls-1" d="M47.21,60.18c.05.22.19.42.3.63.11-.11.31-.23.3-.31-.05-.22-.19-.42-.3-.63-.1.11-.31.23-.3.31Z"/>
          <path class="cls-1" d="M11.11,61.29c-.21-.1-.41-.25-.63-.3-.08-.02-.21.19-.31.3.21.11.41.23.61.34.13-.13.23-.23.34-.34Z"/>
          <path class="cls-1" d="M44.83,58.16c-.22.05-.42.19-.63.3.11.11.23.31.31.3.22-.05.42-.19.63-.3-.1-.11-.23-.31-.31-.3Z"/>
          <path class="cls-1" d="M27.36,57.35c.05.22.19.42.3.63.1-.11.31-.23.3-.31-.05-.22-.19-.42-.3-.63-.11.11-.31.23-.3.31Z"/>
          <path class="cls-1" d="M30.19,59.24c.05.22.19.42.3.63.1-.11.21-.21.34-.34-.11-.2-.22-.4-.34-.61-.11.11-.31.23-.3.31Z"/>
          <path class="cls-1" d="M55.72,47.89c.05.22.19.42.3.63.11-.1.21-.21.34-.34-.11-.2-.22-.4-.34-.61-.11.11-.31.23-.3.31Z"/>
          <path class="cls-1" d="M15.2,44.57c.22-.05.42-.19.63-.3-.11-.11-.23-.31-.31-.3-.22.05-.42.19-.63.3.1.1.23.31.31.3Z"/>
          <path class="cls-1" d="M57.91,48.53c-.11.21-.23.41-.34.61l.34.34c.11-.21.25-.41.3-.63.02-.08-.19-.21-.3-.31Z"/>
          <path class="cls-1" d="M14.04,50.63c-.19-.72-.15-1.4-.95-.77.25.21.5.43.93.8.01,0,.02.02.03.03,0-.02,0-.03-.01-.05Z"/>
          <path class="cls-1" d="M46.09,73.07c-.63.14-1.13.17-.56.9.2-.23.41-.48.73-.86.03-.04.06-.07.09-.11-.09.03-.18.05-.26.07Z"/>
          <path class="cls-1" d="M7.25,72.01l.07-.03s-.06-.05-.1-.09c.01.04.02.08.03.11Z"/>
          <path class="cls-1" d="M10.13,70.32c.15-.03.29-.06.42-.1l.39-.21c.06-.12.02-.3-.22-.6-.2.24-.42.49-.75.88-.02.03-.04.05-.07.08.08-.02.16-.04.23-.06Z"/>
          <path class="cls-1" d="M17.9,62.08c.05.22.19.42.3.63.1-.1.21-.21.34-.34-.11-.2-.22-.4-.34-.61-.11.11-.31.23-.3.31Z"/>
          <path class="cls-1" d="M19.93,62.53c.22-.05.42-.19.63-.3-.1-.11-.21-.21-.34-.34-.2.11-.4.22-.61.34.1.11.23.31.31.3Z"/>
          <path class="cls-1" d="M37.47,62.45s.07.06.11.1c-.11-.54-.2-.9-.86-.39.23.2.47.4.85.73-.03-.14-.06-.28-.1-.43Z"/>
          <path class="cls-1" d="M28.44,62.89c-.08-.02-.21.19-.31.3.17.09.33.18.49.27l.16.02c.1-.1.2-.2.29-.29-.21-.11-.41-.25-.63-.3Z"/>
          <path class="cls-1" d="M37.57,62.88c.12.54.21.9.86.39-.23-.2-.47-.4-.85-.73-.04-.03-.07-.06-.11-.1.04.15.07.29.1.43Z"/>
          <path class="cls-1" d="M42.35,68.38c-.14-.63-.17-1.12-.9-.56.19.16.38.33.66.56.09.08.19.17.31.26-.03-.09-.05-.18-.07-.26Z"/>
          <path class="cls-1" d="M4.59,65.48c-.21.05-.42.09-.58.14l-.31.23c-.04.12.01.29.22.56.2-.23.4-.47.72-.84.04-.04.07-.08.1-.12-.06.02-.11.03-.17.04Z"/>
        </g>
      </g>
    </g>
  </g>
</svg>