<?xml version="1.0" encoding="UTF-8"?>
<svg id="_レイヤー_2" data-name="レイヤー 2" xmlns="http://www.w3.org/2000/svg" viewBox="0 0 93.17 98.54">
  <defs>
    <style>
      .cls-1 {
        fill: #fff;
      }

      .cls-2 {
        fill: none;
      }

      .cls-3 {
        fill: #c5c2de;
        fill-rule: evenodd;
      }
    </style>
  </defs>
  <g id="_レイヤー_1-2" data-name="レイヤー 1">
    <g id="stars">
      <g>
        <path class="cls-3" d="M1.21,87.64l.59-1.07.57-1.07.44-1.13.47-1.12.56-1.08-.09-1.37.86-.94.88-.94-.29-1.45.49-1.11.44-1.13.53-1.09.88-.86-.05-1.25.75-.92.88-.87-.3-1.35.65-.97.81-.89-.28-1.36,1.36-.63.03-1.3.15-1.26,1.12-.78.72-.98-.07-1.37.67-1,.79-.94.71-.98.14-1.26.88-.91-.16-1.39.78-.96.58-1.08-.8-1.01-.27-1.27-.62-1.08-.51-1.14-.48-1.16-.72-1.02-1.21-.72-.3-1.27-.83-.95-.64-1.06-.79-.98-.17-1.34-.63-1.07-.49-1.08-.98-.82-.27-1.2-.65-1-.43-1.12-.57-1.05-.78-.93-.71-.97-.26-1.23-.71-.96-.58-1.04-.45-1.13-.92-.82-.5-1.1-1.1-.67-.28-.83.78.41,1.17.16,1.16.21,1.28-.48,1.16.26,1.07.76,1.27-.32,1.07.72,1.31-.55,1.09.59h1.24s1.07.86,1.07.86l1.21.12,1.16.38,1.29-.23,1.21.16,1.1.66,1.33-.42,1.15.45,1.08.73,1.24.03,1.14.49,1.13.52,1.27-.1,1.22.14,1.16.39,1.12.54,1.31-.24,1.3.89.65-1.31.59-1.03.64-1,.69-.96.73-.93.97-.76.24-1.28.5-1.1.9-.81.58-1.04.61-1.02,1.27-.54.37-1.19.63-1,.67-.98.69-.96.58-1.04.5-1.09,1.36-.49.56-1.05.91-.81.58-1.03.05-1.39,1.32-.54.61-1.02.65-.99.37-1.17.6-1.43.58,1.46v1.27s.61,1.11.61,1.11l-.23,1.31.35,1.18.63,1.11-.39,1.34.68,1.1.23,1.16.55,1.08-.27,1.29.9,1,.06,1.21.28,1.15-.21,1.27.34,1.13.31,1.14.48,1.11.36,1.13.49,1.11.21,1.17.49,1.19.19,1.24.22,1.24-.64,1.37.56,1.18.22,1.23.04,1.27.24,1.4,1.49-.37,1.02.8,1.16.27.99.8,1.21.1,1.05.59,1.19.18,1.22.12,1.22.15.99.72.95.83,1.03.6,1.12.38,1.19.24,1.15.33.99.7,1.22.18,1.06.54.89.92,1.07.51,1.34-.1,1.05.56,1.23.15.98.72,1.1.43.94.83,1.31-.08,1.12.39.84,1.13.87.18-.83.24-.63,1.19-1.16.3-1.09.4-.95.68-.94.72-1.07.44-1.12.33-1.04.5-1.25.02-.75,1.15-1.08.4-1.16.32-1.15.34-1,.67-.94.79-1.21.2-.93.81-1.39-.19-1.07.51-1.13.37-.67,1.37-1.44-.29-1.04.56-.79,1.1-1.03.59-1.02.26-.58,1.01-.11,1.2-.35,1.18.19,1.23.46,1.26-.61,1.15.17,1.23-.82,1.12.51,1.27-.12,1.2-.09,1.21-.21,1.19-.29,1.18v1.22s-.57,1.15-.57,1.15l.32,1.26v1.22s-.92,1.1-.92,1.1l.32,1.26-.57,1.15.21,1.24-.2,1.19-.62,1.14.54,1.28-.41,1.17.08,1.23.06,1.22-.72,1.14.5,1.27-.73,1.14.05,1.22-.84-.87-1.19-.47-.45-1.27-.91-.77-.83-.86-1.04-.66-.95-.75-.74-.95-.84-.85-.51-1.15-1.27-.47-.3-1.33-1.09-.63-.46-1.19-1.37-.39-.63-1.04-.87-.83-.74-.94-.67-1.01-.61-1.06-.88-.81-1.12-.59-.55-1.13-.6-1.09-1.22-.47-.8-1.35-1.09.92-1.1.55-1.14.4-1.16.35h-1.26s-1.04.77-1.04.77l-1.38-.39-.95,1.05-1.25.06-1.13.46-1.3-.1-1.22.15-1.02.8-1.16.35-1.12.5-1.23.11-1.17.31-1.21.17-1.07.67-1.15.39-1.18.26-1.22.14-1.13.47-1.13.46-1.29-.09-.9,1.23-1.31-.15-1.19.27-1.12.51-1.31-.13-1.04.77-1.2.24-1.25.18.28.36ZM41.56,48.67l-.65-.73-.91-.78-.97-.69-.94-.74-.86-.83-1.33-.31-.62-1.1-.6-1.12-1.46-.18-.89-.8-.93-.75-.87-.81-.63-1.13-1.24-.31-.72-.98-.71-1.07-1.19.28.03.35.38,1.14,1.34.38-.06,1.52,1.13.6,1.04.67.18,1.33.55,1.05,1.25.5.61,1,.52,1.09.75,1,1.19.51.65,1.11,1.4.23.75,1,.91.82.56.33-.95.25-1.02.69-1.07.63-1.07.64-.87.88-.44,1.32-1.15.57-.69,1.03-.83.9-.68,1.03-1.2.57-.79.93-.88.85-.46,1.22-1.07.76-.66,1.1-.81,1-.07,1.52,1.32-.68,1.02-.75,1.28-.37.95-.86.9-.64,1.01-.51.67-.94.99-.54.51-1.11,1.17-.38.89-.8.82-.85.84-.82.37-1.31.93-.75,1.26-.3.66-1.11,1.3-.25.56-1.35.29.33.2-.1.06,1.13.57.67.42,1.2,1,.89.65,1.07.19,1.3,1.16.84.3,1.25-.06,1.34.6,1.02.25,1.16.29,1.16.89.84.7.93.48,1.06.34,1.13.98.72.24,1.32,1.37-.03.1-.53-.15-1.04-.15-1.27-.23-1.27-.03-1.34-.93-1.05-.67-1.44.06-.68-.18-.14-.74-1.39.16-1.35-.85-.88-.55-1.02-.51-1.04-.48-1.06-.61-1-.69-.96.27-1.4-.76-.81,1.32-.02,1.32-.44.92-.93,1.21.58,1.06-.26,1.07-.24,1.18-.62,1.12-.8,1.25-.3,1.33-.07,1.12-.73,1.39.05.92-.47.62-.85.93-.35-1.7-.33-1.4-.1-1.4.27-1.41-.54-1.7.75-.81-.13-.19.09-1.36-.21-1.23.34-1.24.3-1.21.47-1.23.37-.92.5-.99.3-1.43.43.15-1.51.21-1.05,1.05-1-.14-1.23.2-1.17.39-1.14.28-1.16-.62-1.26.62-1.12.03-1.18.54-1.16-.15-1.26.21-1.34-.79-.87-.65.77-.44,1.23-.85,1.02-.83.94-.53,1.1-.23,1.19-.02,1.22-.07,1.19-.44,1.13.13,1.22-.26,1.16-.69,1.07-.3,1.23.33,1.33-.07-.11Z"/>
        <g>
          <path class="cls-2" d="M39.29,31.4c.57.13.66-.29.63-.75h-.95c.1.26.16.71.32.75Z"/>
          <path class="cls-2" d="M58.49,56.06c-.45-.51-.9-1.03-1.56-1.77h-.95v.95c.99-.22,1.4,2.04,2.5.83Z"/>
          <path class="cls-2" d="M45.56,20.79c-.45-.84-1.24-.43-1.87-.54q.56.97,1.87.54Z"/>
          <path class="cls-2" d="M53.54,41.91c.22-.26.44-.51.69-.91-.6.16-1.33.09-.69.91Z"/>
          <path class="cls-2" d="M44.78,15.86c.11.2.22.4.34.61.11-.1.31-.23.3-.31-.05-.22-.19-.42-.3-.63-.11.11-.21.21-.34.34Z"/>
          <path class="cls-1" d="M54.23,41c-.25.4-.47.65-.69.91-.64-.83.09-.76.69-.91-.13-.42-.13-.89-.13-1.34-.31-.34-.61-.67-.92-1,.46-.46.91-.91,1.36-1.36.57-.04,1.26.12,1.57-1.29.03-.16-.57-.48-.9-.98-.3-.45-.38-1.05-.57-1.65-.58.15-1,.27-1.44.38.29.77,1.27,1.1.73,1.86-.42.64-.83,1.29-1.23,1.9-.72-.35-1.1-.53-1.4-.68v-2.87c.32-.37.6-.7.95-1.1-.64-.23-1.19-.42-1.73-.62-.16-.88-.56-1.78.38-2.62.2.6.39,1.14.57,1.69.9.15,1.63.87,2.7.96-.09-.6-.16-1.03-.22-1.39-.67-.23-1.22-.41-1.73-.58v-3.93c-.65-.64-1.21-1.56-2.01-1.9-1.19-.5-2.15-1.73-3.66-1.38.19,1.15,1.38,1.55,1.94,2.55-.09.34-.21.75-.29,1.06-.89.49-1.97-.41-2.53.71.44.44.87.87,1.31,1.31.71.41,1.82-.65,2.31.65-.65.35-.85,1.3-1.75,1.28.02.09.04.18.07.27-.04-.03-.07-.06-.11-.09v1.89c.63.62,1.59,1.56,2.53,2.5-.08.08-.3.3-.58.58.26.32.53.64.83.99-.28.31-.57.63-.88.98v1.86c.84.76,2.3.67,2.74,2-.22.22-.44.44-.71.71-.15,1.14-.41,2.34.29,3.45h1.42c-.02-.09-.04-.18-.07-.26.05.04.08.07.12.11.03-.53-.24-1.12.3-1.58.42.22.85.44,1.33.69.52-1.25.1-2.48.25-3.68-.32,0-.63,0-.81-.05Z"/>
          <path class="cls-1" d="M63.23,81.72v-1.15s-.33-1.26-.33-1.26l.24-.48c-.11-.16-.25-.3-.47-.39-.93-.42-.92-1.49-1.34-2.29-.73-.08-1.47-.16-2.57-.28.3-1.23.14-2.41-.88-3.26.21-1.53-1.58-1.79-1.98-3.32,0-.57,0-1.49,0-1.38-.46-1.89-1.68-2.07-1.84-3.43.22-.3.58-.76.94-1.24-.82-.4-1.67-.82-2.53-1.24-.23.66-.42,1.2-.6,1.73-.35-.03-.7.01-1.03.04l-.03.36.67,1.44.93,1.05.03,1.34.23,1.27v.02s.04.07.05.1c.48.13.9.24,1.27.34v3.58c-.21,1-1.05,1.03-.52,1.7.7.08,1.44.16,1.94.22.63.52,1.1.91,1.56,1.29-1.14,1.38-1.21,1.7-.56,2.36,1.06,0,2.13.3,3.12-.19.25-.25.48-.47.72-.72.76.78,1.52,1.57,2.28,2.35-.17.52-1.03.67-.87,1.44.52-.07,1.04-.02,1.57.01Z"/>
          <path class="cls-1" d="M47.47,19.91c-.33-.43-.67-.88-.94-1.25.01-.75.13-1.28.91-1.24-.02-.09-.04-.18-.07-.26.04.03.07.06.11.09v-1.29c.61-.28,1.25-.58,2.08-.96-.75-.26-1.37-.34-1.82-.66-.63-.45-1.13-1.08-1.68-1.64-.57,0-1.15,0-1.72,0l-.23.32-.67.98-.63,1-.03.1c.57.56,1.08,1.15.82,2.12-.95.14-1.81.27-2.91.44,1.28.85,2.73,1.08,3,2.6.63.11,1.41-.3,1.87.54q-1.3.43-1.87-.54c-.26.11-.74.19-.76.34-.15.85-.6,1.79.32,2.5h3.28c.27-.49.55-.97.94-1.66v-1.52ZM45.12,16.47c-.11-.21-.23-.41-.34-.61.13-.13.23-.23.34-.34.11.21.25.41.3.63.02.08-.19.21-.3.31Z"/>
          <path class="cls-1" d="M32.82,72.27c.32.3.65.6.97.9.46-.46.9-.9,1.34-1.34-.58-1.07-1.68-.2-2.59-.73-.07-.3-.17-.73-.33-1.44-.91-.88-2.02-1.97-3.15-3.03-.09-.08-.29-.03-.58-.06-.2.12-.51.3-.8.47.34.44.58.74.85,1.09-.69.24-1.24.44-1.88.66.35.41.62.73.92,1.08-.28.3-.57.63-.87.96.68.52,1.01,1.6,2.17,1.42.42-.28.84-.57,1.3-.88.25.73.44,1.28.62,1.81h1.06c.3-.29.64-.6.96-.91Z"/>
          <path class="cls-1" d="M58.09,58.09c1.61-.74,1.71-2.33,2.47-3.48-.29-.29-.51-.51-.8-.8.66-.31,1.29-.6,1.9-.89v-1.36s-.05.01-.08.03c.03-.05.05-.09.08-.13h0c-.77-.13-.96.92-1.46.89-.9-.06-1.33.52-1.89.96-.45-.45-.89-.89-1.35-1.35v-1.86c-.21-.24-.42-.48-.63-.72l-1.19.29-.42.3c.41.71.82,1.42,1.26,2.19v2.14h.95c.65.74,1.11,1.26,1.56,1.77-1.1,1.21-1.51-1.05-2.5-.83v1.42c.71.53,1.09,1.59,2.1,1.44Z"/>
          <path class="cls-1" d="M72.28,49.48c.96.26,1.78-.22,2.64.55-.05.58-.06,1.32-.2,2.03-.03.15-.5.23-.77.33,0,.16-.06.41,0,.45,1.25.76,2.52.76,3.76,0,.06-.04.02-.25.01-.41-.09.02-.18.04-.27.07.04-.05.07-.08.11-.12-.54-.03-1.15.24-1.66-.39.24-.3.49-.61.92-1.14v-4.65c.37-.37.59-.59.85-.85-.41-.53-.83-1.06-1.3-1.67-.86,1.35-.41,2.45-.54,3.53-.43.42-.88.85-1.43,1.38-.58-.49-1.12-1.54-2.34-.49.06.4.14.93.21,1.37Z"/>
          <path class="cls-1" d="M80.03,48.68h2.21c.1.46.19.89.3,1.39.46.35.73,1.12,1.72,1.2.05-1.09.1-2.14.14-3.1.15-.53,1.25-.65.45-1.43h-1.87c-.34-.32-.68-.64-1.19-1.12-1.2.59-2.11,1.04-2.73,1.34.3.55.66,1.2.95,1.72Z"/>
          <path class="cls-1" d="M38.02,25.47c-.32-.34-.64-.68-.69-.73-.3-.58-.22-1.12-.27-1.62l-.42.54-.69.96-.64,1-.17.3h.46c.34.32.68.64,1.02.96h1.4v-1.4Z"/>
          <path class="cls-1" d="M39.92,30.65c.03.46-.06.88-.63.75-.16-.04-.22-.49-.32-.75-1.21.08-1,.83-.79,1.59.57.21,1.11.4,1.65.59-.24.82-1.59,1.28-.37,2.57.94-.39,2.16.56,3.28-.46-.62-.66-1.23-1.31-1.83-1.93.33-.38.63-.72.91-1.04-.16-.77.33-1.62-.4-2.19-.51.3-1.01.59-1.5.87Z"/>
          <path class="cls-1" d="M37.12,77.07c0-.31-.04-.59-.3-.84-.82-.54-1.83.2-2.6-.64-.84-.92-1.87-.81-2.87.02.08.4.16.83.29,1.44.47-.38.79-.63,1.29-1.04.31,1.29,1.85.74,2.52,1.62l.55-.17,1.13-.39Z"/>
          <path class="cls-1" d="M51.73,76.04c-.44.44-.87.87-1.38,1.38,1.37,1.14,2.19,2.68,2.74,4.31.22.67.69.97,1.05,1.42.12.16.41.19.62.28.51-.73.2-1.5.23-2.16-1.4-1.59-1.47-3.96-3.26-5.23Z"/>
          <path class="cls-1" d="M18.41,82.06l.36-.05c-.35-.47-.68-.92-.97-1.31-1.36.27-2.53-.46-3.47.64.09.38.19.81.27,1.12,1.08.52,1.57-.14,2.11-.68.02-.02.21.14.32.21.06.24.13.48.2.78l.11-.04,1.07-.67Z"/>
          <path class="cls-1" d="M41.84,40.71c.32.31.66.64,1,.97l.02-.04.07-1.19.02-1.22v-.06c-.96-.07-1.3.43-1.11,1.55Z"/>
          <path class="cls-1" d="M45.91,43.76c.15-.05.3-.1.46-.16-.05-.2-.16-.36-.28-.52l-.14.4-.05.28Z"/>
          <path class="cls-1" d="M46.57,71.82c.77.39,1.54.78,2.51,1.27.38-.34.9-.83,1.17-1.08v-2.04l-.18-.59c-1.71.44-1.79.51-3.51,2.43Z"/>
          <path class="cls-1" d="M51.18,11.36c-.06-.11-.11-.22-.17-.33-.88-.59-2.22.3-2.94-.98-.13-.23-.86-.2-1.3-.17-.32.02-.64.15-1,.28l-.11.25c.82.82,1.57,1.57,2.47,2.47,1.22-.61,2.13-1.06,3.05-1.52Z"/>
          <path class="cls-1" d="M36.8,62.81c-1.15.81-1.87.88-2.39.3.22-.22.45-.45.83-.83-.45-.5-.9-.99-1.53-1.69q-.54,3.5-.05,3.99c1.15.06,2.36.45,3.5-.42-.12-.46-.24-.88-.36-1.34Z"/>
          <path class="cls-1" d="M23.88,50c-.07-.38-.14-.81-.21-1.19-.99-.18-1.84-.34-2.67-.49v-1.55c-.09.02-.17.04-.26.07.04-.04.07-.08.1-.12-.13-.01-.26-.03-.29.02-.46.84-.88,1.69-1.39,2.7.91.08,1.66.14,2.4.2.65.68,1.29,1.46,2.32.36Z"/>
          <path class="cls-1" d="M45.67,48.86v.21l.24-.07.99-.3.11-.06s-.03-.07-.05-.11c-.48.12-.89.23-1.3.33Z"/>
          <path class="cls-1" d="M48.96,51.54l-.38.38-.74.25c.06.06.13.12.19.2.14.17.8-.09,1.57-.2-.23-.23-.44-.43-.64-.62Z"/>
          <path class="cls-1" d="M59.31,79.78c-.56.87-2.07,1.24-1.11,2.76.37.03.82.03,1.25.13.42.09.89.19,1.21.45.39.31.66.53,1,0v-1.39h-1.46c-.28-.62-.58-1.25-.89-1.93Z"/>
          <path class="cls-1" d="M45.64,65.17c-.98-.47-.71-1.92-1.36-2.15-1.1-.39.1-1.95-1.52-1.96,0,1.05,0,2.09,0,3.13.83.64,1.33,2.26,2.88.99Z"/>
          <path class="cls-1" d="M59.55,62.83c.27-.07.69-.19,1.47-.4-1.76-.83-1.02-3.95-4.42-3.11,1.59.94,1.19,2.83,2.95,3.52Z"/>
          <path class="cls-1" d="M18.38,28.57c-.33-.4-.92-1.12-1.39-1.7h-1.66s0,0,0,0c0,0-.01,0-.02,0,.45.91.89,1.82,1.33,2.73,1.13.05,2.31.37,3.71-.44-.75-.23-1.16-.35-1.98-.6Z"/>
          <path class="cls-1" d="M92.83,47.67c0,.05.02.1.03.16l.3-.09-.34-.07Z"/>
          <path class="cls-1" d="M67.43,60.54l.72-.99,1.04-.56.45.09c.17-.17.33-.33.5-.5-.72-.94-1.64-.43-2.52-.33-.39.42-.8.85-1.2,1.28.36.36.69.69,1.02,1.02Z"/>
          <path class="cls-1" d="M13.39,61.34c-.06-.1-.16-.19-.28-.3l-.48.65-1.12.78-.15,1.26h0c.37.01.74.01,1.09.01-.02-.09-.04-.18-.07-.26.04.04.08.07.12.1.08-.83,1.52-1.16.88-2.24Z"/>
          <path class="cls-1" d="M12.41,70.75c-.69.35-1.37.7-2,1.03.28.68.44,1.07.58,1.42h.43c.95-.57,1.55-.93,2.13-1.28-.68-.7-1.1-1.13-1.14-1.17Z"/>
          <path class="cls-1" d="M64.32,64.74c-.97-.1-1.8.04-2.62-.05.02.09.04.18.07.27,0,0-.02-.01-.03-.02.37.96.81,1.77,1.32,1.72.55-.31.98-.55,1.37-.77l-.15-.99.04-.15Z"/>
          <path class="cls-1" d="M42.11,26.15c-.58.42-.43,1.06.03,1.55h2.44c-.5-1.01-.92-1.87-1.35-2.76-.18.02-.31.08-.41.16.01.05.02.09.04.14-.03-.03-.06-.05-.09-.08-.26.28-.32.75-.65.99Z"/>
          <path class="cls-1" d="M44.76,69.48c.46.27.93.54,1.52.88h1.2c-.43-.9-.85-1.8-1.37-2.88-.47.1-.99.22-1.47.32v1.57c.09-.02.18-.04.26-.07-.05.06-.1.12-.15.17Z"/>
          <path class="cls-1" d="M67.58,53.09c-.73-.67-1.16-1.18-1.69-1.62-.43.43-.86.86-1.46,1.46.41.63-.44,1.6.59,2.32.29-.65.57-1.3.8-1.84.53-.1.94-.18,1.76-.33Z"/>
          <path class="cls-1" d="M53.23,60.44c-1.48-.24-2.6-1.99-4.26-1.31l.29.54.31.32c1.12.65,2.17,1.57,3.66.45Z"/>
          <path class="cls-1" d="M41.33,36.36c-.3.42-.73,1.03-1.21,1.69.59.23,1.43.28,2.61-.06.1-1.08-.01-1.78-1.4-1.63Z"/>
          <path class="cls-1" d="M26.87,51.45c-1.4,0-2.45-.02-3.5,0-.43,0-.86.11-1.28.17q3.57.8,4.79-.18Z"/>
          <path class="cls-1" d="M45.88,45c-.03.05-.04.11-.06.16l.08.71-.34.32c-.01.46.1.92.39,1.4h1.53c0-.7,0-1.01,0-1.31-.53-.42-.82-1.15-1.59-1.28Z"/>
          <path class="cls-1" d="M53.92,4.46c-.86-.4-1.7-.49-2.69.17.1.45.21.97.31,1.44.53,0,.83,0,1.14,0,.38-.56,1.16-.82,1.24-1.61Z"/>
          <path class="cls-1" d="M52.05,8.27c-3.36-.43-3.36-.41-3.5.3.43.43.86.86,1.29,1.29.33-.31.61-.71,1-.92.41-.21,1.21.32,1.22-.67Z"/>
          <path class="cls-1" d="M56.52,84.43c-.79,1.01-.58,1.85-.27,2.86.49.04,1.04.08,1.6.12-.02-.1-.04-.2-.07-.3.04.03.07.06.11.09v-.56c-.6-.98-.97-1.58-1.36-2.22Z"/>
          <path class="cls-1" d="M86.51,51.69l.38-.15s-.01-.05-.03-.08c-.48.05-1,.11-1.82.21.09.15.14.29.17.44l.18-.09,1.12-.33Z"/>
          <path class="cls-1" d="M42.58,59.81c.08-.43.15-.84.23-1.23-.6-.42-.87-1.17-1.77-1.31-.08.43-.15.84-.23,1.23.6.42.87,1.18,1.77,1.31Z"/>
          <path class="cls-1" d="M71.47,44.93s.12.02.25.05c-1.28.58-1.94.88-3.11,1.41.42.09.74.15.95.19,1.28-.58,1.94-.88,3.11-1.41-.68-.14-1.1-.22-1.2-.24Z"/>
          <path class="cls-1" d="M71.47,44.93s-.03,0,0,0h0Z"/>
          <path class="cls-1" d="M69.56,46.58h0c.39.08.36.07,0,0Z"/>
          <path class="cls-1" d="M60.06,90.9c.07.03.46.18,1.15.47.25-.41.5-.84.76-1.26l-.36-.86c-.13-.05-.28-.11-.44-.18-.36.6-.75,1.24-1.11,1.83Z"/>
          <path class="cls-1" d="M24.59,67.09l-.09.05.06-1.34c-.45-.3-.91-.6-1.37-.91-.06.17-.22.56-.48,1.24.57.38,1.19.79,1.79,1.19.02-.05.05-.13.09-.23Z"/>
          <path class="cls-1" d="M12.03,82.68c-.66.05-1.21-.08-1.57-.66-.25-.4-.44-.41-.79.29.06.28.17.81.28,1.33.93-.2,1.73.25,2.41-.36-.11-.21-.23-.61-.32-.6Z"/>
          <path class="cls-1" d="M12.33,22.57h-.7c-.37.31-.76.57-.82.99.45.56.82,1.01,1.2,1.49.66-.89.78-1.69.33-2.48Z"/>
          <path class="cls-1" d="M39.13,24.24c.41.65.77,1.24,1.15,1.85.76-.82.72-1.34.17-2.05-.43.07-.95.15-1.32.2Z"/>
          <path class="cls-1" d="M50.19,54.63c-.43-.43-.86-.86-1.29-1.29-.67.62-.68,1.25,0,1.89.49-.07,1.18.29,1.3-.6Z"/>
          <path class="cls-1" d="M80.11,54.4l.41-.11c-.08-.36-.25-.76-.5-1.21-.12.63-.2,1.08-.24,1.42l.34-.1Z"/>
          <path class="cls-1" d="M54.84,23.08c-.61.07-1.12.13-1.82.2.19.74.31,1.24.47,1.86.85-.81.87-.83,1.36-2.06Z"/>
          <path class="cls-1" d="M46.79,61.41l-.21-.86c-.17.38-.13.73.2,1.05v-.2Z"/>
          <path class="cls-1" d="M26.64,45.8c-.02-.09-.04-.19-.07-.28.14.12.26.23.38.32,0,0,.02,0,.03,0-.44-.45-.7-.95-.97-.96-.69-.02-1.49-.34-2.11.37.71.92,1.67.46,2.75.55Z"/>
          <path class="cls-1" d="M17.63,41c-.37.07-.79.15-1.22.23.17.88.87,1.18,1.3,1.69.66-.64.66-1.26-.08-1.93Z"/>
          <path class="cls-1" d="M56.82,40.66c-.3-.53-.55-1-.81-1.46-.05.01-.1.03-.16.04-.3.16-.66.3-.77.55-.16.36-.04.84-.04,1.26.63-.11,1.42.33,1.77-.39Z"/>
          <path class="cls-1" d="M81.12,42.84l-.7-.73-.79-.4c.03.36.06.75.09,1.22.52-.03.94-.06,1.39-.09Z"/>
          <path class="cls-1" d="M58.77,48.62h.01s0,0,0,0h-.01Z"/>
          <path class="cls-1" d="M39.26,19.44l-.17.15-.5,1.1-.1.53c.57-.58,1.03-1.02,1.59-1.63-.28-.05-.54-.1-.82-.15Z"/>
          <path class="cls-1" d="M10.15,66.53l.1.5-.41.45c-.18,1.18-.06,1.29.48,1.76.41-.79.47-1.59-.17-2.71Z"/>
          <path class="cls-1" d="M48.11,74.3c.56.56.73.86.98.95.29.11.18.54.34.73.07-.02.14-.03.21-.05-.04.04-.07.08-.1.12.07.02.15.03.28-.01.71-.57.71-1.17.06-1.87-.36.03-.77.06-1.76.14Z"/>
          <path class="cls-1" d="M61.66,51.56c.65-.28,1.46.29,1.81-.66-1.2-.4-1.26-.4-1.81.55-.03.05-.05.08-.08.13.02-.01.05-.02.08-.03Z"/>
          <path class="cls-1" d="M13.45,81.23c-.63-.68-1.26-.68-1.9,0,.63.68,1.26.68,1.9,0Z"/>
          <path class="cls-1" d="M38.24,51.54c-.23-.03-.46-.06-.68-.07-.1,0-.32.23-.3.3.03.1.08.23.13.35l.86-.58Z"/>
          <path class="cls-1" d="M68.17,48.95c-.55-.51-1.08-.48-1.85.14.86.61,1.46.89,1.85-.14Z"/>
          <path class="cls-1" d="M51.59,56.29c-.51.55-.48,1.08.14,1.85.61-.86.89-1.46-.14-1.85Z"/>
          <path class="cls-1" d="M63.08,52.4c-.68.63-.68,1.26,0,1.9.68-.63.68-1.26,0-1.9Z"/>
          <path class="cls-1" d="M29.99,53.33c.1,0,.32-.23.3-.3-.06-.22-.21-.59-.34-.6-.41-.02-.84.09-1.25.15.01.2.02.4.03.6.42.06.84.13,1.26.15Z"/>
          <path class="cls-1" d="M21.08,40.66c1.2.4,1.26.4,1.81-.55,0-.03,0-.07.01-.11-.66.3-1.48-.29-1.83.66Z"/>
          <path class="cls-1" d="M15.34,76.04s0,0,0,0c0,0,0,0,0,0-.56-.97-.56-.97-1.86-.54.45.83,1.23.43,1.86.55Z"/>
          <path class="cls-1" d="M15.34,76.04c.17.61-.45,1.45.55,1.8q.41-1.25-.55-1.81s0,0,0,0c0,0,0,0,0,0Z"/>
          <path class="cls-1" d="M37.59,66.55c.41.02.84-.09,1.25-.15-.01-.2-.02-.4-.03-.6-.42-.06-.84-.13-1.26-.15-.1,0-.32.23-.3.3.06.22.21.59.34.6Z"/>
          <path class="cls-1" d="M16.24,72.26s-.02-.09-.03-.13c-.48-.83-.55-.82-1.79-.41.44.82,1.2.45,1.82.54Z"/>
          <path class="cls-1" d="M14.22,79.66c.06-.42.13-.84.15-1.26,0-.1-.23-.32-.3-.3-.22.06-.59.21-.6.34-.02.41.09.84.15,1.25.2-.01.4-.02.6-.03Z"/>
          <path class="cls-1" d="M65.11,61.84l.16-.28c-.41-.67-.54-.63-1.69-.25.38.69.98.54,1.53.53Z"/>
          <path class="cls-1" d="M54.73,17.59c-.22.06-.59.21-.6.34-.02.41.09.84.15,1.25.2-.01.4-.02.6-.03.06-.42.13-.84.15-1.26,0-.1-.23-.32-.3-.3Z"/>
          <path class="cls-1" d="M16.12,33.66c-.42-.06-.84-.13-1.26-.15-.1,0-.32.23-.3.3.06.22.21.59.34.6.41.02.84-.09,1.25-.15-.01-.2-.02-.4-.03-.6Z"/>
          <path class="cls-1" d="M34.25,32.07c-.63-.68-1.26-.68-1.9,0,.63.68,1.26.68,1.9,0Z"/>
          <path class="cls-1" d="M27.77,39.23l.03-.74-.58-.17c-.19.08-.38.2-.61.37.46.33.84.55,1.16.54Z"/>
          <path class="cls-1" d="M23.45,38.3c-.95.33-.46,1.1-.54,1.7,0,.04,0,.07-.01.11,0,0,0,0,0,0q.97-.56.55-1.81Z"/>
          <path class="cls-1" d="M15.81,38.22c-.68.63-.68,1.26,0,1.9.68-.63.68-1.26,0-1.9Z"/>
          <path class="cls-1" d="M35.52,39.28c-.51.55-.48,1.08.14,1.85.61-.86.89-1.46-.14-1.85Z"/>
          <path class="cls-1" d="M36.61,28.76c-.68.63-.68,1.26,0,1.9.68-.63.68-1.26,0-1.9Z"/>
          <path class="cls-1" d="M11.55,27.35c-.63-.68-1.26-.68-1.9,0,.63.68,1.26.68,1.9,0Z"/>
          <path class="cls-1" d="M38.58,28.68q.41-1.25-.55-1.81c.17.61-.46,1.46.55,1.81Z"/>
          <path class="cls-1" d="M12.57,30.18c-.86-.61-1.46-.89-1.85.14.55.51,1.08.48,1.85-.14Z"/>
          <path class="cls-1" d="M15.33,26.87c-.56-.97-.56-.97-1.86-.54.45.83,1.22.44,1.85.54,0,0,.01,0,.02,0,0,0,0,0,0,0Z"/>
          <path class="cls-1" d="M55.85,21.81c-.11-.2-.22-.4-.34-.61-.1.1-.31.23-.3.31.05.22.19.42.3.63.11-.1.21-.21.34-.34Z"/>
          <path class="cls-1" d="M3.52,24.98c-.1.1-.27.21-.29.29l.04.09.29.52.3-.3c-.11-.2-.22-.4-.34-.61Z"/>
          <path class="cls-1" d="M54.95,25.54c-.26-.22-.51-.44-.97-.82.21.73.14,1.46.97.82Z"/>
          <path class="cls-1" d="M19.31,24.32s-.04.04-.06.06c.11.2.22.4.34.61.11-.11.31-.23.3-.31-.02-.07-.05-.14-.08-.21l-.16.05-.33-.2Z"/>
          <path class="cls-1" d="M42.82,25.1c-.17-.68-.16-1.28-.93-.68.24.2.48.41.87.74.03.03.06.05.09.08-.01-.05-.02-.09-.04-.14Z"/>
          <path class="cls-1" d="M45.12,24.04c-.1.1-.31.23-.3.31.05.22.19.42.3.63.1-.11.21-.21.34-.34-.11-.2-.22-.4-.34-.61Z"/>
          <path class="cls-1" d="M47.44,17.42c.14.63.17,1.12.9.56-.23-.2-.48-.41-.86-.73-.04-.03-.07-.06-.11-.09.03.09.05.18.07.26Z"/>
          <path class="cls-1" d="M36.44,72.08c.22-.05.42-.19.63-.3-.1-.11-.21-.21-.34-.34-.2.11-.4.22-.61.34.11.11.23.31.31.3Z"/>
          <path class="cls-1" d="M17.14,72.81c-.26-.22-.51-.44-.97-.82.01.05.02.09.03.14.01.04.02.09.03.13.14.62.18,1.12.9.55Z"/>
          <path class="cls-1" d="M12.03,69.42c.11-.21.23-.41.34-.61-.13-.13-.23-.23-.34-.34-.11.21-.25.41-.3.63-.02.08.19.21.3.31Z"/>
          <path class="cls-1" d="M44.91,69.31c-.09.03-.18.05-.26.07-.63.14-1.12.17-.56.9.19-.22.38-.45.68-.79.05-.06.09-.11.15-.17Z"/>
          <path class="cls-1" d="M9.84,75.4c.05.22.19.42.3.63.1-.1.31-.23.3-.31-.05-.22-.19-.42-.3-.63-.11.11-.31.23-.3.31Z"/>
          <path class="cls-1" d="M29.52,75.56c-.21-.11-.41-.23-.61-.34-.13.13-.23.23-.34.34.21.11.41.25.63.3.08.02.21-.19.31-.3Z"/>
          <path class="cls-1" d="M49.42,75.98c-.65.15-1.19.17-.61.91.2-.23.4-.47.72-.85.03-.04.06-.07.1-.12-.07.02-.14.04-.21.05Z"/>
          <path class="cls-1" d="M15.81,62.8c.11-.21.23-.41.34-.61-.13-.13-.23-.23-.34-.34-.11.21-.25.41-.3.63-.02.08.19.21.3.31Z"/>
          <path class="cls-1" d="M26.21,61.85c.1-.11.31-.23.3-.31-.05-.22-.19-.42-.3-.63-.1.11-.21.21-.34.34.11.2.22.4.34.61Z"/>
          <path class="cls-1" d="M42.62,68.13c-.11-.2-.22-.4-.34-.61-.11.1-.31.23-.3.31.05.22.19.42.3.63.11-.11.21-.21.34-.34Z"/>
          <path class="cls-1" d="M12.46,63.74c.14.63.17,1.12.9.56-.23-.2-.47-.4-.85-.72-.04-.03-.07-.06-.12-.1.03.09.05.18.07.26Z"/>
          <path class="cls-1" d="M61.7,64.69c-.14-.62-.17-1.12-.9-.56.25.21.51.43.94.8,0,0,.02.01.03.02-.03-.09-.05-.18-.07-.27Z"/>
          <path class="cls-1" d="M57.84,87.41c.13.61.18,1.08.89.53-.23-.2-.48-.41-.86-.73-.04-.03-.07-.06-.11-.09.03.1.05.2.07.3Z"/>
          <path class="cls-1" d="M29.64,79.27l.57-.03.07-.08c-.05-.05-.1-.1-.16-.16-.16.09-.32.18-.48.27Z"/>
          <path class="cls-1" d="M10.77,77.93c.54-.12.9-.2.39-.86-.2.23-.4.47-.73.85.14-.03.28-.06.43-.1-.04.04-.06.07-.1.11Z"/>
          <path class="cls-1" d="M10.05,78.78c.2-.23.41-.47.73-.85.03-.04.06-.07.1-.11-.15.04-.29.07-.43.1-.54.12-.9.2-.39.86Z"/>
          <path class="cls-1" d="M52.03,84.23c-.05-.22-.19-.42-.3-.63-.11.1-.31.23-.3.31.05.22.19.42.3.63.11-.11.31-.23.3-.31Z"/>
          <path class="cls-1" d="M50.79,81.71c-.11.21-.23.41-.34.61.13.13.23.23.34.34.11-.21.25-.41.3-.63.02-.08-.19-.21-.3-.31Z"/>
          <path class="cls-1" d="M56.55,38.31c-.22.26-.44.51-.82.97.04-.01.09-.02.13-.03.05-.01.1-.03.16-.04.62-.14,1.1-.18.54-.9Z"/>
          <path class="cls-1" d="M61.66,39.64c.21.11.41.23.61.34.13-.13.23-.23.34-.34-.21-.11-.41-.25-.63-.3-.08-.02-.21.19-.31.3Z"/>
          <path class="cls-1" d="M60.54,39.8c-.05-.22-.19-.42-.3-.63-.11.11-.31.23-.3.31.05.22.19.42.3.63.1-.1.31-.23.3-.31Z"/>
          <path class="cls-1" d="M16.37,36.71c.23.2.47.4.85.73-.03-.14-.06-.28-.1-.43.04.04.07.06.11.1-.11-.54-.2-.9-.86-.39Z"/>
          <path class="cls-1" d="M44.17,36.33c-.11.1-.31.23-.3.31,0,.03.02.05.03.08l.3-.33s-.02-.04-.03-.06Z"/>
          <path class="cls-1" d="M17.22,37.44c.12.54.21.9.86.39-.23-.2-.47-.4-.85-.73-.04-.03-.07-.06-.11-.1.04.15.07.29.1.43Z"/>
          <path class="cls-1" d="M63.08,42.94c-.1.21-.25.41-.3.63-.02.08.19.21.3.31.11-.21.23-.41.34-.61-.13-.13-.23-.23-.34-.34Z"/>
          <path class="cls-1" d="M71.11,43.42c.11.11.21.21.34.34.2-.11.4-.22.61-.34-.1-.11-.23-.31-.31-.3-.22.05-.42.19-.63.3Z"/>
          <path class="cls-1" d="M74.9,44.36c-.21-.11-.41-.25-.63-.3-.08-.02-.21.19-.31.3.21.11.41.23.61.34.13-.13.23-.23.34-.34Z"/>
          <path class="cls-1" d="M73.01,41.53c-.21-.11-.41-.23-.61-.34-.13.13-.23.23-.34.34.21.1.41.25.63.3.08.02.21-.19.31-.3Z"/>
          <path class="cls-1" d="M77.81,41.16l-.18-.13c-.58.12-.99.19-.46.88.18-.21.37-.43.64-.75Z"/>
          <path class="cls-1" d="M31.88,30.65c.1-.11.31-.23.3-.31-.05-.22-.19-.42-.3-.63-.1.11-.21.21-.34.34.11.2.22.4.34.61Z"/>
          <path class="cls-1" d="M39.6,29.9c-.57-.13-.66.29-.63.75h.95c-.1-.26-.16-.71-.32-.75Z"/>
          <path class="cls-1" d="M47.52,30.65c-.14-.62-.17-1.12-.9-.56.23.2.48.41.86.73.04.03.07.06.11.09-.03-.09-.05-.18-.07-.27Z"/>
          <path class="cls-1" d="M19.12,31.13c-.21-.11-.41-.23-.61-.34-.13.13-.23.23-.34.34.21.1.41.25.63.3.08.02.21-.19.31-.3Z"/>
          <path class="cls-1" d="M34.41,35.39c.54-.12.9-.21.39-.86-.2.23-.41.47-.73.85.14-.03.28-.06.43-.1-.04.04-.06.07-.1.11Z"/>
          <path class="cls-1" d="M19.29,33.8c.05.22.19.42.3.63.11-.11.21-.21.34-.34-.11-.2-.22-.4-.34-.61-.1.11-.31.23-.3.31Z"/>
          <path class="cls-1" d="M34.41,35.39s.06-.07.1-.11c-.15.04-.29.07-.43.1-.54.12-.9.2-.39.86.2-.23.4-.47.73-.85Z"/>
          <path class="cls-1" d="M25.73,32.07c-.21-.11-.41-.23-.61-.34-.13.13-.23.23-.34.34.21.11.41.25.63.3.08.02.21-.19.31-.3Z"/>
          <path class="cls-1" d="M40.72,54.9c-.1-.17-.2-.35-.29-.53l-.17.03c-.09.08-.18.15-.17.2.05.22.19.42.3.63.1-.11.21-.21.34-.34Z"/>
          <path class="cls-1" d="M55.24,54.61c-.13.57.29.66.75.63v-.95c-.26.1-.71.16-.75.32Z"/>
          <path class="cls-1" d="M73.01,52.36c-.63.14-1.12.17-.56.9.2-.23.41-.48.73-.86h-.17s0-.03,0-.04Z"/>
          <path class="cls-1" d="M22.9,58.54c-.21-.11-.41-.23-.61-.34-.13.13-.23.23-.34.34.21.1.41.25.63.3.08.02.21-.19.31-.3Z"/>
          <path class="cls-1" d="M64.63,58.41c.11.2.22.4.34.61.1-.11.31-.23.3-.31-.05-.22-.19-.42-.3-.63-.11.11-.21.21-.34.34Z"/>
          <path class="cls-1" d="M62.61,59.49c.21.1.41.25.63.3.08.02.21-.19.31-.3-.21-.11-.41-.23-.61-.34-.13.13-.23.23-.34.34Z"/>
          <path class="cls-1" d="M67.81,57.13c.11-.1.31-.23.3-.31-.05-.22-.19-.42-.3-.63-.11.11-.31.23-.3.31.05.22.19.42.3.63Z"/>
          <path class="cls-1" d="M21.01,46.77c.63-.14,1.12-.17.56-.9-.2.23-.4.47-.72.85-.03.04-.06.07-.1.12.09-.03.18-.05.26-.07Z"/>
          <path class="cls-1" d="M26.64,45.8c.14.62.18,1.1.9.54-.17-.15-.35-.3-.59-.5-.11-.09-.23-.2-.38-.32.03.1.05.19.07.28Z"/>
          <path class="cls-1" d="M53.11,45.78c.14.63.17,1.12.9.56-.23-.2-.47-.4-.84-.72-.04-.04-.08-.07-.12-.11.03.09.05.18.07.26Z"/>
          <path class="cls-1" d="M62.78,46.42c-.02.08.19.21.3.31.11-.21.23-.41.34-.61-.13-.13-.23-.23-.34-.34-.1.21-.25.41-.3.63Z"/>
          <path class="cls-1" d="M79.15,50.51c.11-.21.23-.41.34-.61-.13-.13-.23-.23-.34-.34-.1.21-.25.41-.3.63-.02.08.19.21.3.31Z"/>
          <path class="cls-1" d="M73.63,51.65c-.55-.12-.65.27-.63.71,0,.01,0,.03,0,.04h.95c-.1-.26-.16-.71-.32-.75Z"/>
          <path class="cls-1" d="M77.74,52.44c.63-.14,1.12-.17.56-.9-.2.23-.4.47-.72.84-.04.04-.07.08-.11.12.09-.03.18-.05.27-.07Z"/>
          <path class="cls-1" d="M58.78,48.61s0,0,0,0c.14.63.17,1.12.9.56-.2-.17-.41-.35-.72-.61h-.12s-.07.04-.07.04Z"/>
          <path class="cls-1" d="M24.97,50.2c-.02.08.19.21.3.31.11-.21.23-.41.34-.61-.13-.13-.23-.23-.34-.34-.1.21-.25.41-.3.63Z"/>
        </g>
      </g>
    </g>
  </g>
</svg>