<?xml version="1.0" encoding="UTF-8"?>
<svg id="_レイヤー_2" data-name="レイヤー 2" xmlns="http://www.w3.org/2000/svg" viewBox="0 0 145.11 142.83">
  <defs>
    <style>
      .cls-1 {
        fill: #fff;
      }

      .cls-2 {
        fill: none;
      }

      .cls-3 {
        fill: #efdfcd;
        fill-rule: evenodd;
      }
    </style>
  </defs>
  <g id="_レイヤー_1-2" data-name="レイヤー 1">
    <g id="stars">
      <g>
        <polyline class="cls-3" points="68.92 5.2 68.7 6.55 69.05 7.62 68.57 8.76 69.28 9.81 69.12 10.92 69.17 12.02 68.7 13.28 68.77 14.53 68.79 15.78 68.98 17.04 69.04 18.29 69.22 19.56 69.14 20.81 69.34 22.07 69.26 23.32 69.24 24.57 68.36 25.75 68.69 26.97 68.67 28.18 68.43 29.38 68.28 30.59 69 31.82 68.46 33.02 68.47 34.23 67.94 35.42 68.15 36.64 67.86 37.83 68.01 39.06 68.22 40.29 68.4 41.53 67.96 42.7 67.4 43.85 67.08 45.03 66.97 46.23 67 47.46 66.91 48.68 66.41 49.81 66.44 51.06 66.05 52.21 65.23 53.23 64.81 54.35 64.99 55.71 64.45 56.8 64.28 58.06 63.48 58.99 62.87 59.99 61.85 60.67 61.54 61.93 60.8 62.84 59.46 63.18 58.64 63.99 57.9 64.76 57.1 65.74 55.89 65.78 54.72 65.94 53.64 66.42 52.57 66.95 51.39 67.2 50.18 67.32 49.02 67.62 47.75 67.41 46.73 68.38 45.53 68.55 44.31 68.58 43.1 68.63 41.95 69.03 40.82 69.55 39.58 69.41 38.44 69.93 37.15 69.34 35.96 69.51 34.76 69.52 33.67 70.61 32.39 69.88 31.2 70.07 30.07 70.84 28.88 71.04 27.67 70.98 26.43 70.55 25.23 70.64 24.02 70.48 22.84 70.87 21.68 71.51 20.45 71.09 19.27 71.45 18.04 70.81 16.86 71.5 15.66 71.56 14.46 71.65 13.26 71.62 12.06 71.5 10.86 71.68 9.65 71.27 8.46 71.76 7.25 71.93 6.05 71.16 4.85 71.65 3.65 71.23 2.45 71.6 1.27 71.88 0 72.51 .31 73.93 .38 75.14 1.38 75.83 2.48 75.92 3.63 76.5 4.78 75.86 5.93 76.46 7.08 76.28 8.18 76.36 9.04 76.13 10.01 76.62 11.28 76.41 12.56 76.29 13.81 75.88 15.09 75.62 16.26 75.68 17.42 75.61 18.58 76 19.76 75.39 20.89 76.08 22.07 75.74 23.2 76.25 24.41 75.55 25.56 75.84 26.72 75.82 27.87 75.95 29.08 76.2 30.27 76.55 31.49 76.55 32.74 76.25 33.92 76.75 35.09 77.22 36.36 76.86 37.49 77.58 38.78 77.18 40.02 77.17 41.23 77.34 42.43 77.58 43.56 78.17 44.84 78.04 45.84 79.08 47.21 78.69 48.29 79.33 49.49 79.59 50.5 80.42 51.56 81.04 52.86 81.04 53.99 81.51 55.16 81.86 56.16 82.61 57.22 83.2 58.2 83.94 59.42 84.26 60.48 84.86 61.45 85.6 62.33 86.47 63.38 87.09 64.41 87.75 65.01 88.88 66.51 89.09 66.9 90.36 67.53 91.39 68.31 92.32 68.41 93.62 69.29 94.53 69.6 95.69 69.77 96.89 69.99 98.06 70.73 99.13 70.89 100.33 71.46 101.48 71.26 102.72 71.14 103.93 71.09 105.14 70.88 106.35 71.28 107.54 71.42 108.75 71.63 109.97 71.47 111.17 71.01 112.36 70.75 113.55 71.2 114.79 70.92 115.98 70.44 117.16 71 118.41 70.71 119.6 71.14 120.83 70.69 122.02 70.58 123.22 70.54 124.42 70.65 125.63 70.41 126.83 70.78 128.02 70.52 129.23 70.59 130.44 70.81 131.64 70.94 132.84 71.17 134.04 70.88 135.27 70.55 136.49 70.67 137.69 71.36 138.9 70.85 140.11 70.96 141.32 71.23 142.36 71.66 142.4 73.03 142.83 73.47 141.45 73.92 140.47 73.87 139.25 74.24 138.07 74.38 136.86 74.45 135.65 74.83 134.46 75.11 133.27 75.06 132.05 75.07 130.83 74.55 129.58 75.32 128.42 74.77 127.17 75.09 125.97 74.99 124.75 75.84 123.6 75.66 122.37 75.59 121.15 75.77 119.94 75.49 118.7 75.46 117.48 75.71 116.29 76.02 115.09 76.38 113.91 76.5 112.7 76.56 111.49 75.99 110.22 76.38 109.03 77.02 107.87 76.39 106.6 76.44 105.38 76.68 104.19 77.25 103.02 77.72 101.84 77.48 100.6 77.45 99.38 77.8 98.19 77.23 96.92 77.87 95.76 78.43 94.6 78.32 93.38 78.45 92.14 79.23 91.16 79.9 90.15 80.94 89.48 81.34 88.11 82.47 87.53 83.24 86.49 84.3 85.84 85.71 85.76 86.64 84.94 87.43 83.96 88.81 83.98 89.79 83.31 90.58 82.23 91.86 82.17 92.93 81.67 93.9 80.87 95.06 80.58 96.32 80.6 97.3 79.74 98.62 80.04 99.73 79.65 100.89 79.42 101.98 78.84 103.1 78.39 104.25 78.03 105.54 78.55 106.7 78.28 107.78 77.48 109.04 77.93 110.16 77.31 111.41 77.81 112.52 76.92 113.72 76.97 114.89 76.68 116.08 76.7 117.28 76.73 118.45 76.58 119.63 76.47 120.84 76.77 122.05 76.67 123.23 76.18 124.44 76.01 125.65 76.07 126.86 75.9 128.08 76.02 129.3 76.59 130.51 76.36 131.71 76.21 132.93 76.63 134.16 75.89 135.43 76.13 136.33 76.84 137.63 76.82 138.73 76.94 139.83 76.79 140.94 76.49 142.04 76.35 143.14 76.33 144.52 76.59 145.11 75.33 145.05 74.19 144.89 73.18 144.22 72.32 143.14 71.97 141.93 71.75 140.73 71.92 139.52 71.66 138.32 71.66 137.11 71.5 135.9 71.82 134.71 71.23 133.5 71.56 132.29 71.46 131.08 71.8 129.89 71.31 128.68 71.22 127.47 71.32 126.24 71.87 125.07 71.1 123.86 71.08 122.63 71.38 121.42 71.43 120.24 71.07 119.03 71.05 117.87 70.45 116.69 70.21 115.45 70.46 114.19 70.75 113.08 69.94 111.86 70 110.6 70.22 109.45 69.8 108.3 69.32 107.13 69.03 105.99 68.62 104.8 68.44 103.63 68.16 102.39 68.17 101.17 68.07 100.02 67.7 98.77 67.7 97.74 66.91 96.58 66.57 95.32 66.56 94.36 65.63 93.23 65.18 92 65.01 90.66 65.09 89.74 64.12 88.52 63.87 87.66 62.85 86.17 63.06 85.42 61.91 84.18 61.59 83.36 60.63 82.6 59.64 81.59 58.97 80.73 58.13 80.09 57.1 79.36 56.16 78.61 55.22 77.53 54.41 77.63 53.04 77.34 51.87 76.92 50.76 75.96 49.78 76.11 48.52 75.6 47.41 75.24 46.26 75.3 45.04 75.61 43.78 75.19 42.65 75.05 41.47 74.32 40.36 74.9 39.1 73.92 38 73.86 36.81 74.31 35.57 73.85 34.41 73.99 33.21 73.75 32.03 74.34 30.81 74.07 29.63 73.85 28.45 73.87 27.26 73.36 26.08 73.34 24.89 73.75 23.69 73.48 22.5 74.22 21.31 73.71 20.12 73.34 18.93 74.08 17.74 73.45 16.55 73.62 15.36 73.47 14.17 73.89 12.98 73.82 11.79 73.98 10.6 73.43 9.41 74.09 8.21 73.6 7.03 73.29 5.85 73.81 4.64 74.08 3.44 73.59 2.27 73.57 .86 72.22 .42 71.09 .13 69.67 0 69.27 1.39 68.39 2.52 68.48 3.88 69.28 5.21"/>
        <g>
          <path class="cls-2" d="M85.05,63.14c.08-.1.02-.05,0,0h0Z"/>
          <path class="cls-1" d="M73.51,73.73c-.57-1-1.14-2-1.71-2.99.25-.28.53-.61.98-1.13-1.05-.16-1.92-.29-2.96-.45,0-.67.11-1.3-.03-1.87-.12-.49-.53-.91-.83-1.38.67-.24,1.22-.44,1.74-.63-.49-1.36-1.88-1.4-2.68-2.03-.13-.52-.24-.94-.34-1.32-.43-.05-.73-.08-.96-.1-.61.45-1.19.87-2.14,1.56,1.07.22,1.5.31,2.01.41.38.77.79,1.63,1.18,2.43-.34.34-.56.56-.82.82.66.31,1.31.62,2.17,1.02-.4.69-.74,1.29-1.18,2.05.93.14,1.8.27,2.94.44-.82.92-1.49,1.66-2.17,2.41.43.73.77,1.33,1.14,1.96.02,0,.03,0,.05-.02-.01.02-.02.03-.03.05.02.03.03.06.05.09.69,0,1.48,0,2.26,0,.45-.45.89-.89,1.32-1.32Z"/>
          <path class="cls-1" d="M77.8,98.19l-.09-.21c-.1.01-.19.03-.3.04.04.38.07.77.11,1.14l.29-.97Z"/>
          <path class="cls-1" d="M66.49,59.95c.33.3.66.61.99.92h1.35c-.02-.09-.04-.18-.07-.26.11.1.22.18.31.26h.08c-.8-.92-1.49-1.71-2.13-2.45v-2.74c.32-.39.59-.71.97-1.17-.59-.13-1.02-.23-1.4-.31-.39.36-.73.67-1.05.96-.24-.22-.48-.43-.73-.64l.15,1.19-.54,1.09v.1c.2.21.41.43.68.69-.29.13-.56.26-.84.39v.09s-.81.93-.81.93l-.26.43v.07c.85.41,1.7.83,2.51,1.23.31-.31.53-.53.77-.77Z"/>
          <path class="cls-1" d="M75.93,87.34c.43-.37.87-.75,1.46-1.25,0-.16,0-.62,0-1.09.31-.33.62-.66.95-1.02-.65-.31-1.29-.6-1.87-.87-.18-.82.31-1.65-.44-2.33-.31.27-.63.54-1.05.9-.6.35-1.71-.67-2.24.63.55.2,1.09.39,1.63.58q.25,2.06-.18,2.46c-.5.1-.93.18-1.56.31.11.64.2,1.17.29,1.67h3.02Z"/>
          <path class="cls-1" d="M9.79,71.32c-.3.28-.62.59-.98.93-.08-.18-.16-.35-.24-.53l-.11.05-1.2.18-.77-.49v.28c.31.33.62.66.92.98-.3.32-.59.65-.89.97.46.46.9.9,1.36,1.36.32-.3.65-.59.99-.91.69-.17,1.5.29,2.17-.29.15-.74.42-1.49,0-2.18l-.18.03-1.07-.36Z"/>
          <path class="cls-1" d="M72.57,15.87c-.45-.45-.88-.88-1.32-1.32-1.05.67-1.43,1.81-1.97,2.84-.1,0-.19,0-.28,0l.04.91v.02c1.03,0,2.06,0,3.09,0,.12,0,.23-.17.44-.35v-2.1Z"/>
          <path class="cls-1" d="M85.42,61.91l-.47-.12c-.13,0-.26,0-.36.05-.38.23-.69.58-1.02.89-.23.21-.55.4-.63.66-.1.31-.57.2-.74.45.01.04.02.08.03.12-.02-.02-.04-.04-.07-.06-.04.1-.04.25.02.48.75.12,1.6.26,2.38.39.35.28.66.51.95.74,1.13-1.17-.14-1.62-.46-2.33.34-.22.67-.3.99-.33l-.62-.95ZM85.05,63.14s.08-.1,0,0h0Z"/>
          <path class="cls-1" d="M79.07,62.74c.97.15,1.18-.89,1.68-.86.95.04,1.4-.52,1.91-1.08.14-.15.14-.42.25-.76h-3.25c-.21.21-.43.43-.84.84-.79-.81-1.44-1.51-2.38-.37,1.08.59,1.52,1.95,2.64,2.23Z"/>
          <path class="cls-1" d="M31.07,75.1c.34.51.61.93.88,1.34l.79-.19.11.05c.35-.68.63-1.23.91-1.79-.65-.47-1-1.83-2.7-1.05v1.64Z"/>
          <path class="cls-1" d="M56.42,75.05c-.86.33-1.17,1.29-2.16.92-.28-.25-.61-.55-.84-.76-.56.38-1.12.76-1.83,1.24.68.28.95.5,1.2.48,1.19-.08,2.4.26,3.78-.25-.05-.52-.1-1.04-.15-1.63Z"/>
          <path class="cls-1" d="M13.38,76.02l.43-.14.96-.2c-.06-.17-.13-.37-.23-.63-1.19,0-2.39-.04-3.59.02-.45.02-.79.36-.69.92,1.04,0,2.08-.05,3.11.02Z"/>
          <path class="cls-1" d="M78.07,93.97c.38-1.34.44-2.5-.08-3.95-.8.51-1.77-.35-2.56.73.58.19,1.12.37,1.84.6.41.97-.42,2.01.8,2.61Z"/>
          <path class="cls-1" d="M71.25,42.91c.11-.11.33-.27.31-.31-.41-.85-.84-1.69-1.3-2.58-.41.08-.83.17-1.28.26.49.96.92,1.8,1.35,2.64.32,0,.62,0,.93,0Z"/>
          <path class="cls-1" d="M119.46,74.14c-.3.42-.74,1.03-1.21,1.69.59.23,1.43.27,2.61-.06.1-1.09-.01-1.78-1.4-1.63Z"/>
          <path class="cls-1" d="M74.46,78.84s.02-.04.04-.07c-.02-.07-.03-.13-.05-.2.04.03.07.06.11.09.28-.51.54-.99.83-1.52-1.03-.2-1.88-.51-2.78.32.12.42.26.92.38,1.37h1.48Z"/>
          <path class="cls-1" d="M49.47,75.75c-.23.64-.37,1.04-.56,1.56.58.47,1.15.93,1.89,1.53,0,0,.35.1.59-.02.5-.26.37-.58,0-.95-.63-.63-1.2-1.31-1.92-2.12Z"/>
          <path class="cls-1" d="M77.8,89.25c.45-.08.98-.16,1.78-.3-.49-1.01-.86-1.76-1.22-2.51-.09.02-.19.04-.28.07.03-.04.06-.07.09-.11h-.77c.11.88-.26,1.82.4,2.85Z"/>
          <path class="cls-1" d="M80.44,69.69c-.11.7-.11,1.42-.12,2.13,0,.11.2.21.36.37.36-.03.77-.06,1.84-.15-.6-1.19-.97-1.94-1.38-2.65-.02-.04-.69.15-.71.29Z"/>
          <path class="cls-1" d="M43.37,68.62h-.27s-1.15.4-1.15.4l-1.13.52-.3-.03v.34c.11.11.27.33.31.31.85-.41,1.69-.84,2.58-1.3-.02-.08-.03-.16-.05-.24Z"/>
          <path class="cls-1" d="M109.11,77.9l1.06-.59,1.09.44c.11-.12.21-.22.33-.35-1.25-.38-1.44-.42-2.48.5Z"/>
          <path class="cls-1" d="M122.7,74.34c.14.66.25,1.18.35,1.66h1.15c.67-.64.69-1.27-.08-1.94-.37.08-.8.16-1.41.29Z"/>
          <path class="cls-1" d="M119.26,71.06c.43.35.67.96,1.44,1.03.06-.29.11-.56.16-.83l-.62-.19h-.98Z"/>
          <path class="cls-1" d="M47.86,69.87q2.38.47,4.01-.27c-1.24-.06-2.58-.57-4.01.27Z"/>
          <path class="cls-1" d="M74.97,52.08c-.45,2.23-.44,2.22.21,2.98.51-.83.47-1.67-.21-2.98Z"/>
          <path class="cls-1" d="M73.08,18.99c-.45,2.22-.44,2.22.21,2.98.51-.83.47-1.67-.21-2.98Z"/>
          <path class="cls-1" d="M39.56,73.64c.96.79,1.91.79,2.87,0-.96-.79-1.91-.79-2.87,0Z"/>
          <path class="cls-1" d="M101,73.63c.08.42.19.94.44,2.2.31-1.44,1.3-1.52,1.32-2.38-.56-.43-1.09-.46-1.76.18Z"/>
          <path class="cls-1" d="M132.29,71.46h-.05c.1.27.25.52.46.77.19-.23.34-.47.44-.7l-.84-.07Z"/>
          <path class="cls-1" d="M96.59,68.22c-.13.71-.23,1.23-.43,2.28,1.04-.19,1.45-.27,1.88-.35-.14-.89-.87-1.17-1.46-1.93Z"/>
          <path class="cls-1" d="M55.18,70.3c-.42.08-.94.19-2.2.44,1.43.31,1.52,1.31,2.38,1.32.43-.56.46-1.09-.18-1.76Z"/>
          <path class="cls-1" d="M104.57,70.4c-.75.22-1.17.8-1.54,1.46.25.12.51.36.74.33.37-.05.73-.27,1.04-.39,0-.57,0-1,0-1.43-.09.02-.17.04-.26.07,0-.01.02-.02.03-.03Z"/>
          <path class="cls-1" d="M71.73,94.44c-.89-.74-1.78-.78-2.67-.14l.23.23.06.23c.8.44,1.58.33,2.38-.32Z"/>
          <path class="cls-1" d="M74.97,102.48c.43-.07.95-.15,1.32-.2-.41-.65-.77-1.24-1.15-1.85-.76.82-.72,1.34-.17,2.05Z"/>
          <path class="cls-1" d="M71.15,11.71c-.43,0-.86,0-1.28,0,.02.09.04.17.07.26-.01,0-.02-.02-.03-.03.22.75.81,1.17,1.46,1.54.55-.67.6-1.28-.22-1.78Z"/>
          <path class="cls-1" d="M77,58.9c.35-.54,1.13-.77,1.14-1.72-.53-.04-1.06-.08-1.66-.12.02.1.04.19.07.29-.06-.05-.11-.1-.17-.14.19.61-.3,1.36.62,1.69Z"/>
          <path class="cls-1" d="M72.36,98.53c.47-.84.47-1.67-.25-2.95-.43,2.28-.41,2.28.25,2.95Z"/>
          <path class="cls-1" d="M123.3,71.22c.31.13.63.08,1.01-.13h-.44s-.57.13-.57.13Z"/>
          <path class="cls-1" d="M32.18,70.65c.06.22.21.59.34.6.41.02.84-.09,1.25-.15,0-.18-.02-.37-.03-.55l-.07.07-.3-.17c-.3-.04-.59-.09-.89-.1-.1,0-.32.23-.3.3Z"/>
          <path class="cls-1" d="M72.19,91.13c-.68.63-.68,1.26,0,1.9.68-.63.68-1.26,0-1.9Z"/>
          <path class="cls-1" d="M69.86,74.94c-.66.31-1.49-.29-1.84.67,1.23.41,1.26.41,1.86-.64.01-.02.02-.03.03-.05-.01,0-.03,0-.05.02Z"/>
          <path class="cls-1" d="M143.62,75.08c.02.08.04.16.06.23-.03-.03-.05-.05-.08-.07.02.38-.14.82,0,1.16l.64.12c.29-.9.21-.97-.61-1.45Z"/>
          <path class="cls-1" d="M29.08,76.2l1.02.3s.02-.01.02-.02c-.49-.52-.97-.64-1.46-.36l.41.08Z"/>
          <path class="cls-1" d="M35.87,76.47c-.86-.61-1.46-.89-1.85.14.55.51,1.08.48,1.85-.14Z"/>
          <path class="cls-1" d="M66.99,76.47c-.63-.68-1.26-.68-1.9,0,.63.68,1.26.68,1.9,0Z"/>
          <path class="cls-1" d="M10.27,76.58v-.58c-.4-.08-.66.08-.81.34l.55.28.26-.04Z"/>
          <path class="cls-1" d="M69.79,38.18c-.02-.09-.04-.18-.07-.26.04.03.07.06.11.09v-.73c-.09.02-.17.04-.26.07.03-.04.06-.07.09-.11-.41,0-.82-.01-1.22.02-.12,0-.33.22-.32.29.06.23.18.59.32.61.44.08.89.03,1.34.03Z"/>
          <path class="cls-1" d="M81.17,69.38q.97-.56.55-1.81c-1.01.35-.38,1.2-.55,1.81Z"/>
          <path class="cls-1" d="M47.21,67.96s-.02-.01-.03-.02l-.13.12c.05-.04.1-.06.16-.1Z"/>
          <path class="cls-1" d="M46.19,68.46s.03,0,.05,0h-.05Z"/>
          <path class="cls-1" d="M78.81,64.65c-.68.63-.68,1.26,0,1.9.68-.63.68-1.26,0-1.9Z"/>
          <path class="cls-1" d="M117,70.27l-.31-.06-.12.02s.06.06.09.06c.11,0,.22-.01.34-.02Z"/>
          <path class="cls-1" d="M75.03,108.15c.68-.63.68-1.26,0-1.9-.68.63-.68,1.26,0,1.9Z"/>
          <path class="cls-1" d="M53.26,69.37c.12,0,.33-.22.32-.29-.06-.23-.18-.59-.32-.61-.44-.08-.89-.03-1.34-.03.02.09.04.18.07.26-.04-.03-.07-.06-.11-.09v.77c.46,0,.93.02,1.39-.01Z"/>
          <path class="cls-1" d="M71.25,84.51c.68-.63.68-1.26,0-1.9-.68.63-.68,1.26,0,1.9Z"/>
          <path class="cls-1" d="M56.15,81.64c.41.02.84-.09,1.25-.15-.01-.2-.02-.4-.03-.6-.42-.06-.84-.13-1.26-.15-.1,0-.32.23-.3.3.06.22.21.59.34.6Z"/>
          <path class="cls-1" d="M69.83,88.29s0,0,0,0c0,0,0,0,0,0-.16-.61.45-1.45-.55-1.8q-.41,1.25.55,1.81Z"/>
          <path class="cls-1" d="M79.76,90.18c-.34.32-.51.63-.51.95l.58-.87s-.05-.05-.07-.08Z"/>
          <path class="cls-1" d="M69.83,88.29c.56.97.56.97,1.86.54-.45-.83-1.23-.44-1.86-.55,0,0,0,0,0,0,0,0,0,0,0,0Z"/>
          <path class="cls-1" d="M78.36,86.44c.62-.14,1.1-.18.54-.9-.2.23-.41.48-.73.86-.03.04-.06.07-.09.11.1-.03.19-.05.28-.07Z"/>
          <path class="cls-1" d="M71.54,124.85c-.05-.22-.19-.42-.3-.63-.1.11-.31.23-.3.31.05.22.19.42.3.63.1-.1.31-.23.3-.31Z"/>
          <path class="cls-1" d="M71.25,135.56c-.1.21-.25.41-.3.63-.02.08.19.21.3.31.11-.21.23-.41.34-.61-.13-.13-.23-.23-.34-.34Z"/>
          <path class="cls-1" d="M73.47,131.44c-.11-.2-.22-.4-.34-.61-.1.1-.31.23-.3.31.05.22.19.42.3.63.11-.1.21-.21.34-.34Z"/>
          <path class="cls-1" d="M72.84,105.62c.05.22.19.42.3.63.1-.11.21-.21.34-.34-.11-.2-.22-.4-.34-.61-.1.1-.31.23-.3.31Z"/>
          <path class="cls-1" d="M75.64,115.1c.08.15.17.31.26.46l.12-.47.05-.16c-.03-.06-.06-.11-.09-.17-.1.11-.21.21-.34.34Z"/>
          <path class="cls-1" d="M69.87,11.71c-.13-.58-.18-1.03-.75-.66v.24c.21.17.44.37.78.66.01,0,.02.02.03.03-.03-.09-.05-.18-.07-.26Z"/>
          <path class="cls-1" d="M82.2,63.85c-.17-.69-.16-1.31-.94-.7.24.21.49.42.9.77.02.02.04.04.07.06-.01-.04-.02-.08-.03-.12Z"/>
          <path class="cls-1" d="M88.6,64.32c-.11-.2-.22-.4-.34-.61-.11.1-.31.23-.3.31.05.22.19.42.3.63.11-.11.21-.21.34-.34Z"/>
          <path class="cls-1" d="M68.84,60.87c.14.63.17,1.12.9.56-.19-.16-.38-.33-.66-.56-.09-.08-.19-.17-.31-.26.03.09.05.18.07.26Z"/>
          <path class="cls-1" d="M76.62,66.86c.05.22.19.42.3.63.11-.11.21-.21.34-.34-.11-.2-.22-.4-.34-.61-.1.1-.31.23-.3.31Z"/>
          <path class="cls-1" d="M51.91,68.44c-.14-.63-.17-1.12-.9-.56.23.2.48.41.86.73.04.03.07.06.11.09-.03-.09-.05-.18-.07-.26Z"/>
          <path class="cls-1" d="M62.13,68.1c-.11-.2-.22-.4-.34-.61-.11.11-.31.23-.3.31.05.22.19.42.3.63.1-.11.21-.21.34-.34Z"/>
          <path class="cls-1" d="M63.07,65.26c-.11-.2-.22-.4-.34-.61-.1.1-.31.23-.3.31.05.22.19.42.3.63.11-.11.21-.21.34-.34Z"/>
          <path class="cls-1" d="M77.26,54.86c-.11-.2-.22-.4-.34-.61-.1.11-.31.23-.3.31.05.22.19.42.3.63.11-.11.21-.21.34-.34Z"/>
          <path class="cls-1" d="M66.99,52.84c-.21-.11-.41-.23-.61-.34-.13.13-.23.23-.34.34.21.1.41.25.63.3.08.02.21-.19.31-.3Z"/>
          <path class="cls-1" d="M76.48,57.06c-.13-.61-.18-1.08-.89-.53.22.19.45.39.8.68.06.05.11.09.17.14-.03-.1-.05-.2-.07-.29Z"/>
          <path class="cls-1" d="M74.5,78.77c.15.66.17,1.21.92.63-.23-.2-.48-.41-.86-.73-.04-.03-.07-.06-.11-.09.02.07.03.13.05.2Z"/>
          <path class="cls-1" d="M104.99,77.26c.05.22.19.42.3.63.11-.1.31-.23.3-.31-.05-.22-.19-.42-.3-.63-.1.11-.31.23-.3.31Z"/>
          <path class="cls-1" d="M107.73,77.33c.08.07.17.15.26.23l.61.22c-.12-.57-.2-.97-.88-.45Z"/>
          <path class="cls-1" d="M54.71,78.67c.03.14.06.28.1.43-.04-.04-.07-.06-.11-.1.12.54.2.9.86.39-.23-.2-.47-.41-.85-.73Z"/>
          <path class="cls-1" d="M57.36,79.47c-.05-.22-.19-.42-.3-.63-.11.11-.31.23-.3.31.05.22.19.42.3.63.11-.11.31-.23.3-.31Z"/>
          <path class="cls-1" d="M54.71,78.67c-.12-.54-.2-.9-.86-.39.23.2.47.4.85.73.04.03.07.06.11.1-.04-.15-.07-.29-.1-.43Z"/>
          <path class="cls-1" d="M68.55,83.7c-.2.11-.4.22-.61.34.1.11.23.31.31.3.22-.05.42-.19.63-.3-.1-.11-.21-.21-.34-.34Z"/>
          <path class="cls-1" d="M29.35,71.58c.05.22.19.42.3.63.1-.11.31-.23.3-.31-.05-.22-.19-.42-.3-.63-.11.11-.31.23-.3.31Z"/>
          <path class="cls-1" d="M44.47,71.28c.54-.12.9-.2.39-.86-.2.23-.4.47-.73.85.14-.03.28-.06.43-.1-.04.04-.06.07-.1.11Z"/>
          <path class="cls-1" d="M113.5,70.64c.05.22.19.42.3.63.11-.1.21-.21.34-.34-.07-.13-.15-.26-.22-.4l-.2-.14c-.11.09-.23.18-.22.24Z"/>
          <path class="cls-1" d="M13.74,72.99c.08.02.21-.19.31-.3-.21-.11-.41-.23-.61-.34-.13.13-.23.23-.34.34.21.11.41.25.63.3Z"/>
          <path class="cls-1" d="M20.67,72.69c.21.11.41.23.61.34.13-.13.23-.23.34-.34-.21-.11-.41-.25-.63-.3-.08-.02-.21.19-.31.3Z"/>
          <path class="cls-1" d="M64.16,72.69c.1.11.23.31.31.3.22-.05.42-.19.63-.3-.1-.11-.21-.21-.34-.34-.2.11-.4.22-.61.34Z"/>
          <path class="cls-1" d="M107.96,72.99c.22-.05.42-.19.63-.3-.1-.11-.21-.21-.34-.34-.2.11-.4.22-.61.34.1.11.23.31.31.3Z"/>
          <path class="cls-1" d="M44.47,71.28s.06-.07.1-.11c-.15.04-.29.07-.43.1-.54.12-.9.2-.39.86.2-.23.4-.47.73-.85Z"/>
          <path class="cls-1" d="M126.38,71.91s-.02-.06-.03-.09l-.11.05-.45-.29s0,0,0,0c.05.22.19.42.3.63.1-.11.31-.23.3-.31Z"/>
          <path class="cls-1" d="M100.89,68.77c-.13-.13-.23-.23-.34-.34-.1.21-.25.41-.3.63-.02.08.19.21.3.31.11-.21.23-.41.34-.61Z"/>
          <path class="cls-1" d="M105.37,69.47c-.21.25-.43.5-.8.93,0,.01-.02.02-.03.03.09-.03.18-.05.26-.07.63-.14,1.12-.17.56-.9Z"/>
          <path class="cls-1" d="M107.47,69.69c.02-.08-.19-.21-.3-.31-.11.21-.23.41-.34.61.13.13.23.23.34.34.11-.21.25-.41.3-.63Z"/>
          <path class="cls-1" d="M100.09,75.83c-.12-.54-.21-.9-.86-.39.23.2.47.4.85.73-.03-.14-.06-.28-.1-.43.04.04.07.06.11.1Z"/>
          <path class="cls-1" d="M100.09,75.83s-.07-.06-.11-.1c.04.15.07.29.1.43.12.54.21.9.86.39-.23-.2-.47-.4-.85-.73Z"/>
          <path class="cls-1" d="M23.84,73.3c-.13.13-.23.23-.34.34.21.1.41.25.63.3.08.02.21-.19.31-.3-.21-.11-.41-.23-.61-.34Z"/>
          <path class="cls-1" d="M50.92,74.58c-.21-.11-.41-.23-.61-.34-.13.13-.23.23-.34.34.21.1.41.25.63.3.08.02.21-.19.31-.3Z"/>
          <path class="cls-1" d="M114.26,74.58c-.11-.1-.23-.31-.31-.3-.22.05-.42.19-.63.3.11.1.21.21.34.34.2-.11.4-.22.61-.34Z"/>
          <path class="cls-1" d="M140.74,74.58c.21.11.41.23.61.34.13-.13.23-.23.34-.34-.21-.11-.41-.25-.63-.3-.08-.02-.21.19-.31.3Z"/>
          <path class="cls-1" d="M143.62,75.08c-.15-.64-.17-1.16-.91-.59.24.2.49.42.88.75.03.02.05.04.08.07-.02-.08-.04-.16-.06-.23Z"/>
          <path class="cls-1" d="M71.72,34.87c-.21-.11-.41-.23-.61-.34-.13.13-.23.23-.34.34.21.1.41.25.63.3.08.02.21-.19.31-.3Z"/>
          <path class="cls-1" d="M71.9,32.82c.05.22.19.42.3.63.1-.11.31-.23.3-.31-.05-.22-.19-.42-.3-.63-.1.1-.31.23-.3.31Z"/>
          <path class="cls-1" d="M69.83,21.64c-.21-.11-.41-.23-.61-.34,0,0,0,0,0,0l.09.54c.07.03.14.07.22.09.08.02.21-.19.31-.3Z"/>
          <path class="cls-1" d="M72.33,45.88c-.2.11-.4.22-.61.34.1.11.23.31.31.3.22-.05.42-.19.63-.3-.1-.11-.21-.21-.34-.34Z"/>
          <path class="cls-1" d="M74.42,50.14c-.11-.2-.22-.4-.34-.61-.1.11-.31.23-.3.31.05.22.19.42.3.63.11-.1.21-.21.34-.34Z"/>
          <path class="cls-1" d="M76.31,51.08c-.11-.2-.22-.4-.34-.61-.1.1-.31.23-.3.31.05.22.19.42.3.63.11-.1.21-.21.34-.34Z"/>
          <path class="cls-1" d="M71.9,47.95c.05.22.19.42.3.63.1-.11.21-.21.34-.34-.11-.2-.22-.4-.34-.61-.1.1-.31.23-.3.31Z"/>
          <path class="cls-1" d="M69.79,38.18c.14.63.17,1.12.9.56-.23-.2-.48-.41-.86-.73-.04-.03-.07-.06-.11-.09.03.09.05.18.07.26Z"/>
          <path class="cls-1" d="M69.83,37.28c.63-.14,1.12-.17.56-.9-.2.23-.41.48-.73.86-.03.04-.06.07-.09.11.09-.03.18-.05.26-.07Z"/>
          <path class="cls-1" d="M75.32,43.22c.02-.08-.19-.21-.3-.31-.11.21-.23.41-.34.61.13.13.23.23.34.34.1-.21.25-.41.3-.63Z"/>
          <path class="cls-1" d="M73.47,40.68c-.11-.2-.22-.4-.34-.61-.1.1-.31.23-.3.31.05.22.19.42.3.63.1-.11.21-.21.34-.34Z"/>
        </g>
      </g>
    </g>
  </g>
</svg>