<?xml version="1.0" encoding="UTF-8"?>
<svg id="_レイヤー_2" data-name="レイヤー 2" xmlns="http://www.w3.org/2000/svg" viewBox="0 0 63.34 67.01">
  <defs>
    <style>
      .cls-1 {
        fill: #fff;
      }

      .cls-2 {
        fill: #efdfcd;
        fill-rule: evenodd;
      }
    </style>
  </defs>
  <g id="_レイヤー_1-2" data-name="レイヤー 1">
    <g id="stars">
      <g>
        <path class="cls-2" d="M32.9,13.89l-.41.04-.4-.03-.4.03h-.48s-.05-.42-.05-.42l.17-.35-.12-.36v-.35s.13-.35.13-.35l-.12-.36v-.35s0-.35,0-.35v-.35s.14-.35.14-.35l-.04-.35.11-.35-.08-.36.07-.35-.14-.36.14-.35.14-.35-.25-.36.09-.35.06-.35.1-.35.06-.35-.2-.36.13-.34.04-.35-.08-.36v-.35s.04-.35.04-.35l.21-.34.02-.35-.04-.35-.1-.36.15-.34v-.35s-.08-.36-.08-.36l.07-.35.17-.34-.05-.36.16-.32.34-.2.41.16.07.42.02.37-.17.36v.37s.02.37.02.37l.16.37-.25.36v.37s.17.37.17.37l-.09.37.06.37-.06.37.09.37-.06.37-.09.37.19.37-.13.35.02.35-.05.35.08.35.06.35.06.35-.07.35-.05.35-.06.35.16.35-.12.36.06.35.06.35-.19.36.13.35.03.35.12.35-.16.36.03.35.1.35-.03.35-.13.36.13-.02ZM23.27,15.88l-.19-.32-.12-.35-.16-.33-.13-.34-.16-.33.02-.4-.25-.3-.14-.34v-.39s-.25-.3-.25-.3l-.12-.35-.16-.33-.15-.34v-.39s-.16-.33-.16-.33l-.03-.38-.21-.31-.06-.37-.27-.29v-.39s0-.39,0-.39l-.37-.27-.04-.38-.07-.37-.04-.38-.07-.37-.32-.29v-.39s-.09-.36-.09-.36l-.2-.33-.11-.36-.09-.36.21-.33.21-.17.3-.03.33.21v.38s.15.33.15.33l.22.31.09.36v.39s.2.31.2.31l.12.34.21.31.17.32.07.37.17.32v.4s.16.33.16.33l.15.33.29.27-.08.43.15.33.3.26.07.36.21.3.09.35.23.29.09.35.07.37.32.25.02.39.16.32.1.35.22.3.19.31.19.31.07.4-.36.1-.33.07-.24.28-.36.03-.27.2h.01ZM40.06,15.84l-.32-.09-.29-.15-.31-.11-.3-.13-.38-.16.33-.3.08-.37.17-.31.3-.22.08-.37.19-.29.16-.31.17-.31.31-.22.15-.32.27-.24.11-.35.24-.26.05-.38.29-.23.29-.23-.03-.44.25-.26.23-.27.26-.26.23-.28v-.42s.3-.24.3-.24l.21-.3.11-.36.19-.31.2-.3.35-.2.2-.3.14-.34.09-.37.3-.24.17-.32.26-.31.41.1.1.36.02.34-.19.31-.1.36-.14.33-.24.28-.15.33-.32.24-.15.33-.16.32-.03.4-.39.19-.17.32-.03.4-.25.27-.12.35-.23.29-.1.36-.22.29-.25.27v.41s-.3.25-.3.25l-.16.32-.22.29-.11.35-.13.34-.13.34-.24.28-.23.29-.23.28-.04.39-.29.25-.13.34-.13.34-.04-.04ZM27.22,14.41l-.07-.34v-.34s-.03-.34-.03-.34v-.34s-.06-.34-.06-.34l.15-.34-.14-.33-.03-.34.12-.4-.15-.39-.02-.39-.06-.39-.05-.39.23-.38.31-.24.33.18.26.26v.34s.24.3.24.3l-.06.36-.06.35.32.28v.35s0,.37,0,.37l-.02.37.02.37.28.32-.05.38.04.36.15.38-.36.08-.32.05-.36-.12-.32.07-.31.14.03.07ZM36.67,14.53l-.39-.04-.37-.1-.39-.05-.43-.1.08-.4.27-.26v-.37s.11-.33.11-.33l.25-.27v-.37s.13-.32.13-.32l.1-.33.13-.38.28-.31.11-.38.25-.33.18-.33.37.04.4.17-.1.42-.23.34.15.44-.17.36-.14.36-.17.35-.13.36.12.42-.2.34-.1.36v.39s-.07.37-.07.37l-.06-.03ZM18.33,19.54l-.25-.26-.19-.3-.22-.28-.2-.3-.23-.28-.07-.39-.31-.23-.21-.29-.09-.37-.31-.22-.2-.3-.22-.28-.22-.29-.08-.38-.14-.36.26-.27.32-.18.29.24.36.18.15.36.15.37.44.11.19.33.21.31.18.34.21.31.41.14.16.36.23.29.32.22.26.29-.26.28-.37.08-.24.23-.19.28-.14.32-.03-.05ZM45.04,19.52l-.27-.19-.22-.24-.26-.2-.24-.22-.29-.32.4-.16.18-.35.26-.27.36-.15.18-.35.28-.25.25-.27.26-.27.37-.15.24-.29.34-.18.21-.32.32-.21.32-.29.34.26.02.34.09.43-.29.23-.27.25-.3.24-.27.26-.07.42-.32.21-.25.28-.16.35-.23.29-.24.28-.38.17-.24.29-.19.33.06.03ZM14.97,24.37l-.34-.17-.29-.23-.31-.2-.3-.22-.32-.19-.2-.35-.37-.12-.3-.21-.21-.33-.37-.12-.29-.22-.31-.2-.3-.2-.2-.34-.32-.19-.23-.3-.35-.15-.25-.27-.38-.1-.21-.32-.21-.32h-.45s-.24-.3-.24-.3l-.26-.26-.24-.29-.26-.25-.42-.05-.22-.31-.28-.23-.35-.14-.29-.21-.29-.22-.18-.37-.3-.22-.21-.22-.03-.39.38-.11.34.04.36.11.28.23.23.32.35.14.3.21.35.13.33.17.26.26.32.18.21.34.32.18.31.19.39.07.16.41.31.2.4.06.25.27.34.15.27.25.35.13.27.25.25.28.41.05.23.32.31.19.27.24.35.14.33.16.31.14.23.25.25.23.24.24.37.05.19.26-.12.28-.12.31-.33.2-.05.35-.13.31h0ZM48.18,23.86l-.21-.26-.15-.3-.19-.27-.17-.28-.22-.31.29-.06.26-.26.31-.16.37-.02.26-.26.32-.14.31-.17.31-.16h.38s.3-.18.3-.18l.36-.04.28-.22.35-.08.27-.28.38-.02.38-.02.23-.38.36-.06.35-.09.36-.06.34-.1.24-.34.37-.03.33-.12.29-.23.32-.14.33-.13.4.04.33-.14.3-.2.28-.25.37-.02.31-.17.29-.23.34-.1h.38s.29-.22.29-.22h.36s.34.2.34.2l.06.44-.34.27-.3.19h-.39s-.31.19-.31.19l-.31.17-.25.3-.42-.07-.31.16-.24.31-.35.08-.29.21-.34.1-.28.24-.34.1-.36.07-.24.32-.38.03-.31.17-.34.11-.28.22-.3.2-.3.2-.35.08-.34.1-.35.1-.25.3-.39.05-.31.22-.32.21h-.43s-.28.27-.28.27l-.32.19-.28.27-.41.02-.32.19-.29.25h-.09s.01-.02.01-.02ZM13.57,28.39l-.33-.08-.3-.15-.32-.11-.32-.15-.33-.12-.25-.29-.37-.03-.32-.13-.26-.27-.37-.03-.31-.15-.33-.12-.32-.12-.22-.38-.06-.38.31-.21.36-.1.32.16.38-.05.3.22.3.22.41-.15.31.18.32.15.31.18.32.14.4-.11.37.23.38.11-.02.38-.1.39-.11.39-.27.35h.14ZM49.88,28.64l-.13-.31-.06-.33-.11-.31-.09-.32-.13-.37.35.03.34-.14.35-.03.36.12.34-.14h.35s.35-.05.35-.05l.35-.04.36.13.35-.06.35.09.35-.11.35.05.34-.17.36.23.05.34.13.42-.42.15-.35.02h-.36s-.35,0-.35,0l-.3.28-.37-.05-.35.05-.33.17-.35.07-.35.06-.38-.12-.35.07-.34.13-.32.19v-.06ZM13.14,33.03l-.36.05-.36-.03h-.36s-.36,0-.36,0h-.36s-.35-.17-.35-.17l-.37.11h-.36s-.35-.17-.35-.17l-.37.1-.37-.03h-.37s-.37,0-.37,0l-.35-.18h-.37s-.36-.12-.36-.12l-.37.06-.36-.1-.38.12-.35-.16-.35-.16-.39.23-.36-.11-.36-.08-.36-.12-.36-.08-.38.18-.35-.15-.36-.05-.37.07-.37-.02-.36-.04-.35-.21-.37-.03-.37.04-.39-.05-.02-.39.11-.32.33-.23.37.04.36.14.37-.07.37.02.37-.08.37-.03.36.08.37-.02.36.17h.37s.37-.02.37-.02l.37-.15.36.26h.37s.37-.15.37-.15l.36.1.37-.05.36.07.37-.08.36.07.36.1.37-.18.36.15h.37s.37.05.37.05l.36-.07.36-.04.35-.05.35.08.35.06.35.07.35-.16.36.13.35-.06.39-.04-.2.38.11.35.02.35.12.3-.16.31.06-.02ZM50.23,31.5l.1-.06.34.06.35.02.35.05.35.02.32.21.36-.07.35.04.32.19.36-.07.34.06.35.03.35.04.33.2.36.02.33.16.37-.03.34.13.38-.09.33.19.33.19.4-.19.34.14.34.11.33.14.34.1.39-.15.33.18.35.08.37-.04.35.06.35.07.32.24.35.06h.36s.37-.07.37-.07l.33.18.31.14.19.35-.24.34-.37-.03-.36.04-.35-.04-.36.05h-.36s-.34-.11-.34-.11h-.36s-.33-.21-.33-.21l-.36-.02-.35-.03-.37.12-.32-.29-.35-.03-.37.13-.34-.13-.36.02-.35-.1-.36.05-.35-.1-.34-.13-.38.14-.34-.18-.35-.02-.35-.09-.36.04h-.36s-.37.02-.37.02l-.36-.12-.36-.1-.36-.1-.38.12-.35-.16-.37.02-.37.02-.35-.23-.36.1v-.36s-.12-.37-.12-.37l.17-.31-.03-.31-.1-.31h.05ZM13.91,37.77l-.03.07h-.35s-.35.06-.35.06l-.35.02-.35.06-.36-.14-.34.15-.35.04-.36-.11-.34.15-.35.02-.35.05-.35.05-.36-.12-.35.07-.33-.17-.26-.26.14-.35.27-.34.38.05.38.05.31-.33h.38s.37-.02.37-.02h.38s.37-.03.37-.03l.32-.29.38.04.36-.06.34-.17.36-.08.38-.07-.07.41.08.33.15.31.21.29-.02.36.06-.03ZM49.7,36.9l.36.13.32.19.34.16.33.18.34.15.25.32.39.07.33.17.24.29.37.06.3.18.32.15.31.16.22.31.28.27-.13.35-.22.3-.37-.1h-.38s-.26-.25-.26-.25l-.27-.25-.42.11-.29-.2-.3-.18-.28-.2-.3-.17-.4.08-.27-.23-.31-.14-.35-.03-.32-.12-.34-.16.28-.3.1-.32.03-.34-.03-.35.2-.29h-.07ZM15.78,42.01l-.22.25-.35.15-.33.19-.34.16-.33.19h-.41s-.29.27-.29.27l-.34.16-.4.02-.3.26-.33.13-.32.16-.32.15h-.38s-.31.16-.31.16l-.37.03-.3.21-.35.07-.28.27h-.38s-.38.01-.38.01l-.24.37-.36.05-.35.08-.36.05-.35.09-.25.33-.37.02-.34.11-.29.22-.33.14-.33.12-.35-.16-.2-.19-.07-.3.17-.35.37-.04.3-.18.28-.24.34-.11.38-.02.29-.22.32-.14.28-.23.3-.19.35-.08.31-.18h.39s.31-.17.31-.17l.32-.16.25-.3.42.08.32-.16.25-.3.36-.07.29-.21.34-.1.28-.24.35-.11.37-.08.24-.33.39-.04.32-.18.35-.13.29-.24.3-.22.3-.22h.35s.14.38.14.38l.13.38.33.27.09.4.03-.03ZM47.7,41.81l.33.16.28.22.3.19.29.21.31.18.19.34.36.11.29.2.2.32.36.11.28.22.31.2.3.21.2.34.32.19.23.31.35.15.25.28.38.11.21.33.21.33.45.02.24.29.25.27.23.29.26.26.42.06.21.32.16.31v.39s-.36.22-.36.22l-.41-.11-.19-.36-.3-.21-.34-.15-.37-.11-.23-.31-.32-.18-.36-.12-.28-.24-.22-.32-.35-.14-.3-.21-.35-.13-.33-.17-.26-.26-.32-.18-.21-.33-.32-.18-.3-.18-.38-.05-.16-.4-.3-.18-.39-.05-.25-.26-.33-.13-.26-.24-.34-.11-.26-.23-.22-.21.02-.32.3-.2.16-.29.22-.26.1-.33.02.02ZM18.31,45.31l.14.34-.09.36-.2.32-.3.23-.28.26-.4.1-.22.33-.29.24-.38.12-.22.33-.3.22-.28.25-.28.25-.4.13-.28.28-.37.17-.24.33-.37.08-.43-.03-.05-.43.24-.25.03-.42.28-.19.26-.2.29-.18.26-.2.11-.42.35-.18.28-.25.2-.34.26-.27.27-.26.4-.13.27-.26.22-.31.18-.36.35-.06.31-.07h.37s.16.24.16.24l.08.28.07-.05ZM44.34,46.01l.26.26.19.3.23.28.2.3.23.28.06.38.3.22.21.28.08.37.3.22.19.3.21.28.21.28.07.37.14.36-.27.26-.33.17-.29-.24-.35-.17-.13-.35-.13-.35-.43-.1-.17-.32-.19-.3-.17-.32-.2-.29-.39-.12-.14-.33-.21-.27-.3-.19-.23-.25-.24-.3.39-.1.25-.21.21-.26.16-.31.33-.13-.06-.04ZM14.79,58.58l.2-.3.25-.25.22-.28.24-.26.22-.28.36-.15.15-.35.23-.27.34-.17.15-.35.24-.26.22-.28.22-.28.35-.16.21-.29.31-.19.17-.32.28-.22.12-.37.33-.18.34-.19.05-.45.3-.22.28-.24.3-.22.27-.25.07-.42.32-.2.25-.27.16-.34.23-.28.24-.28.38-.16.17-.34-.04-.37-.22-.27-.12-.33-.33-.12-.33.08-.3.06-.35.12-.15.34-.22.29-.14.34-.18.31-.27.24-.19.31-.34.19-.2.3-.21.29-.09.39-.41.13-.21.29-.09.39-.28.22-.17.32-.27.24-.15.33-.27.24-.29.22-.08.39-.33.19-.21.29-.26.24-.16.32-.19.3-.19.3-.29.22-.27.23-.28.23-.11.37-.32.19-.18.3-.19.3-.31.33.29.35.37.1.26-.25.09.09ZM39.94,49.06l.18.31.11.34.15.32.13.33.16.32-.02.39.25.28.15.32v.38s.26.28.26.28l.13.33.16.32.15.32v.38s.17.31.17.31l.04.37.22.29.07.35.28.27.02.38v.38s.39.23.39.23l.06.36.08.35.05.36.09.35.33.25.02.37.11.34.22.3.13.34.12.34-.05.4.12.34.19.32.11.38-.35.18-.34.03-.34-.22-.1-.34-.02-.38-.22-.3-.14-.33-.23-.29-.18-.31-.08-.36-.18-.31v-.39s-.18-.31-.18-.31l-.16-.32-.3-.25.07-.42-.16-.32-.31-.25-.08-.36-.21-.29-.1-.35-.23-.28-.1-.34-.07-.36-.32-.24-.03-.38-.17-.31-.1-.34-.22-.29-.19-.3-.19-.3-.07-.36-.09-.35-.08-.35-.29-.26-.03-.38-.19-.3-.19-.35.42.03.26-.24.3-.16.26-.24h.38s-.04-.04-.04-.04ZM27.38,50.49l.05.47-.15.33-.11.35-.13.34-.1.35-.28.28-.02.39-.12.34-.26.29-.02.39-.14.34-.11.35-.12.35-.27.28-.1.36-.23.3-.17.33-.37-.03-.4-.16.09-.43.22-.32-.16-.42.17-.33.14-.34.17-.33.13-.34-.12-.41.2-.32.11-.35v-.38s.08-.35.08-.35l.1-.35.27-.3.09-.35.03-.37.13-.41.34.23.36.07h.38s.35.12.35.12l-.02.03ZM36.63,50.32l.11.34.04.36.08.35.05.35.09.35-.11.38.18.34.07.35-.08.37.18.34.05.36.08.35.07.35-.09.38.1.35-.05.37.02.37-.34.16-.43.07-.14-.41.03-.38-.34-.28-.02-.36-.04-.36v-.36s-.06-.36-.06-.36l-.3-.29.02-.37-.07-.35-.19-.32-.1-.34-.08-.35.09-.39-.09-.35-.16-.33-.21-.33h.39s.32-.1.32-.1l.3-.17.33-.04.36.05-.04-.1ZM32.47,50.98l.13.26v.36s.05.36.05.36v.36s.06.36.06.36l-.15.36.14.36.02.36-.13.36.13.36v.36s.02.36.02.36l.02.36-.15.36.04.36-.11.36.08.36-.08.36.14.37-.14.36-.14.36.24.38-.1.36-.07.36-.1.36-.06.36.2.38-.14.36-.04.36.08.37-.02.36-.03.36-.21.35-.02.36.04.37.1.37-.15.36v.36s.09.37.09.37l-.06.36-.16.35.06.37-.03.36-.09.39-.4.19-.36-.24-.17-.37.16-.36-.02-.36v-.36s-.17-.36-.17-.36l.25-.36v-.36s-.17-.36-.17-.36l.09-.36-.06-.36.06-.36-.09-.36.06-.36.09-.36-.18-.37.14-.36-.02-.36.05-.36-.07-.36-.05-.36-.05-.36.08-.36.06-.36.07-.36-.16-.36.13-.36-.06-.35-.05-.35.19-.36-.13-.35-.03-.35-.12-.35.16-.36-.04-.35-.1-.35.03-.35.12-.36-.22-.34-.1-.35v-.35s-.05-.35-.05-.35l.08-.36.06-.36.03-.34.35-.05.38-.1.4.17.39-.1v.05Z"/>
        <g>
          <path class="cls-1" d="M9.35,20.28l.38.1.25.27.35.15.23.3.32.19.2.34.3.2.31.2.29.22.37.12.21.33.3.21.13.04c.38-.38.76-.76,1.18-1.18l-.04-.02-.33-.16-.35-.14-.27-.24-.31-.19-.23-.32-.41-.05-.25-.28-.27-.25-.35-.13-.27-.25-.18-.08h-1.26c-.15.15-.29.29-.43.43l.13.2Z"/>
          <path class="cls-1" d="M20.1,50.51l-.2.11s.04.05.06.08c.61-.04,1.29.33,1.87.09l.1-.21.23-.28.09-.11c-.52-.25-1.02-.5-1.44-.7l-.07.16-.18.31-.27.24-.19.31Z"/>
          <path class="cls-1" d="M19.21,53.71l.05-.16.33-.18.34-.19.05-.45.09-.06c-.3-.28-.62-.57-1-.93l-.13.04c-.13.52-.24.91-.33,1.28.22.23.41.44.6.64Z"/>
          <path class="cls-1" d="M54.78,47.33l-.2-.25-.25-.27-.24-.29-.45-.02-.08-.13c-.06.54.11,1.07.54,1.6.2-.24.45-.44.68-.64Z"/>
          <path class="cls-1" d="M32.05,1.67c.22-.02.44-.03.68-.05v-.3s.16-.36.16-.36l-.02-.37-.07-.42-.41-.16-.34.2-.15.3v.09l.04.28-.04.07v.66c.09-.02.17-.04.26-.07-.04.05-.07.09-.11.13Z"/>
          <path class="cls-1" d="M27.17,10.63c-.07-.08-.14-.14-.22-.2l.02.1.02.39.15.39-.12.4v.09c.05,0,.1-.02.14-.03v-1.15Z"/>
          <path class="cls-1" d="M31.61,6.11v.08c.24-.04.52-.09.88-.16-.43-.15-.72-.37-.96-.58l-.12.3.2.36Z"/>
          <path class="cls-1" d="M10.33,27l.06.03h.08c.26-.12.47-.21.62-.33.23-.18.44-.38.66-.58l-.23-.13-.41.15-.3-.22-.3-.22-.3.04s-.07.07-.11.11c.07.35.14.73.22,1.18Z"/>
          <path class="cls-1" d="M52.77,39.76l.27.25.26.25h.25c-.07-.34-.16-.79-.29-1.46l-.05-.03c-.11.44-.28.75-.47.99h.03Z"/>
          <path class="cls-1" d="M45.74,47.99l-.25-.18-.05-.33c-.09.12-.19.29-.31.5,0,.04,0,.07,0,.1.2-.08.4-.1.61-.09Z"/>
          <path class="cls-1" d="M.11,31.22L0,31.54v.1c.1.06.22.1.38.15.24-.26.35-.51.33-.76l-.26-.03-.33.23Z"/>
          <path class="cls-1" d="M36.93,9.94c.08-.02.16-.05.25-.08l-.2-.02-.05.1Z"/>
          <path class="cls-1" d="M21.66,10.94c.42.06.84.13,1.26.15.01,0,.03-.01.04-.02l-.12-.17-.07-.36-.3-.26-.03-.06c-.27.03-.54.08-.82.12,0,.2.02.4.03.6Z"/>
          <path class="cls-1" d="M13.92,27.21l.02-.33-.38-.11-.37-.23h-.02c-.06.06-.12.11-.18.17.31.33.62.5.93.51Z"/>
          <path class="cls-1" d="M20.84,6.06v-.23s-.04-.17-.04-.17c-.08.08-.17.17-.25.25.1.05.19.1.29.15Z"/>
          <path class="cls-1" d="M32.16,1.54c-.09.03-.18.05-.26.07-.06.01-.12.03-.18.04l.05.26v.09c.08-.1.18-.2.28-.33.04-.04.07-.08.11-.13Z"/>
          <path class="cls-1" d="M43.27,47.22s0,.08.01.12v.02s.24.25.24.25l.3.19.13.16c.08.01.15.03.24.03.02-.64-.28-.95-.9-.94.02.08.04.17.06.26-.03-.03-.06-.05-.09-.07Z"/>
          <path class="cls-1" d="M44.56,48.51l.14.22c.34-.01.44-.3.43-.64,0-.04,0-.07,0-.1h0c-.32,0-.63,0-.95,0,.05.13.09.31.14.46l.23.07Z"/>
          <path class="cls-1" d="M43.35,47.29c-.02-.09-.05-.17-.06-.26,0-.01,0-.02,0-.03l-.21.05c.06.05.13.11.2.17.03.03.06.05.09.07Z"/>
          <path class="cls-1" d="M18.25,46.19s-.04-.07-.06-.11c-.1.11-.31.23-.3.31,0,.04.03.07.04.11l.22-.17.09-.14Z"/>
          <path class="cls-1" d="M49.51,43.14l-.12-.04-.19-.34-.12-.07c.1.18.2.37.31.56.03-.03.08-.07.12-.11Z"/>
          <path class="cls-1" d="M19.06,18.74l.1-.02s-.02-.03-.03-.05c-.02.02-.05.05-.08.07Z"/>
          <path class="cls-1" d="M52.96,31.89l-.05-.03s-.03.03-.04.05c.03,0,.07-.01.1-.02Z"/>
          <path class="cls-1" d="M52.85,31.82l-.11-.06h-.09s-.08.09-.13.14c.1-.02.21-.05.32-.07Z"/>
          <path class="cls-1" d="M52.14,32.76c.2-.23.4-.47.73-.85.01-.02.03-.03.04-.05l-.06-.03c-.11.03-.22.05-.32.07-.54.12-.9.2-.39.86Z"/>
        </g>
      </g>
    </g>
  </g>
</svg>