<?xml version="1.0" encoding="UTF-8"?>
<svg id="_レイヤー_2" data-name="レイヤー 2" xmlns="http://www.w3.org/2000/svg" viewBox="0 0 24.26 23.68">
  <defs>
    <style>
      .cls-1 {
        fill: #fff;
      }

      .cls-2 {
        fill: #efdfcd;
        fill-rule: evenodd;
      }
    </style>
  </defs>
  <g id="_レイヤー_1-2" data-name="レイヤー 1">
    <g id="stars">
      <g>
        <polygon class="cls-2" points="22.61 10.7 22.24 10.74 21.89 10.63 21.53 10.56 21.16 10.57 20.86 10.25 20.47 10.3 20.13 10.15 19.75 10.14 19.41 10.01 19.16 9.68 18.77 9.67 18.46 9.48 18.22 9.18 17.89 9.05 17.51 8.97 17.29 8.65 16.92 8.55 16.77 8.17 16.41 8.04 16.27 7.66 16.02 7.42 15.64 7.29 15.36 7.05 15.17 6.75 14.89 6.52 14.81 6.12 14.41 5.98 14.18 5.7 13.96 5.41 13.86 5.04 13.57 4.81 13.45 4.46 13.38 4.08 13.16 3.8 12.84 3.57 12.71 3.23 12.47 2.95 12.37 2.6 12.37 2.2 12.21 1.88 12.04 1.56 11.89 1.24 11.64 .97 11.43 .67 11.4 .29 11.17 0 11.08 .36 10.92 .71 11 1.11 10.91 1.48 10.77 1.83 10.56 2.15 10.33 2.45 10.29 2.84 10.07 3.15 9.98 3.52 9.68 3.78 9.47 4.09 9.41 4.49 9.26 4.82 8.95 5.05 8.78 5.36 8.61 5.68 8.49 6.04 8.16 6.23 7.92 6.51 7.76 6.83 7.49 7.08 7.15 7.25 7.07 7.67 6.68 7.78 6.46 8.07 6.2 8.32 5.89 8.5 5.62 8.73 5.35 8.97 5.04 9.15 4.76 9.36 4.57 9.74 4.15 9.74 3.87 9.95 3.65 10.29 3.24 10.3 2.95 10.52 2.63 10.67 2.32 10.85 2 11.02 1.63 11.06 1.27 11.11 .91 11.15 .62 11.42 .27 11.55 0 11.51 .27 11.52 .63 11.61 .9 11.96 1.33 11.81 1.68 11.92 2.01 12.08 2.3 12.33 2.61 12.53 2.99 12.57 3.31 12.73 3.64 12.89 4.03 12.92 4.23 13.32 4.67 13.28 5 13.44 5.25 13.73 5.6 13.86 5.77 14.26 6.23 14.24 6.44 14.57 6.74 14.77 6.98 15.05 7.22 15.32 7.59 15.45 7.79 15.77 7.99 16.08 8.4 16.19 8.53 16.57 8.89 16.74 9.09 17.04 9.16 17.44 9.44 17.69 9.66 17.98 9.83 18.31 9.89 18.69 10.09 19 10.43 19.26 10.54 19.61 10.55 20 10.79 20.31 10.81 20.69 10.96 21.03 10.98 21.41 10.99 21.78 11.03 22.15 11.38 22.46 11.19 22.86 11.48 23.2 11.35 23.68 11.33 23.22 11.35 22.86 11.36 22.5 11.48 22.15 11.49 21.79 11.64 21.46 11.81 21.13 11.8 20.76 11.88 20.41 12.15 20.13 12.29 19.8 12.31 19.43 12.44 19.1 12.45 18.72 12.72 18.44 12.87 18.12 12.92 17.74 13.2 17.49 13.26 17.11 13.58 16.89 13.87 16.66 13.86 16.22 14.09 15.94 14.49 15.8 14.51 15.36 14.91 15.23 15.12 14.94 15.31 14.63 15.64 14.46 15.76 14.07 16.16 13.98 16.34 13.64 16.61 13.41 16.86 13.14 17.29 13.13 17.49 12.79 17.89 12.76 18.1 12.42 18.43 12.28 18.76 12.14 19.16 12.18 19.45 11.96 19.75 11.75 20.14 11.79 20.43 11.54 20.74 11.34 21.12 11.38 21.44 11.17 21.84 11.36 22.16 11.17 22.51 11.08 22.84 10.92 23.22 11.04 23.54 10.79 23.91 10.86 24.26 10.87 23.94 10.78 23.59 10.95 23.26 10.86 22.94 10.76 22.61 10.67 22.61 10.7"/>
        <g>
          <path class="cls-1" d="M7.64,13.71c.42-.41.75-.72.99-.95.51-.1.93-.18,1.15-.23.43-.93.77-1.66,1.11-2.39-.65-.6-1.45-.14-2.16-.3-.48.86-1.03,1.7-1.41,2.6-.13.3.19.79.32,1.26Z"/>
          <path class="cls-1" d="M12.23,19.93l.05-.13.03-.37.05-.13h-.39s-.02.01-.04.02c.08.23.18.42.31.61Z"/>
          <path class="cls-1" d="M12.95,15.04c.34.49.71.44.93-.05.17-.38.15-.83.21-1.19.67-.21,1.19-.37,1.83-.57-1.12-.83-2.06-.9-2.97-.05v1.86Z"/>
          <path class="cls-1" d="M10.81,20.69l.07.14c.07-.07.13-.14.2-.22-.1-.04-.19-.08-.28-.12v.19Z"/>
          <path class="cls-1" d="M11.53,19.3c.12,0,.3.04.39.02.02,0,.03-.01.04-.02,0,0,.02,0,.02-.01.32-.48.59-.98.88-1.48-.53-.33-.76-1.19-1.62-1.12-.17.94-.57,1.85.28,2.61Z"/>
          <path class="cls-1" d="M11.06,5.65c-.07-.43-.15-.95-.2-1.32-.65.41-1.24.77-1.85,1.15.82.76,1.34.72,2.05.17Z"/>
          <path class="cls-1" d="M15.25,6.88l-.09-.13-.18-.15c0,.08,0,.16.01.25.09.01.17.02.26.04Z"/>
          <path class="cls-1" d="M14.7,9.51c-.11-.2-.22-.4-.34-.61-.1.1-.31.23-.3.31.05.22.19.42.3.63.1-.11.21-.21.34-.34Z"/>
          <path class="cls-1" d="M12.95,7.49c.21.11.41.23.61.34.13-.13.23-.23.34-.34-.21-.11-.41-.25-.63-.3-.08-.02-.21.19-.31.3Z"/>
        </g>
      </g>
    </g>
  </g>
</svg>