<?xml version="1.0" encoding="UTF-8"?>
<svg id="_レイヤー_2" data-name="レイヤー 2" xmlns="http://www.w3.org/2000/svg" viewBox="0 0 151.38 133.77">
  <defs>
    <style>
      .cls-1 {
        fill: #fff;
      }

      .cls-2 {
        fill: none;
      }

      .cls-3 {
        fill: #c5c2de;
        fill-rule: evenodd;
      }
    </style>
  </defs>
  <g id="_レイヤー_1-2" data-name="レイヤー 1">
    <g id="stars">
      <g>
        <path class="cls-3" d="M71.33,112.24l1.19.33.76.94.81.86,1.15.43,1.02.59.65,1.05.97.66.76.92,1.04.57,1.07.52.64,1.09,1.02.67,1.26.34,1.12.53.64,1.19.96.75.81.96,1.2.41,1.17.46.66,1.18,1.25.34.79,1,1.38.15.74,1.07,1.06.61,1.19.42,1,.7,1.17.45.91.84.69,1.17,1.14.31v-1.09s.06-1.19.06-1.19l.22-1.15.8-1.04-.36-1.27.55-1.09.52-1.09-.39-1.28,1.13-.97-.16-1.23.53-1.09-.34-1.27.68-1.06-.26-1.25.53-1.09-.18-1.23.94-1.01-.35-1.26.98-1.01.14-1.17.14-1.17-.3-1.25.63-1.09-.17-1.22.67-1.09.11-1.17-.56-1.28,1-1.04.11-1.17-.4-1.26.24-1.16.88-1.03-.14-1.23.28-.79-.99.4-1.33-.06-1.09.46-.75,1.18-1.03.58-1.18.27-1.2.21-.86.95-1.16.3-1.27.06-1.16.31-1.07.5-1.06.53-.9.88-1,.64-.93.81-1.15.33-1,.66-1.12.39-1.15.33-1.13.39-1.16.3-1.1.44-1.01.63-1.17.29-1.13.38-.7,1.3-1.07.52-1.45-.3-.75,1.2-1.34-.08-1.09.48-1.12.41-.87.96h-1.36s.1.6.1.6ZM35.72,84.56l.23,1.24-.5,1.13-.38,1.14.17,1.23-.03,1.2-.61,1.1-.11,1.19-.45,1.12-.03,1.21v1.22s-.7,1.07-.7,1.07l-.18,1.18.21,1.26-.02,1.21-.82,1.04-.3,1.15-.56,1.1.11,1.24.05,1.23-.82,1.04.19,1.26-.61,1.15.41,1.35-.69,1.14-.14,1.24.08,1.28-.25,1.22.04,1.28-.43,1.19-.83,1.1.15,1.31-.14,1.25-.24.84.69-.5,1.33.16.95-.95,1.25-.07,1.23-.1.95-.98,1.43.49,1.02-.75,1.23-.09.97-.93,1.28.07.99-.85,1.24-.07,1.02-.76,1.37.33.97-.92,1.38.37,1.12-.43,1.13-.43.99-.85,1.28.06,1.04-.71,1.3.12,1.13-.42.92-1.07,1.4.43,1.12-.43.96-.94,1.15-.34,1.35.27,1.03-.74,1.02-.74,1.16-.31,1.33.2,1.15-.34.69-.49-.92-.57-.8-.93-.76-.98-1.26-.35-.82-.91-.66-1.12-.83-.9-.95-.74-.97-.71-1.21-.41-1.05-.61-1.17-.47-.84-.89-1.07-.6-.88-.84-.84-.89-.88-.84-.83-.91-.92-.79-1.05-.63-.82-.92-.88-.84-1.49-.04-.97-.72-.42-1.44-1.43-.13-.57-1.24-.95-.76-.9-.82-1.26-.35-.61-1.19-1.12-.53-1.38-.21-.38-1.5-1.21-.43-.27.02ZM112.35,92.78l.9-.81,1.17-.15,1.12-.28.89-.81.96-.64,1.2-.11.99-.57,1.13-.25.96-.64.96-.67h1.29s1.09-.5,1.09-.5l.94-.88,1.03-.65,1.33.11,1.13-.39,1.23-.14.99-.77,1.01-.71,1.33.12.96-.84,1.25-.08.89-1.04,1.29.02,1.09-.5,1.01-.71,1.13-.4,1.03-.67,1.19-.23,1.33.14.98-.8,1.08-.54,1.07-.57,1.12-.42,1.32.14.62-.59-.59-.55-.79-.97-1.35-.23-.42-1.46-1.21-.42-.79-.97-1.32-.27-.69-1.1-1.27-.34-.78-.98-1.22-.41-.52-1.32-1.32-.28-.5-1.35-1.02-.67-1.02-.67-1.28-.32-.71-1.08-1.19-.43-.71-1.14-1.04-.68-1.44-.12-.53-1.39-1.05-.66-1.36-.23-.99-.74-.62-1.26-1.23-.41-1.23-.41-.96-.79-.62-1.23-.96-.78-.84-.28-.07,1.05-.45,1.12-.52,1.11.28,1.26-.42,1.13-.68,1.08-.41,1.13-.21,1.17-.18,1.17.2,1.24-.05,1.2.13,1.23-.39,1.14-.03,1.2-.33,1.15-.4,1.14-.33,1.15-.42,1.13-.27,1.16-.07,1.2-.44,1.13-.34,1.14.66,1.32-.19,1.18-1.08,1.01.55,1.31-.83,1.06-.23,1.17-.31,1.15.28,1.26-.77,1.07.05,1.22.46,1.3-1.16,1.05.55.26ZM117.6,49.01l-.16-1.28.56-1.13.45-1.15-.09-1.27.1-1.23.68-1.09.19-1.21.53-1.13.11-1.23.08-1.25.79-1.05.27-1.19-.12-1.3.11-1.24.9-1.01.39-1.16.64-1.09-.02-1.28.04-1.26.9-1.02-.1-1.3.68-1.08-.32-1.35.76-1.06.21-1.21-.02-1.26.3-1.18v-1.25s.47-1.15.47-1.15l.84-1.06-.15-1.28.12-1.22.09-1.23.26-1.2.84-1.06-.14-.85-.69.33-1.19.31-.75,1.12-1.48-.24-.87.91-1.2.29-.79,1.07-1.27.14-.84.99-1.21.27-.89.91-1.4-.12-.82,1.05-1.41-.17-1.04.59-1.05.58-.86.98-1.27.11-.93.83-1.3.05-1.06.55-.79,1.17-1.43-.27-1.07.55-.86,1.03-1.11.45-1.36-.14-.95.83-.95.82-1.13.4-1.39-.1-1.18.41-.92,1.14-1.16.5-1.27.18-1.29.12-1.01.89-1.24.25-1.46.42.92.93.97.7.99.68,1.22.36,1.07.57,1.18.42.87.85,1.08.55.9.8.87.86.9.81.85.88.94.76,1.06.58.84.89.9.81h1.49s.99.67.99.67l.46,1.42,1.43.07.6,1.21.96.72.92.79,1.27.3.65,1.16,1.14.49,1.38.15.42,1.48,1.21.38.98.71.79.98,1.24.35,1.12.49.08.29ZM36.66,43.86l-1.04.74-1.25.05-1.22.17-1.05.71-1.11.53-1.28-.02-1.13.47-1.23.15-1.1.56-1.08.6-1.3-.09-1.14.43-1.02.81-1.09.59-1.34-.19-1.17.32-1.25.07-1.04.72-1.06.66-1.34-.18-1.02.8-1.27.03-.95,1.01-1.3-.06-1.13.47-1.05.68-1.16.37-1.06.65-1.21.2-1.34-.17-1.01.79-.93.31.98.2,1.02.6.71,1.11,1.32.11.84.9.85.87,1.34.09.52,1.4,1.22.29.84.88,1.31.14.75,1.02,1.27.21.83.89,1.22.29.6,1.25,1.31.15.57,1.29,1.03.58,1.03.58,1.27.21.75,1.02,1.19.34.76,1.09,1.07.6,1.44.02.61,1.35,1.08.59,1.36.16,1.02.7.65,1.24,1.23.39,1.23.42.48.93.68-1.07.14-1.21-.65-1.27v-1.22s.35-1.19.35-1.19l.41-1.19-.4-1.25.31-1.19.58-1.17.3-1.2.1-1.21.06-1.21-.32-1.25-.06-1.23-.25-1.24.28-1.2-.09-1.22.22-1.2.29-1.2.22-1.2.31-1.2.16-1.21-.05-1.23.33-1.2.22-1.2-.78-1.29.08-1.22.98-1.17-.48-.23ZM82.06,24.3l-1.17-.44-.71-1-.78-.91-1.15-.47-1.03-.62-.65-1.07-.98-.67-.76-.93-1.04-.6-1.07-.57-.6-1.13-.95-.71-1.21-.4-1.06-.58-.54-1.21-.89-.79-.72-.99-1.15-.46-1.11-.51-.56-1.2-1.2-.39-.71-1.02-1.34-.2-.66-1.09-1-.65-1.14-.46-.94-.72-1.12-.48-.84-.85-.62-1.17-1.21-.34-1.06-.56-1.08-.52-.58-.6-.62.69.25,1.32-.64,1.06-.6,1.08.3,1.32-1.19.92.08,1.26-.59,1.09.27,1.31-.74,1.05.2,1.29-.58,1.09.12,1.26-.99.99.29,1.3-1.02.99-.2,1.19-.2,1.18.24,1.28-.69,1.07.09,1.25-.75,1.06-.2,1.18.47,1.33-1.06.99-.18,1.19.34,1.3-.28,1.16-.9,1.03.13,1.25.14,1.25-.31,1.16-.84,1.05-.28,1.17.49,1.33-.67.6,1.06-.19,1.24-.17.93-.92,1.2-.26h1.3s1.2-.28,1.2-.28l1.12-.46,1.11-.49.96-.85,1.06-.61.99-.78,1.19-.29,1.05-.63,1.17-.35,1.2-.29,1.17-.35,1.2-.26,1.15-.4,1.07-.6,1.21-.25,1.17-.34.79-1.28,1.12-.48,1.46.35.83-1.18,1.36.12,1.14-.44,1.16-.37.94-.92,1.34.06,1.03-.71.87-1.09,1.49.42.98-.83,1.13-.46,1.26-.16.96-.87.17-.15Z"/>
        <g>
          <path class="cls-2" d="M41.54,90.49c-.13.57.29.66.7.49.05-.18.05-.5.05-.81-.26.1-.71.16-.75.32Z"/>
          <path class="cls-2" d="M43.15,91.68c-.26-.22-.51-.44-.91-.69.16.6.09,1.33.91.69Z"/>
          <path class="cls-2" d="M96.95,118.22c-.05-.22-.19-.42-.3-.63-.1.11-.31.23-.3.31.05.22.19.42.3.63.1-.11.31-.23.3-.31Z"/>
          <path class="cls-2" d="M43.24,100.57c-.65-.02-.97.29-.95.95.65.02.97-.29.95-.95Z"/>
          <path class="cls-2" d="M120.85,25.32c.26.22.52.44.91.69-.16-.6-.09-1.33-.91-.69Z"/>
          <path class="cls-2" d="M18.35,54.42c-.22.05-.42.19-.63.3.11.11.21.21.34.34.2-.11.4-.22.61-.34-.1-.11-.23-.31-.31-.3Z"/>
          <path class="cls-1" d="M50.52,27.97c-.55-.19-1.1-.37-1.61-.55v-1.07c-.44-.44-.89-.88-1.43-1.42-1.15,0-2.4-.02-3.64.02-.18,0-.34.35-.44.45.34.54.64,1.03,1.13,1.8-.69.52-1.28.97-1.91,1.44l-.16,1.08.27,1.05c.12-.06.22-.12.35-.18h4.3c1.06-.68,1.55-2.02,3.03-2.02.41,0,.44-.41.11-.63Z"/>
          <path class="cls-1" d="M41.84,35.3l.05.44-.31,1.16-.84,1.05-.12.48c.37-.37.73-.73,1.09-1.09.76.2,1.22,1.59,2.33.5.17-1.14.4-2.33-.26-3.43-.93-.17-1.43.35-1.94.89Z"/>
          <path class="cls-1" d="M53.57,1.8c.04.17.07.38.12.58.2-.14.42-.25.63-.37l-.75-.21Z"/>
          <path class="cls-1" d="M53.22,6.92c.44-.44.88-.88,1.34-1.34v-1.87c-.18-.2-.42-.41-.59-.66-.15-.24-.23-.53-.29-.66-.4-.25-.65-.47-.91-.69.06-.05.11-.07.16-.11l-.87-.46-1.08-.52-.2-.2c-.18.51-.38,1-.81,1.36l.04.19c.4.42.75.93,1.24,1.17.49.24,1.25-.08,1.46.96-.32.64-.7,1.41-1.02,2.04.29.98.9.91,1.53.8Z"/>
          <path class="cls-1" d="M34.22,56.1c.33-.29.65-.58.92-.82.14.08.28.16.42.23l.12-.49.22-1.2.31-1.2v-.09c-.13.03-.27.06-.41.08-.14.68-.23,1.11-.33,1.58-.55-.31-.96-.54-1.4-.79-.34,1.01-.57,1.88.15,2.71Z"/>
          <path class="cls-1" d="M54.33,35.34c-.59-.04-1.22-.16-1.63.61.01,0,.03,0,.04.01l.91-.22.68-.41Z"/>
          <path class="cls-1" d="M57.85,33.52c-.33.28-.65.54-1.11.93-.13-.58-.23-1-.34-1.45.49-.45.95-.87,1.6-1.46.53.68,1.1,1.4,1.75,2.22l.84-.29.57-.32s0,0,0-.01c-.16-.54-.61-.99-.9-1.5-.2-.35-.34-.73-.45-.97h-2.83c-.57.52-1.03.94-1.44,1.31-.13,1.02.25,2.03-.18,2.93l.52-.15,1.2-.29,1.17-.35.12-.03c-.08-.21-.23-.41-.51-.58Z"/>
          <path class="cls-1" d="M40.92,93.02c.42.87.83,1.71,1.22,2.51-.33.33-.55.55-.77.77.23.16.47.47.69.46.41-.02.81-.22,1.18-.34v-3.48c.45-.3,1.19-.8,1.93-1.29l-.8-.07-.57-1.24-.69-.55c-.27.13-.55.26-.82.39,0,.32,0,.63-.05.81.4.25.65.47.91.69-.83.64-.76-.09-.91-.69-.41.17-.82.07-.7-.49.04-.16.49-.22.75-.32v-1.12l-.33-.3-1.26-.35-.19-.37c-.03.27-.06.53-.17.75-.18.37-.56.65-.83.94.3.35.57.67.95,1.12-.56.14-.97.24-1.37.34-.38-.36-.72-.67-1.13-1.06-.19.56-.32,1.12-.58,1.61-.09.16-.38.21-.62.29.01.02.02.03.03.05h-.17c.11.27.15.67.34.78.49.27,1.05.4,1.83.67-.44.75-.8,1.35-1.12,1.96-.02.04.2.21.31.32.74-.03,1.52.3,2.46-.39-.73-.64-1.65-1.43-.49-2.38h.97Z"/>
          <path class="cls-1" d="M121.07,34.36c-.52-.58-.26-1.43-.31-2.19.27-.67,1.29-.98.92-2.01-.27-.29-.58-.63-.91-.99v-1.69c.34-.59.64-1.1.99-1.47-.4-.25-.65-.47-.91-.69.83-.64.76.09.91.69.88-.06.87-.71.9-1.34-.35-.49-.68-.97-1.02-1.45-.22-.94.4-1.91-.23-2.87-.83.41-1.69.83-2.57,1.27.29.18.53.36.8.47.36.16.73.27,1.17.42-.35.35-.57.57-.96.96v3.78c-.39.39-.61.61-.83.83.32.61.63,1.21.89,1.7-.69,1.37-1.87,1.73-2.94,2.24,0,.46,0,.92,0,1.37.09-.02.17-.04.26-.07-.03.04-.05.06-.08.1.12-.01.24-.02.27.02.34.62.65,1.27.96,1.89.85-.11,1.7.15,2.62-.12l.1-.43-.04-.43Z"/>
          <path class="cls-1" d="M31.21,122.41c-.87-.21-1.72,0-2.43-.1l-.03.29-.24.84.69-.5,1.33.16.7-.7Z"/>
          <path class="cls-1" d="M37.09,111.94c.35.31.67.6,1.25,1.11.54-.78,1.07-1.55,1.46-2.11.98.04,1.58.07,2.08.09.32.32.54.54.7.7.75-.83,1.5-1.65,2.27-2.49-.36-.44-1.03-.03-1.61-.15.11.57-.24.84-.71.94-1.6.31-2.65-1-3.95-1.38-.09-.45-.17-.87-.28-1.45-.58.38-.99.8-1.47.91-.6.14-1.2-.03-1.16-.87-.09.02-.18.04-.27.07.03-.04.06-.07.09-.11h-1.72c.07,1.08,1.06,1.47,1.68,2.1.55.55,1.33.87,2.59,1.65-1.64.05-2.7.04-3.75.04-.34-.31-.67-.62-1.2-1.11-.11.68-.19,1.21-.33,2.04,1.61.04,2.98-.02,4.31.04Z"/>
          <path class="cls-1" d="M34.19,72.13l.04-.14.36-1.06c-.28.29-.58.62-.97,1.03.23.04.41.1.56.17Z"/>
          <path class="cls-1" d="M66.02,19.81c.28-.49.56-.97.83-1.44-.08.02-.16.04-.24.06.03-.04.06-.07.09-.11h-1.82c-.26.42-.74,1.21-1.22,1.99-.3-.3-.4-.46-.53-.52-.53-.24-1.1-.4-1.59-.69-.2-.12-.23-.51-.34-.78h0,0s0,0,0,0c-.57-.11-.95.26-.91.7.08,1.05-.28,1.92-.83,2.71.26.33.5.63.7.88-.32.41-.55.7-.81,1.04.68.25,1.21.44,1.68.61.35.62-.1,1.7,1.12,1.62-.1-.88.24-1.8-.3-2.7-.03-.28-.95-.31-.22-1.04h2.39c1.3-.65,2.06-1.03,2.84-1.42-.3-.33-.6-.65-.84-.91Z"/>
          <path class="cls-1" d="M47.93,104.66c-.44,1.04-1.68,1.35-1.84,2.48.08-.02.17-.04.25-.06-.03.04-.06.07-.09.11h2.66v-3.42c-.6-.52-1.3-1.11-1.89-1.62v-1.54s-.09.02-.13.03c-.45.26-.91.52-1.43.82-.22-.25-.51-.6-.76-.89h-1.46c.02.65-.29.97-.95.95v1.45c.41.37.86.78,1.5,1.36,1.2.23,2.75-.32,4.13.33Z"/>
          <path class="cls-1" d="M95.18,117.14c-.31.35-.61.69-.85.95v1.89c.49.5.93.94,1.37,1.39h1.38c-.02-.09-.04-.17-.07-.26.05.04.09.08.13.11.17-1.09.97-2.92,1.82-4.15-.89-.46-1.77-1.24-2.68-1.29-1.03-.05-1.8-.66-2.67-.84-.29.29-.51.51-.68.68-.49-.28-.97-.56-1.45-.84.02.08.04.16.06.24-.03-.03-.06-.05-.09-.07.02.53-.25,1.12.3,1.56,2.98.19,3.09.21,3.41.64ZM96.65,117.59c.11.21.25.41.3.63.02.08-.19.21-.3.31-.11-.21-.25-.41-.3-.63-.02-.08.19-.21.3-.31Z"/>
          <path class="cls-1" d="M118.46,45.45l-.09-1.27.1-1.23.59-.94c-.58-.3-1.18-.6-1.9-.97q-3.76-.01-3.82.86c1.12.32,2.44-.34,3.6.45-.27.33-.53.65-.79.97.24.38.49.78.79,1.26-1.1.21-1.96.37-2.79.52v1.12c1.97.46,3.1.61,3.83.46l.03-.06.45-1.15Z"/>
          <path class="cls-1" d="M46.96,15.92c-.23-.27-.46-.54-.69-.8l-.6.6.15.67c.46.1.87.04,1.14-.47Z"/>
          <path class="cls-1" d="M50.41,15.4c.44-.44.88-.88,1.22-1.22-.41-.81-.81-1.58-1.24-2.42-.31.26-.63.53-.96.8-.86-.58-1.55-1.26-1.68-2.42,0-.04-.05-.08-.11-.11v.02s-.73,1.05-.73,1.05l.15.95s0,0,0,0c0,0,0,0,0,0l.05.32-.58,1.09.1.99c.29-.3.58-.58.87-.87,1.52-.27,1.84,1.38,2.92,1.81Z"/>
          <path class="cls-1" d="M59.76,108.13c.34-.32.68-.63.64-.6,1.37-.83,1.64.28,2.4.56.3-.66.94-1.04,1.46-1.55l-.4-.68-.83-.9-.53-.41c-.31.6-.59,1.14-.86,1.65h-2.8c-.37-.32-.69-.6-1.02-.88-.47.97-.92,1.88-1.37,2.79,0,0,0,0,.01,0h3.28Z"/>
          <path class="cls-1" d="M124.12,14.53c-.33-.3-.67-.62-1.01-.93-.44.44-.89.89-1.36,1.36.29.33.58.65,1.03,1.16-1.07.21-2.04.4-2.95.58v1.14c.61,1.01,1.6,1.38,2.63,1.69.19.55.37,1.1.56,1.65.18-.01.36-.02.54-.03-.02-.09-.04-.18-.07-.27.04.03.07.06.11.09v-4.25c.65-.43,1.34-.89,2.04-1.36l.3-.75c-.57-.24-1.22.04-1.81-.09Z"/>
          <path class="cls-1" d="M19.19,53.36c-.74,0-1.5-.28-2.2.18-.17,1.91-2.4,2.61-2.52,4.49h-1.48s0,.02,0,.03c-.09,0-.18-.01-.27-.02.42.4.67.72.99.91.23.14.6.07.84.2.33.17.59.45.91.71.6-1.34,1.13-2.51,1.65-3.66.8-.05,1.53-.1,2.21-.14.32-1.03.57-1.9-.13-2.69ZM18.05,55.05c-.13-.13-.23-.23-.34-.34.21-.11.41-.25.63-.3.08-.02.21.19.31.3-.21.11-.41.23-.61.34Z"/>
          <path class="cls-1" d="M35.27,101.45c.34-.55,1.2-.78,1.1-1.8h-3.06l.03.18-.02.77s0,0,.01,0c.53.52.98,1.25,1.93.84Z"/>
          <path class="cls-1" d="M48.65,94.7c.1-.21.17-.42.21-.63l-.18-.17-1.25-.04c.33.39.64.79,1.22.84Z"/>
          <path class="cls-1" d="M144.39,79.68c-.06-.28-.17-.55-.41-.81-.15.28-.29.55-.44.82l.33-.06.52.06Z"/>
          <path class="cls-1" d="M33.66,49.2c.12-1.16.4-2.35-.32-3.51-.45.08-.87.15-1.24.22-.14.55-.24.97-.4,1.61-.71.14-1.14.22-1.76.34.13.66.24,1.18.34,1.69,1.26-.14,2.35.28,3.38-.34Z"/>
          <path class="cls-1" d="M27.75,74.11l1.36.16,1.02.7.47.9c.19-.23.33-.5.36-.87-.29-.56-.62-1.2-.96-1.84h-2.24c-.6-.46-.89-.67-1.18-.89-.12.17-.2.33-.26.47l.35.78,1.08.59Z"/>
          <path class="cls-1" d="M93.37,126.66c-.36-.39-.66-.72-1.05-1.15.12-.34.16-.85.43-1.14.6-.64.92-1.22.24-1.96-.81.13-1.8-.7-2.34.36.35.54.67,1.03,1.01,1.56-.59.68-1.11,1.28-1.68,1.94l.25.45,1.25.34h0c.65.01,1.27-.09,1.89-.39Z"/>
          <path class="cls-1" d="M55.4,100.22l-.52-.5-.84-.89-.04-.04c-.51.93-.48,1.7.04,2.79.49-.49.9-.97,1.36-1.37Z"/>
          <path class="cls-1" d="M102.75,127.04c-.26.02-.54.11-.79.36-.36.89.09,1.36.62,1.79l-.33-1.17.5-.99Z"/>
          <path class="cls-1" d="M94.62,126.9c.85-.46,1.69-.92,2.45-1.33v-1.81c-.52-.57-.94-1.03-1.4-1.53-.45.11-.88.21-1.35.32.38.58.68,1.05,1.1,1.7-.59,1.06-1.93,1.52-.8,2.64Z"/>
          <path class="cls-1" d="M33.71,77.94l.68-1.07.02-.21c-.36.22-.7.44-1.05.6l.35.67Z"/>
          <path class="cls-1" d="M40.17,99.86c-.28-.08-.56-.16-1.08-.31-1.34,1.1-2.35,2.89-4.39,3.33.71.86,1.55.37,2.56.58.94-1.01,2-2.14,3.04-3.28.03-.04-.08-.21-.13-.32Z"/>
          <path class="cls-1" d="M127.39,8.25c-.33-.34-.66-.69-1-1.05l-.46.12-.75,1.12-1.48-.24-.13.14c.49.49.97.97,1.46,1.46h.96c.34-.35.69-.71,1.13-1.16v-.05s.28-.35.28-.35Z"/>
          <path class="cls-1" d="M50.58,109.92c.18-.73,1.27-.83,1.17-1.78-.58.11-.85-.24-.93-.72-.13-.71.28-1.54-.56-2.18-.19.57-.32,1.13-.58,1.62-.1.19-.5.23-.76.33-.28.49-.56.99-.84,1.48.73.37,1.57.79,2.5,1.25Z"/>
          <path class="cls-1" d="M36.76,92.02c-.47-.69-.82-1.45-1.55-1.69v.18s-.61,1.1-.61,1.1l-.11,1.19-.45,1.12v.03h.25c.28-.61.58-1.25.87-1.88h1.63s-.02-.03-.03-.05Z"/>
          <path class="cls-1" d="M97.24,111.68c-.13-.66-.21-1.08-.36-1.86-.88.56-1.82-.29-2.62.71.66.3,1.3.58,1.84.82.1.53.18.95.26,1.37,1.3.13,2.48.41,3.93-.47-1.27-.24-2.23-.42-3.05-.57Z"/>
          <path class="cls-1" d="M91.18,119.42c.21-.32.61-.94,1.01-1.54-.3-.1-.89-.18-1.34-.47-.49-.31-.8-.91-1.53-.75q-.6.53-.69,1.38c.7.48.97,1.61,2.56,1.38Z"/>
          <path class="cls-1" d="M72.67,111.55l-.08.09h-1.1c.07.15.14.28.21.41-.06.09-.11.16-.16.25l.99.27.34.42c.19-.22.38-.44.6-.59-.27-.29-.53-.57-.8-.86Z"/>
          <path class="cls-1" d="M53.03,110.08c.41-.37.72-.65,1.11-1,.5,0,1.09.07,1.66-.02.44-.07.78-.38.67-.92,0,0,0,0-.01,0-1.11-.11-2.32.38-3.23-.82-.35-.46-.95-.08-1.48.82.26.1.65.13.74.31.24.48.36,1.03.55,1.64Z"/>
          <path class="cls-1" d="M46.64,33.31c-.42-.25-.87-.53-1.41-.86-.32.14-.69.3-1.09.48.51.51.94.94,1.54,1.54.63-.44,1.64.48,2.29-.6-.16-.71.32-1.52-.32-2.16-1.3-.05-.09,1.39-1.01,1.6Z"/>
          <path class="cls-1" d="M28.72,68.55c-1.16-.09-2.35-.41-3.33.24.44.85.83,1.62,1.22,2.38q2.35-2.08,2.11-2.62Z"/>
          <path class="cls-1" d="M32.32,108.09c.46-.35.91-.69,1.43-1.09-.1-.7.31-1.65-.32-2.54-1.07.11-.2,1.38-1.15,1.72-.13.04-.31.09-.51.15l.02.46-.34.43c.31.31.59.59.87.87Z"/>
          <path class="cls-1" d="M55.53,103.91v-1.4c-.09.02-.17.04-.26.07.03-.04.06-.07.09-.11h-1.24c-.53.81-2.04,1.16-1.13,2.69.85-.42,1.7-.84,2.54-1.25Z"/>
          <path class="cls-1" d="M90.68,110.97h1.24c.53-.81,2.04-1.16,1.13-2.7-.85.42-1.7.84-2.54,1.25v1.4c.09-.02.17-.04.26-.07-.03.04-.06.07-.09.11Z"/>
          <path class="cls-1" d="M41.29,107.58c.61.62,1.04,1.06,1.6,1.63.44-1.06,2.2-1.63.94-2.86-.29-.04-.59-.08-.84-.11-.59.46-1.15.9-1.7,1.33Z"/>
          <path class="cls-1" d="M49.83,102.5c.1.42.06.85.77.7.3-1.14.38-2.29-.07-3.5h-1.9c.31.86.43,1.27.6,1.66.18.39.49.73.59,1.14Z"/>
          <path class="cls-1" d="M119.56,37.21c-.58.09-1.11.16-1.46.22-.86,1.52,1.38,1.83.8,3.08-.01.02.2.15.42.29l.02-.15.48-1.04c.06-.76-.04-1.53-.26-2.4Z"/>
          <path class="cls-1" d="M96.99,32.94c-.46-.52-.86-.96-1.26-1.41-.5.37-.53.82-.51,1.3l.66.59.85.88.37.3c.15-.57-.05-1.15-.11-1.65Z"/>
          <path class="cls-1" d="M81.28,120.02l.11.19.62.41c0-.07,0-.13,0-.2-.24-.13-.48-.27-.72-.41Z"/>
          <path class="cls-1" d="M146.37,77.26c-.38-.91.31-2.03-.44-3.06-1.28.48-.23,1.57-.63,2.34-.58.26-1.22.55-1.86.83.97.17,1.93,1.15,2.92-.11Z"/>
          <path class="cls-1" d="M48.83,8.29c.79.58,1.06,1.68,2.65,1.45.21-.31.62-.92,1.05-1.55-1.1-.45-2.35-.45-3.7.1Z"/>
          <path class="cls-1" d="M34.48,115.72c.64.17,1.23.49,1.85.75.1-.27.28-.54.27-.8,0-.26-.2-.52-.33-.81-1.16-.06-2.35-.41-3.42.31.39.73,1.07.4,1.63.55Z"/>
          <path class="cls-1" d="M30.55,118.35c.58-1.93.58-2.03-.11-2.65h-.33l-.16.78.04,1.28-.06.15c.21.15.42.3.61.44Z"/>
          <path class="cls-1" d="M98.47,109.11c.31.65.62,1.3.89,1.88.68-.62,1.12-1.02,1.67-1.53-.65-.21-1.2-.33-1.7-.58-.19-.1-.22-.49-.32-.75h-.9c.02.09.04.18.07.26-.04-.03-.07-.06-.11-.09v1.19c.13-.13.26-.26.4-.38Z"/>
          <path class="cls-1" d="M76.72,113c.8-1.03.6-1.87.29-2.88-.5-.04-1.06-.08-1.63-.13v1.17c.5.68.91,1.24,1.34,1.83Z"/>
          <path class="cls-1" d="M65.53,10.73l-1.07-.49-.56-1.2-.2-.06c-.69.25-1.15.76-1.44,1.54,1.1.45,2.2.18,3.27.21Z"/>
          <path class="cls-1" d="M8.32,55.61c-.12-.42-.26-.92-.38-1.37h-1.48c-.31.57-.6,1.11-.92,1.69,1.03.2,1.88.51,2.78-.32Z"/>
          <path class="cls-1" d="M117.53,48.72l.08.29-.05-.44c-.11,0-.23,0-.35,0l.33.14Z"/>
          <path class="cls-1" d="M13.4,52.39c.54-.16,1.32.32,1.32-.68-.64-.33-1.27-.44-1.89-.26l-.41.32h-.23c-.1.86-.51,1.75.37,2.51.3-.66.58-1.31.85-1.89Z"/>
          <path class="cls-1" d="M45.1,36.71c.09.45.19.98.34,1.76.62-1.21,1.65-1.12,2.44-1.62v-2.3c-.86,1.68-1.89,1.6-2.79,2.15Z"/>
          <path class="cls-1" d="M57.76,25.07c-.43.43-.86.86-1.36,1.36,1.31.62,2.56.54,3.98.04-.98-.52-1.8-.96-2.62-1.4Z"/>
          <path class="cls-1" d="M101.89,24.89c-.28.14-.62.31-.98.5.54.55.98,1,1.41,1.43.49,0,.96,0,1.43,0-.21-.98-.91-1.51-1.85-1.93Z"/>
          <path class="cls-1" d="M47.97,21.15c-.9.12-1.86-.29-2.71.34.13.22.22.46.39.64.29.31.63.58,1.06.96.23-.85,1.33-.97,1.27-1.94,0,0,0,0-.01,0,0,0,0,0,0,0Z"/>
          <path class="cls-1" d="M79.17,24.47c-.76-.86-1.66-.44-2.96-.28.13.7.21,1.13.3,1.58.96-.47,1.81-.88,2.66-1.3Z"/>
          <path class="cls-1" d="M102.57,100.5c-.66.14-1.18.25-1.66.35v1.15c.64.67,1.27.69,1.94-.09-.08-.37-.16-.8-.29-1.41Z"/>
          <path class="cls-1" d="M96.18,101.04c-.26-.18-.45-.44-.64-.67l-.61.31-.88.86c.89.05,1.52.2,2.13-.49Z"/>
          <path class="cls-1" d="M81.98,112.41c-.83-.43-1.66-.86-2.51-1.3-.49.53-.46,1.05-.03,1.58.89.15,1.77.52,2.54-.28Z"/>
          <path class="cls-1" d="M82.95,119.48c.27-.1.52-.21.82-.32.11-1.13.36-2.29-.34-3.68-.82,1.42-.32,2.76-.49,4,0,0,0,0,0,0h0Z"/>
          <path class="cls-1" d="M44.18,117.59c.47,0,.94,0,1.41,0,.39-.56,1.19-.81,1.23-1.75-.45-.04-.88-.08-1.24-.11-.4.4-.76.71-1.05,1.07-.17.22-.23.53-.34.79Z"/>
          <path class="cls-1" d="M39.72,115.74c-.69-.02-1.49-.34-2.21.48.1.4.23.88.38,1.48.5-.47.83-.77,1.13-1.06h1.61c-.38-.39-.64-.89-.91-.9Z"/>
          <path class="cls-1" d="M37.57,105.77c.64.67,1.27.69,1.94-.09-.08-.37-.16-.8-.29-1.41-.66.14-1.18.25-1.66.35v1.15Z"/>
          <path class="cls-1" d="M150.86,77.48c-.04-.09-.06-.14-.04-.11-.1.05-.22.12-.33.17l.28.03.1-.09Z"/>
          <path class="cls-1" d="M30.99,73.15c.88.06.89,1.09,1.85.62-.05-.48-.11-1-.21-1.83-.98.59-1.96-.24-2.92,1.21h1.28Z"/>
          <path class="cls-1" d="M34.46,121.45c-.2.04-.39.08-.59.11v.43h.07s.52-.54.52-.54Z"/>
          <path class="cls-1" d="M41.62,117.78c.62.46,1.06.79,1.45,1.08l.99-.74.37.09c-.15-.21-.31-.41-.48-.64-.37.03-.95.09-2.33.21Z"/>
          <path class="cls-1" d="M101.71,19.26c.36,0,.72,0,1.09,0-.04-.29-.16-.52-.3-.73l-.31.16-.48.57Z"/>
          <path class="cls-1" d="M105.22,26.83c-.59,0-1.03,0-1.47,0,.14.91.81,1.37,1.54,1.77.12-.25.36-.51.33-.74-.05-.37-.27-.73-.39-1.04Z"/>
          <path class="cls-1" d="M91.12,29.5c.15-.16.31-.33.5-.54-.7-.11-1.22-.19-2.06-.32,0,.08,0,.14,0,.2l.52.28,1.04.37Z"/>
          <path class="cls-1" d="M92.11,107.01c.44-.84.48-1.68-.28-2.92-.41,2.33-.39,2.33.28,2.92Z"/>
          <path class="cls-1" d="M115.12,12.82l-.09.11s0,0,0,.01c.1-.09.2-.18.29-.26h-.09s-.08.09-.12.13Z"/>
          <path class="cls-1" d="M49.65,4.23c-.29-.02-.58-.04-.86-.06l.27,1.2c.31-.25.68-.5.6-1.14Z"/>
          <path class="cls-1" d="M48.51,5.92s.09.05.14.07c0-.08.03-.16.06-.22l-.2.15Z"/>
          <path class="cls-1" d="M43.24,100.57c.06-.8-.46-1.04-1.08-.91-.31.06-.71.46-.77.77-.13.62.11,1.14.91,1.08-.02-.65.29-.97.95-.95Z"/>
          <path class="cls-1" d="M138.82,66.92c-.06.05-.11.1-.17.16.11.03.2.08.28.14l-.11-.3Z"/>
          <path class="cls-1" d="M140.44,68.28c.01-.07.02-.13.04-.2l-.05-.13-.95-.2c.23.26.5.5.97.52Z"/>
          <path class="cls-1" d="M75.16,110.02h.23s0-.07,0-.1l-.23.1Z"/>
          <path class="cls-1" d="M103.75,117.21c0,.43,0,.86,0,1.28.09-.02.17-.04.26-.07,0,.01-.02.02-.03.03.24-.07.44-.17.62-.31l-.09-.44.5-1.03c-.47-.2-.9-.07-1.27.53Z"/>
          <path class="cls-1" d="M12.99,58.03c-.16-.63.44-1.47-.69-1.85-.03.71-1.15.71-1,1.76.48.03.95.07,1.43.1.09,0,.18.01.27.02,0-.01,0-.02,0-.03Z"/>
          <path class="cls-1" d="M105.64,113.75c0,.26,0,.52.03.77l.14-.15-.17-.62Z"/>
          <path class="cls-1" d="M105.44,112.43c.07.19.12.37.15.55l.21-.22c-.11-.11-.22-.22-.36-.33Z"/>
          <path class="cls-1" d="M6.66,58.75c-.07.39-.14.72-.21,1.11l.61.04.34.91c.29-.05.5-.09.72-.13-.14-.89-.87-1.17-1.46-1.93Z"/>
          <path class="cls-1" d="M35.26,61.93c-.18.09-.36.2-.54.35.22.18.44.32.66.42l-.1-.38-.02-.38Z"/>
          <path class="cls-1" d="M86.27,120.42c.37-.06.9-.15,1.41-.24-.37-.65-.65-1.13-.93-1.62-.09.02-.19.04-.28.07.03-.04.06-.07.09-.11h-.73c.02.09.04.17.07.26-.03-.03-.06-.05-.09-.08.02.52-.2,1.11.47,1.7Z"/>
          <path class="cls-1" d="M61.28,29.9c.22.75.84,1.19,1.82,1.74-.12-.83.34-1.49-.57-1.98-.43,0-.85,0-1.28,0,.02.09.04.17.07.26-.01,0-.02-.02-.03-.02Z"/>
          <path class="cls-1" d="M49.22,33.57s0,0,.01,0c.2-.1.54-.14.89-.23-.05.06-.09.1-.13.15,1.15-.04,2.01.25,2.67-.59-.99-.65-1.91-.75-3.44.67Z"/>
          <path class="cls-1" d="M146.73,73.01l-.5-.62-.88-.18c0,.31.14.61.41.96.31-.05.66-.1.97-.15Z"/>
          <path class="cls-1" d="M34.73,119.95c.63.68,1.26.68,1.9,0-.63-.68-1.26-.68-1.9,0Z"/>
          <path class="cls-1" d="M40.4,116.64c.17.61-.46,1.46.55,1.81q.41-1.25-.55-1.81Z"/>
          <path class="cls-1" d="M33.66,118.61c-.83.48-.82.55-.43,1.74.99-.34.41-1.16.55-1.77-.04,0-.08.02-.12.03Z"/>
          <path class="cls-1" d="M49,117.44l1.03-.4.19-.16c-.71-.21-.83-.11-1.22.56Z"/>
          <path class="cls-1" d="M105.64,19.09c0-.41.01-.81-.02-1.22,0-.12-.22-.33-.29-.32-.03,0-.06.02-.09.03l-.56.83h0c0,.28,0,.57,0,.85h.9c-.02-.09-.04-.18-.07-.26.04.03.07.06.11.09Z"/>
          <path class="cls-1" d="M36.15,85.46c-.06,0-.16.08-.23.16l.03.18-.05.12c.07.21.18.43.28.44.41.02.84-.09,1.25-.15,0-.13-.01-.26-.02-.39l-.05-.21c-.41-.06-.81-.13-1.22-.14Z"/>
          <path class="cls-1" d="M61.2,18.32c.61-.17,1.46.46,1.81-.55q-1.25-.41-1.81.55h0s0,0,0,0Z"/>
          <path class="cls-1" d="M44.91,18.15s.06-.01.09-.02c0-.06,0-.12,0-.18l-.06.06-.02.14Z"/>
          <path class="cls-1" d="M64.51,16.5c.61-.86.89-1.46-.14-1.85-.51.55-.48,1.08.14,1.85Z"/>
          <path class="cls-1" d="M132.92,83.97c-.08-.14-.19-.28-.34-.42-.29.27-.45.55-.49.82l.61-.43.23.02Z"/>
          <path class="cls-1" d="M103.52,20.19c.63.07,1.24-.04,1.17-.93h-1.89c-.11.58.24.87.72.93Z"/>
          <path class="cls-1" d="M50.69,19.95s.07.06.11.09c0-.46-.3-.71-.72-.75-.63-.07-1.24.04-1.17.93h1.85c-.02-.09-.04-.17-.07-.26Z"/>
          <path class="cls-1" d="M112.25,32.97c.63.68,1.26.68,1.9,0-.63-.68-1.26-.68-1.9,0Z"/>
          <path class="cls-1" d="M50.75,37.23l.72-.41.13-.11c-.08-.16-.18-.32-.33-.5-.28.39-.48.73-.53,1.02Z"/>
          <path class="cls-1" d="M143.42,73.59c.02-.41-.09-.84-.15-1.25-.2.01-.4.02-.6.03-.06.42-.13.84-.15,1.26,0,.1.23.32.3.3.22-.06.59-.21.6-.34Z"/>
          <path class="cls-1" d="M99.57,26.75c.41-1.23.41-1.25-.5-1.78.02.08.04.16.06.23-.03-.03-.05-.05-.08-.07.03.58-.38,1.3.53,1.62Z"/>
          <path class="cls-1" d="M139.56,81.05c-.55-.51-1.08-.48-1.85.14.86.61,1.46.89,1.85-.14Z"/>
          <path class="cls-1" d="M62.7,27.69q.41-1.25-.55-1.81c.17.61-.46,1.46.55,1.81Z"/>
          <path class="cls-1" d="M106.46,22.17c-.83.48-.82.55-.43,1.74.99-.34.41-1.16.55-1.77-.04,0-.08.02-.12.03Z"/>
          <path class="cls-1" d="M72.21,28.71c-.16.04-.3.14-.42.34l.11-.04.31-.3Z"/>
          <path class="cls-1" d="M92.47,28.49c.59.26,1.11.46,1.86-.26-.83-.59-1.43-.86-1.86.26Z"/>
          <path class="cls-1" d="M58.84,29.67c.68-.63.68-1.26,0-1.9-.68.63-.68,1.26,0,1.9Z"/>
          <path class="cls-1" d="M7.47,57.86c.42.06.84.13,1.26.15.1,0,.32-.23.3-.3-.06-.22-.21-.59-.34-.6-.41-.02-.84.09-1.25.15,0,.2.02.4.03.6Z"/>
          <path class="cls-1" d="M29.21,61.64c.42.06.84.13,1.26.15.1,0,.32-.23.3-.3-.06-.22-.21-.59-.34-.6-.41-.02-.84.09-1.25.15,0,.2.02.4.03.6Z"/>
          <path class="cls-1" d="M100.83,107.58q-1.25-.41-1.81.55c.61-.17,1.46.46,1.81-.55Z"/>
          <path class="cls-1" d="M61.2,103.88c-.63-.68-1.26-.68-1.9,0,.63.68,1.26.68,1.9,0Z"/>
          <path class="cls-1" d="M90.55,105.75c-.83-.59-1.43-.87-1.86.26.59.26,1.11.46,1.86-.26Z"/>
          <path class="cls-1" d="M94.29,105.47c0,.41-.01.81.02,1.22,0,.12.22.33.29.32.23-.06.59-.18.61-.32.08-.44.03-.89.03-1.34-.09.02-.18.04-.26.07.03-.04.06-.07.09-.11h-.73c.02.09.04.17.07.26-.04-.03-.07-.06-.11-.09Z"/>
          <path class="cls-1" d="M99.97,105.77c-.63-.68-1.26-.68-1.9,0,.63.68,1.26.68,1.9,0Z"/>
          <path class="cls-1" d="M85.78,110.5c.63.68,1.26.68,1.9,0-.63-.68-1.26-.68-1.9,0Z"/>
          <path class="cls-1" d="M21.5,58.5c-.63-.68-1.26-.68-1.9,0,.63.68,1.26.68,1.9,0Z"/>
          <path class="cls-1" d="M104.22,100.57c.68-.63.68-1.26,0-1.9-.68.63-.68,1.26,0,1.9Z"/>
          <path class="cls-1" d="M20.55,50.94c-.63-.68-1.26-.68-1.9,0,.63.68,1.26.68,1.9,0Z"/>
          <path class="cls-1" d="M6.37,54.24c-.05-.08-.08-.14-.12-.21l-.69.22h-.02c.28-.02.57-.08.83-.01Z"/>
          <path class="cls-1" d="M22.13,68.6c-.22.05-.42.19-.63.3.11.1.21.21.34.34.2-.11.4-.22.61-.34-.11-.11-.23-.31-.31-.3Z"/>
          <path class="cls-1" d="M30,69.41c.63-.14,1.12-.17.56-.9-.2.23-.41.48-.73.86h.17s0,.03,0,.04Z"/>
          <path class="cls-1" d="M10.62,60.86c.1-.11.31-.23.3-.31-.05-.22-.19-.42-.3-.63-.11.11-.21.21-.34.34.11.2.22.4.34.61Z"/>
          <path class="cls-1" d="M30.18,65.28c-.02.08.19.21.3.31.11-.21.23-.41.34-.61-.13-.13-.23-.23-.34-.34-.1.21-.25.41-.3.63Z"/>
          <path class="cls-1" d="M34.73,65.42c-.12-.54-.21-.9-.86-.39.23.2.47.41.85.73-.03-.14-.06-.28-.1-.43.04.04.07.06.11.1Z"/>
          <path class="cls-1" d="M30.64,66.71c-.22.05-.42.19-.63.3.1.11.21.21.34.34.2-.11.4-.22.61-.34-.1-.1-.23-.31-.31-.3Z"/>
          <path class="cls-1" d="M29.38,70.12c.55.12.65-.27.63-.71,0-.01,0-.03,0-.04h-.95c.1.26.16.71.32.75Z"/>
          <path class="cls-1" d="M139.04,70.14c.22-.05.42-.19.63-.3-.11-.11-.21-.21-.34-.34-.2.11-.4.22-.61.34.1.11.23.31.31.3Z"/>
          <path class="cls-1" d="M23.99,71.13c.13-.13.23-.23.34-.34-.21-.11-.41-.25-.63-.3-.08-.02-.21.19-.31.3.21.11.41.23.61.34Z"/>
          <path class="cls-1" d="M32.84,68.9c.21.11.41.23.61.34.13-.13.23-.23.34-.34-.21-.11-.41-.25-.63-.3-.08-.02-.21.19-.31.3Z"/>
          <path class="cls-1" d="M131.16,64.17c.11.1.23.31.31.3.22-.05.42-.19.63-.3-.11-.11-.23-.31-.31-.3-.22.05-.42.19-.63.3Z"/>
          <path class="cls-1" d="M32.84,63.23c-.21-.1-.41-.25-.63-.3-.08-.02-.21.19-.31.3.21.11.41.23.61.34.13-.13.23-.23.34-.34Z"/>
          <path class="cls-1" d="M34.73,65.42s-.07-.06-.11-.1c.04.15.07.29.1.43.1.47.18.79.63.55l.07-.29c-.19-.16-.4-.34-.69-.59Z"/>
          <path class="cls-1" d="M102.03,122.63c.05.22.19.42.3.63.1-.11.31-.23.3-.31-.05-.22-.19-.42-.3-.63-.11.11-.31.23-.3.31Z"/>
          <path class="cls-1" d="M47.58,99.71c-.22.26-.44.51-.82.97.05-.01.09-.02.13-.03.04-.01.09-.02.13-.03.63-.14,1.12-.17.56-.9Z"/>
          <path class="cls-1" d="M97.09,121.37c.14.63.17,1.12.9.56-.23-.2-.47-.4-.83-.71-.05-.04-.08-.07-.13-.11.03.09.05.18.07.26Z"/>
          <path class="cls-1" d="M57.6,103.72c.05.22.19.42.3.63.11-.1.21-.21.34-.34-.11-.2-.22-.4-.34-.61-.11.1-.31.23-.3.31Z"/>
          <path class="cls-1" d="M55.53,102.5c.63-.14,1.12-.17.56-.9-.2.23-.41.48-.73.86-.03.04-.06.07-.09.11.09-.03.18-.05.26-.07Z"/>
          <path class="cls-1" d="M33.15,103.23c.22-.05.42-.19.63-.3-.11-.11-.21-.21-.34-.34-.2.11-.4.22-.61.34.11.1.23.31.31.3Z"/>
          <path class="cls-1" d="M88.15,108.13c-.11.11-.31.23-.3.31.05.22.19.42.3.63.11-.11.21-.21.34-.34-.11-.2-.22-.4-.34-.61Z"/>
          <path class="cls-1" d="M34.34,117.68c-.22.26-.44.52-.82.97.05-.01.09-.02.14-.03.04,0,.08-.02.12-.03.63-.14,1.13-.17.57-.9Z"/>
          <path class="cls-1" d="M91.5,114.78c-.14-.64-.17-1.16-.91-.59.24.2.48.41.88.75.03.03.06.05.09.07-.02-.08-.04-.16-.06-.24Z"/>
          <path class="cls-1" d="M41.52,113.5c-.02.08.19.21.3.31.11-.21.23-.41.34-.61-.13-.13-.23-.23-.34-.34-.11.21-.25.41-.3.63Z"/>
          <path class="cls-1" d="M84.2,113.04c-.08-.02-.21.19-.31.3.21.11.41.23.61.34.13-.13.23-.23.34-.34-.21-.1-.41-.25-.63-.3Z"/>
          <path class="cls-1" d="M31.26,111.74c.22-.05.42-.19.63-.3-.11-.11-.23-.31-.31-.3-.22.05-.42.19-.63.3.11.1.23.31.31.3Z"/>
          <path class="cls-1" d="M90.68,110.97s.06-.07.09-.11c-.09.03-.18.05-.26.07-.63.14-1.12.17-.56.9.2-.23.41-.48.73-.86Z"/>
          <path class="cls-1" d="M98.55,115.7c.11-.21.23-.41.34-.61-.13-.13-.23-.23-.34-.34-.11.21-.25.41-.3.63-.02.08.19.21.3.31Z"/>
          <path class="cls-1" d="M82.95,119.48h0s0,0,0,0c-.65-.02-.96.29-.94.94.65.02.97-.29.95-.94Z"/>
          <path class="cls-1" d="M94.4,105.56c-.03-.09-.05-.18-.07-.26-.14-.63-.17-1.12-.9-.56.23.2.48.41.86.73.04.03.07.06.11.09Z"/>
          <path class="cls-1" d="M95.24,105.34c.63-.14,1.12-.17.56-.9-.2.23-.41.48-.73.86-.03.04-.06.07-.09.11.09-.03.18-.05.26-.07Z"/>
          <path class="cls-1" d="M101.54,104.53c-.22.05-.42.19-.63.3.1.11.23.31.31.3.22-.05.42-.19.63-.3-.1-.1-.23-.31-.31-.3Z"/>
          <path class="cls-1" d="M46.09,107.14c-.63.14-1.14.17-.57.9.2-.23.41-.48.73-.86.03-.04.06-.07.09-.11-.09.02-.17.04-.25.06Z"/>
          <path class="cls-1" d="M98.11,108.13c-.14-.63-.17-1.12-.9-.56.23.2.48.41.86.73.04.03.07.06.11.09-.03-.09-.05-.18-.07-.26Z"/>
          <path class="cls-1" d="M86.75,118.57c.62-.14,1.1-.18.54-.9-.2.23-.41.48-.73.86-.03.04-.06.07-.09.11.1-.03.19-.05.28-.07Z"/>
          <path class="cls-1" d="M85.82,118.53c-.14-.63-.17-1.12-.9-.56.24.2.48.41.88.75.03.03.06.05.09.08-.03-.09-.05-.18-.07-.26Z"/>
          <path class="cls-1" d="M35.68,107.23c.63-.14,1.12-.17.56-.9-.2.23-.41.48-.73.86-.03.04-.06.07-.09.11.09-.03.18-.05.27-.07Z"/>
          <path class="cls-1" d="M103.75,118.49c-.63.14-1.12.17-.56.9.21-.25.43-.51.8-.93,0-.01.02-.02.03-.03-.09.03-.18.05-.26.07Z"/>
          <path class="cls-1" d="M133.23,80.41c-.02.08.19.21.3.31.11-.21.23-.41.34-.61-.13-.13-.23-.23-.34-.34-.11.21-.25.41-.3.63Z"/>
          <path class="cls-1" d="M137.95,75.05c.54-.12.9-.2.39-.86-.2.23-.41.47-.73.85.14-.03.28-.06.43-.1-.04.04-.06.07-.1.11Z"/>
          <path class="cls-1" d="M33.15,75.81c.22-.05.42-.19.63-.3-.11-.1-.21-.21-.34-.34-.2.11-.4.22-.61.34.11.1.23.31.31.3Z"/>
          <path class="cls-1" d="M137.95,75.05s.06-.07.1-.11c-.15.04-.29.07-.43.1-.54.12-.9.21-.39.86.2-.23.4-.47.73-.85Z"/>
          <path class="cls-1" d="M142.98,75.99c.11-.21.23-.41.34-.61-.13-.13-.23-.23-.34-.34-.1.21-.25.41-.3.63-.02.08.19.21.3.31Z"/>
          <path class="cls-1" d="M101.99,35.95c.13.13.23.23.34.34.1-.21.25-.41.3-.63.02-.08-.19-.21-.3-.31-.11.21-.23.41-.34.61Z"/>
          <path class="cls-1" d="M110.36,40.54c.21.11.41.23.61.34.13-.13.23-.23.34-.34-.21-.11-.41-.25-.63-.3-.08-.02-.21.19-.31.3Z"/>
          <path class="cls-1" d="M109.59,42.26c.05.22.19.42.3.63.11-.1.31-.23.3-.31-.05-.22-.19-.42-.3-.63-.11.11-.31.23-.3.31Z"/>
          <path class="cls-1" d="M44.66,39.12c-.07.15-.16.29-.22.45l.27-.06h.26s.02-.03.03-.05c-.13-.13-.23-.23-.34-.34Z"/>
          <path class="cls-1" d="M55.53,28.25c-.21-.1-.41-.25-.63-.3-.08-.02-.21.19-.31.3.21.11.41.23.61.34.13-.13.23-.23.34-.34Z"/>
          <path class="cls-1" d="M73.82,28.14l.37.02.04-.03c-.04-.08-.1-.16-.17-.26-.08.09-.15.18-.23.28Z"/>
          <path class="cls-1" d="M61.31,29.93c-.03-.09-.05-.18-.07-.26-.14-.63-.17-1.12-.9-.56.25.21.51.43.94.8.01,0,.02.02.03.02Z"/>
          <path class="cls-1" d="M102.46,28.85c-.2.11-.4.22-.61.34.11.11.23.31.31.3.22-.05.42-.19.63-.3-.1-.11-.21-.21-.34-.34Z"/>
          <path class="cls-1" d="M114.15,29.19c-.21-.11-.41-.23-.61-.34-.13.13-.23.23-.34.34.21.11.41.25.63.3.08.02.21-.19.31-.3Z"/>
          <path class="cls-1" d="M54.11,26.83c.11-.21.23-.41.34-.61l-.34-.34c-.11.21-.25.41-.3.63-.02.08.19.21.3.31Z"/>
          <path class="cls-1" d="M64.51,25.88c-.11.21-.25.41-.3.63-.02.08.19.21.3.31.11-.21.23-.41.34-.61-.13-.13-.23-.23-.34-.34Z"/>
          <path class="cls-1" d="M90.37,26.49c-.11-.2-.22-.4-.34-.61-.11.11-.31.23-.3.31.05.22.19.42.3.63.11-.1.21-.21.34-.34Z"/>
          <path class="cls-1" d="M114.32,26.19c.05.22.19.42.3.63.1-.11.21-.21.34-.34-.11-.2-.22-.4-.34-.61-.11.11-.31.23-.3.31Z"/>
          <path class="cls-1" d="M102.33,31.55c-.11.21-.23.41-.34.61.13.13.23.23.34.34.11-.21.25-.41.3-.63.02-.08-.19-.21-.3-.31Z"/>
          <path class="cls-1" d="M49.23,33.57c-.23.11-.28.29.06.73.19-.23.39-.46.69-.81.04-.05.08-.1.13-.15-.35.1-.69.14-.89.23Z"/>
          <path class="cls-1" d="M116.98,33.4c-.63.14-1.12.17-.56.9.2-.24.41-.48.74-.87.03-.03.05-.06.08-.1-.09.03-.18.05-.26.07Z"/>
          <path class="cls-1" d="M24.47,58.64c.13.13.23.23.34.34.11-.21.25-.41.3-.63.02-.08-.19-.21-.3-.31-.11.21-.23.41-.34.61Z"/>
          <path class="cls-1" d="M30.81,59.58c-.11-.2-.22-.4-.34-.61-.11.1-.31.23-.3.31.05.22.19.42.3.63.11-.11.21-.21.34-.34Z"/>
          <path class="cls-1" d="M30.64,56.31c-.22.05-.42.19-.63.3.1.1.23.31.31.3.22-.05.42-.19.63-.3-.11-.11-.23-.31-.31-.3Z"/>
          <path class="cls-1" d="M28.58,55.19c-.11.21-.25.41-.3.63-.02.08.19.21.3.31.11-.21.23-.41.34-.61-.13-.13-.23-.23-.34-.34Z"/>
          <path class="cls-1" d="M18.48,57.72c-.05-.22-.19-.42-.3-.63-.11.11-.21.21-.34.34.11.2.22.4.34.61.1-.1.31-.23.3-.31Z"/>
          <path class="cls-1" d="M35.2,45.74c.11-.21.23-.41.34-.61-.13-.13-.23-.23-.34-.34-.1.21-.25.41-.3.63-.02.08.19.21.3.31Z"/>
          <path class="cls-1" d="M35.67,48.1c-.21-.11-.41-.25-.63-.3-.08-.02-.21.19-.31.3.21.11.41.23.61.34.13-.13.23-.23.34-.34Z"/>
          <path class="cls-1" d="M47.97,21.15s0,0,0,0c0,0,0,0,.01,0,.64.02.96-.29.93-.94-.65-.02-.97.29-.95.94Z"/>
          <path class="cls-1" d="M50.76,20.21c.14.63.17,1.12.9.56-.23-.2-.48-.41-.86-.73-.04-.03-.07-.06-.11-.09.03.09.05.18.07.26Z"/>
          <path class="cls-1" d="M106.49,19.82c-.23-.2-.48-.41-.86-.73-.04-.03-.07-.06-.11-.09.03.09.05.18.07.26.14.63.17,1.12.9.56Z"/>
          <path class="cls-1" d="M101.08,22.11c.54-.12.9-.21.39-.86-.2.23-.41.47-.73.85.14-.03.28-.06.43-.1-.04.04-.06.07-.1.11Z"/>
          <path class="cls-1" d="M107.14,21.24c-.22.26-.44.52-.82.97.05-.01.09-.02.14-.03.04,0,.08-.02.12-.03.63-.14,1.13-.17.57-.9Z"/>
          <path class="cls-1" d="M123.56,21.16c.12.56.17,1,.7.69l-.03-.14.09-.12c-.19-.16-.41-.35-.71-.6-.04-.03-.07-.06-.11-.09.03.09.05.18.07.27Z"/>
          <path class="cls-1" d="M53.81,24.3c.05.22.19.42.3.63.1-.1.31-.23.3-.31-.05-.22-.19-.42-.3-.63-.11.11-.31.23-.3.31Z"/>
          <path class="cls-1" d="M99.07,24.97c-.15-.64-.17-1.16-.91-.59.24.2.49.42.88.75.03.02.05.04.08.07-.02-.08-.04-.16-.06-.23Z"/>
          <path class="cls-1" d="M118.74,25.55c-.11-.2-.22-.4-.34-.61-.11.1-.31.23-.3.31.05.22.19.42.3.63.1-.11.21-.21.34-.34Z"/>
          <path class="cls-1" d="M101.08,22.11s.06-.07.1-.11c-.15.04-.29.07-.43.1-.54.12-.9.21-.39.86.2-.23.4-.47.73-.85Z"/>
          <path class="cls-1" d="M66.4,13.59c.11-.21.23-.41.34-.61-.13-.13-.23-.23-.34-.34-.11.21-.25.41-.3.63-.02.08.19.21.3.31Z"/>
          <path class="cls-1" d="M115.23,12.67l-.11.14s.08-.09.12-.14h0Z"/>
          <path class="cls-1" d="M126.12,12.82c-.22.05-.42.19-.63.3.11.1.23.31.31.3.22-.05.42-.19.63-.3-.11-.11-.23-.31-.31-.3Z"/>
          <path class="cls-1" d="M66.61,11.16l-.69-.28c.12.56.2.95.87.43-.06-.05-.12-.1-.18-.15Z"/>
          <path class="cls-1" d="M48.14,16.74c.05.22.19.42.3.63.1-.1.31-.23.3-.31-.05-.22-.19-.42-.3-.63-.11.1-.31.23-.3.31Z"/>
          <path class="cls-1" d="M62.28,16.09c.13.13.23.23.34.34.11-.21.25-.41.3-.63.02-.08-.19-.21-.3-.31-.11.21-.23.41-.34.61Z"/>
          <path class="cls-1" d="M47.02,17.85c-.11-.11-.23-.31-.31-.3-.22.05-.42.19-.63.3.11.1.21.21.34.34.2-.11.4-.22.61-.34Z"/>
          <path class="cls-1" d="M66.85,18.37c.64-.14,1.16-.17.59-.91-.2.23-.41.48-.73.86-.03.04-.06.07-.09.11.08-.02.16-.04.24-.06Z"/>
          <path class="cls-1" d="M116.21,16.74c.05.22.19.42.3.63.11-.11.21-.21.34-.34-.11-.2-.22-.4-.34-.61-.11.1-.31.23-.3.31Z"/>
          <path class="cls-1" d="M57.73,15.3c.22-.05.42-.19.63-.3-.11-.1-.21-.21-.34-.34-.2.11-.4.22-.61.34.11.11.23.31.31.3Z"/>
          <path class="cls-1" d="M115.56,15.48c.11-.21.23-.41.34-.61-.13-.13-.23-.23-.34-.34-.1.21-.25.41-.3.63-.02.08.19.21.3.31Z"/>
        </g>
      </g>
    </g>
  </g>
</svg>