<svg width="350" height="240" viewBox="0 0 350 240" fill="none" xmlns="http://www.w3.org/2000/svg">
<path d="M323.61 102.864C321.434 98.236 318.239 94.1944 314.277 91.0608C297.542 77.6496 219.226 16.5504 180.693 15.2832C137.405 13.8432 -4.23266 180.562 8.92734 196.243C22.0873 211.925 184.861 235.421 203.896 230.803C222.931 226.186 312.629 137.616 320.945 127.507C328.263 118.613 326.634 109.44 323.61 102.864Z" fill="#7577FF"/>
<path opacity="0.7" d="M323.61 102.864C321.434 98.236 318.239 94.1944 314.277 91.0608C297.542 77.6496 219.226 16.5504 180.693 15.2832C137.405 13.8432 -4.23266 180.562 8.92734 196.243C22.0873 211.925 184.861 235.421 203.896 230.803C222.931 226.186 312.629 137.616 320.945 127.507C328.263 118.613 326.634 109.44 323.61 102.864Z" fill="white"/>
<path opacity="0.3" d="M308.826 66.9311C308.826 66.9311 305.709 51.2591 295.316 52.3295C290.593 52.8095 287.434 55.2479 284.695 59.0495C281.181 63.9023 279.921 61.0799 274.895 62.6735C270.396 64.1135 271.087 68.0159 268.315 68.7263C265.543 69.4367 263.471 66.2351 259.658 66.9455C255.845 67.6559 253.773 71.5775 253.773 71.5775H323.022C322.842 70.2452 322.286 68.9961 321.425 67.9838C320.564 66.9716 319.433 66.2403 318.173 65.8799C313.675 64.4399 311.593 68.0015 308.826 66.9311Z" stroke="black" stroke-miterlimit="10"/>
<path opacity="0.3" d="M96.7307 33.8256C96.7307 33.8256 94.6027 23.112 87.5 23.8464C84.2707 24.1776 82.1147 25.8432 80.2433 28.4256C77.84 31.7424 76.9767 29.8128 73.542 30.9024C70.4667 31.8768 70.9333 34.56 69.0667 35.04C67.2 35.52 65.7533 33.336 63.154 33.8256C60.5547 34.3152 59.1313 36.9888 59.1313 36.9888H106.433C106.307 36.0842 105.928 35.2368 105.342 34.5498C104.756 33.8628 103.989 33.366 103.133 33.12C100.044 32.1216 98.6253 34.56 96.7307 33.8256Z" stroke="black" stroke-miterlimit="10"/>
<g opacity="0.3">
<path d="M240.205 20.0247L230.592 40.7925L265.547 57.9107L275.16 37.1429L240.205 20.0247Z" stroke="black" stroke-miterlimit="10"/>
<path d="M244.281 24.4801C243.973 25.1437 243.422 25.6544 242.748 25.9001C242.075 26.1458 241.334 26.1064 240.688 25.7905C240.586 25.7421 240.488 25.6859 240.394 25.6225L234.873 37.5601C234.98 37.5945 235.085 37.6362 235.186 37.6849C235.831 38.0025 236.328 38.5705 236.567 39.2643C236.806 39.9581 236.767 40.721 236.46 41.3857C236.436 41.4368 236.41 41.4865 236.381 41.5345L261.357 53.7601C261.357 53.7073 261.399 53.6545 261.422 53.6017C261.729 52.9372 262.28 52.4254 262.954 52.1787C263.628 51.9321 264.369 51.9708 265.015 52.2865C265.116 52.3383 265.215 52.396 265.309 52.4593L270.83 40.5361C270.723 40.4999 270.619 40.4566 270.517 40.4065C269.878 40.0864 269.387 39.5191 269.153 38.8285C268.919 38.1378 268.96 37.3799 269.267 36.7201C269.314 36.6152 269.368 36.5141 269.43 36.4177L244.403 24.1729C244.369 24.2778 244.328 24.3804 244.281 24.4801ZM256.881 40.9153C256.506 41.7297 255.905 42.4114 255.153 42.8738C254.401 43.3362 253.532 43.5586 252.657 43.5126C251.782 43.4667 250.94 43.1546 250.238 42.6159C249.536 42.0771 249.005 41.336 248.712 40.4865C248.42 39.637 248.379 38.7174 248.596 37.8441C248.812 36.9709 249.276 36.1834 249.928 35.5815C250.58 34.9797 251.391 34.5905 252.259 34.4633C253.126 34.3361 254.01 34.4767 254.8 34.8673C255.324 35.1247 255.793 35.4857 256.181 35.9297C256.569 36.3737 256.868 36.892 257.062 37.455C257.255 38.018 257.338 38.6146 257.307 39.2108C257.277 39.807 257.132 40.391 256.881 40.9297V40.9153Z" stroke="black" stroke-miterlimit="10"/>
</g>
<g opacity="0.3">
<path d="M32.1002 31.7908L22.4869 52.5586L57.4418 69.6768L67.0551 48.909L32.1002 31.7908Z" stroke="black" stroke-miterlimit="10"/>
<path d="M36.1667 36.2542C36.0147 36.5832 35.8011 36.8782 35.5382 37.1222C35.2752 37.3662 34.9681 37.5544 34.6343 37.6762C34.3005 37.7979 33.9467 37.8507 33.593 37.8315C33.2394 37.8124 32.8929 37.7217 32.5733 37.5646C32.4714 37.5162 32.3731 37.4601 32.2793 37.3966L26.7587 49.3198C26.8637 49.353 26.9666 49.3931 27.0667 49.4398C27.3865 49.5961 27.6733 49.8158 27.9105 50.0863C28.1477 50.3567 28.3308 50.6727 28.4491 51.016C28.5675 51.3593 28.6188 51.7233 28.6002 52.087C28.5816 52.4508 28.4934 52.8072 28.3407 53.1358C28.3173 53.1886 28.2893 53.2366 28.2613 53.2894L53.2373 65.5198L53.3027 65.3614C53.4546 65.0324 53.6682 64.7374 53.9312 64.4934C54.1941 64.2494 54.5013 64.0612 54.835 63.9395C55.1688 63.8177 55.5227 63.7649 55.8763 63.7841C56.23 63.8032 56.5765 63.8939 56.896 64.051C56.9979 64.0994 57.0962 64.1555 57.19 64.219L62.7153 52.3198C62.608 52.2814 62.5053 52.243 62.4027 52.195C62.0813 52.0378 61.7933 51.8168 61.5553 51.5446C61.3173 51.2725 61.134 50.9546 61.0161 50.6092C60.8981 50.2639 60.8477 49.8979 60.8678 49.5325C60.8879 49.167 60.9782 48.8092 61.1333 48.4798C61.1804 48.3765 61.235 48.277 61.2967 48.1822L36.288 35.9326C36.2565 36.0432 36.2159 36.1508 36.1667 36.2542ZM48.7667 52.6894C48.3912 53.5008 47.7903 54.1795 47.04 54.6398C46.2897 55.1001 45.4236 55.3213 44.5511 55.2755C43.6786 55.2297 42.8388 54.9189 42.138 54.3824C41.4371 53.846 40.9065 53.1079 40.6133 52.2614C40.3201 51.4149 40.2774 50.4981 40.4906 49.6266C40.7037 48.7552 41.1632 47.9683 41.811 47.3653C42.4588 46.7624 43.2658 46.3705 44.13 46.2391C44.9943 46.1076 45.877 46.2426 46.6667 46.627C47.1916 46.8832 47.6623 47.2433 48.0519 47.6866C48.4416 48.1299 48.7425 48.6479 48.9375 49.2108C49.1325 49.7738 49.2178 50.3707 49.1885 50.9676C49.1592 51.5645 49.0158 52.1495 48.7667 52.6894Z" stroke="black" stroke-miterlimit="10"/>
</g>
<g opacity="0.3">
<path d="M281.772 95.8897L272.159 116.657L307.114 133.776L316.727 113.008L281.772 95.8897Z" stroke="black" stroke-miterlimit="10"/>
<path d="M285.852 100.368C285.7 100.697 285.486 100.993 285.223 101.238C284.96 101.482 284.652 101.671 284.318 101.793C283.984 101.915 283.63 101.968 283.275 101.949C282.921 101.931 282.574 101.84 282.254 101.683C282.151 101.63 282.058 101.573 281.965 101.515L276.444 113.438C276.551 113.474 276.655 113.515 276.757 113.563C277.402 113.881 277.899 114.449 278.138 115.142C278.377 115.836 278.338 116.599 278.031 117.264L277.951 117.413L302.927 129.648C302.944 129.593 302.966 129.54 302.993 129.489C303.143 129.157 303.356 128.858 303.619 128.611C303.882 128.364 304.191 128.173 304.526 128.049C304.862 127.926 305.218 127.872 305.574 127.891C305.93 127.91 306.279 128.001 306.6 128.16C306.703 128.213 306.801 128.27 306.894 128.328L312.41 116.405C312.305 116.369 312.202 116.328 312.102 116.28C311.456 115.963 310.958 115.395 310.718 114.702C310.479 114.008 310.516 113.244 310.823 112.579C310.875 112.478 310.931 112.377 310.991 112.281L285.973 100.051C285.94 100.159 285.899 100.265 285.852 100.368ZM298.452 116.808C298.076 117.621 297.474 118.301 296.722 118.761C295.971 119.222 295.103 119.444 294.229 119.397C293.355 119.351 292.514 119.039 291.812 118.5C291.111 117.962 290.58 117.222 290.288 116.374C289.995 115.526 289.954 114.607 290.169 113.734C290.384 112.862 290.846 112.075 291.496 111.472C292.146 110.87 292.955 110.479 293.821 110.35C294.688 110.22 295.571 110.358 296.361 110.745C297.419 111.265 298.233 112.196 298.624 113.333C299.015 114.469 298.952 115.719 298.447 116.808H298.452Z" stroke="black" stroke-miterlimit="10"/>
</g>
<g opacity="0.3">
<path d="M171.799 61.7065L184.925 80.3293L216.269 56.957L203.144 38.3342L171.799 61.7065Z" stroke="black" stroke-miterlimit="10"/>
<path d="M177.548 60.1728C177.967 60.7686 178.14 61.5114 178.027 62.2378C177.914 62.9642 177.525 63.6147 176.946 64.0463C176.856 64.115 176.761 64.1761 176.661 64.2288L184.198 74.9232C184.279 74.8444 184.365 74.7707 184.455 74.7024C185.035 74.2707 185.758 74.0934 186.465 74.2095C187.172 74.3256 187.805 74.7256 188.225 75.3216C188.258 75.3677 188.287 75.4158 188.314 75.4656L210.714 58.7616L210.611 58.632C210.191 58.0359 210.018 57.2928 210.13 56.5657C210.242 55.8385 210.63 55.1868 211.209 54.7536C211.302 54.6864 211.4 54.6288 211.493 54.5712L203.933 43.8816C203.852 43.96 203.766 44.0338 203.677 44.1023C203.097 44.5325 202.375 44.7089 201.669 44.5928C200.963 44.4768 200.331 44.0777 199.911 43.4831C199.846 43.3927 199.787 43.2981 199.733 43.2L177.333 59.9184C177.411 59.9979 177.482 60.0829 177.548 60.1728ZM197.615 56.664C198.127 57.3919 198.419 58.2599 198.452 59.1582C198.485 60.0564 198.258 60.9446 197.801 61.7105C197.343 62.4763 196.675 63.0854 195.881 63.4608C195.087 63.8362 194.203 63.961 193.34 63.8194C192.477 63.6779 191.674 63.2763 191.033 62.6655C190.391 62.0546 189.941 61.262 189.738 60.3877C189.534 59.5135 189.588 58.5969 189.891 57.7538C190.194 56.9107 190.733 56.179 191.441 55.6512C192.389 54.9447 193.571 54.6545 194.727 54.8445C195.883 55.0344 196.918 55.6889 197.605 56.664H197.615Z" stroke="black" stroke-miterlimit="10"/>
</g>
<g opacity="0.15">
<path d="M22.6147 97.5551C25.5733 97.6559 31.6867 94.9871 31.6913 94.9871C31.696 94.9871 28.756 91.3775 28.5413 91.1759C26.0633 88.8191 19.922 85.7615 16.632 87.6719C14.2567 89.0495 13.86 92.2031 15.3673 94.3919C16.8747 96.5807 20.0947 97.4735 22.6147 97.5551Z" fill="black"/>
<path d="M31.8547 115.056C34.622 114.379 39.4893 110.481 39.8767 110.169C42.0311 113.037 44.3696 115.754 46.8767 118.301C48.3327 119.798 49.8447 121.253 51.3753 122.693C50.582 122.145 49.868 121.656 49.7607 121.598C46.76 120 40.054 118.718 37.3707 121.459C35.434 123.432 35.8633 126.576 37.8793 128.289C39.8953 130.003 43.2273 129.969 45.682 129.365C48.1367 128.76 52.3833 125.525 53.4893 124.646L55.2627 126.293C58.1233 128.904 60.984 131.496 63.714 134.126C64.6753 135.053 65.5807 136.003 66.514 136.949C65.8047 136.469 65.2073 136.056 65.114 135.989C62.118 134.39 55.412 133.109 52.724 135.849C50.7873 137.817 51.2167 140.966 53.2327 142.675C55.2487 144.384 58.5807 144.36 61.0353 143.755C63.4107 143.174 67.326 140.222 68.642 139.195C69.5753 140.193 70.4713 141.192 71.3113 142.2C71.8713 142.901 72.4593 143.539 72.982 144.278L74.564 146.414C75.4973 147.811 76.5193 149.246 77.42 150.633C78.0547 151.593 78.638 152.515 79.2353 153.451C78.302 152.491 76.3933 150.725 76.216 150.571C73.4907 148.521 67.0507 146.213 63.9893 148.502C61.7867 150.149 61.7493 153.326 63.49 155.333C65.2307 157.339 68.53 157.824 71.0407 157.613C73.808 157.377 78.9973 154.43 79.6413 154.061C80.6213 155.601 81.5547 157.113 82.418 158.558C83.1927 159.845 83.9113 161.078 84.588 162.254L86.7907 161.357C86.0207 160.075 85.1993 158.736 84.308 157.325C83.3233 155.755 82.2407 154.094 81.1113 152.4C82.4934 151.049 83.7976 149.616 85.0173 148.109C87.5887 149.376 93.1047 149.832 93.814 149.885C93.814 151.728 93.772 153.518 93.716 155.213C93.6849 156.374 93.6429 157.494 93.59 158.573L95.9233 157.613C95.9233 156.845 95.9513 156.067 95.956 155.261C95.9793 153.389 95.956 151.387 95.956 149.333C96.67 149.208 102.517 148.118 104.823 146.505C106.904 145.037 109.153 142.574 109.279 139.829C109.405 137.083 107.413 134.707 104.697 134.861C100.921 135.072 97.342 141.043 96.488 144.403C96.4367 144.6 96.1193 146.803 95.9467 148.214C95.9467 147.374 95.9187 146.563 95.8907 145.699C95.844 143.99 95.7507 142.286 95.6527 140.453C95.578 139.569 95.5033 138.681 95.424 137.779C95.3447 136.877 95.1953 135.945 95.0833 135.019C94.7753 132.878 94.3693 130.723 93.9073 128.563C95.3633 128.515 100.52 128.285 102.802 127.152C105.084 126.019 107.665 123.941 108.192 121.248C108.719 118.555 107.105 115.891 104.393 115.622C100.632 115.243 96.2173 120.59 94.8733 123.782C94.7893 123.979 94.0753 126.379 93.7113 127.704C93.422 126.408 93.142 125.112 92.8107 123.806C91.8773 120.048 90.776 116.275 89.7167 112.502C89.39 111.345 89.082 110.193 88.7833 109.037C89.3013 109.037 95.438 108.883 97.9953 107.597C100.268 106.473 102.858 104.39 103.385 101.697C103.913 99.0047 102.298 96.3407 99.5867 96.0719C95.8253 95.6927 91.406 101.04 90.0667 104.232C89.964 104.472 88.942 107.928 88.7273 108.816C88.032 106.272 87.36 103.733 86.8 101.198C86.0271 97.7814 85.4706 94.3165 85.134 90.8255C85.372 90.8255 91.784 90.7055 94.402 89.3855C96.67 88.2623 99.26 86.1791 99.7873 83.4863C100.315 80.7935 98.7 78.1295 95.9887 77.8559C92.2273 77.4815 87.8127 82.8287 86.4687 86.0159C86.366 86.2703 85.2693 89.9807 85.1153 90.6719C85.1153 90.4703 85.0547 90.2591 85.0407 90.0575C84.7946 86.5391 84.854 83.0051 85.218 79.4975C85.3953 77.5775 85.6847 75.7247 85.974 73.9391C87.1733 74.0447 92.6427 74.4575 95.1253 73.5551C97.5007 72.6911 100.301 70.9151 101.108 68.2991C101.915 65.6831 100.599 62.8511 97.9347 62.2751C94.234 61.4783 89.2733 66.2927 87.6027 69.3071C87.5093 69.4703 86.7627 71.2271 86.24 72.5423C86.3893 71.7407 86.5293 70.9055 86.7067 70.1423C87.2947 67.2623 88.004 64.6655 88.6527 62.3711C89.0307 61.0655 89.3993 59.8943 89.754 58.8047C90.9767 58.2767 95.8907 56.0879 97.6547 54.1487C99.4187 52.2095 101.066 49.3487 100.613 46.6415C100.161 43.9343 97.7247 42.0527 95.0973 42.8015C91.4573 43.8479 89.2127 50.4815 89.0773 53.9423C89.0773 54.2399 89.4087 58.9535 89.4693 58.9247L89.544 58.8959C89.18 59.9375 88.8067 61.0607 88.4193 62.2943C87.7193 64.5791 86.954 67.1711 86.3007 70.0463C85.5662 73.1383 85.0068 76.2716 84.6253 79.4303C84.1831 82.9645 84.0472 86.5321 84.2193 90.0911V90.2207C83.8273 89.1551 82.6373 86.2127 82.5207 85.9967C80.878 82.9631 75.9873 78.0911 72.254 78.8495C69.5847 79.3919 68.2547 82.2623 69.02 84.8351C69.7853 87.4079 72.576 89.2703 74.9467 90.1583C77.6207 91.1615 83.7667 90.6767 84.2567 90.6383C84.5203 94.2571 85.0176 97.8538 85.7453 101.405C86.1607 103.473 86.6367 105.547 87.1453 107.616C86.7767 106.709 86.4407 105.897 86.38 105.787C84.7373 102.753 79.8467 97.8815 76.1133 98.6399C73.444 99.1871 72.1093 102.053 72.8747 104.625C73.64 107.198 76.4353 109.061 78.806 109.949C81.1767 110.837 86.4593 110.549 87.8453 110.429C88.0507 111.221 88.242 112.013 88.4473 112.829C89.4273 116.63 90.426 120.413 91.294 124.161C91.5973 125.481 91.854 126.792 92.1107 128.102C91.784 127.291 91.504 126.614 91.448 126.518C89.8053 123.48 84.9147 118.608 81.1813 119.366C78.512 119.913 77.1773 122.784 77.9427 125.357C78.708 127.929 81.5033 129.792 83.874 130.68C86.1653 131.539 91.014 131.304 92.666 131.193C92.89 132.542 93.1327 133.896 93.282 135.216C93.3707 136.118 93.5153 136.982 93.5573 137.894C93.5993 138.806 93.674 139.689 93.73 140.573C93.7813 142.281 93.842 144.043 93.8513 145.713C93.8513 146.87 93.8513 147.979 93.8513 149.073C93.562 147.758 92.918 145.19 92.8667 144.984C91.7318 142.157 89.9095 139.678 87.5747 137.784C87.4633 137.464 87.3227 137.155 87.1547 136.862C85.8107 134.553 82.852 133.646 80.6633 135.317C77.63 137.635 77.8633 144.648 78.9367 147.936C79.002 148.128 79.926 150.153 80.528 151.421C80.0613 150.734 79.618 150.057 79.128 149.352C78.1947 147.955 77.182 146.587 76.118 145.113L74.494 143.011C73.962 142.301 73.318 141.614 72.7253 140.904C71.3253 139.291 69.8273 137.726 68.2827 136.185C69.4727 135.321 73.6493 132.201 74.9467 129.945C76.244 127.689 77.28 124.512 76.2767 121.968C75.2733 119.424 72.4967 118.128 70.0887 119.429C66.7473 121.248 65.9353 128.213 66.5233 131.63C66.5607 131.846 67.2513 134.251 67.6573 135.566C66.724 134.645 65.7907 133.723 64.82 132.825C62.02 130.229 59.08 127.694 56.1727 125.145C55.2813 124.368 54.404 123.581 53.522 122.798C53.9467 122.496 58.9913 118.891 60.4427 116.385C61.7353 114.158 62.776 110.947 61.7727 108.403C60.7693 105.859 57.9927 104.563 55.5847 105.864C52.2433 107.688 51.4267 114.653 52.0193 118.07C52.0613 118.329 53.06 121.785 53.3587 122.654C51.4173 120.926 49.4947 119.184 47.67 117.374C45.1923 114.963 42.8682 112.389 40.712 109.67C40.9127 109.526 46.1907 105.792 47.6793 103.224C48.972 100.997 50.0127 97.7903 49.0093 95.2463C48.006 92.7023 45.2293 91.4063 42.826 92.7071C39.48 94.5263 38.668 101.491 39.256 104.909C39.3027 105.177 40.3807 108.897 40.6233 109.56C40.4973 109.401 40.3527 109.253 40.2313 109.08C38.141 106.334 36.292 103.402 34.706 100.32C33.8147 98.6063 33.0587 96.9167 32.3727 95.2559C33.4227 94.6655 38.206 91.8959 39.7927 89.7455C41.314 87.6767 42.6953 84.6047 41.9673 81.9647C41.2393 79.3247 38.6213 77.7119 36.092 78.7439C32.5733 80.1839 31.0193 87.0047 31.2387 90.4703C31.2387 90.6575 31.5793 92.5583 31.8407 93.9407C31.5327 93.1871 31.206 92.4143 30.9073 91.6847C29.8527 88.9487 29.0407 86.4047 28.364 84.0959C27.9813 82.7951 27.6593 81.6095 27.37 80.5007C28.1073 79.3631 31.0287 74.7407 31.4627 72.1295C31.8967 69.5183 31.7333 66.1967 29.904 64.1951C28.0747 62.1935 25.032 62.0063 23.2447 64.1183C20.7667 67.0559 22.4467 73.8575 24.178 76.8287C24.3273 77.0831 27.1413 80.8175 27.1787 80.7599L27.2253 80.6927C27.482 81.7679 27.7713 82.9199 28.1073 84.1679C28.7513 86.4719 29.5073 89.0639 30.5013 91.8479C31.544 94.8454 32.7579 97.7769 34.1367 100.627C35.6624 103.826 37.4631 106.878 39.5173 109.747L39.5967 109.848C38.696 109.181 36.1247 107.405 35.91 107.289C32.914 105.691 26.208 104.409 23.5247 107.15C21.588 109.123 22.0127 112.267 24.0333 113.981C26.054 115.694 29.4 115.68 31.8547 115.056Z" fill="black"/>
<path d="M85.526 73.4064C85.596 73.4064 85.0173 68.7312 84.9473 68.4432C84.14 65.0832 80.6587 59.0352 76.888 58.7616C74.172 58.56 72.1513 60.9696 72.2213 63.6528C72.2913 66.336 74.5127 68.8992 76.5707 70.4016C78.9927 72.1632 85.5213 73.4064 85.526 73.4064Z" fill="black"/>
</g>
<g opacity="0.15">
<path d="M182.686 147.49C186.111 147.605 193.186 144.518 193.195 144.514C193.205 144.509 189.798 140.338 189.551 140.102C186.676 137.371 179.569 133.834 175.756 136.046C173.007 137.64 172.55 141.288 174.295 143.832C176.041 146.376 179.765 147.394 182.686 147.49Z" fill="black"/>
<path d="M251.939 218.165L252.21 218.645H255.304C254.926 218.026 254.534 217.402 254.133 216.758C252.989 214.939 251.734 213.014 250.427 211.056C252.027 209.492 253.537 207.833 254.949 206.088C257.927 207.552 264.311 208.08 265.137 208.142C265.137 210.278 265.085 212.352 265.025 214.31C264.983 215.659 264.931 216.95 264.875 218.198L267.577 217.094C267.577 216.206 267.61 215.304 267.619 214.363C267.619 212.198 267.619 209.885 267.587 207.504C268.417 207.355 275.184 206.102 277.853 204.23C280.261 202.531 282.87 199.675 283.015 196.502C283.159 193.33 280.859 190.57 277.704 190.742C273.336 190.987 269.192 197.904 268.203 201.782C268.142 202.013 267.778 204.576 267.573 206.194C267.573 205.234 267.54 204.274 267.507 203.28C267.456 201.302 267.349 199.33 267.237 197.208C267.146 196.187 267.058 195.155 266.971 194.112C266.905 193.075 266.705 191.99 266.574 190.915C266.219 188.438 265.748 185.942 265.216 183.442C266.896 183.389 272.874 183.115 275.515 181.805C278.157 180.494 281.143 178.09 281.755 174.974C282.366 171.859 280.495 168.773 277.359 168.456C273 168.019 267.885 174.216 266.331 177.898C266.233 178.128 265.398 180.907 264.983 182.438C264.651 180.941 264.329 179.438 263.947 177.931C262.841 173.578 261.59 169.205 260.363 164.837C259.985 163.502 259.625 162.163 259.261 160.829C259.859 160.829 266.966 160.651 269.925 159.182C272.557 157.882 275.557 155.467 276.164 152.352C276.771 149.237 274.909 146.15 271.768 145.834C267.409 145.397 262.299 151.594 260.745 155.275C260.629 155.554 259.443 159.552 259.191 160.584C258.389 157.637 257.614 154.694 256.965 151.762C256.069 147.809 255.423 143.8 255.033 139.762C255.309 139.762 262.733 139.622 265.767 138.12C268.399 136.814 271.395 134.4 272.006 131.285C272.617 128.17 270.751 125.083 267.61 124.771C263.251 124.33 258.141 130.531 256.583 134.213C256.461 134.501 255.183 138.802 255.015 139.598C255.015 139.363 254.949 139.118 254.931 138.888C254.646 134.824 254.715 130.742 255.136 126.691C255.341 124.45 255.659 122.318 256.013 120.254C257.413 120.374 263.732 120.85 266.607 119.808C269.36 118.81 272.599 116.75 273.532 113.722C274.465 110.693 272.949 107.419 269.859 106.747C265.575 105.821 259.835 111.398 257.894 114.907C257.791 115.099 256.923 117.149 256.317 118.656C256.489 117.725 256.653 116.765 256.835 115.877C257.516 112.517 258.342 109.536 259.089 106.877C259.527 105.37 259.952 103.997 260.367 102.749C261.767 102.139 267.47 99.6 269.514 97.3584C271.558 95.1168 273.467 91.8 272.939 88.6704C272.412 85.5408 269.593 83.352 266.555 84.2208C262.355 85.4304 259.737 93.1008 259.583 97.1184C259.583 97.464 259.961 102.922 260.05 102.878L260.139 102.845C259.719 104.05 259.285 105.35 258.832 106.781C258.025 109.426 257.138 112.426 256.382 115.757C255.532 119.336 254.884 122.963 254.441 126.619C253.931 130.712 253.775 134.843 253.974 138.965C253.974 139.013 253.974 139.066 253.974 139.114C253.507 137.88 252.14 134.472 252.005 134.222C250.105 130.709 244.421 125.069 240.128 125.947C237.034 126.581 235.494 129.902 236.395 132.878C237.295 135.854 240.515 138.014 243.255 139.042C246.349 140.208 253.47 139.642 254.035 139.594C254.341 143.788 254.918 147.958 255.761 152.074C256.228 154.474 256.793 156.874 257.381 159.274C256.951 158.218 256.564 157.277 256.499 157.152C254.595 153.638 248.915 147.998 244.617 148.877C241.523 149.51 239.983 152.832 240.884 155.808C241.785 158.784 245.005 160.944 247.749 161.971C250.493 162.998 256.615 162.662 258.221 162.547C258.454 163.464 258.687 164.386 258.911 165.302C260.05 169.699 261.207 174.082 262.211 178.421C262.565 179.947 262.859 181.464 263.144 182.981C262.766 182.05 262.439 181.262 262.374 181.147C260.475 177.634 254.795 171.994 250.497 172.872C247.403 173.506 245.863 176.827 246.764 179.803C247.665 182.779 250.885 184.939 253.629 185.966C256.284 186.965 261.898 186.691 263.811 186.562C264.073 188.126 264.334 189.691 264.521 191.218C264.623 192.264 264.791 193.262 264.843 194.323C264.894 195.384 264.978 196.402 265.043 197.424C265.099 199.402 265.174 201.442 265.183 203.376C265.183 204.715 265.183 205.997 265.183 207.288C264.847 205.762 264.129 202.79 264.045 202.55C262.727 199.282 260.618 196.415 257.917 194.222C257.785 193.853 257.621 193.496 257.427 193.157C255.873 190.483 252.443 189.432 249.914 191.366C246.4 194.05 246.647 202.171 247.912 205.978C247.987 206.203 249.055 208.546 249.779 210.014C249.237 209.218 248.724 208.435 248.164 207.614C247.058 205.997 245.91 204.413 244.678 202.704L242.811 200.27C242.2 199.445 241.453 198.653 240.767 197.832C239.143 195.965 237.412 194.15 235.634 192.37C237.011 191.371 241.85 187.752 243.348 185.17C244.846 182.587 246.05 178.877 244.888 175.93C243.726 172.982 240.515 171.47 237.725 172.992C233.856 175.099 232.913 183.163 233.595 187.123C233.637 187.368 234.439 190.152 234.906 191.674C233.823 190.608 232.75 189.542 231.639 188.501C228.373 185.496 224.999 182.558 221.629 179.616C220.598 178.714 219.581 177.806 218.559 176.894C219.053 176.544 224.891 172.373 226.576 169.474C228.069 166.891 229.278 163.176 228.111 160.234C226.945 157.291 223.739 155.774 220.953 157.291C217.084 159.403 216.137 167.462 216.818 171.422C216.869 171.72 218.027 175.742 218.372 176.731C216.123 174.73 213.897 172.714 211.783 170.64C208.914 167.847 206.224 164.866 203.728 161.717C203.961 161.554 210.075 157.229 211.797 154.258C213.295 151.675 214.499 147.965 213.337 145.018C212.175 142.07 208.959 140.558 206.173 142.08C202.305 144.187 201.362 152.251 202.043 156.206C202.095 156.518 203.345 160.829 203.625 161.592C203.481 161.41 203.313 161.237 203.159 161.05C200.706 157.812 198.54 154.355 196.686 150.72C195.655 148.733 194.777 146.779 193.965 144.854C195.183 144.168 200.723 140.971 202.561 138.475C204.321 136.075 205.917 132.523 205.077 129.466C204.237 126.408 201.203 124.536 198.273 125.731C194.199 127.392 192.402 135.298 192.673 139.31C192.673 139.531 193.069 141.71 193.368 143.333C193.013 142.459 192.631 141.562 192.309 140.717C191.091 137.554 190.162 134.578 189.364 131.933C188.921 130.426 188.547 129.053 188.216 127.766C189.07 126.451 192.453 121.109 192.953 118.075C193.443 115.114 193.265 111.202 191.151 108.888C189.037 106.574 185.505 106.354 183.437 108.802C180.567 112.205 182.504 120.077 184.539 123.514C184.716 123.811 187.969 128.136 188.015 128.069L188.067 127.992C188.365 129.235 188.697 130.57 189.093 132.014C189.835 134.678 190.703 137.688 191.861 140.89C193.067 144.358 194.469 147.751 196.061 151.051C197.828 154.754 199.913 158.288 202.291 161.611L202.384 161.726C201.343 160.954 198.361 158.899 198.119 158.765C194.647 156.912 186.881 155.434 183.773 158.602C181.533 160.886 182.028 164.53 184.361 166.512C186.695 168.494 190.554 168.456 193.396 167.76C196.597 166.973 202.235 162.48 202.683 162.101C205.182 165.423 207.895 168.569 210.803 171.518C212.487 173.246 214.237 174.931 216.011 176.602C215.077 175.963 214.265 175.402 214.144 175.334C210.672 173.482 202.911 172.003 199.799 175.171C197.559 177.451 198.053 181.099 200.391 183.077C202.729 185.054 206.579 185.026 209.421 184.325C212.263 183.624 217.182 179.875 218.461 178.862C219.151 179.496 219.828 180.134 220.519 180.782C223.827 183.806 227.141 186.806 230.319 189.854C231.434 190.925 232.493 192.024 233.557 193.123C232.736 192.557 232.045 192.086 231.933 192.024C228.461 190.176 220.696 188.693 217.588 191.861C215.343 194.146 215.843 197.789 218.176 199.771C220.509 201.754 224.369 201.715 227.211 201.019C229.959 200.342 234.495 196.93 236.017 195.739C237.076 196.896 238.135 198.053 239.111 199.224C239.759 200.035 240.436 200.774 241.043 201.624L242.872 204.096C243.983 205.714 245.135 207.374 246.181 208.982C246.913 210.091 247.581 211.162 248.281 212.242C247.184 211.162 244.991 209.088 244.79 208.939C241.631 206.568 234.173 203.894 230.631 206.539C228.079 208.459 228.032 212.131 230.053 214.45C232.073 216.768 235.886 217.33 238.793 217.09C241.999 216.821 248.005 213.408 248.752 212.976C249.858 214.747 250.941 216.48 251.939 218.165Z" fill="black"/>
<path d="M255.528 119.52C255.607 119.52 254.935 114.106 254.856 113.76C253.923 109.853 249.891 102.869 245.523 102.552C242.373 102.322 240.035 105.106 240.128 108.216C240.221 111.326 242.783 114.288 245.163 116.03C247.963 118.08 255.523 119.52 255.528 119.52Z" fill="black"/>
</g>
<path d="M79.8933 162.475H25.8253V173.357H79.8933V162.475Z" fill="white" stroke="#263238" stroke-linecap="round" stroke-linejoin="round"/>
<path d="M94.864 151.042H40.796V162.475H94.864V151.042Z" fill="white" stroke="#263238" stroke-linecap="round" stroke-linejoin="round"/>
<path d="M109.839 139.603H55.7713V151.037H109.839V139.603Z" fill="white" stroke="#263238" stroke-linecap="round" stroke-linejoin="round"/>
<path d="M124.81 128.17H70.742V139.603H124.81V128.17Z" fill="white" stroke="#263238" stroke-linecap="round" stroke-linejoin="round"/>
<path d="M140.341 218.626V128.17H124.815V139.603H109.839V151.042H94.8686V162.475H79.8933V218.626H140.341Z" fill="#263238" stroke="#263238" stroke-linecap="round" stroke-linejoin="round"/>
<path d="M140.341 207.739H86.2726V218.621H140.341V207.739Z" fill="white" stroke="#263238" stroke-linecap="round" stroke-linejoin="round"/>
<path d="M71.302 207.739H125.37V196.306H71.302V207.739Z" fill="white" stroke="#263238" stroke-linecap="round" stroke-linejoin="round"/>
<path d="M56.3267 196.306H110.395V184.867H56.3267V196.306Z" fill="white" stroke="#263238" stroke-linecap="round" stroke-linejoin="round"/>
<path d="M41.3513 184.867H95.4193V173.434H41.3513V184.867Z" fill="white" stroke="#263238" stroke-linecap="round" stroke-linejoin="round"/>
<path d="M25.8253 218.626V173.434H41.3513V184.867H56.322V196.306H71.2973V207.739H86.2727V218.626H25.8253Z" fill="#263238" stroke="#263238" stroke-linecap="round" stroke-linejoin="round"/>
<path d="M302.652 149.909L299.133 161.76L291.331 155.592C291.213 154.823 291.057 154.06 290.864 153.307C290.71 152.933 289.781 151.819 289.571 151.387C289.361 150.955 289.058 151.334 289.058 151.656C289.058 151.978 289.781 153.038 289.781 153.038L289.417 153.408L286.524 151.992C286.49 151.976 286.454 151.967 286.417 151.966C286.38 151.964 286.343 151.97 286.308 151.984C286.273 151.997 286.242 152.017 286.215 152.044C286.187 152.07 286.166 152.101 286.151 152.136C286.123 152.195 286.117 152.261 286.132 152.324C286.147 152.388 286.184 152.443 286.235 152.482L287.817 153.73L287.611 154.152L284.975 153.038C284.941 153.025 284.906 153.018 284.87 153.019C284.834 153.02 284.799 153.028 284.766 153.043C284.733 153.058 284.704 153.08 284.679 153.108C284.655 153.135 284.637 153.167 284.625 153.202C284.607 153.26 284.608 153.323 284.63 153.381C284.651 153.438 284.69 153.487 284.741 153.518L287.145 154.958L285.577 155.275C285.54 155.283 285.506 155.298 285.475 155.321C285.445 155.343 285.419 155.371 285.4 155.404C285.382 155.438 285.37 155.474 285.365 155.512C285.361 155.55 285.365 155.589 285.376 155.626C285.394 155.68 285.428 155.727 285.473 155.76C285.518 155.794 285.572 155.812 285.628 155.813H287.247L285.847 156.341C285.847 156.341 286.029 156.758 286.314 156.744L287.971 156.662L290.402 156.821C290.402 156.821 298.303 165.341 298.564 165.6C298.825 165.859 300.375 166.44 300.683 166.123C300.991 165.806 304.458 161.496 304.458 161.496L303.94 150.336C303.94 150.336 303.427 149.28 302.652 149.909Z" fill="white" stroke="#263238" stroke-linecap="round" stroke-linejoin="round"/>
<path d="M304.519 136.239C304.519 136.239 303.011 136.344 302.302 133.839C301.593 131.333 303.413 130.623 304.421 130.416C305.429 130.21 305.629 127.93 307.342 127.618C309.055 127.306 310.865 128.76 311.271 130.018C311.677 131.275 314.295 129.394 315.803 131.055C317.31 132.715 317.203 135.922 317.203 137.064C317.203 138.207 320.628 138.413 320.628 141.106C320.628 143.799 320.222 145.147 320.423 145.56C320.623 145.973 322.135 154.459 322.135 154.459H303.333C303.333 154.459 302.731 148.258 303.436 146.703C304.141 145.147 304.747 145.042 305.046 143.592C305.345 142.143 305.046 139.863 304.845 138.826C304.694 137.97 304.585 137.106 304.519 136.239Z" fill="#263238" stroke="#263238" stroke-linecap="round" stroke-linejoin="round"/>
<path d="M308.149 147.12L302.507 147.226L303.613 161.419L314.295 162.25L319.331 147.533L313.287 147.019L308.149 147.12Z" fill="#263238" stroke="#263238" stroke-linecap="round" stroke-linejoin="round"/>
<path d="M306.334 132.922C306.334 132.922 304.822 135.101 304.519 136.238C304.122 137.554 304.035 138.947 304.267 140.304C304.57 141.859 305.429 144.427 306.031 144.624C306.633 144.821 308.247 144.624 308.247 144.624L308.149 147.11H307.342L307.44 150.84L311.271 151.046L313.287 147.005L312.279 146.798L311.575 140.688C311.575 140.688 312.578 139.546 312.681 138.715C312.738 138.303 312.772 137.888 312.783 137.472C312.783 137.472 311.575 138.408 310.567 137.472C309.559 136.536 309.255 135.504 308.952 134.467C308.649 133.43 308.047 132.605 307.552 132.605C307.132 132.642 306.721 132.749 306.334 132.922Z" fill="white" stroke="#263238" stroke-linecap="round" stroke-linejoin="round"/>
<path d="M308.247 144.634L309.96 144.01L308.35 145.877L308.247 144.634Z" fill="#263238" stroke="#263238" stroke-linecap="round" stroke-linejoin="round"/>
<path d="M303.613 161.419L302.507 165.048C302.507 165.048 298.475 169.502 297.668 177.792C296.861 186.082 298.172 194.27 298.578 197.587C298.984 200.904 302.867 215.563 302.867 215.563H305.489C305.489 215.563 304.519 201.941 304.519 200.592V193.027L311.925 213.974L314.347 214.08C314.347 214.08 313.376 204.187 312.774 200.16C312.358 197.513 311.789 194.894 311.071 192.317C311.071 192.317 316.4 181.44 316.4 173.962C316.4 166.483 314.585 164.842 314.585 164.842L314.286 162.25L303.613 161.419Z" fill="#BABABA" stroke="#263238" stroke-linecap="round" stroke-linejoin="round"/>
<path d="M306.847 172.8C307.197 171.183 307.44 170.117 307.44 170.117" stroke="#263238" stroke-linecap="round" stroke-linejoin="round"/>
<path d="M304.519 193.027C304.519 193.027 304.117 190.954 304.421 186.499C304.598 183.869 305.615 178.646 306.423 174.806" stroke="#263238" stroke-linecap="round" stroke-linejoin="round"/>
<path d="M302.867 215.563C302.867 215.563 298.135 217.843 298.135 218.362C298.135 218.88 305.69 218.362 305.69 218.362C305.865 217.864 305.933 217.334 305.891 216.806C305.829 216.371 305.693 215.95 305.489 215.563H302.867Z" fill="white" stroke="#263238" stroke-linecap="round" stroke-linejoin="round"/>
<path d="M311.925 213.974C311.925 213.974 309.713 216.878 309.003 217.603C308.294 218.328 308.499 218.846 309.106 218.846C309.713 218.846 313.138 218.64 313.74 218.227C314.082 218 314.387 217.72 314.645 217.397L314.347 214.08L311.925 213.974Z" fill="white" stroke="#263238" stroke-linecap="round" stroke-linejoin="round"/>
<path d="M318.733 149.4C318.733 149.4 319.643 163.181 318.836 164.635C318.029 166.09 315.714 165.255 315.513 164.635C315.313 164.016 315.714 158.621 315.714 158.621L318.733 149.4Z" fill="white" stroke="#263238" stroke-linecap="round" stroke-linejoin="round"/>
<path d="M294.196 116.441L251.489 122.842L262.263 198.892L304.969 192.491L294.196 116.441Z" fill="#7577FF" stroke="#263238" stroke-linecap="round" stroke-linejoin="round"/>
<path d="M291.583 127.949C290.906 128.051 290.217 128.014 289.554 127.842C288.891 127.67 288.267 127.365 287.719 126.944C287.171 126.524 286.708 125.996 286.358 125.392C286.008 124.788 285.778 124.118 285.679 123.422C285.652 123.203 285.637 122.982 285.633 122.76L261.109 126.432C261.17 126.644 261.217 126.861 261.249 127.08C261.447 128.486 261.094 129.915 260.268 131.053C259.442 132.192 258.211 132.947 256.844 133.152C256.737 133.152 256.634 133.176 256.527 133.186L264.217 187.522C264.325 187.498 264.427 187.474 264.535 187.459C265.212 187.357 265.903 187.394 266.567 187.567C267.23 187.741 267.854 188.047 268.403 188.469C268.951 188.891 269.413 189.42 269.763 190.026C270.112 190.632 270.341 191.303 270.438 192C270.469 192.219 270.486 192.441 270.489 192.662L295.008 188.99C294.948 188.776 294.903 188.558 294.873 188.338C294.774 187.642 294.809 186.933 294.977 186.251C295.144 185.57 295.441 184.929 295.85 184.365C296.258 183.802 296.771 183.327 297.359 182.967C297.946 182.608 298.597 182.371 299.273 182.27C299.487 182.239 299.702 182.221 299.917 182.218L292.213 127.81C292.005 127.868 291.795 127.915 291.583 127.949ZM279.449 166.349C277.779 166.599 276.074 166.335 274.55 165.588C273.025 164.842 271.751 163.648 270.886 162.156C270.022 160.665 269.607 158.943 269.694 157.209C269.781 155.475 270.366 153.807 271.375 152.415C272.384 151.022 273.771 149.969 275.362 149.388C276.953 148.807 278.675 148.725 280.312 149.15C281.948 149.576 283.425 150.492 284.556 151.781C285.687 153.07 286.42 154.676 286.664 156.394C286.829 157.536 286.772 158.701 286.499 159.821C286.225 160.941 285.739 161.994 285.069 162.921C284.399 163.847 283.557 164.629 282.593 165.22C281.629 165.812 280.56 166.202 279.449 166.368V166.349Z" fill="white" stroke="#263238" stroke-linecap="round" stroke-linejoin="round"/>
<path d="M287.101 118.065L245.239 129.607L264.666 204.154L306.528 192.613L287.101 118.065Z" fill="#7577FF" stroke="#263238" stroke-width="1.00424" stroke-linecap="round" stroke-linejoin="round"/>
<path d="M284.452 129.778C283.118 130.144 281.698 129.951 280.503 129.241C279.307 128.531 278.435 127.362 278.077 125.99C278.025 125.775 277.983 125.557 277.951 125.338L254.016 131.923C254.098 132.128 254.168 132.338 254.226 132.552C254.403 133.232 254.448 133.94 254.359 134.638C254.269 135.335 254.047 136.008 253.704 136.617C253.362 137.226 252.906 137.759 252.363 138.187C251.82 138.614 251.2 138.928 250.539 139.109C250.437 139.138 250.329 139.157 250.227 139.181L264.021 192.226L264.329 192.125C264.99 191.943 265.678 191.896 266.356 191.988C267.034 192.08 267.688 192.308 268.28 192.66C268.872 193.011 269.391 193.48 269.806 194.038C270.222 194.596 270.527 195.233 270.704 195.912C270.759 196.127 270.802 196.345 270.83 196.565L294.765 189.979C294.684 189.774 294.613 189.564 294.555 189.35C294.199 187.978 294.387 186.516 295.079 185.287C295.77 184.057 296.908 183.161 298.242 182.794C298.45 182.734 298.662 182.691 298.877 182.664L285.063 129.562C284.864 129.647 284.66 129.719 284.452 129.778ZM276.733 169.387C275.102 169.831 273.379 169.767 271.783 169.204C270.187 168.641 268.789 167.604 267.766 166.224C266.742 164.844 266.14 163.182 266.034 161.45C265.928 159.718 266.324 157.992 267.171 156.491C268.018 154.99 269.279 153.781 270.794 153.017C272.309 152.253 274.01 151.968 275.683 152.198C277.356 152.428 278.924 153.162 280.191 154.309C281.458 155.456 282.366 156.963 282.8 158.64C283.089 159.755 283.162 160.919 283.014 162.063C282.865 163.207 282.499 164.31 281.935 165.309C281.372 166.307 280.622 167.181 279.729 167.881C278.837 168.581 277.819 169.093 276.733 169.387Z" fill="white" stroke="#263238" stroke-linecap="round" stroke-linejoin="round"/>
<path d="M316.4 162.355L301.387 162.043C301.387 162.043 298.363 161.006 297.859 161.006C297.151 161.124 296.455 161.305 295.778 161.549C295.713 161.57 295.658 161.615 295.624 161.675C295.589 161.735 295.578 161.807 295.591 161.875C295.606 161.947 295.647 162.01 295.707 162.052C295.766 162.093 295.838 162.109 295.909 162.096L297.36 161.837L297.761 162.144L294.854 164.064C294.795 164.103 294.752 164.164 294.735 164.235C294.718 164.305 294.727 164.379 294.761 164.443C294.794 164.508 294.851 164.557 294.919 164.58C294.986 164.603 295.06 164.599 295.125 164.568L297.309 163.512L297.383 164.078L295.05 165.331C294.976 165.371 294.919 165.438 294.89 165.518C294.861 165.599 294.861 165.688 294.891 165.768C294.922 165.845 294.978 165.908 295.05 165.947C295.122 165.985 295.204 165.997 295.283 165.979L296.137 165.778C296.236 165.902 296.367 165.993 296.515 166.042C296.664 166.091 296.823 166.094 296.973 166.051L298.564 165.571L297.556 166.234C297.517 166.258 297.484 166.291 297.459 166.331C297.435 166.371 297.42 166.416 297.416 166.463C297.412 166.509 297.419 166.557 297.436 166.6C297.453 166.644 297.48 166.683 297.514 166.714C297.565 166.754 297.627 166.776 297.691 166.776C297.756 166.776 297.818 166.754 297.869 166.714L299.885 165.298L301.611 164.165L316.825 166.92C316.825 166.92 318.108 167.035 318.332 166.771C318.556 166.507 318.99 164.011 319.027 163.368" fill="white"/>
<path d="M316.4 162.355L301.387 162.043C301.387 162.043 298.363 161.006 297.859 161.006C297.151 161.124 296.455 161.305 295.778 161.549C295.713 161.57 295.658 161.615 295.624 161.675C295.589 161.735 295.578 161.807 295.591 161.875C295.606 161.947 295.647 162.01 295.707 162.052C295.766 162.093 295.838 162.109 295.909 162.096L297.36 161.837L297.761 162.144L294.854 164.064C294.795 164.103 294.752 164.164 294.735 164.235C294.718 164.305 294.727 164.379 294.761 164.443C294.794 164.508 294.851 164.557 294.919 164.58C294.986 164.603 295.06 164.599 295.125 164.568L297.309 163.512L297.383 164.078L295.05 165.331C294.976 165.371 294.919 165.438 294.89 165.518C294.861 165.599 294.861 165.688 294.891 165.768C294.922 165.845 294.978 165.908 295.05 165.947C295.122 165.985 295.204 165.997 295.283 165.979L296.137 165.778C296.236 165.902 296.367 165.993 296.515 166.042C296.664 166.091 296.823 166.094 296.973 166.051L298.564 165.571L297.556 166.234C297.517 166.258 297.484 166.291 297.459 166.331C297.435 166.371 297.42 166.416 297.416 166.463C297.412 166.509 297.419 166.557 297.436 166.6C297.453 166.644 297.48 166.683 297.514 166.714C297.565 166.754 297.627 166.776 297.691 166.776C297.756 166.776 297.818 166.754 297.869 166.714L299.885 165.298L301.611 164.165L316.825 166.92C316.825 166.92 318.108 167.035 318.332 166.771C318.556 166.507 318.99 164.011 319.027 163.368" stroke="#263238" stroke-linecap="round" stroke-linejoin="round"/>
<path d="M296.142 165.787L298.2 164.995" stroke="#263238" stroke-linecap="round" stroke-linejoin="round"/>
<path d="M305.867 137.597C305.867 137.952 305.69 138.245 305.466 138.245C305.242 138.245 305.065 137.952 305.065 137.597C305.065 137.242 305.247 136.954 305.466 136.954C305.685 136.954 305.867 137.242 305.867 137.597Z" fill="#263238"/>
<path d="M308.121 138.087C308.121 138.442 307.939 138.73 307.72 138.73C307.501 138.73 307.319 138.442 307.319 138.087C307.319 137.731 307.501 137.443 307.72 137.443C307.939 137.443 308.121 137.731 308.121 138.087Z" fill="#263238"/>
<path d="M304.967 136.133C304.967 136.133 305.368 135.614 306.166 136.181" stroke="#263238" stroke-linecap="round" stroke-linejoin="round"/>
<path d="M307.267 136.44C307.541 136.329 307.845 136.332 308.117 136.447C308.389 136.563 308.606 136.782 308.723 137.059" stroke="#263238" stroke-linecap="round" stroke-linejoin="round"/>
<path d="M306.269 137.626C306.322 137.934 306.305 138.252 306.217 138.552C306.068 138.912 305.368 139.579 305.419 139.738C305.471 139.896 305.816 139.992 305.816 139.992" stroke="#263238" stroke-linecap="round" stroke-linejoin="round"/>
<path d="M305.368 141.23C305.368 141.23 306.768 141.898 307.869 140.971" stroke="#263238" stroke-linecap="round" stroke-linejoin="round"/>
<path d="M149.623 101.986C158.504 101.986 165.704 94.5801 165.704 85.4449C165.704 76.3096 158.504 68.9041 149.623 68.9041C140.741 68.9041 133.541 76.3096 133.541 85.4449C133.541 94.5801 140.741 101.986 149.623 101.986Z" fill="white" stroke="#263238" stroke-linecap="round" stroke-linejoin="round"/>
<path d="M151.247 101.986C160.128 101.986 167.328 94.5801 167.328 85.4449C167.328 76.3096 160.128 68.9041 151.247 68.9041C142.365 68.9041 135.165 76.3096 135.165 85.4449C135.165 94.5801 142.365 101.986 151.247 101.986Z" fill="white" stroke="#263238" stroke-linecap="round" stroke-linejoin="round"/>
<path d="M160.898 95.3685C166.227 89.8874 166.227 81.0008 160.898 75.5197C155.569 70.0386 146.929 70.0386 141.6 75.5197C136.272 81.0008 136.272 89.8874 141.6 95.3685C146.929 100.85 155.569 100.85 160.898 95.3685Z" fill="white" stroke="#263238" stroke-linecap="round" stroke-linejoin="round"/>
<path d="M110.852 83.3999L111.361 107.65L111.155 124.891L113.899 124.474C113.899 124.474 116.849 108.274 116.849 107.333C116.849 106.392 118.473 94.3727 118.473 94.3727L121.52 109.944L123.102 124.886L125.846 124.469C125.846 124.469 126.196 108.269 126.196 105.346C126.196 102.422 126.056 83.6015 126.056 83.6015L117.455 81.3071L110.852 83.3999Z" fill="#263238" stroke="#263238" stroke-linecap="round" stroke-linejoin="round"/>
<path d="M113.899 124.474C113.899 124.474 117.964 127.19 117.357 127.834C116.751 128.477 113.391 127.834 112.476 127.728C112.053 127.711 111.639 127.605 111.258 127.416L111.155 124.906L113.899 124.474Z" fill="white" stroke="#263238" stroke-linecap="round" stroke-linejoin="round"/>
<path d="M125.846 124.474C125.846 124.474 129.911 127.19 129.299 127.834C128.688 128.477 125.337 127.834 124.423 127.728C124 127.711 123.586 127.605 123.205 127.416L123.102 124.906L125.846 124.474Z" fill="white" stroke="#263238" stroke-linecap="round" stroke-linejoin="round"/>
<path d="M146.795 68.4047L150.458 67.5359C150.458 67.5359 153.977 69.4559 154.271 69.7295C154.565 70.0031 153.977 70.0319 153.337 70.0319C152.335 69.894 151.342 69.6904 150.365 69.4223C150.365 69.4223 151.9 69.9023 151.653 70.1375C151.514 70.2482 151.354 70.328 151.184 70.3718C151.014 70.4156 150.836 70.4224 150.663 70.3919C150.416 70.3391 149.473 70.1855 149.473 70.1855C149.473 70.1855 147.84 70.1375 147.345 70.0319L146.851 69.9311L146.795 68.4047Z" fill="white" stroke="#263238" stroke-linecap="round" stroke-linejoin="round"/>
<path d="M123.097 53.4623C123.097 53.4623 114.763 58.2623 113.689 59.6399C112.616 61.0175 112.257 67.9343 111.538 72.8207C111.068 76.4581 110.798 80.12 110.731 83.7887C110.731 83.7887 116.737 84.6191 120.064 84.5279C122.094 84.4638 124.11 84.1545 126.07 83.6063C126.07 83.6063 127.237 77.4287 127.503 76.5071C127.769 75.5855 129.925 64.5071 129.925 64.5071L136.556 69.9455H146.795V68.3855C146.795 68.3855 138.693 66.4655 138.605 66.1631C138.516 65.8607 131.703 55.8383 129.64 54.6431C127.577 53.4479 124.535 52.3535 123.097 53.4623Z" fill="#7577FF" stroke="#263238" stroke-linecap="round" stroke-linejoin="round"/>
<path d="M123.905 50.7888L122.383 54.5664C122.383 54.5664 121.665 54.7536 121.847 56.2272C122.029 57.7008 123.816 61.848 124.441 61.7568C125.067 61.6656 127.041 56.16 127.041 56.16L123.905 50.7888Z" fill="white" stroke="#263238" stroke-linecap="round" stroke-linejoin="round"/>
<path d="M124.763 54.96L125.398 59.9952L126.593 57.5184L124.763 54.96Z" fill="#263238" stroke="#263238" stroke-linecap="round" stroke-linejoin="round"/>
<path d="M132.421 48.576C132.716 48.8315 133.081 48.9867 133.466 49.0203C133.85 49.0538 134.235 48.964 134.568 48.7632C135.917 48.1152 136.542 46.7328 135.375 45.6288C134.209 44.5248 133.583 45.72 133.224 44.2464C132.865 42.7728 131.432 41.76 130.2 42.1248C128.968 42.4896 129.397 42.9552 128.501 43.2288C127.605 43.5024 126.439 42.6768 125.272 43.8768C124.105 45.0768 123.928 47.9328 123.662 49.224C123.396 50.5152 124.558 50.88 125.529 50.7888C126.499 50.6976 127.321 48.576 128.128 47.9088C128.935 47.2416 132.421 48.576 132.421 48.576Z" fill="#263238" stroke="#263238" stroke-linecap="round" stroke-linejoin="round"/>
<path d="M123.727 51.1584C123.727 51.1584 123.816 53.184 124.194 53.832C124.572 54.48 126.061 57.5184 126.611 57.5184C127.185 57.5594 127.762 57.4961 128.315 57.3312C128.674 57.1488 130.107 55.2144 131.003 53.5536C131.899 51.8928 132.44 48.576 132.44 48.576C132.44 48.576 128.137 45.8112 127.867 46.3632C127.596 46.9152 127.689 47.7456 127.241 47.8368C126.793 47.928 125.809 48.024 125.809 48.024C125.809 48.024 126.075 49.3152 125.715 49.5888C125.356 49.8624 124.46 49.3152 124.46 49.3152C124.46 49.3152 123.368 49.4976 123.727 51.1584Z" fill="white" stroke="#263238" stroke-linecap="round" stroke-linejoin="round"/>
<path d="M128.711 51.4849C128.632 51.8353 128.413 52.0849 128.245 52.0417C128.077 51.9985 127.965 51.6721 128.044 51.3217C128.123 50.9713 128.343 50.7169 128.534 50.7649C128.725 50.8129 128.8 51.1345 128.711 51.4849Z" fill="#263238"/>
<path d="M131.054 52.1567C130.97 52.5119 130.755 52.7567 130.564 52.7135C130.373 52.6703 130.284 52.3439 130.363 51.9935C130.443 51.6431 130.662 51.3887 130.83 51.4367C130.998 51.4847 131.133 51.8063 131.054 52.1567Z" fill="#263238"/>
<path d="M127.731 50.1648C127.731 50.1648 128.086 49.872 129.131 50.1648" stroke="#263238" stroke-linecap="round" stroke-linejoin="round"/>
<path d="M130.704 50.8223C130.891 50.8442 131.071 50.9075 131.232 51.0077C131.393 51.1079 131.532 51.2428 131.637 51.4031" stroke="#263238" stroke-linecap="round" stroke-linejoin="round"/>
<path d="M129.925 52.1328L129.57 54.096L128.441 53.952" stroke="#263238" stroke-linecap="round" stroke-linejoin="round"/>
<path d="M128.086 55.1136C128.086 55.1136 127.022 55.1136 126.686 53.5872" stroke="#263238" stroke-linecap="round" stroke-linejoin="round"/>
<path d="M124.889 50.1455C124.889 50.1455 124.712 48.0239 123.905 48.0239C123.097 48.0239 122.383 49.9439 122.831 50.7887C123.279 51.6335 124.441 51.8927 124.441 51.8927" fill="white"/>
<path d="M124.889 50.1455C124.889 50.1455 124.712 48.0239 123.905 48.0239C123.097 48.0239 122.383 49.9439 122.831 50.7887C123.279 51.6335 124.441 51.8927 124.441 51.8927" stroke="#263238" stroke-linecap="round" stroke-linejoin="round"/>
<path d="M117.74 61.2913L119.294 74.5393L132.361 79.1329L132.566 80.6881L115.094 78.2401L112.294 63.3313C111.953 61.5217 112.859 59.5585 114.114 58.4593C115.369 57.3601 117.339 57.3025 117.339 57.3025" fill="#7577FF"/>
<path d="M117.74 61.2913L119.294 74.5393L132.361 79.1329L132.566 80.6881L115.094 78.2401L112.294 63.3313C111.953 61.5217 112.859 59.5585 114.114 58.4593C115.369 57.3601 117.339 57.3025 117.339 57.3025" stroke="#263238" stroke-linecap="round" stroke-linejoin="round"/>
<path d="M132.342 79.1329C132.342 79.1329 134.423 78.5329 134.675 78.4801C134.927 78.4273 136.341 79.5553 136.621 79.5937C136.901 79.6321 137.377 79.7233 137.354 80.1025C137.331 80.4817 137.209 80.7889 136.528 80.5489C136.14 80.419 135.763 80.2585 135.399 80.0689C136.039 80.7427 136.718 81.3759 137.433 81.9649C137.691 82.1311 137.926 82.3312 138.133 82.5601C138.165 82.5948 138.188 82.6368 138.201 82.6825C138.214 82.7282 138.216 82.7765 138.208 82.8232C138.199 82.87 138.18 82.9141 138.151 82.9517C138.123 82.9894 138.086 83.0197 138.045 83.0401C137.486 83.3134 136.883 83.4762 136.267 83.5201C135.268 83.5201 132.533 80.6929 132.533 80.6929L132.342 79.1329Z" fill="white" stroke="#263238" stroke-linecap="round" stroke-linejoin="round"/>
<path d="M213.827 118.445C213.827 118.445 227.183 110.698 229.129 111.446C231.075 112.195 227.425 127.435 226.94 128.434C226.455 129.432 213.827 118.445 213.827 118.445Z" fill="#7577FF" stroke="#263238" stroke-linecap="round" stroke-linejoin="round"/>
<path d="M228.396 113.448C228.396 113.448 227.817 114.374 227.08 115.709C225.792 118.042 224.028 121.622 224.028 123.691C224.028 126.936 225.969 126.686 226.455 124.171L228.153 116.923" stroke="#263238" stroke-linecap="round" stroke-linejoin="round"/>
<path d="M116.135 159.091C119.797 159.091 122.766 155.116 122.766 150.211C122.766 145.307 119.797 141.331 116.135 141.331C112.472 141.331 109.503 145.307 109.503 150.211C109.503 155.116 112.472 159.091 116.135 159.091Z" fill="#7577FF" stroke="#263238" stroke-linecap="round" stroke-linejoin="round"/>
<path d="M176.241 213.931C211.138 213.931 239.428 189.297 239.428 158.909C239.428 128.521 211.138 103.886 176.241 103.886C141.344 103.886 113.055 128.521 113.055 158.909C113.055 189.297 141.344 213.931 176.241 213.931Z" fill="#7577FF" stroke="#263238" stroke-linecap="round" stroke-linejoin="round"/>
<path d="M217.28 196.838C206.547 205.632 192.127 211.022 176.241 211.022C147.891 211.022 124.143 193.853 117.964 170.803" fill="#7577FF"/>
<path d="M217.28 196.838C206.547 205.632 192.127 211.022 176.241 211.022C147.891 211.022 124.143 193.853 117.964 170.803" stroke="#263238" stroke-width="2" stroke-linecap="round" stroke-linejoin="round"/>
<path d="M116.433 160.637C116.41 160.066 116.401 159.49 116.401 158.909C116.402 152.625 117.684 146.412 120.162 140.669" fill="#7577FF"/>
<path d="M116.433 160.637C116.41 160.066 116.401 159.49 116.401 158.909C116.402 152.625 117.684 146.412 120.162 140.669" stroke="#263238" stroke-width="2" stroke-linecap="round" stroke-linejoin="round"/>
<path d="M157.267 109.944C169.701 106.328 182.866 106.328 195.3 109.944" stroke="#263238" stroke-width="5" stroke-linecap="round" stroke-linejoin="round"/>
<path d="M235.928 141.926C235.928 141.926 243.945 139.176 245.159 140.678C246.372 142.181 246.372 159.662 245.401 162.912C244.431 166.162 237.869 165.408 233.268 161.914C231.949 160.961 230.881 159.685 230.161 158.202C229.441 156.719 229.091 155.075 229.143 153.418" fill="#7577FF"/>
<path d="M235.928 141.926C235.928 141.926 243.945 139.176 245.159 140.678C246.372 142.181 246.372 159.662 245.401 162.912C244.431 166.162 237.869 165.408 233.268 161.914C231.949 160.961 230.881 159.685 230.161 158.202C229.441 156.719 229.091 155.075 229.143 153.418" stroke="#263238" stroke-linecap="round" stroke-linejoin="round"/>
<path d="M231.07 152.669L226.212 153.418" stroke="#263238" stroke-linecap="round" stroke-linejoin="round"/>
<path d="M229.857 158.165C229.857 158.165 228.643 166.91 230.099 167.16C231.555 167.41 233.987 162.912 233.987 162.912C233.987 162.912 230.585 158.914 229.857 158.165Z" fill="#263238" stroke="#263238" stroke-linecap="round" stroke-linejoin="round"/>
<path d="M225.437 137.683C225.904 139.483 225.619 141.115 224.84 141.322C224.061 141.528 223.067 140.232 222.614 138.442C222.161 136.651 222.432 135.01 223.211 134.803C223.991 134.597 224.989 135.878 225.437 137.683Z" fill="#263238"/>
<path d="M199.915 113.472C199.915 113.472 215.199 97.752 218.181 100.819C221.163 103.886 220.047 117.307 220.047 119.227V124.594" fill="#7577FF"/>
<path d="M199.915 113.472C199.915 113.472 215.199 97.752 218.181 100.819C221.163 103.886 220.047 117.307 220.047 119.227V124.594" stroke="#263238" stroke-linecap="round" stroke-linejoin="round"/>
<path d="M218.685 104.203C218.685 104.203 218.927 100.205 217.224 102.705C215.521 105.206 210.667 122.438 212.123 124.44C213.579 126.441 217.723 125.438 218.685 121.689C219.646 117.941 218.927 107.198 218.927 107.198" stroke="#263238" stroke-linecap="round" stroke-linejoin="round"/>
<path d="M135.025 195.379L143.388 218.626H152.619L156.744 206.63" fill="#7577FF"/>
<path d="M135.025 195.379L143.388 218.626H152.619L156.744 206.63" stroke="#263238" stroke-linecap="round" stroke-linejoin="round"/>
<path d="M212.123 198.389L204.111 218.625H194.88L190.75 206.63" fill="#7577FF"/>
<path d="M212.123 198.389L204.111 218.625H194.88L190.75 206.63" stroke="#263238" stroke-linecap="round" stroke-linejoin="round"/>
<path opacity="0.35" d="M191.095 158.28C199.487 158.28 206.29 151.504 206.29 143.146C206.29 134.787 199.487 128.011 191.095 128.011C182.704 128.011 175.901 134.787 175.901 143.146C175.901 151.504 182.704 158.28 191.095 158.28Z" fill="white"/>
<path d="M7.48067 218.625H344.101" stroke="#263238" stroke-linecap="round" stroke-linejoin="round"/>
<path d="M150.816 92V89.536H147.696V88.352H150.816V87.328H147.696V86.128H150.288L146.512 80.192H149.28L150.752 83.072C151.344 84.288 151.536 84.704 151.968 85.584H152.064C152.512 84.704 152.736 84.24 153.28 83.072L154.72 80.192H157.44L153.68 86.128H156.256V87.328H153.168V88.352H156.256V89.536H153.168V92H150.816Z" fill="#263238"/>
<path d="M171.04 177V170.84H163.24V167.88H171.04V165.32H163.24V162.32H169.72L160.28 147.48H167.2L170.88 154.68C172.36 157.72 172.84 158.76 173.92 160.96H174.16C175.28 158.76 175.84 157.6 177.2 154.68L180.8 147.48H187.6L178.2 162.32H184.64V165.32H176.92V167.88H184.64V170.84H176.92V177H171.04Z" fill="#263238"/>
</svg>
