<?xml version="1.0" encoding="UTF-8"?>
<svg id="_レイヤー_2" data-name="レイヤー 2" xmlns="http://www.w3.org/2000/svg" viewBox="0 0 97.85 175.96">
  <defs>
    <style>
      .cls-1 {
        fill: #ec6d65;
      }

      .cls-2 {
        fill: #76c1e5;
      }

      .cls-3 {
        fill: #addef8;
      }

      .cls-4, .cls-5 {
        fill: #fff;
      }

      .cls-5 {
        opacity: .4;
      }

      .cls-6 {
        fill: #7ea8d2;
      }
    </style>
  </defs>
  <g id="_レイヤー_4" data-name="レイヤー 4">
    <g>
      <path class="cls-6" d="M31.08,163.08c.16,2.09.29,3.92.38,5.43.6,9.7,34.82,10.1,35.49.16.1-1.52.25-3.39.43-5.52-10.49.86-25.8.83-36.3-.06Z"/>
      <path class="cls-1" d="M28.88,148.63C17.01,155.95-.01,161.48,0,159.11c.07-15.61,13.06-32.71,25.66-45.12,2.27,11.92,3.22,27.25,3.22,34.63Z"/>
      <path class="cls-1" d="M68.97,148.63c11.87,7.33,28.89,12.86,28.88,10.48-.07-15.61-13.06-32.71-25.66-45.12-2.27,11.92-3.22,27.25-3.22,34.63Z"/>
      <path class="cls-2" d="M27.9,159.46c-1.2-19.48-7.57-82.4-5.44-103.3C25.24,28.81,43.07,0,50.18,0s25.66,33.92,26.99,55.12c1.57,24.86-5.4,85.81-6.66,104.53-.8,11.94-41.9,11.46-42.61-.19Z"/>
      <path class="cls-1" d="M67.38,22.74C61.35,10.11,54.06,0,50.18,0c-4.11,0-11.8,9.64-18.1,23.06,11.73,1.28,23.6,1.17,35.31-.32Z"/>
      <g>
        <path class="cls-4" d="M34.69,85.67c-5.06-8.24-3.75-20.29,3.91-26.2,6.69-5.16,17.02-4.56,23.4.99,6.38,5.54,8.5,15.28,5.49,23.18-1.13,2.97-2.98,5.75-5.63,7.5-7.8,5.13-22.3,2.46-27.17-5.46Z"/>
        <path class="cls-3" d="M38.17,83.25c-3.93-6.4-2.91-15.76,3.04-20.35,5.2-4.01,13.21-3.54,18.17.77,4.96,4.31,6.6,11.86,4.26,18-.88,2.3-2.31,4.47-4.37,5.82-6.06,3.99-17.32,1.91-21.1-4.24Z"/>
        <path class="cls-5" d="M58.16,65.17c-.1-.08-.2-.17-.3-.25-1.91-1.55-4.79-.44-5.18,1.98-.59,3.66-1.88,7.21-3.82,10.37-.97,1.58-2.11,3.05-3.37,4.4-1.67,1.78-.84,4.67,1.51,5.31,3.82,1.04,8.15.75,11.07-1.18,1.78-1.17,3.02-3.05,3.79-5.04,2.03-5.31.6-11.86-3.69-15.59Z"/>
      </g>
      <path class="cls-1" d="M50.23,117.84c1.15,2.2,1.9,4.4,2.51,6.61.61,2.2,1.03,4.4,1.33,6.61.54,4.4.68,8.81.61,13.21-.09,4.4-.59,8.81-1.12,13.21-.29,2.2-.47,4.4-.86,6.61-.44,2.2-1.11,4.4-2.47,6.61-.18.29-.56.38-.85.2-.08-.05-.15-.12-.2-.2-1.37-2.2-2.04-4.4-2.47-6.61-.39-2.2-.57-4.4-.86-6.61-.53-4.4-1.02-8.81-1.12-13.21-.07-4.4.07-8.81.61-13.21.29-2.2.72-4.4,1.33-6.61.61-2.2,1.36-4.4,2.51-6.61.15-.29.51-.4.8-.25.11.06.2.15.25.25Z"/>
    </g>
  </g>
</svg>