<?xml version="1.0" encoding="UTF-8"?>
<svg id="_レイヤー_2" data-name="レイヤー 2" xmlns="http://www.w3.org/2000/svg" viewBox="0 0 357.61 407.77">
  <defs>
    <style>
      .cls-1 {
        fill: #ec6d65;
      }

      .cls-2 {
        fill: #76c1e5;
      }

      .cls-3 {
        fill: #addef8;
      }

      .cls-4, .cls-5 {
        fill: #fff;
      }

      .cls-5 {
        opacity: .4;
      }

      .cls-6 {
        fill: #d8ebf5;
      }

      .cls-7 {
        fill: #7ea8d2;
      }
    </style>
  </defs>
  <g id="_レイヤー_4" data-name="レイヤー 4">
    <g>
      <path class="cls-6" d="M4.71,407.77c-6.52-8.71-6.24-21.86.65-30.28s20.26-11.82,30.09-7.16c-7.64-11.79-1.99-26.9,10.18-33.92,12.17-7.02,29.74-1.81,36.11,10.71-6.09-10.94-4.49-20.77,2.79-30.95,7.29-10.18,20.67-15.6,32.99-13.36-.93-15.23,12-30.2,26.65-34.47,14.65-4.27,31.8,2.8,39.19,16.15,6.99-7,18.3-10.03,27.55-6.51,9.25,3.52,16.03,12.76,16.6,22.64,11.92-7.95,27.09-5.06,37.57,4.7,9.46,8.8,12.51,23.61,7.85,35.57,11.59-8.45,27.52-7.46,40.31-.34,13.57,7.56,21.53,24.05,19.01,39.38,6.77-2.98,14.9-1.09,20.28,3.99,8.56,8.08,3.69,23.86,3.69,23.86H4.71Z"/>
      <path class="cls-6" d="M137.72,289.93c5.81-2.76,11.59-5.68,16.69-9.61,5.1-3.92,9.51-8.93,11.85-14.93,2.62-6.73,2.65-14.18,2.49-21.41-.37-16.51-.45-48.69-.89-65.2h10.34c-.45,16.51-.52,48.69-.89,65.2-.16,7.22-.13,14.67,2.49,21.41,2.33,5.99,6.75,11,11.85,14.93,5.1,3.92,10.88,6.84,16.69,9.61h-70.62Z"/>
      <g>
        <path class="cls-7" d="M155.19,163.08c.16,2.09.29,3.92.38,5.43.6,9.7,34.82,10.1,35.49.16.1-1.52.25-3.39.43-5.52-10.49.86-25.8.83-36.3-.06Z"/>
        <path class="cls-1" d="M152.98,148.63c-11.87,7.33-28.89,12.86-28.88,10.48.07-15.61,13.06-32.71,25.66-45.12,2.27,11.92,3.22,27.25,3.22,34.63Z"/>
        <path class="cls-1" d="M193.07,148.63c11.87,7.33,28.89,12.86,28.88,10.48-.07-15.61-13.06-32.71-25.66-45.12-2.27,11.92-3.22,27.25-3.22,34.63Z"/>
        <path class="cls-2" d="M152,159.46c-1.2-19.48-7.57-82.4-5.44-103.3,2.79-27.36,20.61-56.16,27.72-56.16s25.66,33.92,26.99,55.12c1.57,24.86-5.4,85.81-6.66,104.53-.8,11.94-41.9,11.46-42.61-.19Z"/>
        <path class="cls-1" d="M191.49,22.74c-6.04-12.63-13.33-22.74-17.21-22.74-4.11,0-11.8,9.64-18.1,23.06,11.73,1.28,23.6,1.17,35.31-.32Z"/>
        <g>
          <path class="cls-4" d="M158.8,85.67c-5.06-8.24-3.75-20.29,3.91-26.2,6.69-5.16,17.02-4.56,23.4.99,6.38,5.54,8.5,15.28,5.49,23.18-1.13,2.97-2.98,5.75-5.63,7.5-7.8,5.13-22.3,2.46-27.17-5.46Z"/>
          <path class="cls-3" d="M162.27,83.25c-3.93-6.4-2.91-15.76,3.04-20.35,5.2-4.01,13.21-3.54,18.17.77,4.96,4.31,6.6,11.86,4.26,18-.88,2.3-2.31,4.47-4.37,5.82-6.06,3.99-17.32,1.91-21.1-4.24Z"/>
          <path class="cls-5" d="M182.26,65.17c-.1-.08-.2-.17-.3-.25-1.91-1.55-4.79-.44-5.18,1.98-.59,3.66-1.88,7.21-3.82,10.37-.97,1.58-2.11,3.05-3.37,4.4-1.67,1.78-.84,4.67,1.51,5.31,3.82,1.04,8.15.75,11.07-1.18,1.78-1.17,3.02-3.05,3.79-5.04,2.03-5.31.6-11.86-3.69-15.59Z"/>
        </g>
        <path class="cls-1" d="M174.34,117.84c1.15,2.2,1.9,4.4,2.51,6.61.61,2.2,1.03,4.4,1.33,6.61.54,4.4.68,8.81.61,13.21-.09,4.4-.59,8.81-1.12,13.21-.29,2.2-.47,4.4-.86,6.61-.44,2.2-1.11,4.4-2.47,6.61-.18.29-.56.38-.85.2-.08-.05-.15-.12-.2-.2-1.37-2.2-2.04-4.4-2.47-6.61-.39-2.2-.57-4.4-.86-6.61-.53-4.4-1.02-8.81-1.12-13.21-.07-4.4.07-8.81.61-13.21.29-2.2.72-4.4,1.33-6.61.61-2.2,1.36-4.4,2.51-6.61.15-.29.51-.4.8-.25.11.06.2.15.25.25Z"/>
      </g>
    </g>
  </g>
</svg>