<?xml version="1.0" encoding="UTF-8"?>
<svg id="_レイヤー_2" data-name="レイヤー 2" xmlns="http://www.w3.org/2000/svg" viewBox="0 0 71.88 172.9">
  <defs>
    <style>
      .cls-1 {
        fill: #fff;
      }

      .cls-2 {
        fill: none;
      }

      .cls-3 {
        fill: #e4bec6;
        fill-rule: evenodd;
      }
    </style>
  </defs>
  <g id="_レイヤー_1-2" data-name="レイヤー 1">
    <g id="stars">
      <g>
        <polygon class="cls-3" points="56.47 3.9 56.81 5.53 56.34 6.61 55.72 7.65 55.53 8.82 55.3 9.97 54.89 11.09 54.45 12.21 54.45 13.46 53.61 14.45 53.65 15.72 52.65 16.64 52.6 17.89 52.19 19.02 51.77 20.14 51.34 21.25 51.05 22.43 50 23.3 49.68 24.46 49.59 25.71 48.76 26.66 48.21 27.72 47.69 28.8 47.81 30.17 46.81 31.02 46.21 32.06 46.25 33.42 45.73 34.5 44.47 35.19 44.19 36.4 43.86 37.59 43.19 38.59 42.05 39.3 42.12 40.74 41.15 41.55 40.37 42.47 39.92 43.6 39.46 44.74 38.36 45.44 37.94 46.61 37.08 47.46 36.24 48.32 35.7 49.41 35.25 50.59 34.47 51.5 33.33 52.11 32.92 53.34 31.91 54.05 30.83 54.68 30.64 56.15 29.38 56.6 28.78 57.69 27.78 58.39 26.95 59.25 25.7 59.66 25.33 61.05 24.01 61.34 23.06 62.07 22.22 62.93 21.36 63.78 20.2 64.21 19.24 64.92 18.29 65.66 17.13 66.05 16.3 66.97 15.36 67.74 14.18 68.08 13.15 68.69 12.07 69.19 11.08 69.89 10.12 70.67 8.89 70.86 7.93 71.68 6.73 71.92 5.64 72.43 4.4 72.52 3.25 72.83 2.1 73.16 .86 73.17 0 73.88 .72 74.6 1.47 75.53 2.33 76.37 2.49 77.75 3.79 78.27 4.44 79.28 5.28 80.16 5.67 81.34 6.2 82.41 6.93 83.36 7.53 84.4 8.31 85.33 8.55 86.56 8.84 87.75 9.79 88.61 10.27 89.71 10.24 91.02 11.2 91.91 11.89 92.92 11.53 94.34 12.05 95.41 12.94 96.36 13.02 97.59 13.5 98.69 13.97 99.79 13.94 101.04 14.66 102.07 14.55 103.34 15.03 104.44 15.48 105.56 15.48 106.78 15.51 107.99 16.48 109.01 16.39 110.24 16.65 111.41 16.82 112.59 16.43 113.85 17.15 114.95 17.46 116.11 17.06 117.37 17.35 118.53 17.63 119.69 17.96 120.86 17.53 122.1 17.86 123.27 18.51 124.41 17.9 125.65 17.81 126.85 18.27 128.02 18.63 129.2 18.22 130.41 18.1 131.61 18.04 132.8 18.69 133.98 19 135.17 18.71 136.37 19.05 137.57 18.5 138.76 18.36 139.95 18.52 141.15 18.46 142.34 18.11 143.52 18.2 144.72 18.42 145.92 18.24 147.11 17.98 148.29 18.06 149.49 17.99 150.68 18.07 151.89 17.66 153.05 17.19 154.19 17.11 155.38 17.68 156.67 17.09 157.79 17.07 159 16.83 160.16 16.48 161.29 15.86 162.36 16.35 163.67 15.33 164.65 15.41 165.88 14.95 166.99 15.11 168.21 14.63 169.34 14.51 170.58 15.57 171.48 15.61 172.9 16.92 172.85 17.93 172.27 18.18 171.15 18.99 170.23 18.79 168.97 19.11 167.88 19.31 166.76 19.71 165.67 19.83 164.53 20.12 163.42 20.25 162.26 20.55 161.1 20.85 159.94 21.32 158.83 21.47 157.64 21.31 156.35 22.19 155.36 22.03 154.06 22.52 152.95 23.19 151.92 23.85 150.89 23.86 149.62 24.42 148.55 24.45 147.27 24.92 146.17 25.57 145.14 25.98 144.02 26.61 142.99 27.03 141.86 27.59 140.8 27.96 139.65 28.71 138.69 29.36 137.67 29.46 136.38 29.9 135.25 30.51 134.21 31.41 133.34 31.87 132.23 32.82 131.4 33.45 130.38 34.29 129.5 34.9 128.47 35.35 127.34 35.8 126.2 36.28 125.08 37.42 124.42 37.7 123.15 38.57 122.3 39.03 121.15 39.87 120.28 41.08 119.7 41.07 118.18 42.15 117.5 42.82 116.5 43.54 115.54 44.85 115.08 45 113.63 46.05 112.96 46.61 111.86 47.81 111.33 48.31 110.17 49.54 109.68 49.79 108.26 50.74 107.51 51.61 106.7 52.44 105.81 53.56 105.23 54.48 104.44 55.23 103.47 56.14 102.67 57.29 102.15 57.97 101.1 58.82 100.23 59.88 99.62 60.45 98.4 61.9 98.28 62.88 97.58 63.57 96.47 64.48 95.66 65.51 95 66.42 94.16 67.8 94.12 68.74 93.31 69.65 92.39 71.07 92.61 71.88 91.84 71.21 91.04 70.71 89.89 69.7 89.16 68.85 88.28 68.65 86.94 67.87 86.03 67.32 84.96 66.65 83.96 65.54 83.22 65.28 81.99 64.59 81 63.82 80.03 63.79 78.71 62.68 77.89 62.32 76.73 61.7 75.68 62.03 74.27 60.8 73.43 60.76 72.17 60.91 70.86 60.02 69.87 60.3 68.55 59.64 67.48 59.45 66.29 58.7 65.23 58.5 64.04 58.49 62.81 58.23 61.63 58.4 60.39 58.16 59.21 57.7 58.06 57.98 56.82 57.89 55.62 57.56 54.45 57.49 53.25 57.46 52.05 57.31 50.85 57.18 49.66 56.64 48.47 56.79 47.26 57.48 46.04 56.86 44.85 56.98 43.64 56.66 42.44 56.56 41.23 56.79 40.03 56.59 38.81 56.69 37.59 57.37 36.39 57.42 35.18 56.76 33.93 56.93 32.71 57.58 31.52 57.9 30.32 57.53 29.08 57.72 27.87 58.07 26.68 58.21 25.47 58.06 24.23 57.76 22.98 58.45 21.82 58.42 20.6 58.27 19.35 58.76 18.19 58.23 16.89 59.31 15.81 59.41 14.59 59.55 13.38 59.65 12.09 59.64 11.05 59.61 9.87 59.68 8.7 60.36 7.6 59.95 6.23 60.79 5.18 61.1 3.98 61.19 2.73 60.78 1.54 60.47 .27 59.17 0 59.08 1.36 57.94 1.96 57.01 2.81 56.82 3.92 56.47 3.9"/>
        <g>
          <path class="cls-2" d="M32.41,58.1c-.22.26-.44.52-.69.91.6-.16,1.33-.09.69-.91Z"/>
          <path class="cls-1" d="M71.07,92.61l.81-.77-.67-.8-.5-1.15-1.01-.74-.06-.06c0,.28.03.55.21.78.58.58,1.13,1.13,1.73,1.73-.6.28-1.18.55-1.76.82l1.25.19Z"/>
          <path class="cls-1" d="M51.79,100.1c-.13.49-.23.92-.37,1.47-.45-.39-.77-.66-1.07-.92-.49.28-.98.57-1.48.86-.37,1.57-2.1,2.05-2.77,3.54.44.11.86.21,1.39.34.52-.57.99-1.2,1.58-1.67.43-.34,1.04-.46,1.57-.67,1.2-.47,2.32-1.15,3.47-1.7,1.14-.55,1.84-1.93,3.18-2.15.1-.5.19-.92.25-1.22.93-.57,2.03.24,2.67-.74v-1.4h-2.3c-.71.65-1.31,1.6-2.11,1.8-.85.21-1.29.73-1.89,1.16-.7.51-1.47.91-2.13,1.3Z"/>
          <path class="cls-1" d="M34.5,57.08c-.61,0-.79-.74-1.39-.92-.29.85-1.2.71-1.82,1.07-.76.44-1.32,1.24-1.68,1.6-1.1.32-1.99-.33-2.42.7.97.79,2.11.21,3.12.37.59-.22.74-1.09,1.4-.89.25-.4.47-.65.69-.91.64.83-.09.76-.69.91.32.93,1.05,1.43,1.84,1.84h1.71c.37-.35.89-.84,1.49-1.4-.92-.49-1.11-1.48-2.06-1.44-.17.61.46,1.46-.55,1.81q-.41-1.25.55-1.81v-.9c-.09.02-.18.04-.26.07.03-.04.05-.06.08-.1Z"/>
          <path class="cls-1" d="M16.8,76.48c-.13-.59-.11-1.19-.68-1.59-.32-.22-.6-.49-.89-.73-.75.75-1.41,1.41-2.3,2.3,1.2.95,1.03,2.69,2.41,3.28h.93c.4-.79.79-1.56,1.23-2.43-.17-.19-.63-.47-.7-.83Z"/>
          <path class="cls-1" d="M14.4,101.5h-.14l.4.57-.02.26h.91c.23-1.03.58-1.92-.27-2.74-.3.66-.6,1.3-.88,1.91Z"/>
          <path class="cls-1" d="M37.48,63.74c.11.88.64.89,1.61.91.32-.35.8-.88,1.25-1.39-.35-.42-.62-.73-.9-1.06.79-.67,1.44-1.32.41-2.31-.31.54-.83.83-1.29,1.23,0,0,0,0,0,0,0,0,0,0,0,0-.17.15-.33.31-.47.5-.26.37-1.02.39-1.44.54.31.58.76,1.06.82,1.6Z"/>
          <path class="cls-1" d="M45.15,105.84c-.18-1.07.27-1.91-.57-2.45-.45,0-.9,0-1.35,0,.02.09.04.17.07.26-.06-.05-.11-.1-.17-.14-.88,1.66-.88,1.72-.88,3.66h.36c1.37-.72,2.05-1.08,2.54-1.34Z"/>
          <path class="cls-1" d="M15.26,80.76c-1.73,1.43,1.32,1.99.55,3.25,0,.02.45.31.77.54.34-.14.73-.31,1.09-.46v-3.58c-.55.41-1.01.75-1.44,1.08-.33-.28-.65-.56-.96-.84Z"/>
          <path class="cls-1" d="M37.71,100.47c1.81.5,3.09-.72,4.54-1.32-.45-.45-.89-.89-1.34-1.34-.87,1.07-2.88.7-3.19,2.67Z"/>
          <path class="cls-1" d="M28.1,67.56c-.07.18.23.51.4.86.58,0,1.2.04,1.81-.03.19-.02.34-.35.48-.52-.27-.33-.52-.65-.76-.95.32-.31.54-.54.91-.91-.45-.5-.89-1-1.43-1.6-.59,1.29-1.05,2.2-1.42,3.15Z"/>
          <path class="cls-1" d="M14.18,68.08l-.56.33c.23,0,.46,0,.7,0,.33.31.66.62,1,.93.44-.44.88-.88,1.49-1.49-.25-.25-.5-.5-.71-.72l-.73.59-1.18.35Z"/>
          <path class="cls-1" d="M21.54,116.85s0,.03.01.05c-.01,0-.02-.02-.03-.03-.37.45-.69.84-.99,1.21.7.52,1.07,1.55,2.2,1.39.56-.44,1.11-.87,1.61-1.27-.64-.7-1.06-1.15-1.45-1.57h-1.17c-.06.08-.12.14-.18.21Z"/>
          <path class="cls-1" d="M18.69,133.98l.16.61c.26-.05.5-.18.7-.47-.43-.43-.86-.86-1.32-1.32-.06,0-.13,0-.2-.01v.02s.65,1.18.65,1.18Z"/>
          <path class="cls-1" d="M10.37,71.14s-.06.07-.09.1c1.35-.09,2.28.46,2.64,1.86.09-.02.18-.04.28-.07-.03.04-.06.07-.09.1.69-.03.84-.55.75-1.13-.1-.67,1.39-.81.6-1.62h-4l-.05.04c-.12.3-.21.54-.3.78.08-.02.16-.04.25-.06Z"/>
          <path class="cls-1" d="M17.51,80.34c.73.59,1.14,1.07,1.66,1.27.34.14.84-.12,1.21-.19v-2.29c-1.55-.93-1.91.59-2.88,1.21Z"/>
          <path class="cls-1" d="M32.34,110.98c-.58.76-1.92,1.12-1.13,2.85.88-.18,1.67.24,2.34-.31.75-1.39-.68-1.75-1.2-2.54Z"/>
          <path class="cls-1" d="M38.65,110c.79-.06,1.06-1.35,2.05-.94.61-.56,1.48-.9,1.56-1.89h-1.37c-.3.28-.62.58-.95.88-.37-.26-.75-.53-1.46-1.04v2.95c.09-.02.18-.04.26-.07-.03.04-.06.07-.08.1Z"/>
          <path class="cls-1" d="M37.07,70.36c.96-.43,2.19.53,3.33-.56-.46-.38-.92-.76-1.53-1.26-.36.29-.66.52-.91.72-.41-.32-.71-.55-1.02-.79-.51.67-.53,1.2.13,1.89Z"/>
          <path class="cls-1" d="M30.57,107.1c.4-.86.45-1.79,1.25-2.31-.11-.11-.22-.22-.37-.37h-2.4c-.16,1.6.63,2.14,1.52,2.68Z"/>
          <path class="cls-1" d="M56.46,8.85h.23c-.37-.45-.67-.83-.98-1.2l-.18,1.17v.04h.9s.02,0,.03,0Z"/>
          <path class="cls-1" d="M26.06,112.87c-.64.04-1.16.07-1.63.1-.07.52-.11.8-.15,1.08.49.71.92,1.48,1.78,1.61v-2.8Z"/>
          <path class="cls-1" d="M17.84,120.44l.12.42-.32.94c.12.12.25.25.37.37.82-.44,1.64-.88,2.62-1.4-.99-.34-1.89-.48-2.79-.33Z"/>
          <path class="cls-1" d="M6.38,82.64l.55.72.41.7c-.09-.49-.17-.91-.24-1.28-.25-.04-.49-.1-.72-.15Z"/>
          <path class="cls-1" d="M35.76,86.55c-.31,1.23-.02,1.78,1.46,1.7.22-.35.62-.99,1.03-1.64-.54-.6-1.43-.18-2.49-.06Z"/>
          <path class="cls-1" d="M9.16,84.07v1.36s0,0,0,0c0,0,0,0,0,0v.26c.57-.46,1.01-.82,1.6-1.3.53-.26,1.6.78,2.08-.49-2.2-.39-2.2-.37-3.68.17Z"/>
          <path class="cls-1" d="M18.61,66.06v1.03c.36.14.75.3,1.28.51.47-.58.93-1.14,1.39-1.7-.82-.62-1.76-.67-2.67.16Z"/>
          <path class="cls-1" d="M26.95,109.36c-.68-.58-1.47-.15-2.19-.29-.69,1.62-.65,1.7.93,1.89.41-.54,1.16-.82,1.26-1.6Z"/>
          <path class="cls-1" d="M60.11,70.49c-.27-.05-.53-.1-.64-.12-.99.55-1.61.88-2.16,1.19.67.73,1.07,1.16,1.49,1.63.43-.89.84-1.73,1.31-2.69Z"/>
          <path class="cls-1" d="M59.46,70.37h0c-.09-.02-.07-.01,0,0Z"/>
          <path class="cls-1" d="M29.78,73.05c.09-.48.16-.9.23-1.29-.6-.43-.88-1.17-1.49-1.27-.53.44-.98.82-1.48,1.23.94.46,1.78.86,2.73,1.32Z"/>
          <path class="cls-1" d="M26.1,71.65c-.54-.35-.77-1.14-1.7-1.14v2.63q1.62-.07,1.7-1.49Z"/>
          <path class="cls-1" d="M18.61,108.6c.15.72-.29,1.51.44,2.34.47-.84.91-1.63,1.37-2.45-.54-.58-1.18-.59-1.8.11Z"/>
          <path class="cls-1" d="M18.95,157.42c-.43.43-.86.86-1.29,1.29.09.48-.29,1.18.61,1.28.43-.43.86-.86,1.29-1.29-.09-.48.29-1.18-.61-1.28Z"/>
          <path class="cls-1" d="M28.71,133.65h.19c.05-.03.1-.05.15-.08,0,.03,0,.05,0,.08h.95c.34.02.54.19.73.35l.68-.66.26-.63c-.01-.09-.02-.18-.03-.28-.98.59-1.96-.24-2.92,1.21Z"/>
          <path class="cls-1" d="M40.49,86.4c.67-.41,1.1-.83,1.58-.93.62-.13,1.17-.16,1.13-.86h-2.83c.04.64.07,1.16.11,1.8Z"/>
          <path class="cls-1" d="M19.73,112.05c-.08.43-.15.84-.25,1.36.73.17.82,1.15,1.79,1.18.08-.43.15-.84.25-1.36-.73-.17-.82-1.15-1.79-1.18Z"/>
          <path class="cls-1" d="M15.64,171.96c1.24.38,1.42.42,2.47-.52l.07-.3.28-.32c-.36-.14-.7-.27-1.05-.4-.6.52-1.14.99-1.77,1.53Z"/>
          <path class="cls-1" d="M56.46,8.85s-.02,0-.03,0h0c0,.48,0,.95,0,1.41.56.39.81,1.19,1.75,1.23.04-.45.08-.88.12-1.27-.69-.43-.93-1.35-1.83-1.37Z"/>
          <path class="cls-1" d="M28.9,133.65c-.93.5-1.8.97-2.67,1.44.87.27,1.66.71,2.69.15.03-.44.08-.98.12-1.59,0-.03,0-.05,0-.08-.05.03-.1.05-.15.08Z"/>
          <path class="cls-1" d="M22.61,134.55c-.32.1-.73.23-1.18.38.41.55.76,1,1.19,1.58.37-.03.95-.09,2.33-.21-1.11-.83-1.68-1.25-2.34-1.75Z"/>
          <path class="cls-1" d="M33.61,64.98c1.11-.11,2.14,1.48,2.88.04-.45-.45-.88-.88-1.11-1.11-.59.36-1.18.71-1.77,1.07Z"/>
          <path class="cls-1" d="M34.24,103.58c.38-.57.79-1.19,1.19-1.79-.17-.06-.56-.22-1.24-.48-.38.57-.79,1.19-1.19,1.79.17.07.56.22,1.24.48Z"/>
          <path class="cls-1" d="M51.98,29.49c-.29-.11-.18-.55-.36-.72-.06.01-.12.03-.19.05.03-.04.06-.07.09-.1-.08-.02-.18-.03-.33.01-.54.55-.68,1.15,0,1.85.37-.03.78-.06,1.77-.14-.56-.56-.73-.86-.98-.95Z"/>
          <path class="cls-1" d="M38.62,105.31c1.09-.06,2.04.22,3.11-1.16-1.42.55-2.37-.39-3.66,1.19.19-.05.42-.09.66-.16-.04.05-.07.08-.11.13Z"/>
          <path class="cls-1" d="M23.07,85.04c2.28.43,2.28.41,2.95-.25-.84-.47-1.67-.47-2.95.25Z"/>
          <path class="cls-1" d="M19.6,98.26q1.55.36,2.8-.32c-.92-.03-2.01-.7-2.8.32Z"/>
          <path class="cls-1" d="M50.76,96.79c.08.27.21.52.31.78.21-.11.46-.19.64-.35.33-.29.61-.62,1.11-1.14-.7-.11-1.22-.19-2.06-.32,0,.73-.03.89,0,1.03Z"/>
          <path class="cls-1" d="M62.11,96.58c-.07-.61-.13-1.12-.2-1.82-.74.18-1.24.31-1.86.47.81.85.83.87,2.06,1.36Z"/>
          <path class="cls-1" d="M31.05,73.91c.43.08.85.16,1.27.23.62-.68.7-1.31-.07-2.02-.2.72-1.15.83-1.2,1.79Z"/>
          <path class="cls-1" d="M34.96,70.47c-.42.55-.45,1.07.19,1.75.42-.08.94-.19,1.66-.33-.79-.55-1.06-1.31-1.85-1.41Z"/>
          <path class="cls-1" d="M26.95,115.69h-.77c-.28.49-.57.99-.86,1.5.58.59,1.21.62,1.81-.12v-1.34c-.09.02-.17.04-.26.07.03-.04.06-.07.09-.11Z"/>
          <path class="cls-1" d="M26,77.73c.08-.43.16-.85.23-1.27-.68-.62-1.31-.7-2.02.07.72.2.83,1.15,1.79,1.2Z"/>
          <path class="cls-1" d="M22.51,74.68c.67.55,1.28.6,1.78-.22,0-.44,0-.88,0-1.33-.91.14-1.37.81-1.78,1.54Z"/>
          <path class="cls-1" d="M28.24,74.23c-.08.43-.16.85-.23,1.27.68.62,1.31.7,2.02-.07-.72-.2-.83-1.15-1.79-1.2Z"/>
          <path class="cls-1" d="M52.64,16.82c.03.54-.18,1.14.69,1.45.03-.72,1.15-.71,1.01-1.76-.46-.03-.92-.07-1.43-.1l-.26.24v.18Z"/>
          <path class="cls-1" d="M51.5,64.91c.73.61,1.03,1.31,1.8,1.46.45-.54.46-1.06-.15-1.75-.42.08-.95.17-1.65.29Z"/>
          <path class="cls-1" d="M59.49.07c.07.1.15.2.24.3.18-.04.38-.08.61-.12l-.85-.18Z"/>
          <path class="cls-1" d="M23.06,129.67c-.61.73-1.31,1.03-1.46,1.8.54.45,1.06.46,1.75-.15-.08-.42-.17-.95-.29-1.65Z"/>
          <path class="cls-1" d="M45.03,58.45c.29.19.53.48.76.48.4,0,.8-.2,1.57-.43-1.03-.29-1.15-1.24-2.11-1.29-.08.43-.16.85-.23,1.24Z"/>
          <path class="cls-1" d="M27.3,127.68c.84.44,1.68.48,2.92-.28-2.33-.41-2.33-.39-2.92.28Z"/>
          <path class="cls-1" d="M26.65,107.18c.68-.63.68-1.26,0-1.9-.68.63-.68,1.26,0,1.9Z"/>
          <path class="cls-1" d="M37.99,47.61c-.68.63-.68,1.26,0,1.9.68-.63.68-1.26,0-1.9Z"/>
          <path class="cls-1" d="M16.39,110.24l.1.44c.1-.06.2-.11.31-.2-.14-.1-.28-.19-.4-.27v.02Z"/>
          <path class="cls-1" d="M23.45,107.79c.55.51,1.08.48,1.85-.14-.86-.61-1.46-.89-1.85.14Z"/>
          <path class="cls-1" d="M34.73,110.96s.02.08.03.12c.48.83.55.82,1.74.43-.34-.99-1.16-.41-1.77-.55Z"/>
          <path class="cls-1" d="M10.07,80.08c.15-.34.05-.81.04-1.22-.04.01-.09.02-.14.03-.3.16-.66.3-.77.55-.15.34-.05.81-.04,1.22.04-.01.09-.02.14-.03.3-.17.66-.3.77-.55Z"/>
          <path class="cls-1" d="M52.76,76.59c.55.51,1.08.48,1.85-.14-.86-.61-1.46-.89-1.85.14Z"/>
          <path class="cls-1" d="M43.75,82.68c-1.01.35-.38,1.2-.55,1.81q.97-.56.55-1.81Z"/>
          <path class="cls-1" d="M47.45,81.65c.68-.63.68-1.26,0-1.9-.68.63-.68,1.26,0,1.9Z"/>
          <path class="cls-1" d="M49.98,58.33c.06.22.21.59.34.6.41.02.84-.09,1.25-.15-.01-.2-.02-.4-.03-.6-.42-.06-.84-.13-1.26-.15-.1,0-.32.23-.3.3Z"/>
          <path class="cls-1" d="M13.38,79.79c-.41-.02-.84.09-1.25.15.01.2.02.4.03.6.42.06.84.13,1.26.15.1,0,.32-.23.3-.3-.06-.22-.21-.59-.34-.6Z"/>
          <path class="cls-1" d="M42.87,71.13c.5-.54.47-1.07-.32-1.56.19.46-.95,1.22.32,1.56Z"/>
          <path class="cls-1" d="M38.6,65.76c.01.2.02.4.03.6.42.06.84.13,1.26.15.1,0,.32-.23.3-.3-.06-.22-.21-.59-.34-.6-.41-.02-.84.09-1.25.15Z"/>
          <path class="cls-1" d="M23.78,65.61c-.41-.02-.84.09-1.25.15.01.2.02.4.03.6.42.06.84.13,1.26.15.1,0,.32-.23.3-.3-.06-.22-.21-.59-.34-.6Z"/>
          <path class="cls-1" d="M20.18,74.91c.5-.54.47-1.07-.32-1.56.19.46-.95,1.22.32,1.56Z"/>
          <path class="cls-1" d="M30.58,63.57c.5-.54.47-1.07-.32-1.56.19.46-.95,1.22.32,1.56Z"/>
          <path class="cls-1" d="M17.59,100.09c.86.61,1.46.89,1.85-.14-.55-.51-1.08-.48-1.85.14Z"/>
          <path class="cls-1" d="M12.91,96.33s.02-.02.03-.03c-.1-.11-.21-.2-.31-.27l.28.3Z"/>
          <path class="cls-1" d="M48.24,100.6c-.34-.15-.8-.05-1.22-.04.02.09.04.18.07.27-.04-.03-.07-.06-.11-.09v.73c.09-.02.18-.04.26-.07-.03.04-.06.07-.09.11h1.72c-.2-.32-.34-.78-.63-.91Z"/>
          <path class="cls-1" d="M9.16,85.43c-.39.22-.61.36-.73.52l.12.61.15.64c.85-.37.29-1.18.46-1.76,0,0,0,0,0,0,0,0,0,0,0,0Z"/>
          <path class="cls-1" d="M43.2,52.81c-.63-.68-1.26-.68-1.9,0,.63.68,1.26.68,1.9,0Z"/>
          <path class="cls-1" d="M12.47,93.01c-.1,0-.32.23-.3.3.06.22.21.59.34.6.41.02.84-.09,1.25-.15-.01-.2-.02-.4-.03-.6-.42-.06-.84-.13-1.26-.15Z"/>
          <path class="cls-1" d="M30.91,92.52c-.63-.68-1.26-.68-1.9,0,.63.68,1.26.68,1.9,0Z"/>
          <path class="cls-1" d="M59.95,6.23l.17-.21c-.28.04-.57.19-.93.47.38.27.71.47.99.52l-.24-.78Z"/>
          <path class="cls-1" d="M33.92,125.01c.2,0,.4-.02.6-.03.06-.42.13-.84.15-1.26,0-.1-.23-.32-.3-.3-.22.06-.59.21-.6.34-.02.41.09.84.15,1.25Z"/>
          <path class="cls-1" d="M24.46,144.37c.06.22.21.59.34.6.29.02.58-.03.87-.08l.24-.68c-.38-.05-.77-.12-1.15-.14-.1,0-.32.23-.3.3Z"/>
          <path class="cls-1" d="M23.81,147.83c.68-.63.68-1.26,0-1.9-.68.63-.68,1.26,0,1.9Z"/>
          <path class="cls-1" d="M21.45,137.39c.09-.02.17-.04.26-.06-.03.03-.05.06-.07.09.52-.05.78-.34.76-.93-.64-.02-.95.28-.94.9Z"/>
          <path class="cls-1" d="M20.03,139.32c-.11.21-.25.41-.3.63-.02.08.19.21.3.31.11-.21.23-.41.34-.61-.13-.13-.23-.23-.34-.34Z"/>
          <path class="cls-1" d="M21.45,137.39c-.63.14-1.13.17-.56.9.2-.24.41-.48.75-.88.03-.03.05-.06.07-.09-.09.02-.17.05-.26.06Z"/>
          <path class="cls-1" d="M19.56,128.45c.11.11.23.31.31.3.22-.05.42-.19.63-.3-.11-.11-.21-.21-.34-.34-.2.11-.4.22-.61.34Z"/>
          <path class="cls-1" d="M22.22,148.46c-.05-.22-.19-.42-.3-.63-.11.11-.31.23-.3.31.05.22.19.42.3.63.11-.11.31-.23.3-.31Z"/>
          <path class="cls-1" d="M21.54,116.85c-.19-.72-.15-1.4-.95-.77.25.21.5.43.93.8.01,0,.02.02.03.03,0-.02,0-.03-.01-.05Z"/>
          <path class="cls-1" d="M26.95,115.69s-.06.07-.09.11c.09-.03.18-.05.26-.07.63-.14,1.12-.17.56-.9-.2.23-.41.48-.73.86Z"/>
          <path class="cls-1" d="M22.22,107.49c.02-.08-.19-.21-.3-.31-.11.21-.23.41-.34.61l.34.34c.11-.21.25-.41.3-.63Z"/>
          <path class="cls-1" d="M37.91,110.87c.2-.24.41-.48.74-.87.03-.03.05-.06.08-.1-.09.03-.18.05-.26.07-.63.14-1.12.17-.56.9Z"/>
          <path class="cls-1" d="M33.83,110.4c.26.22.52.44.97.82-.01-.05-.02-.09-.03-.14,0-.04-.02-.08-.03-.12-.14-.63-.17-1.13-.9-.57Z"/>
          <path class="cls-1" d="M20.98,110.01c-.11.21-.23.41-.34.61.13.13.23.23.34.34.1-.21.25-.41.3-.63.02-.08-.19-.21-.3-.31Z"/>
          <path class="cls-1" d="M30.07,124.46s-.07-.06-.11-.1c.12.54.21.9.86.39-.23-.2-.47-.4-.85-.73.03.14.06.28.1.43Z"/>
          <path class="cls-1" d="M29.96,124.03c-.12-.54-.21-.9-.86-.39.23.2.47.4.85.73.04.03.07.06.11.1-.04-.15-.07-.29-.1-.43Z"/>
          <path class="cls-1" d="M32.79,126.56c.21.11.41.25.63.3.08.02.21-.19.31-.3-.21-.11-.41-.23-.61-.34-.13.13-.23.23-.34.34Z"/>
          <path class="cls-1" d="M39.59,118.83c.05.22.19.42.3.63.11-.11.21-.21.34-.34-.11-.2-.22-.4-.34-.61-.11.1-.31.23-.3.31Z"/>
          <path class="cls-1" d="M38.94,121.36c-.11.11-.31.23-.3.31.02.08.05.15.09.22l.21-.52s0,0,0,0Z"/>
          <path class="cls-1" d="M32.32,120.41c-.11.21-.23.41-.34.61.13.13.23.23.34.34.11-.21.25-.41.3-.63.02-.08-.19-.21-.3-.31Z"/>
          <path class="cls-1" d="M20.68,156.97c-.02.08.19.21.3.31.11-.21.23-.41.34-.61-.13-.13-.23-.23-.34-.34-.1.21-.25.41-.3.63Z"/>
          <path class="cls-1" d="M34.42,57.18c.09-.03.18-.05.26-.07.63-.14,1.12-.17.56-.9-.2.24-.41.48-.74.87-.03.03-.05.06-.08.1Z"/>
          <path class="cls-1" d="M38.57,61.11c-.21-.73-.14-1.45-.96-.82.26.22.51.44.96.82,0,0,0,0,0,0,0,0,0,0,0,0Z"/>
          <path class="cls-1" d="M51.7,32.96c-.11-.1-.21-.21-.34-.34-.2.11-.4.22-.61.34.1.11.23.31.31.3.22-.05.42-.19.63-.3Z"/>
          <path class="cls-1" d="M49.18,27.58c.22-.05.42-.19.63-.3-.11-.11-.23-.31-.31-.3-.22.05-.42.19-.63.3.11.11.23.31.31.3Z"/>
          <path class="cls-1" d="M51.62,28.77c.66-.16,1.23-.16.64-.92-.2.24-.41.48-.74.87-.03.03-.05.06-.09.1.06-.02.12-.03.19-.05Z"/>
          <path class="cls-1" d="M57.76,30.51c.04-.05.09-.11.14-.16v-.03s-.16-.56-.16-.56c-.26.11-.33.29.02.75Z"/>
          <path class="cls-1" d="M52.18,91.1c-.1.11-.31.23-.3.31.05.22.19.42.3.63.1-.11.21-.21.34-.34-.11-.2-.22-.4-.34-.61Z"/>
          <path class="cls-1" d="M18.61,91.58c.1.1.23.31.31.3.22-.05.42-.19.63-.3-.1-.11-.21-.21-.34-.34-.2.11-.4.22-.61.34Z"/>
          <path class="cls-1" d="M54.72,90.47c.05.22.19.42.3.63.1-.11.31-.23.3-.31-.05-.22-.19-.42-.3-.63-.1.11-.31.23-.3.31Z"/>
          <path class="cls-1" d="M32.62,90.47c.02-.08-.19-.21-.3-.31-.11.21-.23.41-.34.61.13.13.23.23.34.34.11-.21.25-.41.3-.63Z"/>
          <path class="cls-1" d="M63.82,94.58c-.05-.22-.19-.42-.3-.63-.11.11-.31.23-.3.31.05.22.19.42.3.63.1-.11.31-.23.3-.31Z"/>
          <path class="cls-1" d="M34.79,84.75s-.07-.06-.11-.1c.12.54.21.9.86.39-.23-.2-.47-.4-.85-.73.03.14.06.28.1.43Z"/>
          <path class="cls-1" d="M28.54,85.43c.11-.21.23-.41.34-.61-.13-.13-.23-.23-.34-.34-.11.21-.25.41-.3.63-.02.08.19.21.3.31Z"/>
          <path class="cls-1" d="M34.69,84.32c-.12-.54-.21-.9-.86-.39.23.2.47.4.85.73.04.03.07.06.11.1-.04-.15-.07-.29-.1-.43Z"/>
          <path class="cls-1" d="M12.47,86.38c.11-.21.23-.41.34-.61-.13-.13-.23-.23-.34-.34-.11.21-.25.41-.3.63-.02.08.19.21.3.31Z"/>
          <path class="cls-1" d="M43.24,103.4c-.14-.63-.17-1.12-.9-.56.22.19.45.38.8.68.06.05.11.09.17.14-.03-.09-.05-.18-.07-.26Z"/>
          <path class="cls-1" d="M46.98,101.46c-.63.14-1.12.17-.56.9.2-.23.41-.48.73-.86.03-.04.06-.07.09-.11-.09.03-.18.05-.26.07Z"/>
          <path class="cls-1" d="M38.62,105.31s.07-.08.11-.13c-.24.07-.47.11-.66.16-.4.1-.6.25-.17.81.2-.23.4-.47.72-.84Z"/>
          <path class="cls-1" d="M35.81,103.71c.05.22.19.42.3.63.1-.11.21-.21.34-.34-.11-.2-.22-.4-.34-.61-.11.1-.31.23-.3.31Z"/>
          <path class="cls-1" d="M44.03,96.51s.07.06.11.1c-.12-.54-.21-.9-.86-.39.23.2.47.4.85.73-.03-.14-.06-.28-.1-.43Z"/>
          <path class="cls-1" d="M23.33,96.82c.63-.14,1.13-.17.56-.9-.2.24-.41.48-.75.88.06,0,.12-.02.19-.02,0,.02,0,.03,0,.04Z"/>
          <path class="cls-1" d="M46.21,96.14c.05.22.19.42.3.63.1-.11.31-.23.3-.31-.05-.22-.19-.42-.3-.63-.1.11-.31.23-.3.31Z"/>
          <path class="cls-1" d="M44.13,96.94c.12.54.21.9.86.39-.23-.2-.47-.4-.85-.73-.04-.03-.07-.06-.11-.1.04.15.07.29.1.43Z"/>
          <path class="cls-1" d="M22.39,97.72c.64.02.95-.28.94-.9,0-.02,0-.03,0-.04-.07,0-.12.01-.19.02-.52.05-.78.34-.76.93Z"/>
          <path class="cls-1" d="M25.84,95.02c-.2.11-.4.22-.61.34.1.11.23.31.31.3.22-.05.42-.19.63-.3-.11-.1-.21-.21-.34-.34Z"/>
          <path class="cls-1" d="M47.02,100.56c-.14-.63-.17-1.12-.9-.56.23.2.48.41.86.73.04.03.07.06.11.09-.03-.09-.05-.18-.07-.27Z"/>
          <path class="cls-1" d="M40.67,68.24c.22-.05.42-.19.63-.3-.11-.11-.23-.31-.31-.3-.22.05-.42.19-.63.3.11.1.23.31.31.3Z"/>
          <path class="cls-1" d="M45.85,71.89c-.05-.22-.19-.42-.3-.63-.11.11-.31.23-.3.31.05.22.19.42.3.63.11-.11.31-.23.3-.31Z"/>
          <path class="cls-1" d="M16.54,71.56c.02-.08-.19-.21-.3-.31-.11.21-.23.41-.34.61l.34.34c.11-.21.25-.41.3-.63Z"/>
          <path class="cls-1" d="M10.12,71.2c-.63.14-1.15.17-.58.9.2-.24.41-.48.74-.87.03-.03.05-.06.09-.1-.08.02-.16.04-.25.06Z"/>
          <path class="cls-1" d="M41.61,61.62c.22-.05.42-.19.63-.3-.11-.1-.21-.21-.34-.34-.2.11-.4.22-.61.34.11.11.23.31.31.3Z"/>
          <path class="cls-1" d="M16.92,66.28c.05.07.19.17.27.25.11-.21.23-.41.34-.61h0s-.4.13-.4.13l-.21.23Z"/>
          <path class="cls-1" d="M50.59,78.81c-.54.12-.9.21-.39.86.2-.23.4-.47.73-.85-.14.03-.28.06-.43.1.04-.04.06-.07.1-.11Z"/>
          <path class="cls-1" d="M5.38,79.29c.11.11.23.31.31.3.22-.05.42-.19.63-.3-.11-.11-.21-.21-.34-.34-.2.11-.4.22-.61.34Z"/>
          <path class="cls-1" d="M26.04,80.1c-.13-.13-.23-.23-.34-.34-.1.21-.25.41-.3.63-.02.08.19.21.3.31.11-.21.23-.41.34-.61Z"/>
          <path class="cls-1" d="M50.59,78.81s-.06.07-.1.11c.15-.04.29-.07.43-.1.54-.12.9-.21.39-.86-.2.23-.4.47-.73.85Z"/>
          <path class="cls-1" d="M47.15,78.18c.05.22.19.42.3.63.11-.1.21-.21.34-.34-.11-.2-.22-.4-.34-.61-.11.11-.31.23-.3.31Z"/>
          <path class="cls-1" d="M10.66,77.96c-.22.26-.44.52-.82.97.04-.01.09-.02.13-.03.05-.01.09-.02.14-.03.63-.14,1.12-.17.56-.9Z"/>
          <path class="cls-1" d="M45.4,82.42c.22-.05.42-.19.63-.3-.11-.11-.23-.31-.31-.3-.22.05-.42.19-.63.3.1.11.23.31.31.3Z"/>
          <path class="cls-1" d="M8.6,81.56c.22-.26.44-.52.82-.97-.04.01-.09.02-.13.03-.05.01-.09.02-.14.03-.63.14-1.12.17-.56.9Z"/>
          <path class="cls-1" d="M56.29,74.42c-.13-.13-.23-.23-.34-.34-.1.21-.25.41-.3.63-.02.08.19.21.3.31.11-.21.23-.41.34-.61Z"/>
          <path class="cls-1" d="M26.81,74.26c-.22.05-.42.19-.63.3.11.11.23.31.31.3.22-.05.42-.19.63-.3-.1-.11-.23-.31-.31-.3Z"/>
          <path class="cls-1" d="M12.93,73.1c-.62.14-1.11.18-.55.9.2-.24.41-.48.73-.86.03-.04.06-.07.09-.1-.09.03-.19.05-.28.07Z"/>
        </g>
      </g>
    </g>
  </g>
</svg>