<?xml version="1.0" encoding="UTF-8"?>
<svg id="_レイヤー_2" data-name="レイヤー 2" xmlns="http://www.w3.org/2000/svg" viewBox="0 0 44.34 46.67">
  <defs>
    <style>
      .cls-1 {
        fill: #fff;
      }

      .cls-2 {
        fill: none;
      }

      .cls-3 {
        fill: #d1d5ea;
        fill-rule: evenodd;
      }
    </style>
  </defs>
  <g id="_レイヤー_1-2" data-name="レイヤー 1">
    <g id="stars">
      <g>
        <polygon class="cls-3" points="33.14 0 32.86 .23 32.59 .47 32.25 .62 32.03 .92 31.78 1.19 31.44 1.34 31.17 1.58 30.88 1.79 30.63 2.06 30.4 2.35 30.06 2.5 29.85 2.82 29.52 2.99 29.26 3.25 28.92 3.4 28.63 3.61 28.35 3.83 28.01 3.99 27.84 4.35 27.55 4.57 27.27 4.8 27.02 5.06 26.6 5.12 26.46 5.53 26.17 5.74 25.93 6.02 25.59 6.18 25.3 6.38 25.05 6.65 24.77 6.88 24.54 7.17 24.19 7.32 23.87 7.49 23.69 7.84 23.41 8.07 23.03 8.18 22.86 8.54 22.64 8.84 22.2 8.89 21.96 9.16 21.79 9.52 21.46 9.69 21.22 9.96 20.98 10.24 20.64 10.4 20.46 10.74 20.15 10.88 19.84 10.77 19.5 10.66 19.22 10.42 18.93 10.19 18.51 10.22 18.24 9.97 17.92 9.81 17.61 9.63 17.38 9.3 16.98 9.27 16.65 9.13 16.42 8.81 16.08 8.68 15.75 8.54 15.41 8.41 15.18 8.09 14.83 7.97 14.44 7.93 14.24 7.57 13.95 7.35 13.58 7.26 13.23 7.16 12.99 6.86 12.71 6.63 12.41 6.42 12.01 6.4 11.66 6.3 11.39 6.04 11.03 5.94 10.81 5.62 10.52 5.41 10.18 5.27 9.87 5.09 9.61 4.83 9.28 4.68 8.92 4.58 8.62 4.38 8.34 4.15 8 4.02 7.68 3.86 7.34 3.73 7.07 3.49 6.8 3.23 6.47 3.08 6.05 3.1 5.79 2.82 5.51 2.7 5.56 3 5.57 3.36 5.5 3.73 5.79 4.04 5.61 4.43 5.78 4.76 5.77 5.12 5.95 5.45 5.93 5.82 5.97 6.17 6.28 6.46 6.13 6.86 6.32 7.18 6.33 7.55 6.52 7.86 6.49 8.24 6.75 8.54 6.82 8.89 6.93 9.22 6.96 9.58 7.06 9.92 7.08 10.28 7.21 10.62 7.28 10.96 7.37 11.31 7.4 11.67 7.53 12 7.76 12.32 7.67 12.7 7.91 13.02 7.95 13.38 7.93 13.74 7.93 14.11 8.13 14.43 8.16 14.79 8.37 15.11 8.44 15.46 8.46 15.83 8.56 16.17 8.6 16.53 8.71 16.87 8.78 17.22 8.93 17.55 8.95 17.91 9.02 18.27 9.27 18.56 9.42 18.89 9.52 19.23 9.54 19.61 9.36 19.94 9.05 20.14 8.82 20.41 8.54 20.63 8.32 20.9 8.13 21.21 7.96 21.52 7.78 21.83 7.42 21.98 7.3 22.35 7.04 22.58 6.89 22.92 6.63 23.17 6.26 23.33 6.27 23.79 5.95 23.99 5.76 24.29 5.55 24.58 5.16 24.74 5.14 25.17 4.84 25.39 4.7 25.73 4.36 25.91 4.24 26.27 3.89 26.46 3.87 26.88 3.61 27.14 3.39 27.42 3.19 27.71 2.88 27.93 2.65 28.2 2.48 28.51 2.26 28.79 1.95 29.01 1.81 29.35 1.62 29.65 1.35 29.9 1.28 30.29 .87 30.42 .64 30.7 .55 31.07 .37 31.38 .14 31.66 0 31.86 .23 32.01 .59 31.95 .96 31.85 1.3 32.11 1.66 31.98 2.02 32.03 2.37 32.16 2.73 32.08 3.09 32.06 3.44 32.26 3.79 32.24 4.15 32.3 4.51 32.31 4.87 32.15 5.22 32.29 5.58 32.26 5.94 32.21 6.29 32.39 6.66 32.21 7.01 32.27 7.37 32.24 7.71 32.51 8.09 32.27 8.43 32.41 8.78 32.6 9.15 32.45 9.49 32.67 9.86 32.59 10.22 32.65 10.6 32.54 10.96 32.6 11.32 32.71 11.68 32.73 12.03 32.89 12.39 32.91 12.77 32.87 13.11 33.04 13.47 33.1 13.85 33.08 14.21 33.13 14.57 33.19 14.93 33.2 15.3 33.22 15.68 33.11 16.07 33.21 16.12 33.65 16.47 33.85 16.64 34.18 16.92 34.42 17.15 34.71 17.29 35.04 17.55 35.31 17.74 35.62 17.77 36.03 17.97 36.33 18.35 36.51 18.53 36.83 18.58 37.23 18.72 37.57 19.03 37.8 19.21 38.11 19.34 38.46 19.54 38.76 19.8 39.02 20.11 39.25 20.17 39.64 20.41 39.92 20.69 40.17 20.81 40.52 21.18 40.7 21.16 41.16 21.39 41.44 21.6 41.73 21.83 42.01 22.02 42.32 22.28 42.58 22.53 42.85 22.64 43.21 23.03 43.38 23.1 43.77 23.29 44.08 23.5 44.38 23.77 44.63 23.9 44.98 24.06 45.31 24.5 45.44 24.59 45.82 24.71 46.18 24.99 46.43 25.24 46.67 25.42 46.36 25.49 46.01 25.55 45.65 25.65 45.3 25.57 44.91 25.68 44.57 26 44.28 25.96 43.89 25.95 43.52 26.19 43.21 26.15 42.82 26.42 42.52 26.32 42.12 26.46 41.79 26.61 41.45 26.72 41.11 26.91 40.79 27.03 40.45 27.15 40.11 27.25 39.76 27.25 39.38 27.34 39.04 27.46 38.69 27.45 38.31 27.72 38.02 27.68 37.63 27.9 37.32 28.06 36.99 28.04 36.61 28.27 36.3 28.32 35.94 28.43 35.59 28.33 35.19 28.43 34.85 28.68 34.54 28.72 34.18 28.87 33.84 28.98 33.5 28.9 33.1 29.14 32.79 29.03 32.39 29.32 32.14 29.62 32.05 29.96 31.91 30.32 31.86 30.64 31.66 30.98 31.56 31.33 31.46 31.69 31.44 32.03 31.29 32.43 31.42 32.78 31.35 33.12 31.25 33.43 30.97 33.79 30.95 34.18 31.04 34.53 30.96 34.89 30.92 35.2 30.65 35.59 30.74 35.91 30.55 36.23 30.33 36.61 30.4 36.93 30.16 37.28 30.09 37.64 30.06 38.03 30.14 38.37 30.01 38.72 29.91 39.05 29.76 39.39 29.65 39.74 29.56 40.12 29.62 40.44 29.39 40.79 29.31 41.19 29.44 41.48 29.11 41.85 29.13 42.21 29.08 42.58 29.07 42.93 29.02 43.23 28.72 43.6 28.7 43.97 28.7 44.34 28.6 44.03 28.37 43.74 28.15 43.48 27.91 43.43 27.46 43.02 27.36 42.86 27.03 42.53 26.85 42.44 26.44 42.14 26.24 41.96 25.91 41.57 25.79 41.34 25.52 41.06 25.3 40.87 24.98 40.68 24.67 40.43 24.42 40.03 24.32 39.84 24 39.68 23.66 39.27 23.56 39.16 23.17 38.9 22.93 38.54 22.79 38.24 22.58 38.1 22.21 37.89 21.92 37.59 21.72 37.29 21.52 37.05 21.25 36.72 21.09 36.58 20.71 36.22 20.57 36.01 20.27 35.7 20.09 35.59 19.69 35.29 19.48 34.99 19.28 34.63 19.14 34.37 18.91 34.25 18.51 34.05 18.21 33.73 18.02 33.5 17.75 33.16 17.6 32.81 17.34 33 16.96 32.9 16.6 32.98 16.24 32.96 15.88 33.08 15.52 32.97 15.16 32.85 14.8 33 14.45 32.88 14.08 32.99 13.73 33.04 13.37 32.89 13.01 32.98 12.65 32.87 12.29 33.12 11.94 33.11 11.58 33.02 11.22 33 10.86 32.88 10.5 32.98 10.14 33.13 9.78 33.2 9.43 33.18 9.07 33.21 8.71 32.99 8.35 33.1 7.99 33.06 7.63 33.2 7.27 33.05 6.91 33.12 6.55 33.25 6.19 33.11 5.83 33.11 5.47 33.24 5.11 32.99 4.75 33.01 4.39 33.15 4.03 33.23 3.67 33.2 3.31 33.24 2.95 33.04 2.59 33.2 2.23 33.15 1.87 33.03 1.51 33.09 1.15 33.31 .79 33.09 .43 33.29 .06 33.14 0"/>
        <g>
          <path class="cls-2" d="M26.68,19.08c-.05-.22-.19-.42-.3-.63-.1.11-.31.23-.3.31.05.22.19.42.3.63.11-.11.31-.23.3-.31Z"/>
          <path class="cls-2" d="M9.08,14.02c.05.22.19.42.3.63.1-.11.31-.23.3-.31-.05-.22-.19-.42-.3-.63-.1.1-.31.23-.3.31Z"/>
          <path class="cls-2" d="M12.59,26.56c-.26-.22-.51-.44-.91-.69.16.6.09,1.33.91.69Z"/>
          <path class="cls-2" d="M25.6,34.71c-.57-.13-.66.29-.63.75h.95c-.1-.26-.16-.71-.32-.75Z"/>
          <path class="cls-1" d="M21.39,22.85c.35.5.9.86.7,1.69-.24.27-.54.61-.86.97.04.71-.3,1.49.22,2.18.63-.25,1.34-.82,1.86-.68,1.07.29,1.49-.82,1.87-.28.6.18,1.2.37,1.72.53-.45.59-.69.89-1.06,1.38.68.09,1.11.15,1.51.21.22-.49,1.12-3.47,1.08-3.77h-3.72c-.76-.64-1.24-1.04-1.67-1.4.19-.84-.31-1.68.51-2.4.51,0,1.15.1,1.73-.03.47-.11.86-.51,1.26-.77.54.64-.03,1.85,1.25,1.74v-2.75c.51-.36,1.26-.88,1.93-1.34-.62-.69-1.04-1.16-1.43-1.59h-1.9c-.36-.32-.69-.6-1.14-.99-.14.54-.26.97-.4,1.51-.41.37-.71,1.1-1.51,1.21-.2-.57-.4-1.12-.62-1.72-.5.06-.93.11-1.34.16-.18.97-.33,1.84-.5,2.77-.61-.11-1.04-.19-1.32-.24-.9-1.15.58-1.6.42-2.54-.42-.04-.9-.22-1.3-.11-1.64.47-2.73-1.36-4.35-1-.2.04-.48-.31-.74-.46-.21-.12-.43-.19-.57-.25-.46.11-.48.92-1.16.44-.18-1.16-.4-2.35.28-3.5.37.35.71.66,1.11,1.03.4-.1.82-.22,1.15-.31.17-.71-1.07-.72-.53-1.47,1.1-.24,2.1-.46,2.97.62.31.38,1.1.33,1.31-.17-.35-.84-.59-1.54-.93-2.17-.01-.02-.03-.03-.05-.05l-.21-.02-.33-.14-.1-.14c-.23.36-.44.61-.65.85-.61-.79.03-.76.62-.9l-.1-.14-.34-.14-.33-.14-.34-.13-.23-.32-.34-.12-.39-.04-.17-.3c-.09.11-.18.22-.26.32-.26-.34-.29-.52-.19-.64l-.23-.05-.35-.11-.24-.3-.09-.07c-.07.12-.15.23-.23.36,0,.79,0,2.03-.01,3.26,0,.11-.2.22-.53.54-.45-1.79-2-.6-2.96-1.23-.21-.53-.43-1.06-.64-1.59-.11.04-.22.09-.33.13-.19.54-.37,1.08-.52,1.52-.23.1-.43.13-.61.14l.02.36.13.33.08.34.03.12c.74.05.98.79,1.5,1.13-.22.65-.65.63-1.09.57l.18.24.04.36v.37s-.02.37-.02.37l.2.32.03.36.21.32.07.35.02.29c.03-.05.06-.1.1-.15.3.03.6.06,1.03.1.1.38.22.8.33,1.2-.34.37-.64.69-.95,1.03l.03.15c.41.39.84.79,1.34,1.26h1.8c.93-.64,1.89-1.38,1.49-3.35,1.32,1.69,3.08,1.46,3.73,2.87-.58,1.25-2.09-.1-2.73.98.53.83,1.37.37,2.07.51.49.1.85.35.74.94h3.41c.18.51.26,1.13.58,1.58ZM26.39,18.44c.1.21.25.41.3.63.02.08-.19.21-.3.31-.11-.21-.25-.41-.3-.63-.02-.08.19-.21.3-.31ZM9.37,14.66c-.11-.21-.25-.41-.3-.63-.02-.08.19-.21.3-.31.1.21.25.41.3.63.02.08-.19.21-.3.31Z"/>
          <path class="cls-1" d="M31.24,1.51l-.08.06-.29.21-.25.27-.19.25c.39-.07.77-.13,1.16-.2-.13-.22-.24-.41-.35-.6Z"/>
          <path class="cls-1" d="M26.89,5.08l-.29.05-.14.4-.28.21c.09.19.18.39.28.6.17-.49.31-.89.43-1.26Z"/>
          <path class="cls-1" d="M28.72,3.54l-.09.07-.28.22-.34.15-.11.23c.26-.09.51-.18.74-.26.03-.16.06-.28.09-.42Z"/>
          <path class="cls-1" d="M10.18,5.27l-.31-.19-.27-.26-.33-.14-.35-.1-.3-.2-.29-.22-.22-.08c-.13-.02-.25-.04-.39-.06.03-.03.05-.05.08-.08l-.13-.07-.34-.12-.27-.25-.06-.06c.02.6.17,1.17-.39,1.7-.26.02-.53.04-.8.07l.14.25-.02.37.03.32c1.45,0,2.91,0,4.37-.01.11,0,.22-.21.41-.39,0-.05,0-.11,0-.17l-.21-.16-.34-.13Z"/>
          <path class="cls-1" d="M6.6,25.13c-.29.24-.6.49-.92.74-.28-.16-.56-.32-.84-.47l-.14.33-.34.19-.11.36-.35.18-.03.43-.07.07c1.07,0,2.14,0,3.21,0-.12-.58.28-1.25-.41-1.82Z"/>
          <path class="cls-1" d="M9.16,28.38c-1.18.78-2.14,1.41-3.16,2.09.13.39.27.8.43,1.26.41-.38.74-.69,1.1-1.02.24.53.49,1.06.76,1.63l.16.06.34.19.37-.14.28.17c.06,0,.13,0,.19.01l.25-.05.18.03c.23-.04.45-.12.64-.35.08-.74.17-1.48.25-2.19.6-.21,1.14-.41,1.64-.58.11-.52.2-.94.23-1.07,1.07-.69,1.93-1.24,2.71-1.75v-2.05c.32-.34.64-.68.95-1.01,0-.47,0-.93,0-1.4-.5.29-1,.58-1.64.95h-1.2c.09,1.25-1.05.74-1.64,1.15-.53.45-.14,1.11-.3,1.55.4.25.65.47.91.69-.83.64-.76-.09-.91-.69-.93-.02-1.74.27-2.34,1.08h-2.33c.11.27.14.67.34.77.48.26,1.03.39,1.81.66Z"/>
          <path class="cls-1" d="M42.78,29.04l.15-.02.3-.3.36-.02h.37s.38-.09.38-.09l-.32-.23-.29-.22-.16-.15c-.11.04-.24.08-.34.12-.16.32-.31.62-.46.92Z"/>
          <path class="cls-1" d="M33.01,4.39c-.16.07-.31.17-.45.32.19.21.39.42.59.65l.09-.24-.25-.36.02-.36h0Z"/>
          <path class="cls-1" d="M33.2,9.43l-.02-.36.03-.36-.22-.36.11-.36-.05-.36.14-.36-.15-.36.07-.36.12-.36-.07-.2c-.44.41-.53,1.01-.76,1.6-.29.74-1.15,1.26-1.8,1.9.87.61,1.69.47,2.47.42l.06-.13.06-.36Z"/>
          <path class="cls-1" d="M1.29,30.2l-.02.09-.41.14-.06.08c.2-.06.4-.11.61-.18-.04-.04-.08-.08-.12-.12Z"/>
          <path class="cls-1" d="M15.32,33.21l.35-.1.39.1.05.44.35.2.07.13c.55-.37,1.19-.64,1.82-.95-.74-.39-.93-1.4-1.9-1.35-.1.26-.13.64-.33.77-.33.21-.59.48-.81.77Z"/>
          <path class="cls-1" d="M25.6,34.71c.16.04.22.49.32.75.58-.12,1.26.3,1.82-.42-.5-1.19-1.85-1.23-2.79-1.95.06-.39.13-.82.19-1.24.97.08,1.7,1.67,2.72.13-.1-.36-.21-.78-.36-1.29-1.46.14-2.84-.09-4.46.17.41.63.7,1.07,1.05,1.61v2.63c.34.14.61.25.87.36-.03-.46.06-.88.63-.75Z"/>
          <path class="cls-1" d="M22.13,8.97l-.18.19-.16.36-.33.17-.13.15c.27-.09.54-.18.8-.27v-.61Z"/>
          <path class="cls-1" d="M20.28,10.82l-.13.06-.31-.1-.34-.12-.28-.24-.26-.2c.29.52.6,1.05.93,1.65.14-.38.27-.72.39-1.04Z"/>
          <path class="cls-1" d="M28.93,33.25l-.03-.14.24-.31v-.06c-.11.1-.2.23-.28.42.02.03.05.06.07.09Z"/>
          <path class="cls-1" d="M28.27,22.22c-.48.43-.51.45-.13.79.57.51,1.17.99,1.41,1.18.26.94-.1,1.7.84,1.63.86-1.87-.67-3.05-1.13-4.54-.33.32-.65.64-.99.93Z"/>
          <path class="cls-1" d="M27.46,38.69v-.38s.26-.3.26-.3l-.04-.39.16-.23c-.11-.3-.2-.59-.35-.85-.54-.34-1.66.14-1.57-1.1h-.95c.11.57-.27,1.23.29,1.71.55.18,1.09.35,1.51.49.11.58.19,1,.31,1.62.07-.01.14-.02.21-.03l.06-.21.12-.34Z"/>
          <path class="cls-1" d="M16.06,25.13c1.15,1.15,1.9,1.91,2.67,2.65.04.04.21-.07.64-.22-.4-.71.34-1.57-.46-2.43h-2.85Z"/>
          <path class="cls-1" d="M24.05,10.28c.02.19.34.35.52.52q1.48-1.56.8-2.76h-1.34c0,.75-.04,1.5.02,2.24Z"/>
          <path class="cls-1" d="M36.13,22.25c-1.13-.1-1.83,0-1.68,1.4.42.3,1.03.74,1.65,1.18.59-.52.17-1.42.03-2.58Z"/>
          <path class="cls-1" d="M35.1,20.39c.09-.31.15-.61.2-.9h0s-.3-.21-.3-.21l-.36-.14-.26-.24-.11-.4-.2-.3-.32-.18-.12-.14s-.07.08-.11.11c.98.39.69,1.71,1.6,2.4Z"/>
          <path class="cls-1" d="M31.11,29.79c.39-.56,1.14-.83,1.23-1.42-.45-.55-.82-1.01-1.2-1.49-.79,1.05-.81,1.98-.03,2.91Z"/>
          <path class="cls-1" d="M24.02,7.41l-.15.08-.18.35-.24.2h.58c-.04-.2-.02-.41,0-.63Z"/>
          <path class="cls-1" d="M25.93,14.16c-.86-.42-1.7-.83-2.56-1.24-.44.57-.46,1.09.02,1.6.88.07,1.79.53,2.54-.36Z"/>
          <path class="cls-1" d="M30.8,13.05c-.65-.12-1.17-.22-2.22-.42.19,1.04.27,1.45.42,2.27.68-.7,1.17-1.17,1.81-1.85Z"/>
          <path class="cls-1" d="M40.87,24.98l-.19-.31-.25-.25c-.1.03-.19.06-.31.1.21.39.49.5.79.53l-.04-.07Z"/>
          <path class="cls-1" d="M36.63,27.73c.22-.06.59-.21.6-.34.02-.41-.09-.84-.15-1.25-.2.01-.4.02-.6.03-.06.42-.13.84-.15,1.26,0,.1.23.32.3.3Z"/>
          <path class="cls-1" d="M24.97,23.64c.63.68,1.26.68,1.89,0-.63-.68-1.26-.68-1.89,0Z"/>
          <path class="cls-1" d="M17.54,29.97c.01.2.02.4.03.6.42.06.84.13,1.26.15.1,0,.32-.23.3-.3-.06-.22-.21-.59-.34-.6-.41-.02-.84.09-1.25.15Z"/>
          <path class="cls-1" d="M13.65,30.2c.45.84,1.23.43,1.86.55,0,0,0,0,0,0-.56-.97-.56-.97-1.86-.54Z"/>
          <path class="cls-1" d="M31.08,30.76c-.41-.02-.84.09-1.25.15.01.2.02.4.03.6.3.04.61.08.91.12l.22-.06.35-.1h.05s.05-.08.04-.1c-.06-.22-.21-.59-.34-.6Z"/>
          <path class="cls-1" d="M24.1,29.31c-.86-.61-1.46-.89-1.85.14.55.51,1.08.48,1.85-.14Z"/>
          <path class="cls-1" d="M20.72,13.71c-.68.63-.68,1.26,0,1.9.68-.63.68-1.26,0-1.9Z"/>
          <path class="cls-1" d="M18.83,35.46c-.37.35-.53.69-.5,1.04h.03s.17.33.17.33l.03.22c.07.1.16.21.27.31.68-.63.68-1.26,0-1.9Z"/>
          <path class="cls-1" d="M31.12,18.44c-.11.11-.31.23-.3.31.05.22.19.42.3.63.1-.11.21-.21.34-.34-.11-.2-.22-.4-.34-.61Z"/>
          <path class="cls-1" d="M27.33,8.04c.11-.21.23-.41.34-.61-.13-.13-.23-.23-.34-.34-.1.21-.25.41-.3.63-.02.08.19.21.3.31Z"/>
          <path class="cls-1" d="M40.57,28.84c.11-.21.23-.41.34-.61-.13-.13-.23-.23-.34-.34-.11.21-.25.41-.3.63-.02.08.19.21.3.31Z"/>
          <path class="cls-1" d="M16.46,31.68c.02-.65-.29-.97-.95-.95h0s0,0,0,0c-.02.65.29.96.94.94Z"/>
          <path class="cls-1" d="M17.41,21.28c-.65-.02-.97.29-.95.95.65.02.97-.29.95-.95Z"/>
          <path class="cls-1" d="M32.36,20.97c-.05-.22-.19-.42-.3-.63-.11.1-.31.23-.3.31.05.22.19.42.3.63.1-.11.31-.23.3-.31Z"/>
          <path class="cls-1" d="M19.93,23.35c-.22.05-.42.19-.63.3.1.1.23.31.31.3.22-.05.42-.19.63-.3-.1-.11-.23-.31-.31-.3Z"/>
          <path class="cls-1" d="M30.95,4.08c.22-.05.42-.19.63-.3-.1-.11-.21-.21-.34-.34-.2.11-.4.22-.61.34.11.11.23.31.31.3Z"/>
          <path class="cls-1" d="M20.24,34.99c.21.11.41.23.61.34.13-.13.23-.23.34-.34-.21-.11-.41-.25-.63-.3-.08-.02-.21.19-.31.3Z"/>
          <path class="cls-1" d="M13.66,23.16c-.05-.57-.09-1.13-.14-1.72-1.32-.17-2.46-.37-3.94.24,1.6.48,2.48,1.79,4.08,1.48Z"/>
          <path class="cls-1" d="M6.92,23.73c-.16-.14-.32-.28-.53-.45l-.13.06v.45s-.06.04-.06.04c.11.2.3.22.72-.1Z"/>
        </g>
      </g>
    </g>
  </g>
</svg>