<?xml version="1.0" encoding="UTF-8"?>
<svg id="_レイヤー_2" data-name="レイヤー 2" xmlns="http://www.w3.org/2000/svg" viewBox="0 0 211.41 223.02">
  <defs>
    <style>
      .cls-1 {
        fill: #fff;
      }

      .cls-2 {
        fill: none;
      }

      .cls-3 {
        fill: #c5c2de;
        fill-rule: evenodd;
      }
    </style>
  </defs>
  <g id="_レイヤー_1-2" data-name="レイヤー 1">
    <g id="stars">
      <g>
        <path class="cls-3" d="M102.28,52.4l-1.25-.32-1.27-.3-1.12,1.01-1.25-.1-1.24.02-1.26-.07-.79.27-.96-.87.06-1.27-.25-1.19-.63-1.09-.33-1.17-.28-1.18.29-1.33-.31-1.18-.52-1.12-.72-1.07.09-1.28-.42-1.15-.65-1.09-.18-1.22.13-1.3-1.01-1.02-1.31-.25-.85.93-.05,1.09-.06,1.25.29,1.19-.35,1.29.26,1.19.23,1.2.72,1.13-.63,1.33.21,1.21.74,1.13-.1,1.25.4,1.18-.02,1.24.48,1.17v1.25s-.12,1.18-.12,1.18l-.88.77-1.36-.04-1.2.48-1.27.29-1.17.71-.69-1.08-.64-1.03-.25-1.2-.31-1.18-.29-1.19-.97-.88-.11-1.27-.66-1.02-.65-1.02.1-1.37-.87-.92-.58-1.05-.85-.93v-1.33s-.57-1.06-.57-1.06l-.78-.96-.38-1.15-.09-1.29-1.11-.81-.73-.98-.43-1.13-.57-1.06-.18-1.24-.24-1.21-.53-1.08-.71-1-.82-.95.03-1.32-.77-.96-.65-1.01-.51-1.08-.23-1.2-.82-.94.08-1.33-.83-1.2-1.27.66-1.35.39-.13,1.55,1.12.86-.25,1.37,1.02.9.64,1.04v1.29s.75,1,.75,1l-.21,1.37.67,1.04.33,1.17.19,1.22.72,1.01.77.99-.03,1.31.56,1.08.37,1.15.61,1.06.76.99.64,1.04.2,1.22.08,1.27.79.98.2,1.22.2,1.22.41,1.13,1.06.88.02,1.29.37,1.15.67,1.03.99.91-.27,1.4.32,1.17.69,1.03.77,1,.03,1.16-.8,1.05-1.28.38-.95.83-1.46.03-.57,1.4-1.25.38-1.19.5-.96.81-1.07.67-.75,1.49-.68-1.29-1.06-.52-.71-.83-.17-1.31-.68-.86-.72-.92-1.13-.57-1.06-.62-.71-.93-.59-1.03-1-.68-.66-.97-.16-1.39-.98-.69-1.27-.25-1.08.18-.75.95.35,1.19.74.91.09,1.33,1.26.58.34,1.17.85.84.35,1.16.9.81.62.99.39,1.14.99.78.43,1.15.55,1.07,1,.77.14,1.05-.82.61-.21,1.51-.91.83-1.22.58-.41,1.28-1.21.61-.19,1.42-.76.97-1.04.77-.82.77-.82-.65-1.14-.42-.77-1.01-1.27-.23-1.03-.6-.7-1.12-1.19-.36-.86-.86-.99-.67-1.37-.08-.76-1-.98-.72-1.17-.45-.97-.74-1.05-.62-.79-1-.95-.76-1.24-.34-.69-1.14-1.31-.25-1.08-.58-.91-.82-1.21-.4-.98-.72-.88-.87-.88-.87-1.23-.36-1.07-.61-.98-.93-.77,1.09-.87,1.05,1.08.83.86.89,1.16.51.91.82.63,1.17,1.01.69.85.9,1.23.41.85.9.84.91.78.98.95.77,1.46.12.76,1,1.06.63,1.05.64,1.03.66.91.82.55,1.28.88.85,1.22.41.78.99,1.22.41.85.9,1.05.63,1.11.55,1.04.64.64,1.19,1.06.45-.26,1.13-1.17.74-.13,1.3-.42,1.14-.86.93-.35,1.17-.55,1.08v1.32s-1.01.89-1.01.89l-.43.95-.81-.64-1.31.15-1.19-.14-.98-.66-.85-.99-1.23-.02-1.02-.58-1.03-.53-1.25.03-.77-1.12h-1.25s-.9-.79-.9-.79l-1.13-.25-.89-.77-1.59-.13-.91,1.2.38,1.16.41,1.04,1.02.57,1.08.47.83.88.95.68,1.29.11.6,1.29,1.43.02.73,1.25,1.25.33.98.8,1.37.11.96.84,1.14.52,1.4.54-.93,1.29.04,1.31-.72,1.12-.3,1.23.36,1.36-.3,1.22-.68,1.16.38,1.33-.61,1.19-.24.99-.95.67-1.14-.37-1.18.11-1.09-.79-1.21.38-1.15-.22-1.19.2-1.12-.48-1.11-.53-1.22.43-1.14-.44-1.2.05-1.15-.37-1.18-.14-1.18-.12-1.12-.58-1.21.13-1.17-.17-1.2.05-1.19-.06-1.15-.36-1.13-.47-1.25.49-1.2.02-1.18-.1-1.11-.69-1.16-.23-1.2.09-1.16-.28-1.23.33-1.18-.12-1.09-.91-1.24.45-1.17-.18-1.17-.22-1.03.6-.66.86.28,1.11,1.04.31,1.05.97,1.25-.29,1.14.35,1.23-.18,1.16.22,1.06.84,1.26-.32,1.15.29,1.08.67,1.21-.02,1.25-.27,1.08.66,1.25-.25,1.05.86,1.24-.23,1.05.82,1.16.22,1.27-.38,1.19.09,1.13.39h1.2s1.05.85,1.05.85l1.3-.56,1.17.15,1.17.16,1.12.63,1.26-.2,1.15.5,1.12.67,1.23.02,1.28-.33,1.17.34,1.23-.07,1.16.42.82.65-.11.94.08,1.24.05,1.24.45,1.21.32,1.21-.32,1.28.48,1.18.14,1.13-1.15-.06-1.02.82-1.12.27-1.14.16-1.19-.04-1.19-.08-1.06.64h-1.18s-1.08.53-1.08.53l-1.23-.24-1.16.12-1.05.73-.9.65-.74,1.05.75,1.11,1.23.22,1.19-.43,1.22.43h1.2s1.19-.32,1.19-.32l1.21.09,1.22.41,1.18-.84,1.23.6,1.2-.23,1.21-.08,1.22.19,1.15-.05.26.98.22,1.19.42,1.12,1.05.88-.27,1.39.59,1.05,1.05.83-.05,1.35.76.95.57,1.06-1.07.7-1.05.71-1.26.31-1.21.4-1.23.35-.84,1.13-1.05.72-1.15.51-1.15.51-1.03.57-1.42-.23-.66,1.34-1.04.56-1.11.41-1.24.13-1.17.29-.9.86-1.08.47-1.08.48-.86.93-1.44-.29-.72,1.22-1.03.59-1.23.15-.96.72-1.42-.23-.66,1.35-1.27.07-1.04.56-1.15.34-1.14.35-.84.96-1.21.21-1.16.3-.41,1.42-.41,1.27,1.25.44,1.04.04,1.32.09.96-.74,1.05-.55,1.11-.4,1.24-.08,1.03-.58.83-1.08,1.14-.34,1.25-.06.93-.84,1.21-.16,1.02-.61,1.19-.21,1.19-.22,1.13-.34.72-1.35,1.4.3.78-1.19,1.4.31.85-1.02,1.07-.5,1.03-.58,1.17-.26,1.01-.64,1.19-.21,1.24-.18.97-.8,1.09-.52,1.34.04,1.14-.42.97-.79,1.1-.51.92-.9,1.28-.11,1.09-.49,1.03.65.37,1.17,1.09.59.34,1.22.5,1.11,1.4.27.77.85.28,1.37,1.44.15.37,1.32.92.45-.55,1.05-1.04.72-.24,1.38-1.29.52-.41,1.25-.72.99-.61,1.08-1.37.46-.3,1.33-1.26.55-.27,1.37-.86.88-.83.92-1.08,1.05.85,1.27,1.29.2,1.44-.06.51-1.17.64-1.04,1.16-.48.56-1.13,1.48-.14.59-1.1.79-.89.61-1.07,1.26-.37.39-1.31,1.11-.55.95-.72,1-.67.52-1.39,1.34.86.85.81.88.79,1.13.37.97.63,1.07.46.79.98,1.21.2,1,.6.9.8,1.07.46,1.32-.09.67.9-.14,1.13-.76.98-.46,1.15-.82.95-.89.91.1,1.46-1.12.78-.63,1.05-.04,1.39-1.21.73.08,1.45-1.39.64.06,1.44-1.16.76-.71,1.01-.03,1.39-.64,1.05-.96.87-.14,1.33-.82.92-.18,1.27-1.2.71-.57,1.06-.35,1.18-1.02.8.11,1.44-.63,1.03-.43,1.14-.99.82-.8.93-.56,1.06-.45,1.13-1.03.78.26,1.48.82.82h1.02s1.51-.08,1.51-.08l.5-1.1.3-1.24.37-1.2,1.38-.54.37-1.2.89-.86.34-1.21.37-1.2,1.09-.74.25-1.27.63-1.03.58-1.06.88-.87.92-.84.77-.95.16-1.34.76-.95.34-1.22.79-.93,1.2-.68.11-1.37.94-.84.72-.98.53-1.1.63-1.03.9-.86.37-1.2.84-.9.28-1.26.63-1.04,1.13-.72.37-1.2.79-.94.37-1.45,1.4.25,1.09.52.95.97,1.35-.29,1.14.66-.05,1.31-.59,1.1-.32,1.16-.6,1.09v1.24s-.66,1.08-.66,1.08l.11,1.26-.35,1.15-.44,1.13-.21,1.28-.21,1.28-.35,1.24-.55,1.18.64,1.21.6,1.08,1.41.09.31-1.34,1.35-.88-.17-1.51.82-1.09v-1.42s1.07-.9,1.07-.9l-.08-1.35,1.16-.88.28-1.21.63-1.08.22-1.23-.23-1.41,1.26-.83.08-1.32,1.29-.17,1.13.41,1.15.31,1.11.51,1.2.03.34.68.29-.07.28.81.38,1.18-.36,1.2.36,1.18-.44,1.2.5,1.18.03,1.19-.67,1.21.25,1.18.25,1.18-.43,1.2v1.19s.27,1.18.27,1.18l.73,1.18-.09,1.19-.61,1.2-.08,1.19.19,1.19.18,1.19-.08,1.19v1.19s.4,1.19.4,1.19l.23,1.19-.38,1.23.4,1.23-.81,1.23.28,1.23.26,1.24.21,1.24-.63,1.22-.24,1.23-.06,1.23.35,1.24.5,1.25-.64,1.21.44,1.25-.59,1.21-.06,1.23.45,1.31,1.22.84.97-1.07.97-.82-.45-1.21.15-1.16.6-1.12-.42-1.21.46-1.13-.16-1.18.37-1.14.54-1.13-.6-1.21-.11-1.18.85-1.12-.2-1.18.32-1.15-.32-1.19-.02-1.17.58-1.14-.41-1.2.57-1.16-.68-1.21-.09-1.19.58-1.16-.31-1.19.61-1.16-.32-1.19.31-1.17-.1-1.19-.11-1.19.4-1.17v-1.18s-.41-1.19-.41-1.19l.53-1.17-.49-1.19-.21-1.19-.03-1.18.19-1.18.58-1.17-.33-1.19.51-1.17-.35-.96.95.3,1.05-.08,1.05.05.24-.14,1.13-.53,1.13-.28,1.15.05,1.47-.14-.41,1.58.88,1.03-.62,1.28.79,1.05-.39,1.25,1.01,1-.12,1.2-.33,1.25.79.99.06,1.13.68,1-.07,1.16-.07,1.16.17,1.1.72,1.29,1.39-.14.95-.6.44-1.12-.2-1.3-.17-1.31-.24-1.3.51-1.35.06-1.32-.75-1.16.67-1.22-.75-1.17.21-1.2-.35-1.19-.08-1.19.5-1.21.06-1.04,1.01-.24h1.24s1.11-.48,1.11-.48l1.05-.66,1.09-.48,1.27.03.97-.55.27,1.11.66,1.05.82.98.4,1.16.56,1.09.58,1.08.37,1.18v1.34s.71,1.02.71,1.02l.24,1.23.43,1.15.89.94.68,1.04.42,1.15.2,1.25.51,1.11.87.96-.12,1.38.42,1.15.93.93.64,1.05.61,1.07-.15,1.37.63,1.06.97.93-.22,1.39,1.02.92.35,1.17-.24,1.38.82,1,.69,1.05v1.29s.88.89.88.89l1.11-.15,1.46-.25-.73-1.32-.21-1.23.43-1.41-.55-1.13-.6-1.11-.11-1.26-.4-1.17-.97-.99-.43-1.16-.35-1.18-.34-1.19.14-1.35-.69-1.07-.04-1.29-.63-1.02-.34-1.13-.85-.94.11-1.29-.37-1.12-.52-1.06-.37-1.12-.91-.92.42-1.41-.45-1.09-1.24-.79-.24-1.17v-1.26s-.17-1.19-.17-1.19l-.59-1.03-.58-1.04-.62-1.02-.41-1.1-.23-1.17-.62-1.17,1.24-.41.93-.72,1.08-.44.91-.73.9-.73,1.04-.51,1.21-.3.78-.9,1.16-.39.8-.87.76-.91.68-.98.78-.21,1.31.24.37,1.24.82.86.71.96,1.15.57.18,1.42,1.3.44.52,1.12,1.05.66.67.99.77.91,1.04.68.3,1.32.68.98,1.35.72,1.25-.7.59-1.08-.6-.99-.53-1.14-.14-1.39-1.18-.7-.34-1.26-1.21-.68-.38-1.24-.44-1.2-1.25-.65-.2-1.36-.88-.9-.78-.97-.37-1.25-1.26-.66-.15-1.32.23-1.03,1.38-.34.06-1.45.7-.91.71-.9,1.29-.49.39-1.14.69-.93.32-1.17,1.02-.72.37-1.13.76-.67.86.68,1.29.35,1.11.62,1.06.7,1.02.77,1.13.6.84.93,1.26.3.8.99.86.9,1.36.16.99.71.82.95,1.02.66,1.03.64,1.01.67.85.91,1.13.5,1.2.4.5,1.42,1.37.15,1.11.52.55,1.36,1.14.49,1.26.31.61,1.26,1.11.53.97.74,1.16.45,1.25.31.75,1.06.97.73.92.81,1.28.26,1.03.11,1.46-.09-.36-1.41-.41-1.08-1.17-.45-.66-1.15-.88-.85-1.24-.37-1.01-.68-.68-1.11-1.35-.22-1.04-.64-.52-1.33-.99-.7-.94-.77-1.35-.23-.52-1.32-1.01-.68-1.31-.29-.96-.75-.73-1.04-1.18-.46-1.06-.61-.61-1.2-1.12-.53-1.18-.46-.72-1.05-.99-.71-.98-.72-.89-.83-.68-1.12-1.34-.23-1.13-.5-.99-.69-.83-.89-.69-1.08-1.29-.27-.74-1.03-1.14-.62.78-1.07.35-1.18.02-1.3.61-1.06,1.09-.89v-1.29s.3-1.4.3-1.4l1.46.23,1.04.98,1.16.57,1.32-.34.96.84,1.08.46,1.17.18,1.12.32,1.04.59,1.28-.18,1.12.32,1.09.45,1.21.05,1.23.31.61-1.11.11-1.19-.92-.84-1.16-.26-1.1-.41-.77-1.11-1.01-.58-1.41.25-.86-.91-1.04-.52-1.06-.49-1.23-.13-.86-.92-.95-.48-.91-.58-1.3.32-.61-.91-.19-1.17.48-1.13.55-1.13-.38-1.3.87-1.08.34-1.18.08-1.22-.14-1.16,1.15.18,1.22-.21,1.22-.51,1.23.74,1.23-.04,1.23-.62,1.22.67,1.23-.4h1.23s1.22.38,1.22.38l1.24-.58,1.21.59,1.22.22,1.23-.17,1.21.31,1.25-.84,1.21.49,1.22.1,1.23-.25,1.23-.12,1.22.15,1.21.37,1.21.28,1.23-.15,1.24-.41h1.22s1.22.15,1.22.15l1.22.21,1.22-.06,1.21.55,1.21.34,1.24-.57,1.23-.13,1.22.13,1.22.03.97-.51,1.19-.91-.78-1.3-1.26-.29-1.2-.42-1.26.55-1.16-.95-1.21-.17-1.27.54-1.23.05-1.15-.86-1.24.17-1.26.42-1.14-.9h-1.22s-1.22-.11-1.22-.11l-1.26.35-1.23.06-1.19-.42-1.23.07-1.17-.59-1.28.6-1.15-.8-1.22-.04-1.21-.2h-1.23s-1.27.53-1.27.53l-1.19-.44-1.25.26-1.16-.77-1.25.51-1.18-.52-1.23.19-1.2-.31-1.23.29-1.18-.69-1.25.73-1.2-.39-1.05-.36-.11-1.01-.3-1.17.16-1.17.09-1.17-.41-1.15.14-1.18.25-1.19v-1.18s-.3-.93-.3-.93l1.05-.35,1.05-.71,1.23.12,1.17-.14,1.1-.46,1.21.02,1.08-.59,1.12-.42,1.22.07,1.09-.53,1.19-.07,1.19-.06,1.15-.28,1.43-.32-.06-1.48-.48-1.33-1.39.2-1.19-.17-1.16.29-1.21-.52-1.12.97-1.17.07-1.21-.4-1.15.44-1.21-.43-1.16.29-1.15.46-1.19-.15-1.22-.55-1.2.61-.49-1.28-.1-1.22-.62-1.09.25-1.32-.92-1-.02-1.21v-1.23s-.21-1.17-.21-1.17l-.72-.93.99-.61.9-.89,1.33-.07,1.05-.6,1.14-.43.84-1.02,1.22-.26,1.14-.43,1.21-.2.94-.76.96-.73,1.21-.2,1.04-.55.87-.92,1.32.06.77-1.15,1.41.25.83-1.02,1.25-.09.9-.87,1.02-.61,1.34.11.94-.78,1.06-.52,1.25-.09.84-.98h1.3s1.02-.59,1.02-.59l1.02-.59.91-.82.65-.95.15-1.14-.7-1.3-1.37.55-.99.7-1.23.11-.94.83-1.43-.41-.78,1.23-1.15.3-1.21.13-1.04.57-1.05.57-1.13.34-1.14.32-.97.76-1.28-.04-.95.82-1.34-.19-.97.76-1.1.42-1.1.42-1.1.41-1.04.58-1.34-.17-1.04.58-.95.82-1.25.1-1.13.4-1.11.45-.82,1.11h-1.31s-1.12.4-1.12.4l-1.08,1.1-.75-1.26.15-1.45-.86-.93-.86-.92-.56-1.09-.12-1.37-1.35-.57-.37-1.23-.54-.92.56-.81.63-.99,1.18-.43.58-1.04.95-.66.93-.69.65-.97.55-1.07.82-.79,1.15-.48.41-1.12.96-.58,1.02-.54.11-1.38,1.16-.41.18-1.22-.26-1.12-1.11-.41-1.44.04-.48,1.46-1.42.36-1.05.8-.94.95-.89.9-1.2.5-.98.79-.95.83-1.18.52-.79,1.04-.89.9-1.17.54-.87.77-.68-.82-.97-.67-1.05-.56-.66-1-1.14-.44-.77-.88-.99-.6-.75-.93-.93-.7-.97-.64-.83-.88-1.41-.22.77-1.11.72-.94.59-1.04,1.29-.52.13-1.4.76-.91.57-1.06.98-.75.82-.87.63-1.02.73-.94.56-1.08,1.01-.7.96-.74.36-1.22.76-.9,1.17-.56.32-1.25.55-1.07,1.4-.37.66-.98.34-1.24.99-.71.65-.98.66-.98,1.05-.66.43-1.17,1.08-.63.6-1.03.61-1.02.96-.73.92-.75-.26-1.38-.2-1.08-1.12-.34-1.05.48-1.23.46-.4,1.24-.7.96-1.21.48-.69.97-.7.96-.66,1-1.2.5-.64,1.01-.39,1.24-1.31.39-.93.75-.51,1.13-.58,1.07-1.13.56-.92.76-.87.8-.33,1.29-.58,1.07-1.01.68-.55,1.11-1.2.54-.89.81-.65,1.02-.8.89-1.01.71-.68,1-.56,1.1-.85.85-.91.8-.63,1.03-.73.95-.73,1.12-1.13-.72-.99-.74-1.15-.34-1.36.31-1-.76-1.19-.17-1.13-.34-1.12-.42-.8-.32-.44-1.25,1.07-.96-.02-1.25.55-1.1-.04-1.26.63-1.08.44-1.13-.45-1.37,1.11-.96-.03-1.26.54-1.1-.02-1.26.73-1.06-.24-1.32-.04-1.17-.91-.73-1.24-.1-.84.99-.66,1.01-.32,1.14-.47,1.08-.44,1.09-.6,1.03-.28,1.16.04,1.28-.96.89.06,1.3-.55,1.05-.72.98-.7.99-.04,1.26-.58,1.04-.09,1.35-1.48-.04-1.16-.33-1.19-.04-1.17-.26h-1.19s-1.18-.12-1.18-.12l-1.19.12-1.18-.28-1.19-.14-1.24.5-.45-.48-.07-1.17.26-1.2-.24-1.16.31-1.2-.06-1.17.19-1.18-.1-1.17-.29-1.16-.3-1.16-.27-1.16.53-1.19-.53-1.16.18-1.18-.32-1.17.13-1.18.61-1.18-.95-1.16.43-1.21-.12-1.21-.05-1.21.71-1.21-.82-1.21.36-1.21-.3-1.21.55-1.2-.41-1.21.58-1.2-.78-1.22.17-1.21.06-1.21-.03-1.21.39-1.2.1-1.21-.17-1.21.05-1.21.41-1.2-.32-1.21-.08-1.21.23-1.2-.57-1.21.82-1.19.04-1.2-.93-1.15-1.12-.35-1.04.38-.22,1.03-.72,1.18.2,1.22.36,1.23-.85,1.16.43,1.24-.18,1.2-.42,1.19.26,1.23.07,1.22-.69,1.17.05,1.22-.21,1.2-.03,1.21.5,1.25-.46,1.19.07,1.22.18,1.22-.62,1.18.6,1.25-.19,1.2.12,1.22-.86,1.17.82,1.25-.42,1.2-.59,1.19.53,1.22-.65,1.18.34,1.21-.12,1.2.47,1.21-.05,1.2-.23,1.2.05,1.2-.36,1.2.08,1.2.32,1.2-.41,1.21v1.2s.24,1.19.24,1.19l.02,1.2v1.2s.14,1.19.14,1.19l.13.38ZM100.88,169.55l-1.1-.64-1.09-.65-1.35.61-1.12-.52-1.13-.44-1.1-.55-1.12-.44-1.35.38-1.05-.7-1.13-.4-1.25-.04-1.15-.36-1.13-.41-.92-.99-1.12-.41-1.2-.23-1.27-.06-.95-.85-1.14-.38-1.24-.19-1.03-.64-.87-.94-1.18-.32-1.05-.59-1.19-.34-1.11-.49-.9-.84-1.08-.55-.7-1.1-1.03-.61-1-.67-1.29-.29-.42-1.39-.94-.74-1.28-.36-.69-1.02-1.02-.67-.7-1-1.04-.67-.65-1.03-.54-1.11-1.24-.56-.36-1.24-.74-.95-.52-1.09-.85-.88-.75-.96-.73-.98-.32-1.2-.34-1.17-.28-1.18-.94-.91-.03-1.27-.57-1.07-.52-1.09.3-1.33-.69-1.05-.36-1.15-.62-1.1.34-1.29-.26-1.17-.45-1.15v-1.21s.38-1.23.38-1.23l-.73-1.15-.3-1.2.07-1.21-.07-1.21.39-1.19.35-1.18.05-1.19-.12-1.21-.22-1.24.72-1.11-.12-1.23.03-1.22.21-1.19.52-1.12-.09-1.26.88-1.01.57-1.08-.36-1.36,1.04-.93.49-1.09-.3-1.38,1.09-.87-.14-1.35.26-1.2.91-.91.2-1.24,1.15-.77.33-1.18.67-1,.82-.91.35-1.18.33-1.21,1.08-.73.56-1.06.75-.93.56-1.07.45-1.16.58-1.08.96-.77,1.07-.67.51-1.15,1-.71,1.01-.69.86-.83.39-1.31,1.19-.49.93-.75.74-.97.54-1.23,1.41-.16,1.02-.63.8-.93.77-.99,1.23-.32.7-1.13,1.19-.36.95-.79,1.42.09.7-1.31,1.27-.16,1.22-.22,1.09-.52,1.17-.3.88-1.13,1.31.09,1.02-.79,1.18-.32,1.36.4,1.18-.24,1.18-.21,1.08-.71,1.12-.61,1.21-.13,1.23.04,1.16-.47h1.22s1.27.67,1.27.67l1.18-.38,1.18-.53,1.22.05,1.21.14,1.21-.06,1.21-.12,1.19.67,1.23-.7,1.19.41,1.22-.17,1.18.43,1.23-.2,1.2.15,1.15.44,1.24-.23,1.14.48,1.15.36,1.25-.14,1.04.83,1.13.37,1.39-.53,1.12.46.97.88,1.3-.08.92.95,1.39-.21,1.1.5.93.86.94.79,1.03.63,1.17.39.8,1.01,1.28.26,1.03.66.64,1.17,1.16.47.77.97.89.81,1.35.33.57,1.15.79.92,1.01.72.72.98.82.91.42,1.2.62,1.04,1.02.78.18,1.31,1.08.77.71,1,.43,1.15.87.93.49,1.12.3,1.2.27,1.2.83.98.53,1.11-.27,1.38.94.97-.24,1.35.86,1.01.16,1.21.6,1.1.2,1.2-.27,1.28.31,1.16.02,1.21.61,1.13-.03,1.22-.07,1.22-.18,1.22.07,1.19.86,1.16-.28,1.22.17,1.2.13,1.21.07,1.21-.15,1.2-.76,1.16-.24,1.18.29,1.23-.46,1.15.24,1.24-.4,1.15-.09,1.2-.02,1.22-.15,1.2-.84,1.04-.08,1.22.06,1.26-.97.97.12,1.29-.24,1.19-.74,1.02-.25,1.19-.49,1.1.03,1.32-1.04.87-.61,1.04-.72.98.02,1.35-.29,1.21-.8.94-1.13.74-.25,1.25-.77.93-.75.94-.27,1.28-1.3.54-.32,1.26-1.04.71-.59,1.07-1.04.68-.78.9-.55,1.13-.47,1.23-1.13.57-.84.86-.8.92-1.13.53-1,.68-.62,1.18-1.45.05-.59,1.25-1.4.06-.84.91-1.14.42-.77,1.09-1.19.33-1.03.63-.97.78-1.36-.1-.97.8-1.28.02-1.14.37-.95.96-1.18.27-1.28-.16-1.04.83-1.27-.19h-1.22s-1.05,1.05-1.05,1.05l-1.24-.1-1.18.35-1.26-.57-1.17.57-1.21-.06-1.3.27-1.26-.42-1.26-.46-1.31.51-1.27-.36-1.29.13-1.26-.29-.06.05v.39Z"/>
        <g>
          <path class="cls-2" d="M68.11,70.96c.24,0,.48,0,.7,0-.23,0-.46,0-.7,0Z"/>
          <path class="cls-2" d="M55.59,85.14c.65.02.97-.29.95-.95-.65-.02-.97.29-.95.95Z"/>
          <path class="cls-1" d="M45.71,107.88c.59.59,1.15,1.15,1.7,1.7.4-.32.88-.48,1.36-.66l-.03-.35.03-1.22.07-.39c-.48.24-.96.49-1.43.73l-.9-.9h-2.85l-.12.47-.68,1.16.1.34h1.74c.36-.32.69-.6,1.01-.88Z"/>
          <path class="cls-1" d="M105.24,201.44h-2.62c-.32-.19-.61-.36-.88-.52l.09.27.23,1.19-.29.93h3.38c.18.14.35.28.53.42v-.09s.58-1.14.58-1.14l-.1-.28s-.05.04-.08.06c-.39-.39-.61-.61-.84-.84Z"/>
          <path class="cls-1" d="M45.09,121.64c.08-.74.17-1.48.24-2.18.62-.22,1.16-.41,1.75-.62-.06-.5-.11-.92-.13-1.16-1.17-1.14-1.61.33-2.39.4-.54-.55-1.05-1.2-2.04-.53-.12.78-.24,1.64-.38,2.53-.07-.02-.12-.06-.18-.08l.02.25.03.81c.1,0,.23.01.33.01,1-.22,1.46,2.09,2.74.57Z"/>
          <path class="cls-1" d="M110.6,58.15l1.07-.61c-.09-.08-.17-.18-.23-.33.28-.32.55-.64.91-1.06-.83-.24-.96-1.3-2.03-1.27-.53.28-1.17.62-1.8.95.23.57.62,1.08.86,1.65h.01s1.19.67,1.19.67Z"/>
          <path class="cls-1" d="M67.85,26.24c.24.68-.27,1.55.47,2.15.38.1.77.03,1.16.01l-.19-.27-.82-.95.03-1.32-.77-.96-.58-.91c-.12.13-.25.26-.38.4.37.61.86,1.18,1.1,1.84Z"/>
          <path class="cls-1" d="M59.19,83.54c-.11-.11-.21-.23-.32-.34-.28.47-.41.94-.45,1.42l.33-.23.44-.85Z"/>
          <path class="cls-1" d="M63.83,21.9c.05-.06.1-.12.15-.17-.46-.26-.91-.52-1.43-.82-.04.04-.09.1-.13.14l.71.55-.25,1.37,1.02.9.64,1.04v.58c.12.05.28.09.49.08.04-.12.09-.25.12-.39.03.03.05.05.07.08.22-.39.45-.79.72-1.27-.54-.51-1.2-1.12-1.84-1.75-.07-.07-.02-.25-.01-.4-.09.02-.17.04-.26.06Z"/>
          <path class="cls-1" d="M74.57,181.21c-.73-.86-1.41-.47-1.99-.58-.29-.06-.6.01-.9.01l-1.11.51.02.43s.1-.06.15-.08c.98.28,1.26,1.37,1.94.72.64-.34,1.29-.68,1.91-1.01Z"/>
          <path class="cls-1" d="M147.06,150.39h-.02s-.5.92-.5.92c1.52-.03,1.72-.14,2.6-.65-.68-.46-1.4-.24-2.08-.27Z"/>
          <path class="cls-1" d="M55.13,153.24l.07.15,1.21.23c.03-.05.06-.1.09-.16-.46-.11-.88-.22-1.26-.31-.04.03-.07.06-.1.09Z"/>
          <path class="cls-1" d="M193.54,114.81l-.93.04s0,0,0,0c-.67.77-1.33,1.54-1.82,2.1-.05,1.27.59,1.27,1.4,1.28.78-.76,1.64-1.6,2.41-2.35-.09-.48-.04-.94,0-1.37l-1.08.3Z"/>
          <path class="cls-1" d="M188.89,114.02v.42c.13-.08.26-.15.39-.23l-.39-.2Z"/>
          <path class="cls-1" d="M170,96.69c-.03.59-.16,1.18.43,1.65.32-.3.65-.59.99-.91h1.65c.58-.34,1.06-.61,1.52-.88l-.8-.26-1.15.44-1.21-.43-1.16.29-.27.11Z"/>
          <path class="cls-1" d="M39.08,96.49c-.08.08-.17.16-.26.24l.72.19.98.8.71.06c-.55-.63-1.03-1.49-2.15-1.29Z"/>
          <path class="cls-1" d="M70.48,62.96c.14.15.3.31.43.44,1.38,0,2.47.02,3.57-.01.27,0,.54-.2.88-.33v-1.47c-.97-.12-1.92-.09-2.85-.08l-.37.9-1.25.38-.4.17Z"/>
          <path class="cls-1" d="M180.55,161.36c-.08-.07-.16-.13-.24-.19l.36.89,1.14.49.42.1c-.03-.2-.06-.4-.09-.62-.53-.21-1.17-.32-1.58-.68Z"/>
          <path class="cls-1" d="M153.21,163.53l-.2-1.36-.88-.9-.78-.97-.29-.96c-.3.16-.62.33-.93.5.2,1.15,1.38,1.55,1.89,2.46.02.3.04.6.06.93.62.29,1.24.59,1.71.81.17.59.29,1,.41,1.42.21-.12.4-.23.6-.35l-.34-.93-1.25-.65Z"/>
          <path class="cls-1" d="M145.31,67.55c-.42-.42-.86-.86-1.36-1.36-.38.07-.81.15-1.44.26.13.66.24,1.19.31,1.54.7.16,1.12.25,1.71.38-.27.32-.48.57-.72.86l.08.1.89.81,1.35.33.39.78c.89-.56,1.8-.2,2.65-.31h0s0,0,0,0c0,0,0,0,0,0-.11-.27-.16-.58-.34-.79-.38-.45-.83-.84-1.04-1.05-.97-.06-1.57-.1-2.2-.14-.12-.55-.21-.98-.31-1.43Z"/>
          <path class="cls-1" d="M167.79,148.48c.28-.33.6-.71.92-1.1l-.66-1.09-1.34-.23-1.07-.47c.25.27.51.54.82.86-.78.49-1.53.96-3.24,2.03h4.57Z"/>
          <path class="cls-1" d="M103.27,31.31c-.39.39-.77.77-1.13,1.13l.17.4-.1.17c.19.37.37.75.65,1.03.08-.02.17-.04.26-.06-.05.06-.09.11-.14.17.39.34.94.56,1.79,1.05.41-.64.91-1.42,1.4-2.2.37.13.67.23.95.33l.23-.46-.95-1.16.05-.14c-.13-.07-.25-.13-.39-.2-.22.21-.55.52-.53.5-1.34.79-1.62-.28-2.26-.55Z"/>
          <path class="cls-1" d="M105.63,35.63c.48.15.87.28,1.21.39l-.22-.79.08-.73c-.35.37-.7.74-1.07,1.13Z"/>
          <path class="cls-1" d="M61.55,71.15c.06-.06.13-.11.19-.17.32.29.65.59.96.86.35-.3.68-.56.95-.79.99.21-.2,1.7,1.04,1.63.35-.26.65-.49.92-.7.36.36.59.59.81.81.17-.21.41-.39.51-.63.17-.4.25-.83.36-1.21h.83c.24,0,.47,0,.7,0h.02c-.11-.27-.22-.54-.41-1.01-2.2.06-4.46.12-6.72.19l-.14,1.01Z"/>
          <path class="cls-1" d="M30.14,90.78c.29-.1.62-.22,1.03-.36-.47-.34-.96-.49-1.39-.65l.17.53.19.48Z"/>
          <path class="cls-1" d="M61.74,64.35c-.33.31-.65.61-.97.91-.33-.3-.65-.59-.95-.87-.13.11-.23.2-.35.31l.93.73.43,1.15.47.92c.38-.27.71-.5.97-.68-.18-1.07.26-1.9-.53-2.47Z"/>
          <path class="cls-1" d="M150.37,155.89l.66-.17c-.05-.05-.11-.1-.15-.17-.17.11-.35.23-.52.34Z"/>
          <path class="cls-1" d="M148.09,157.39c.3,1.05-.18,1.9.66,2.44h1.38c.05-.4,0-.81,0-1.23l-.4-.21-.15-1.32.17-.76c-.56.37-1.13.74-1.65,1.08Z"/>
          <path class="cls-1" d="M139.67,165.84c.14-.56,0-1.31.96-1.29-.02-.09-.04-.18-.07-.26.05.04.09.08.14.12-.05-.54-.09-1.07-.15-1.66h-1.38c-.63.63-1.18,1.18-1.81,1.81-.54,0-1.15-.04-1.76.03-.19.02-.35.34-.52.52.78.41,1.56.81,2.5,1.29.16-.03.36,0,.58.03l.87-.43.63-.16Z"/>
          <path class="cls-1" d="M190.82,165.07c.2-.26.37-.47.56-.7l-.27-.26-1.24-.37-.03-.02v2.39c.98.94,2.05,1.98,3.14,3l.16.02,1.18-.07c.09-.09.16-.2.2-.33l-.27-1.04c-.55-.26-1.14-.48-1.62-.85-.68-.52-1.23-1.19-1.8-1.76Z"/>
          <path class="cls-1" d="M193.73,70.28c-.1-.09-.2-.17-.28-.24.39.64.07,1.35.18,2.01l.18-.1.66-.59c.02-.1.07-.17.19-.2,0,0,0,0,.01.01l.04-.04.65-.95.02-.17c-.55,0-1.12,0-1.73,0,.02.09.04.17.07.26Z"/>
          <path class="cls-1" d="M175.92,99.11c-1.5-1.12-1.55-1.11-2.42,1.03.38-.01.71.03,1.01.09l1-.37,1.22.07,1.09-.53.88-.05c-.92-.14-1.92.22-2.77-.23Z"/>
          <path class="cls-1" d="M70.75,163.39c-.52-1.07-1.64-1.7-2.41-2.62h-1.36c.02.09.04.17.07.26-.04-.03-.07-.06-.11-.09v1.29c.62.28,1.26.57,1.9.87-.11.13-.22.24-.32.36l.35.12.97.63.43.19c.07-.02.14-.04.21-.06.08-.28.16-.55.28-.94Z"/>
          <path class="cls-1" d="M121.37,48.08l-.28.39c.02.09.03.16.05.26.68-.88,1.1-1.41,1.51-1.95-.09-.09-.17-.17-.26-.26l-.3.58-.72.98Z"/>
          <path class="cls-1" d="M54.48,82.93c-.25.13-.52.21-.78.32-.1.26-.13.65-.31.75-.49.25-1.04.36-1.6.54.06.5.11.91.16,1.3q1.26.15,2.3-.7h1.35c-.02-.65.29-.97.95-.95-.1-.26-.19-.53-.32-.78-.19-.36-.4-.71-.6-1.06-.04,0-.08,0-.13,0-.34.19-.67.4-1.01.57Z"/>
          <path class="cls-1" d="M159.24,80.52c-.81.46-1.61.91-2.45,1.39,1.47,1.01,3.17-.22,4.54.73.18.54.36,1.07.56,1.67.57-.16,1-.27,1.49-.4-.73-.73-.95-1.58-1.27-2.39-.42-.19-.93-.15-1.41-.17l-.35.35-.26-.44c-.34-.1-.63-.29-.85-.74Z"/>
          <path class="cls-1" d="M153.98,75.95c1.15,1.63,2.16,3.06,3.19,4.51.53-.53.96-.96,1.14-1.14-1.16-1.16-2.32-2.32-3.58-3.57-.02,0-.29.08-.75.2Z"/>
          <path class="cls-1" d="M149.17,70.96c-.1.75.67.93.92,1.44-.29.32-.58.64-.87.95.46.65,1.14.29,1.68.47.67.22,1.26.69,1.93.89.29.09.7-.23,1.04-.35-1.16-1.21-2.22-2.31-3.26-3.39h-1.45Z"/>
          <path class="cls-1" d="M181.01,77.98l.53-.65c-.42-.38-.83-.76-1.13-1.22-.15-.48.26-1.25-.79-1.19-.21,1.02-.31,2.01-.1,2.93l.08-.12,1.41.25Z"/>
          <path class="cls-1" d="M188.86,163.05l-.68-1.11-1.01-.16c-.2,2.26-.16,2.31.28,2.75.33-.3.66-.6,1-.92h1.24l-.83-.56Z"/>
          <path class="cls-1" d="M69.3,157.94c.08-.12.19-.23.3-.33l-.04-.02-.7-1.1-.73-.43c-.24,0-.48,0-.72,0-.42,0-.85.11-1.67.22.73.73,1.21,1.21,1.67,1.67.67,0,1.28,0,1.89,0Z"/>
          <path class="cls-1" d="M135.46,162.71c.32.28.65.58,1.07.95.16-.45.3-.87.44-1.28-.31-.36-.59-.67-.88-1l-.04.08-1.32.06c-.23.25-.47.51-.75.8.11.4.22.82.37,1.36.45-.39.77-.68,1.1-.97Z"/>
          <path class="cls-1" d="M149.21,47.33l.51-.35.7-.54c-.23-.02-.45-.05-.7-.07-.17.32-.34.64-.51.96Z"/>
          <path class="cls-1" d="M198.66,118.55l.54.06c-.01-.13-.02-.24-.03-.37-.19.11-.35.21-.51.31Z"/>
          <path class="cls-1" d="M65.03,25.58c-.1.3-.24.55-.39.77l.65.86-.1.63c.5-.36,1.12-.56,1.72-.84-.52-.53-.94-.97-1.69-1.74-.03-.03-.05-.05-.07-.08-.03.14-.07.27-.12.39Z"/>
          <path class="cls-1" d="M51.77,137.6c-.29.32-.58.65-.88.99.56.55,1.17.55,1.82.42l-.32-1.09-.28-1.18-.94-.91v-.49c-.14.41-.26.81-.38,1.19.36.4.67.74.98,1.08Z"/>
          <path class="cls-1" d="M166.17,151.26c-.05-.24-.14-.49-.28-.72-.58-.28-.98-.18-1.31.05l.23.26,1.26.3.1.12Z"/>
          <path class="cls-1" d="M159.49,143.21c-.1.61-.98.71-.85,1.45.09-.02.18-.04.26-.07-.03.04-.06.07-.09.11h1.28c.38-.42.8-.87,1.22-1.33-.39-.73-.8-1.5-1.21-2.28l-.14-.08c-.43.43-.85.85-1.29,1.29.29.32.58.64.82.9Z"/>
          <path class="cls-1" d="M68.11,70.96h-.22c.67.3,1.06.66,1.39.98l.27-.22.58-.76c-.4,0-.84,0-1.31,0h-.02c-.22,0-.46,0-.7,0Z"/>
          <path class="cls-1" d="M46.96,80.28l1.05.63.88.44s.06,0,.09,0c-.09-.87.22-1.78-.3-2.71-.35-.03-.76-.08-1.16-.12-.26.53-.5,1.04-.74,1.54l.2.21Z"/>
          <path class="cls-1" d="M51.81,98.25c-.05.94-.9,1.05-.79,1.6l.5-.45.49-1.09-.14-.65s-.04-.03-.06-.05c0,.39,0,.72,0,.64Z"/>
          <path class="cls-1" d="M74.91,162.69c.8-.17,1.6.28,2.26-.32-.16-.33-.31-.65-.46-.95l-.65-.7-.62-.17c-.39.23-.79.46-1.18.68.31.71.48,1.09.64,1.46Z"/>
          <path class="cls-1" d="M61.98,162.5c.38-1.14.36-2.29-.05-3.65-.58.1-1.11.19-1.87.31.58,1.27,1.04,2.31,1.52,3.33.02.04.21,0,.4,0Z"/>
          <path class="cls-1" d="M33.63,151.95l-.45.05c.4.44.75.84,1.1,1.23.65-.47.51-1.09.49-1.72l-.04.02-1.11.41Z"/>
          <path class="cls-1" d="M161.6,59.59c.13.49.24.87.29.97.45-.42.88-.81,1.25-1.16-.11-.15-.22-.29-.33-.43l-.59.15-.62.47Z"/>
          <path class="cls-1" d="M125.33,51.8c.07-.28.15-.57.13-.49-.86-1.08-1.61-2.02-2.45-3.07-.14.5-.25.92-.35,1.3q2.33,2.43,2.67,2.25Z"/>
          <path class="cls-1" d="M76.47,51.49v1.6c1.13-.26,1.95.22,2.77-.57-.08-.41-.19-.93-.29-1.47-.94.21-1.75-.26-2.48.43Z"/>
          <path class="cls-1" d="M54.05,53.82s.09.09.14.14c.07-.15.13-.28.19-.42l-.13.02-.2.26Z"/>
          <path class="cls-1" d="M161.42,112.61v.2s-.14,1.2-.14,1.2l-.29.44s.06.06.1.09c.36-.12.78-.23,1.17-.4.39-.17.73-.52,1.13-.6.44-.09.83-.07.74-.76-.88-.26-1.77-.33-2.71-.16Z"/>
          <path class="cls-1" d="M65.47,199.35l.18-.63c-.06-.06-.1-.1-.16-.16-.58.05-1.3.1-2.02.19-.12.01-.22.2-.32.31l1.37,1.37.07-.21.89-.86Z"/>
          <path class="cls-1" d="M163.82,109.73c-.03-.06-.3-.05-.44,0-.31.12-.61.28-.91.42.54.6.95,1.04,1.34,1.47.76-.17,1.56.29,2.44-.52-.8-.55-1.97-.47-2.44-1.38Z"/>
          <path class="cls-1" d="M45.79,93.77l-1.2.14-.26-.03s-.05,0-.08.01v1.24c.6.23.75,1.13,1.57,1.21.46-.82.46-1.62-.03-2.58Z"/>
          <path class="cls-1" d="M156.74,135.63c.07.46.15.99.22,1.5h.14c1.29-.65,1.93-.98,2.65-1.35-1.15-.72-1.99-.66-3.02-.15Z"/>
          <path class="cls-1" d="M175.59,132.53c-.19.34-.35.7-.59.99-.45.57-.44,1.08.18,1.76.43-.1.95-.22,1.42-.33v-1.59l-.49-.7-.41-.24c.02.08.04.16.06.25-.06-.05-.11-.1-.17-.15Z"/>
          <path class="cls-1" d="M150.51,152.25c-.16.66-1.15.75-1.17,1.6.62.53,1.32.24,1.98.28l.51-.66c.36-.95.09-1.05-1.32-1.22Z"/>
          <path class="cls-1" d="M195.98,116.34c-.72,1.62-.66,1.7.93,1.89.41-.54,1.16-.82,1.26-1.6-.68-.58-1.47-.15-2.19-.29Z"/>
          <path class="cls-1" d="M164.31,130.05c1.62.72,1.7.66,1.89-.93-.2-.15-.36-.35-.53-.54l-.17.04-.39-.57c-.15-.1-.31-.17-.51-.2-.58.68-.15,1.47-.29,2.19Z"/>
          <path class="cls-1" d="M138.78,61.5c0,.75-.04,1.5.03,2.24.02.19.34.35.52.52.41-.59,1.21-.87,1.34-1.68.04-1.54-1.12-.98-1.89-1.08Z"/>
          <path class="cls-1" d="M143.56,51.39c-.15,1.37.36,1.63,1.06,1.62l.37-.68.51-.39c.13-.56,0-1.09-.36-1.53-.62.39-1.25.78-1.58.99Z"/>
          <path class="cls-1" d="M71.31,190.13c-.06.09-.12.18-.18.27l.18-.22v-.06Z"/>
          <path class="cls-1" d="M24.91,60.74l-.4.48c.1.14.2.3.29.43,1-.31,1.83.17,2.39-.6-.6-.34-1.18-.71-1.79-1.03l-.5.71Z"/>
          <path class="cls-1" d="M105.9,55.72h2.63q-.07-1.62-1.49-1.7c-.35.54-1.14.77-1.14,1.7Z"/>
          <path class="cls-1" d="M35.07,93.48c.62-.42,1.24-.84,1.68-1.14-.14-.75.04-1.39-.12-1.9l-.35-.5s-.03-.03-.05-.05h0c-.48.85-1.03,1.67-1.4,2.57-.13.31.18.79.25,1.02Z"/>
          <path class="cls-1" d="M161.58,96.75s-.01,0-.02-.01c.27.81.9,1.3,1.76,1.68.28-.14.62-.31.98-.5-.54-.55-.98-1-1.41-1.43-.47,0-.93,0-1.38,0,.02.09.04.17.07.26Z"/>
          <path class="cls-1" d="M168.24,112.96c.17.11.34.23.51.34.02-.04.04-.09.06-.16l-.57-.18Z"/>
          <path class="cls-1" d="M155.85,68.48c.02.42.04.84.07,1.53.32,0,.58,0,.81,0l.73-.27.28-.51c-.7.09-1.02-1.3-1.9-.76Z"/>
          <path class="cls-1" d="M88.03,51.1l.34.83h0c.55-.03.75-.23,1.15-.6-.49-.13-.96-.21-1.49-.22Z"/>
          <path class="cls-1" d="M167.11,78.23c.74.43,1.27.74,1.92,1.13-.01,0,.39-.1.8-.21-.11-.21-.19-.45-.34-.64-.23-.3-.49-.58-.74-.86l-.57.49-1.06.08Z"/>
          <path class="cls-1" d="M43.17,77.23c2.08.37,2.08.35,2.82-.27-.43-.43-.85-.85-1.28-1.28-.43.43-.85.85-1.55,1.54Z"/>
          <path class="cls-1" d="M87.46,166.63c-1.38-.12-1.97-.18-2.33-.21-.44.58-.78,1.03-1.19,1.58.45.14.86.28,1.18.38.66-.49,1.23-.92,2.34-1.75Z"/>
          <path class="cls-1" d="M102.56,219.51h-1.37l-.07.13-.05,1.13c.61-.3,1.16-.57,1.71-.83-.06-.11-.11-.21-.23-.43Z"/>
          <path class="cls-1" d="M67.39,189.14q.97.94,1.35.56v-1.83c-.64.34-1.19.28-1.67.31l-.09.84-.12.14c.18,0,.36-.02.53,0Z"/>
          <path class="cls-1" d="M166.59,120.32l.05-.82-.05-.42c-.45.02-.9.21-1.36.58.45.22.9.44,1.36.67Z"/>
          <path class="cls-1" d="M38.21,153.1c.43-.43.85-.85.89-.89-.3-.65-.61-1.29-1.05-2.22-.45,2.23-.45,2.23.15,3.12Z"/>
          <path class="cls-1" d="M106.75,3.15s-.03-.02-.04-.04c.09.17.19.35.28.52l.49-.71c-.25-.02-.52-.04-.8-.06.02.1.04.2.07.3Z"/>
          <path class="cls-1" d="M161.06,109.18l.17,1.2.09.79c.42-.75.36-1.49-.19-2.25l-.06.25Z"/>
          <path class="cls-1" d="M104.76,52.54c.64.66,1.26.66,1.93-.08-.07-.37-.15-.79-.23-1.22-.88.17-1.18.87-1.69,1.3Z"/>
          <path class="cls-1" d="M147.28,44.93c.08.42.17.95.36,2.03.43-1.21,1.33-1.35,1.4-2.17-.55-.46-1.07-.47-1.76.14Z"/>
          <path class="cls-1" d="M71.65,43.01c.07.43.15.95.2,1.32.65-.41,1.24-.77,1.85-1.15-.82-.76-1.34-.72-2.05-.17Z"/>
          <path class="cls-1" d="M157.61,89.85l-.09.49.56.57c.29-.09.72,0,.57-.54-.33-.41-.67-.57-1.03-.52Z"/>
          <path class="cls-1" d="M54.95,82.43c.19-.04.37-.06.54-.07.04,0,.08,0,.13,0,1.21-.07,2.1.28,2.77-.59-.99-.65-1.91-.75-3.44.67Z"/>
          <path class="cls-1" d="M55.59,85.14c-.06.8.46,1.04,1.08.91.31-.06.71-.46.77-.77.13-.62-.11-1.14-.91-1.08.02.65-.29.97-.95.95Z"/>
          <path class="cls-1" d="M130.42,55.23c-.07.06-.14.13-.22.2.72.2.83,1.15,1.79,1.2.08-.43.16-.85.23-1.27-.08-.07-.16-.13-.23-.19l-1.26.29-.31-.24Z"/>
          <path class="cls-1" d="M45.8,101.05c-.85.81-.87.83-1.36,2.06.61-.07,1.12-.13,1.82-.2-.18-.74-.31-1.24-.47-1.86Z"/>
          <path class="cls-1" d="M97.31,54.54c.43.43.86.86,1.31,1.31.59-.65.67-1.28-.01-1.91-.49.07-1.19-.29-1.3.6Z"/>
          <path class="cls-1" d="M37.67,95.53c.59.09,1.25-.07,2.13-.52-2.23-.45-2.22-.44-2.98.21.08.05.16.09.25.13h.5s.11.19.11.19Z"/>
          <path class="cls-1" d="M57.47,164.02c.07.43.15.95.2,1.32.65-.41,1.24-.77,1.85-1.15-.82-.76-1.34-.72-2.05-.17Z"/>
          <path class="cls-1" d="M73.63,162.12c-.72-.2-.83-1.15-1.79-1.2-.08.43-.16.85-.23,1.27.68.62,1.31.7,2.02-.07Z"/>
          <path class="cls-1" d="M95.08,167.91l-.51-.26c-.12.13-.25.26-.38.4.65.12,1.17.22,2.22.42,0-.01,0-.02,0-.03l-.2-.09-1.13-.44Z"/>
          <path class="cls-1" d="M106.09,169.12h-.02c.18.12.36.19.54.19l-.52-.19Z"/>
          <path class="cls-1" d="M33.87,155.58c-.08-.42-.19-.94-.33-1.66-.55.79-1.31,1.06-1.41,1.85.55.42,1.07.45,1.75-.19Z"/>
          <path class="cls-1" d="M29.09,156.51c.08.42.19.94.33,1.66.55-.79,1.31-1.06,1.42-1.85-.55-.42-1.07-.45-1.75.19Z"/>
          <path class="cls-1" d="M104.75,183.46c-.14-.91-.81-1.37-1.54-1.77-.12.25-.36.51-.33.74.05.37.27.73.39,1.04.59,0,1.03,0,1.47,0Z"/>
          <path class="cls-1" d="M105.21,183.46h.49s0,.03,0,.05c.22-.01.43-.01.63,0l-.13-.75c-.3.16-.63.39-.98.71Z"/>
          <path class="cls-1" d="M158.34,173.86c.45-.54.46-1.06-.15-1.75-.42.08-.95.17-1.65.29.73.61,1.03,1.31,1.8,1.46Z"/>
          <path class="cls-1" d="M101.17,194.72l-.04.54.09.6c.55.07,1.09-.12,1.64-.57-.57-.47-1.13-.65-1.7-.57Z"/>
          <path class="cls-1" d="M157.69,139.93c.09-.02.17-.04.26-.07,0,0-.01.01-.02.02.88-.27,1.43-.86,1.64-1.8-.55,0-1.1,0-1.88.01,0,.76,0,1.3-.01,1.84Z"/>
          <path class="cls-1" d="M51.33,143.78c.42-.08.94-.19,2.2-.44-1.43-.31-1.52-1.31-2.38-1.32-.43.56-.46,1.09.18,1.76Z"/>
          <path class="cls-1" d="M128.38,35.98c-.9-.07-1,.55-.93,1.18.06.48.37.79.95.71.3-.04.62,0,.93,0-.1-.26-.19-.53-.32-.78-.19-.38-.42-.74-.63-1.11Z"/>
          <path class="cls-1" d="M103.97,38.54c.55.42,1.07.45,1.75-.19-.08-.42-.19-.94-.33-1.66-.55.79-1.31,1.06-1.42,1.85Z"/>
          <path class="cls-1" d="M168.39,134.55l.61.53.65.28c.43-.03.86-.22,1.29-.58-.85-.7-1.7-.78-2.55-.23Z"/>
          <path class="cls-1" d="M86.59,34.68l-.29.31c.12-.05.22-.14.29-.31Z"/>
          <path class="cls-1" d="M161.89,146.6c.43-.07.95-.15,1.32-.2-.41-.65-.77-1.24-1.15-1.85-.76.82-.72,1.34-.17,2.05Z"/>
          <path class="cls-1" d="M194.91,67.89l-.09-.16-.57.23c.15.05.35.02.66-.07Z"/>
          <path class="cls-1" d="M27.22,63.87c.63.68,1.26.68,1.9,0-.63-.68-1.26-.68-1.9,0Z"/>
          <path class="cls-1" d="M36.25,66.11l-.04-.07-1.31-.25-.1-.05s-.01,0-.02.02c.49.52.97.64,1.46.35Z"/>
          <path class="cls-1" d="M129.16,54.73s.01-.07.01-.1l-.64-.09h-.02c.01.07.03.15.04.22.2,0,.4-.02.6-.03Z"/>
          <path class="cls-1" d="M140.75,65.06c.59.26,1.11.46,1.86-.27-.83-.59-1.43-.86-1.86.27Z"/>
          <path class="cls-1" d="M94.82,53.94c-.68.63-.68,1.26,0,1.9.68-.63.68-1.26,0-1.9Z"/>
          <path class="cls-1" d="M93.45,53.45c-.83-.59-1.43-.86-1.86.26.59.26,1.11.46,1.86-.26Z"/>
          <path class="cls-1" d="M78.75,57.72c-.68.63-.68,1.26,0,1.9.68-.63.68-1.26,0-1.9Z"/>
          <path class="cls-1" d="M137.52,61.47c.36.16.84.04,1.26.04-.2-.32-.34-.78-.63-.91-.34-.15-.81-.05-1.22-.04,0,.04.02.09.03.14.17.3.3.66.55.77Z"/>
          <path class="cls-1" d="M152.89,38.34c.86.61,1.46.89,1.85-.14-.55-.51-1.08-.48-1.85.14Z"/>
          <path class="cls-1" d="M129.33,38.74l.21-.31-.1-.57h-.11v.88Z"/>
          <path class="cls-1" d="M156.75,144.23c-.63-.68-1.26-.68-1.9,0,.63.68,1.26.68,1.9,0Z"/>
          <path class="cls-1" d="M160.54,147.72c.08-.38-.08-.75-.48-1.13-.22.21-.37.42-.44.62h.03s.89.51.89.51Z"/>
          <path class="cls-1" d="M146.58,153.23c-.63-.07-1.24.04-1.17.93h1.89c.11-.58-.24-.87-.72-.93Z"/>
          <path class="cls-1" d="M175.7,153.18c-.33-.02-.66.15-1,.5.63.68,1.26.68,1.9,0-.03-.03-.05-.05-.08-.08l-.23-.09-.58-.33Z"/>
          <path class="cls-1" d="M145.4,154.16q-.97.56-.55,1.81c1.01-.35.38-1.2.55-1.81Z"/>
          <path class="cls-1" d="M147.85,155.97q.42-1.25-.55-1.81c.17.61-.46,1.46.55,1.81Z"/>
          <path class="cls-1" d="M30.44,153.11s.06.07.09.1c.22-.2.36-.4.43-.6l-.53.5Z"/>
          <path class="cls-1" d="M167.46,130.35c.22-.06.59-.21.6-.34.02-.33-.05-.66-.11-1l-.25-.13-.17-.11c-.07,0-.15,0-.22.01-.06.42-.13.84-.15,1.26,0,.1.23.32.3.3Z"/>
          <path class="cls-1" d="M167.32,131.78c.06.22.21.59.34.6.41.02.84-.09,1.25-.15-.01-.2-.02-.4-.03-.6-.42-.06-.84-.13-1.26-.15-.1,0-.32.23-.3.3Z"/>
          <path class="cls-1" d="M159.58,138.08c.45-.13,1.05.19,1.46-.06v-.59s.02-.01.02-.01c-.92-.29-.98-.21-1.48.66Z"/>
          <path class="cls-1" d="M155.69,138.42c-.3-.28-.6-.38-.92-.33l-.1.18-.41.57c.64.39,1.11.44,1.44-.41Z"/>
          <path class="cls-1" d="M158.71,133.83c-.86-.61-1.46-.89-1.85.14.55.51,1.08.48,1.85-.14Z"/>
          <path class="cls-1" d="M74.54,175.41s-.03-.02-.04-.03l-.72.5c.23-.06.48-.2.76-.47Z"/>
          <path class="cls-1" d="M76.32,181.88l.16-.33c-.35-.04-.7.12-1.04.5.16.17.32.3.48.38l.4-.55Z"/>
          <path class="cls-1" d="M90.09,183.47c.68-.63.68-1.26,0-1.9-.68.63-.68,1.26,0,1.9Z"/>
          <path class="cls-1" d="M22.1,160.94c-.61-.35-1.07-.37-1.42.55.05.02.1.04.15.07l.23-.3,1.04-.31Z"/>
          <path class="cls-1" d="M23.05,157.07c-.99.34-.41,1.16-.55,1.77.04,0,.08-.02.12-.03.83-.48.82-.55.43-1.74Z"/>
          <path class="cls-1" d="M173.14,156.26l.83.55.17.18c.17-.09.33-.28.45-.61-.45-.42-.89-.45-1.45-.12Z"/>
          <path class="cls-1" d="M20.61,158.41c-.16-.17-.31-.29-.47-.38l-.29.59-.84.05c.53.39,1.06.31,1.59-.27Z"/>
          <path class="cls-1" d="M104.88,197.82c0,.2.02.4.03.6.27.04.53.07.8.11l-.06-.79.02-.03c-.26.03-.52.08-.78.12Z"/>
          <path class="cls-1" d="M81.08,165.94c.02-.41-.09-.84-.15-1.25-.2,0-.4.02-.6.03-.06.42-.13.84-.15,1.26,0,.1.23.32.3.3.22-.06.59-.21.6-.34Z"/>
          <path class="cls-1" d="M84.34,164.64q-.41,1.25.55,1.81c-.17-.61.46-1.46-.55-1.81Z"/>
          <path class="cls-1" d="M158.16,85.16c-.1,0-.32.23-.3.3.06.22.21.59.34.6.41.02.84-.09,1.25-.15-.01-.2-.02-.4-.03-.6-.42-.06-.84-.13-1.26-.15Z"/>
          <path class="cls-1" d="M48.9,93.88c-.59-.26-1.11-.46-1.86.26.83.59,1.43.86,1.86-.26Z"/>
          <path class="cls-1" d="M39.75,91.76l-.44-.25-.64-.33s-.07.06-.11.1c.4.42.79.58,1.18.48Z"/>
          <path class="cls-1" d="M159.19,92.62q.41-1.25-.55-1.81c.17.61-.46,1.46.55,1.81Z"/>
          <path class="cls-1" d="M48.97,81.36s.02.04.03.06l.11.05,1.04.64h0c.17-.04.37-.11.63-.19-.35-1.01-1.2-.38-1.81-.55Z"/>
          <path class="cls-1" d="M53.43,81.47s.06-.07.09-.11c-.46,0-.71.3-.75.72-.07.63.04,1.24.93,1.17v-1.85c-.09.02-.18.04-.26.07Z"/>
          <path class="cls-1" d="M51.89,78.13c1.07.36,1.23.4,1.6-.2l-.52-.19-.14-.19c-.38-.04-.74,0-.94.58Z"/>
          <path class="cls-1" d="M174.71,78.05c-.63-.68-1.26-.68-1.9,0,.63.68,1.26.68,1.9,0Z"/>
          <path class="cls-1" d="M188.89,114.45q-.97.56-.55,1.81c1.01-.35.38-1.2.55-1.81Z"/>
          <path class="cls-1" d="M17.52,113.92l.16-.03c-.23-.22-.45-.36-.68-.4l.52.43Z"/>
          <path class="cls-1" d="M169.48,116.37c-.41-.02-.84.09-1.25.15.01.2.02.4.03.6.42.06.84.13,1.26.15.1,0,.32-.23.3-.3-.06-.22-.21-.59-.34-.6Z"/>
          <path class="cls-1" d="M166.67,99.32c-.68.63-.68,1.26,0,1.9.68-.63.68-1.26,0-1.9Z"/>
          <path class="cls-1" d="M168.26,99.48c-.06.42-.13.84-.15,1.26,0,.1.23.32.3.3.22-.06.59-.21.6-.34.02-.41-.09-.84-.15-1.25l-.6.03Z"/>
          <path class="cls-1" d="M175,96.69l-.21-.07c.48.82.55.81,1.73.42-.08-.23-.19-.36-.31-.45l-.04.04-1.17.07Z"/>
          <path class="cls-1" d="M127.44,41.18c.21.11.41.23.61.34.13-.13.23-.23.34-.34-.21-.11-.41-.25-.63-.3-.08-.02-.21.19-.31.3Z"/>
          <path class="cls-1" d="M128.77,39.67s.03-.03.04-.05v-.13s.49-.72.49-.72c-.61.14-1.09.18-.54.89Z"/>
          <path class="cls-1" d="M128.54,35.36c-.1.15-.17.35-.16.62.3.01.52-.06.68-.19l-.53-.43Z"/>
          <path class="cls-1" d="M102.86,34.04c-.63.14-1.13.17-.57.9.19-.22.39-.45.68-.8.05-.05.09-.1.14-.17-.09.02-.17.05-.26.06Z"/>
          <path class="cls-1" d="M57.3,59.3c-.05-.22-.19-.42-.3-.63-.11.11-.31.23-.3.31.05.22.19.42.3.63.11-.11.31-.23.3-.31Z"/>
          <path class="cls-1" d="M60.46,59s-.1.1-.14.14c.16.08.32.17.48.24l-.09-.05-.25-.33Z"/>
          <path class="cls-1" d="M128.86,58.67c-.1.11-.31.23-.3.31.05.22.19.42.3.63.11-.11.21-.21.34-.34-.11-.2-.22-.4-.34-.61Z"/>
          <path class="cls-1" d="M130.11,60.55c.14-.03.28-.06.43-.1-.04.04-.06.07-.1.11.54-.12.9-.21.39-.86-.2.23-.41.47-.73.85Z"/>
          <path class="cls-1" d="M136.04,60c.26.22.52.44.97.82-.01-.04-.02-.09-.03-.13-.01-.05-.02-.09-.03-.14-.14-.63-.17-1.12-.9-.56Z"/>
          <path class="cls-1" d="M130.11,60.55c-.39.08-.68.16-.62.44l.63-.04c.09-.11.2-.24.33-.38.03-.04.06-.07.1-.11-.15.04-.29.07-.43.1Z"/>
          <path class="cls-1" d="M143.98,47.32c.11-.21.23-.41.34-.61-.07-.07-.12-.12-.18-.18l-.32.15h0c-.06.11-.11.22-.13.33-.02.08.19.21.3.31Z"/>
          <path class="cls-1" d="M56.71,54.25c.05.22.19.42.3.63.11-.11.21-.21.34-.34-.11-.2-.22-.4-.34-.61-.11.11-.31.23-.3.31Z"/>
          <path class="cls-1" d="M80.03,54.28c-.13-.13-.23-.23-.34-.34-.11.21-.25.41-.3.63-.02.08.19.21.3.31.11-.21.23-.41.34-.61Z"/>
          <path class="cls-1" d="M103.04,53.31c.05.22.19.42.3.63.11-.11.31-.23.3-.31-.05-.22-.19-.42-.3-.63-.11.11-.31.23-.3.31Z"/>
          <path class="cls-1" d="M122.24,52.99c-.11.1-.31.23-.3.31.05.22.19.42.3.63.1-.11.21-.21.34-.34-.11-.2-.22-.4-.34-.61Z"/>
          <path class="cls-1" d="M76.08,55.06c-.15.03-.29.11-.43.19l.08.28.07.11c.21-.06.4-.18.6-.28-.11-.11-.23-.31-.31-.3Z"/>
          <path class="cls-1" d="M74.97,51.1c-.11.21-.23.41-.34.61.13.13.23.23.34.34.11-.21.25-.41.3-.63.02-.08-.19-.21-.3-.31Z"/>
          <path class="cls-1" d="M98.35,52.77c.06.07.18.16.26.23.06-.12.13-.23.19-.34l-.15.14-.29-.02Z"/>
          <path class="cls-1" d="M104.57,4.47c-.05-.22-.19-.42-.3-.63-.11.11-.31.23-.3.31.05.22.19.42.3.63.11-.1.31-.23.3-.31Z"/>
          <path class="cls-1" d="M106.67,2.86c-.13-.61-.18-1.08-.89-.53.25.21.5.43.92.79.02.01.03.02.04.04-.03-.1-.05-.2-.07-.3Z"/>
          <path class="cls-1" d="M64.09,21.84c.63-.14,1.13-.17.56-.9-.19.22-.38.45-.68.79-.05.06-.09.11-.15.17.09-.02.17-.05.26-.06Z"/>
          <path class="cls-1" d="M17.94,110.67c-.14.03-.28.06-.43.1.04-.04.06-.07.1-.11-.54.12-.9.21-.39.86.2-.23.4-.47.73-.85Z"/>
          <path class="cls-1" d="M24.25,112.22c-.11-.2-.22-.4-.34-.61-.1.11-.31.23-.3.31.05.22.19.42.3.63.11-.11.21-.21.34-.34Z"/>
          <path class="cls-1" d="M5.34,109.38c-.11-.2-.22-.4-.34-.61-.11.11-.31.23-.3.31.05.22.19.42.3.63.1-.11.21-.21.34-.34Z"/>
          <path class="cls-1" d="M7.03,109.86c-.2.11-.4.22-.61.34.11.1.23.31.31.3.22-.05.42-.19.63-.3-.11-.11-.21-.21-.34-.34Z"/>
          <path class="cls-1" d="M17.94,110.67c.54-.12.9-.21.39-.86-.2.23-.4.47-.73.85-.03.04-.06.07-.1.11.15-.04.29-.07.43-.1Z"/>
          <path class="cls-1" d="M45.29,101.48c-.14-.5-.16-.99-.42-1.05l-.31.43c.19.16.41.35.73.62Z"/>
          <path class="cls-1" d="M170.25,101.39l.28-.03s-.05-.1-.08-.14c-.06.06-.14.12-.21.18Z"/>
          <path class="cls-1" d="M44.06,124.21c.02-.08-.19-.21-.3-.31-.11.21-.23.41-.34.61.13.13.23.23.34.34.11-.21.25-.41.3-.63Z"/>
          <path class="cls-1" d="M171.24,115.57c-.08-.02-.21.19-.31.3.21.11.41.23.61.34.13-.13.23-.23.34-.34-.21-.11-.41-.25-.63-.3Z"/>
          <path class="cls-1" d="M164.31,116.81c.21.1.41.25.63.3.08.02.21-.19.31-.3-.21-.11-.41-.23-.61-.34-.13.13-.23.23-.34.34Z"/>
          <path class="cls-1" d="M195.69,114.76c.05.22.19.42.3.63.11-.11.31-.23.3-.31-.04-.18-.14-.35-.23-.52h-.03s-.15-.01-.15-.01c-.09.08-.19.15-.17.21Z"/>
          <path class="cls-1" d="M160.23,119.36l.08.41c.07-.04.15-.08.22-.12-.1-.1-.22-.28-.3-.29Z"/>
          <path class="cls-1" d="M185.29,117.59c.05.22.19.42.3.63.1-.11.21-.21.34-.34-.11-.2-.22-.4-.34-.61-.11.11-.31.23-.3.31Z"/>
          <path class="cls-1" d="M171.72,118.53c-.06-.07-.12-.13-.16-.12-.09.02-.18.06-.27.11l.04.02h.39Z"/>
          <path class="cls-1" d="M177.68,74.44c.11.21.3.24.72-.09-.01,0-.02-.02-.03-.03l-.21.18-.48-.07Z"/>
          <path class="cls-1" d="M171.4,78.52c-.11.21-.23.41-.34.61.13.13.23.23.34.34.1-.21.25-.41.3-.63.02-.08-.19-.21-.3-.31Z"/>
          <path class="cls-1" d="M53.7,81.4c.63-.14,1.12-.17.56-.9-.2.23-.41.48-.73.86-.03.04-.06.07-.09.11.09-.03.18-.05.26-.07Z"/>
          <path class="cls-1" d="M56.53,78.05c.11.11.23.31.31.3.22-.05.42-.19.63-.3-.11-.11-.23-.31-.31-.3-.22.05-.42.19-.63.3Z"/>
          <path class="cls-1" d="M29.59,65.29c-.11.1-.31.23-.3.31.05.22.19.42.3.63.1-.1.21-.21.34-.34-.11-.2-.22-.4-.34-.61Z"/>
          <path class="cls-1" d="M32.13,64.65c.05.22.19.42.3.63.11-.11.21-.21.34-.34-.11-.2-.22-.4-.34-.61-.1.11-.31.23-.3.31Z"/>
          <path class="cls-1" d="M193.66,70.01c-.14-.63-.17-1.12-.9-.56.2.17.4.34.68.58.09.07.18.15.28.24-.03-.09-.05-.18-.07-.26Z"/>
          <path class="cls-1" d="M32.16,92.25l.3.13.16.17c.19-.11.2-.3-.11-.71-.11.13-.22.26-.35.41Z"/>
          <path class="cls-1" d="M41.56,92.11h-.02s-.03.02-.04.03c.11.09.22.19.34.29l-.27-.32Z"/>
          <path class="cls-1" d="M42.4,93.1c.08.32.19.51.52.35l-.51-.34h-.01Z"/>
          <path class="cls-1" d="M51.04,93.01c.05.22.19.42.3.63.1-.11.21-.21.34-.34-.11-.2-.22-.4-.34-.61-.11.11-.31.23-.3.31Z"/>
          <path class="cls-1" d="M34.02,90.18c.05.22.19.42.3.63.11-.1.31-.23.3-.31-.05-.22-.19-.42-.3-.63-.11.11-.31.23-.3.31Z"/>
          <path class="cls-1" d="M42.53,95.85c.05.22.19.42.3.63.11-.11.31-.23.3-.31-.05-.22-.19-.42-.3-.63-.11.11-.31.23-.3.31Z"/>
          <path class="cls-1" d="M161.52,96.49c-.14-.63-.17-1.12-.9-.56.25.22.51.44.95.81,0,0,0,0,.02.01-.03-.09-.05-.18-.07-.26Z"/>
          <path class="cls-1" d="M50.95,96.87c.23.2.48.41.86.73.02.02.04.03.06.05l-.16-.74h.01c-.1-.32-.28-.43-.77-.05Z"/>
          <path class="cls-1" d="M40.93,94.59c.11-.21.23-.41.34-.61-.13-.13-.23-.23-.34-.34-.11.21-.25.41-.3.63-.02.08.19.21.3.31Z"/>
          <path class="cls-1" d="M172.6,81.89c-.06-.18-.17-.35-.25-.53-.11.11-.31.23-.3.31.03.12.08.24.15.36l.29-.05.12-.09Z"/>
          <path class="cls-1" d="M54.33,88.15c-.22.05-.42.19-.63.3.11.11.23.31.31.3.22-.05.42-.19.63-.3-.11-.11-.23-.31-.31-.3Z"/>
          <path class="cls-1" d="M163.6,89.13s-.07.08-.06.1c.01.05.04.1.06.15v-.26Z"/>
          <path class="cls-1" d="M57.06,87.27c-.06-.04-.13-.07-.19-.11-.13.13-.23.23-.34.34.1.05.21.11.31.17l.15-.17.07-.23Z"/>
          <path class="cls-1" d="M115.93,183.45h0c.14-.02.28-.05.43-.1-.04.04-.06.07-.1.11.54-.12.9-.21.39-.86-.2.23-.4.47-.72.85Z"/>
          <path class="cls-1" d="M118.93,182.99c-.1-.11-.23-.31-.31-.3-.22.05-.42.19-.63.3.11.11.23.31.31.3.22-.05.42-.19.63-.3Z"/>
          <path class="cls-1" d="M102.22,179.51c.22-.05.42-.19.63-.3-.1-.1-.21-.21-.34-.34-.2.11-.4.22-.61.34.11.11.23.31.31.3Z"/>
          <path class="cls-1" d="M74.18,165.68c-.22.05-.42.19-.63.3.1.1.23.31.31.3.22-.05.42-.19.63-.3-.11-.11-.23-.31-.31-.3Z"/>
          <path class="cls-1" d="M150.13,165.97c.21.11.41.23.61.34.13-.13.23-.23.34-.34-.21-.1-.41-.25-.63-.3-.08-.02-.21.19-.31.3Z"/>
          <path class="cls-1" d="M75.62,173.37c.05.22.19.42.3.63.1-.11.31-.23.3-.31-.05-.22-.19-.42-.3-.63-.11.11-.31.23-.3.31Z"/>
          <path class="cls-1" d="M158.11,170.33c-.09.17-.19.34-.28.51.13.13.23.23.34.34.04-.07.08-.15.12-.22l-.14-.31-.03-.32Z"/>
          <path class="cls-1" d="M132.34,171.48c.05.22.19.42.3.63.11-.11.21-.21.34-.34-.11-.2-.22-.4-.34-.61-.1.1-.31.23-.3.31Z"/>
          <path class="cls-1" d="M105.21,183.46h-.46c.1.26.16.71.32.75.54.12.65-.26.63-.7,0-.02,0-.03,0-.05h-.49Z"/>
          <path class="cls-1" d="M115.93,183.46l-.15.58c.13-.16.29-.34.48-.57.03-.04.06-.07.1-.11-.15.04-.29.07-.43.1Z"/>
          <path class="cls-1" d="M154.81,141.86c-.02-.09-.04-.17-.07-.26.04.03.07.06.11.09v-.73c-.09.02-.18.04-.26.07,0-.01.02-.02.03-.03-.24.07-.49.13-.51.24-.12.55.27.65.71.63Z"/>
          <path class="cls-1" d="M154.81,141.86c.14.63.17,1.12.9.56-.23-.2-.48-.41-.86-.73-.04-.03-.07-.06-.11-.09.03.09.05.18.07.26Z"/>
          <path class="cls-1" d="M47.64,140.06c-.09.1-.18.21-.28.33l.25.19v.26c.3-.1.42-.28.03-.77Z"/>
          <path class="cls-1" d="M154.86,140.96c.63-.14,1.12-.17.56-.9-.21.25-.43.5-.8.93,0,.01-.02.02-.03.03.09-.03.18-.05.26-.07Z"/>
          <path class="cls-1" d="M157.69,139.93c-.63.14-1.12.17-.56.9.22-.25.43-.51.81-.95,0,0,.01-.01.02-.02-.09.03-.18.05-.26.07Z"/>
          <path class="cls-1" d="M158.64,144.66c-.63.14-1.12.17-.56.9.2-.23.41-.48.73-.86.03-.04.06-.07.09-.11-.09.03-.18.05-.26.07Z"/>
          <path class="cls-1" d="M48.39,143.01l.26.48c.06-.11.13-.23.19-.34l-.34-.34c-.03.07-.07.13-.11.2Z"/>
          <path class="cls-1" d="M32.9,130.99c-.11-.11-.23-.31-.31-.3-.22.05-.42.19-.63.3.1.11.21.21.34.34.2-.11.4-.22.61-.34Z"/>
          <path class="cls-1" d="M46.27,131.8c.11.2.22.4.34.61.11-.11.31-.23.3-.31-.05-.22-.19-.42-.3-.63-.1.11-.21.21-.34.34Z"/>
          <path class="cls-1" d="M175.76,132.67c-.02-.08-.04-.16-.06-.25l-.6-.35h-.03c.14.13.31.27.52.45.06.05.11.09.17.15Z"/>
          <path class="cls-1" d="M66.97,160.77c-.14-.63-.17-1.12-.9-.56.23.2.48.41.86.73.04.03.07.06.11.09-.03-.09-.05-.18-.07-.26Z"/>
          <path class="cls-1" d="M16.66,159.52l-.26.08-.15.04c.03.06.07.12.1.19.1-.1.2-.2.31-.31Z"/>
          <path class="cls-1" d="M21.94,159.74c.22-.26.44-.52.82-.97-.05.01-.09.02-.14.03-.04,0-.08.02-.12.03-.63.14-1.13.17-.57.9Z"/>
          <path class="cls-1" d="M26.14,156.66c-.11-.2-.22-.4-.34-.61-.11.11-.31.23-.3.31.05.22.19.42.3.63.11-.1.21-.21.34-.34Z"/>
          <path class="cls-1" d="M180.77,156.9c.11-.13.22-.25.34-.4l-.45-.31c-.19.11-.21.3.11.71Z"/>
          <path class="cls-1" d="M64.27,157.3c.05.22.19.42.3.63.11-.11.31-.23.3-.31-.05-.22-.19-.42-.3-.63-.11.11-.31.23-.3.31Z"/>
          <path class="cls-1" d="M141.93,157.76c.22-.05.42-.19.63-.3-.1-.11-.21-.21-.34-.34-.2.11-.4.22-.61.34.11.1.23.31.31.3Z"/>
          <path class="cls-1" d="M61.73,163.61c-.09.09-.25.19-.28.27l.34-.17s-.04-.07-.06-.1Z"/>
          <path class="cls-1" d="M78.11,164.55c.14-.03.28-.06.43-.1-.04.04-.06.07-.1.11.54-.12.9-.2.39-.86-.2.23-.4.47-.73.85Z"/>
          <path class="cls-1" d="M78.11,164.55c-.54.12-.9.21-.39.86.2-.23.41-.47.73-.85.03-.04.06-.07.1-.11-.15.04-.29.07-.43.1Z"/>
          <path class="cls-1" d="M132.98,165.16c-.11-.2-.22-.4-.34-.61-.1.11-.31.23-.3.31.05.22.19.42.3.63.11-.11.21-.21.34-.34Z"/>
          <path class="cls-1" d="M140.63,164.56c.05.21.08.4.14.55l.26-.3.1-.03c-.12-.1-.26-.23-.43-.36-.05-.04-.09-.07-.14-.12.03.09.05.18.07.26Z"/>
          <path class="cls-1" d="M184.48,163.43c.22-.05.42-.19.63-.3-.11-.1-.21-.21-.34-.34-.2.11-.4.22-.61.34.1.1.23.31.31.3Z"/>
          <path class="cls-1" d="M169.98,152.74c.1.1.23.31.31.3.22-.05.42-.19.63-.3-.1-.11-.21-.21-.34-.34-.2.11-.4.22-.61.34Z"/>
        </g>
      </g>
    </g>
  </g>
</svg>