<?xml version="1.0" encoding="UTF-8"?>
<svg id="_レイヤー_2" data-name="レイヤー 2" xmlns="http://www.w3.org/2000/svg" viewBox="0 0 107.83 149.15">
  <defs>
    <style>
      .cls-1 {
        fill: #fff;
      }

      .cls-2 {
        fill: #d8d3c6;
        fill-rule: evenodd;
      }
    </style>
  </defs>
  <g id="_レイヤー_1-2" data-name="レイヤー 1">
    <g id="stars">
      <g>
        <polygon class="cls-2" points="37.33 82.76 36.39 81.98 35.49 81.11 34.47 80.45 33.37 79.96 32.22 79.57 30.92 79.49 29.97 78.67 28.9 78.11 27.7 77.86 26.67 77.18 25.42 77.09 24.23 76.86 23.19 76.18 21.96 76.09 20.86 75.58 19.76 75.06 18.59 74.79 17.55 73.98 16.27 74.11 15.17 73.52 13.88 73.8 12.75 73.32 11.53 73.3 10.44 72.5 9.11 73.18 7.92 72.99 6.8 72.35 5.56 72.54 4.43 71.89 3.21 71.96 1.97 72.22 .8 71.87 0 71.45 .8 71.36 1.99 71.21 3.17 71.35 4.34 70.96 5.55 71.49 6.7 70.81 7.9 71.05 9.12 71.34 10.32 71.4 11.46 70.94 12.63 70.72 13.76 70.2 15.01 70.58 16.17 70.35 17.36 70.29 18.44 69.56 19.66 69.66 20.85 69.55 22.08 69.66 23.19 69.14 24.3 68.65 25.52 68.7 26.67 68.37 27.71 67.63 29 67.93 29.97 66.94 31.32 67.42 32.31 66.54 33.57 66.63 34.59 65.9 35.69 65.43 37.02 65.71 38.05 65.06 39.17 64.67 40.44 64.72 41.4 63.83 42.96 63.75 42.62 62.22 42.17 61.05 41.46 59.98 40.85 58.89 40.57 57.67 40.53 56.33 39.5 55.45 38.7 54.47 38.43 53.22 37.46 52.35 37.61 50.83 36.22 50.23 35.67 49.12 35.24 47.95 36.15 48.76 37.09 49.58 37.86 50.55 38.62 51.52 39.72 52.17 40.22 53.4 41.39 53.96 41.83 55.29 42.98 55.85 43.91 56.66 44.85 57.45 45.82 58.22 46.9 58.81 47.9 60.1 48.54 58.73 48.63 57.5 49.42 56.55 49.89 55.47 50.3 54.37 50.01 53.04 50.88 52.09 51.3 50.99 51.02 49.69 51.32 48.55 52.41 47.66 52.44 46.45 52.52 45.21 52.94 44.06 53.88 43.07 53.43 41.68 54.13 40.61 54.6 39.48 54.66 38.24 54.7 37 55.49 35.93 55.43 34.67 55.88 33.53 56.3 32.37 56.31 31.14 56.18 29.87 56.44 28.69 57.14 27.58 56.87 26.3 57.36 25.15 57.92 24.01 57.26 22.68 58.03 21.57 57.87 20.31 58.23 19.14 58.33 17.93 59.02 16.79 58.38 15.49 59.14 14.36 59.33 13.15 59.3 11.93 59.27 10.7 59.73 9.53 59.82 8.31 59.84 7.1 60.25 5.91 60 4.67 59.92 3.44 60.29 2.25 60.33 1.04 60.32 0 60.25 1.02 60.53 2.23 60.18 3.42 60.54 4.64 60.29 5.83 60.37 7.04 60.02 8.23 59.94 9.44 59.9 10.64 59.56 11.84 60.13 13.06 60.08 14.26 60.03 15.47 60.16 16.67 59.43 17.87 60.16 19.08 60.1 20.29 60.3 21.49 59.98 22.7 59.87 23.91 60.01 25.11 60.03 26.32 60.28 27.52 59.95 28.73 59.7 29.95 60.23 31.14 60.25 32.34 59.75 33.57 60.35 34.75 60.68 35.94 59.91 37.2 60.12 38.4 60.75 39.55 60.54 40.78 60.79 41.97 61.04 43.16 60.81 44.4 61.39 45.54 61.13 46.8 61.51 47.96 61.88 49.12 61.83 50.36 61.83 51.59 62.8 52.62 62.74 53.87 63.05 55.03 63.31 56.21 63.04 57.52 63.89 58.55 64.36 59.66 64.3 61.15 65.68 60.87 66.8 60.45 67.86 59.9 69.16 59.96 70.15 59.26 70.93 58.21 72.3 58.22 73.41 57.72 74.17 56.72 74.95 55.78 76.16 55.43 77.2 54.81 78.19 54.14 78.69 52.9 79.41 51.9 80.5 51.36 81.92 50.52 80.6 51.49 79.72 52.3 79.11 53.33 78.37 54.25 77.4 54.99 76.79 55.99 76.31 57.09 75.55 57.97 74.74 58.82 74.25 59.89 73.68 60.9 73.27 62 72.49 62.89 71.68 63.8 71.29 64.91 71.56 66.25 70.8 67.21 70.65 68.26 71.59 68.82 72.59 69.5 73.53 70.35 74.94 70.12 75.8 71.28 77.05 71.35 78.14 71.94 79.4 71.93 80.48 72.57 81.62 73.02 82.98 72.55 83.95 73.65 85.21 73.59 86.33 74.11 87.59 74.04 88.68 74.72 89.98 74.41 91.15 74.68 92.35 74.86 93.5 75.26 94.7 75.44 95.86 75.86 97.07 75.9 98.27 76.08 99.47 76.23 100.66 76.53 101.88 76.48 103.12 76.07 104.29 76.71 105.53 76.24 106.72 76.41 107.83 76.67 106.69 76.43 105.55 76.99 104.34 76.97 103.19 77.52 102 77.61 100.79 77.51 99.6 77.69 98.4 77.63 97.21 77.82 96.01 77.86 94.83 78.13 93.61 78.01 92.41 78 91.27 78.63 90.1 78.91 88.91 79.02 87.68 78.82 86.51 79.14 85.27 78.93 84.08 79.12 82.85 79.08 81.67 79.36 80.55 79.84 79.44 80.37 78.34 80.89 77.03 80.67 76.04 81.5 74.84 81.69 73.82 82.38 72.66 82.69 71.31 82.6 70.62 83.96 69.38 84.08 69.78 85.16 70.14 86.27 69.83 87.61 70.99 88.46 71.07 89.69 71.79 90.66 71.76 91.95 72.64 92.85 72.65 94.16 73.89 94.85 74.31 95.95 74.85 96.99 75.49 97.98 75.8 99.18 76.37 100.21 77.18 101.09 77.83 102.08 78.34 102.63 77.77 102.08 76.87 101.27 76.21 100.23 74.97 99.74 74.75 98.31 73.96 97.39 72.78 96.84 71.85 96.06 71.03 95.18 70.02 94.49 69.63 93.17 68.58 92.52 67.41 92.02 67.02 90.64 65.78 90.25 64.9 89.42 64.14 88.42 62.96 88.01 62.06 87.51 61.13 88.21 60.76 89.37 60.18 90.46 59.81 91.62 59.97 92.95 59.25 93.99 59.07 95.19 59.01 96.42 58.19 97.47 58.58 98.79 58.21 99.95 58.16 101.16 57.15 102.2 57.8 103.55 57.23 104.68 56.49 105.78 56.85 107.06 56.04 108.14 56.21 109.38 55.92 110.54 56.23 111.79 56.01 112.96 55.61 114.1 55.5 115.28 54.97 116.41 54.88 117.6 55.03 118.82 54.46 119.94 54.27 121.12 54.35 122.33 54.18 123.5 53.99 124.68 53.94 125.87 53.87 127.06 54.23 128.29 53.91 129.45 53.08 130.55 53.56 131.8 53.3 132.97 53.5 134.18 53.49 135.38 53.15 136.54 53.25 137.74 53.07 138.92 52.3 140.03 52.17 141.21 52.76 142.47 52.52 143.64 51.8 144.76 51.42 145.91 51.74 147.14 51.5 148.31 51.6 149.15 51.95 148.31 51.73 147.09 51.37 145.87 51.96 144.68 51.83 143.47 51.56 142.25 51.91 141.05 51.23 139.84 52.14 138.63 52.05 137.42 52 136.21 51.89 135 51.93 133.79 51.67 132.59 51.46 131.39 51.84 130.17 51.05 128.98 51.58 127.76 51.63 126.55 51.59 125.34 51.29 124.14 51.57 122.92 51.75 121.7 50.74 120.53 51.23 119.3 51.54 118.08 51.24 116.88 50.97 115.67 51.31 114.43 51.19 113.22 51.04 112 50.99 110.78 50.34 109.6 50.31 108.38 51.01 107.09 50.42 105.92 49.96 104.74 50.29 103.47 49.67 102.32 50.12 101.02 49.25 99.92 49.18 98.7 49.11 97.47 48.91 96.26 48.91 95 48.68 93.79 48.4 92.59 48.03 91.42 47.29 90.36 46.2 90.83 45.09 91.25 44.17 92.08 42.86 92.06 42.01 93.01 40.77 93.18 39.61 93.54 38.77 94.47 37.52 94.66 36.57 95.4 35.54 96 34.9 97.19 33.92 97.84 32.65 98.1 31.81 98.96 31.02 99.55 31.74 98.85 31.87 97.54 32.91 96.8 32.92 95.45 34.16 94.78 34.61 93.69 34.93 92.53 35.53 91.5 35.63 90.27 35.98 89.15 36.31 88.03 36.85 86.98 36.92 85.86 37.66 84.77 37.76 83.61 37.72 82.41 37.33 82.76"/>
        <g>
          <path class="cls-1" d="M36.22,50.23l1.39.6-.1.99c.55,0,1.08,0,1.6,0l-.5-.29-.76-.98-.64-.82c-.1.05-.2.11-.3.16-.32-.35-.75-.8-1.19-1.27v-.24l-.48-.43.43,1.17.55,1.11Z"/>
          <path class="cls-1" d="M56.5,29.55c-.06.61-.12,1.23-.19,2.02v.8s-.2.53-.2.53c.42.14.83.28,1.16.39-.45.88-.85,1.66-1.24,2.41-.18.04-.36.08-.54.12v.11s-.78,1.06-.78,1.06v.33c0,.12.02.24.04.36h1.17c.32-.29.66-.6,1.15-1.05.41,1.64,1.53,2.93,1.32,4.75.84.04,1.59.07,2.3.1l-.15-.71.04-.23c-.38-.02-.77-.1-1.14-.29,0-.02.56-2.29.56-2.29-.55-.2-1.09-.4-1.77-.65v-4.37c-.55-1.16-.8-1.68-1.02-2.16.45-.48.77-.82,1.09-1.16v-1.49c-.88.17-1.2.98-1.8,1.41Z"/>
          <path class="cls-1" d="M11.53,73.3h.73c-.06-.08-.12-.17-.19-.24.71-.66,1.39-1.32.35-2.3l-.95.18-.26.11c-.12.66-.22,1.24-.32,1.78l.64.47Z"/>
          <path class="cls-1" d="M13.88,73.8l.54-.11s-.05-.04-.07-.07c-.27,0-.56.01-.85.01l.39.17Z"/>
          <path class="cls-1" d="M5.55,71.49l-.21-.09c-.27.21-.52.41-.75.58l.97.56.75-.12c0-.28,0-.56,0-.85,0-.25.27-.5.41-.75,0,0,.02,0,.02,0h-.06s-1.14.67-1.14.67Z"/>
          <path class="cls-1" d="M53.24,80.39c-.12-.08-.3-.18-.4-.14-1.04.44-2.08.91-3,1.33v2.01c.49.49.93.93,1.37,1.37,1.29-.99-.31-1.72-.27-2.35,1-.65,1.86-1.2,2.75-1.78-.23-.23-.32-.36-.45-.44Z"/>
          <path class="cls-1" d="M67.74,59.97l-.93.48v1.06c.9-.31.94-.93.93-1.55Z"/>
          <path class="cls-1" d="M58.77,50.01c-.12.02-.22.2-.32.31.43.84.87,1.67,1.3,2.51.31,0,.62,0,.92,0,.33-.48.94-.74,1.16-1.31v-.33c-1.14-.11-1.82-1.39-3.06-1.18Z"/>
          <path class="cls-1" d="M41.46,59.98l.16.24c.28-.08.57-.19.88-.36-.56-.13-1.01-.34-1.43-.57l.38.68Z"/>
          <path class="cls-1" d="M17.75,70.03c-.11.55-.42,1.26.7,1.68.07-.74.19-1.45.18-2.14h-.18s-.69.45-.69.45Z"/>
          <path class="cls-1" d="M65.47,64.3c.43-.59.84-1.15,1.34-1.83v-1.18c-.57.04-1.13.09-1.63.13-.31,1.01-.51,1.85.29,2.88Z"/>
          <path class="cls-1" d="M64.39,68.02c.5-.1.92-.18,1.29-.25.15-.99.54-1.88-.11-2.5-.62.42-1.23.84-1.8,1.23.28.69.44,1.08.62,1.52Z"/>
          <path class="cls-1" d="M64.17,84.21c.43.69.83,1.32,1.03,1.65,1.58.17,1.68-.52,1.6-1.5-.36-.11-.76-.3-1.17-.33-.58-.04-1.22-.17-1.46.18Z"/>
          <path class="cls-1" d="M38.43,53.22l.1.45c.51-.02,1.06-.12,1.65-.38l-.2-.48c-.73.02-1.38,0-1.98.03l.43.38Z"/>
          <path class="cls-1" d="M61.15,47.12s.05-.02.08-.03l-.09-.29.26-1.26-.02-.05c-.33.36-.69.75-1.19,1.28.45.17.75.4.97.34Z"/>
          <path class="cls-1" d="M58.41,44.47v3.55c.05-.01.1-.02.15-.04-.05.06-.1.11-.14.17,1.44-.37.52-1.72.97-2.62.1-.32,1.15-.46.32-1.24-.38.05-.79.11-1.31.18Z"/>
          <path class="cls-1" d="M51.8,59.23c-.04.07-.08.14-.11.21-.02,0-.04,0-.06,0,.06,1.08-1.71,1.26-.47,2.82.39-.04.91-.1,1.41-.16-.07-.97.4-1.85-.77-2.86Z"/>
          <path class="cls-1" d="M40.53,56.33l.04,1.23c.52.12,1.01.19,1.44-.25-.4-.64-.8-1.28-1-1.6-.51-.06-.85-.01-1.09.1l.62.53Z"/>
          <path class="cls-1" d="M58.3,55.83c-.28.51-.54.99-.82,1.52,1.03.2,1.88.51,2.78-.32-.12-.42-.26-.92-.38-1.37h-1.48s-.02.04-.04.07c.02.07.03.13.05.2-.04-.03-.07-.06-.11-.09Z"/>
          <path class="cls-1" d="M55.15,52.97c-.21.11-.45.19-.64.34-.35.28-.68.59-1.02.88.1.51.19.92.41,2.04.62-1.06.98-1.66,1.45-2.47,0,.01-.1-.39-.21-.8Z"/>
          <path class="cls-1" d="M62.3,86.01c-.13.49-.21.97-.22,1.5l.82.46c.09-1.24-.08-1.41-.6-1.96Z"/>
          <path class="cls-1" d="M58.3,28.14v.13c.54-.04,1.09-.08,1.81-.14l.07-.24c-.06-.58-.12-1.06-.19-1.69-.75.21-1.25.34-1.69.47v1.48Z"/>
          <path class="cls-1" d="M59.7,23.51c.08-.08.14-.14.22-.22l.05-.59.32-1.21-.06-.38c-.44.34-.76.82-1.03,1.42.14.28.31.62.5.98Z"/>
          <path class="cls-1" d="M45.35,71.53c.6-.4,1.22-.81,1.79-1.19-.26-.68-.41-1.07-.48-1.24-.6.4-1.22.81-1.79,1.19.26.68.41,1.07.48,1.24Z"/>
          <path class="cls-1" d="M75.32,97.71l-.46-.72-.1-.2c-.09.15-.17.3-.27.45,0,0,.1.39.21.8.21-.11.44-.19.62-.33Z"/>
          <path class="cls-1" d="M51.8,59.23c.22-.4.45-.81.7-1.28-.17-.19-.41-.52-.72-.77-.3-.23-.65-.38-.99-.56.02.08.04.16.06.24-.04-.03-.07-.06-.11-.09,0,.67-.05,1.35.03,2.02.05.41.37.72.86.65.02,0,.04,0,.06,0,.04-.07.08-.14.11-.21Z"/>
          <path class="cls-1" d="M62.2,79.45v2.69c1.47.07.34-1.97,1.57-2.17-.08-.21-.15-.42-.25-.69-.4.05-.81.11-1.32.17Z"/>
          <path class="cls-1" d="M57.91,93.53c.37-.08.79-.16,1.41-.29-.14-.66-.25-1.18-.35-1.66h-1.15c-.67.64-.69,1.27.09,1.94Z"/>
          <path class="cls-1" d="M43.13,87.28c.52.52.99.99,1.47,1.47.39-.57,1.15-.83,1.24-1.61-.85-.42-1.67-.46-2.71.14Z"/>
          <path class="cls-1" d="M53.8,125.64c.05-.03.1-.06.15-.09l.04-.87.13-.81c-.18.06-.36.14-.55.28.06.42.14.95.22,1.49Z"/>
          <path class="cls-1" d="M57.47,68.69c-.13-.71-.21-1.13-.3-1.58-.97.47-1.81.88-2.66,1.3.76.86,1.66.44,2.96.28Z"/>
          <path class="cls-1" d="M52.64,101.49c.53.43.82,1.14,1.46,1.26.5-.44.95-.83,1.41-1.23-1.01-.79-1.94-.8-2.87-.03Z"/>
          <path class="cls-1" d="M39.01,88.75c.44,0,.88,0,1.33,0-.14-.91-.81-1.37-1.54-1.78-.55.67-.6,1.28.22,1.78Z"/>
          <path class="cls-1" d="M48.89,88.48c-.02.69-.34,1.49.37,2.11.92-.71.46-1.67.55-2.75-.09.02-.19.04-.28.07.12-.14.23-.26.32-.38,0,0,0-.02,0-.03-.45.44-.95.7-.96.97Z"/>
          <path class="cls-1" d="M69.78,85.16l-.13-.36c-.06.32.04.65.33.97l-.2-.61Z"/>
          <path class="cls-1" d="M70.1,84s0,0-.01.01h.02s0,0-.01-.01Z"/>
          <path class="cls-1" d="M58.76,84.98c-.66.64-.66,1.26.09,1.93.37-.07.79-.15,1.22-.23-.17-.88-.87-1.18-1.3-1.69Z"/>
          <path class="cls-1" d="M77.4,54.99l.72-.55c-.02-.07-.04-.14-.08-.21l-.85.58-.23.14c.1.1.2.17.31.25l.13-.21Z"/>
          <path class="cls-1" d="M57.87,20.31l.04.28c.44-.45.55-.9.3-1.36l-.33,1.07Z"/>
          <path class="cls-1" d="M77.67,77.4c.49-.07,1.19.29,1.3-.6-.43-.43-.86-.86-1.31-1.31-.59.65-.67,1.28.01,1.91Z"/>
          <path class="cls-1" d="M82.46,72.73c.35.35.68.68,1.08,1.05.03-.17.06-.32.09-.48l-.65-.74-.52.18Z"/>
          <path class="cls-1" d="M86.33,79.11c.11-.08.22-.17.34-.29-.63-.68-1.26-.68-1.9,0,.06.06.12.11.17.16l.32-.05,1.06.18Z"/>
          <path class="cls-1" d="M56.11,94.21c-.19-.46.95-1.22-.32-1.56-.5.54-.47,1.07.32,1.56Z"/>
          <path class="cls-1" d="M50.42,108.77s-.07.02-.1.03l.02.79.27.49c.05-.34.1-.67.11-1.01,0-.1-.23-.32-.3-.3Z"/>
          <path class="cls-1" d="M67.07,90.79l.34,1.23.24.1s.07-.07.07-.1c.02-.41-.09-.84-.15-1.25-.17,0-.34.01-.51.02Z"/>
          <path class="cls-1" d="M41.28,89.69q.56.97,1.81.55c-.35-1.01-1.2-.38-1.81-.55Z"/>
          <path class="cls-1" d="M51.28,114.12c.15-.08.31-.18.48-.31-.2-.14-.38-.26-.54-.35l.07.66Z"/>
          <path class="cls-1" d="M58.31,24.29c.02-.38.09-.79-.05-1.1-.12-.27-.55-.41-.86-.6.02.08.04.16.06.24-.04-.03-.07-.06-.11-.09v.12l.57,1.15-.22.45h.56c-.02-.09-.04-.17-.07-.26.04.04.08.07.12.1Z"/>
          <path class="cls-1" d="M76.87,101.27l.73.66s.06-.03.1-.04l-.52-.79-.07-.08c-.11.01-.23.04-.34.1l.1.15Z"/>
          <path class="cls-1" d="M62.05,83.39c.16-.36.04-.84.04-1.26-.32.2-.78.34-.91.63-.15.34-.05.81-.04,1.22.04-.01.09-.02.14-.03.3-.17.66-.3.77-.55Z"/>
          <path class="cls-1" d="M42.7,84.97c.68-.63.68-1.26,0-1.9-.68.63-.68,1.26,0,1.9Z"/>
          <path class="cls-1" d="M46.48,84.97c.68-.63.68-1.26,0-1.9-.68.63-.68,1.26,0,1.9Z"/>
          <path class="cls-1" d="M53.9,120.07c-.5.54-.47,1.07.32,1.56-.05-.12,0-.27.06-.42v-.09s.12-.78.12-.78c-.09-.1-.23-.2-.5-.27Z"/>
          <path class="cls-1" d="M54.13,40.61l-.59.89c0,.31.18.61.51.92.65-.6.67-1.21.08-1.81Z"/>
          <path class="cls-1" d="M47.07,61.94c.55.51,1.08.48,1.85-.14-.86-.61-1.46-.89-1.85.14Z"/>
          <path class="cls-1" d="M48.67,65.24c-.2,0-.4.02-.6.03-.06.42-.13.84-.15,1.26,0,.1.23.32.3.3.22-.06.59-.21.6-.34.02-.41-.09-.84-.15-1.25Z"/>
          <path class="cls-1" d="M49.48,57.72c-.22.06-.59.21-.6.34-.02.41.09.84.15,1.25.2,0,.4-.02.6-.03.06-.42.13-.84.15-1.26,0-.1-.23-.32-.3-.3Z"/>
          <path class="cls-1" d="M75.89,57.57s-.07,0-.1,0c-.1,0-.32.23-.3.3.01.04.03.08.04.12l.02-.02.34-.39Z"/>
          <path class="cls-1" d="M.93,71.91l.45.13c-.08-.1-.16-.21-.27-.31-.07.06-.12.12-.17.18Z"/>
          <path class="cls-1" d="M52.55,49.59c-.27-.78-.84-.58-1.36-.53l-.13.49c.31.43.53.36,1.5.04Z"/>
          <path class="cls-1" d="M21.43,73.15c.63.68,1.26.68,1.9,0-.63-.68-1.26-.68-1.9,0Z"/>
          <path class="cls-1" d="M52.64,74.52s.08-.02.12-.03c.83-.48.82-.55.43-1.74-.99.34-.41,1.16-.55,1.77Z"/>
          <path class="cls-1" d="M79.13,73.18c-.02.41.09.84.15,1.25.2,0,.4-.02.6-.03.06-.42.14-.84.15-1.26,0-.1-.23-.32-.3-.3-.22.06-.59.21-.6.34Z"/>
          <path class="cls-1" d="M23.33,69.79s.08-.02.12-.03c.62-.36.78-.49.65-1.03l-.79.35c.03.24.07.49.02.71Z"/>
          <path class="cls-1" d="M79.89,52.14s-.02-.09-.02-.13c-.18,0-.37.02-.55.02l-.06.09c-.05.39-.12.79-.14,1.18,0,0,0,.01,0,.02l.59-1.02.17-.16Z"/>
          <path class="cls-1" d="M55.27,47.17c-.58.03-1.3-.38-1.62.53,1.23.41,1.25.41,1.78-.5-.08.02-.16.04-.24.06.03-.03.05-.05.07-.08Z"/>
          <path class="cls-1" d="M59.26,36.28c0,.1.23.32.3.3.22-.06.59-.21.6-.34.02-.41-.09-.84-.15-1.25-.2,0-.4.02-.6.03-.06.42-.13.84-.15,1.26Z"/>
          <path class="cls-1" d="M64.92,70.31c.63.68,1.26.68,1.9,0-.63-.68-1.26-.68-1.9,0Z"/>
          <path class="cls-1" d="M58.41,48.02c-.68.16-1.27.16-.67.93.19-.22.39-.45.68-.8.05-.05.09-.1.14-.17-.05.01-.1.03-.15.04Z"/>
          <path class="cls-1" d="M55.27,47.17s-.04.05-.07.08c.08-.02.16-.04.24-.06.64-.15,1.16-.17.59-.91-.2.24-.42.49-.75.88Z"/>
          <path class="cls-1" d="M57.41,22.59s-.01-.06-.02-.09l-.11.16s.06.05.09.07c.04.03.07.06.11.09-.02-.08-.04-.16-.06-.24Z"/>
          <path class="cls-1" d="M57.18,44c-.05-.22-.19-.42-.3-.63-.11.11-.31.23-.3.31.05.22.19.42.3.63.11-.11.31-.23.3-.31Z"/>
          <path class="cls-1" d="M58.19,24.19c.03.09.05.18.07.26.14.63.17,1.12.9.56-.23-.2-.47-.4-.85-.73-.04-.03-.07-.06-.12-.1Z"/>
          <path class="cls-1" d="M86.67,76.29c-.12-.54-.21-.9-.86-.39.23.2.47.4.85.73-.03-.14-.06-.28-.1-.43.04.04.07.06.11.1Z"/>
          <path class="cls-1" d="M45.54,76.46c.11-.21.23-.41.34-.61-.13-.13-.23-.23-.34-.34-.11.21-.25.41-.3.63-.02.08.19.21.3.31Z"/>
          <path class="cls-1" d="M61.14,76.93c.21.11.41.23.61.34.13-.13.23-.23.34-.34-.21-.11-.41-.25-.63-.3-.08-.02-.21.19-.31.3Z"/>
          <path class="cls-1" d="M86.56,76.19c.04.15.07.29.1.43.12.54.2.9.86.39-.23-.2-.47-.4-.85-.73-.04-.03-.07-.06-.11-.1Z"/>
          <path class="cls-1" d="M76.4,79.63c.11.2.22.4.34.61.1-.11.31-.23.3-.31-.05-.22-.19-.42-.3-.63-.11.1-.21.21-.34.34Z"/>
          <path class="cls-1" d="M69.01,79.12c.22-.05.42-.19.63-.3-.11-.11-.21-.21-.34-.34-.2.11-.4.22-.61.34.1.1.23.31.31.3Z"/>
          <path class="cls-1" d="M65.55,78.52c-.22.05-.42.19-.63.3.11.1.23.31.31.3.22-.05.42-.19.63-.3-.11-.11-.23-.31-.31-.3Z"/>
          <path class="cls-1" d="M41.92,79.47c-.22.05-.42.19-.63.3.1.11.23.31.31.3.22-.05.42-.19.63-.3-.1-.11-.23-.31-.31-.3Z"/>
          <path class="cls-1" d="M15.58,72.36c-.05-.22-.19-.42-.3-.63-.11.11-.31.23-.3.31.05.22.19.42.3.63.11-.11.31-.23.3-.31Z"/>
          <path class="cls-1" d="M56.41,71.26c-.1-.11-.23-.31-.31-.3-.22.05-.42.19-.63.3.11.1.21.21.34.34.2-.11.4-.22.61-.34Z"/>
          <path class="cls-1" d="M29.94,71.26c.1.11.23.31.31.3.22-.05.42-.19.63-.3-.1-.1-.21-.21-.34-.34-.2.11-.4.22-.61.34Z"/>
          <path class="cls-1" d="M62.08,75.04c.11.11.23.31.31.3.22-.05.42-.19.63-.3-.11-.11-.21-.21-.34-.34-.2.11-.4.22-.61.34Z"/>
          <path class="cls-1" d="M52.07,75.42c.22-.26.44-.52.82-.97-.05.01-.09.02-.14.03-.04,0-.08.02-.12.03-.63.14-1.13.17-.57.9Z"/>
          <path class="cls-1" d="M73.61,72.99c.05.22.19.42.3.63.1-.1.21-.21.34-.34-.11-.2-.22-.4-.34-.61-.11.1-.31.23-.3.31Z"/>
          <path class="cls-1" d="M46.96,73.15c.21.11.41.23.61.34.13-.13.23-.23.34-.34-.21-.11-.41-.25-.63-.3-.08-.02-.21.19-.31.3Z"/>
          <path class="cls-1" d="M70.59,89.22c-.21-.11-.41-.25-.63-.3-.08-.02-.21.19-.31.3.21.11.41.23.61.34.13-.13.23-.23.34-.34Z"/>
          <path class="cls-1" d="M40.34,88.75c-.02.65.29.97.95.95.02-.65-.29-.97-.95-.95Z"/>
          <path class="cls-1" d="M48.38,91.58c-.06.12-.12.23-.18.35l.19.59c.11-.2.22-.41.33-.6-.13-.13-.23-.23-.34-.34Z"/>
          <path class="cls-1" d="M40.33,86.08c.12.54.21.9.86.39-.23-.2-.47-.4-.85-.73.03.14.06.28.1.43-.04-.04-.07-.06-.11-.1Z"/>
          <path class="cls-1" d="M49.81,87.84c.62-.14,1.1-.18.54-.9-.15.17-.3.35-.5.59-.09.11-.2.23-.32.38.1-.03.19-.05.28-.07Z"/>
          <path class="cls-1" d="M61.4,83.91s-.09.02-.13.03c-.05.01-.09.02-.14.03-.63.14-1.12.17-.56.9.22-.26.44-.52.82-.97Z"/>
          <path class="cls-1" d="M40.45,86.17c-.04-.15-.07-.29-.1-.43-.12-.54-.2-.9-.86-.39.23.2.47.4.85.73.04.03.07.06.11.1Z"/>
          <path class="cls-1" d="M58.3,55.83s.07.06.11.09c-.02-.07-.03-.13-.05-.2-.15-.66-.17-1.21-.92-.63.23.2.48.41.86.73Z"/>
          <path class="cls-1" d="M50.79,56.63c-.14-.64-.17-1.16-.91-.58.23.2.48.41.86.73.04.03.07.06.11.09-.02-.08-.04-.16-.06-.24Z"/>
          <path class="cls-1" d="M71.07,60.38c.11-.21.23-.41.34-.61-.13-.13-.23-.23-.34-.34-.1.21-.25.41-.3.63-.02.08.19.21.3.31Z"/>
          <path class="cls-1" d="M58.17,59.78c-.13-.13-.23-.23-.34-.34-.1.21-.25.41-.3.63-.02.08.19.21.3.31.11-.21.23-.41.34-.61Z"/>
          <path class="cls-1" d="M57.83,52.82c.11-.21.23-.41.34-.61-.13-.13-.23-.23-.34-.34-.1.21-.25.41-.3.63-.02.08.19.21.3.31Z"/>
          <path class="cls-1" d="M60.83,53.94c-.22.05-.42.19-.63.3.11.11.21.21.34.34.2-.11.4-.22.61-.34-.11-.1-.23-.31-.31-.3Z"/>
          <path class="cls-1" d="M69.82,66.37c.05.22.19.42.3.63.1-.11.21-.21.34-.34-.11-.2-.22-.4-.34-.61-.11.11-.31.23-.3.31Z"/>
          <path class="cls-1" d="M53.4,69.53c-.05-.22-.19-.42-.3-.63-.11.11-.21.21-.34.34.11.2.22.4.34.61.11-.11.31-.23.3-.31Z"/>
          <path class="cls-1" d="M74.85,70.78c.08-.15.17-.3.25-.45l-.16-.21-.27.04c-.05.1-.1.2-.12.31-.02.08.19.21.3.31Z"/>
          <path class="cls-1" d="M49.32,69.84c-.11.1-.31.23-.3.31.05.22.19.42.3.63.1-.11.21-.21.34-.34-.11-.2-.22-.4-.34-.61Z"/>
          <path class="cls-1" d="M22.76,70.7c.22-.26.44-.51.82-.97-.05.01-.09.02-.14.03-.04,0-.08.02-.12.03-.63.14-1.13.17-.57.9Z"/>
          <path class="cls-1" d="M69.51,63.83c-.11-.2-.22-.4-.34-.61-.11.11-.31.23-.3.31.05.22.19.42.3.63.11-.11.21-.21.34-.34Z"/>
          <path class="cls-1" d="M70.77,62.59c.05.22.19.42.3.63.1-.1.31-.23.3-.31-.05-.22-.19-.42-.3-.63-.11.11-.31.23-.3.31Z"/>
          <path class="cls-1" d="M51.69,132.07c.03.14.06.28.1.43-.04-.04-.07-.06-.11-.1.12.54.2.9.86.39-.23-.2-.47-.41-.85-.73Z"/>
          <path class="cls-1" d="M51.69,132.07c-.05-.25-.1-.45-.2-.56l.15.85s.03.03.05.04c.04.03.07.06.11.1-.04-.15-.07-.29-.1-.43Z"/>
          <path class="cls-1" d="M52.49,105.16c-.13-.13-.23-.23-.34-.34-.11.21-.25.41-.3.63-.02.08.19.21.3.31.11-.21.23-.41.34-.61Z"/>
          <path class="cls-1" d="M55.73,97.15s-.06.07-.1.11c.54-.12.9-.2.39-.86-.2.23-.4.47-.73.85.14-.03.28-.06.43-.1Z"/>
          <path class="cls-1" d="M72.96,94.42s.03-.05.04-.07l-.31-.17c.06.07.19.16.27.24Z"/>
          <path class="cls-1" d="M48.68,93.78h0s0,.06,0,.06c0-.01.01-.02.02-.03-.01-.01-.02-.02-.03-.03Z"/>
          <path class="cls-1" d="M55.3,97.25c-.54.12-.9.2-.39.86.2-.23.41-.47.73-.85.03-.04.06-.07.1-.11-.15.04-.29.07-.43.1Z"/>
          <path class="cls-1" d="M51.68,108.13c.21.11.41.23.61.34.13-.13.23-.23.34-.34-.21-.11-.41-.25-.63-.3-.08-.02-.21.19-.31.3Z"/>
        </g>
      </g>
    </g>
  </g>
</svg>