<?xml version="1.0" encoding="UTF-8"?>
<svg id="_レイヤー_2" data-name="レイヤー 2" xmlns="http://www.w3.org/2000/svg" viewBox="0 0 115.54 174.07">
  <defs>
    <style>
      .cls-1 {
        fill: #fff;
      }

      .cls-2 {
        fill: none;
      }

      .cls-3 {
        fill: #efdfcd;
        fill-rule: evenodd;
      }
    </style>
  </defs>
  <g id="_レイヤー_1-2" data-name="レイヤー 1">
    <g id="stars">
      <g>
        <polygon class="cls-3" points="57.05 9.15 56.75 10.33 56.16 11.43 55.9 12.62 55.67 13.81 55.39 14.99 54.83 16.1 54.75 17.33 54.78 18.59 53.61 19.54 53.93 20.87 53.82 22.1 52.72 23.06 52.63 24.29 52.75 25.58 51.76 26.56 51.62 27.78 51.23 28.93 51.18 30.17 51.28 31.45 50.51 32.5 50.12 33.65 49.63 34.77 49.77 36.07 49.57 37.27 48.5 38.23 48.86 39.58 48.28 40.68 48.28 41.94 47.45 42.97 46.98 44.1 47.09 45.38 46.84 46.57 46.06 47.61 46.37 48.95 46.17 50.15 45.14 51.13 44.87 52.31 44.53 53.48 44.85 54.81 43.85 55.8 43.62 57 43.88 58.31 43.58 59.48 42.92 60.57 42.98 61.83 42.87 63.05 42.03 64.09 42.02 65.33 41.92 66.87 40.46 66.4 39.27 66.28 38.07 66.14 36.9 65.87 35.77 65.23 34.5 65.69 33.27 65.81 32.07 65.7 30.91 65.33 29.77 64.72 28.51 65.12 27.36 64.58 26.14 64.63 24.98 64.19 23.77 64.2 22.52 64.53 21.34 64.22 20.23 63.37 18.99 63.65 17.76 63.77 16.55 63.73 15.43 62.95 14.25 62.6 12.98 63.17 11.84 62.53 10.65 62.29 9.43 62.34 8.23 62.26 7.06 61.89 5.81 62.32 4.61 62.23 3.42 62.01 2.19 62.2 1.03 61.72 0 61.81 .87 62.31 1.91 62.88 3.07 63.24 4.16 63.72 4.89 64.88 5.9 65.52 7.33 65.34 8.18 66.29 9.22 66.86 10.28 67.4 11.53 67.59 12.37 68.55 13.4 69.14 14.38 69.84 15.81 69.68 16.56 70.81 17.85 70.93 18.79 71.69 19.69 72.53 21.03 72.57 21.74 73.75 22.7 74.47 23.78 74.98 24.93 75.37 25.86 76.12 26.98 76.57 28.26 76.77 28.87 78.04 29.89 78.65 31.23 78.78 31.85 79.99 33.07 80.33 34.05 81 34.8 82 36.12 82.23 36.72 83.4 37.53 84.28 38.52 84.75 37.45 85.11 36.97 86.52 35.73 86.85 34.72 87.51 33.91 88.45 33.03 89.28 32 89.91 30.83 90.35 29.73 90.87 28.87 91.74 28.17 92.83 27.23 93.57 26.2 94.21 25.14 94.79 24.24 95.6 22.97 95.92 21.83 96.41 21.24 97.62 20.39 98.48 19.38 99.14 18.43 99.88 17.58 100.75 16.17 100.92 15.43 101.92 14.68 102.91 13.54 103.42 13.04 104.69 11.57 104.82 10.61 105.56 10.13 106.83 9.33 107.75 7.93 107.99 7.23 109.01 6.71 110.22 5.19 110.99 6.84 110.95 8.02 110.74 9.14 110.09 10.3 109.73 11.53 109.84 12.69 109.47 13.95 109.75 15.02 108.85 16.32 109.33 17.5 109.07 18.7 108.96 19.87 108.64 20.94 107.82 22.19 107.95 23.3 107.38 24.61 107.84 25.68 107.03 26.94 107.23 28.07 106.73 29.29 106.73 30.4 106.14 31.7 106.5 32.71 105.47 33.95 105.53 35.21 105.63 36.33 105.16 37.42 104.56 38.63 104.43 39.82 104.24 40.88 103.57 42.09 103.45 43.34 103.43 44.29 103.16 44.44 104.14 44.79 105.3 45.47 106.4 45.31 107.65 45.4 108.86 45.81 110.02 45.72 111.25 46.24 112.39 46.58 113.56 46.42 114.8 46.87 115.96 46.85 117.18 46.81 118.4 47 119.59 46.63 120.85 47.2 122 47.02 123.24 47.7 124.37 47.6 125.6 47.96 126.77 47.51 128.04 48.55 129.12 48.7 130.32 48.38 131.57 48.9 132.72 48.56 133.97 48.94 135.12 49.49 136.25 49.44 137.47 48.98 138.74 49.69 139.85 50 141.01 50 142.22 50.51 143.35 50.11 144.62 50.89 145.71 50.74 146.94 50.53 148.18 50.53 149.39 51.05 150.52 51.31 151.69 51.85 152.82 51.48 154.08 51.7 155.25 51.75 156.45 52.45 157.56 52.3 158.79 52.36 159.99 52.17 161.22 52.61 162.36 53.01 163.52 52.83 164.74 53.03 165.92 53.64 167.05 53.18 168.31 54.03 169.42 53.34 170.69 54.05 171.82 53.73 173.05 54.11 174.07 54.07 172.98 54.95 171.94 54.89 170.71 55.1 169.53 55.77 168.44 55.49 167.16 56.27 166.1 56.42 164.91 56.57 163.71 56.48 162.47 56.54 161.26 56.99 160.13 57.72 159.06 57.43 157.77 57.41 156.54 58.01 155.44 57.84 154.18 58.97 153.2 58.38 151.84 58.77 150.7 59.33 149.6 59.43 148.39 59.53 147.19 59.87 146.04 60.22 144.89 60.12 143.64 60.86 142.57 60.7 141.31 61.59 140.28 61.5 139.03 61.76 137.86 62.02 136.69 62.3 135.53 62.4 134.32 63.3 133.29 63.42 132.09 63.29 130.84 63.92 129.75 64.25 128.59 64.53 127.43 64.12 126.11 64.91 125.06 65.24 123.9 64.86 122.6 65.09 121.42 66.12 120.42 66.06 119.18 66.03 117.94 66.37 116.79 67.24 115.76 66.71 114.41 67.35 113.33 67.77 112.19 67.79 110.97 67.8 109.74 68.56 108.68 68.49 107.44 68.93 106.31 69.35 105.18 69.37 103.95 69.26 102.7 69.54 101.54 70.26 100.47 70.17 99.01 71.47 99.59 72.5 100.28 73.9 99.81 74.86 100.73 76.1 100.78 77.17 101.34 78.32 101.67 79.27 102.57 80.67 102.21 81.58 103.2 82.69 103.65 83.86 103.9 85.04 104.16 86.04 104.88 87.18 105.26 88.33 105.58 89.35 106.27 90.6 106.33 91.78 106.55 92.84 107.2 94 107.55 95.14 107.97 96.35 108.15 97.59 108.23 98.65 108.9 99.92 108.89 101.01 109.45 102.2 109.69 103.26 110.35 104.4 110.75 105.56 111.11 106.62 111.77 107.95 111.55 109.1 111.93 110.25 112.31 111.45 112.53 112.39 113.57 113.77 113.22 114.91 113.64 115.54 114.03 114.96 113.64 114.15 112.77 113.17 112.08 112.28 111.3 111.23 110.69 110.57 109.65 109.85 108.66 108.64 108.25 107.75 107.47 107.2 106.27 105.94 105.93 104.87 105.36 104.49 103.95 103.5 103.28 102.25 102.94 101.53 101.94 100.53 101.29 99.53 100.64 98.84 99.6 97.64 99.2 96.98 98.12 95.93 97.54 94.88 96.95 94.11 96 93.31 95.1 91.91 94.96 91.17 93.98 90.2 93.3 89.27 92.56 88.68 91.37 87.4 91.09 86.37 90.49 85.76 89.32 84.71 88.73 83.67 88.14 82.6 87.59 81.98 86.44 80.89 85.91 79.43 85.29 80.99 84.78 82.05 84.2 82.78 83.17 83.56 82.21 84.79 81.86 85.85 81.28 86.88 80.64 87.47 79.43 88.25 78.48 89.39 78 90.15 77.02 91.43 76.73 92.46 76.11 93.31 75.24 94.28 74.53 95.41 74.05 96.28 73.21 97.05 72.25 98.06 71.59 99.11 70.99 99.94 70.11 100.85 69.33 101.66 68.43 102.77 67.89 103.9 67.39 104.78 66.57 105.22 65.23 106.41 64.78 107.2 63.87 108.13 63.11 109.11 62.42 110.25 61.9 110.63 60.53 112.04 60.3 112.69 59.24 113.78 58.24 112.39 58.8 111.13 58.79 109.92 58.96 108.93 60.01 107.56 59.49 106.45 60.1 105.21 60.12 104.1 60.7 102.82 60.51 101.74 61.3 100.53 61.48 99.35 61.75 98.11 61.77 96.92 62 95.68 61.99 94.51 62.33 93.31 62.52 92.11 62.73 90.88 62.77 89.7 63.17 88.58 63.91 87.27 63.6 86.16 64.36 84.93 64.49 83.66 64.44 82.39 64.41 81.27 65.07 80.03 65.17 78.9 65.84 77.68 66.06 76.43 66.09 75.23 66.38 73.99 66.44 72.7 66.72 72.53 65.45 72.17 64.28 72.21 63.04 72.13 61.83 71.42 60.73 71.06 59.56 70.88 58.37 71 57.11 70.63 55.95 70.79 54.69 70.56 53.5 70.58 52.26 70.3 51.08 69.83 49.94 69.33 48.81 68.86 47.67 69.17 46.37 68.43 45.29 68.37 44.07 67.82 42.95 67.7 41.73 68.04 40.42 66.86 39.44 67.02 38.16 66.64 37.01 66.33 35.84 66.75 34.5 65.69 33.5 65.77 32.24 65.2 31.13 65.46 29.83 64.78 28.74 65.07 27.44 64.03 26.43 63.92 25.21 63.7 24.02 63.4 22.84 63.51 21.58 63.34 20.38 62.91 19.24 62.7 18.04 62.84 16.78 62.28 15.66 61.95 14.49 61.94 13.26 61.14 12.18 61.71 10.84 61.53 9.65 60.84 8.54 60.49 7.37 60.31 6.17 59.88 5.01 60.35 3.72 59.91 2.56 59.31 1.42 59.37 0 59.45 1.33 58.97 2.41 58.27 3.41 58.21 4.62 57.98 5.78 57.02 6.7 56.76 7.85 56.24 9.07 57.05 9.15"/>
        <g>
          <path class="cls-2" d="M53.88,139.96c-.22.26-.44.51-.69.91.6-.15,1.33-.09.69-.91Z"/>
          <path class="cls-1" d="M51.39,139.54c-.48.17-.97.34-1.63.57l.24.89v1.21s.51,1.13.51,1.13l-.32,1.02c.97-1-.44-2.62.77-3.55.79,0,1.57,0,2.22.05.25-.4.47-.65.69-.91.64.83-.09.76-.69.91.13.4.13.85.13,1.33-.3.31-.61.64-.7.73.35.6.69,1.2,1.04,1.8.61-.61,1.1-.88,1.22-1.26.3-.96,1.01-1.69,1.27-2.65-1.51.15-.51-1.6-1.44-1.89-.62,0-1.23,0-1.85,0-.33-.32-.66-.63-1-.95-.46,0-.93,0-1.39,0-.16.77.71.91.91,1.56Z"/>
          <path class="cls-1" d="M58.99,29.33h-3.12c-.7.55-1.18.93-1.41,1.11.32,1.93,2.43,1.26,3.11,2.59.33-.31.67-.63.87-.82.58-.15,1-.26,1.36-.35.13-.56.23-.99.32-1.39.58-.2,1.12-.39,1.72-.6-.06-.5-.12-.93-.16-1.25-1.23-.9-1.67.42-2.7.72Z"/>
          <path class="cls-1" d="M.87,62.31l1.05.57,1.16.36.53.24s.07-.06.09-.1c.43-.6,1.76.58,2.32-.83-.92-.13-1.78-.25-2.49-.35-.06-.06-.11-.11-.16-.16l-1.17.18-1.17-.49-.53.05c-.07.07-.15.14-.22.21l.59.34Z"/>
          <path class="cls-1" d="M47.72,117.41c-.31-.05-.59-.09-.87-.14l-.02.79c.32-.09.63-.28.9-.65Z"/>
          <path class="cls-1" d="M13.54,103.42l-.11.29c1.12,1.12,2.04,2.05,2.98,2.99h3.33c-1.1-.95-4.31-2.89-5.67-3.51l-.52.23Z"/>
          <path class="cls-1" d="M59.76,21.89c-.41-.08-.7-.14-1.37-.28-.33.44-.78,1.04-1.32,1.77.08.27.2.69.35,1.21.44-.39.77-.68,1.35-1.21.86,1.04,1.75,2.11,2.58,3.1.95-.3,2.16.5,2.38-.97-.09.02-.18.04-.27.07.03-.04.06-.07.09-.11h-1.25c-.77-.78-1.55-1.55-2.27-2.28-.1-.49-.19-.92-.27-1.3Z"/>
          <path class="cls-1" d="M5.28,64.9c.75.5,1.51.21,2.21.22.34-.29.66-.56,1-.85,1.07,1.31,2.35,2.18,4.03,2.59.04-.43.09-.86.14-1.38-.47-.13-.88-.25-1.41-.4-.54-.57-1.17-1.24-1.68-1.79h-2.09c-.35.32-.65.71-1.04.92-.4.21-1.21-.28-1.17.69Z"/>
          <path class="cls-1" d="M38.16,79.37c-.15-.02-.32-.03-.45.02-.13.06-.22.21-.39.37v3.06c.77-.79,1.3-1.81,2.34-2.46.65.61,1.21,1.57,2.3.44-.03-.36-.07-.78-.11-1.21-1.26-.47-2.49-.1-3.68-.22Z"/>
          <path class="cls-1" d="M31.59,76.54c-.27,0-.53.19-.88.33.49,1.26,1.57.26,2.26.61.33.32.66.63.99.95.31,0,.61,0,.92,0,.38-.56,1.17-.82,1.25-1.89-1.54,0-3.04-.01-4.55.01Z"/>
          <path class="cls-1" d="M35.81,94.5c-.46.46-.9.9-1.37,1.37.3.33.6.66.89.98-.29.32-.59.65-.99,1.08.5.15.92.28,1.35.41.54-.93,1.12-1.78,1.51-2.69.13-.3-.22-.8-.33-1.15h-1.06Z"/>
          <path class="cls-1" d="M99.78,107.87c.57-.46.88-.71,1.08-.87.61.61,1.24,1.24,1.9,1.9.98-1.19,1.01-2.13.17-3.06h-3.33c.05.59.1,1.17.18,2.03Z"/>
          <path class="cls-1" d="M53.35,24.51c.63,1.16.95,2.49,1.96,3.45.33.31.46.43.77-.11,0-.6,0-1.34,0-1.32-.99-1.32-1.62-2.15-2.32-3.07-.22.52-.5.88-.41,1.05Z"/>
          <path class="cls-1" d="M42.75,98.27c-2.82,0-2.89.02-4.52.92.02.09.04.19.07.28-.01,0-.02-.02-.03-.02.23.75.77,1.19,1.34,1.46.98-.19-.12-1.55,1.04-1.55.33.26.63.5.96.77.4-.73,1.32-.93,1.3-1.81-.09.02-.17.04-.26.06.03-.04.06-.07.09-.11Z"/>
          <path class="cls-1" d="M38.76,85.12h-1.13c-.1.1-.19.19-.29.29l-.37,1.11h-.02c.26.53.5,1.03.7,1.42.63-.13.91-.19,1.55-.32-.21-.97.24-1.77-.43-2.5Z"/>
          <path class="cls-1" d="M60.18,144.37l-.05-.65c-.11.1-.21.21-.25.35.1.1.2.2.3.3Z"/>
          <path class="cls-1" d="M19.95,108.58l.99-.76,1.2.12c0-.06.01-.13.02-.19-.1.02-.2.05-.3.07.03-.04.06-.07.09-.1-1.23-.01-.36-1.63-1.29-1.87-.41.84-.82,1.69-1.2,2.48.17.08.34.16.51.24Z"/>
          <path class="cls-1" d="M49.81,137.06c-.12,0-.24,0-.36,0l-.02.42-.2.56c.4-.1.83-.04,1.25-.05.11-.55-.23-.89-.67-.92Z"/>
          <path class="cls-1" d="M47.78,127.27l-.27.77.44.46c.21-.08.42-.23.6-.49-.28-.22-.53-.48-.78-.74Z"/>
          <path class="cls-1" d="M51.19,30.36c.45-.23.96-.49,1.6-.81-.61-.05-1.13-.08-1.58-.12l-.03.73.02.19Z"/>
          <path class="cls-1" d="M74.62,80.34c-.08-.02-.25.38-.33.52.44.48.84.93,1.22,1.34h.99c.78-.93.77-1.87,0-2.83-.53.52-.98,1.16-1.89.97Z"/>
          <path class="cls-1" d="M16.74,68.16c-.91,1.53.61,1.89,1.13,2.7h1.37c-.02-.09-.04-.18-.07-.26.04.03.07.06.11.09v-1.27c-.84-.41-1.7-.83-2.54-1.25Z"/>
          <path class="cls-1" d="M58.99,142.71h0c.27-.48.54-.96.8-1.44q-.9-.45-2.69-.45c0,.55,0,1.1.01,1.88.78,0,1.33,0,1.88.01Z"/>
          <path class="cls-1" d="M96.96,105.72h2.66c-.13-.86-.91-1.29-1.69-1.83-.34.12-.73.26-1.16.41.06.49.12.91.18,1.42Z"/>
          <path class="cls-1" d="M40.14,67.46c-.57-.19-1.16-.27-1.61-.56-.49-.31-.79-.92-1.53-.76-.22.14-.46.3-.69.46.43.43.86.86,1.47,1.47.64-.4,1.6.45,2.37-.61Z"/>
          <path class="cls-1" d="M96.1,104.65c-1.02-1.01-1.8-1.81-2.67-2.65-.17.42-.32.81-.6,1.5.59.36,1.23.75,2.21,1.35-.16.03.25-.05,1.06-.19Z"/>
          <path class="cls-1" d="M60.92,79.36c.02.09.04.18.07.26-.05-.04-.09-.07-.13-.11.04.52.08,1.03.11,1.48,1.01.31,1.84.51,2.88-.29-.59-.43-1.15-.84-1.83-1.34h-1.1Z"/>
          <path class="cls-1" d="M106.6,111.75h.02s1.33-.2,1.33-.2l.95.32s.02-.04.03-.07c-.77-.4-1.53-.44-2.33-.05Z"/>
          <path class="cls-1" d="M23.99,73.46c-.54-.98-.98-1.76-1.39-2.51-.57.51-1.02.9-1.14,1.02.39.69.76,1.35,1.02,1.8.67-.14.95-.2,1.51-.31Z"/>
          <path class="cls-1" d="M44.01,71.46c.84.63,1.77.68,2.69-.15v-1.03c-.36-.14-.75-.3-1.44-.57-.4.56-.83,1.16-1.25,1.75Z"/>
          <path class="cls-1" d="M75.88,100.77h.22s.83.45.83.45c-.04-.4-.17-.78-.57-1.18-.16.24-.31.48-.48.74Z"/>
          <path class="cls-1" d="M63.53,23.33l-.03-.13c-.06.03-.11.05-.18.08.08.02.14.03.21.05Z"/>
          <path class="cls-1" d="M103.68,67.09s.03.03.04.05c-.05-.01-.1-.01-.15-.02-.35.12-.23.29-.08.46l.41-.18.88-.82.13-.38s-.02-.02-.03-.03c-.33.31-.61.81-.98.88-.09.02-.15.03-.21.05Z"/>
          <path class="cls-1" d="M55.7,168.12l-.14-.63c-.09.17-.15.36-.16.6.1,0,.2.02.29.03Z"/>
          <path class="cls-1" d="M54.99,147.68c.7.7,1.17,1.17,1.7,1.7.39-.08.81-.16,1.59-.31-.7-.7-1.17-1.17-1.7-1.69-.39.08-.81.15-1.59.31Z"/>
          <path class="cls-1" d="M54.07,77.97c.57.38,1.19.79,1.79,1.19.07-.17.22-.56.48-1.24-.57-.38-1.19-.79-1.79-1.19-.07.17-.22.56-.48,1.24Z"/>
          <path class="cls-1" d="M64.75,42.63c.83-.16,1.25-.24,1.87-.36-.12-.65-.22-1.18-.33-1.77-.63.12-1.06.2-1.54.29v1.83Z"/>
          <path class="cls-1" d="M53.27,70.44c.07.39.15.8.24,1.23.88-.17,1.18-.89,1.76-1.35-.07-.39-.15-.8-.24-1.23-.88.17-1.18.89-1.76,1.35Z"/>
          <path class="cls-1" d="M63.31,111.58c.17-.45.33-.85.58-1.51-.49-.47-1.01-.97-1.62-1.55q-.44,1.46,1.03,3.07Z"/>
          <path class="cls-1" d="M59.94,88.14v1.15c.64.67,1.27.69,1.94-.08-.08-.38-.16-.8-.29-1.41-.66.14-1.18.25-1.66.35Z"/>
          <path class="cls-1" d="M52.31,158.77s.05,0,.08,0c.27-.03.52-.2.78-.31-.12-.21-.24-.41-.36-.62-.15.12-.29.17-.41.18l-.09.76Z"/>
          <path class="cls-1" d="M51.7,93.07c-1.53-.67-2.79-.67-4.32,0,1.53.67,2.79.67,4.32,0Z"/>
          <path class="cls-1" d="M76.95,97.33c.37,1.49,1.37,2.04,2.84,1.89-.37-1.49-1.37-2.04-2.84-1.89Z"/>
          <path class="cls-1" d="M68.45,94.02c.64.67,1.27.69,1.94-.09-.08-.38-.16-.8-.29-1.41-.66.14-1.18.25-1.66.35v1.15Z"/>
          <path class="cls-1" d="M93.59,95.42l-.29-.32h-.03c.05.12.09.23.16.35.05,0,.11-.02.16-.03Z"/>
          <path class="cls-1" d="M32.05,95.43l1.28-1.28c-.85.02-1.88-1.37-2.63-.07.5.5.92.92,1.35,1.35Z"/>
          <path class="cls-1" d="M79.8,83.67c-.07-.43-.15-.95-.2-1.32-.65.41-1.24.77-1.85,1.15.82.76,1.34.72,2.05.17Z"/>
          <path class="cls-1" d="M63.24,34.01c.42-.08.94-.19,1.66-.33-.79-.55-1.06-1.31-1.85-1.41-.42.55-.45,1.07.19,1.75Z"/>
          <path class="cls-1" d="M72.27,85.45c.72.93,1.7.45,2.79.55,0,0,0-.02,0-.02.02.01.03.02.05.03.08,0,.16.01.24.03-.44-.45-.7-.95-.97-.96-.69-.02-1.49-.34-2.11.37Z"/>
          <path class="cls-1" d="M56.33,65.83c.84.44,1.68.48,2.92-.28-2.33-.41-2.33-.39-2.92.28Z"/>
          <path class="cls-1" d="M54.28,35.4c-.96-.79-1.91-.79-2.87,0,.96.79,1.91.79,2.87,0Z"/>
          <path class="cls-1" d="M104.78,61.4c-.6.97-.56,1.81.26,2.64-.16-.8.82-1.78-.26-2.64Z"/>
          <path class="cls-1" d="M77.89,79.84c.96.79,1.91.79,2.87,0-.96-.79-1.91-.79-2.87,0Z"/>
          <path class="cls-1" d="M67.51,81.73c-.96-.79-1.91-.79-2.87,0,.96.79,1.91.79,2.87,0Z"/>
          <path class="cls-1" d="M103.68,67.09c-.41-.44-.67-.91-.93-.92-.69-.02-1.49-.34-2.11.37.75.97,1.78.4,2.93.57.05,0,.1,0,.15.02-.01-.02-.03-.03-.04-.05Z"/>
          <path class="cls-1" d="M41.03,102.52c.34.26.59.66.95.94h.11s.72-.02.72-.02c.06-.3.11-.59.16-.86-.67-.73-1.3-.73-1.93-.06Z"/>
          <path class="cls-1" d="M57.15,150.69c.4.52.89.59,1.43.58l.19-.56.21-.41c-.62-.07-1.29-.22-1.83.39Z"/>
          <path class="cls-1" d="M71.97,98.85c2.33.41,2.33.39,2.92-.28-.84-.44-1.68-.48-2.92.28Z"/>
          <path class="cls-1" d="M81.12,99.22c-.44,0-.88,0-1.33,0,.14.91.81,1.37,1.54,1.78.55-.67.6-1.28-.22-1.78Z"/>
          <path class="cls-1" d="M29.22,97.33c-.49.07-1.18-.29-1.3.6.43.43.86.86,1.29,1.29.67-.63.68-1.25,0-1.89Z"/>
          <path class="cls-1" d="M60.41,73.7c.79-.96.79-1.91,0-2.87-.79.96-.79,1.91,0,2.87Z"/>
          <path class="cls-1" d="M80.83,87.91s-.09-.01-.13-.02c.04.56.08,1.11.14,1.85.66-.04,1.17-.08,1.79-.12-.5-.9-.95-1.53-1.8-1.72Z"/>
          <path class="cls-1" d="M81.03,87.93c-.44-.45-.7-.95-.97-.96-.69-.02-1.49-.34-2.11.37.71.92,1.68.46,2.76.55.04,0,.09.01.13.02.07,0,.13.01.2.02Z"/>
          <path class="cls-1" d="M110.04,110.98c.07.43.15.95.21,1.32.64-.4,1.21-.76,1.8-1.13l-.82-.48-.07-.1c-.37-.07-.72.07-1.13.39Z"/>
          <path class="cls-1" d="M56.52,25.82c1.21.43,1.34,1.33,2.17,1.4.46-.55.47-1.07-.14-1.76-.43.08-.95.17-2.03.36Z"/>
          <path class="cls-1" d="M42.84,90.47c-.22-.75-.8-1.17-1.46-1.54-.55.67-.6,1.28.22,1.78.43,0,.86,0,1.28,0-.02-.09-.04-.17-.07-.26.01,0,.02.02.03.03Z"/>
          <path class="cls-1" d="M57.09,139.43c0-.12-.22-.33-.29-.32-.23.06-.59.18-.61.32-.08.45-.03.92-.03,1.39h.95c0-.46.02-.93-.01-1.39Z"/>
          <path class="cls-1" d="M78.92,77c-.86-.61-1.46-.89-1.85.14.55.51,1.08.48,1.85-.14Z"/>
          <path class="cls-1" d="M50.78,146.59l-.04.35-.07.42c.21-.03.42-.08.63-.11,0-.2-.02-.4-.03-.6-.16-.02-.33-.05-.49-.07Z"/>
          <path class="cls-1" d="M107.2,108.66q.56.98,1.87.55c-.45-.84-1.24-.43-1.87-.55Z"/>
          <path class="cls-1" d="M107.21,108.68q-.56-.98-1.87-.55c.45.84,1.24.43,1.87.55Z"/>
          <path class="cls-1" d="M57.49,105.91c-.41,1.23-.41,1.25.5,1.78-.02-.08-.04-.16-.06-.23.03.03.05.05.08.07-.03-.58.38-1.3-.53-1.62Z"/>
          <path class="cls-1" d="M63.25,115.29c.68-.63.68-1.26,0-1.9-.68.63-.68,1.26,0,1.9Z"/>
          <path class="cls-1" d="M75.07,86.01c.15.61-.45,1.44.55,1.79.41-1.23.41-1.25-.5-1.78-.02-.01-.03-.02-.05-.03,0,0,0,.02,0,.02Z"/>
          <path class="cls-1" d="M58.82,13.81c-.06-.22-.21-.59-.34-.6-.41-.02-.83.09-1.25.15,0,.2.02.4.03.6.42.06.84.13,1.26.15.1,0,.32-.23.3-.3Z"/>
          <path class="cls-1" d="M75.46,94.57q-.41,1.25.55,1.81c-.17-.61.46-1.46-.55-1.81Z"/>
          <path class="cls-1" d="M61.35,96.4c-.1,0-.32.23-.3.3.06.22.21.59.34.6.41.02.84-.09,1.25-.15,0-.2-.02-.4-.03-.6-.42-.06-.84-.13-1.26-.15Z"/>
          <path class="cls-1" d="M24.98,95.63c.03.58-.38,1.3.53,1.62.41-1.23.41-1.25-.5-1.78.02.08.04.16.06.23-.03-.03-.05-.05-.08-.07Z"/>
          <path class="cls-1" d="M56.04,92.93c-.55-.51-1.08-.48-1.85.14.86.61,1.46.89,1.85-.14Z"/>
          <path class="cls-1" d="M52.05,105.71c.5-.54.47-1.07-.32-1.56.19.46-.95,1.22.32,1.56Z"/>
          <path class="cls-1" d="M90.81,104.77c.5-.54.47-1.07-.32-1.56.19.46-.95,1.22.32,1.56Z"/>
          <path class="cls-1" d="M65.14,91.65c.68-.63.68-1.26,0-1.9-.68.63-.68,1.26,0,1.9Z"/>
          <path class="cls-1" d="M23.06,100.63c.63.68,1.26.68,1.9,0-.63-.68-1.26-.68-1.9,0Z"/>
          <path class="cls-1" d="M70.24,100.11l-.05-.84c-.11-.01-.22-.03-.32-.03-.1,0-.32.23-.3.3.06.22.21.59.34.6.11,0,.23-.01.34-.02Z"/>
          <path class="cls-1" d="M70.96,99.36l.17.07s0-.03,0-.05c-.05,0-.11-.02-.16-.02Z"/>
          <path class="cls-1" d="M68.56,91.32c.55.51,1.08.48,1.85-.14-.86-.61-1.46-.89-1.85.14Z"/>
          <path class="cls-1" d="M56.63,116.24c.68-.63.68-1.26,0-1.9-.68.63-.68,1.26,0,1.9Z"/>
          <path class="cls-1" d="M64.49,116.86c-.06-.22-.21-.59-.34-.6-.41-.02-.84.09-1.25.15,0,.2.02.4.03.6.42.06.84.13,1.26.15.1,0,.32-.23.3-.3Z"/>
          <path class="cls-1" d="M52.53,84.87c.42.06.84.13,1.26.15.1,0,.32-.23.3-.3-.06-.22-.21-.59-.34-.6-.41-.02-.84.09-1.25.15,0,.2.02.4.03.6Z"/>
          <path class="cls-1" d="M48.62,83.65c-.02.41.09.84.15,1.25.2,0,.4-.02.6-.03.06-.42.14-.84.15-1.26,0-.1-.23-.32-.3-.3-.22.06-.59.21-.6.34Z"/>
          <path class="cls-1" d="M68.44,83.62c.63.68,1.26.68,1.9,0-.63-.68-1.26-.68-1.9,0Z"/>
          <path class="cls-1" d="M45.91,82.98c.42.06.84.13,1.26.15.1,0,.32-.23.3-.3-.06-.22-.21-.59-.34-.6-.41-.02-.84.09-1.25.15,0,.2.02.4.03.6Z"/>
          <path class="cls-1" d="M55.82,36.71c.51-.55.48-1.08-.14-1.85-.61.86-.89,1.46.14,1.85Z"/>
          <path class="cls-1" d="M50.65,68.33c.06.22.21.59.34.6.41.02.84-.09,1.25-.15,0-.2-.02-.4-.03-.6-.42-.06-.84-.13-1.26-.15-.1,0-.32.23-.3.3Z"/>
          <path class="cls-1" d="M56.14,159.25c0-.1-.23-.32-.3-.3-.22.06-.59.21-.6.34-.02.41.09.84.15,1.25.2,0,.4-.02.6-.03.06-.42.13-.84.15-1.26Z"/>
          <path class="cls-1" d="M41.8,69.59c-.06-.22-.21-.59-.34-.6-.41-.02-.84.09-1.25.15,0,.2.02.4.03.6.42.06.84.13,1.26.15.1,0,.32-.23.3-.3Z"/>
          <path class="cls-1" d="M99.64,69.44c.2.21.39.35.59.43l.62-.53.24-.26c-.48-.27-.96-.15-1.45.37Z"/>
          <path class="cls-1" d="M58.52,16.96c.11-.21.23-.41.34-.61-.13-.13-.23-.23-.34-.34-.1.21-.25.41-.3.63-.02.08.19.21.3.31Z"/>
          <path class="cls-1" d="M52.55,31.46c.05.22.19.42.3.63.1-.11.31-.23.3-.31-.05-.22-.19-.42-.3-.63-.11.11-.31.23-.3.31Z"/>
          <path class="cls-1" d="M63.73,25.51c.07-.02.15-.03.22-.05l-.02-.26-.03-.15c-.1.12-.22.25-.35.41-.03.04-.06.07-.09.11.09-.03.18-.05.27-.07Z"/>
          <path class="cls-1" d="M63.72,29.73c-.21-.11-.41-.25-.63-.3-.08-.02-.21.19-.31.3.21.11.41.23.61.34.13-.13.23-.23.34-.34Z"/>
          <path class="cls-1" d="M50.01,38.71c-.11.21-.25.41-.3.63-.02.08.19.21.3.31.11-.21.23-.41.34-.61-.13-.13-.23-.23-.34-.34Z"/>
          <path class="cls-1" d="M58.85,37.15c-.13-.13-.23-.23-.34-.34-.1.21-.25.41-.3.63-.02.08.19.21.3.31.11-.21.23-.41.34-.61Z"/>
          <path class="cls-1" d="M61.2,12.04l.31-.72c-.42.1-.65.23-.31.72Z"/>
          <path class="cls-1" d="M60.07,13.52c.11.2.22.4.34.61.1-.11.31-.23.3-.31-.05-.22-.19-.42-.3-.63-.1.11-.21.21-.34.34Z"/>
          <path class="cls-1" d="M60.41,9.4c-.1.1-.21.21-.34.34.11.2.22.4.34.61.1-.11.31-.23.3-.31-.05-.22-.19-.42-.3-.63Z"/>
          <path class="cls-1" d="M60.07,7.85c.11.2.22.4.34.61.1-.11.31-.23.3-.31-.05-.22-.19-.42-.3-.63-.11.1-.21.21-.34.34Z"/>
          <path class="cls-1" d="M55.52,163.33c.22-.05.42-.19.63-.3-.11-.1-.21-.21-.34-.34-.2.11-.4.22-.61.34.11.11.23.31.31.3Z"/>
          <path class="cls-1" d="M58.99,142.71c-.02.65.29.97.95.95.02-.65-.29-.97-.95-.95h0Z"/>
          <path class="cls-1" d="M53.15,147.43c-.54.11-.9.2-.39.86.2-.23.4-.47.73-.85-.14.03-.28.06-.43.1.04-.04.06-.07.1-.11Z"/>
          <path class="cls-1" d="M53.15,147.43s-.06.07-.1.11c.15-.04.29-.07.43-.1.54-.12.9-.2.39-.86-.2.23-.4.47-.73.85Z"/>
          <path class="cls-1" d="M57.87,73.38c-.05-.22-.19-.42-.3-.63-.1.11-.31.23-.3.31.05.22.19.42.3.63.11-.11.31-.23.3-.31Z"/>
          <path class="cls-1" d="M28.56,74.32c-.05-.22-.19-.42-.3-.63-.1.11-.21.21-.34.34.11.2.22.4.34.61.11-.1.31-.23.3-.31Z"/>
          <path class="cls-1" d="M25.43,73.69c-.1.11-.31.23-.3.31.05.22.19.42.3.63.11-.11.21-.21.34-.34-.11-.2-.22-.4-.34-.61Z"/>
          <path class="cls-1" d="M63.58,72.14c-.13-.13-.23-.23-.34-.34-.1.21-.25.41-.3.63-.02.08.19.21.3.31.11-.21.23-.41.34-.61Z"/>
          <path class="cls-1" d="M75.06,76.53c.64.02.95-.28.94-.9-.08.02-.17.04-.26.06.03-.03.05-.06.07-.09-.51.05-.78.34-.76.93Z"/>
          <path class="cls-1" d="M63.9,75.89c.05.22.19.42.3.63.1-.11.21-.21.34-.34-.11-.2-.22-.4-.34-.61-.11.11-.31.23-.3.31Z"/>
          <path class="cls-1" d="M74.12,77.43c.08-.02.17-.04.26-.06-.03.03-.05.06-.07.09.51-.05.78-.34.76-.93-.64-.02-.95.28-.94.9Z"/>
          <path class="cls-1" d="M76,75.62c.63-.14,1.13-.17.56-.9-.2.24-.41.48-.75.88-.03.03-.05.05-.07.09.09-.02.17-.05.26-.06Z"/>
          <path class="cls-1" d="M52.06,74.81c-.22.05-.42.19-.63.3.1.1.23.31.31.3.22-.05.42-.19.63-.3-.11-.11-.23-.31-.31-.3Z"/>
          <path class="cls-1" d="M14.73,67.38c.05.22.19.42.3.63.11-.11.31-.23.3-.31-.05-.22-.19-.42-.3-.63-.11.11-.31.23-.3.31Z"/>
          <path class="cls-1" d="M62.46,68.19c-.22.05-.42.19-.63.3.11.11.23.31.31.3.22-.05.42-.19.63-.3-.11-.11-.23-.31-.31-.3Z"/>
          <path class="cls-1" d="M33.42,66.12c.14.63.17,1.13.9.56-.24-.2-.48-.41-.88-.75,0,.06.02.12.02.19-.02,0-.03,0-.04,0Z"/>
          <path class="cls-1" d="M19.24,70.85c.14.63.17,1.12.9.56-.23-.2-.48-.41-.86-.73-.04-.03-.07-.06-.11-.09.03.09.05.18.07.26Z"/>
          <path class="cls-1" d="M57.41,86.75c.22-.05.42-.19.63-.3-.11-.11-.21-.21-.34-.34-.2.11-.4.22-.61.34.1.11.23.31.31.3Z"/>
          <path class="cls-1" d="M41.03,86.45c.11.11.23.31.31.3.22-.05.42-.19.63-.3-.11-.11-.21-.21-.34-.34-.2.11-.4.22-.61.34Z"/>
          <path class="cls-1" d="M84.18,79.23c.13-.13.23-.23.34-.34-.21-.11-.41-.25-.63-.3-.08-.02-.21.19-.31.3.21.11.41.23.61.34Z"/>
          <path class="cls-1" d="M60.92,79.36c-.14-.63-.17-1.12-.9-.56.23.2.47.4.83.71.04.04.08.07.13.11-.03-.09-.05-.18-.07-.26Z"/>
          <path class="cls-1" d="M74.12,77.43c-.63.14-1.13.17-.56.9.2-.24.41-.48.75-.88.03-.03.05-.06.07-.09-.09.02-.17.05-.26.06Z"/>
          <path class="cls-1" d="M53.14,47.85c-.05-.22-.19-.42-.3-.63-.11.11-.31.23-.3.31.05.22.19.42.3.63.1-.11.31-.23.3-.31Z"/>
          <path class="cls-1" d="M48.93,49.24c-.13.13-.23.23-.34.34.21.1.41.25.63.3.08.02.21-.19.31-.3-.21-.11-.41-.23-.61-.34Z"/>
          <path class="cls-1" d="M96.34,63.29c.11-.21.23-.41.34-.61-.13-.13-.23-.23-.34-.34-.11.21-.25.41-.3.63-.02.08.19.21.3.31Z"/>
          <path class="cls-1" d="M33.27,65.81l-.62-.06c.14.24.39.37.77.37.02,0,.03,0,.04,0,0-.07-.01-.13-.02-.19,0-.05,0-.1-.01-.14l-.16.02Z"/>
          <path class="cls-1" d="M113.82,112.62c.1.48.19.81.67.52l-.34-.37-.25-.17s.02.08.03.12c-.04-.04-.07-.06-.11-.1Z"/>
          <path class="cls-1" d="M59.63,115.47c-.22.05-.42.19-.63.3.11.11.23.31.31.3.22-.05.42-.19.63-.3-.11-.1-.23-.31-.31-.3Z"/>
          <path class="cls-1" d="M43.48,97.41c-.2.23-.41.48-.73.86-.03.04-.06.07-.09.11.09-.02.18-.05.26-.06.63-.14,1.13-.17.56-.9Z"/>
          <path class="cls-1" d="M83.57,98.74c.21.11.41.23.61.34.13-.13.23-.23.34-.34-.21-.11-.41-.25-.63-.3-.08-.02-.21.19-.31.3Z"/>
          <path class="cls-1" d="M38.23,99.2c-.14-.62-.18-1.1-.9-.54.25.21.51.43.94.8.01,0,.02.01.03.02-.03-.1-.05-.19-.07-.28Z"/>
          <path class="cls-1" d="M32.38,98.61c-.13-.13-.23-.23-.34-.34-.11.21-.25.41-.3.63-.02.08.19.21.3.31.11-.21.23-.41.34-.61Z"/>
          <path class="cls-1" d="M76.01,96.38c-.02.65.29.97.95.95.02-.65-.29-.97-.95-.95Z"/>
          <path class="cls-1" d="M39.14,96.85c-.1-.11-.21-.21-.34-.34-.2.11-.4.22-.61.34.11.11.23.31.31.3.22-.05.42-.19.63-.3Z"/>
          <path class="cls-1" d="M85.64,100.47c.05.22.19.42.3.63.11-.11.21-.21.34-.34-.11-.2-.22-.4-.34-.61-.1.11-.31.23-.3.31Z"/>
          <path class="cls-1" d="M21.98,100.77c-.11-.2-.22-.4-.34-.61-.11.11-.31.23-.3.31.05.22.19.42.3.63.1-.11.21-.21.34-.34Z"/>
          <path class="cls-1" d="M84.38,92.26c-.11-.2-.22-.4-.34-.61-.1.11-.31.23-.3.31.05.22.19.42.3.63.1-.11.21-.21.34-.34Z"/>
          <path class="cls-1" d="M49.71,90.07c.05.22.19.42.3.63.1-.11.31-.23.3-.31-.05-.22-.19-.42-.3-.63-.11.11-.31.23-.3.31Z"/>
          <path class="cls-1" d="M88.74,91.49l-.06-.12-.26-.06c.07.14.16.22.32.18Z"/>
          <path class="cls-1" d="M42.81,90.44c.03.09.05.18.07.26.14.63.17,1.12.9.56-.25-.21-.51-.43-.93-.8-.01,0-.02-.02-.03-.03Z"/>
          <path class="cls-1" d="M58.52,94.49c-.1.11-.31.23-.3.31.05.22.19.42.3.63.11-.1.21-.21.34-.34-.11-.2-.22-.4-.34-.61Z"/>
          <path class="cls-1" d="M24.58,95.29c.11.1.25.21.4.34.03.02.05.04.08.07-.02-.08-.04-.16-.06-.23-.04-.17-.07-.32-.11-.46l-.32.28Z"/>
          <path class="cls-1" d="M90.37,93.85c.05.22.19.42.3.63.11-.11.31-.23.3-.31-.04-.17-.13-.34-.22-.5l-.13-.09c-.11.09-.26.2-.24.26Z"/>
          <path class="cls-1" d="M12.84,108.98c.05.2.17.39.27.58l.07.02c.11-.1.27-.21.25-.27-.05-.22-.19-.42-.3-.63-.11.11-.31.23-.3.31Z"/>
          <path class="cls-1" d="M65.79,108.04c.05.22.19.42.3.63.1-.1.31-.23.3-.31-.05-.22-.19-.42-.3-.63-.11.11-.31.23-.3.31Z"/>
          <path class="cls-1" d="M58,107.7c.15.64.17,1.16.91.59-.24-.2-.49-.42-.88-.75-.03-.02-.05-.04-.08-.07.02.08.04.16.06.23Z"/>
          <path class="cls-1" d="M54.74,108.67c.11-.21.23-.41.34-.61-.13-.13-.23-.23-.34-.34-.1.21-.25.41-.3.63-.02.08.19.21.3.31Z"/>
          <path class="cls-1" d="M15.97,107.72c-.11.11-.31.23-.3.31.05.22.19.42.3.63.1-.11.21-.21.34-.34-.11-.2-.22-.4-.34-.61Z"/>
          <path class="cls-1" d="M104.39,110.75c.05-.05.1-.12.15-.18-.13.03-.26.06-.4.09l.24.09Z"/>
          <path class="cls-1" d="M103.99,110.61l.13.05s.06-.06.08-.1c-.08.02-.15.03-.22.05Z"/>
          <path class="cls-1" d="M62.21,112.36c.22-.26.44-.52.82-.97-.73.21-1.46.14-.82.97Z"/>
          <path class="cls-1" d="M58.22,111.82c.05.22.19.42.3.63.1-.1.31-.23.3-.31-.05-.22-.19-.42-.3-.63-.11.11-.31.23-.3.31Z"/>
          <path class="cls-1" d="M113.82,112.62s.07.06.11.1c-.01-.04-.02-.08-.03-.12l-.62-.43c.15.13.32.27.53.46Z"/>
          <path class="cls-1" d="M104.2,110.56s-.05.06-.08.1h.02c.14-.03.27-.06.4-.09.54-.12.9-.2.39-.86-.2.23-.4.47-.73.85Z"/>
          <path class="cls-1" d="M69.21,103.63c-.05-.22-.19-.42-.3-.63-.1.11-.31.23-.3.31.05.22.19.42.3.63.11-.11.31-.23.3-.31Z"/>
          <path class="cls-1" d="M45.28,101.11c-.11.11-.31.23-.3.31.05.22.19.42.3.63.1-.11.21-.21.34-.34-.11-.2-.22-.4-.34-.61Z"/>
          <path class="cls-1" d="M26.71,102.39c-.13-.13-.23-.23-.34-.34-.1.21-.25.41-.3.63-.02.08.19.21.3.31.11-.21.23-.41.34-.61Z"/>
          <path class="cls-1" d="M82.63,102.53c-.1-.11-.23-.31-.31-.3-.22.05-.42.19-.63.3.11.11.21.21.34.34.2-.11.4-.22.61-.34Z"/>
          <path class="cls-1" d="M62.77,106.31c-.11-.11-.21-.21-.34-.34-.2.11-.4.22-.61.34.11.1.23.31.31.3.22-.05.42-.19.63-.3Z"/>
          <path class="cls-1" d="M64.19,107.72c.1-.21.25-.41.3-.63.02-.08-.19-.21-.3-.31-.11.21-.23.41-.34.61.13.13.23.23.34.34Z"/>
          <path class="cls-1" d="M22.16,107.76c.61-.13,1.07-.18.52-.89-.2.24-.41.48-.74.86-.03.03-.05.06-.09.1.1-.03.2-.05.3-.07Z"/>
        </g>
      </g>
    </g>
  </g>
</svg>