<?xml version="1.0" encoding="UTF-8"?>
<svg id="_レイヤー_2" data-name="レイヤー 2" xmlns="http://www.w3.org/2000/svg" viewBox="0 0 239.3 235.81">
  <defs>
    <style>
      .cls-1 {
        fill: #fff;
      }

      .cls-2 {
        fill: none;
      }

      .cls-3 {
        fill: #c5c2de;
        fill-rule: evenodd;
      }
    </style>
  </defs>
  <g id="_レイヤー_1-2" data-name="レイヤー 1">
    <g id="stars">
      <g>
        <path class="cls-3" d="M115.82,92.94l-.99.38-.93.52-1.05.08-.1-1.22-.55-1.06-1.09-.85v-1.29s-.62-1.05-.62-1.05l-.82-.96-.34-1.15.22-1.38-1.16-.83-.33-1.16-.56-1.07-.16-1.22-.39-1.14-.45-1.11-.16-1.23-.26-1.19-.57-1.06-.51-1.09-1.01-.88.18-1.37-1.05-.86-.24-1.2-.64-1.03.22-1.4-.73-.99-.64-1.03-.42-1.12-.84-.93-.63-1.02-.38-1.14-.35-1.16-.31-1.19-.55-1.07-.58-1.04-1.15-.75-.27-1.2-.03-1.31-1.18-.76-.56-1.05-.39-1.13-.1-1.27-.18-1.23-.83-.92-.65-1.01-.31-1.17-1.16-.75-.08-1.3-.17-1.26-.86-.89-.83-.89-.41-1.14-.7-1.01-.48-1.18-1.35-.47-.62-1.07-1.1-.55-.05.48-.69,1.02.25,1.01.57.91-.39,1.3.46,1.08.95.9-.05,1.25.46,1.06.8.92.34,1.11.06,1.23.93.87-.17,1.31.56,1.14.44,1.19.79,1.04.67,1.1.62,1.07-.03,1.42.53,1.03,1.06.87-.09,1.36.92.93-.12,1.37,1.18.82.31,1.19.63,1.05.36,1.17.35,1.17.51,1.1.48,1.12.11,1.27.47,1.12.85.96.58,1.08.38,1.16.6,1.07.34,1.18-.07,1.35.67,1.03.59,1.07.07,1.29,1.04.88.22,1.23.2,1.23.57,1.08.38,1.16.62,1.06.76,1,.61,1.06.5,1.11-.1,1.37.92.93.82.97.37,1.16.36,1.34-1.48.95-.71-.98-.98-.71-.68-1.02-.87-.82-.76-.93-1.09-.59-.47-1.24-1.11-.57-.81-.88-1.12-.56-.55-1.15-.84-.86-.97-.72-1.29-.38-.39-1.33-.91-.78-1.14-.54-.97-.71-.71-1-.95-.74-.56-1.17-.82-.88-1.16-.5-1.19-.46-.48-1.28-1.06-.6-1.17-.46-.77-.94-.75-.97-.89-.8-.83-.89-.99-.69-.94-.75-1.14-.48-1.08-.56-.93-.75-1.17-.42-.71-1.08-1-.66-1.2-.35-.7-1.13-.96-.68-1.12-.42-1.29-.18-.68-1.1-1.12-.43-.67-1.11-1.47.08-.63-1.17-1.2-.31-.82-.9-.93-.93-1.27-.4-1.36.3.03,1.53.82,1.13.97.92,1.26.58.37,1.36.8,1,.96.84,1.38.41.61,1.19,1.1.67,1.02.75.76,1.05.56,1.16,1.06.59.88.8,1.28.33.44,1.31,1.46.11.87.81.55,1.18,1.15.48.77.93,1.02.63.48,1.26,1.05.59,1.03.62.87.81,1.22.4.9.77.63,1.08,1.07.57.41,1.34,1.24.38,1.14.49.41,1.33,1.31.3.78.91.99.66.62,1.09.93.73.78.91,1.25.38.43,1.3,1.2.44,1.07.58.51,1.21.66,1.04,1.17.48.58,1.11,1.28.37.83.85.46,1.24,1.38.47-1.15.89-.34,1.13.4,1.32-.81.95-.26,1.25-1.35.19-.95-.94-1.3.16-1.05-.65-1.26.02-.96-.91-1.15-.3-1.33.27-1.09-.5-1.09-.5-1.05-.63-1.34.3-1.01-.76-1.1-.46-1.06-.6-1.08-.53-1.15-.31-1.28.09-1.02-.72-1.11-.44-1.35.34-1.09-.5-1.01-.75-1.19-.18-1.21-.11-1.2-.15-.91-1.09-1.4.47-.88-1.19-1.19-.2-1.34.28-1.12-.42-.95-.97-1.12-.41-1.29.14-1.09-.51-.99-.81-1.21-.13-1.23-.07-1.11-.44-1.26.03-1-.8-1.24-.03-.99-.81-1.1-.46-1.08-.52-1.37.37-1.09-.52-1.18-.25-.97-.85-1.1-.48-1.12-.45-1.36.39-1.02-.82-1.25.13-1.18-.1-1.17-.09-1.17.04-1.08-.51-1.07-.31h-1.13s-.79.8-.79.8l.77.54.78.66.85.61.88.58.83.94,1.35-.14,1.04.52,1.17.21.88.9,1.1.39,1.01.61,1.04.53,1.23.08.93.81,1.33-.22.92.96,1.04.66,1.22.17,1.08.57,1.22.16,1.1.52,1.31-.12,1.07.59,1.09.56,1.28-.04,1.06.66,1.11.48,1.21.17,1.03.76,1.28-.04.96.97,1.3-.1,1.27-.06.95.94h1.25s1.07.55,1.07.55l.98.83,1.39-.45.96.91,1.14.35,1.24.04,1.11.44,1.23.05,1.13.36,1.11.45,1.03.71.99.81,1.18.22,1.12.42,1.31-.19,1.05.64,1.2.15,1.05.64,1.08.55,1.19.17,1.22.1.99.81,1.2.16,1.05.64,1.3-.14.75.7-.08.83.71,1.03.24,1.16-1.11.64-1.17.49-1.27-.75-1.18.28-1.21-.08-1.15.8-1.2.08-1.22-.14-1.22-.14-1.19.2-1.17.63-1.22-.15-1.24-.6-1.18.41-1.19.4-1.24-.68-1.16.98-1.24-.75-1.17.81-1.21-.1-1.21-.02-1.22-.37-1.21-.18-1.2.18-1.21-.06-1.18.8-1.21-.11h-1.21s-1.21-.06-1.21-.06l-1.21-.25-1.19.34-1.21-.2-1.19.45-1.22-.27-1.21-.15-1.19.42-1.2.23-1.22-.35-1.2.16-1.21-.18-1.2.26-1.19.3-1.22-.43-1.2.12-1.18.52-1.19.28-1.23-.53h-1.21s-1.22-.24-1.22-.24l-1.18.43-1.19.37-1.24-.52-1.18.51-1.23-.29-1.16.74-1.23-.38-1.2.17-1.18.4-1.2.07-1.18.37-1.22-.1-1.25-.48-1.16.53-1.15.24-1.15.27-1.17.1-1.21-.48-1.12.7-1.2-.22-1.2-.17-1.09.77-1.28-.75-1.1.58-1.21-.08-1.03.81-1.25-.17-.99.8-1.2.07-.86.79-1.3-.21-.72,1.02-1.34-.16-1.23,1.16,1.35.61,1.28-.23,1.16.49,1.16-.42,1.2.42,1.25-.08,1.3-.7,1.23.89h1.28s1.28-.59,1.28-.59l1.22.02,1.24.64,1.21-.44,1.2-.45h1.23s1.26.54,1.26.54l1.23-.04,1.18-.83,1.22-.16,1.21.18,1.21.25,1.17-.56,1.2.15,1.22.42,1.2.15,1.19-.06,1.19-.09,1.17-.47,1.19-.21,1.18-.4,1.2.13,1.19-.23,1.2.07,1.2.14,1.2.08,1.2.16,1.2.02,1.19-.19,1.2.18,1.2.08,1.16-.93,1.19-.07,1.23.83,1.16-.82,1.22.58,1.19-.02,1.2.05,1.17-.55,1.22.52,1.18-.32,1.16-.73,1.23.9,1.18-.45,1.19-.05,1.21.28,1.17-.49,1.18-.31,1.2.06,1.22.55,1.15-.89,1.22.52,1.19-.14,1.19-.06,1.19-.15,1.21.2,1.17-.41,1.19-.02,1.18-.27,1.22.32,1.19-.11,1.19-.09,1.2.03,1.19-.16,1.18-.28,1.16-.53,1.2.05,1.2.09,1.17-.32,1.25.66h1.2s1.38-.9,1.38-.9l-.29,1.5.49,1.13-.27,1.28.23,1.19,1.09.93-.19,1.1-1.02.21-1.01.73-.91.93-1.19.34-1.34.03-.79,1.17-.99.76-1.29.13-1.26.21-.91.92-1.3.11-1.08.57-.99.75-1.03.68-1.19.35-1.12.49-.92.91-1.14.44-1.27.16-.93.89-1.08.58-1.38-.08-.78,1.23-1.43-.28-1.03.62-1.1.47-.77,1.23-1.24.14-.95.82-1.14.37-1.44-.32-.75,1.28-1.24.14-1.11.44-.93.86-1.43-.27-.9.92-1.25.15-.77,1.18-1.46-.29-1.06.56-.8,1.09-1.01.65-1.41-.12-.64,1.36-1.47-.22-.62,1.35-1.07.53-1.02.61-1.27.2-1.05.77-.92.99-1.49.04-.87,1.08-1.24.45-1.25.45-1,1.01.1,1.23,1.05.87,1.27-.56,1.1-.76,1.29-.06,1.31-.04,1.23-.31,1.19-.44,1.04-.86,1.19-.24,1.02-.68,1.32.11.91-.94,1.2-.21,1.04-.62,1.13-.38,1.15-.34.99-.73,1.26-.1.85-1.06,1.15-.35,1.05-.58,1.41.24.84-1.06,1.13-.4,1.1-.48,1.28-.06.8-1.14,1.28-.07.89-.93,1.12-.42,1.44.29.85-1.02,1.27-.07.86-.99,1.18-.27,1.19-.23.9-.85.98-.68,1.19-.22,1.19-.24,1.03-.57,1.16-.3.95-.73,1.14-.34.66-1.33,1.42.22.95-.73.81-1.03,1.25-.13,1.08-.48.98-.67,1.18-.25,1.19-.24.68-1.31,1.24-.12,1.08-.46,1.13-.35,1.07-.48.98-.46.55.97,1.39.11.6,1.08.61.92-.18.76-.85.87-.13,1.49-.95.78-.67,1.02-1,.73-.59,1.09-1.1.65-1.16.59-.79.92-.65,1.04-.62,1.06-1.11.64-.66,1.03-.52,1.14-.53,1.14-.78.92-.91.81-.73.96-1.04.71-.95.78-.62,1.06-.82.89-.35,1.28-1.2.58-1.02.73-.19,1.4-.68,1-1.23.52-.82.84-.47,1.11-.47,1.1-1.09.65-.15,1.33-1.15.61-.37,1.16-.59,1.01-1.17.6-.24,1.25-.56,1.03-1.03.69-.84.83-.75.88-.7.94-.04,1.48-.81.85-.86.81-.76.89-.38,1.15-1.14.66-.07,1.29-.82.9-.33,1.34-.58,1.37.81,1.28,1.48.1.29-1.57.93-.82,1.14-.68.51-1.21.66-1.09,1.41-.46.23-1.45.95-.84,1.15-.67.69-1.06.67-1.09,1.01-.66.4-1.2,1.11-.58.55-1.07.7-.93,1.18-.54.74-.91.52-1.09.94-.74.17-1.37.85-.81,1.01-.68.64-.99,1.02-.68.85-.81.8-.85.02-1.5,1.14-.62.67-1.01,1.17-.59.64-1.03.73-.95.72-.97.6-1.07,1.08-.66.62-1.05.96-.76.48-1.17.57-1.1.74-.95,1.28-.49.59-1.08.53-1.13,1.4-.39.26-1.36,1.02-.71.4-1.24,1.1-.64,1.11-.64.47-1.18.79-.67,1,.9,1.17.34,1.28-.35.28,1.09-.51,1.11-.04,1.23.21,1.3-.41,1.13-.42,1.13-.72,1.04-.02,1.24-.23,1.18-.25,1.17-.79,1.02-.03,1.24-.46,1.11-.23,1.18-.52,1.1.15,1.29-.52,1.1-.53,1.09v1.26s-1.03.94-1.03.94l-.1,1.22-.46,1.11-.63,1.06.42,1.39-.4,1.13-1.02.94.4,1.38-1.01.94-.46,1.11-.4,1.13-.25,1.18.3,1.35-.76,1.02-.77,1.01-.31,1.16.26,1.34-.24,1.18-.54,1.08-.37,1.14-.16,1.21-.8,1-.08,1.23-.67,1.04-.09,1.23-.69,1.04.15,1.3-.31,1.1-.97.9-.36,1.09.22,1.25-.44,1.07-.27,1.11-.46,1.07-.08,1.16-.36,1.09-.63,1.05.1,1.18-.38,1.05.21,1.15-.03,1.09.7.6.94-.18.82-.65.3-1.02.59-.81.86-.85.58-1.02.16-1.22.8-.91-.29-1.39.62-.99.87-.9.34-1.12.55-1.03.04-1.23.89-.9.58-1.07-.49-1.47.93-.94.49-1.1-.18-1.34.51-1.09.65-1.05.38-1.14.71-1.03-.09-1.3.57-1.08.61-1.07.58-1.08.22-1.2.08-1.24.34-1.15.78-1.01.2-1.2.05-1.25.25-1.18.38-1.14.72-1.04.2-1.2.57-1.09.46-1.12.03-1.25.46-1.12-.15-1.3.63-1.07.57-1.09.38-1.14.2-1.2.66-1.07-.44-1.37.81-1.03.09-1.22.23-1.18,1-.98-.05-1.26.58-1.09.37-1.15.08-1.22-.22-1.3.25-1.18.37-1.38.89.61.15,1.04.37,1.16-.3,1.22.14,1.18.45,1.15.54,1.14-.13,1.21-.05,1.2.29,1.17-.24,1.22.68,1.12-.29,1.23.49,1.14-.62,1.27.76,1.11v1.2s.05,1.19.05,1.19l.45,1.15-.16,1.22.35,1.16.1,1.19.24,1.17.14,1.18.26,1.17-.39,1.24.57,1.13.19,1.18-.31,1.23.57,1.13.12,1.18.23,1.17.21,1.17-.35,1.24.28,1.17-.21,1.22.44,1.15-.08,1.21.64,1.13-.3,1.23-.3,1.23.99,1.1-.14,1.21-.05,1.2-.15,1.24-.02,1.23.85,1.13-.25,1.25.08,1.22.48,1.17.17,1.2.13,1.21-.46,1.29.17,1.21.39,1.18.59,1.15-.23,1.26.29,1.19.52,1.15.05,1.22-.27,1.27.45,1.16.17,1.21.48,1.16.33,1.18-.05,1.24.31,1.18-.33,1.28.28,1.18.26,1.2.79,1.08-.49,1.39.4,1.18.97.95.26,1.22.67.82.52.94.15-1.26.22-1.27.35-1.17-.57-1.21.5-1.16-.04-1.18.16-1.18-.3-1.17-.23-1.19-.23-1.19.2-1.21.13-1.21.15-1.21-.6-1.16.34-1.23-.26-1.18-.25-1.18.57-1.25-.49-1.16-.18-1.19-.47-1.16.47-1.24-.18-1.19-.4-1.17.04-1.21.36-1.24-.77-1.14-.36-1.17-.02-1.2-.19-1.19.25-1.23.18-1.22-.14-1.19-.35-1.18-.47-1.16.44-1.25-.43-1.17-.31-1.18-.16-1.19.14-1.22-.51-1.15.46-1.26.12-1.22-.87-1.11.56-1.27-.03-1.21-.89-1.11.57-1.28-.77-1.12-.37-1.17.32-1.25-.48-1.15.55-1.28-.39-1.17-.03-1.21.13-1.23-.43-1.16-.49-1.15.38-1.25-.26-1.18-.05-1.2-.31-1.18-.47-1.16-.34-1.17.13-1.23.26-1.24-.49-1.16.14-1.22.14-1.22-.09-1.2-.78-1.13.34-1.24-.04-1.2-.36-1.17-.42-1.63,1.32.63,1.12.04,1.09-.35,1.16-.44.34,1.4,1.06.83.26,1.22.73.99-.15,1.42,1.3.72.17,1.26.26,1.22.58,1.06.4,1.15,1.22.76.07,1.31.93.9.5,1.1-.14,1.41.48,1.11.47,1.12.96.88.89.92.47,1.12.33,1.18.82.95.41,1.15-.18,1.43.79.96.95.88.44,1.13.38,1.16.58,1.06.65,1.03-.04,1.37,1.21.75.23,1.24.77.97.25,1.23.83.94.54,1.09.29,1.21.91.89.31,1.21.44,1.14.91.89.07,1.34.51,1.1,1.35.64.48,1.12.09,1.29,1.01.79.08,1.3,1.21.68.56,1.03.26,1.2.37,1.15.59,1.03.87.83.34,1.22,1.11.63.65.76.18,1.14.97.51,1.49.63.48-1.33-.84-1.02.1-1.17-.28-1.07-.61-1.05-.29-1.14-.45-1.09-.04-1.24-.33-1.14-.82-.95.06-1.3-.96-.88-.59-1.03-.34-1.14-.83-.91-.5-1.11-.34-1.19-.35-1.19-.91-.91-.65-1.04.08-1.41-1.08-.82v-1.37s-1.03-.84-1.03-.84l-.41-1.16-.84-.94-.49-1.12-.09-1.32-.63-1.05-.39-1.17-.94-.9-.37-1.14-.35-1.15-.26-1.19-.51-1.07-1.24-.72-.23-1.21-.66-1-.64-1.01-.61-1.02-.43-1.11.1-1.37-.39-1.13-.89-.89-.23-1.21-.88-.89-.32-1.16-.62-1.02-.71-.98-.61-1.02v-1.32s-.7-.97-.7-.97l-.86-.9.08-1.36-.97-.85-.65-1-.19-1.22-.68-.99-.47-1.09-1-.83.03-1.25.94-.6.94-.76.23-1.3.55-1.1,1.19-.55.91.7,1.21.41.84.88.87.84,1.25.37.46,1.34,1.24.39.68,1.07,1.06.61.69,1.04.93.77,1.16.5,1.26.39.66,1.08.94.75,1.01.68.69,1.04.84.87,1.27.38.36,1.41,1.36.28.42,1.34,1.12.56.76.97,1.28.37.72,1,.97.72,1.1.57.48,1.27,1.15.52.62,1.12.89.82,1.32.32.86.85.59,1.15,1.28.36.62,1.13.77.96,1.48.12.75.98,1.06.61.49,1.29,1.23.39.84.85,1.12.51.69,1.03.69,1.06,1.3.26.8.93,1.11.48.92.79,1.08.52,1.25.52,1.24.8,1.5-.51.14-1.53-.94-1.09-.96-1.01-.57-1.02-.52-1.08-1.26-.41-.92-.7-.84-.77-.45-1.19-.78-.85-1.01-.6-.75-.88-1.17-.41-.92-.8-.38-1.39-1.29-.38-.87-.85-.84-.89-1.13-.56-.8-.92-.89-.83-1.09-.61-.38-1.4-1.23-.45-.8-.93-1.16-.52-.89-.82-.47-1.29-1.26-.41-.85-.87-.59-1.16-1.06-.63-1.23-.44-.61-1.14-1.22-.45-.48-1.3-1.21-.46-.51-1.27-.92-.8-1.31-.34-1-.7-.8-.93-1.06-.63-.51-1.28-1.43-.19-.96-.74-.95-.75-.66-1.11-1.19-.46-.74-1.01-.64-1.14-1.05-.63-1.27-.36-.91-.99.45-1.19.8-.79,1.12-.64.54-.99.46-1.03.26-.79h.99s1.23.19,1.23.19l1.01.83,1.26.11,1.11.52,1.05.69,1.36-.12,1.16.4,1.12.51,1.04.7,1.03.74,1.3.05,1.07.63,1.25.14,1,.85,1.13.49,1.33-.12,1.21.21,1.05.78,1.21.24,1.21.25,1.29.02,1.01.84,1.14.44,1.25.14,1.12.52,1.01.83,1.41-.37.97.99,1.23.18,1.19.3,1.12.55,1.06.27,1.07.19,1.02.4,1.06.23,1.22-.4.73.97.93.13,1.28-.35.99.89,1.19.06,1.12.32,1.16.2,1.16.2,1.03.63,1.06.53,1.04.57,1.3-.27,1.17.16,1.1.37,1.11.35,1.14.23.95,1.07,1.33-.67,1.27.22,1.23.33,1.23.55,1.34.21.93-.94-.79-.96-1.16-.78-1.24-.25-.59-1.35-1.42.18-1.11-.4-.95-.81-1.19-.19-.86-1.16-1.43.51-.98-.83-1.14-.32-1.03-.57-1.02-.58-1.26.03-.93-.77-.83-.65-1.23.24-.83-.77-1.26.17-1.1-.47-.94-.95-1.23-.09-1.16-.3-1.11-.45-.99-.78-1.17-.26-1.35.25-1.09-.51-.99-.79h-1.26l-1.02-.69-1.18-.23-1.04-.64-1.04-.63-1.09-.51-1.45.53-.86-1.16-1.39.37-.86-1.17-1.33.19-1.15-.33-1.17-.26-1.06-.59-1.19-.2-1.05-.63-1.03-.68-1.24-.03-1.15-.32-.96-.91-1.12-.43-1.24-.04-1.14-.34-1.27.08-1.01-.76-1.14-.36-1.27.08-1.02-.75-1.28.12-.97-.83.53-.43-.74-1.22-.04-1.11.64-1.22-.95-1.08.88-.99.61-.59,1.15-.39,1.22.21,1.1-.82,1.26.53,1.13-.6,1.17-.2,1.16-.34,1.26.64,1.12-.72,1.24.51,1.12-.77h1.19s1.19-.05,1.19-.05l1.24.55,1.16-.4,1.16-.42,1.23.45,1.14-.6,1.16-.42,1.22.35,1.15-.53,1.25.82,1.16-.48,1.18-.19,1.16-.44,1.22.51,1.14-.77,1.21.28,1.19.05,1.2.13,1.15-.75,1.2.14,1.2.14,1.2.13,1.17-.34h1.19s1.18-.19,1.18-.19l1.21.42,1.17-.45,1.19.02,1.2.27,1.17-.09,1.15-.67,1.19.61,1.16-.54,1.18.16,1.17-.18,1.18.23,1.18.31,1.15-.83,1.19.57h1.18s1.15-.66,1.15-.66l1.2.66,1.14-.81,1.21.85,1.14-.8,1.21.58,1.18.06,1.13-.74,1.17-.04,1.26.3,1.16-.66,1.25.11,1.14-.63,1.31.51,1.21-.21,1.16-.47,1.29.29,1.08-.99,1.22-.15,1.15-.35,1.22.3,1.2.04,1.14-.33,1.4-.71-1.16-1.43-1.51.37-1.47.05-1.22.03-1.1-1.02-1.22.04-1.24.3-1.23.23-1.14-.95-1.23.27-1.2-.31-1.21.38-1.02.34-1.02-.52-1,.5-2.11-.46.83.3-.98-.21-1.18-.32-1.18-.14-1.17.59-1.18-.13-1.18.37-1.18-.17-1.18-.64-1.17.65-1.18-.34-1.18-.08-1.18.14-1.18.03-1.18-.29-1.17.34-1.18-.21-1.17.45-1.18.04-1.22-.54-1.19.36-1.21-.13-1.18.58-1.19.2-1.21-.09-1.23-.58-1.17.74-1.21-.21-1.19.3-1.22-.25-1.2.04-1.22-.26-1.18.37-1.23-.32-1.17.49-1.2.02-1.21-.06-1.19.21-1.19.22-1.2.09-1.22-.11-1.14.73-1.24-.31-1.21-.06-1.13.83-1.29-.77-1.12.86-1.23-.22-1.14.65-1.27-.54-1.13.69-1.28-.63-1.18.3-1.22-.07-1.17.37-1.11.85-1.3-.72-1.14.56-1.14.59h-1.21s-1.38.03-1.38.03l-.04-1.31-.44-1.03.29-.92.86-.4.82-.99.87-.92,1.25-.28.87-.91,1.29-.21.8-1.03,1.04-.63,1.4-.03.93-.81.92-.82,1.28-.23,1.05-.61.91-.83.67-1.23,1.1-.53,1.37-.08,1.09-.54.95-.77.96-.76,1.09-.54,1.05-.61.85-.95.93-.81,1.24-.28.85-.95,1.45.09.91-.85.92-.83.95-.79,1.36-.05,1.16-.4,1.08-.55.88-.91.83-1.05,1.37-.03.88-.99,1.34-.05,1.1-.53,1.1-.55,1.2-.33.76-1.23,1.34-.06.84-1.05,1.11-.52,1.31-.14.82-1.05,1.24-.29.91-.85,1.18-.43,1.28-.32.59-1.27.84-.89,1.43-.2.72-1.03.96-.68-.16-1.24-.86-.8-1.22-.69-1.21.64-1.36-.17-.96,1.1-1.12.57-1.37-.02-1,.85-1.39.06-.95.91-1.24.37-1.04.72-1.05.72-1.26.23-1.08.57-.9.95-1.32.1-.87,1.01-.99.76-1.07.6-1.16.41-1.34.08-.92.89-1.28.15-.95.76-1.17.37-.99.7-1.05.59-.97.72-.8,1.02-.93.79-1.1.48-.97.71-1.43-.08-.68,1.22-1.45-.1-.72,1.13-1.33.1-.61,1.32-1.2.33-1.31.14-.72,1.12-1.11.48-.79,1.02-1.18.36-1.19.35-1.07.55-1.06.56-.77,1.04-1.02.63-1.12.47-.98.69-.99.68-.95.75-1.33.11-1.09.5-.93,1.24-.27-1.64-1.33-.67-.61-1.18-1.2-1,.93-1.15,1.23-.46.96-.74.82-.88,1.07-.62.75-.95.64-1.07.79-.92,1.18-.5.78-.93.99-.71.74-.96.63-1.09.94-.76.83-.88.81-.9.97-.73,1.25-.44.7-1.01,1.06-.64.91-.79.55-1.15.7-1,.9-.8,1.07-.64.82-.88.53-1.16,1.3-.43.87-.84.45-1.22.67-1.02.68-1,1.29-.47.64-1.04.34-1.28,1.31-.46.28-1.32.82-.87,1.3-.48.41-1.2.5-1.12,1.06-.68.62-1.02.48-1.12,1.34-.5-.07-1.51.77-.91,1.33-.55.47-1.12.61-1.24,1.02-.99.5-1.42-1.05.43-1.26.31-1.19.75-1.04.71-1.36.29-.83.99-1.23.45-.83.98-1,.77-.59,1.2-1.27.51-.88.89-.77.98-.91.85-.75.72-.16.16-.73.77-.22,1.48-.98.74-1.18.55-1.03.69-.72,1-.72,1-.7,1.02-.85.87-.99.73-.69,1.02-1.04.68-.73.99-.97.75-.75.97-.76.96-.97.75-1.18.54-.68,1.04-1.14.58-.73.99-.71,1.01-.66,1.06-1.34.37-.26,1.46-1.24.47-.83.89-.94.78-.52,1.2-1.43.28-.38,1.34-1.11.6-.62,1.1-.97.75-.88.83-.63,1.09-1.17.32-.76-.64-1.05-.47-1.19-.11-1.09-.41.17-1.26.67-1.01,1.1-.8-.03-1.33.89-.89-.04-1.34.86-.9.8-.93-.06-1.37,1.07-.79.34-1.16.45-1.11.89-.88-.05-1.37,1.1-.78-.04-1.35,1.27-.69-.25-1.46.51-1.07.54-1.06,1.19-.75.2-1.22.54-1.06.15-1.24.91-.9.22-1.2.83-.95.46-1.1.03-1.26.31-1.15.38-1.12.44-1.11.22-1.17.62-1.06-.15-1.26.68-1.07.61-1.07-.21-1.35.45-1.12.75-1,.44-1.12.43-1.12.47-1.1.74-.99.28-1.19.16-1.24,1.28-.76-.16-1.36.23-1.19,1.15-.88.12-1.22-.16-1.23.91-1v-1.19s.15-1.18.15-1.18l-.34-1.16-.76-.73-.71.49-.9,1.06-.93,1.04-.28,1.3-.52,1.11-1.27.71.07,1.42-.78.99-.24,1.26-1.01.88-.68,1.03-.18,1.3-.5,1.05-.97.8.05,1.33-.17.91-1.21.98-.45,1.12-.52,1.09.09,1.36-1.16.8-.43,1.13.02,1.33-.5,1.1-.85.94-.18,1.25-.35,1.17-1.03.86-.25,1.21-.17,1.25-.86.94-.46,1.12-.48,1.11-.61,1.05-.94.9.07,1.36-.24,1.22-.46,1.12-.7,1.01-.91.92v1.33s-.84.94-.84.94l-.3,1.19-.76.98-.35,1.17-.05,1.3-.65,1.03-1.13.82-.1,1.28-.25,1.21-.4,1.14-1.08.85-.68,1.02.17,1.39-.96.9-.39.85-.98-.09-1.23-.13-1.22-.37-1.26.49-1.23.02-1.21-.05-.28-1.18.4-1.2-.32-1.2.18-1.2v-1.2s-.23-1.2-.23-1.2l-.08-1.2.69-1.2.11-1.2-.82-1.21.46-1.2.04-1.2v-1.2s-.4-1.21-.4-1.21l.48-1.2.05-1.2.17-1.2-.8-1.21.66-1.2-.49-1.21.24-1.2.32-1.2-.6-1.21.69-1.2.17-1.2-.08-1.2-.24-1.21.18-1.2-.18-1.2-.49-1.21.76-1.2-.03-1.2-.62-1.21.67-1.2-.41-1.21-.02-1.2.37-1.2-.61-1.21.56-1.2.19-1.2-.21-1.2.28-1.2-.88-1.21.45-1.2.05-1.2-.29-1.2-.17-1.2.1-1.2.33-1.2.23-1.2-.2-1.2-.46-1.2-.04-1.2.1-1.2.17-1.2-.1-1.18.52-1.17.32-1.17-.58-1.19-.14-1.18.13-1.17.03-1.17-.14-1.18.77-1.17-.31-1.18-.3-1.17.31-1.18-.68-1.15.8-1.22v-1.19s-.73-1.11-.73-1.11l-.23-1.15.68-1.21-.37-1.14-.64-1.11.66-1.13-.62-1.19-1.38.19-.26,1.2-.19,1.05-.55.97v1.09s-.66,1.11-.66,1.11l.53,1.29-.86,1.09-.09,1.2-.25,1.18-.04,1.2.48,1.26-.48,1.15.23,1.23-.8,1.12.47,1.25-.55,1.15.16,1.22-.34,1.17.26,1.22-.71,1.15.7,1.25-.41,1.17-.46,1.17.13,1.21.25,1.21-.23,1.19-.18,1.19.32,1.21-.26,1.19-.38,1.18-.15,1.19.03,1.2.11,1.2.45,1.21-.39,1.19-.12,1.19.21,1.2-.28,1.19.34,1.2.17,1.2-.32,1.19.29,1.2-.17,1.2-.19,1.2.05,1.2-.51,1.2.43,1.19-.31,1.2.56,1.19-.24,1.2.22,1.19-.58,1.2.91,1.19v1.2s-.45,1.2-.45,1.2l.38,1.19-.49,1.2.23,1.19.41,1.19-.21,1.2-.61,1.21.56,1.19.15,1.19-.16,1.2.35,1.19-.57,1.2.62,1.19-.32,1.2-.37,1.2-.17,1.2.35,1.19.09,1.2.38,1.19-.54,1.2.06,1.2-.12,1.2.54,1.2-.31,1.19M121.74,140.75l-1.15-.07h-1.17s-1.07-.55-1.07-.55l-1.02-.63-1.1-.24-1.32.22-.84-.93-1.07-.43-1.24-.34-.92-.83-.46-1.32-1.41-.27-.76-.97-.89-.85-.5-1.15-.63-1.04-.63-1.04-.29-1.2-.31-1.16-.56-1.06-.44-1.11-.9-1.01.41-1.33-.83-1.09.1-1.24-.27-1.2.74-1.21-.22-1.2-.06-1.21.24-1.18-.14-1.26.16-1.22.5-1.13.61-1.07.71-1,.53-1.07.55-1.06.07-1.39.95-.83,1.18-.59.27-1.39.85-.9,1.02-.7,1.24-.36,1.19-.35.86-.89,1.01-.66,1.2-.24.92-1.06,1.31.17,1.26.17,1.12-.51,1.12-.4,1.17.18,1.15-.03,1.12.39,1.23-.6,1.11.44,1.23-.14,1.21.36,1.01,1.01,1.23.21,1.32.08.83,1.16,1.12.49,1.37.23.64,1.16.91.82,1.12.66.68,1.05.34,1.25,1.08.8-.04,1.38.55,1.08.35,1.16.64,1.09.47,1.17.32,1.22-.61,1.29.14,1.21.62,1.24-.69,1.19.34,1.28-.83,1.11.51,1.36-.46,1.11-.17,1.19-.51,1.09-.56,1.06-.44,1.1-.52,1.07-.92.84-.61,1-.31,1.21-.62,1.03-.83.86-.7.98-.95.75-1.27.35-.77.91-.88.79-1.22.27-.72,1.11-1.18.27-1.19.18-1.03.16-1.15-.02-1.13.24-1.13.39-1.14.22-1.14.11-.38-.31.36.09Z"/>
        <g>
          <path class="cls-2" d="M199.79,109.93c.13-.57-.29-.66-.75-.63v.95c.26-.1.71-.16.75-.32Z"/>
          <path class="cls-2" d="M152.24,189.68c-.1,0-.32.23-.3.3.06.22.21.59.34.6.41.02.84-.09,1.25-.15,0-.2-.02-.4-.03-.6-.42-.06-.84-.13-1.26-.15Z"/>
          <path class="cls-2" d="M162.17,73.38c-.65-.02-.97.29-.95.95.65.02.97-.29.95-.95Z"/>
          <path class="cls-2" d="M108.28,164.61c-.21-.11-.41-.23-.61-.34-.13.13-.23.23-.34.34.21.1.41.25.63.3.08.02.21-.19.31-.3Z"/>
          <path class="cls-1" d="M146.26,69.34v-.07c-.23-.21-.5-.45-.86-.78-.09.69-.17,1.23-.24,1.74.2.05.39.11.57.16l.53-1.06Z"/>
          <path class="cls-1" d="M125.85,183.09c-.34.29-.66.56-1.01.86-.31-.28-.64-.59-.96-.88-.11.1-.23.21-.34.31l.07.41-.35,1.24.28,1.17-.21,1.22.14.36h.83c-.02-.09-.04-.18-.07-.26.04.03.07.06.11.09.02-.74.62-.72,1.21-.8.25-.03.46-.34.68-.52-.16-1.04.38-2.17-.4-3.21Z"/>
          <path class="cls-1" d="M47.77,154.24c-.2-.12-.41-.22-.62-.33l-.37.18-.98.59c.66,0,1.32.01,1.98.01,0-.16.06-.41,0-.45Z"/>
          <path class="cls-1" d="M64.94,120.67c-.59-.06-1.19-.02-1.56-.02-.45.45-.67.67-.88.88-.57-.18-.71-1.03-1.48-.89-.79.15-.94-.72-1.68-1-1.16.38-2.6-.35-3.81.26-.54,1.12.19,1.58.72,2.12q.05,1.27.65,2.23c.31-.24.61-.47.92-.71.37.4.68.73.97,1.05l.54.23.86-.23v-1.97c1.22-.06,2.27-.1,2.86-.13,1.16-.6,1.92-.99,2.69-1.4-.28-.16-.53-.4-.79-.43Z"/>
          <path class="cls-1" d="M157,189.8l-.91-.91-.1-.16c-.75.04-1.49.08-2.18-.23-.17-.66-.31-1.17-.53-2.01-.45.99-.73,1.63-1,2.23h-1.45c-.11.27-.15.67-.35.78-.01,0-.03,0-.04.02l.36.95.91.89v.19c.28.02.55.09.81.3.19.55.37,1.1.55,1.61h1.49c-.02-.09-.04-.18-.07-.26.04.04.08.07.12.1.04-.82-.19-1.68.35-2.67h2.27l-.24-.81ZM152.28,190.58c-.13,0-.27-.37-.34-.6-.02-.07.2-.3.3-.3.42.02.84.09,1.26.15,0,.2.02.4.03.6-.42.06-.84.17-1.25.15Z"/>
          <path class="cls-1" d="M92.72,161.48l.64-1.03.02-.02c-.15-.08-.29-.15-.42-.23-.49.43-.83.73-1.18,1.04-.71-1.01-2.24-.75-2.94-1.83-.61.14-1.31-.19-2,.25v.04s-.14.06-.14.06c-.08.06-.16.13-.24.22.59.19,1.08.36,2.21.73.16.25.67,1.04,1.05,1.64h1.64l.18-.27,1.17-.59Z"/>
          <path class="cls-1" d="M107.34,183.57c0,.07,0,.11,0,.17l.42-.78.22-1.2.03-.41s-.08-.08-.12-.11c-.55-.12-.97-.22-1.29-.29-.32-.63.02-1.38-.93-1.66-.14.88-.27,1.75-.4,2.58-.63.22-1.18.4-1.76.6,1.06,1.41,2.86-.3,3.83,1.1Z"/>
          <path class="cls-1" d="M140.37,81.03l.89-.88-.05-1.37,1.1-.78v-.57c-.09-.1-.17-.2-.26-.3-.64.56-1.43,1.24-2.06,1.78-.88.35-1.74-.21-2.36.59.3.33.6.66.92,1v1.84c-.31.34-.62.67-1.01,1.09.45.15.84.27,1.3.42l.42-.31c.13-.15.25-.29.38-.44l.28-.97.45-1.11Z"/>
          <path class="cls-1" d="M186.99,114.02l1.01.12c.86-1.08.84-1.33.07-2.1h-2.94c-.24-.7-.43-1.24-.71-2.08-.28.81-.37,1.4-.67,1.84-.34.5-.92.83-.72,1.75.59.3,1.22.61,1.85.93l.91-.6,1.2.14Z"/>
          <path class="cls-1" d="M48.4,156.77c.18.09.22.46.31.72.09-.02.18-.04.28-.07-.03.04-.06.07-.09.11h1.29c.29-.63.6-1.28.96-2.05.93.46,1.96-.15,2.86.33l.06-.02,1.15-.34.99-.73,1.26-.1h0c-1.91-.01-3.75-.01-4.97-.01-1.15-.54-1.68-.79-2.16-1.02-.48.45-.82.77-1.16,1.09h-1.4c-.28.49-.57.99-.89,1.55.46.15,1.02.27,1.51.53Z"/>
          <path class="cls-1" d="M198.18,113.98s-.03.02-.05.02h.08s-.02-.02-.03-.02Z"/>
          <path class="cls-1" d="M193.04,113.81l1.09.38,1.02-.39c-.11-.25-.22-.48-.32-.71h-1.21c-.21.26-.39.49-.57.72Z"/>
          <path class="cls-1" d="M70.08,121.62c-.35.3-.67.58-1,.86-.44-.33-.89-.67-1.34-1.01-.77.4-1.38.89-2.06,1.03-.9.18-1.29,1.4-2.38,1.05-.07.22-.13.43-.22.72.23.03.45.05.67.08l.31-.12,1.19-.05,1.21.28,1.17-.49,1.12-.29.2-.2h2.45c.05-.96-.95-1.15-1.33-1.87Z"/>
          <path class="cls-1" d="M74.17,175.53l-.63.61-.75.88-.69.94-.04,1.31h.75c.35.33.69.64,1.08,1.01.4-.11.82-.22,1.37-.37-.72-.78-1.33-1.43-2.2-2.37.74-.48,1.5-.96,2.74-1.76-.83-.12-1.28-.21-1.63-.25Z"/>
          <path class="cls-1" d="M64.44,64.99h-3.08c-.09.11-.14.2-.2.29l.38.33,1.38.41.61,1.19.81.5c-.15-.16-.3-.32-.43-.46-.37-.98.5-1.36.81-1.99.02-.05-.2-.21-.27-.28Z"/>
          <path class="cls-1" d="M131.33,225.48c-.45.5-.9.99-1.59,1.76,1.23.18,2.1.31,2.66.39.08.08.15.15.21.22l.07-.47-.25-1s-.07.06-.11.09c-.3-.3-.52-.52-.99-.99Z"/>
          <path class="cls-1" d="M132.54,229.19c-.23.27-.47.53-.43.86.03,0,.16-.02.35-.08l.1-.22-.02-.56Z"/>
          <path class="cls-1" d="M141.93,74.33c.3-.02.6-.03.9-.05.46-.9.92-1.79,1.36-2.69.06-.13,0-.31,0-.46-.51-.92-1.68-1.33-1.91-2.47h-1.37c.13.13.26.27.39.4-.7.35-1.4.69-1.79.88-.16,1.57.63,1.57,1.42,1.61.12,0,.22.2.33.31.4.77-.44,1.88.66,2.47Z"/>
          <path class="cls-1" d="M151.41,186.83h-2.36l.09.39.91.89.15.61h.61c-.39-.79,1.24-.88.58-1.89Z"/>
          <path class="cls-1" d="M108.98,166.03c.45-.56.81-1.01,1.16-1.45-.44-.44-.88-.88-1.32-1.32-.41-.05-.84-.03-1.26-.07l-.34.69v1.26s-.97.89-.97.89c.99.01,1.96,0,2.73,0ZM107.67,164.28c.2.11.4.22.61.34-.11.1-.23.31-.31.3-.22-.05-.42-.19-.63-.3.1-.11.21-.21.34-.34Z"/>
          <path class="cls-1" d="M185.39,80.97l-.53.3c.03.49.05.86.06,1.17.23.2.35.38.46.38,1.54.02,3.08.01,4.62.01.45-.52,1.16-.82,1.3-1.59-1.39-.82-3.02.23-4.39-.58-.09-.28-.18-.56-.26-.79l-.29.34-.99.76Z"/>
          <path class="cls-1" d="M153.58,88c-.37-.36-.91-.87-1.5-1.45-.38.11-.79.23-1.21.35v2.03c.23.26.53.6.84.95-.59,1.09-1.71,1.47-3.82,2.4.3,0,.59,0,.86,0,.14-.03.3-.06.46-.11-.03.04-.06.07-.09.11.4,0,.79,0,1.13,0l.39-.17.78-.93.99-.71.55-.71c.04-.06.08-.11.12-.16l.08-.1.51-.88c.03-.18.02-.39-.06-.64Z"/>
          <path class="cls-1" d="M46.9,118.72l-.08-.03-1.2.12-1.18.52-.72.17c-.25.32-.43.54-.61.76.94,0,1.78.84,2.59.1.44-.49-.18-1.69,1.13-1.59h0s.05-.04.07-.05Z"/>
          <path class="cls-1" d="M199.04,109.31c.46-.03.88.06.75.63-.04.16-.49.22-.75.32.11.57-.28,1.24.19,1.63.85-.75,1.68-1.49,2.51-2.21-.23-.28-.49-.6-.87-1.06.59-.13,1.02-.22,1.39-.3.39.37.72.68,1.05.99.44-.44.87-.87,1.3-1.3-.1-.17-.2-.34-.29-.51l-.55-.14-1.17.34-1.18-.21-1.17.45h-.27c-.42.38-.96.67-.93,1.38Z"/>
          <path class="cls-1" d="M164.35,72.3c1.18.14,2.37.4,3.48-.27v-1.05c-.61-.28-1.25-.57-1.99-.91.74-.34,1.39-.63,2.08-.95-.11-.48-.21-.9-.34-1.48-.46.38-.78.65-1.1.91-.35-.25-.65-.41-.92-.51l-.05.03-.7.98s.08.1.12.15c-.31.31-.53.53-.79.79l-.02.02c.26.31.53.63.79.94.08.54-1.1.54-.56,1.34Z"/>
          <path class="cls-1" d="M88.99,40.28l-.68-.73-.37-1.04c-.19.1-.36.27-.51.57.1.34.23.75.4,1.33.39-.14.77-.15,1.16-.13Z"/>
          <path class="cls-1" d="M169.83,158.4l-1-.45s-.04.02-.05.03c.54.54.98.98,1.42,1.42.36.32.65.28.92.1l-.48-.18-.8-.93Z"/>
          <path class="cls-1" d="M115.36,37.37h1.93c1.51-.63,1.18-2.46,2.31-3.29.15-.11.02-.59.02-.99-.37-.14-.77-.29-1.44-.55-.44.52-.9,1.08-1.35,1.61.3.35.58.67.86,1-.68.43-.92,1.34-1.98,1.36-.1-.06-.22-.13-.33-.2l-.04.33.02.73Z"/>
          <path class="cls-1" d="M43.05,124.79v.26l.74.1h.37c-.14-.56-.25-.97-.36-1.38-.54-.2-1.09-.39-1.56-.56-.25-.58.12-1.32-.71-1.5-.6.83-.49,1.68-.08,2.55.55.18,1.09.37,1.61.54Z"/>
          <path class="cls-1" d="M77.18,123.56l.14.02c-.6-.26-1.22-.5-1.63-1.03h-2.67c-.59.34-1.09.64-1.6.93v.66l.98-.76,1.2.52c.1-.2.2-.41.3-.63.33.17.64.33.97.49l1.13-.06,1.19-.15Z"/>
          <path class="cls-1" d="M180.41,109.39q-.1-.02,0,0h0Z"/>
          <path class="cls-1" d="M181.04,114.17l.84.2c-.33-.35-.55-.58-.7-.74-.14-.57-.24-.99-.32-1.32-.63-.28-1.35.03-1.73-1.13.58-.35,1.33-.81,2.54-1.55-.68-.13-1.1-.21-1.26-.25.01,0,.01,0,.03,0-1.14.61-1.82.97-2.19,1.17v2c.67.7,1.37,1.44,2.03,2.13l.77-.52Z"/>
          <path class="cls-1" d="M115.69,150.64c.19-1.15.35-2.31-.22-3.61-.51.51-1.03.85-1.3,1.33-.45.83-1.51.35-1.91.97-.18.27-.51.36-.77.5l-.1.28-.24.34c.54.43.82,1.14,1.58,1.21.2-.56.38-1.1.53-1.52,1.11-.83,1.49.74,2.42.5Z"/>
          <path class="cls-1" d="M123.04,167.92h-1.62l-.07.56.35,1.16.08,1.01c.62-.47,1.21-.91,1.79-1.35-.23-.6-.38-1-.53-1.38Z"/>
          <path class="cls-1" d="M192.99,142.47c-.29.24-.56.55-.89.71-.5.24-1.06.38-1.7.6.12.22.15.45.15.68l1.2-.33.99.89.94.05c-.1-.1-.2-.21-.3-.31-.15-.71.29-1.51-.38-2.28Z"/>
          <path class="cls-1" d="M142.32,61.4l-.25,1.21-.17,1.25-.86.94-.02.05c.69-.05,1.42.25,2.15-.33-.27-.42-.56-.86-.85-1.3-.11-.62.09-1.29.08-1.89l-.08.06Z"/>
          <path class="cls-1" d="M164.8,78.32l.46-.49.53-1.16.24-.08c-.16-.49-.3-.93-.46-1.42-.58.81-1.69,1.09-1.45,2.67.16.11.4.28.68.48Z"/>
          <path class="cls-1" d="M220.99,108.9c-1.32-.87-2.41-.42-3.34-.53-.9.54-1.73,1.04-2.63,1.58.15.44.3.84.46,1.3.41-.38.73-.69,1.06-1h2.41c.79-.52,1.37-.91,2.04-1.35Z"/>
          <path class="cls-1" d="M101.89,129.16c-1.01.18-2.14-.47-3.08.49.59.69,1.39.37,2.09.46.82.12,1.21,1.47,2.27.83.4-.78.8-1.55,1.21-2.34-1.32-1.05-1.68.41-2.49.55Z"/>
          <path class="cls-1" d="M234.97,110.15v.1s0,0,0,0c0,0,0,0,0,0v.37l.59.14h.47c-.34-.19-.69-.39-1.06-.61Z"/>
          <path class="cls-1" d="M112.34,165.48l.63-1.07.13-.24c-.31.05-.59.1-.82.14-.23.68-.41,1.22-.57,1.72-.92,0-1.7,0-2.48,0,.11.27.17.72.34.77.72.18,1.48.19,2.2.38.14.04.28.14.45.28l.28-.67-.15-1.3Z"/>
          <path class="cls-1" d="M51.34,118.7l-.19-.03c-.86,1.06-.84,1.99.07,3.12.95-.48,1.92-1.1,2.99-1.46.03-.01,0-.2,0-.32-.99-.45-1.95-.89-2.88-1.32Z"/>
          <path class="cls-1" d="M48.01,121.52c.95-.32,1.59-.93,1.67-2.26-.18-.12-.38-.26-.59-.4l-1.06.27-1.14-.4s-.05.03-.07.04h0v1.2c.36.62.64,1.11.92,1.6.09-.02.19-.04.29-.07,0,.01-.02.02-.02.03Z"/>
          <path class="cls-1" d="M70.11,70.66c-.98-.07-1.99-.31-3.15.19l1.06.59.05.04c.58.11,1.17.22,1.87.35-.36.16-.67.3-.95.43l1.2.3.12.36c.05-.02.1-.04.16-.06-.17-.72.33-1.53-.35-2.21Z"/>
          <path class="cls-1" d="M120.14,58.25c-.72,0-1.32,0-1.93,0-.39.55-1.15.82-1.24,1.6.8.32,1.68.45,1.97.84.61-.32,1.28-.68,1.91-1.01-.37-.74-.55-1.11-.71-1.43Z"/>
          <path class="cls-1" d="M78.96,176.43c-.57-.11-1.22.27-1.76-.35-.16-.16-.38-.38-.66-.66-.17.43-.33.82-.46,1.16.53.81.96,1.58,2.19,1.77l.36-1.09,1.11-.58.14-.27c-.31,0-.62.07-.92.02Z"/>
          <path class="cls-1" d="M144.93,130.17c.12-.64.2-1.06.29-1.57-.58-.19-1.17-.28-1.63-.57-.49-.31-.8-.91-2-.65-.05.07-.12.17-.21.29l-.24.59-.38.77s0,0,0,0c1.03.09,2.07.15,2.96.21.42.33.72.57,1.19.94Z"/>
          <path class="cls-1" d="M191.49,79.59c.32.23.43.39.55.4,1.23.02,2.46.01,3.69.01.67-.64.69-1.27-.17-2.02-.82.39-1.71.81-2.51,1.2-.48-.44-.8-.74-1.34-1.24-.09.72-.16,1.25-.21,1.66Z"/>
          <path class="cls-1" d="M103.55,84.55c0-.41-.03-.82.02-1.22.06-.49,1.21-.52.61-1.33h-2.18c-.05.05-.09.09-.13.14l.06.05.22,1.23.2,1.23.04.08h1.12c-.02-.09-.04-.18-.07-.26.04.03.07.06.1.09Z"/>
          <path class="cls-1" d="M79.52,141.45c-.48.39-.92.75-1.41,1.15.02.06.12.32.23.58q2.98.19,3.53-.36c-.11-.41-.25-.92-.38-1.36h-1.97Z"/>
          <path class="cls-1" d="M40.66,93.36c.52-1.03.91-1.8,1.32-2.62-.34-.34-.79-.79-1.23-1.23-.59.63-1.65.94-1.48,2.1.45.57.9,1.14,1.39,1.76Z"/>
          <path class="cls-1" d="M176.66,133.33l-1.01-.47c-.36.13-.74.25-1.11.43v1.84c1.1-.56,1.92.05,2.57-.58.03-.37.06-.65.08-.9l-.54-.33Z"/>
          <path class="cls-1" d="M161.64,77.18c.84-.8,1.68-1.53,2.37-2.48-.7-.38-.89-1.36-1.84-1.32.02.65-.29.97-.95.95.11.89-.27,1.83.42,2.85Z"/>
          <path class="cls-1" d="M192.99,113.17c.42-.5.87-1.03,1.39-1.64-.33-.63.32-1.49-.41-2.11-.83.06-1.79-.65-2.44.45.6.29,1.19.58,1.83.88-.8.74-1.48,1.41-.36,2.43Z"/>
          <path class="cls-1" d="M38.32,122.54c0-.77,0-1.54,0-2.43-.29-.09-.47-.35-.67-.61l-.43.13-.84-.35c-.3.32-.61.64-.97,1.02,1.2.54,1.55,2,2.91,2.23Z"/>
          <path class="cls-1" d="M94.24,63.32c0,.07,0,.14-.01.21l.39.64.36,1.17.14.48c.04-.23.08-.46.11-.69.59-.21,1.14-.4,2.02-.71-.83-.28-1.35-.48-1.87-.63-.4-.11-.24-1.57-1.13-.48Z"/>
          <path class="cls-1" d="M162.17,73.38v-.9c-.09.02-.17.04-.26.07.05-.06.1-.12.15-.17-.01,0-.03-.02-.04-.02l-.47.34-.69,1.02-.93.61h1.3c-.02-.65.29-.97.95-.95Z"/>
          <path class="cls-1" d="M105.03,73.87l-.7-.61c.28.32.57.65.87.99l-.18-.38Z"/>
          <path class="cls-1" d="M104.03,71.49c-.32.03-.78.07-1.18.1.4.45.78.89,1.17,1.33l.17-1.3-.16-.13Z"/>
          <path class="cls-1" d="M214.13,149.42s.02.09.03.13l.24-.24c-.08.04-.17.08-.27.12Z"/>
          <path class="cls-1" d="M204.79,148.01c.06-.01.13-.03.19-.05-.03.03-.05.06-.07.09h.03c1.18-.07,2.43.31,3.67-.39-.92-.53-1.63-1-2.39-1.36-.56-.27-1.14-.2-1.51.43v1.27l.07.02Z"/>
          <path class="cls-1" d="M196.12,107.99v-.26l-.67-.07-1.18.58-.65.11c.01.07.03.14.04.22.89-.47,1.72.17,2.46-.57Z"/>
          <path class="cls-1" d="M188.46,108.34l-.21-.04-.19.05s.02.05.03.08c.12-.05.24-.07.36-.09Z"/>
          <path class="cls-1" d="M191.24,108.06l-.6-.28-.95.6c.5.03,1.02,0,1.55-.32Z"/>
          <path class="cls-1" d="M127.97,207.8c-.41-.06-.84-.19-1.25-.15-.41.04-.84-.06-1.28-.03l-.06.17.17,1.21.12.36c.79-.32,1.46-.91,2.31-1.11.02,0,0-.2,0-.45Z"/>
          <path class="cls-1" d="M103.54,190.16c-.54-.79-1.37-.5-2.07-.46-.66.04-.83-1.47-1.7-.5v.95c1.84.55,1.84.57,3.77.02Z"/>
          <path class="cls-1" d="M157.96,196.32c.29-.66.58-1.3.84-1.89.09-.03.18-.03.27-.03l-.06-.2-.68-.75c-.55-.07-.86.28-.86.73,0,.72-.31,1.54.49,2.14Z"/>
          <path class="cls-1" d="M106.92,134.84c.26-.41.38-.84.42-1.29l-.02-.02-.5-1.15-.63-1.04-.13-.21c-.2.04-.39.08-.6.12.37.59.75,1.01.9,1.5.2.67-.27,1.52.55,2.09Z"/>
          <path class="cls-1" d="M115.37,62.04s-.03.03-.05.05l.68.89v.8c.21-.5.41-1.02.64-1.58-.47-.06-.9-.11-1.27-.16Z"/>
          <path class="cls-1" d="M180.13,56.37v-1.31l-.84.18c.11.54.34,1.12.84,1.76v-.2c-.01-.15-.02-.3-.03-.45.01,0,.02,0,.03.01Z"/>
          <path class="cls-1" d="M109.12,139.38c-.47-.97-.88-1.82-1.31-2.71-.43.08-.85.16-1.31.24.47.97.88,1.82,1.31,2.71.43-.08.85-.16,1.31-.24Z"/>
          <path class="cls-1" d="M149.93,144.71c-.34-.29-.68-.58-1.01-.86.34-.37.64-.69.93-1.01-.68-.64-1.3-.68-1.87.09v1.83c.63.68,1.26.68,1.94-.05Z"/>
          <path class="cls-1" d="M153.42,44s.03,0,0,0h0Z"/>
          <path class="cls-1" d="M155.15,41.17c-.81.81-1.56,1.55-2.29,2.31-.04.04.03.2.08.43.21.04.42.07.49.09-.03,0-.09-.02-.21-.04,1.23-.63,1.91-.98,2.54-1.3-.28-.68-.43-1.07-.61-1.49Z"/>
          <path class="cls-1" d="M62.53,62.09c.05-.15.11-.3.16-.45h-.16s-.63-1.16-.63-1.16l-1.2-.31-.09-.1c-.29.28-.6.59-1.02,1.01,0,0,0,0,0,0,.94,0,1.41,0,1.87,0,.33.31.66.62,1.07,1Z"/>
          <path class="cls-1" d="M127.52,176.31l-.08-.26.17-.66c-.37-.27-.75-.55-1.17-.86h-1.1c.02.09.04.17.07.26-.05-.04-.09-.07-.13-.11.04.52.08,1.03.11,1.48.76.23,1.42.4,2.13.14Z"/>
          <path class="cls-1" d="M80.67,105.8c-.32.19-.64.38-.95.56l.21.09,1.03.71.22.18c.22-.07.43-.16.6-.36-.55-.58-.96-1.02-1.1-1.17Z"/>
          <path class="cls-1" d="M138.43,96.75s.06.05.09.08c-.12-.77-.94-1.02-1.31-1.61-.79.15-1.78-.71-2.38.51,1.3.23,2.18,1.61,3.67,1.3-.02-.09-.04-.18-.07-.27Z"/>
          <path class="cls-1" d="M143.47,75.6c-.38.26-.74.55-.95.92l1.01-.55-.06-.37Z"/>
          <path class="cls-1" d="M103.11,118.76c-.33-.31-.66-.62-.99-.93-.65.65-.69,1.28.06,1.88.14-.02.29-.02.43-.02l.56-.91s-.05,0-.07-.02Z"/>
          <path class="cls-1" d="M95.86,199.1l.22,1.25-.44,1.07-.13.53s.02.02.03.03c.41-.85.83-1.7,1.24-2.56-.31-.25-.62-.35-.92-.31Z"/>
          <path class="cls-1" d="M128.4,186.64c.12-.05.24-.1.36-.14l.35-.95.06-.6h-1c.02.09.04.18.07.26-.03-.03-.06-.05-.09-.08.02.52-.23,1.09.25,1.51Z"/>
          <path class="cls-1" d="M143.73,124.46c.79-.97.78-1.9,0-2.9-.19.22-.38.44-.59.68l.17.47-.37.89c.27.3.53.58.79.86Z"/>
          <path class="cls-1" d="M97.88,70.09c.84.41,1.69.83,2.65,1.3.09-.46.17-.88.27-1.41-.45-.13-.85-.32-1.26-.35-.58-.04-1.22-.17-1.65.47Z"/>
          <path class="cls-1" d="M39.05,124.7l1.06.06c.03-.29.05-.59.08-.85-.7-.44-.94-1.38-1.87-1.37,0,.47,0,.94,0,1.41.28.19.48.49.73.75Z"/>
          <path class="cls-1" d="M88.28,117.5c-.07-.13-.14-.31-.2-.45l-.33-.04-1.19.2-.74.4c.03.13.05.25.08.39.88-.46,1.7.16,2.38-.51Z"/>
          <path class="cls-1" d="M173.01,115.15c-.12.02-.24.04-.35.07l.13.04.23-.1Z"/>
          <polygon class="cls-1" points="174.24 114.92 174.23 114.92 174.24 114.93 174.24 114.92"/>
          <path class="cls-1" d="M115.93,75.24l-.12.91.25.85c.08.12.16.24.23.35.68-.26,1.07-.41,1.24-.48-.4-.6-.81-1.22-1.19-1.79-.15.06-.29.11-.41.16Z"/>
          <path class="cls-1" d="M195.93,74.8l-.38.37c.07.08.14.16.21.24.07-.24.13-.43.17-.61Z"/>
          <path class="cls-1" d="M59.52,61.01c-.15.38-.28.74-.48,1.24l.36.16.21.76c.3.29.61.58.95.91.43-1.43.43-1.47-.96-2.99,0,0,0,0,0,0-.02-.03-.04-.04-.06-.07Z"/>
          <path class="cls-1" d="M95.05,61.09v1.89c.58-.12,1.24.28,1.9-.51-.07-.37-.18-.9-.28-1.38h-1.62Z"/>
          <path class="cls-1" d="M164.83,133.74c.08-.43.15-.84.23-1.23-.6-.42-.87-1.18-1.77-1.31-.08.43-.15.84-.23,1.23.6.42.87,1.18,1.77,1.31Z"/>
          <path class="cls-1" d="M49.57,124.43h-.81c.02.09.04.17.07.26-.05-.04-.09-.07-.13-.11.01.17.03.34.04.52l.83-.67Z"/>
          <path class="cls-1" d="M63.99,100.05c-.04.45-.08.88-.12,1.27.31.19.52.47.75.74l.47-.04.65-.03c0-.24,0-.47,0-.71-.56-.39-.81-1.19-1.75-1.23Z"/>
          <path class="cls-1" d="M176.34,87.13c-.58-.32-1.14-.64-1.72-.96l-.12.09-.78,1c.07.1.16.21.28.31.72-.15,1.52.29,2.35-.44Z"/>
          <path class="cls-1" d="M109.56,84.97l-.54-.39c-.18.27-.36.54-.53.8.14.05.45.17.95.36l.13-.78Z"/>
          <path class="cls-1" d="M189.59,78.1l-.12.06-.76.8c.31-.07.61-.13.88-.18v-.68Z"/>
          <path class="cls-1" d="M201.93,78.49c-.08-.37-.16-.79-.28-1.4-.66.14-1.18.25-1.66.35v1.15c.14.15.28.26.42.34l.51-.18,1.01-.25Z"/>
          <path class="cls-1" d="M95.49,111.39c.68-.26,1.07-.41,1.24-.48-.4-.6-.81-1.22-1.19-1.79-.68.26-1.07.41-1.24.48.4.6.81,1.22,1.19,1.79Z"/>
          <path class="cls-1" d="M94.22,107.06c-.68-.68-1.11-1.11-1.54-1.54-.79.93-.76,1.86-.14,2.68.55-.38,1.12-.76,1.68-1.14Z"/>
          <path class="cls-1" d="M157.42,84.3c-.43-.54-.85-1.07-1.87-2.35v3.72c.93,0,1.16-.94,1.87-1.37Z"/>
          <path class="cls-1" d="M122.24,165.03c-.45.09-.85.16-1.24.23l.05.86.31.78h1.24c-.16-.83-.24-1.25-.36-1.87Z"/>
          <path class="cls-1" d="M167.31,155.76l-.25-.08c-.41.08-.8.15-1.2.23.12.63.2,1.06.29,1.54h1.83c-.02-.09-.03-.16-.05-.24l-.16-.14-.47-1.29Z"/>
          <path class="cls-1" d="M195.39,141.51c.44.29.9.54,1.36.81.27-.42.85-.66,1.05-1.17l-.33-.27-.44-.35c-.64-.12-1.24-.14-1.77.46,0,.14-.05.35,0,.43.09-.02.18-.04.27-.07-.05.06-.09.11-.14.16Z"/>
          <path class="cls-1" d="M147.86,140.92q-3.69-.45-4.49.32c1.23.32,2.39.38,4.49-.32Z"/>
          <path class="cls-1" d="M121.47,140.73l-.7-.04c-.31.46-.63.94-.94,1.42.17.07.56.22,1.24.48.35-.53.73-1.09,1.1-1.65l-.41.04-.29-.24Z"/>
          <polygon class="cls-1" points="121.38 140.66 121.47 140.73 121.74 140.75 121.38 140.66"/>
          <path class="cls-1" d="M181.94,135.58v-.07h-1l-.69-.47c.05.28.1.55.16.83.63-.12,1.06-.2,1.54-.29Z"/>
          <path class="cls-1" d="M91.15,53.73c.13.7.21,1.13.3,1.58.96-.47,1.81-.88,2.66-1.3-.76-.86-1.66-.44-2.96-.28Z"/>
          <path class="cls-1" d="M138.37,152.46l-.14-.15.07-1.15c-.07-.09-.15-.18-.25-.27-.72.15-1.51-.29-2.18.29-.09.61.32.56.74.68.54.16,1.01.53,1.55.83.08-.08.15-.16.21-.24Z"/>
          <path class="cls-1" d="M98.65,151.72c.08-.43.16-.84.24-1.23-.59-.46-.88-1.18-1.76-1.35-.08.43-.16.84-.24,1.23.59.46.88,1.18,1.76,1.35Z"/>
          <path class="cls-1" d="M203.54,145.58c-.58.34-1.23.71-1.84,1.06.1.26.18.46.24.63l.76.11c.41-.24.84-.48,1.25-.72-.26-.66-.41-1.05-.42-1.08Z"/>
          <path class="cls-1" d="M199.04,146.18c-.42-.79-.98-1.16-1.47-.88-.19.11-.33.28-.47.45l.25.04,1,.61c.18-.16.38-.27.69-.22Z"/>
          <path class="cls-1" d="M105.06,146.26c-.36-.36-.64-.64-.81-.81-.59.36-1.18.71-1.86,1.12.72.44,1.3.58,1.84.54l.71-.5.12-.35Z"/>
          <path class="cls-1" d="M97.8,145.46l-.54.63c.18-.03.36-.07.54-.1v-.53Z"/>
          <path class="cls-1" d="M161.95,151.59l-.26-.48-1.22-.45-.16-.45c-.23.05-.49.1-.8.16,1.43.31,1.52,1.31,2.38,1.32.03-.03.05-.07.07-.1Z"/>
          <path class="cls-1" d="M122.05,31.72h0s-.12-.73-.12-.73c-.41-.08-.86-.16-1.53-.29.19,1.04.27,1.45.42,2.27.46-.48.84-.85,1.23-1.25Z"/>
          <path class="cls-1" d="M89.2,137.53c.08-.43.16-.85.23-1.27-.68-.62-1.31-.7-2.02.07.72.2.83,1.15,1.79,1.2Z"/>
          <path class="cls-1" d="M101.13,199.13c.15-.02.31-.05.47-.07v-.42s.42-.41.42-.41c-.24-.39-.48-.77-.72-1.15-.76.82-.72,1.34-.17,2.05Z"/>
          <path class="cls-1" d="M90.15,134.7c.19,1.04.27,1.45.42,2.27.68-.7,1.17-1.17,1.8-1.85-.65-.12-1.17-.22-2.22-.42Z"/>
          <path class="cls-1" d="M139.5,137.16c.03.37.06.78.09,1.18.5-.57,1.63-.34,1.83-1.11-.62-.61-1.22-.75-1.92-.07Z"/>
          <path class="cls-1" d="M76.7,142.4c.44,0,.88,0,1.33,0-.14-.91-.81-1.37-1.54-1.78-.55.67-.6,1.28.22,1.78Z"/>
          <path class="cls-1" d="M157.83,192.49l-.09-.21c-.03.08-.06.15-.09.23.06,0,.13-.01.19-.02Z"/>
          <path class="cls-1" d="M38.54,158.36c.21-.03.41-.06.57-.09-.02-.03-.04-.06-.06-.1l-.14.05-.37.13Z"/>
          <path class="cls-1" d="M138.53,74.31c-.08-.27-.21-.52-.31-.78-.21.11-.46.19-.64.35-.33.29-.61.62-1.11,1.14.7.11,1.22.19,2.06.32,0-.73.03-.89,0-1.03Z"/>
          <path class="cls-1" d="M72.76,74.28c-.1.02-.2.04-.31.06l.5.46.34.73c.12-.41-.05-.82-.53-1.25Z"/>
          <path class="cls-1" d="M64.67,62.67l-.67-1.11h-.05c-.29.53-.21,1.01.46,1.42.35,0,.7,0,1.05,0l-.8-.31Z"/>
          <path class="cls-1" d="M196.36,109.95c.84.57,1.79.18,2.68.3v-.95c-2.06-.02-2.06,0-2.68.65Z"/>
          <path class="cls-1" d="M180.13,56.37s-.02,0-.03-.01c.01.15.02.3.03.45.03.43.06.88.1,1.44.21-.01.39-.03.58-.04l.03-.03.97-.41c-.44-.74-.89-1.26-1.68-1.39Z"/>
          <path class="cls-1" d="M148.34,64.99c-.11.14-.2.27-.27.41l.29-.33.02-.05s-.03-.02-.04-.03Z"/>
          <path class="cls-1" d="M178.72,166.95c-.42.08-.94.19-2.2.44,1.43.31,1.52,1.31,2.38,1.32.43-.56.46-1.09-.18-1.76Z"/>
          <path class="cls-1" d="M183.14,87.81c-.7-.11-1.22-.19-2.06-.32,0,.73-.03.89,0,1.03.08.27.21.52.31.78.21-.11.46-.19.64-.35.33-.29.61-.62,1.11-1.14Z"/>
          <path class="cls-1" d="M134.62,87.38c-.17-.88-.87-1.18-1.3-1.69-.66.64-.66,1.26.08,1.93.37-.07.79-.15,1.22-.23Z"/>
          <path class="cls-1" d="M133.86,95.53c-.07-.37-.15-.79-.23-1.22-.88.17-1.18.87-1.69,1.3.64.66,1.26.66,1.93-.08Z"/>
          <path class="cls-1" d="M166.82,90.94c.72.2.83,1.15,1.79,1.2.08-.43.16-.85.23-1.27-.68-.62-1.31-.7-2.02.07Z"/>
          <path class="cls-1" d="M76.91,78.11h-.43l.31.8c.17-.13.28-.35.29-.75-.08.02-.17.04-.26.06.03-.04.06-.07.09-.11Z"/>
          <path class="cls-1" d="M82.05,80.87c.75-.22,1.17-.8,1.54-1.46-.67-.55-1.28-.6-1.78.22,0,.43,0,.86,0,1.28.09-.02.17-.04.26-.07,0,.01-.02.02-.03.03Z"/>
          <path class="cls-1" d="M162.92,159.99c.07-.04.14-.07.2-.13.33-.29.61-.62,1.11-1.14-.7-.11-1.22-.19-2.06-.32,0,.66-.03.85,0,.99l.07.1.68.51Z"/>
          <path class="cls-1" d="M153.64,83.36c-.03-.39-.06-.8-.09-1.2-.5.57-1.63.34-1.82,1.09q.78.49,1.92.11Z"/>
          <path class="cls-1" d="M121.94,42.54l.06-.27c-.44-.23-.89-.15-1.45.35.08.42.17.95.29,1.65.43-.51.89-.82,1.18-1.21l-.09-.52Z"/>
          <path class="cls-1" d="M95.31,117.24c-2.33-.41-2.33-.39-2.92.28.84.44,1.68.48,2.92-.28Z"/>
          <path class="cls-1" d="M81.63,170.11c-.84-.44-1.68-.48-2.92.28,2.33.41,2.33.39,2.92-.28Z"/>
          <path class="cls-1" d="M150.48,44.17h0s-.43.9-.43.9c-.16.99-.03,1.13.45,1.7.46-.75.47-1.5-.03-2.6Z"/>
          <path class="cls-1" d="M148.27,121.06c-2.22-.45-2.22-.44-2.97.21.83.51,1.67.47,2.97-.2h0Z"/>
          <path class="cls-1" d="M114.7,152.13c.72.6,1.02,1.27,1.75,1.44l-.03-.7.27-.51c-.08-.16-.19-.33-.36-.52-.42.08-.95.17-1.65.29Z"/>
          <path class="cls-1" d="M125.7,153.86l.07-.61-.09-1.2-.02-.03c-.12.08-.25.17-.39.3.08.42.19.94.33,1.66.03-.04.06-.08.09-.12Z"/>
          <path class="cls-1" d="M117.79,54.95c-.68-.62-1.31-.7-2.02.07.72.2.83,1.15,1.79,1.2.08-.43.16-.85.23-1.27Z"/>
          <path class="cls-1" d="M148.57,48.65c-.76.82-.72,1.34-.17,2.05.43-.07.95-.15,1.32-.2-.41-.65-.77-1.24-1.15-1.85Z"/>
          <path class="cls-1" d="M98.16,154.78c-.25-.04-.5-.07-.75-.08-.1,0-.32.23-.3.3.05.18.15.44.26.55l.71-.56.09-.21Z"/>
          <path class="cls-1" d="M72.09,148.26s-.04-.02-.06-.02c-.21.06-.54.19-.58.32l.33.07.31-.37Z"/>
          <path class="cls-1" d="M139.4,155.24c-.34-.99-1.16-.41-1.77-.55,0,.04.02.08.03.12.48.83.55.82,1.74.43Z"/>
          <path class="cls-1" d="M149.26,148.22l.29.12.14.04c-.08-.11-.16-.22-.28-.32-.06.05-.1.1-.15.16Z"/>
          <path class="cls-1" d="M141.37,160.83c-.63-.68-1.26-.68-1.9,0,.63.68,1.26.68,1.9,0Z"/>
          <path class="cls-1" d="M101.33,150.94c-.2.08-.41.22-.61.44.02.02.03.03.05.05l.37-.14.19-.34Z"/>
          <path class="cls-1" d="M139.01,157.52c-.68.63-.68,1.26,0,1.9.68-.63.68-1.26,0-1.9Z"/>
          <path class="cls-1" d="M211.08,149.3l.11.05c-.37-.33-.73-.44-1.1-.31l.99.26Z"/>
          <path class="cls-1" d="M200.85,146.73c-.35-1.01-1.2-.38-1.81-.55q.56.97,1.81.55Z"/>
          <path class="cls-1" d="M162,157.37c.06-.42.13-.84.15-1.26,0-.1-.23-.32-.3-.3-.22.06-.59.21-.6.34-.02.41.09.84.15,1.25.2,0,.4-.02.6-.03Z"/>
          <path class="cls-1" d="M164.84,157.37c.06-.42.13-.84.15-1.26,0-.1-.23-.32-.3-.3-.22.06-.59.21-.6.34-.02.41.09.84.15,1.25.2,0,.4-.02.6-.03Z"/>
          <path class="cls-1" d="M116.71,50.14c-.41-.14-.68-.22-.89-.25l-.12.82c.41.05.8.03,1.01-.57Z"/>
          <path class="cls-1" d="M93.66,50.8c-.49-.28-.97-.16-1.46.36.55.59,1.1.67,1.65.23h0s-.2-.58-.2-.58Z"/>
          <path class="cls-1" d="M146.72,51.78l.07,1.03-.51.35c.11.09.24.17.43.25.46-.5.45-.98,0-1.63Z"/>
          <path class="cls-1" d="M117.74,46.44c-.63-.68-1.26-.68-1.9,0,.63.68,1.26.68,1.9,0Z"/>
          <path class="cls-1" d="M145.02,59.02c0-.2-.02-.4-.03-.6-.38-.05-.76-.12-1.15-.14l-.12.86s.03.03.04.03c.41.02.84-.09,1.25-.15Z"/>
          <path class="cls-1" d="M223.7,110.02c.59.26,1.11.46,1.86-.26-.83-.59-1.43-.87-1.86.26Z"/>
          <path class="cls-1" d="M234.97,110.25c-.13-.46.2-1.07-.09-1.48l-.58.02c-.29.91-.21.97.66,1.47,0,0,0,0,0,0,0,0,0,0,0,0Z"/>
          <path class="cls-1" d="M95.05,61.09q-.56-.97-1.81-.55c.35,1.01,1.2.38,1.81.55Z"/>
          <path class="cls-1" d="M175.07,61.92c.51-.55.48-1.08-.14-1.85-.61.86-.89,1.46.14,1.85Z"/>
          <path class="cls-1" d="M232.94,110.84c0-.14-.01-.28-.02-.42-.42-.06-.84-.13-1.26-.15-.1,0-.32.23-.3.3.06.22.21.59.34.6.02,0,.03,0,.05,0l.22-.2.97-.12Z"/>
          <path class="cls-1" d="M229.27,110.3c-.08.02-.16.04-.23.06.03-.03.05-.05.07-.08-.58.03-1.3-.38-1.62.53,1.23.41,1.25.41,1.78-.5Z"/>
          <path class="cls-1" d="M143.39,118.78l-.06.1c.49.84.55.83,1.74.44-.33-.94-1.09-.46-1.68-.54Z"/>
          <path class="cls-1" d="M119.29,46.8c.51-.55.48-1.08-.14-1.85-.61.86-.89,1.46.14,1.85Z"/>
          <path class="cls-1" d="M98.32,115.06l.15.7c.12-.08.24-.18.36-.31-.17-.18-.34-.31-.51-.4Z"/>
          <path class="cls-1" d="M97.68,118.12c-.46.19-1.22-.95-1.56.32.54.5,1.07.47,1.56-.32Z"/>
          <path class="cls-1" d="M68.38,100.82c-.58.03-1.3-.38-1.62.53,1.23.41,1.25.41,1.78-.5-.08.02-.16.04-.23.06.03-.03.05-.05.07-.08Z"/>
          <path class="cls-1" d="M158.86,79.04c.1,0,.32-.23.3-.3-.06-.22-.21-.59-.34-.6-.41-.02-.84.09-1.25.15,0,.2.02.4.03.6.42.06.84.13,1.26.15Z"/>
          <path class="cls-1" d="M36.18,91.3c.35-.01.71-.08,1.07-.14,0-.2-.02-.4-.03-.6-.42-.06-.84-.13-1.26-.15-.1,0-.32.23-.3.3.06.19.17.48.29.56l.16-.02.08.04Z"/>
          <path class="cls-1" d="M166.9,95.6c-.63-.68-1.26-.68-1.9,0,.63.68,1.26.68,1.9,0Z"/>
          <path class="cls-1" d="M155.55,85.67c-.61.17-1.46-.46-1.81.55q1.25.41,1.81-.55Z"/>
          <path class="cls-1" d="M178.72,87.55c.1,0,.32-.23.3-.3-.06-.22-.21-.59-.34-.6-.41-.02-.84.09-1.25.15,0,.2.02.4.03.6.42.06.84.13,1.26.15Z"/>
          <path class="cls-1" d="M120.1,84.72c-.68.63-.68,1.26,0,1.9.68-.63.68-1.26,0-1.9Z"/>
          <path class="cls-1" d="M62.43,96.07c-.68.63-.68,1.26,0,1.9.68-.63.68-1.26,0-1.9Z"/>
          <path class="cls-1" d="M69.2,65.04c-.22.06-.59.21-.6.34-.02.41.09.84.15,1.25.2,0,.4-.02.6-.03.06-.42.13-.84.15-1.26,0-.04-.04-.11-.1-.17l-.18-.13s-.02,0-.02,0Z"/>
          <path class="cls-1" d="M142.87,66.84c-1.01.35-.38,1.2-.55,1.81q.97-.56.55-1.81Z"/>
          <path class="cls-1" d="M225.93,107.44c-.14.01-.29.02-.42-.02q.56.97,1.81.55c-.06-.17-.14-.29-.23-.38l-.3.07-.87-.22Z"/>
          <path class="cls-1" d="M147.82,63.77c.06-.42.13-.84.15-1.26,0-.1-.23-.32-.3-.3-.22.06-.59.21-.6.34-.02.41.09.84.15,1.25.2,0,.4-.02.6-.03Z"/>
          <path class="cls-1" d="M97.09,106.45c-.37-.06-.73.1-1.1.49.63.68,1.26.68,1.9,0-.12-.13-.24-.23-.36-.31h-.12s-.32-.18-.32-.18Z"/>
          <path class="cls-1" d="M169.32,64.18l-.38.4c-.07.23.04.54.24,1.16.99-.34.41-1.16.55-1.77-.04,0-.08.02-.12.03-.11.07-.21.13-.3.18Z"/>
          <path class="cls-1" d="M116.46,74.21c.51-.55.48-1.08-.14-1.85-.61.86-.89,1.46.14,1.85Z"/>
          <path class="cls-1" d="M79.9,102.22c0-.1-.23-.32-.3-.3-.22.06-.59.21-.6.34-.02.41.09.84.15,1.25l.6-.03c.06-.42.13-.84.15-1.26Z"/>
          <path class="cls-1" d="M86.42,103.96c-.54-.5-1.07-.47-1.56.32.46-.19,1.22.95,1.56-.32Z"/>
          <path class="cls-1" d="M146.65,138.53l-.54-.97-.03-.02c-.05.36.11.72.49,1.07.03-.03.05-.06.08-.08Z"/>
          <path class="cls-1" d="M173.04,133.87c.1,0,.32-.23.3-.3-.06-.22-.21-.59-.34-.6-.41-.02-.84.09-1.25.15,0,.2.02.4.03.6.42.06.84.13,1.26.15Z"/>
          <path class="cls-1" d="M89.42,133.37s-.03.03-.05.04c.63.68,1.26.68,1.9,0-.09-.1-.18-.18-.28-.25l-.81.08-.76.12Z"/>
          <path class="cls-1" d="M135.37,136.61c.18-.2.27-.4.31-.6l-.87.24c.11.14.28.26.56.36Z"/>
          <path class="cls-1" d="M114.82,141.06c-.35-1.01-1.2-.38-1.81-.55q.56.97,1.81.55Z"/>
          <path class="cls-1" d="M141.37,137.67q.56.97,1.81.55c-.35-1.01-1.2-.38-1.81-.55Z"/>
          <path class="cls-1" d="M126.87,140.03h-.57s-.86.17-.86.17c.49.45.97.44,1.43-.17Z"/>
          <path class="cls-1" d="M113.01,140.51q-.56-.97-1.81-.55c.35,1.01,1.2.38,1.81.55Z"/>
          <path class="cls-1" d="M121.18,21.27c.51-.55.48-1.08-.14-1.85-.61.86-.89,1.46.14,1.85Z"/>
          <path class="cls-1" d="M121.18,27.89c.1-.11.16-.21.21-.31l.06-.67v-.09c-.06-.23-.18-.48-.41-.77-.61.86-.89,1.46.14,1.85Z"/>
          <path class="cls-1" d="M31.59,122.88c-.55-.51-1.08-.48-1.85.14.86.61,1.46.89,1.85-.14Z"/>
          <path class="cls-1" d="M147.82,125.06c-.06-.22-.21-.59-.34-.6-.41-.02-.84.09-1.25.15,0,.2.02.4.03.6.42.06.84.13,1.26.15.1,0,.32-.23.3-.3Z"/>
          <path class="cls-1" d="M149.62,128.32s.07-.08.1-.12c-.38-.02-.79-.09-1.1.05-.27.12-.41.55-.6.86.08-.02.16-.04.24-.06-.03.04-.06.07-.09.11h1.72v-.9c-.09.02-.18.04-.26.07Z"/>
          <path class="cls-1" d="M158.39,129.63c-.63-.68-1.26-.68-1.9,0,.63.68,1.26.68,1.9,0Z"/>
          <path class="cls-1" d="M129.76,216.25s.05-.05.07-.08c-.58.03-1.3-.38-1.62.53,1.23.41,1.25.41,1.78-.5-.08.02-.16.04-.23.06Z"/>
          <path class="cls-1" d="M109.02,172.95c-.46.19-1.22-.95-1.56.32.54.5,1.07.47,1.56-.32Z"/>
          <path class="cls-1" d="M171.29,164.03c.51-.55.48-1.08-.14-1.85-.61.86-.89,1.46.14,1.85Z"/>
          <path class="cls-1" d="M104.5,187.3c-.63-.68-1.26-.68-1.9,0,.63.68,1.26.68,1.9,0Z"/>
          <path class="cls-1" d="M125.3,191.09c-.38-.41-.76-.56-1.13-.48l.17.29-.16.67c.38.08.75-.08,1.13-.48Z"/>
          <path class="cls-1" d="M44.31,157.33c.55.12.65-.27.63-.71-.09.02-.17.04-.26.07.03-.04.06-.07.09-.11h-.77c.1.26.16.71.32.75Z"/>
          <path class="cls-1" d="M114.72,156.89c.02-.08-.19-.21-.3-.31-.11.21-.23.41-.34.61.13.13.23.23.34.34.11-.21.25-.41.3-.63Z"/>
          <path class="cls-1" d="M44.94,156.62c.63-.14,1.12-.17.56-.9-.2.23-.41.48-.73.86-.03.04-.06.07-.09.11.09-.03.18-.05.26-.07Z"/>
          <path class="cls-1" d="M48.71,157.48c-.54.12-.98.17-.71.66l.45-.3h.16c.08-.09.18-.2.28-.32.03-.04.06-.07.09-.11-.09.03-.19.05-.28.07Z"/>
          <path class="cls-1" d="M136.73,154.13c.26.22.51.44.97.82-.01-.05-.02-.09-.03-.14,0-.04-.02-.08-.03-.12-.14-.63-.17-1.13-.9-.57Z"/>
          <path class="cls-1" d="M159.2,154.35c-.11-.2-.22-.4-.34-.61-.1.11-.31.23-.3.31.05.22.19.42.3.63.11-.11.21-.21.34-.34Z"/>
          <path class="cls-1" d="M43.99,156.58c.02-.51-.17-.81-.57-.9l-.34.36c.1.38.4.56.9.55Z"/>
          <path class="cls-1" d="M95.99,155.16c-.21-.11-.41-.23-.61-.34l-.34.34c.21.11.41.25.63.3.08.02.21-.19.31-.3Z"/>
          <path class="cls-1" d="M112.87,155.3c-.11-.2-.22-.4-.34-.61-.11.11-.31.23-.3.31.05.22.19.42.3.63.11-.11.21-.21.34-.34Z"/>
          <path class="cls-1" d="M204.79,148.01l.12.04s.05-.05.07-.09c-.07.02-.13.03-.19.05Z"/>
          <path class="cls-1" d="M119.32,149.19c-.09.02-.18.06-.26.1l-.07.28.03.24s0,0,0,0c.2-.11.4-.22.61-.34-.11-.11-.23-.31-.31-.3Z"/>
          <path class="cls-1" d="M154.43,149.65c-.05-.22-.19-.42-.3-.63-.11.11-.31.23-.3.31.05.22.19.42.3.63.1-.11.31-.23.3-.31Z"/>
          <path class="cls-1" d="M207.01,149.15l.25.28.16-.08c-.12-.12-.23-.23-.33-.33-.02.04-.05.09-.07.13Z"/>
          <path class="cls-1" d="M69.05,146.18c-.11.21-.23.41-.34.61.13.13.23.23.34.34.1-.21.25-.41.3-.63.02-.08-.19-.21-.3-.31Z"/>
          <path class="cls-1" d="M101.49,146.49c.02-.08-.19-.21-.3-.31-.11.21-.23.41-.34.61.13.13.23.23.34.34.11-.21.25-.41.3-.63Z"/>
          <path class="cls-1" d="M154.74,146.79c.13.13.23.23.34.34.11-.21.25-.41.3-.63.02-.08-.19-.21-.3-.31-.11.21-.23.41-.34.61Z"/>
          <path class="cls-1" d="M70.64,145.54c.05.22.19.42.3.63l.34-.34c-.11-.2-.22-.4-.34-.61-.11.11-.31.23-.3.31Z"/>
          <path class="cls-1" d="M99,145.54c.05.22.19.42.3.63.1-.1.21-.21.34-.34-.11-.2-.22-.4-.34-.61-.11.11-.31.23-.3.31Z"/>
          <path class="cls-1" d="M151.46,145.41c-.22.05-.42.19-.63.3.11.1.23.31.31.3.22-.05.42-.19.63-.3-.11-.11-.23-.31-.31-.3Z"/>
          <path class="cls-1" d="M195.56,145.48l.53.09c-.09-.2-.23-.27-.53-.09Z"/>
          <path class="cls-1" d="M60.07,147.6c.21.11.41.23.61.34.13-.13.23-.23.34-.34-.21-.11-.41-.25-.63-.3-.08-.02-.21.19-.31.3Z"/>
          <path class="cls-1" d="M212.59,147.89c.16-.04.31-.12.46-.2l-.42-.28c-.12.06-.23.13-.35.18.11.1.23.31.31.3Z"/>
          <path class="cls-1" d="M125.34,174.54c-.14-.63-.17-1.12-.9-.56.23.2.47.4.84.71.04.04.08.07.13.11-.03-.09-.05-.18-.07-.26Z"/>
          <path class="cls-1" d="M104.76,172.22c.06.14.14.28.21.43.11-.1.31-.23.3-.31-.04-.16-.12-.32-.21-.47l-.04.11-.26.24Z"/>
          <path class="cls-1" d="M103.55,179.74c.21.1.41.25.63.3.08.02.21-.19.31-.3-.21-.11-.41-.23-.61-.34-.13.13-.23.23-.34.34Z"/>
          <path class="cls-1" d="M175.23,163.83c-.02-.08-.06-.16-.09-.24l-.12-.06-.19-.22c-.07.07-.14.14-.22.22.11.2.22.4.34.61.11-.1.31-.23.3-.31Z"/>
          <path class="cls-1" d="M174.93,169.81c.11-.21.23-.41.34-.61-.13-.13-.23-.23-.34-.34-.11.21-.25.41-.3.63-.02.08.19.21.3.31Z"/>
          <path class="cls-1" d="M106.53,170.15c.11.2.22.4.34.61.11-.1.31-.23.3-.31-.05-.22-.19-.42-.3-.63-.11.11-.21.21-.34.34Z"/>
          <path class="cls-1" d="M106.86,166.98c-.11.1-.31.23-.3.31.05.22.19.42.3.63l.34-.34c-.11-.2-.22-.4-.34-.61Z"/>
          <path class="cls-1" d="M85.77,168.23c.04.2.16.38.25.56l.36-.24s.01-.01.02-.02c-.11-.2-.22-.4-.34-.61-.11.11-.31.23-.3.31Z"/>
          <path class="cls-1" d="M45.41,121.6c-.11.1-.31.23-.3.31.05.22.19.42.3.63.1-.11.21-.21.34-.34-.11-.2-.22-.4-.34-.61Z"/>
          <path class="cls-1" d="M48.04,121.49c-.1.03-.19.05-.29.07-.62.14-1.1.18-.54.9.21-.25.43-.51.8-.94,0-.01.02-.02.02-.03Z"/>
          <path class="cls-1" d="M46.65,124.12c-.05-.22-.19-.42-.3-.63-.11.11-.31.23-.3.31.05.22.19.42.3.63.11-.1.31-.23.3-.31Z"/>
          <path class="cls-1" d="M48.76,124.43c-.14-.63-.17-1.12-.9-.56.23.2.47.4.83.71.04.04.08.07.13.11-.03-.09-.05-.18-.07-.26Z"/>
          <path class="cls-1" d="M99,119.07c.05.22.19.42.3.63.1-.11.31-.23.3-.31-.05-.22-.19-.42-.3-.63-.11.11-.31.23-.3.31Z"/>
          <path class="cls-1" d="M149.88,128.26c.63-.14,1.12-.17.56-.9-.2.23-.4.47-.73.85-.03.04-.06.07-.1.12.09-.03.18-.05.26-.07Z"/>
          <path class="cls-1" d="M29.18,125.2c.22-.05.42-.19.63-.3-.11-.11-.23-.31-.31-.3-.22.05-.42.19-.63.3.11.11.23.31.31.3Z"/>
          <path class="cls-1" d="M36.61,124.74s.02.04.02.05l.51.06c-.08-.14-.15-.28-.23-.42-.11.1-.31.23-.3.31Z"/>
          <path class="cls-1" d="M191.34,111.53c-.13-.13-.23-.23-.34-.34-.11.21-.25.41-.3.63-.02.08.19.21.3.31.11-.21.23-.41.34-.61Z"/>
          <path class="cls-1" d="M204.89,111.51c.05.22.19.42.3.63.11-.1.31-.23.3-.31-.05-.22-.19-.42-.3-.63-.11.11-.31.23-.3.31Z"/>
          <path class="cls-1" d="M208.97,112.14c.1-.1.31-.23.3-.31-.05-.22-.19-.42-.3-.63-.11.11-.21.21-.34.34.11.2.22.4.34.61Z"/>
          <path class="cls-1" d="M103.72,109.31c-.14.03-.28.06-.43.1.04-.04.06-.07.1-.11-.54.12-.9.21-.39.86.2-.23.41-.47.73-.85Z"/>
          <path class="cls-1" d="M229.27,110.3c.64-.15,1.16-.17.59-.91-.2.24-.42.49-.75.88-.02.03-.04.05-.07.08.08-.02.16-.04.23-.06Z"/>
          <path class="cls-1" d="M99.46,110.43c-.22.05-.42.19-.63.3.11.11.23.31.31.3.22-.05.42-.19.63-.3-.11-.11-.23-.31-.31-.3Z"/>
          <path class="cls-1" d="M177.16,114.64c-.11-.2-.22-.4-.34-.61-.11.1-.31.23-.3.31.05.22.19.42.3.63.1-.11.21-.21.34-.34Z"/>
          <path class="cls-1" d="M130.03,140.98c-.21-.11-.41-.25-.63-.3-.08-.02-.21.19-.31.3.21.11.41.23.61.34.13-.13.23-.23.34-.34Z"/>
          <path class="cls-1" d="M111.59,137.67s.01-.02.02-.03l-.31-.28s0,0,0,0c-.02.08.19.21.3.31Z"/>
          <path class="cls-1" d="M104.24,138.24l-.29.3s.06.05.09.08c.07-.13.14-.25.21-.38Z"/>
          <path class="cls-1" d="M191.07,138.43l-.32-.02c.07.07.18.09.32.02Z"/>
          <path class="cls-1" d="M63.08,145.87c-.02.08.19.21.3.31.07-.12.14-.25.2-.37l-.5.06s0,0,0,0Z"/>
          <path class="cls-1" d="M195.53,141.34c-.09.03-.18.05-.27.07-.63.14-1.12.17-.56.9.19-.22.39-.45.68-.8.05-.05.09-.1.14-.16Z"/>
          <path class="cls-1" d="M133.04,141.76c.05.22.19.42.3.63.11-.11.31-.23.3-.31-.05-.22-.19-.42-.3-.63-.11.11-.31.23-.3.31Z"/>
          <path class="cls-1" d="M142.74,142.44l.09.03s-.03-.05-.04-.07c-.01.01-.03.03-.05.05Z"/>
          <path class="cls-1" d="M160.42,132.61c.13.13.23.23.34.34.11-.21.25-.41.3-.63.02-.08-.19-.21-.3-.31-.11.21-.23.41-.34.61Z"/>
          <path class="cls-1" d="M150.78,130.1c.14.63.17,1.13.9.56-.24-.2-.48-.41-.88-.75,0,.06.02.12.02.19-.02,0-.03,0-.04,0Z"/>
          <path class="cls-1" d="M148.02,129.11c-.64.14-1.16.17-.59.91.2-.23.41-.48.73-.86.03-.04.06-.07.09-.11-.08.02-.16.04-.24.06Z"/>
          <path class="cls-1" d="M150.83,130.11c0-.07-.01-.12-.02-.19-.05-.52-.34-.78-.93-.76-.02.64.28.95.9.94.02,0,.03,0,.04,0Z"/>
          <path class="cls-1" d="M94.1,135.31c-.21-.1-.41-.25-.63-.3-.08-.02-.21.19-.31.3.21.11.41.23.61.34.13-.13.23-.23.34-.34Z"/>
          <path class="cls-1" d="M138.85,135.01c-.08-.02-.21.19-.31.3.21.11.41.23.61.34.13-.13.23-.23.34-.34-.21-.1-.41-.25-.63-.3Z"/>
          <path class="cls-1" d="M179.19,135.31c-.11-.1-.23-.31-.31-.3-.22.05-.42.19-.63.3.11.11.21.21.34.34.2-.11.4-.22.61-.34Z"/>
          <path class="cls-1" d="M162.03,134.5c-.11-.2-.22-.4-.34-.61-.11.11-.31.23-.3.31.05.22.19.42.3.63.11-.11.21-.21.34-.34Z"/>
          <path class="cls-1" d="M129.86,229.37c.14-.03.28-.06.43-.1-.04.04-.06.07-.1.11.54-.12.9-.2.39-.86-.2.23-.41.47-.73.85Z"/>
          <path class="cls-1" d="M129.86,229.37c-.12.03-.24.05-.34.08l-.2.56c.04.07.08.13.14.22.2-.23.4-.47.73-.85.03-.04.06-.07.1-.11-.15.04-.29.07-.43.1Z"/>
          <path class="cls-1" d="M128.45,226.72l.08.31.05.22c.06.03.12.07.18.1.13-.13.23-.23.34-.34-.21-.11-.41-.25-.63-.3,0,0,0,0,0,0Z"/>
          <path class="cls-1" d="M130,216.19c.64-.15,1.16-.17.59-.91-.2.24-.42.49-.75.88-.02.03-.04.05-.07.08.08-.02.16-.04.23-.06Z"/>
          <path class="cls-1" d="M131.61,231.44c-.22.05-.42.19-.63.3.11.11.21.21.34.34.2-.11.4-.22.61-.34-.11-.1-.23-.31-.31-.3Z"/>
          <path class="cls-1" d="M127.66,189.67c-.11.21-.25.41-.3.63-.02.08.19.21.3.31.11-.21.23-.41.34-.61l-.34-.34Z"/>
          <path class="cls-1" d="M155.55,197.7c.21.11.41.25.63.3.08.02.21-.19.31-.3-.21-.11-.41-.23-.61-.34-.13.13-.23.23-.34.34Z"/>
          <path class="cls-1" d="M154.57,193.45c.14.63.17,1.12.9.56-.23-.2-.47-.4-.85-.72-.04-.03-.07-.06-.12-.1.03.09.05.18.07.26Z"/>
          <path class="cls-1" d="M128.18,184.94c-.14-.63-.17-1.12-.9-.56.24.2.48.41.88.75.03.03.06.05.09.08-.03-.09-.05-.18-.07-.26Z"/>
          <path class="cls-1" d="M74.72,181.16c-.11.21-.25.41-.3.63-.01.06.11.15.21.24l.08-.07.12-.07c.07-.13.15-.26.22-.39-.13-.13-.23-.23-.34-.34Z"/>
          <path class="cls-1" d="M124.31,187.78c.14.63.17,1.12.9.56-.23-.2-.48-.41-.86-.73-.04-.03-.07-.06-.11-.09.03.09.05.18.07.26Z"/>
          <path class="cls-1" d="M96.17,206.05c.05.22.19.42.3.63.11-.1.31-.23.3-.31-.05-.22-.19-.42-.3-.63-.11.11-.31.23-.3.31Z"/>
          <path class="cls-1" d="M128.31,201.32c.05.22.19.42.3.63.11-.11.21-.21.34-.34-.11-.2-.22-.4-.34-.61-.1.1-.31.23-.3.31Z"/>
          <path class="cls-1" d="M83.88,34.93c.05.22.19.42.3.63l.34-.34c-.11-.2-.22-.4-.34-.61-.1.1-.31.23-.3.31Z"/>
          <path class="cls-1" d="M119.49,21.99c-.11-.2-.22-.4-.34-.61-.11.11-.31.23-.3.31.05.22.19.42.3.63.11-.1.21-.21.34-.34Z"/>
          <path class="cls-1" d="M151.67,82.31l-.33.47c.12.04.27.06.43.05,0-.22-.03-.38-.1-.52Z"/>
          <path class="cls-1" d="M90.14,83.47c-.05-.22-.19-.42-.3-.63-.11.11-.31.23-.3.31.05.22.19.42.3.63.1-.11.31-.23.3-.31Z"/>
          <path class="cls-1" d="M82.05,80.87s.02-.02.03-.03c-.09.03-.18.05-.26.07-.63.14-1.12.17-.56.9.21-.25.43-.51.8-.94Z"/>
          <path class="cls-1" d="M134.75,81.42c-.21-.11-.41-.23-.61-.34-.04.04-.07.07-.11.11v.3s-.03.03-.03.03c.14.08.29.16.44.19.08.02.21-.19.31-.3Z"/>
          <path class="cls-1" d="M132.69,84.41c-.05-.22-.19-.42-.3-.63-.06.06-.13.13-.2.2l-.03.34c.08.14.15.27.23.41.1-.11.31-.23.3-.31Z"/>
          <path class="cls-1" d="M103.45,84.46c.03.09.05.18.07.26.14.63.17,1.12.9.56-.24-.2-.48-.41-.86-.74-.04-.03-.07-.06-.1-.09Z"/>
          <path class="cls-1" d="M116.48,84.9c-.22.05-.42.19-.63.3.11.1.21.21.34.34.2-.11.4-.22.61-.34-.1-.11-.23-.31-.31-.3Z"/>
          <path class="cls-1" d="M117.91,73.07c-.02.08.19.21.3.31.11-.21.23-.41.34-.61l-.34-.34c-.1.21-.25.41-.3.63Z"/>
          <path class="cls-1" d="M162.17,72.48c.59-.13,1.05-.18.63-.79l-.27.27-.35.26s-.08.1-.13.15c-.05.06-.09.11-.15.17.09-.03.18-.05.26-.07Z"/>
          <path class="cls-1" d="M76.91,78.11s-.06.07-.09.11c.09-.02.17-.05.26-.06.63-.14,1.13-.17.56-.9-.2.23-.41.48-.73.86Z"/>
          <path class="cls-1" d="M99.95,76.53c.05.22.19.42.3.63.1-.11.21-.21.34-.34-.11-.2-.22-.4-.34-.61-.1.1-.31.23-.3.31Z"/>
          <path class="cls-1" d="M118.86,76.53c.05.22.19.42.3.63.11-.11.21-.21.34-.34-.11-.2-.22-.4-.34-.61-.11.1-.31.23-.3.31Z"/>
          <path class="cls-1" d="M81.81,103.16l.34.34c.2-.11.4-.22.61-.34-.11-.1-.23-.31-.31-.3-.22.05-.42.19-.63.3Z"/>
          <path class="cls-1" d="M68.38,100.82s-.04.05-.07.08c.08-.02.16-.04.23-.06.64-.15,1.16-.17.59-.91-.2.24-.42.49-.75.88Z"/>
          <path class="cls-1" d="M158.7,100.62c.22-.05.42-.19.63-.3-.11-.11-.23-.31-.31-.3-.22.05-.42.19-.63.3.1.1.23.31.31.3Z"/>
          <path class="cls-1" d="M90.14,107.1c-.05-.22-.19-.42-.3-.63-.11.11-.31.23-.3.31.05.22.19.42.3.63.1-.11.31-.23.3-.31Z"/>
          <path class="cls-1" d="M103.72,109.31c.54-.12.9-.21.39-.86-.2.23-.4.47-.73.85-.03.04-.06.07-.1.11.15-.04.29-.07.43-.1Z"/>
          <path class="cls-1" d="M100.08,108.18c.22-.05.42-.19.63-.3-.11-.1-.21-.21-.34-.34-.2.11-.4.22-.61.34.11.11.23.31.31.3Z"/>
          <path class="cls-1" d="M198.1,107.89c-.11-.11-.23-.31-.31-.3-.22.05-.42.19-.63.3.11.11.23.31.31.3.22-.05.42-.19.63-.3Z"/>
          <path class="cls-1" d="M86.54,106c-.21-.11-.41-.23-.61-.34-.13.13-.23.23-.34.34.21.11.41.25.63.3.08.02.21-.19.31-.3Z"/>
          <path class="cls-1" d="M134.93,91.65s.01.03.02.04l.03-.05.29-.21s-.03-.06-.05-.09c-.11.11-.31.23-.3.31Z"/>
          <path class="cls-1" d="M130.2,88.82c.05.22.19.42.3.63.1-.11.21-.21.34-.34-.11-.2-.22-.4-.34-.61-.1.11-.31.23-.3.31Z"/>
          <path class="cls-1" d="M147.81,88.82c.02-.08-.19-.21-.3-.31-.11.21-.23.41-.34.61.13.13.23.23.34.34.11-.21.25-.41.3-.63Z"/>
          <path class="cls-1" d="M138.49,97.02c.14.62.17,1.12.9.56-.24-.2-.48-.41-.88-.75-.03-.03-.06-.05-.09-.08.03.09.05.18.07.27Z"/>
          <path class="cls-1" d="M164.53,97.96c.11-.21.23-.41.34-.61-.13-.13-.23-.23-.34-.34-.11.21-.25.41-.3.63-.02.08.19.21.3.31Z"/>
          <path class="cls-1" d="M48.72,93.71c.21.11.41.23.61.34.13-.13.23-.23.34-.34-.21-.1-.41-.25-.63-.3-.08-.02-.21.19-.31.3Z"/>
          <path class="cls-1" d="M148.74,92.29c-.52.11-.87.21-.37.86.2-.23.41-.48.73-.86.03-.04.06-.07.09-.11-.16.05-.31.08-.46.11Z"/>
          <path class="cls-1" d="M121.05,49.74c.11-.21.23-.41.34-.61-.13-.13-.23-.23-.34-.34-.11.21-.25.41-.3.63-.02.08.19.21.3.31Z"/>
          <path class="cls-1" d="M157.44,37.93c-.21-.11-.41-.23-.61-.34-.13.13-.23.23-.34.34.21.11.41.25.63.3.08.02.21-.19.31-.3Z"/>
          <path class="cls-1" d="M154.14,40.29c.11-.21.23-.41.34-.61-.13-.13-.23-.23-.34-.34-.1.21-.25.41-.3.63-.02.08.19.21.3.31Z"/>
          <path class="cls-1" d="M169.64,63.83h-.01c-.05.07-.1.13-.16.2.05-.01.09-.02.14-.03.04,0,.08-.02.12-.03.6-.13,1.07-.18.62-.82l-.54.52-.16.16Z"/>
          <path class="cls-1" d="M144.39,65.18c.05.22.19.42.3.63.11-.1.21-.21.34-.34-.11-.2-.22-.4-.34-.61-.11.11-.31.23-.3.31Z"/>
          <path class="cls-1" d="M175.27,64.26l-.34-.34c-.11.21-.25.41-.3.63-.02.08.19.21.3.31.11-.21.23-.41.34-.61Z"/>
          <path class="cls-1" d="M145.46,62.8c.22-.05.42-.19.63-.3-.11-.11-.23-.31-.31-.3-.22.05-.42.19-.63.3.11.1.23.31.31.3Z"/>
          <path class="cls-1" d="M119.32,68.83c-.22.05-.42.19-.63.3.1.11.21.21.34.34.2-.11.4-.22.61-.34-.11-.1-.23-.31-.31-.3Z"/>
          <path class="cls-1" d="M70.33,68.32c-.11-.2-.22-.4-.34-.61-.1.1-.31.23-.3.31.05.22.19.42.3.63.11-.11.21-.21.34-.34Z"/>
          <path class="cls-1" d="M183.45,53.33l-.14.03s.03.05.05.07c.03-.04.06-.07.09-.11Z"/>
          <path class="cls-1" d="M89.93,53.61s0,0,0,0l.21.36c-.03-.1-.09-.21-.21-.36Z"/>
          <path class="cls-1" d="M148.62,59.38c-.22.05-.42.19-.63.3.11.11.23.31.31.3.22-.05.42-.19.63-.3-.11-.11-.23-.31-.31-.3Z"/>
          <path class="cls-1" d="M91.74,58.25l.34-.34c-.11-.2-.22-.4-.34-.61-.02.02-.04.03-.06.05l.11.09-.05.79s0,0,0,0Z"/>
          <path class="cls-1" d="M150.06,58.56s.03.07.04.11l.04-.24c-.05.05-.09.09-.09.13Z"/>
          <path class="cls-1" d="M175.58,58.56c.05.22.19.42.3.63.1-.1.31-.23.3-.31-.05-.22-.19-.42-.3-.63-.11.11-.31.23-.3.31Z"/>
          <path class="cls-1" d="M178.24,58.73c-.21-.1-.41-.25-.63-.3-.08-.02-.21.19-.31.3.21.11.41.23.61.34.13-.13.23-.23.34-.34Z"/>
        </g>
      </g>
    </g>
  </g>
</svg>