<?xml version="1.0" encoding="UTF-8"?>
<svg id="_レイヤー_2" data-name="レイヤー 2" xmlns="http://www.w3.org/2000/svg" viewBox="0 0 63.42 66.91">
  <defs>
    <style>
      .cls-1 {
        fill: #fff;
      }

      .cls-2 {
        fill: #efdfcd;
        fill-rule: evenodd;
      }
    </style>
  </defs>
  <g id="_レイヤー_1-2" data-name="レイヤー 1">
    <g id="stars">
      <g>
        <path class="cls-2" d="M32.74,51.19l.38.1.38.09.34-.3.37.03h.37s.38.02.38.02l.24-.08.29.26-.02.38.07.36.19.33.1.35.09.35-.09.4.09.35.16.34.21.32-.03.39.13.34.19.33.06.37-.04.39.3.31.39.08.26-.28.02-.33.02-.38-.09-.36.1-.39-.08-.36-.07-.36-.22-.34.19-.4-.06-.36-.22-.34.03-.38-.12-.35v-.37s-.14-.35-.14-.35v-.37s.04-.35.04-.35l.26-.23h.41s.36-.13.36-.13l.38-.09.35-.21.21.32.19.31.07.36.09.35.09.36.29.26.03.38.2.31.2.31-.03.41.26.28.18.32.26.28v.4s.17.32.17.32l.23.29.11.34.03.39.33.24.22.29.13.34.17.32.05.37.07.36.16.32.21.3.25.28v.4s.22.29.22.29l.2.3.15.32.07.36.25.28-.02.4.25.36.38-.2.4-.12.04-.46-.34-.26.08-.41-.31-.27-.19-.31v-.39s-.22-.3-.22-.3l.06-.41-.2-.31-.1-.35-.06-.37-.22-.3-.23-.3v-.39s-.16-.32-.16-.32l-.11-.35-.18-.32-.23-.3-.19-.31-.06-.37-.02-.38-.24-.29-.06-.37-.06-.37-.12-.34-.32-.26v-.39s-.12-.35-.12-.35l-.2-.31-.3-.27.08-.42-.1-.35-.21-.31-.23-.3v-.35s.23-.32.23-.32l.39-.11.29-.25h.44s.17-.43.17-.43l.37-.11.36-.15.29-.24.32-.2.23-.45.2.39.32.16.21.25.05.39.2.26.22.28.34.17.32.19.21.28.18.31.3.2.2.29.05.42.29.21.38.08.32-.05.22-.28-.11-.36-.22-.27-.03-.4-.38-.17-.1-.35-.25-.25-.11-.35-.27-.24-.19-.3-.12-.34-.3-.23-.13-.35-.16-.32-.3-.23-.04-.32.25-.18.06-.45.27-.25.37-.17.12-.38.36-.18.06-.43.23-.29.31-.23.25-.23.25.2.34.13.23.3.38.07.31.18.21.33.36.11.26.26.3.2.41.03.23.3.29.22.35.13.29.22.32.19.24.3.29.23.37.1.21.34.39.07.32.17.27.25.36.12.29.22.26.26.26.26.37.11.32.18.29.28.23-.33.26-.31-.32-.25-.26-.27-.35-.15-.27-.25-.19-.35-.3-.21-.25-.27-.37-.12-.25-.27-.25-.27-.23-.29-.29-.23-.44-.04-.23-.3-.32-.19-.32-.19-.31-.2-.27-.25-.16-.39-.26-.26-.37-.12-.23-.3-.36-.12-.25-.27-.31-.19-.33-.17-.31-.19-.19-.36-.32-.14.08-.34.35-.22.04-.39.12-.34.26-.28.11-.35.16-.32v-.39s.3-.27.3-.27l.13-.29.24.19.39-.05.36.04.3.2.25.3h.37s.3.18.3.18l.31.16h.38s.23.33.23.33h.37s.27.24.27.24l.34.08.27.23.48.04.27-.36-.11-.35-.12-.31-.31-.17-.32-.14-.25-.26-.29-.2-.39-.03-.18-.39h-.43s-.22-.38-.22-.38l-.37-.1-.29-.24-.41-.03-.29-.25-.34-.15-.42-.16.28-.39v-.39s.2-.34.2-.34l.09-.37-.11-.41.09-.37.2-.35-.11-.4.18-.36.07-.3.28-.2.34.11.35-.03.33.24.36-.11.34.07.36-.06.34.14.33.16.37-.13.34.13.36-.02.34.11.35.04.35.04.34.17.36-.04.35.05h.36s.36,0,.36,0l.34.11.34.14.38-.15h.36s.35.02.35.02l.33.21.35.07.36-.03.35.09.37-.1.35.03.33.27.37-.13.35.06.35.07.31-.18.2-.26-.08-.33-.31-.09-.31-.29-.37.09-.34-.1-.37.05-.35-.07-.32-.25-.38.1-.35-.09-.32-.2h-.36s-.38.09-.38.09l-.32-.2-.37.08-.31-.26-.37.07-.32-.25-.35-.06-.38.11-.36-.03-.34-.12h-.36s-.32-.25-.32-.25l-.39.17-.35-.05-.35-.05-.34-.19-.38.06-.34-.15-.34-.2h-.37s-.38.09-.38.09l-.35-.1-.37.02-.35-.13-.25-.19.03-.28-.02-.37v-.37s-.15-.36-.15-.36l-.1-.36.1-.38-.15-.36-.04-.34.34.02.31-.25.34-.08.34-.05h.36s.36.04.36.04l.32-.19h.35s.32-.16.32-.16l.37.07.35-.04.31-.22.27-.19.22-.31-.23-.33-.37-.07-.36.13-.37-.13h-.36s-.36.1-.36.1l-.36-.03-.37-.12-.35.25-.37-.18-.36.07-.36.02-.37-.06-.35.02-.08-.29-.07-.36-.13-.34-.32-.26.08-.42-.18-.32-.32-.25v-.4s-.21-.29-.21-.29l-.17-.32.32-.21.31-.21.38-.09.36-.12.37-.11.25-.34.31-.22.34-.15.34-.15.31-.17.43.07.2-.4.31-.17.33-.12.37-.04.35-.09.27-.26.32-.14.32-.14.26-.28.43.09.22-.37.31-.18.37-.05.29-.22.42.07.2-.41.38-.02.31-.17.34-.1.34-.1.25-.29.36-.06.35-.09.12-.43.12-.38-.38-.13h-.31s-.4-.04-.4-.04l-.29.22-.31.16-.33.12-.37.02-.31.17-.25.33-.34.1-.37.02-.28.25-.36.05-.31.18-.36.06-.36.06-.34.1-.22.4-.42-.09-.23.36-.42-.09-.26.31-.32.15-.31.17-.35.08-.3.19-.36.06-.37.05-.29.24-.33.16h-.4s-.34.11-.34.11l-.29.24-.33.15-.28.27-.38.03-.33.15-.31-.2-.11-.35-.33-.18-.1-.37-.15-.33-.42-.08-.23-.25-.08-.41-.43-.04-.11-.39-.28-.14.17-.32.31-.22.07-.41.39-.16.12-.37.22-.3.18-.32.41-.14.09-.4.38-.17.08-.41.26-.27.25-.28.32-.31-.25-.38-.39-.06-.43.02-.15.35-.19.31-.35.14-.17.34-.44.04-.18.33-.24.27-.18.32-.38.11-.12.39-.33.16-.29.22-.3.2-.16.42-.4-.26-.26-.24-.26-.24-.34-.11-.29-.19-.32-.14-.24-.29-.36-.06-.3-.18-.27-.24-.32-.14-.39.03-.2-.27.04-.34.23-.3.14-.34.25-.29.27-.27-.03-.44.34-.24.19-.32v-.42s.37-.22.37-.22l-.02-.43.42-.19-.02-.43.35-.23.21-.3v-.42s.2-.31.2-.31l.29-.26.04-.4.25-.28.06-.38.36-.21.17-.32.1-.35.31-.24-.03-.43.19-.31.13-.34.3-.25.24-.28.17-.32.14-.34.31-.23-.08-.44-.25-.25h-.31s-.45.02-.45.02l-.15.33-.09.37-.11.36-.41.16-.11.36-.27.26-.1.36-.11.36-.33.22-.08.38-.19.31-.17.32-.26.26-.28.25-.23.28-.05.4-.23.29-.1.37-.24.28-.36.2-.03.41-.28.25-.22.29-.16.33-.19.31-.27.26-.11.36-.25.27-.08.38-.19.31-.34.22-.11.36-.24.28-.11.43-.42-.08-.33-.15-.28-.29-.4.09-.34-.2v-.39s.19-.33.19-.33l.09-.35.18-.33v-.37s.2-.32.2-.32l-.03-.38.11-.35.13-.34.06-.38.06-.38.1-.37.17-.35-.19-.36-.18-.32-.42-.03-.09.4-.4.26.05.45-.25.33v.43s-.32.27-.32.27l.02.41-.35.26-.08.36-.19.32-.07.37.07.42-.38.25-.02.4-.39.05-.34-.12-.34-.09-.33-.15h-.36s-.1-.21-.1-.21l-.09.02-.08-.24-.11-.35.11-.36-.11-.35.13-.36-.15-.35v-.36s.19-.36.19-.36l-.07-.36-.08-.36.13-.36v-.36s-.08-.36-.08-.36l-.22-.35.03-.36.18-.36.02-.36-.06-.36-.05-.36.02-.36v-.36s-.12-.36-.12-.36l-.07-.36.11-.37-.12-.37.24-.37-.08-.37-.08-.37-.06-.37.19-.37.07-.37.02-.37-.11-.37-.15-.37.19-.36-.13-.38.18-.36.02-.37-.13-.39-.36-.25-.29.32-.29.25.13.36-.05.35-.18.34.13.36-.14.34.05.35-.11.34-.16.34.18.36.03.35-.26.34.06.35-.1.35.1.36v.35s-.17.34-.17.34l.12.36-.17.35.2.36.03.36-.17.35.09.36-.18.35.1.36-.09.35.03.36.03.36-.12.35v.36s.12.36.12.36l-.16.35.15.36.06.36v.36s-.05.35-.05.35l-.17.35.1.36-.15.35.11.29-.28-.09-.32.02h-.31s-.07.03-.07.03l-.34.16-.34.09h-.35s-.44.03-.44.03l.12-.47-.27-.31.19-.38-.24-.31.12-.37-.3-.3.03-.36.1-.37-.24-.3-.02-.34-.2-.3.02-.35.02-.35-.05-.33-.22-.39-.42.04-.29.18-.13.34.06.39.05.39.07.39-.15.4-.02.4.22.35-.2.37.22.35-.06.36.11.36.02.36-.15.36-.02.31-.3.07h-.37s-.33.14-.33.14l-.32.2-.33.15h-.38s-.29.16-.29.16l-.08-.33-.2-.31-.25-.29-.12-.35-.17-.33-.17-.32-.11-.35v-.4s-.21-.31-.21-.31l-.07-.37-.13-.34-.27-.28-.2-.31-.13-.35-.06-.37-.15-.33-.26-.29.03-.41-.13-.34-.28-.28-.19-.32-.18-.32.05-.41-.19-.32-.29-.28.07-.42-.31-.27-.1-.35.07-.41-.25-.3-.21-.31v-.39s-.26-.27-.26-.27l-.33.05-.44.07.22.4.06.37-.13.42.16.34.18.33.03.38.12.35.29.3.13.35.11.36.1.36-.04.41.21.32v.39s.2.31.2.31l.1.34.25.28-.03.39.11.33.15.32.11.33.27.27-.13.42.13.33.37.24.07.35v.38s.05.36.05.36l.18.31.18.31.18.31.12.33.07.35.18.35-.37.12-.28.22-.32.13-.27.22-.27.22-.31.15-.36.09-.24.27-.35.12-.24.26-.23.27-.21.29-.23.06-.39-.07-.11-.37-.25-.26-.21-.29-.35-.17-.05-.43-.39-.13-.16-.34-.31-.2-.2-.3-.23-.27-.31-.2-.09-.4-.21-.29-.41-.22-.37.21-.18.32.18.3.16.34.04.42.35.21.1.38.36.2.11.37.13.36.38.2.06.41.26.27.23.29.11.37.38.2.04.4-.07.31-.41.1-.02.44-.21.27-.21.27-.39.15-.12.34-.21.28-.1.35-.31.22-.11.34-.23.2-.26-.2-.39-.11-.33-.19-.32-.21-.31-.23-.34-.18-.25-.28-.38-.09-.24-.3-.26-.27-.41-.05-.3-.21-.25-.28-.31-.2-.31-.19-.3-.2-.25-.27-.34-.15-.36-.12-.15-.43-.41-.04-.33-.16-.16-.41-.34-.15-.38-.09-.18-.38-.33-.16-.29-.22-.35-.14-.38-.09-.23-.32-.29-.22-.28-.24-.39-.08-.31-.03-.44.03.11.42.12.32.35.14.2.34.26.25.37.11.3.2.2.33.41.07.31.19.15.4.3.21.28.23.41.07.16.4.3.2.39.09.29.22.22.31.35.14.32.18.18.36.34.16.35.14.22.32.3.21.29.22.27.25.2.34.4.07.34.15.3.21.25.27.21.32.39.08.22.31.34.19-.24.32-.1.35v.39s-.19.32-.19.32l-.33.27v.39s-.09.42-.09.42l-.44-.07-.31-.29-.35-.17-.4.1-.29-.25-.32-.14-.35-.05-.34-.1-.31-.18-.38.05-.34-.1-.33-.13h-.36s-.37-.11-.37-.11l-.18.33-.03.36.28.25.35.08.33.12.23.33.3.18.42-.08.26.27.31.16.32.15.37.04.26.28.28.14.27.17.39-.09.18.27.06.35-.15.34-.16.34.11.39-.26.32-.1.35-.02.37.04.35-.34-.05-.37.06-.37.15-.37-.22h-.37s-.37.2-.37.2l-.37-.2-.37.12h-.37s-.37-.12-.37-.12l-.37.18-.36-.18-.36-.07-.37.05-.36-.09-.38.25-.36-.15-.37-.03-.37.07-.37.04-.37-.04-.36-.11-.36-.08-.37.05-.37.12h-.37s-.37-.04-.37-.04l-.36-.06-.37.02-.36-.16-.36-.1-.37.17-.37.04-.37-.04h-.37s-.29.14-.29.14l-.36.27.23.39.38.09.36.13.38-.17.35.28.36.05.38-.16.37-.02.35.26.37-.05.38-.13.34.27h.37s.37.03.37.03l.38-.1.37-.02.36.13.37-.02.35.18.38-.18.35.24h.37s.36.07.36.07h.37s.38-.16.38-.16l.36.13.37-.08.35.23.38-.15.35.16.37-.06.36.09.37-.09.35.21.37-.22.36.12.31.11.03.3.09.35-.05.35-.03.35.12.35-.04.35-.07.36v.35s.09.28.09.28l-.31.11-.31.21-.37-.04-.35.04-.33.14h-.36s-.32.17-.32.17l-.33.13-.37-.02-.33.16-.36.02-.36.02-.34.09-.43.1.02.44.14.4.42-.06.36.05.35-.09.36.16.33-.29.35-.02.36.12.35-.13.36.13.35-.09.35-.14.36.05.37.17.36-.18.15.38.03.37.19.33-.07.4.28.3v.36s0,.37,0,.37l.06.35.22.28-.3.18-.27.27-.4.02-.31.18-.34.13-.25.31-.37.08-.34.13-.36.06-.28.23-.29.22-.36.06-.31.17-.26.28-.4-.02-.23.34-.42-.08-.25.31-.38.03-.27.26-.31.18-.4-.03-.28.23-.32.16-.38.03-.25.29h-.39s-.31.18-.31.18l-.31.18-.27.25-.2.28-.05.34.21.39.41-.17.3-.21.37-.03.28-.25.43.12.24-.37.34-.09.36-.04.31-.17.31-.17.34-.1.34-.1.29-.23h.38s.28-.23.28-.23l.4.06.29-.23.33-.13.33-.13.33-.12.31-.17.4.05.31-.17.29-.25.38-.03.34-.12.33-.13.25-.33h.39s.34-.12.34-.12l.33-.33.23.38-.04.43.26.28.26.27.17.33.04.41.4.17.11.37.16.28-.17.24-.19.3-.35.13-.17.31-.29.2-.28.21-.19.29-.16.32-.25.24-.34.14-.12.34-.29.18-.3.16-.03.42-.35.12-.05.37.08.34.33.12h.43s.15-.45.15-.45l.43-.11.32-.24.28-.28.27-.27.36-.15.29-.24.28-.25.35-.16.24-.31.27-.27.35-.16.26-.23.2.25.29.2.32.17.2.3.34.13.23.27.3.18.23.28.28.21.29.19.25.26.42.07-.23.33-.22.28-.18.31-.39.16-.04.42-.23.27-.17.32-.29.22-.25.26-.19.31-.22.28-.17.32-.3.21-.29.22-.11.37-.23.27-.35.17-.1.38-.16.32-.42.11-.2.29-.1.37-.3.21-.2.3-.2.29-.31.2-.13.35-.33.19-.18.31-.18.31-.29.22-.28.23.08.41.06.32.33.1.32-.15.37-.14.12-.37.21-.29.36-.14.21-.29.21-.29.2-.3.36-.15.19-.3.12-.37.39-.12.28-.22.15-.34.17-.32.34-.17.28-.23.26-.24.1-.39.17-.32.3-.2.17-.33.36-.16.27-.24.2-.31.24-.27.3-.21.2-.3.17-.33.25-.26.27-.24.19-.31.22-.28.22-.34.34.22.3.22.34.1.41-.09.3.23.36.05.34.1.34.12.24.1.13.37-.32.29v.37s-.16.33-.16.33v.38s-.18.32-.18.32l-.13.34.14.41-.33.29v.38s-.15.33-.15.33v.38s-.21.32-.21.32l.07.4v.35s.28.22.28.22l.37.03.25-.3.2-.3.1-.34.14-.32.13-.33.18-.31.08-.35v-.39s.28-.27.28-.27l-.02-.39.17-.32.22-.29.21-.3v-.38s.19-.31.19-.31l.03-.41h.44s.35.11.35.11h.36s.35.09.35.09h.36s.35.04.35.04l.36-.04.35.08.36.04.37-.15.14.14.02.35-.08.36.07.35-.09.36.02.35-.06.36.03.35.09.35.09.35.08.35-.16.36.16.35-.05.35.1.35-.04.35-.18.35.29.35-.13.36.04.36v.36s-.2.36-.2.36l.25.36-.11.36.09.36-.16.36.12.36-.17.36.23.37-.05.36-.02.36v.36s-.11.36-.11.36l-.03.36.05.36-.02.36-.12.36.1.36.03.36-.07.36.17.36-.25.36v.36s.27.35.27.35l.34.11.31-.11.06-.31.22-.35-.06-.37-.11-.37.25-.35-.13-.37.05-.36.13-.36-.08-.37-.02-.37.21-.35v-.37s.05-.36.05-.36v-.36s-.14-.37-.14-.37l.14-.36-.02-.37-.05-.37.18-.35-.18-.37.06-.36-.04-.37.26-.35-.25-.38.13-.36.18-.36-.16-.37.2-.35-.1-.36.04-.36-.14-.36.02-.36.07-.36-.02-.36.11-.36-.02-.36-.1-.36.12-.36v-.36s-.07-.36-.07-.36v-.36s0-.36,0-.36l-.04-.36-.04-.11ZM33.16,16.04l.33.19.33.2.41-.18.34.15.34.13.33.17.34.13.4-.12.32.21.34.12h.37s.35.12.35.12l.34.12.28.3.34.12.36.07.38.02.28.25.34.11.37.06.31.19.26.28.36.1.31.18.36.1.33.15.27.25.32.17.21.33.31.18.3.2.39.09.13.42.28.22.38.11.21.31.31.2.21.3.31.2.2.31.16.33.37.17.11.37.22.28.16.33.26.26.23.29.22.29.09.36.1.35.08.35.28.27v.38s.18.32.18.32l.16.33-.09.4.21.31.11.34.19.33-.1.39.08.35.14.34v.36s-.11.37-.11.37l.22.35.09.36-.02.36.02.36-.12.36-.11.35-.02.36.04.36.07.37-.22.33.04.37v.37s-.07.36-.07.36l-.15.34.03.38-.26.3-.17.32.11.41-.31.28-.15.33.09.42-.33.26.04.41-.08.36-.27.27-.06.37-.35.23-.1.35-.2.3-.25.27-.1.35-.1.36-.32.22-.17.32-.23.28-.17.32-.13.35-.17.32-.29.23-.32.2-.15.34-.3.21-.3.21-.26.25-.12.39-.36.15-.28.22-.22.29-.16.37-.42.05-.31.19-.24.28-.23.3-.37.1-.21.34-.36.11-.28.24-.43-.03-.21.39-.38.05-.37.07-.33.16-.35.09-.26.34-.39-.03-.31.24-.35.1-.41-.12-.35.07-.36.06-.33.21-.34.18-.36.04h-.37s-.35.13-.35.13h-.37s-.38-.2-.38-.2l-.35.11-.35.16-.36-.02-.36-.04-.36.02-.36.03-.36-.2-.37.21-.36-.12-.37.05-.35-.13-.37.06-.36-.04-.35-.13-.37.07-.34-.14-.34-.11-.38.04-.31-.25-.34-.11-.42.16-.34-.14-.29-.26-.39.02-.28-.28-.42.06-.33-.15-.28-.26-.28-.24-.31-.19-.35-.12-.24-.3-.38-.08-.31-.2-.19-.35-.35-.14-.23-.29-.27-.24-.41-.1-.17-.35-.24-.28-.3-.22-.22-.29-.24-.27-.13-.36-.18-.31-.31-.23-.05-.39-.32-.23-.21-.3-.13-.35-.26-.28-.15-.34-.09-.36-.08-.36-.25-.29-.16-.33.08-.41-.28-.29.07-.4-.26-.3-.05-.36-.18-.33-.06-.36.08-.39-.09-.35v-.36s-.19-.34-.19-.34v-.37s.03-.36.03-.36l.05-.37-.02-.36-.26-.35.09-.36-.05-.36-.04-.36-.02-.36.05-.36.23-.35.07-.35-.09-.37.14-.35-.07-.37.12-.35.03-.36v-.37s.05-.36.05-.36l.25-.31.02-.36-.02-.38.29-.29-.04-.39.07-.36.22-.31.07-.36.15-.33v-.4s.3-.26.3-.26l.18-.31.22-.29v-.41s.08-.36.08-.36l.24-.28.34-.22.07-.38.23-.28.22-.28.08-.38.39-.16.1-.38.31-.21.18-.32.31-.21.23-.27.16-.34.14-.37.34-.17.25-.26.24-.28.34-.16.3-.2.18-.35.44-.02.18-.38.42-.02.25-.27.34-.13.23-.33.36-.1.31-.19.29-.24.41.03.29-.24h.38s.34-.12.34-.12l.29-.29.35-.08.39.05.31-.25.38.06h.37s.31-.31.31-.31l.37.03.35-.11.38.17.35-.17.36.02.39-.08.38.13.38.14.39-.15.38.11.39-.04.38.09.02-.02v-.12Z"/>
        <g>
          <path class="cls-1" d="M54.21,47.92l.26.26.26.26.37.11.32.18.21.2c.06-.1.13-.2.2-.3.08-.23.04-.43-.06-.64l-.14-.15-.35-.15-.27-.25-.19-.35-.3-.21-.25-.27-.3-.1c-.02.38-.05.79-.08,1.17h.03s.29.23.29.23Z"/>
          <path class="cls-1" d="M22.57,16.51l-.27.22-.27.22-.31.15-.36.09-.24.27-.35.12-.24.26-.23.27-.2.29-.23.06-.39-.07-.11-.37-.25-.26-.21-.29-.35-.17-.02-.15c-.42.06-.85.13-1.27.19-.02.12-.04.24-.06.36l.26.13.06.41.26.27.23.29.11.37.38.2.04.4-.05.24.02-.02c.78,0,1.56,0,2.2.05.25-.4.47-.65.69-.91.07.09.11.16.15.23l.24-.17.18-.35.44-.02.18-.38.42-.02.25-.27.34-.13.2-.28c-.19-.38-.1-.99-.41-1.39-.13-.03-.25-.07-.37-.11l-.14.11-.32.13Z"/>
          <polygon class="cls-1" points="20.73 20.06 20.72 20.06 20.72 20.06 20.73 20.06"/>
          <path class="cls-1" d="M18.06,20.43c.11-.11.22-.21.34-.32l-.33.08v.23Z"/>
          <path class="cls-1" d="M41.67,11.96c.42-.47.84-.96,1.34-1.32.08-.06.18-.08.28-.09l.04-.34.25-.28.04-.25c-.43-.06-.85-.12-1.27-.19l-.08.07-.23.28-.05.4-.23.29-.1.37-.24.28-.36.2-.03.41-.28.25-.22.29-.04.08c.44.09.83-.07,1.19-.47Z"/>
          <path class="cls-1" d="M14.24,58.26v.06s.07.32.07.32l.33.1.32-.15.35-.13c-.28-.25-.57-.51-.88-.78l-.19.16v.41Z"/>
          <path class="cls-1" d="M33.04,10.77l.11-.3v-.36s-.08-.36-.08-.36l-.21-.34c-.26.26-.54.54-.89.89.69-.05.95.16,1.08.46Z"/>
          <path class="cls-1" d="M5.75,46.2l.3-.03.28-.25.43.12h0c-.06-.15-.1-.31-.09-.52-.27.11-.53.22-.8.32-.06.11-.09.23-.12.35Z"/>
          <path class="cls-1" d="M28.55,13.8c-.7.4-1.64,1.08-.79,2.25.91-.2,1.42-.96,1.89-1.6h-.25s-.44.03-.44.03l.12-.47-.27-.31.14-.3c-.1.15-.22.29-.42.4Z"/>
          <path class="cls-1" d="M32.11,12.84c-.18-.18-.34-.35-.52-.53v.23s-.05.35-.05.35l-.17.35.03.13c.27-.13.51-.29.7-.54Z"/>
          <path class="cls-1" d="M39.19,17.93l.13.11.34.11.37.06.31.19.26.28.36.1.31.18c.11-.11.23-.23.35-.35-.37-.68-1.02-.55-1.59-.49-.34.03-.61-.05-.84-.19Z"/>
          <path class="cls-1" d="M38.66,17.78l.34.02c-.18-.14-.34-.29-.51-.45-.05-.04-.28.12-.48.25l.3.11.36.07Z"/>
          <path class="cls-1" d="M11.3,20h-.14c.46.57.82,1.03.93,1.16.19.39.22.76.23,1.1l.23.17.27.25.2.34.15.03c.28-.45.57-.91.84-1.36l-.02-.03-.38-.09-.24-.3-.26-.27-.41-.05-.3-.21-.25-.28-.31-.2-.31-.19-.09-.06h-.05s0,0,0,0c-.04,0-.07,0-.11,0Z"/>
          <path class="cls-1" d="M19.88,51.74c0-.08-.14-.17-.29-.26l-.2.21-.19.31-.22.28-.17.32-.3.21-.29.22-.11.37-.1.12s0,.01,0,.02c.35.28.6.68.96.97l.21-.19.1-.39.17-.32.3-.2.16-.33h.01c-.03-.45-.08-.89-.05-1.32Z"/>
          <path class="cls-1" d="M.36,31.32h-.01s.05,0,.07,0c.07,0,.14-.07.2-.15l-.27.14Z"/>
          <path class="cls-1" d="M9.02,45.01l.23-.18s-.04-.05-.06-.07c-.38-.2-.79-.36-1.19-.52l-.07.04-.4-.03-.28.23-.32.16-.27.02c.01.29.08.59.02.87.21,0,.38.03.52.1l.15-.04.36-.04.31-.17.31-.17.34-.1.34-.1Z"/>
          <path class="cls-1" d="M12.37,43.88l.31-.17c-.72-.36-1.4-.28-1.85.09.08.14.15.29.23.43l.27-.1.33-.12.31-.17.4.05Z"/>
          <path class="cls-1" d="M26.57,53.55c-.07-.4-.14-.82-.2-1.15-.36-.18-.66-.24-.91-.22l-.03.06v.38s-.18.32-.18.32l-.13.34.14.41-.33.29v.17c.54.05,1.08-.14,1.64-.59Z"/>
          <path class="cls-1" d="M49.22,38.91h-1.38c-.32.31-.67.63-1.01.96l-.06.21-.2.3-.06.07c.3.31.57.58.8.87.07.09.01.28.01.43.17-.06.44-.12.59-.19l.03-.12.11-.07c.06-.68.54-1.17.87-1.72l.06-.12v-.39s.22-.2.22-.2c0,0,0-.02,0-.03Z"/>
          <path class="cls-1" d="M31.22,54.23l.03.11v-.78s-.09-.08-.13-.12v.09s.02.35.02.35l.09.35Z"/>
          <path class="cls-1" d="M18.52,44.47l-.11-.12-.13-.36-.18-.31-.31-.23v-.05c-.25.24-.48.48-.72.72.48.52.96.64,1.45.36Z"/>
          <path class="cls-1" d="M20.65,46.46l-.17-.07-.23-.29-.27-.24-.37-.09c-.15.09-.3.21-.51.38.48.3.97.4,1.55.31Z"/>
          <path class="cls-1" d="M15.04,33.64v-.09c-.5-.43-.98-.42-1.64.05l.05.21v.07c.71.48,1.23.62,1.59-.23Z"/>
          <path class="cls-1" d="M49.04,28.64c-.08,0-.16,0-.24.01l-.08.31.08.35.14.34v.36s-.03.09-.03.09c.15-.07.28-.15.29-.22.02-.41-.09-.84-.15-1.25Z"/>
          <path class="cls-1" d="M46.74,43.45l.21-.19.15.12c.52-.41.08-1.11.23-1.64-.94.54-.96.57-.59,1.71Z"/>
          <path class="cls-1" d="M49.77,37.1c-1.01.35-.38,1.2-.55,1.81.03-.02.05-.03.07-.04l.13-.28.15.12c.61-.38.56-.53.2-1.6Z"/>
          <path class="cls-1" d="M11.23,19.86l-.25-.27-.34-.15-.36-.12-.03-.07c-.19.05-.41.12-.72.22.43.79,1.15.48,1.76.54.04,0,.07,0,.11,0,0,0,0,0,0,0-.01-.02-.02-.03-.03-.05l-.14-.09Z"/>
          <path class="cls-1" d="M18.46,21.93c-.41-.02-.84.09-1.25.15.01.2.02.4.03.6.41.05.81.13,1.22.15l.06-.28.25-.1c-.07-.22-.19-.5-.31-.51Z"/>
          <path class="cls-1" d="M31.43,66.2c.2-.01.4-.02.6-.03.06-.42.13-.84.15-1.26,0-.1-.23-.32-.3-.3-.22.06-.59.21-.6.34-.01.23.02.46.05.69l.05.1-.02.03c.03.14.05.29.07.43Z"/>
          <path class="cls-1" d="M25.11,15.28s0-.02.01-.03h-.03s0,.02.01.03Z"/>
          <path class="cls-1" d="M25,15.18l-.05-.22-.09-.14s-.04.09-.05.13c-.01.06.09.14.19.22Z"/>
          <path class="cls-1" d="M31.92,2.82c.06-.05.11-.1.1-.14-.02-.07-.05-.13-.08-.2l.03.19-.05.15Z"/>
          <path class="cls-1" d="M20.16,6.96h0s.29.3.29.3l.1.28c.05-.05.1-.1.16-.16-.11-.2-.22-.4-.34-.61-.06.06-.15.13-.22.19Z"/>
          <path class="cls-1" d="M45.43,6.3c-.21-.11-.41-.23-.61-.34-.08.08-.14.14-.2.2l-.05.16h-.02c.19.11.37.23.57.27.08.02.21-.19.31-.3Z"/>
          <path class="cls-1" d="M42.42,55.62c-.05-.22-.19-.42-.3-.63-.1.11-.31.23-.3.31.05.22.19.42.3.63.1-.11.31-.23.3-.31Z"/>
          <path class="cls-1" d="M32.2,57.35c.2.1.39.22.59.28l.1-.21-.12-.28c-.08-.04-.16-.09-.23-.13-.13.13-.23.23-.34.34Z"/>
          <path class="cls-1" d="M5.35,31.25l-.17-.04s.05.09.07.14c.03-.03.07-.07.1-.1Z"/>
          <path class="cls-1" d="M44.67,46.07l.25-.18.05-.35s0,0,0,0c-.11.21-.23.41-.34.61.02.02.04.04.06.06l-.02-.13Z"/>
          <path class="cls-1" d="M13.75,48.78l-.21.07c.07.16.15.31.23.46.1-.1.21-.21.34-.34-.1-.19-.21-.39-.32-.58l-.03.39Z"/>
          <path class="cls-1" d="M21.62,49.95c-.05-.22-.19-.42-.3-.63-.07.07-.19.15-.25.22l-.02.03s-.02.04-.02.06c.05.22.19.42.3.63.1-.11.31-.23.3-.31Z"/>
        </g>
      </g>
    </g>
  </g>
</svg>