<?xml version="1.0" encoding="UTF-8"?>
<svg id="_レイヤー_2" data-name="レイヤー 2" xmlns="http://www.w3.org/2000/svg" viewBox="0 0 182.51 188.54">
  <defs>
    <style>
      .cls-1 {
        fill: #fff;
      }

      .cls-2 {
        fill: none;
      }

      .cls-3 {
        fill: #e4bec6;
        fill-rule: evenodd;
      }
    </style>
  </defs>
  <g id="_レイヤー_1-2" data-name="レイヤー 1">
    <g id="stars">
      <g>
        <path class="cls-3" d="M73.06,71.57l-1.2-.07-1.12.48-1.08.75-1.23-.3-1.11.48-1.27-.48-1.05.84-1.15.22-1.15.26-1.17.15-1.18.07-1.13.37-1.24-.2-1.07.68-1.12.38-1.31-.55-1.06.69-1.24-.19-1.08.58-1.16.17-1.24-.25-1.03.89-1.2-.05-1.11.42-1.15.41-1.29-.37-1.08.83-1.29-.39-1.16.37-1.2.09-1.11.65-1.29-.41-1.17.27-1.19.17-1.14.47-1.16.36-1.21.08-1.18.23-1.25-.2-1.09.82-1.29-.46-1.12.58-1.26-.24-1.06.95-1.22-.02-1.17.29-1.2.13-1.22.03-1.23-.06-1.17.3-1.11.61-1.25-.17-1.25-.12-1.09.73-1.29-.32-1.07.8-1.14.44-1.17.29-1.18.24-1.25-.09-1.09.67-1.56-.25,1.55.21.91.84,1.11.47.84.98.96.76,1.28.16,1.06.57,1.13.44.94.79,1.04.61.97.74,1.21.28,1.07.54,1.01.65.95.77,1.12.46,1.11.48.83.98,1.5-.23.81,1.03,1.01.65,1.14.43.81,1.02,1.27.19,1,.68.97.74,1.02.64,1.3.13,1.04.6,1.25.21.91.85.96.75,1.01.66.94.78,1.24.23,1.13.43,1.17.36,1,.67.87.93.97.74,1.3.11.96.75.87.92h1.36s.96.76.96.76l1.3.11.88.91,1.04.61,1.06.57,1.13.44.95.78,1.23.24.93.83,1.07.54,1.14.41,1.1.48,1.15.39.92.84.91.87,1.12.45,1.38-.08.81.9-.04,1.15.22,1.26-.28,1.19-.88,1.11.6,1.31-.28,1.19-.03,1.23-.45,1.17-.21,1.2-.14,1.21-.45,1.17-.34,1.19v1.23s-.09,1.22-.09,1.22l.46,1.28-.82,1.13.49,1.29-.38,1.18.04,1.23-.9,1.1.12,1.23.02,1.21-.22,1.18.23,1.24v1.21s-.31,1.18-.31,1.18l-.35,1.17-.4,1.17-.15,1.19-.1,1.2.55,1.27-.41,1.17-.66,1.14.61,1.27-.06,1.2-.25,1.18-.56,1.16-.46,1.17.25,1.23.05,1.21-.33,1.18.61,1.25-.61,1.16-.52,1.17.24,1.22.21,1.22-.3,1.19-.03,1.21-.37,1.19.69,1.23-.29,1.19.37,1.21-.08,1.2-.71,1.19.17,1.21.4,1.2-.45,1.56,1.12-1.09.35-1.3,1.16-.56.78-.91.54-1.14.92-.78,1.13-.57.46-1.23,1.3-.4.78-.92.88-.81.62-1.08.7-1,.76-.94,1.36-.32.79-.9.41-1.29,1.28-.4.52-1.18,1.3-.38.31-1.39.97-.72.73-.98.94-.77.95-.76.82-.89.85-.86,1.13-.58.85-.86.56-1.15.78-.94.93-.79.76-.95.96-.75,1.28-.44.7-1.01.77-.94,1.17-.55.43-1.29,1.05-.66,1.07-.65.79-.92.93-.78.75-.96.64-1.07.76-.95.84-.87,1.31-.4.53-1.19.61-1.11.95-.76.96-.75.91-.8,1.02-.69.75-.96,1.05-.65.86-.85.97-.73.69-1.09.86,1.08,1.25.24,1.06.62,1.26.22.9.94,1.08.58,1.16.41h1.37s.79,1.16.79,1.16l1.12.5,1.26.21,1.15.44.96.8,1.12.5.83,1.01,1.01.69,1.25.25,1.27.22.74,1.17,1.17.4,1.25.25.94.8.92.85,1.02.67.96.77,1.08.55,1.04.63,1.2.35,1.15.44,1.02.66,1.22.32.82,1.02,1.07.59,1.24.28.78,1.1,1.04.64,1.19.36,1.34.08.82,1.04,1.2.33.83,1.05,1.49-.23.8,1.11,1.27.19.95.82,1.38.74-.58-1.44-.54-1.08-.34-1.18-.54-1.08-.65-1.03-1.05-.83.04-1.36-.44-1.13-.62-1.04-1.14-.79-.13-1.28-.75-.98-.63-1.04-.26-1.21-.05-1.31-.73-.99-.48-1.11-1.03-.86.16-1.39-1.27-.74-.43-1.11.02-1.31-.82-.94-.28-1.17-.64-1.02.12-1.35-.68-1-.65-1.01-.43-1.11-.92-.89-.48-1.09-.1-1.25-.72-.98.2-1.39-.96-.87-.82-.93.19-1.39-1.07-.82-.34-1.15-.63-1.01-.12-1.25-.56-1.05-.36-1.14-1-.84.1-1.36-.94-.86-.78-.93-.04-1.31-.25-1.21-.94-.86,1.13-.58.39-1.28.86-.83,1.25-.46.35-1.32,1.29-.41.81-.88.3-1.37,1.17-.53.52-1.16.91-.78,1.27-.43.45-1.23,1.05-.64.55-1.13,1.25-.44.8-.89.38-1.31.95-.74.95-.74,1.04-.65.36-1.33,1.14-.55.92-.77,1.03-.66.97-.72.82-.88.52-1.18,1.12-.57.91-.78.34-1.36.96-.73,1.14-.55.72-.97.67-1.02.7-.99,1.39-.29.25-1.45,1.49-.24.75-.99.4-1.34.91-.82,1.32-.42.9-.83.5-1.24.98-.76,1.21-.53.7-1.03.66-1.08.94-.79.6-1.15,1.21-.51.66-1.09,1.22-.48.98-.74,1.03-.68.32-.99-.84.15-1.18.21-1.22-.42-1.2-.04-1.2-.03-1.15.81-1.22-.47-1.17.45-1.19.16-1.19.1-1.19.15-1.21-.36-1.2-.18h-1.2s-1.18.31-1.18.31l-1.18.34-1.2-.05-1.2-.06-1.2-.07-1.21-.43-1.16.76h-1.19s-1.18.35-1.18.35l-1.21-.42-1.19.12-1.2-.13-1.2-.04-1.17.44-1.21-.35-1.16.75-1.22-.5-1.21-.18-1.18.32-1.2-.1-1.18.32-1.2-.06-1.16.61-1.21-.15-1.2-.12-1.16.51-1.21-.22-1.2-.03-1.18.29-1.22-.32-1.16.52-1.24-.53-1.19.61-1.17.58-1.3-.44-1.17.56h-1.25s-1.3-.29-1.3-.29l-1.08,1.04-1.31-.37-1.22.22-1.3.51-.47-1.24-.76-.97-.47-1.1-.38-1.13-.15-1.24-.06-1.28-.62-1.03-.43-1.12-1.02-.85-.23-1.21-.7-.99-.23-1.21-.32-1.17-.68-1-.75-.97-.08-1.28-.7-.99-.24-1.21-.99-.86-.03-1.3-.54-1.07-1.06-.82-.73-.98-.1-1.27-.85-.92.28-1.44-.66-1.01-.33-1.16-1.14-.8-.47-1.1-.27-1.17-.27-1.17-.59-1.03-.98-.87-.26-1.17.15-1.35-.78-.95-.77-.96.23-1.38-1.31-.73.29-1.4-1.15-.8-.32-1.15-.39-1.12-.07-1.25-.25-1.18-.57-1.04-.35-1.13-1.15-.8-.31-1.15-.43-1.1-.35-1.14-.19-1.2-.74-.97-.24-1.18-.84-.93-.18-1.21-.29-1.16-.81-.94-.64-1.01-.28-1.34-.24,1.33-.44,1.13v1.21s.02,1.22.02,1.22l-.69,1.09-.15,1.19.24,1.26v1.22s-.79,1.07-.79,1.07l-.27,1.17-.53,1.12.14,1.24.08,1.23-.8,1.07.22,1.25-.58,1.11.43,1.29-.68,1.09-.13,1.19.09,1.23-.24,1.17.05,1.22-.41,1.14-.8,1.07.19,1.25-.08,1.2-.05,1.21-.21,1.18-.79,1.07.37,1.29-.54,1.11-.51,1.12.4,1.29-1.11,1.01.18,1.25-.51,1.12.36,1.28-.67,1.09.28,1.27-.52,1.12.19,1.25-.94,1.04.35,1.28-.98,1.03-.15,1.19-.15,1.19.28,1.27-.66,1.09.13,1.24-.72,1.08-.17,1.19.5,1.31-1.04,1.01-.16,1.19.36,1.29-.26,1.17-.89,1.04.15,1.25.15,1.25-.3,1.16-.79.95.24-.05ZM76.55,74.59l-.4,1.17.14,1.24.41,1.28-.65,1.14.13,1.25-.85,1.11.47,1.29-.15,1.2-.11,1.21-.23,1.19-.31,1.18-.02,1.23-.59,1.14.29,1.27v1.23s-.96,1.09-.96,1.09l.3,1.27-.59,1.14.19,1.26-.22,1.2-.64,1.14.51,1.3-.44,1.16.04,1.24.02,1.23-.76,1.12.45,1.3-.77,1.12v1.23s-.28,1.19-.28,1.19l.28,1.27-.78,1.12-.09,1.22-.17,1.34,1.33.19,1.18.21,1.09.48,1.14.33,1.01.75,1.33-.24.93,1h1.25s.99.78.99.78l1.37-.36,1.06.58,1.16.28,1.11.44,1.08.54,1.05.62,1.16.28,1.26-.02,1.02.74,1.03.7,1.29-.12.96.9,1.32-.18,1.2.17,1.15.32,1.14.37,1.03.7,1.27-.03.9,1.1,1.36-.33,1.04.66,1.17.26.99.81,1.07.57,1.29-.08,1.12.37.73-.9,1.03-.62.88-.77.98-.67.63-1.04.83-.83.92-.74,1.01-.64.77-.9.78-.88,1.17-.46.23-1.47,1.22-.42.92-.74.74-.93,1.21-.44.56-1.13.94-.72.99-.66.91-.75.52-1.17.89-.78.44-.84-.19-.9-.33-1.16-.42-1.11-.3-1.17-.86-.9-.65-1-.73-.97-.41-1.13-.15-1.25-.34-1.16-.98-.85-.33-1.16-.15-1.25-1.09-.8-.32-1.17-.97-.86-.16-1.25-.46-1.1-.51-1.08-.63-1.02-.29-1.19-.83-.92-.24-1.21-.52-1.07-.66-1-.57-1.04-.67-1-.21-1.22-.18-1.24-.61-1.03-1.13-.78-.09-1.28-.67-1.01-.88-.9-.42-1.13.12-1.39-1.22-.75-.3-1.01-.98.34-1.21-.11-1.17.13-1.16.19-1.21-.11h-1.2s-1.15.31-1.15.31l-1.16.25-1.07.78-1.27-.49-1.07.82-1.21-.05-1.14.37-1.29-.57-1.13.45-1.14.35-1.18.1-1.11.55-1.15.31-1.19.03-1.2-.02-1.21-.08-1.17.17-1.17.22-1.07.86-1.22-.1-1.26-.35-1.06.91-1.19.24-.27-.49Z"/>
        <g>
          <path class="cls-2" d="M60.79,83.2c-.29.13-.42.59-.63.91-.61.17-1.46-.46-1.81.55q1.25.41,1.81-.55c.43,0,.91.12,1.26-.04.29-.13.42-.59.63-.91-.43,0-.91-.12-1.26.04Z"/>
          <path class="cls-2" d="M62.68,82.42c-.57-.13-.66.29-.63.75h.95c-.1-.26-.16-.71-.32-.75Z"/>
          <path class="cls-2" d="M80.05,154.44c-.05.07-.15.17-.19.3-.15.41-.99,0-.78.72.57.71,1.17.71,1.87.06-.03-.35-.07-.73-.89-1.08Z"/>
          <path class="cls-2" d="M142.32,144.23c-.26-.22-.52-.44-.91-.69.16.6.09,1.33.91.69Z"/>
          <path class="cls-2" d="M141.41,143.54c.08-.52-.24-.84-.89-.81-.02.65.29.97.89.81Z"/>
          <path class="cls-2" d="M137.6,144.23c-.26-.22-.51-.44-.91-.69.16.6.09,1.33.91.69Z"/>
          <path class="cls-2" d="M88.43,123.43c-.26-.22-.52-.44-.91-.69.16.6.09,1.33.91.69Z"/>
          <path class="cls-2" d="M88.52,125.71h.95v-.95c-.65-.02-.97.29-.95.95Z"/>
          <path class="cls-2" d="M137.68,129.49c-.63,0-1.26,0-1.6.06-.44-.45-.7-.95-.97-.96-.69-.02-1.49-.34-2.11.37.78,1.01,1.87.34,2.79.53-.11.58.24.87.72.93.63.07,1.24-.04.91-.82.73-.21,1.46-.14.82-.97-.22.26-.44.52-.56.86Z"/>
          <path class="cls-2" d="M90.41,143.2c.11.1.23.31.31.3.22-.05.42-.19.63-.3-.11-.1-.21-.21-.34-.34-.2.11-.4.22-.61.34Z"/>
          <path class="cls-1" d="M140.14,136.01c.65-.65,1.21-1.21,1.82-1.82.3.65.6,1.28.83,1.78.84-.43,1.62-.83,2.5-1.28-.69-.32-1.32-.62-2.16-1.01.3-.54.58-1.03.85-1.51l-.24-.24-.48-1.09-.1-1.25-.05-.07c-.22.12-.43.25-.63.41-1.02.8-1.93.81-2.91.04v-3.32h-2.34c-.34-.32-.68-.64-.99-.93h-2.8c-.37.34-.72.65-1.02.92-1.1.18-2.23-.42-3.25.46.05.39.1.82.15,1.19.66.23,1.21.41,1.73.59v1.69c1.04,1.89,2.67,2.72,4.57,3.59.42-.53,1-1.26,1.5-1.89h1.83c.67-.44,1.16-.76,1.51-.98.39.12.55.14.66.22.48.37.95.76,1.42,1.15-.29.29-.39.48-.51.49-.61.07-1.22.1-1.92.15-.88.4-1.24,1.65-2.39,1.84.02.09.04.18.07.27.08.19.16.38.24.59h2.11ZM137.42,129.6c.33.78-.28.89-.91.82-.47-.05-.82-.35-.72-.93-.92-.18-2.01.48-2.79-.53.62-.71,1.42-.39,2.11-.37.27,0,.53.51.97.96.34-.06.97-.06,1.6-.06.12-.34.34-.6.56-.86.64.83-.09.76-.82.97Z"/>
          <path class="cls-1" d="M132.76,147.44c.41-.07.79-.26,1.11-.37.2-.88-.3-1.72.49-2.43.3.63.59,1.22.9,1.86.35-.32.68-.61,1.09-.98.62.3,1.45-.32,2.11.32.19.57.37,1.11.53,1.61h1.35c.46-.57,1.04-1.29,1.58-1.97,1.41,0,2.64,0,3.88-.01.11,0,.22-.21.36-.34-.63-1.16-2.12.1-2.78-.96.97-1.17,2.37-.04,3.42-.66.2-.12.23-.51.34-.78-.55,0-1.1,0-1.88-.01,0-.78,0-1.33-.01-1.88-1.22.05-1.44,1.48-2.43,1.78-.36-.3-.71-.59-1.07-.89-.62.12-1.33.05-1.23,1,.65-.02.97.29.89.81.4.25.65.47.91.69-.83.64-.76-.09-.91-.69-.6.16-.92-.16-.89-.81-1.04,0-2.08-.05-3.11.02-.43.03-.77.38-.72.79.4.25.65.47.91.69-.83.64-.76-.09-.91-.69-.41.13-.88.13-1.34.13-.34-.32-.68-.64-.99-.94h-2.94c-.18.52-.26,1.14-.58,1.59-.45.63-1.08,1.12-1.72,1.76.58.2,1.24.25,1.6.6.6.61,1.23.9,2.04.75Z"/>
          <path class="cls-1" d="M60.14,77.51c.27.02.54.19.89.33v2.73c-.9,1.07-1.6,1.89-2.02,2.39-.84.26-1.25.39-1.66.52v1c1.02,1.62,1.68,2.66,2.15,3.41h2.2c.42.56.97,1.3,1.53,2.06.53-.5.87-.79,1.17-1.12.15-.17.22-.42.32-.64-.47-.44-.91-.86-1.26-1.2-.85-.19-1.69.29-2.28-.46-.03-.04.12-.21.2-.35.84-.15,1.69-.29,2.82-.49-.48-.99-.84-1.76-1.21-2.53h-.95c-.2.32-.34.78-.63.91-.36.16-.84.04-1.26.04q-.56.97-1.81.55c.35-1.01,1.2-.38,1.81-.55.2-.31.34-.78.63-.91.36-.16.84-.04,1.26-.04-.03-.46.06-.88.63-.75.15.04.22.49.32.75.26-.1.52-.2.86-.33v-3.56c-.31-1.32-1.7-1.49-1.8-2.68-.09.02-.18.04-.27.07.03-.04.06-.07.09-.11-.98,0-1.97-.04-2.94.03-.43.03-.77.38-.67.92.62,0,1.25-.03,1.87.01Z"/>
          <path class="cls-1" d="M97.65,149.68l.76-.95.32-.33c-.19.04-.37.11-.57.27-.34.28-.54.82-1.13.67v1.37l.62-1.04Z"/>
          <path class="cls-1" d="M89.79,157.87l.26-.38.77-.94,1.17-.55.43-1.29.59-.37c-.07-.1-.16-.21-.27-.32-.39.07-.81.15-1.1.2-.47.67.02,1.79-1.18,1.73.02.09.04.18.07.27-.04-.03-.07-.06-.11-.09,0,.43-.28.7-.65.75-.72.09-1.46.02-2.19.02.11.27.22.54.4.96h1.82Z"/>
          <path class="cls-1" d="M81.35,138.99c-.29.59-.58,1.19-.89,1.83-.31-.31-.53-.53-.91-.91h-4.63c-.55-.43-.85-.66-1.17-.9-.53.71-.49,1.25.05,1.79h2.75c.55,1.05,2.1.49,2.57,1.84-.15.28-.28.73-.58,1.01-.16.16-.6.03-1.31.03-.35-.52-.86-1.26-1.23-1.8-1.08.56-1.85.96-2.69,1.39.11.43.21.86.3,1.24.88.1,1.62.19,2.33.27.22.62.41,1.17.62,1.76.5-.07.93-.12,1.3-.17.23-.67.42-1.21.51-1.5,1.19-.7,1.51.31,2.13.67.44-.44.89-.89,1.33-1.33.2-1.04-.22-2.15.3-3.16.57-.19,1.12-.38,1.72-.58-1.29-1.28-1.31-1.26-2.53-1.46Z"/>
          <path class="cls-1" d="M81.9,154.51v-2.33c-.87,0-1.73,0-2.84,0,0,1.1,0,1.97.87,2.21-1.84.79-2.64.48-3.81-.95.59,2.12-.66,2.69-1.42,3.61-.26.32-.33.8-.32.79.56.9.97,1.55,1.15,1.83,2.01.32,1.33-1.27,2.02-1.71,1.34.41,1.2,1.91,2.15,2.92.22-1.12.4-2.09.58-3.01h2.56c0-.78,0-1.55,0-2.33-.32-.34-.63-.67-.95-1.01ZM79.07,155.46c-.2-.72.63-.32.78-.72.05-.13.15-.23.19-.3.83.35.87.74.89,1.08-.7.65-1.31.65-1.87-.06Z"/>
          <path class="cls-1" d="M95.82,146.4c.19-.69,1.28-.81,1.23-1.77-1.22-.15-2.47.25-3.85-.28.12-.6.22-1.12.35-1.75.52.46.84.75,1.25,1.11.53-1.25.41-2.41.19-3.54-.53-.48-.97-.89-1.37-1.25-1.46.18-2.88-.32-4.22.44.1.5.18.93.31,1.61.91-.34,1.63-.61,2.59-.97-.07.67-.12,1.21-.17,1.7-.98.07-1.72.12-2.56.17v2.3c.46.49.88.95,1.28,1.38.36-.32.69-.62,1.1-.99.22.62.41,1.16.64,1.82h3.22ZM90.72,143.5c-.08.02-.21-.19-.31-.3.21-.11.41-.23.61-.34.13.13.23.23.34.34-.21.11-.41.25-.63.3Z"/>
          <path class="cls-1" d="M78.15,166.59c-.13-.58-.03-1.21-.03-1.64-.72-.72-1.28-1.28-1.79-1.79-.1-.49-.19-.92-.32-1.56-.63.11-1.17.2-2.15.37,1.21.59,1.3,1.32,1.55,2.07.26.77,1.33,1.12,1.63,2.02-1.85.38-4.2,1.52-5.59,2.72.08.4.17.83.29,1.44.48-.39.8-.65,1.16-.95.3.26.63.55.95.84.32-.28.65-.58.97-.86.33.29.65.57.95.84.36-.3.68-.56.96-.78.18.14.34.26.49.38l.6-.45.73-.98.13-.11c.07-.15.15-.31.22-.45-.25-.35-.65-.69-.74-1.09Z"/>
          <path class="cls-1" d="M90.52,13c.5.09.95.17,1.36.24l-.28-1.05-.34-.88h-.84s-.03,0-.04,0c.05.59.1,1.17.15,1.69Z"/>
          <path class="cls-1" d="M93.59,16.89h.51l-.12-.57-.57-1.04-.17-.54c0,.75-.1,1.45.35,2.15Z"/>
          <path class="cls-1" d="M85.18,6.57c.84.05,1.7.21,2.55-.59-.72-.2-1.43-.36-2.13-.55l-.35.55-.08.59Z"/>
          <path class="cls-1" d="M73.85,92.54c-.57,1.18-1.07,2.22-1.53,3.17.43.54.79.7,1.11.68l-.02-.13.59-1.14-.3-1.27.49-.56c-.11-.24-.23-.48-.34-.73Z"/>
          <path class="cls-1" d="M88.52,125.71c-.02-.65.29-.97.95-.95,0-.46,0-.92,0-1.38.31-.33.62-.66.94-.99-.75-.83-1.66-.46-2.51-.27-.16.03-.22.49-.38.63.4.25.65.47.91.69-.83.64-.76-.09-.91-.69-.51.24-1.15-.12-1.73.49-.06.64-.12,1.36-.18,2.05-.31.35-.6.68-.95,1.07.32.65-.29,1.49.43,2.08.55.14,1.07.28,1.54.4v1.6c.57-.11,1.23.27,1.72-.29.06-.29.12-.57.21-1.01-.63-.69-1.32-1.45-2.04-2.24.21-.47.38-.85.53-1.2h1.48Z"/>
          <path class="cls-1" d="M76.36,149.16c.88.13,1.74.25,2.52.36.22.68.38,1.2.56,1.77.46-.39.78-.67,1.1-.94.38.38.66.82,1.05,1.01.41.19.03,1.05.79.83.39-.77.79-1.54,1.06-2.08-1.12-1.12-2.28-2.28-3.65-3.66-.67,1.23-2.81.74-3.43,2.72Z"/>
          <path class="cls-1" d="M89.47,69.93v1.43c.38.37.75.74,1.11,1.1l.24-.12,1.18-.1,1.14-.35.53-.21c-.27-.23-.56-.48-.91-.77h-1.77c-.49-.38-.94-.75-1.51-1.19,0,.08.01.15.02.23-.01,0-.02,0-.03-.01Z"/>
          <path class="cls-1" d="M94.27,71.44l1.29.57,1.14-.37,1.21.05.76-.58c-.98-1.08-2.26-1.27-3.28-2.09-.11.49-.21.92-.35,1.52-.28.27-.68.64-1.13,1.05l.36-.14Z"/>
          <path class="cls-1" d="M56.87,74.85c-.92.92-1.83,1.83-2.64,2.64-.65-.37-1.14-.65-1.64-.93v.59c.67,1.16,1.05,1.81,1.34,2.3h2.98c.98,1.12,2.02,1.32,3.2.48-.5-.91-1.67-1.29-1.85-2.42-.56.11-.84-.24-.93-.69-.15-.68.26-1.48-.34-2.02l-.07.05-.05.02Z"/>
          <path class="cls-1" d="M148.08,146.51h1.7c-.11,1.71,1.23,2.47,2.21,3.37l-.14-.65-.04-1.09s-.06-.01-.1-.02c.03-.04.06-.06.09-.1v-.11s-.73-.99-.73-.99l-.48-1.11-1.03-.86.07-.63c-.53.26-1.05.51-1.56.75v1.42Z"/>
          <path class="cls-1" d="M106.29,141.2l.19-.12v-.2c-.09.02-.17.04-.26.07.03-.04.06-.07.09-.11h-4.56c.11.27.15.68.34.78.89.42,1.79.79,2.59,1.12l.85-.57.75-.96Z"/>
          <path class="cls-1" d="M71.16,73.75c-.51-.41-.95-.76-1.39-1.11l-.11.08-1.23-.3-.41.18c1,1,2,2,3,3,.73-.14,1.53.3,2.16-.25.47-.48-.1-1.63,1.12-1.61-.02-.09-.04-.19-.07-.28.1.08.18.16.26.23-.72-1.04-1.14-2.24-2.7-1.72-.22.62-.41,1.16-.63,1.8Z"/>
          <path class="cls-1" d="M79.58,54.33c.97.73,1.69,1.27,2.38,1.79-.67.88-1.56,1.25-1.88,2.57,1.27-.36,2.44.33,3.58-.41.17-.57.33-1.1.46-1.53.95-.21,1.78.28,2.67-.71-1.57-.16-2.89-.56-4.09-1.24-.51-.29-.95-.74-1.49-.9-.35-.1-.81.19-1.63.43Z"/>
          <path class="cls-1" d="M86.64,136.85c-.73-.72-1.38-1.37-2.13-2.1.85-.39,1.47-.68,2.13-.99l-1.41-1.41c-.33.3-.66.61-1,.92h-1.35c.02.09.04.17.07.26-.06-.05-.12-.1-.17-.15-.26.46-.52.91-.8,1.4.56.25,1.2.54,1.64.73.21.59.24,1.14.53,1.36.74.58.59,1.33.6,2.06,1.09-.35,1.94-.91,1.9-2.1Z"/>
          <path class="cls-1" d="M120.35,141.83c-.42-.02-.73-.03-1.05-.05-.12.11-.25.23-.37.35l.67,1,.57.25c.19-.12.37-.24.57-.37-.13-.39-.26-.81-.38-1.19Z"/>
          <path class="cls-1" d="M62.61,149.82l-.12.49c.16,0,.31,0,.47-.02-.02-.09-.04-.18-.07-.27.04.03.07.06.11.09v-1.19c-.13-.15-.27-.3-.4-.44l.02.13v1.21Z"/>
          <path class="cls-1" d="M65.68,127.54c-.15.11-.28.2-.4.28v.33s-.1.23-.1.23c.2.22.41.44.6.65-.3.35-.58.66-.83.96.3.36.56.68.77.93-.15.62-.77.38-1.2.44l-.04.37-.17.44c.61.37,1.33,0,1.97.15.33-.32.67-.63,1-.95.46,0,.93,0,1.39,0v-2.37c-1-.49-2.01-1-2.98-1.48Z"/>
          <path class="cls-1" d="M68.7,176.22c.04.38.09.92.15,1.46h.62l.64-.92.4-.5c-.48-.35-.97-.73-1.82-.04Z"/>
          <path class="cls-1" d="M71.83,173.13c-.58.76-.25,1.69-.32,2.54l.72-.17.6-.68c-.13-.13-.25-.25-.34-.4-.24-.42.27-1.22-.67-1.29Z"/>
          <path class="cls-1" d="M163.21,75.12c-.05-.36-.1-.79-.16-1.2-.97-.17-1.83-.32-2.56-.45-.13-.64-.21-1.06-.34-1.7-.65.12-1.18.22-1.67.31v1.35c.91.79,1.71,1.48,2.5,2.17.72-.15,1.56.34,2.23-.49Z"/>
          <path class="cls-1" d="M100.25,134.19c.16,0,.3-.36.41-.5-.43-.47-.84-.93-1.21-1.33-.5.38-.96.73-1.53,1.16-.87-.77-1.62-1.43-2.23-1.97-.91.46-1.68.84-2.4,1.21.5,1.3,2.55-.42,2.83,1.45,1.34,0,2.73.02,4.12-.03Z"/>
          <path class="cls-1" d="M64.35,175.72c-.32-.27-.64-.53-.85-.7-.55.46-1.02.85-1.51,1.26.84.43,1.63.83,2.51,1.27.19-.17.52-.46.87-.77.68-.19,1.5.28,2.53-.62-1-.34-1.16-1.39-2.36-1.28-.3.21-.75.53-1.19.83Z"/>
          <path class="cls-1" d="M90.11,45.14c.24-1.72.36-2.59.48-3.38.69-.23,1.23-.41,1.58-.52.49-1.45-.76-1.72-1.26-2.52-.76,1.5-1.5,2.98-1.95,3.88.39.85.63,1.39,1.16,2.54Z"/>
          <path class="cls-1" d="M63.8,114.71c0-.11-.21-.22-.35-.36-.42.45-.85.91-1.32,1.41.24.28.52.6.81.95-.28.31-.59.64-.88.96.24.27.5.55.77.84l.94.37h.04c0-1.37,0-2.77-.01-4.17Z"/>
          <path class="cls-1" d="M28.05,96.83c.85.49,1.68,1.01,2.55,1.45.25.12.61.02.92.02.15,0,.34.05.46,0,.89-.46,1.77-.94,2.65-1.41-2.67-.64-3.32-.64-6.58-.05Z"/>
          <path class="cls-1" d="M52.19,75.17l-1.08.58-.36.05s0,.02-.01.03c-.06.17.29.47.45.71.47,0,.94,0,1.3,0,.25-.43.49-.83.72-1.22l-1.02-.16Z"/>
          <path class="cls-1" d="M104.82,70.01l1.21.11.45-.07v-.61c-.43-.41-.88-.85-1.53-1.48-.46.5-.95,1.02-1.42,1.52.06.17.08.34.1.51h1.19Z"/>
          <path class="cls-1" d="M85.19,7.64l.15.79v.85c.41.1.83.2,1.07.47.63.71,1.34.64,1.91.62.41-.55.75-1,1.57-2.1-2.09.91-3.12-.56-4.45-.77-.1.04-.18.09-.26.14Z"/>
          <path class="cls-1" d="M72.05,126.57c-.53.11-.95.19-1.37.28-.09,1.31-.43,2.51.31,3.59h1.1c.54-1.26.56-2.52-.04-3.87Z"/>
          <path class="cls-1" d="M73.27,124c-.76-.21-1.29-.35-1.77-.48,0-.67,0-1.13,0-1.59-.26.1-.52.21-.82.32-.11,1.14-.37,2.3.19,3.35h2.49c-.04-.64-.07-1.16-.09-1.61Z"/>
          <path class="cls-1" d="M97.48,140.82c.3-.63.59-1.22.87-1.8,1.2.02,1.89-.62,2.3-1.65-.83-.6-1.79-.19-2.43-.28-.05.07-.1.12-.15.19,0,.01,0,.03.01.04-.01,0-.02-.02-.03-.02-.38.45-.71.86-1.09,1.32.33.63-.32,1.49.52,2.2Z"/>
          <path class="cls-1" d="M69.62,134.75c-.64.3-1.25.59-1.9.9.9.74,1.76.54,2.63.21.83-1.82-.76-2.99-1.67-4.47v2.34c.31.33.61.66.95,1.03Z"/>
          <path class="cls-1" d="M156.53,163.03c-.28-.14-.57-.28-.88-.44l.25.35.63.09Z"/>
          <path class="cls-1" d="M157.76,163.64l.35.3.29.15s.06-.07.09-.1c-.24-.12-.48-.24-.72-.36Z"/>
          <path class="cls-1" d="M37.55,79.01c-.05-.25-.09-.47-.13-.68l-.34.2-1.29-.41-.48.11c-.22.25-.43.51-.69.69,1.6.26,2.8,2.41,4.85.93-.73-.32-1.37-.6-1.91-.84Z"/>
          <path class="cls-1" d="M61.74,156.7l.13.3-.41,1.17-.14.23c.06.15.12.29.19.45.4-.38.72-.69,1.03-.99.73-.16,1.53.3,2.49-.61-.63-.35-1.25-.69-2.27-1.25-.41.08-.73.34-1.02.69Z"/>
          <path class="cls-1" d="M87.58,156.91c.11-.54-.23-.86-.66-.92-.57-.09-1.16-.02-1.69-.02-.86.63-1.24,1.73-2.38,1.89-.06.81.46.95,1.3.95.63-.57,1.37-1.23,2.11-1.9.44,0,.88,0,1.32,0Z"/>
          <path class="cls-1" d="M90.97,134.14c.45-.45.88-.88,1.31-1.31-.5-.45-.81-1.14-1.56-1.28-.2.54-.4,1.07-.6,1.58-.88.14-1.72.28-2.82.45,1.34.96,2.53.56,3.67.56Z"/>
          <path class="cls-1" d="M101.77,125.26l-.1-.12-1.27.03-.57-.39c-.64.02-1.37-.28-1.81.5.45.45.9.9,1.34,1.34.61-.74,1.62-.89,2.41-1.36Z"/>
          <path class="cls-1" d="M83.88,35.33v1.55c1.45-.17,2.53.23,3.52-.32.01-.13.08-.28.03-.34-.39-.47-.81-.92-1.17-1.31-.86.2-1.67-.29-2.38.42Z"/>
          <path class="cls-1" d="M125.24,145.6l.8.98.55.37c.18-.37.35-.73.53-1.09-.64-.33-1.26-.44-1.88-.26Z"/>
          <path class="cls-1" d="M73.42,120.58c-.06-.99-.09-2.03-.21-3.06-.02-.13-.44-.21-.71-.31.02.08.04.16.06.25-.06-.05-.12-.1-.17-.15-.26.46-.52.91-.82,1.44.24.21.57.5.9.78-.35.37-.66.7-.96,1.01v1.38c.94.05,1.13-.93,1.91-1.35Z"/>
          <path class="cls-1" d="M63.74,73.5l-.24.05c.07.03.14.07.22.09,0-.05.01-.1.02-.15Z"/>
          <path class="cls-1" d="M143.8,92.64q1.92,1.86,2.27,1.52.11-1.32-.42-2.58c-.98.36-2.07-.26-3.08.39-.02.99.76.52,1.23.66Z"/>
          <path class="cls-1" d="M167.22,77.38l.63-.83c-.05-.25-.21-.53-.45-.95h-2.01c-.49,1.07-.14,1.61.34,2.05v-.03s1.49-.24,1.49-.24Z"/>
          <path class="cls-1" d="M153.53,71.79c.4-.04.79-.26,1.17-.45.25-.12.46-.35.72-.46.39-.16.8-.25,1.25-.38-.1-.53-.17-.95-.35-1.93-.97,1.65-2.82,1.28-3.47,2.79.21.13.46.44.68.41Z"/>
          <path class="cls-1" d="M118.76,130.26c-.04-.82.2-1.67-.36-2.64-.43.04-.95.1-1.47.15.1,1.05-.54,2.01.48,2.66h1.32c-.02-.09-.04-.17-.07-.26.04.03.06.05.1.08Z"/>
          <path class="cls-1" d="M80.34,123.98c-.12.02-.22.2-.41.4.12.36.23.78.4,1.17.17.39.52.73.6,1.13.09.44.07.83.76.74.34-1.14.37-2.29-.05-3.54-.47.03-.89.04-1.3.11Z"/>
          <path class="cls-1" d="M102.65,144.4l.76-.59c-.04-.07-.08-.14-.12-.2-1.1.18-1.92-.25-2.24.19.27.47.53.9.74,1.28l.85-.68Z"/>
          <path class="cls-1" d="M65.34,149.36c.76-.16,1.56.29,2.21-.31-.41-.85-.82-1.7-1.24-2.56-.6.88-2.32,1.37-.98,2.87Z"/>
          <path class="cls-1" d="M44.14,79.78c-.41-.16-.8-.32-1.07-.43-1.01.53-1.88.98-2.81,1.47.07.4.14.82.22,1.26,1.38-.61,2.76-.99,3.66-2.3Z"/>
          <path class="cls-1" d="M69.22,86.92c-.43.46-.93.99-1.43,1.52.43.43.87.87,1.31,1.31.45-.35.9-.7,1.48-1.14-.03-.35-.08-.93-.13-1.46-.5-.09-.78-.14-1.23-.22Z"/>
          <path class="cls-1" d="M128.68,105.67l.04.15c.3.34.52.82,1.1.81.58-.7.16-1.49.32-2.31-.69-.13-.76-1.15-1.61-1.15-.51.62-.24,1.31-.29,2.03l.44.46Z"/>
          <path class="cls-1" d="M99.28,49.11c1.29-.65,1.93-.98,2.65-1.35-1.15-.72-1.99-.66-3.02-.15.07.46.15.99.22,1.5h.14Z"/>
          <path class="cls-1" d="M98.42,54.62c-.39.57-.8,1.19-1.38,2.03,0,.01.08.43.14.73.82-.8,1.61-1.59,2.37-2.34-.08-.03-.47-.18-1.14-.42Z"/>
          <path class="cls-1" d="M148.03,141.72l.02-1.31-.03-.03c-.29.32-.55.71-.89.94v1.4c.38-.29.71-.54.99-.76l-.1-.25Z"/>
          <path class="cls-1" d="M140.31,126.66c.42-.25.75-.46,1.06-.65l-.51-.58.09-.67c-.41.02-.83.13-1.28.27-.04.5-.08,1.06-.13,1.63h.77Z"/>
          <path class="cls-1" d="M125.85,129.87c-.16,2.06-2.15.82-2.36,2.42.09-.02.18-.04.28-.07-.03.04-.06.07-.09.11h1.22c.34.31.67.61,1,.92.75-.82.49-1.69-.05-3.38Z"/>
          <path class="cls-1" d="M35.2,80.24c-.66.66-1.09,1.09-1.56,1.56.07.38.14.79.26,1.44.46-.37.71-.68,1.04-.83.5-.23,1.05-.36,1.18-.4-.28-.53-.6-1.15-.92-1.77Z"/>
          <path class="cls-1" d="M77.46,73.66c1.58.17,1.68-.52,1.61-1.38-.94-.78-1.88-.77-2.59-.2.39.62.78,1.25.99,1.58Z"/>
          <path class="cls-1" d="M67.23,177.69c-.42.86-.83,1.7-1.24,2.56.42.33.82.42,1.21.25l.42-.49c.11-.81.42-1.63-.39-2.32Z"/>
          <path class="cls-1" d="M52.34,112.71l.9.35.03.02c.28-1.6.25-1.64-.35-2.36-.43.43-.85.85-1.28,1.28.27.19.47.46.7.71Z"/>
          <path class="cls-1" d="M112.52,66.37c-.45.39-.89.78-1.34,1.16.48.48.91.91,1.6,1.6.35-2.2.33-2.2-.26-2.76Z"/>
          <path class="cls-1" d="M119.45,66.99c-.63.12-1.06.2-1.54.29v1.83c.83-.16,1.25-.24,1.87-.36-.12-.65-.22-1.18-.33-1.77Z"/>
          <path class="cls-1" d="M157.05,76.54c.55-.54,1-.98,1.44-1.41,0-.49,0-.96,0-1.43-.98.21-1.51.91-1.93,1.85.14.28.31.62.5.98Z"/>
          <path class="cls-1" d="M151.64,75.45c.39-1.15.37-2.3-.28-4.4-.58,4.37-.56,4.37.28,4.4Z"/>
          <path class="cls-1" d="M80.01,60.75v1.15c.64.67,1.27.69,1.94-.08-.08-.37-.16-.8-.29-1.41-.66.14-1.18.25-1.66.35Z"/>
          <path class="cls-1" d="M53.83,96.57q-.26,1.74.32,2.53c.43-.43.85-.85,1.28-1.28-.55-.39-.82-1.14-1.6-1.25Z"/>
          <path class="cls-1" d="M113.42,61.06l-.06-1.25c-.06.03-.12.05-.19.08v1.61c.1-.05.18-.1.28-.15l-.03-.29Z"/>
          <path class="cls-1" d="M40.22,88.7c-.83.16-1.25.24-1.87.36.12.65.22,1.18.33,1.77.63-.12,1.06-.2,1.54-.29v-1.83Z"/>
          <path class="cls-1" d="M144.3,88.84v.03c.57-.04,1.13-.09,1.91-.15-.08-.69-.13-1.21-.21-1.93-.75.21-1.25.34-1.69.47v1.58Z"/>
          <path class="cls-1" d="M96.92,147.44c-.69.08-1.21.13-1.93.21.21.75.34,1.25.47,1.69h1.61c-.04-.57-.09-1.13-.15-1.91Z"/>
          <path class="cls-1" d="M141.72,149.25c.81-.27,1.3-.9,1.68-1.76-.14-.28-.31-.62-.5-.98-.55.54-1,.98-1.44,1.41,0,.47,0,.93,0,1.38.09-.02.18-.04.26-.07,0,0,0,.01-.01.02Z"/>
          <path class="cls-1" d="M69.13,158.05c.68-.28,1.07-.43.99-.4-.3-.57-.65-1.25-.98-1.89-.68.28-1.07.43-.99.4.3.57.65,1.25.98,1.89Z"/>
          <path class="cls-1" d="M94.19,152.66c.21.22.41.36.62.44l.51-.6.68-.57c-.04-.22-.09-.47-.15-.76-.66.14-1.18.25-1.66.35v1.15Z"/>
          <path class="cls-1" d="M106.15,126.84l-.63-.14c0,.42,0,.83.03,1.24.02.19.34.35.53.53.19-.4.38-.79.58-1.21l-.52-.43Z"/>
          <path class="cls-1" d="M97.07,37.68c.54.92.89,1.52,1.51,2.58.23-1.12.31-1.54.29-1.42-.54-.92-.89-1.52-1.51-2.58-.18.91-.27,1.35-.29,1.42Z"/>
          <path class="cls-1" d="M97.07,37.68h0s0,.02,0,0Z"/>
          <path class="cls-1" d="M79.84,40.47c.08-.43.15-.84.23-1.23-.07-.05-.14-.11-.21-.17l-.98.89c.25.25.53.45.97.52Z"/>
          <path class="cls-1" d="M129.17,132.37c-.09.02-.17.04-.26.07.01-.01.02-.02.03-.04-.21.06-.43.11-.52.24-.36.54-.29,1.09.16,1.48h2.59c-.48-1.25-2.12-.33-2.01-1.75Z"/>
          <path class="cls-1" d="M80.94,163.08c-.03-.36-.06-.77-.14-1.76-.56.56-.86.73-.95.98-.11.29-.54.18-.73.34.02.07.03.14.05.21-.04-.04-.08-.07-.12-.1-.02.07-.02.15.01.28.57.71,1.17.71,1.87.06Z"/>
          <path class="cls-1" d="M86.37,131.37c.41.44.67.91.94.92.69.02,1.49.34,2.11-.37-.72-.93-1.7-.45-2.79-.55v.02c-.08-.01-.17-.01-.26-.02Z"/>
          <path class="cls-1" d="M102.72,134.21c.27-.08.52-.21.78-.31-.11-.21-.19-.46-.35-.64-.29-.33-.62-.61-1.14-1.11-.11.7-.19,1.22-.32,2.06.73,0,.89.03,1.03,0Z"/>
          <path class="cls-1" d="M113.78,132.88c2.28.43,2.28.41,2.95-.24-.84-.47-1.67-.47-2.95.24Z"/>
          <path class="cls-1" d="M146.68,157.85l.43.6c.03-.18.06-.38.09-.6-.23,0-.39,0-.52,0Z"/>
          <path class="cls-1" d="M86.37,131.37c.09,0,.17,0,.26.02v-.95q-2.06.02-2.68.65c.76.52,1.61.25,2.42.28Z"/>
          <path class="cls-1" d="M69.62,174.46c-.07-.43-.15-.95-.2-1.32-.65.41-1.24.77-1.85,1.15.82.76,1.34.72,2.05.17Z"/>
          <path class="cls-1" d="M62.05,165.1c-.06-.5-.11-1.01-.19-1.71-.43.11-.77.19-1.09.27l-.18.37c.44.43.46,1.42,1.45,1.07Z"/>
          <path class="cls-1" d="M104.57,129.65c.04.52.08,1.04.13,1.72.66-.04,1.17-.08,1.79-.12-.51-.92-.96-1.56-1.85-1.74.02.08.04.16.06.24-.05-.04-.08-.07-.13-.11Z"/>
          <path class="cls-1" d="M33.27,88.83c-.43.07-.95.15-1.32.2.41.65.77,1.24,1.15,1.85.76-.82.72-1.34.17-2.05Z"/>
          <path class="cls-1" d="M141.27,88.05c-.65.41-1.24.77-1.84,1.15.82.76,1.34.72,2.05.17-.07-.43-.15-.95-.2-1.32Z"/>
          <path class="cls-1" d="M87.45,139.25s0,0,0,.01c.1.2.14.54.23.89-.06-.05-.1-.09-.15-.13.04,1.15-.25,2.01.59,2.67.65-.99.75-1.91-.67-3.44Z"/>
          <path class="cls-1" d="M112.64,58.48l-.33-.85-.38-.32c-.29.31-.55.55-.56.99.42.32.82.42,1.27.18Z"/>
          <path class="cls-1" d="M138.16,89.8c.79-.96.79-1.91,0-2.87-.79.96-.79,1.91,0,2.87Z"/>
          <path class="cls-1" d="M85.95,44.77c-2.33-.41-2.33-.39-2.92.28.84.44,1.68.48,2.92-.28Z"/>
          <path class="cls-1" d="M58.28,81.75c-.96-.79-1.91-.79-2.87,0,.96.79,1.91.79,2.87,0Z"/>
          <path class="cls-1" d="M89.47,69.93s.02,0,.03.01c0-.08-.01-.15-.02-.23-.04-.49-.07-1-.12-1.65-.66.04-1.17.08-1.79.12.52.93.98,1.59,1.9,1.75Z"/>
          <path class="cls-1" d="M131.83,75.89c-.84-.44-1.68-.48-2.92.28,2.33.41,2.33.39,2.92-.28Z"/>
          <path class="cls-1" d="M65.76,145.56c.73,0,.89.03,1.03,0,.27-.08.52-.21.78-.31-.11-.21-.19-.46-.35-.64-.29-.33-.62-.61-1.14-1.11-.11.7-.19,1.22-.32,2.06Z"/>
          <path class="cls-1" d="M163.46,80.28l.64-.91.69-.15c.09-.14.15-.3.15-.5-.56-.43-1.09-.46-1.76.18.06.31.14.69.27,1.37Z"/>
          <path class="cls-1" d="M35.49,85.44c-.53-.35-.77-1.12-1.72-1.14-.04.56-.08,1.11-.12,1.66.1-.02.19-.04.29-.07-.03.03-.05.06-.07.08.6-.03,1.31.37,1.62-.53Z"/>
          <path class="cls-1" d="M162.01,64.43c.08-.5.14-.91.22-1.41l-.85-.04-.74-.04c.06.14.13.27.23.38.29.33.62.61,1.14,1.11Z"/>
          <path class="cls-1" d="M145.26,147.56c.04.66.08,1.17.12,1.79.94-.53,1.61-.98,1.76-1.92,0,0,0,0,0-.01-.57.04-1.12.08-1.88.14Z"/>
          <path class="cls-1" d="M84.9,148.09c.84.47,1.67.47,2.95-.25-2.28-.43-2.28-.41-2.95.25Z"/>
          <path class="cls-1" d="M143.37,67.58c.64.66,1.26.66,1.93-.09-.07-.37-.15-.79-.23-1.22-.88.17-1.18.87-1.69,1.3Z"/>
          <path class="cls-1" d="M153.12,68.04c.5-.06,1.01-.11,1.71-.19-.19-.74-.31-1.24-.44-1.75.02,1-1.71.68-1.27,1.94Z"/>
          <path class="cls-1" d="M66.67,81.29c-.66.04-1.17.08-1.79.12.53.94.98,1.61,1.92,1.76,0,0,0,0,.01,0-.04-.57-.08-1.12-.14-1.88Z"/>
          <path class="cls-1" d="M151.89,65.68c-.08-.42-.19-.94-.44-2.2-.31,1.43-1.3,1.52-1.32,2.38.56.43,1.09.46,1.76-.18Z"/>
          <path class="cls-1" d="M51.82,83.58c1.43.31,1.52,1.31,2.38,1.32.43-.56.46-1.09-.18-1.76-.42.08-.94.19-2.2.44Z"/>
          <path class="cls-1" d="M165.77,65.76c2.28.43,2.28.41,2.95-.25-.84-.47-1.67-.47-2.95.25Z"/>
          <path class="cls-1" d="M83.35,26.43c-.18-.02-.37-.03-.53.02,0-.02,0-.04,0-.06-.21.01-.41.01-.6,0l-.3.84-.09.12c.44-.12.94-.41,1.52-.93Z"/>
          <path class="cls-1" d="M83.35,26.43c.52.06,1.05.21,1.31-.55-.53-.35-.77-1.12-1.72-1.14-.04.56-.08,1.1-.12,1.65,0,.02,0,.04,0,.06.17-.05.35-.04.53-.02Z"/>
          <path class="cls-1" d="M35.73,104.29c.31-.31.61-.62.95-.99-.65-.12-1.17-.22-2.22-.42.04.19.07.36.1.52l.51.34.66.55Z"/>
          <path class="cls-1" d="M67.73,138.02c.08.27.21.52.31.78.21-.11.46-.19.64-.35.33-.29.61-.62,1.11-1.14-.7-.11-1.22-.19-2.06-.32,0,.73-.03.89,0,1.03Z"/>
          <path class="cls-1" d="M64.87,137.06c-.27.08-.52.21-.78.31.11.21.19.46.35.64.29.33.62.61,1.14,1.11.11-.7.19-1.22.32-2.06-.73,0-.89-.03-1.03,0Z"/>
          <path class="cls-1" d="M95.53,136.03c1.01-.35.38-1.2.55-1.81q-.97.56-.55,1.81Z"/>
          <path class="cls-1" d="M79.84,133.9c-.06-.22-.21-.59-.34-.6-.41-.02-.84.09-1.25.15.01.2.02.4.03.6.42.06.84.13,1.26.15.1,0,.32-.23.3-.3Z"/>
          <path class="cls-1" d="M101.76,140.84q-.56-.97-1.81-.55c.35,1.01,1.2.38,1.81.55Z"/>
          <path class="cls-1" d="M81.12,136.89c.42.06.84.13,1.26.15.1,0,.32-.23.3-.3-.06-.22-.21-.59-.34-.6-.41-.02-.84.09-1.25.15.01.2.02.4.03.6Z"/>
          <path class="cls-1" d="M85.21,141.78c-.68.63-.68,1.26,0,1.9.68-.63.68-1.26,0-1.9Z"/>
          <path class="cls-1" d="M133.97,139.42c-.86-.61-1.46-.89-1.85.14.55.51,1.08.48,1.85-.14Z"/>
          <path class="cls-1" d="M145.8,139.03c-1.01.35-.38,1.2-.55,1.81q.97-.56.55-1.81Z"/>
          <path class="cls-1" d="M124.32,139.71c-.01-.2-.02-.4-.03-.6-.42-.06-.84-.13-1.26-.15-.1,0-.32.23-.3.3.06.22.21.59.34.6.41.02.84-.09,1.25-.15Z"/>
          <path class="cls-1" d="M56.38,94.98c-.63-.68-1.26-.68-1.9,0,.63.68,1.26.68,1.9,0Z"/>
          <path class="cls-1" d="M93.09,19.99c-.42-.06-.84-.13-1.26-.15-.1,0-.32.23-.3.3.06.22.21.59.34.6.41.02.83-.09,1.25-.15-.01-.2-.02-.4-.03-.6Z"/>
          <path class="cls-1" d="M33.21,101.13c.68-.63.68-1.26,0-1.9-.68.63-.68,1.26,0,1.9Z"/>
          <path class="cls-1" d="M31.4,100.26c-.57.2-.61.55-.58.93l.12.07.71.12c.05-.22-.05-.53-.25-1.12Z"/>
          <path class="cls-1" d="M91.43,65.68c-.86-.61-1.46-.89-1.85.14.55.51,1.08.48,1.85-.14Z"/>
          <path class="cls-1" d="M39.83,84.11c-.68.63-.68,1.26,0,1.9.68-.63.68-1.26,0-1.9Z"/>
          <path class="cls-1" d="M75.42,83.35c.01.2.02.4.03.6.08.01.16.02.24.03l.09-.69c-.12.02-.24.04-.36.06Z"/>
          <path class="cls-1" d="M82.96,63.92c.55.51,1.08.48,1.85-.14-.86-.61-1.46-.89-1.85.14Z"/>
          <path class="cls-1" d="M132.48,77.49c-.68.63-.68,1.26,0,1.9.68-.63.68-1.26,0-1.9Z"/>
          <path class="cls-1" d="M148.01,69.46c.86.61,1.46.89,1.85-.14-.55-.51-1.08-.48-1.85.14Z"/>
          <path class="cls-1" d="M172.05,69.1c-.51.55-.48,1.08.14,1.85.61-.86.89-1.46-.14-1.85Z"/>
          <path class="cls-1" d="M128.19,72.76s-.02-.08-.03-.12c-.48-.83-.55-.82-1.74-.43.34.99,1.16.41,1.77.55Z"/>
          <path class="cls-1" d="M76.15,80.4c-.24.03-.49.08-.73.11.01.2.02.4.03.6.12.02.24.03.36.05l.37-.49-.03-.28Z"/>
          <path class="cls-1" d="M70.56,88.84q.56.97,1.81.55c-.35-1.01-1.2-.38-1.81-.55Z"/>
          <path class="cls-1" d="M91.2,50.24c-.42-.06-.84-.13-1.26-.15-.1,0-.32.23-.3.3.06.22.21.59.34.6.41.02.84-.09,1.25-.15-.01-.2-.02-.4-.03-.6Z"/>
          <path class="cls-1" d="M140.2,90.9c-.22.06-.59.21-.6.34-.02.41.09.84.15,1.25.2-.01.4-.02.6-.03.06-.42.13-.84.15-1.26,0-.1-.23-.32-.3-.3Z"/>
          <path class="cls-1" d="M60.09,91.2c.86.61,1.46.89,1.85-.14-.55-.51-1.08-.48-1.85.14Z"/>
          <path class="cls-1" d="M29.92,92.15c0,.1.23.32.3.3.22-.06.59-.21.6-.34.02-.41-.09-.84-.15-1.25-.2.01-.4.02-.6.03-.06.42-.13.84-.15,1.26Z"/>
          <path class="cls-1" d="M100.34,58.59c.68-.63.68-1.26,0-1.9-.68.63-.68,1.26,0,1.9Z"/>
          <path class="cls-1" d="M79.07,56.22c-.63-.68-1.26-.68-1.9,0,.63.68,1.26.68,1.9,0Z"/>
          <path class="cls-1" d="M90.86,125.7c.12,0,.33-.22.32-.29-.06-.23-.18-.59-.32-.61-.45-.08-.92-.03-1.39-.03v.95c.46,0,.93.02,1.39-.01Z"/>
          <path class="cls-1" d="M88.52,10.37c.2.32.34.78.63.91.35.15.81.05,1.22.04.01,0,.03,0,.04,0-.2-.32-.34-.78-.63-.91-.36-.16-.84-.04-1.26-.04Z"/>
          <path class="cls-1" d="M94.27,147.93c-.86-.61-1.46-.89-1.85.14.55.51,1.08.48,1.85-.14Z"/>
          <path class="cls-1" d="M98.84,144.07q-1.25-.41-1.81.55c.61-.17,1.46.46,1.81-.55Z"/>
          <path class="cls-1" d="M83.4,143.75c-.99.34-.41,1.16-.55,1.77.04,0,.08-.02.12-.03.83-.48.82-.55.43-1.74Z"/>
          <path class="cls-1" d="M62.37,153.9c.22-.06.59-.21.6-.34.02-.41-.09-.84-.15-1.25-.2.01-.4.02-.6.03-.06.42-.13.84-.15,1.26,0,.1.23.32.3.3Z"/>
          <path class="cls-1" d="M91.91,149.43c-.99.34-.41,1.16-.55,1.77.04,0,.08-.02.12-.03.83-.48.82-.55.43-1.74Z"/>
          <path class="cls-1" d="M60.16,165.1l-.08.19.09.44c.04-.2.02-.41-.01-.63Z"/>
          <path class="cls-1" d="M84.74,138.95c-.65-.02-.97.29-.95.95.65.02.97-.29.95-.95Z"/>
          <path class="cls-1" d="M87.45,139.27c-.11-.23-.29-.28-.73.06.23.19.46.39.81.69.05.04.1.08.15.13-.1-.35-.14-.69-.23-.89Z"/>
          <path class="cls-1" d="M69.48,140.23c-.13-.13-.23-.23-.34-.34-.1.21-.25.41-.3.63-.02.08.19.21.3.31.11-.21.23-.41.34-.61Z"/>
          <path class="cls-1" d="M106.48,140.88c.21-.05.4-.08.55-.14l.2-.13c.1-.12.07-.3-.19-.64-.2.23-.41.48-.73.86-.03.04-.06.07-.09.11.09-.03.18-.05.26-.07Z"/>
          <path class="cls-1" d="M116.88,140.36c.21.11.41.23.61.34.13-.13.23-.23.34-.34-.21-.11-.41-.25-.63-.3-.08-.02-.21.19-.31.3Z"/>
          <path class="cls-1" d="M121.14,140.84c.11-.21.23-.41.34-.61-.13-.13-.23-.23-.34-.34-.1.21-.25.41-.3.63-.02.08.19.21.3.31Z"/>
          <path class="cls-1" d="M128.86,140.07c-.22.05-.42.19-.63.3.11.1.21.21.34.34.2-.11.4-.22.61-.34-.11-.11-.23-.31-.31-.3Z"/>
          <path class="cls-1" d="M78.12,137.22c.11.54.21.9.86.39-.23-.2-.47-.4-.85-.73.03.14.06.28.1.43-.04-.04-.07-.06-.11-.1Z"/>
          <path class="cls-1" d="M113.57,138.95c.11-.1.21-.21.34-.34-.11-.2-.22-.4-.34-.61-.1.11-.31.23-.3.31.05.22.19.42.3.63Z"/>
          <path class="cls-1" d="M128.41,144.31c-.02.08.19.21.3.31.11-.21.23-.41.34-.61-.13-.13-.23-.23-.34-.34-.1.21-.25.41-.3.63Z"/>
          <path class="cls-1" d="M67.54,142.42c-.05-.22-.19-.42-.3-.63-.11.11-.31.23-.3.31.05.22.19.42.3.63.11-.1.31-.23.3-.31Z"/>
          <path class="cls-1" d="M97.5,142.73c.11-.21.23-.41.34-.61-.13-.13-.23-.23-.34-.34-.11.21-.25.41-.3.63-.02.08.19.21.3.31Z"/>
          <path class="cls-1" d="M125.08,141.96c-.22.05-.42.19-.63.3.1.11.23.31.31.3.22-.05.42-.19.63-.3-.1-.11-.23-.31-.31-.3Z"/>
          <path class="cls-1" d="M119.63,131c-.24-.2-.48-.41-.87-.74-.03-.03-.06-.05-.1-.08.03.09.05.18.07.26.14.63.17,1.12.9.56Z"/>
          <path class="cls-1" d="M129.17,132.37c.63-.14,1.12-.17.56-.9-.21.25-.43.5-.79.93-.01.01-.02.02-.03.04.09-.03.18-.05.26-.07Z"/>
          <path class="cls-1" d="M104.7,129.76c-.02-.08-.04-.16-.06-.24-.14-.64-.17-1.15-.9-.58.23.2.47.4.84.71.04.04.08.07.13.11Z"/>
          <path class="cls-1" d="M95.91,130.13c-.05-.22-.19-.42-.3-.63-.11.11-.21.21-.34.34.11.2.22.4.34.61.1-.11.31-.23.3-.31Z"/>
          <path class="cls-1" d="M101.28,130.44c.11-.21.23-.41.34-.61-.13-.13-.23-.23-.34-.34-.11.21-.25.41-.3.63-.02.08.19.21.3.31Z"/>
          <path class="cls-1" d="M121.79,129.8c.05.22.19.42.3.63.1-.11.21-.21.34-.34-.11-.2-.22-.4-.34-.61-.11.11-.31.23-.3.31Z"/>
          <path class="cls-1" d="M88.05,135.16c-.11.1-.31.23-.3.31.05.22.19.42.3.63.11-.11.21-.21.34-.34-.11-.2-.22-.4-.34-.61Z"/>
          <path class="cls-1" d="M78.23,137.32c-.04-.15-.07-.29-.1-.43-.12-.54-.21-.9-.86-.39.23.2.47.41.85.73.04.03.07.06.11.1Z"/>
          <path class="cls-1" d="M98.07,137.27c-.19-.72-.15-1.41-.95-.78.25.21.51.43.94.8.01,0,.02.02.03.02,0-.02,0-.03-.01-.04Z"/>
          <path class="cls-1" d="M82.89,133.27c-.14-.63-.17-1.12-.9-.56.22.19.45.38.79.68.06.05.11.09.17.15-.03-.09-.05-.18-.07-.26Z"/>
          <path class="cls-1" d="M107.61,132.64c.05.22.19.42.3.63.11-.11.21-.21.34-.34-.11-.2-.22-.4-.34-.61-.11.11-.31.23-.3.31Z"/>
          <path class="cls-1" d="M123.49,132.29c-.62.14-1.1.18-.55.9.2-.23.41-.48.73-.86.03-.04.06-.07.09-.11-.09.03-.19.05-.28.07Z"/>
          <path class="cls-1" d="M132.82,134.83c-.11-.2-.22-.4-.34-.61-.11.11-.31.23-.3.31.05.22.19.42.3.63.1-.1.21-.21.34-.34Z"/>
          <path class="cls-1" d="M136.82,134.6c.26.22.51.44.97.82,0,0,0,0,0,0-.03-.09-.05-.18-.07-.27-.14-.62-.18-1.11-.9-.55Z"/>
          <path class="cls-1" d="M72.58,156.57c.13.13.23.23.34.34.11-.21.25-.41.3-.63.02-.08-.19-.21-.3-.31-.11.21-.23.41-.34.61Z"/>
          <path class="cls-1" d="M65.65,154.71c-.05-.22-.19-.42-.3-.63-.1.11-.21.21-.34.34.11.2.22.4.34.61.11-.11.31-.23.3-.31Z"/>
          <path class="cls-1" d="M90.45,155.96c-.14-.63-.17-1.12-.9-.56.23.2.48.41.86.73.04.03.07.06.11.09-.03-.09-.05-.18-.07-.27Z"/>
          <path class="cls-1" d="M153.93,155.33c.05.22.19.42.3.63.11-.11.31-.23.3-.31-.05-.22-.19-.42-.3-.63-.11.11-.31.23-.3.31Z"/>
          <path class="cls-1" d="M79.12,162.63c-.15-.65-.17-1.19-.91-.61.23.2.47.4.85.72.04.03.07.06.12.1-.02-.07-.04-.14-.05-.21Z"/>
          <path class="cls-1" d="M65.36,160.69c.11-.11.31-.23.3-.31-.05-.22-.19-.42-.3-.63-.1.11-.21.21-.34.34.11.2.22.4.34.61Z"/>
          <path class="cls-1" d="M138.16,148.4c-.11.11-.31.23-.3.31.05.22.19.42.3.63.11-.11.21-.21.34-.34-.11-.2-.22-.4-.34-.61Z"/>
          <path class="cls-1" d="M82.29,146.42c.22-.26.44-.51.82-.97-.05.01-.09.02-.14.03-.04,0-.08.02-.12.03-.63.14-1.13.17-.57.9Z"/>
          <path class="cls-1" d="M147.14,147.42s0,0,0,.01c0,0,0,.01,0,.02.65.02.97-.29.95-.95-.64-.02-.95.28-.94.91Z"/>
          <path class="cls-1" d="M85.21,153.13c.11-.21.23-.41.34-.61-.13-.13-.23-.23-.34-.34-.11.21-.25.41-.3.63-.02.08.19.21.3.31Z"/>
          <path class="cls-1" d="M62.95,150.29c.14.63.17,1.12.9.56-.23-.2-.48-.41-.86-.73-.04-.03-.07-.06-.11-.09.03.09.05.18.07.27Z"/>
          <path class="cls-1" d="M85.82,150.63c.11.2.22.4.34.61.11-.11.31-.23.3-.31-.05-.22-.19-.42-.3-.63-.1.1-.21.21-.34.34Z"/>
          <path class="cls-1" d="M132.64,149.52s-.01,0-.02,0l.09.02s-.05-.03-.07-.02Z"/>
          <path class="cls-1" d="M140.9,150.2c.22-.25.44-.51.81-.95,0,0,0,0,.01-.02-.09.03-.18.05-.26.07-.63.14-1.12.17-.56.9Z"/>
          <path class="cls-1" d="M90.8,152.09c.22-.26.44-.51.82-.97-.05.01-.09.02-.14.03-.04,0-.08.02-.12.03-.63.14-1.13.17-.57.9Z"/>
          <path class="cls-1" d="M53.36,102.38c.02-.08-.19-.21-.3-.31-.11.21-.23.41-.34.61.13.13.23.23.34.34.1-.21.25-.41.3-.63Z"/>
          <polygon class="cls-1" points="126.34 102.55 126.34 102.55 126.34 102.55 126.34 102.55"/>
          <path class="cls-1" d="M48.99,103.33c.05.22.19.42.3.63.1-.11.31-.23.3-.31-.05-.22-.19-.42-.3-.63-.11.11-.31.23-.3.31Z"/>
          <path class="cls-1" d="M54.8,109.81c-.08-.02-.21.19-.31.3.21.11.41.23.61.34.13-.13.23-.23.34-.34-.21-.11-.41-.25-.63-.3Z"/>
          <path class="cls-1" d="M59.98,111.22c-.05-.22-.19-.42-.3-.63-.11.11-.21.21-.34.34.11.2.22.4.34.61.11-.11.31-.23.3-.31Z"/>
          <path class="cls-1" d="M52.59,107.27c-.1-.11-.23-.31-.31-.3-.22.05-.42.19-.63.3.11.1.23.31.31.3.22-.05.42-.19.63-.3Z"/>
          <path class="cls-1" d="M66.14,95.28c.22-.05.42-.19.63-.3-.11-.1-.21-.21-.34-.34-.2.11-.4.22-.61.34.11.11.23.31.31.3Z"/>
          <path class="cls-1" d="M38.59,94.82c.05.22.19.42.3.63.11-.11.21-.21.34-.34-.11-.2-.22-.4-.34-.61-.11.11-.31.23-.3.31Z"/>
          <path class="cls-1" d="M41.42,92.63c-.14.03-.28.06-.43.1.04-.04.06-.07.1-.11-.54.12-.9.21-.39.86.2-.23.4-.47.73-.85Z"/>
          <path class="cls-1" d="M62.86,92.96c-.13-.13-.23-.23-.34-.34-.11.21-.25.41-.3.63-.02.08.19.21.3.31.11-.21.23-.41.34-.61Z"/>
          <path class="cls-1" d="M34.94,92.44c.22-.05.42-.19.63-.3-.11-.11-.23-.31-.31-.3-.22.05-.42.19-.63.3.11.1.23.31.31.3Z"/>
          <path class="cls-1" d="M41.42,92.63c.54-.12.9-.2.39-.86-.2.23-.4.47-.73.85-.03.04-.06.07-.1.11.15-.04.29-.07.43-.1Z"/>
          <path class="cls-1" d="M70.42,92.01c-.13-.13-.23-.23-.34-.34-.1.21-.25.41-.3.63-.02.08.19.21.3.31.11-.21.23-.41.34-.61Z"/>
          <path class="cls-1" d="M29.23,100.59l.48.05s.04-.08.07-.12c-.13-.13-.23-.23-.34-.34-.07.14-.14.27-.21.41Z"/>
          <path class="cls-1" d="M59.21,98.77c.1.11.23.31.31.3.22-.05.42-.19.63-.3-.11-.11-.21-.21-.34-.34-.2.11-.4.22-.61.34Z"/>
          <path class="cls-1" d="M87.18,120.9l-.18-.1c.03.06.07.12.1.18.02-.02.05-.05.08-.08Z"/>
          <path class="cls-1" d="M102.84,127.26c.13.13.23.23.34.34.1-.21.25-.41.3-.63.02-.08-.19-.21-.3-.31-.11.21-.23.41-.34.61Z"/>
          <path class="cls-1" d="M97.03,128.07c.1.1.23.31.31.3.22-.05.42-.19.63-.3-.1-.11-.23-.31-.31-.3-.22.05-.42.19-.63.3Z"/>
          <path class="cls-1" d="M130.29,124.77c-.14.03-.28.06-.43.1.04-.04.06-.07.1-.11-.54.12-.9.21-.39.86.2-.23.41-.47.73-.85Z"/>
          <path class="cls-1" d="M123.68,124.13c.05.22.19.42.3.63.11-.11.21-.21.34-.34-.11-.2-.22-.4-.34-.61-.1.1-.31.23-.3.31Z"/>
          <path class="cls-1" d="M130.29,124.77c.54-.12.9-.2.39-.86-.2.23-.4.47-.73.85-.03.04-.06.07-.1.11.15-.04.29-.07.43-.1Z"/>
          <path class="cls-1" d="M88.84,126.46c.57.13.66-.29.63-.75h-.95c.1.26.16.71.32.75Z"/>
          <path class="cls-1" d="M55.9,113.42c-.11.21-.23.41-.34.61.13.13.23.23.34.34.11-.21.25-.41.3-.63.02-.08-.19-.21-.3-.31Z"/>
          <path class="cls-1" d="M59.98,114.05c-.05-.22-.19-.42-.3-.63-.11.11-.31.23-.3.31.05.22.19.42.3.63.11-.11.31-.23.3-.31Z"/>
          <path class="cls-1" d="M81.09,119.7c.13.13.23.23.34.34.11-.21.25-.41.3-.63.02-.08-.18-.2-.29-.3h-.01c-.11.21-.22.41-.33.6Z"/>
          <path class="cls-1" d="M72.49,117.22c-.14-.63-.17-1.14-.9-.58.22.19.45.38.79.68.06.05.11.09.17.15-.02-.08-.04-.17-.06-.25Z"/>
          <path class="cls-1" d="M73.58,173.26l.38-.12c-.03-.06-.06-.11-.09-.17-.09.09-.26.2-.29.28Z"/>
          <path class="cls-1" d="M70.56,171.56c.21.1.41.25.63.3.08.02.21-.19.31-.3-.21-.11-.41-.23-.61-.34-.13.13-.23.23-.34.34Z"/>
          <path class="cls-1" d="M59.77,180.63s-.01.01-.02.02l-.08.31.13.41c.25-.11.32-.29-.03-.74Z"/>
          <path class="cls-1" d="M109.32,65.68c.11.1.23.31.31.3.22-.05.42-.19.63-.3-.1-.1-.21-.21-.34-.34-.2.11-.4.22-.61.34Z"/>
          <path class="cls-1" d="M153.86,66.41c-.21-.73-.14-1.46-.97-.82.26.22.51.44.97.82Z"/>
          <path class="cls-1" d="M91.67,63.13c.22-.05.42-.19.63-.3-.11-.11-.23-.31-.31-.3-.22.05-.42.19-.63.3.1.11.23.31.31.3Z"/>
          <path class="cls-1" d="M94.5,63.13c.22-.05.42-.19.63-.3-.11-.11-.23-.31-.31-.3-.22.05-.42.19-.63.3.1.11.23.31.31.3Z"/>
          <path class="cls-1" d="M151.39,63.31c.03-.05.06-.11.09-.16h-.29c.06.05.15.11.2.16Z"/>
          <path class="cls-1" d="M97.5,64.26c.11-.21.23-.41.34-.61-.13-.13-.23-.23-.34-.34-.11.21-.25.41-.3.63-.02.08.19.21.3.31Z"/>
          <path class="cls-1" d="M115.8,69.59c-.11-.2-.22-.4-.34-.61-.1.11-.31.23-.3.31.05.22.19.42.3.63.11-.11.21-.21.34-.34Z"/>
          <path class="cls-1" d="M122.73,69.3c.05.22.19.42.3.63.1-.11.21-.21.34-.34-.11-.2-.22-.4-.34-.61-.11.11-.31.23-.3.31Z"/>
          <path class="cls-1" d="M75.15,70.54c-.11-.2-.22-.4-.34-.61-.11.1-.31.23-.3.31.05.22.19.42.3.63.1-.1.21-.21.34-.34Z"/>
          <path class="cls-1" d="M118.77,70.4c.11.1.23.31.31.3.22-.05.42-.19.63-.3-.1-.11-.23-.31-.31-.3-.22.05-.42.19-.63.3Z"/>
          <path class="cls-1" d="M141.29,67.73c-.05-.22-.19-.42-.3-.63-.11.11-.21.21-.34.34.11.2.22.4.34.61.11-.11.31-.23.3-.31Z"/>
          <path class="cls-1" d="M151.23,67.86c.22-.05.42-.19.63-.3-.1-.11-.21-.21-.34-.34-.2.11-.4.22-.61.34.11.11.23.31.31.3Z"/>
          <path class="cls-1" d="M86.49,68.38c-.13-.13-.23-.23-.34-.34-.1.21-.25.41-.3.63-.02.08.19.21.3.31.11-.21.23-.41.34-.61Z"/>
          <path class="cls-1" d="M89.64,57c.05.22.19.42.3.63.11-.1.21-.21.34-.34-.11-.2-.22-.4-.34-.61-.11.1-.31.23-.3.31Z"/>
          <path class="cls-1" d="M76.23,58.11c-.1-.1-.23-.3-.31-.29l-.37.56s.04.04.07.07c.2-.11.4-.22.61-.34Z"/>
          <path class="cls-1" d="M107.43,61.89c.21.11.41.23.61.34.13-.13.23-.23.34-.34-.21-.11-.41-.25-.63-.3-.08-.02-.21.19-.31.3Z"/>
          <path class="cls-1" d="M5.49,85.06c.54-.12.9-.21.39-.86-.2.23-.4.47-.73.85.14-.03.28-.06.43-.1-.04.04-.06.07-.1.11Z"/>
          <path class="cls-1" d="M67.72,84.11s-.03,0-.04,0c.14.63.17,1.13.9.56-.24-.2-.48-.41-.88-.75,0,.06.02.12.02.19Z"/>
          <path class="cls-1" d="M5.49,85.06s.06-.07.1-.11c-.15.04-.29.07-.43.1-.54.12-.9.21-.39.86.2-.23.41-.47.73-.85Z"/>
          <path class="cls-1" d="M144.16,85.67c-.11-.2-.22-.4-.34-.61-.11.1-.31.23-.3.31.05.22.19.42.3.63.11-.11.21-.21.34-.34Z"/>
          <path class="cls-1" d="M142.72,82.04c.22-.05.42-.19.63-.3-.11-.1-.21-.21-.34-.34-.2.11-.4.22-.61.34.1.11.23.31.31.3Z"/>
          <path class="cls-1" d="M37.29,83.8c-.05-.22-.19-.42-.3-.63-.11.11-.31.23-.3.31.05.22.19.42.3.63.1-.1.31-.23.3-.31Z"/>
          <path class="cls-1" d="M67.7,83.92c-.04-.5-.33-.76-.89-.75,0,0,0,0-.01,0,0,0-.01,0-.02,0-.02.64.28.95.9.94.02,0,.03,0,.04,0,0-.07-.01-.12-.02-.19Z"/>
          <path class="cls-1" d="M143.36,89.74c-.63.14-1.13.17-.56.9.2-.24.41-.48.75-.88-.06,0-.12.02-.19.02,0-.02,0-.03,0-.04Z"/>
          <path class="cls-1" d="M143.36,89.74s0,.03,0,.04c.07,0,.12-.01.19-.02.52-.05.78-.34.76-.93-.64-.02-.95.28-.94.9Z"/>
          <path class="cls-1" d="M30.99,87.56c.13.13.23.23.34.34.1-.21.25-.41.3-.63.02-.08-.19-.21-.3-.31-.11.21-.23.41-.34.61Z"/>
          <path class="cls-1" d="M66.3,86.95c-.11.21-.23.41-.34.61.13.13.23.23.34.34.11-.21.25-.41.3-.63.02-.08-.19-.21-.3-.31Z"/>
          <path class="cls-1" d="M33.66,85.97c-.61.13-1.08.18-.53.89.2-.24.41-.49.75-.88.03-.03.05-.05.07-.08-.1.03-.2.05-.29.07Z"/>
          <path class="cls-1" d="M49.45,88.07c-.22.05-.42.19-.63.3.1.11.21.21.34.34.2-.11.4-.22.61-.34-.1-.1-.23-.31-.31-.3Z"/>
          <path class="cls-1" d="M74.3,73.73c.14.62.18,1.1.9.54-.2-.17-.41-.35-.7-.6-.08-.07-.17-.14-.26-.23.03.1.05.19.07.28Z"/>
          <path class="cls-1" d="M129.09,73.33c-.26-.22-.51-.44-.97-.82.01.05.02.09.03.14,0,.04.02.08.03.12.14.63.17,1.13.9.57Z"/>
          <path class="cls-1" d="M158.48,78.91c.11.1.23.31.31.3.22-.05.42-.19.63-.3-.11-.11-.21-.21-.34-.34-.2.11-.4.22-.61.34Z"/>
          <path class="cls-1" d="M62.06,76.59c.62-.14,1.11-.18.55-.9-.2.23-.41.48-.73.86-.03.04-.06.07-.09.11.09-.03.18-.05.27-.07Z"/>
          <path class="cls-1" d="M50.53,77.8c.02-.08-.19-.21-.3-.31-.11.21-.23.41-.34.61.13.13.23.23.34.34.1-.21.25-.41.3-.63Z"/>
          <path class="cls-1" d="M67.9,77.8c.05.22.19.42.3.63.1-.11.21-.21.34-.34-.11-.2-.22-.4-.34-.61-.11.11-.31.23-.3.31Z"/>
          <path class="cls-1" d="M74.52,76.86c.05.22.19.42.3.63.1-.11.21-.21.34-.34-.11-.2-.22-.4-.34-.61-.11.1-.31.23-.3.31Z"/>
          <path class="cls-1" d="M87.44,29.61c-.13-.13-.23-.23-.34-.34-.11.21-.25.41-.3.63-.02.08.19.21.3.31.11-.21.23-.41.34-.61Z"/>
          <path class="cls-1" d="M84.6,28.67c-.13-.13-.23-.23-.34-.34-.11.21-.25.41-.3.63-.02.08.19.21.3.31.11-.21.23-.41.34-.61Z"/>
          <path class="cls-1" d="M90.88,31.17c-.11.1-.31.23-.3.31.05.22.19.42.3.63.1-.1.21-.21.34-.34-.11-.2-.22-.4-.34-.61Z"/>
          <path class="cls-1" d="M78.39,49.02s-.06.07-.1.11c.54-.12.9-.21.39-.86-.2.23-.41.47-.73.85.14-.03.28-.06.43-.1Z"/>
          <path class="cls-1" d="M83.32,53.86c.11-.21.23-.41.34-.61-.13-.13-.23-.23-.34-.34-.1.21-.25.41-.3.63-.02.08.19.21.3.31Z"/>
          <path class="cls-1" d="M95,53.52c-.11-.2-.22-.4-.34-.61-.1.11-.31.23-.3.31.05.22.19.42.3.63.11-.11.21-.21.34-.34Z"/>
          <path class="cls-1" d="M77.95,49.12c-.54.12-.9.21-.39.86.2-.23.41-.47.73-.85.03-.04.06-.07.1-.11-.15.04-.29.07-.43.1Z"/>
          <path class="cls-1" d="M81.13,39.04c.05.22.19.42.3.63.11-.11.31-.23.3-.31-.05-.22-.19-.42-.3-.63-.11.11-.31.23-.3.31Z"/>
          <path class="cls-1" d="M82.38,41.57c-.11.1-.31.23-.3.31.05.22.19.42.3.63.11-.1.21-.21.34-.34-.11-.2-.22-.4-.34-.61Z"/>
          <path class="cls-1" d="M100.81,41.09c.1.11.21.21.34.34.2-.11.4-.22.61-.34-.1-.11-.23-.31-.31-.3-.22.05-.42.19-.63.3Z"/>
        </g>
      </g>
    </g>
  </g>
</svg>