<?xml version="1.0" encoding="UTF-8"?>
<svg id="_レイヤー_2" data-name="レイヤー 2" xmlns="http://www.w3.org/2000/svg" viewBox="0 0 110.61 206.05">
  <defs>
    <style>
      .cls-1 {
        fill: #fff;
      }

      .cls-2 {
        fill: #e4bec6;
        fill-rule: evenodd;
      }
    </style>
  </defs>
  <g id="_レイヤー_1-2" data-name="レイヤー 1">
    <g id="stars">
      <g>
        <path class="cls-2" d="M55.53,132.01l1.13-.17,1.09.35,1.12-.48,1.49.06,1.67-.16-.07,1.44.18,1.18-.25,1.21-.11,1.2.1,1.18.77,1.13-.17,1.2.15,1.18-.4,1.21.88,1.14-.37,1.21-.31,1.2.47,1.16-.3,1.2.48,1.17.21,1.18-.06,1.22-.22,1.22-.05,1.21.67,1.19-.21,1.22-.24,1.22-.05,1.21-.04,1.21.1,1.21.07,1.21-.03,1.21.68,1.19-.37,1.22-.4,1.22.88,1.19.02,1.21.07,1.21-.03,1.21-.46,1.22.54,1.2-.33,1.22-.47,1.22.81,1.2-.21,1.22-.37,1.22.82,1.2-.95,1.23.55,1.2.44,1.2-.64,1.23-.18,1.22.7,1.2-.13,1.21-.26,1.22-.18,1.22.45,1.2-.37,1.22.76,1.19-.28,1.22-.07,1.21.29,1.2-.33,1.22.06,1.21-.08,1.21-.12,1.22-.53.71-1.37-.57.29-1.24-.33-1.18-.12-1.2-.29-1.19.41-1.25-.13-1.2v-1.21s-.58-1.16-.58-1.16l.23-1.23-.2-1.2.07-1.22-.09-1.21-.32-1.19-.23-1.19.3-1.24-.21-1.2-.04-1.21.13-1.22-.41-1.18.12-1.22-.59-1.17.43-1.25-.03-1.21-.1-1.21-.07-1.21-.78-1.15-.04-1.21.45-1.25-.64-1.16.41-1.25-.88-1.14.28-1.24-.32-1.19.53-1.26-.21-1.2.04-1.22-.59-1.17-.19-1.2.3-1.24-.8-1.14.09-1.22.37-1.25-.35-1.18.11-1.23.13-1.23-.5-1.18-.26-1.2v-1.23s.13-1.24.13-1.24l-.66-1.15.5-1.29-.43-1.18-.25-1.2-.2-1.2-.14-1.21-.1-1.22.19-1.26-.71-1.13-.4-1.17.08-1.24-.31-1.14.21.09ZM37.92,122.7l1,.68.62,1.04,1.2.43.82.83,1.08.82-1.12,1.42-.93.8-1.19.45-1.1.57-.98.74-.57,1.29-1.14.53-.95.79-1.27.35-.5,1.38-1.24.38-1.21.44-.74,1.07-1.21.45-.74,1.08-1.5.08.1-1.52.96-.8.82-.91.25-1.35.95-.81.97-.79.82-.91.81-.92.7-1.01.72-.99.8-.93.24-1.37,1.07-.73,1.09-.71.09-1.51,1.33-.84-.08.48ZM81.04,120.88l.56.17.37,1.19,1.05.79.53,1.09.69.99.36,1.19.69.98.34,1.21.42,1.06.61.95,1.18.57.4,1.08.68.89-.37,1.03-1.27.56-.62-1.02-.67-1-1.15-.39-.66-.99-1.16-.39-1.01-.63-.84-.84-.73-.97-.84-.83-1.3-.29-.73-.96-.66-.84.97-.67.99-.86.85-1,.82-1.02.86-1.01-.37-.03ZM31.03,105.23l.34,1.16-.18,1.19.65,1.09.11,1.16.29,1.37-1.44-.1-1.19.16-1.22-.27-1.21-.13-1.2.08-1.17.75-1.21-.2-1.2.12-1.22-.44-1.18.84-1.21-.41-1.21-.36-1.2.42-1.2-.36-1.23.41-1.23.13-1.22-.14-1.21-.31-1.22-.15-1.26.56-1.21-.34-1.2-.38-1.21-.2-1.2-.2-1.22-.08-1.22-.12-.56-.71.69-1.21,1.18.4,1.2.42,1.17-.88,1.19-.04,1.18-.1,1.19-.02,1.22.4,1.15-.61,1.22.24,1.24.37,1.1-.91,1.21.09,1.22.25,1.06-.95,1.3.8,1.09-.7,1.1-.59,1.27.46h1.2s1.04-.86,1.04-.86l1.19-.06,1.21.07,1.2-.02,1.08-.64,1.23.17.95-.94-.06.34ZM86.48,102.99l1.22-.16,1.17.4,1.24-.38,1.18.2,1.2.02,1.17.41h1.2s1.22.45,1.22.45l1.23.29,1.25.07,1.28-.62,1.23.32,1.25-.02,1.23.52,1.27-.77,1.23.46,1.24.39,1.25-.4,1.26.36.79.25-.65.97-1.16.09-1.19-.07-1.16.09-1.06.79-1.19-.09-1.19-.12-1.17.06-1.16.07-1.15.2-1.15.17-1.16.06-1.09.77-1.2-.28-1.27-.31-1.16.95-1.24.1-1.23.14-1.24.04-1.27-.39-1.51.47.4-1.54.58-1.26-.75-1.31.19-1.52.08.17ZM36.83,87.57l-.99-.38-.46-1.18-1.11-.73-.62-1.07-.77-.97-.44-1.19-.76-.97-.41-1.21-.53-1.13-.71-1.02-1.26-.62.15-1.42,1.3-.1.76,1.08,1.48.02.79,1.05.82,1,1.26.35.83.99,1.27.34,1.12.56.98.78.88.91.36.43-.44,1.18-1.07.68-1.07.71-.89.89-.81.91.33.08ZM75.65,82.28l.42-1.19,1.16-.54.67-1.15,1.04-.67.93-.81,1.18-.49.95-.79,1.21-.44,1.13-.54,1.01-.7.64-1.26,1.18-.46,1-.72.99.41.5,1.27-1.08.63-1.04.71-.41,1.21-1.01.74-.37,1.22-.58,1.07-.79.91-.91.83-.76.94-.16,1.35-.88.85-.9.84-.83.59-.61-.87-.9-.83-.92-.8-.88-.84-1.4-.29.43-.17ZM54.44,77.06l-.27-1.23.29-1.23-.5-1.23.09-1.23-.1-1.23.29-1.23-.1-1.23.32-1.24.18-1.24-.04-1.23-.73-1.21.22-1.24-.11-1.18.43-1.2-.85-1.15.39-1.2.32-1.2-.47-1.16.3-1.2-.48-1.16-.22-1.18.05-1.19.21-1.2.03-1.19-.69-1.15.19-1.2.22-1.2.03-1.19v-1.19s-.11-1.18-.11-1.18l-.1-1.18v-1.18s-.7-1.15-.7-1.15l.34-1.2.37-1.2-.9-1.14-.04-1.19-.07-1.19.03-1.19.46-1.2-.54-1.18.33-1.2.47-1.2-.8-1.18.21-1.2.38-1.2-.82-1.18.95-1.21-.55-1.18-.44-1.19.64-1.21.19-1.2-.7-1.18.13-1.2.27-1.2.19-1.2-.45-1.19.39-1.2-.75-1.18.29-1.2.08-1.2-.27-1.19.35-1.21-.04-1.2.52-.46.27.41.18,1.18.75,1.13-.31,1.22.31,1.17.1,1.19.28,1.17-.42,1.23.12,1.19v1.2s.56,1.15.56,1.15l-.24,1.21.19,1.18-.07,1.2.09,1.19.32,1.17.23,1.17-.29,1.22.21,1.18.04,1.19-.13,1.21.41,1.16-.12,1.21.59,1.15-.42,1.23.03,1.2.1,1.2.07,1.2.81,1.12.07,1.18-.42,1.24.68,1.12-.37,1.23.91,1.09-.25,1.22.35,1.15-.5,1.25.25,1.17v1.19s.61,1.12.61,1.12l.22,1.17-.28,1.23.82,1.1-.07,1.2-.35,1.23.36,1.15-.1,1.2-.13,1.21.5,1.14.26,1.17v1.19s-.15,1.21-.15,1.21l.64,1.13-.53,1.29.4,1.2.22,1.22.15,1.23.09,1.23.04,1.23-.26,1.26.64,1.19.32,1.22-.18,1.25.21,1.22.03,1.52-1.78-.69-1.16.42-1.15.14-1.14.15-1.12.16.14-.12Z"/>
        <g>
          <path class="cls-1" d="M56.53,71.25c.88.5,1.72.98,2.56,1.45.22-.22.44-.44.67-.67.22.11.45.22.67.34l-.15-.59-.43-.81c-.46,0-.91-.1-1.32-.49.44-.47.89-.94,1.36-1.44l-.03-.8c-.26-.08-.5-.15-.74-.22-.93,1.05-2.3,1.66-2.59,3.23Z"/>
          <path class="cls-1" d="M57.06,73.76c-.62,0-1.25,0-1.87,0-.25.25-.5.5-.76.76l.03.07-.24,1c.15.18.31.36.49.56-.14.07-.28.13-.43.2l.16.71-.14.12,1.12-.16,1.14-.15.99-.12c.07-.36.14-.71.22-1.11h2.85v-.16s-.14-.78-.14-.78h-2.44c-.31-.3-.65-.61-.99-.93Z"/>
          <path class="cls-1" d="M34.17,127.37l-.04.04s.03.1.04.14c.87.06,1.64.3,2.34-.14l.68-.68c.34.31.67.61,1.02.92h2.78c.14.13.27.25.4.36l.14-.12,1.12-1.42-.95-.72c-.9,0-1.79,0-2.62-.04-.47-.47-.69-.69-1.24-1.25-.05.12-.09.22-.13.32,0,0,0,.01.01.02,0,0-.01,0-.02,0-.16.38-.25.59-.33.8-.8.41-1.77-.06-2.64.16l-.31.21-.24,1.37Z"/>
          <path class="cls-1" d="M88.75,72.77c0,.52,0,.98,0,1.44.19.06.37.14.55.21l.36-.21-.5-1.27-.4-.17Z"/>
          <path class="cls-1" d="M17.67,107.47l-.43-.27-.62.55c.43.11.76-.05,1.05-.29Z"/>
          <path class="cls-1" d="M24.57,106.3l-.34.02-1.04.87h-1.2s-1.27-.47-1.27-.47l-.1.05c.28.02.53.1.75.31.53.93-.11,1.78.72,2.63.6-.6,1.22-1.22,1.84-1.84.44.72,1,1.39,1.29,2.16.14.36.22.75.3,1.22l.47-.3.32-.02c.09-.71.24-1.27.88-1.61-.05-.64-1.02-.73-.83-1.51-.87-.26-1.52-.7-1.79-1.5Z"/>
          <path class="cls-1" d="M3.23,110.7l.98.17.53.09c-.15-.43-.32-.89-.55-1.53-.36.48-.68.9-.96,1.27Z"/>
          <path class="cls-1" d="M52.99,12.67c.18-.72,1.21-.04,1.48-.72l-.28-.58h-1.76l-.24,1.07-.13,1.2.44.74c.66.67,1.37,1.29,2.04,1.99l-.04-.53.07-1.2-.18-1.11c-.04-.08-.09-.17-.13-.25-.47-.13-1.24.34-1.26-.6Z"/>
          <path class="cls-1" d="M83.47,79.54c-.5-.16-.91-.29-1.4-.45.39-.42.69-.75,1.03-1.12-.68-.52-1.32-.7-1.89.08v1.99c.71.24.88,1.26,2.12,1.31.28-.21.74-.57,1.26-.97h.03l.52-.6.58-1.07.08-.28c-.46-.27-.93-.54-1.41-.82-.29.6-.6,1.23-.94,1.92Z"/>
          <path class="cls-1" d="M61.2,187.25l.02.1-.23.96c.42.28.81.67,1.4,1.17.49-.49.91-.91,1.29-1.29l.15-1.03.59-1.13c-.24-.25-.51-.46-.89-.53-.56.56-1.11,1.11-1.67,1.67-.2.12-.43.12-.67.1Z"/>
          <path class="cls-1" d="M75.54,82.51l1.09.22.78.75v-.81c-.28-.24-.63-.53-1.14-.95.75-.62,1.44-1.19,2.16-1.79-.25-.14-.44-.28-.62-.37l-.59,1.01-1.16.54-.42,1.19-.11.04c0,.06,0,.12,0,.19Z"/>
          <path class="cls-1" d="M97.77,106.96l.6-.03.11-.02c-.28-.07-.5-.04-.7.05Z"/>
          <path class="cls-1" d="M86.14,130.4h.46l-.55-.85-.11-.27s-.03.05-.05.07c.05.21.14.62.24,1.05Z"/>
          <polygon class="cls-1" points="36.83 87.57 36.53 87.45 36.5 87.49 36.83 87.57"/>
          <path class="cls-1" d="M36.4,86.31c-.28.11-.54.21-.79.3l.23.58.69.26.58-.65c-.22-.23-.47-.4-.71-.5Z"/>
          <path class="cls-1" d="M32.15,78.52c-.06.66-.11,1.24-.17,1.83.1-.02.2-.05.3-.07-.03.04-.06.07-.09.1,1.18-.09,2.35.25,3.39-.17.09-.22.15-.41.18-.6l-.44-.52-.5-.14c-.31.22-.6.42-.86.6-.67-.38-1.15-.65-1.83-1.03Z"/>
          <path class="cls-1" d="M82.06,83.55c-1.07-.63-2.14-.24-3.17-.31-.13,0-.28.36-.43.56.45.45.88.88,1.31,1.31,1.2.12,1.75-.67,2.29-1.56Z"/>
          <path class="cls-1" d="M54.8,55.02s.02.07.03.1c-.02-.02-.04-.03-.06-.05-.24.32-.45.6-.66.86l.17.42-.05.21c.4.14.8.28,1.19.41.65.25-.28,1.59,1.09,1.45v-2.24c-.44-.44-.87-.89-1.46-1.48-.09.12-.16.21-.24.32Z"/>
          <path class="cls-1" d="M53.77,32.93v.18c.79-.14.94.72,1.51.94.37-.08.78.01,1.18.02l-.03-.45-.6-.83c-1.08-.55-1.29-.47-2.07-.15v.27s0,0,0,0c0,0,0,.01,0,.02Z"/>
          <path class="cls-1" d="M54.4,31.6c.4-1.74.52-2.88.17-3.79-.5.38-1.04.8-1.5,1.15.32.63.7,1.39,1.33,2.63Z"/>
          <path class="cls-1" d="M63.63,172.16c.17-.03.32-.06.47-.09l.02-.69-.07-1.21v-.26c-.35.25-.69.49-1.02.73.27.69.43,1.08.6,1.51Z"/>
          <path class="cls-1" d="M37.71,124.8c-.3-.6-.59-1.21-.9-1.83l-.14.09-.09,1.51-.42.28c.51,0,1.04-.09,1.55-.02,0,0,.01,0,.02,0,0,0,0-.01-.01-.02Z"/>
          <path class="cls-1" d="M100.7,103.88l-.85-.22-.39.19c.06.08.13.15.21.22.3-.06.64-.12,1.02-.19Z"/>
          <path class="cls-1" d="M59.37,141.29c.09.5.17.92.24,1.29.99.17,1.87.54,2.53-.14-.43-.6-.86-1.2-1.26-1.76-.69.27-1.08.43-1.51.6Z"/>
          <path class="cls-1" d="M56.76,53.28c.11.21.19.45.34.64.28.35.59.68.88,1.02.14-.03.27-.05.41-.08l.1-1.18-.02-.08c-.29-.17-.58-.34-.9-.53.01,0-.39.1-.8.21Z"/>
          <path class="cls-1" d="M52.33,33.14l.03.78.47.6c.4-.44.98-.73.94-1.59,0,0,0-.01,0-.02,0,0,0,0,0,0-.45.3-.93.23-1.45.24Z"/>
          <path class="cls-1" d="M61.79,181.7c.61-.58,1.12-1.08,1.62-1.56-.25-.66-.41-1.07-.58-1.51q-1.47,1.61-1.03,3.07Z"/>
          <path class="cls-1" d="M15.92,110.64c.02.29.05.59.07.9l.39.12,1.2-.42.12.04c-.06-.23-.12-.45-.18-.64h-1.61Z"/>
          <path class="cls-1" d="M26.63,106.33l-.27-.02v1.52c.57-.04,1.13-.09,1.91-.15-.06-.56-.11-1.01-.17-1.54l-.26.16-1.2.02Z"/>
          <path class="cls-1" d="M104.83,106.42c.09.07.16.14.22.19l.33.02,1.06-.79,1.06-.08c-.07-.19-.15-.41-.27-.67-.85.47-1.59.88-2.4,1.33Z"/>
          <path class="cls-1" d="M80.45,128.39l.54.72c-.1-.2-.18-.38-.28-.51-.28-.35-.59-.67-.89-1-.03.03-.05.06-.08.09l.71.71Z"/>
          <path class="cls-1" d="M63.25,205.89s0,.01,0,.02l.33.14.53-.72.02-.16c-.53-.04-.83.26-.88.71Z"/>
          <path class="cls-1" d="M53.43,44.53l-.22,1.2-.07.44c.78-.2,1.08-.87,1.8-1.42-.51-.1-.93-.17-1.5-.28v.07Z"/>
          <path class="cls-1" d="M86.74,73.41l-.75.3-.02.05c.08.37.25.76.53,1.22.13-.72.21-1.2.24-1.56Z"/>
          <path class="cls-1" d="M6.68,108.74c.25,0,.5-.02.75.01.37.05.62-.07.78-.29l-.4-.13h-1.16c-.04.13-.09.25-.13.36.08-.02.16-.04.25-.06-.03.04-.06.07-.09.1Z"/>
          <path class="cls-1" d="M90.16,104.01c.27-.35.68-.6.97-.98l-1.02-.18-.43.13c-.04.35.12.68.48,1.02Z"/>
          <path class="cls-1" d="M60.86,161.69c.68-.63.68-1.26,0-1.9-.68.63-.68,1.26,0,1.9Z"/>
          <path class="cls-1" d="M52.04,2.48c.08.13.18.25.32.38.68-.63.68-1.26,0-1.9-.04.04-.07.07-.1.11l.02.59-.23.82Z"/>
          <path class="cls-1" d="M15.4,108.83q-.41,1.25.55,1.81c-.17-.61.46-1.46-.55-1.81Z"/>
          <path class="cls-1" d="M31.08,104.97c-.06.03-.1.06-.15.09l-.65.64c-.03.22.07.52.25,1.08.82-.29.56-.9.53-1.45l-.03-.09.05-.26Z"/>
          <path class="cls-1" d="M55.99,132.5c-.5.54-.47,1.07.32,1.56-.19-.46.95-1.22-.32-1.56Z"/>
          <path class="cls-1" d="M56.14,46.35c.68-.63.68-1.26,0-1.9-.68.63-.68,1.26,0,1.9Z"/>
          <path class="cls-1" d="M61.07,175.98s.06-.07.09-.11c-.32,0-.54.14-.66.37v.24s.1,1.07.1,1.07c.14.15.37.24.73.21v-1.85c-.09.02-.17.04-.26.07Z"/>
          <path class="cls-1" d="M54.8,55.02c-.16-.62-.16-1.19-.73-.86l-.07.26c.2.17.43.37.76.65.02.02.04.03.06.05-.01-.03-.02-.07-.03-.1Z"/>
          <path class="cls-1" d="M54.58,41.96c-.13-.13-.23-.23-.34-.34-.1.21-.25.41-.3.63-.02.08.19.21.3.31.11-.21.23-.41.34-.61Z"/>
          <path class="cls-1" d="M53.62,47.94c.05-.06.1-.13.15-.18-.13-.07-.25-.14-.38-.21l.23.39Z"/>
          <path class="cls-1" d="M53.95,23.35c-.02.08.19.21.3.31.11-.21.23-.41.34-.61-.13-.13-.23-.23-.34-.34-.1.21-.25.41-.3.63Z"/>
          <path class="cls-1" d="M61.34,175.91c.63-.14,1.12-.17.56-.9-.2.23-.41.48-.73.86-.03.04-.06.07-.09.11.09-.03.18-.05.26-.07Z"/>
          <path class="cls-1" d="M62.28,178.71c.02-.65-.29-.97-.95-.95-.02.65.29.97.95.95Z"/>
          <path class="cls-1" d="M63.17,158.45v-.1c-.18-.1-.37-.21-.55-.31-.13.13-.23.23-.34.34.21.11.41.25.63.3.06.01.16-.12.25-.23Z"/>
          <path class="cls-1" d="M58.97,157.91c-.07.13-.14.26-.21.38l.07.11-.06.26c.07.07.14.14.2.2.11-.21.25-.41.3-.63.02-.08-.19-.21-.3-.31Z"/>
          <path class="cls-1" d="M62.92,193.07c-.22.05-.42.19-.63.3.1.11.23.31.31.3.22-.05.42-.19.63-.3-.11-.11-.23-.31-.31-.3Z"/>
          <path class="cls-1" d="M39.68,83.6c.2.17.4.35.7.59l.13-.35c-.1-.45-.23-.7-.83-.24Z"/>
          <path class="cls-1" d="M33.23,83.66l.29.37c.09-.16.18-.32.26-.48-.13-.13-.23-.23-.34-.34-.07.15-.16.29-.22.45Z"/>
          <path class="cls-1" d="M30.75,78.74l.18.38s.01-.01.02-.02c-.11-.2-.22-.4-.34-.61,0,0-.02.01-.02.02l.16.23Z"/>
          <path class="cls-1" d="M31.99,80.35c-.19.04-.37.08-.51.13l.18.53c.15-.17.32-.37.54-.63.03-.04.06-.06.09-.1-.1.03-.2.05-.3.07Z"/>
          <path class="cls-1" d="M38.51,81.94c-.11-.2-.22-.4-.34-.61-.1.1-.31.23-.3.31.05.22.19.42.3.63.11-.11.21-.21.34-.34Z"/>
          <path class="cls-1" d="M58.03,55.8c-.11.21-.23.41-.34.61.13.13.23.23.34.34.09-.19.21-.37.27-.57l-.04-.08v-.08c-.06-.07-.17-.15-.23-.22Z"/>
          <path class="cls-1" d="M57.69,58.97c.11.2.22.4.34.61.1-.11.31-.23.3-.31-.05-.22-.19-.42-.3-.63-.1.11-.21.21-.34.34Z"/>
          <path class="cls-1" d="M54.19,68.94s.04.06.05.1c.1-.11.21-.21.34-.34-.11-.2-.22-.4-.34-.61l-.09.35.04.49Z"/>
          <path class="cls-1" d="M29.66,135.22c.1-.11.31-.23.3-.31-.05-.22-.19-.42-.3-.63-.11.11-.21.21-.34.34.11.2.22.4.34.61Z"/>
          <path class="cls-1" d="M78.35,125.29c-.21-.1-.41-.25-.63-.3-.08-.02-.21.19-.31.3.21.11.41.23.61.34.13-.13.23-.23.34-.34Z"/>
          <path class="cls-1" d="M57.55,145.14c.21.11.41.25.63.3.08.02.21-.19.31-.3-.21-.11-.41-.23-.61-.34-.13.13-.23.23-.34.34Z"/>
          <path class="cls-1" d="M90.48,107.79c-.44.09-.76.18-.58.56h.11s.37-.05.37-.05c.12-.14.26-.3.43-.5-.14.03-.28.06-.43.1.04-.04.06-.07.1-.11Z"/>
          <path class="cls-1" d="M.82,109.86c-.03-.14-.06-.28-.1-.43.04.04.07.06.11.1-.07-.34-.14-.61-.35-.63l-.26.45c.16.14.35.3.59.51Z"/>
          <path class="cls-1" d="M6.68,108.74s.06-.06.09-.1c-.08.02-.17.04-.25.06-.63.14-1.15.17-.58.9.2-.24.41-.48.74-.86Z"/>
          <path class="cls-1" d="M90.48,107.79s-.06.07-.1.11c.15-.04.29-.07.43-.1.54-.12.9-.21.39-.86-.2.23-.4.47-.73.85Z"/>
          <path class="cls-1" d="M19.13,111.71l.25.09c-.04-.07-.08-.14-.12-.22-.04.04-.09.09-.13.13Z"/>
          <path class="cls-1" d="M.82,109.86c.12.54.2.9.86.39-.23-.2-.47-.4-.85-.73-.04-.03-.07-.06-.11-.1.04.15.07.29.1.43Z"/>
          <path class="cls-1" d="M98.2,105.13c.12.54.2.9.86.39-.23-.2-.47-.4-.85-.73.03.14.06.28.1.43-.04-.04-.07-.06-.11-.1Z"/>
          <path class="cls-1" d="M97.62,104.23c-.08.04-.16.1-.27.18.23.2.47.4.85.73.04.03.07.06.11.1-.04-.15-.07-.29-.1-.43-.05-.24-.1-.44-.2-.55l-.4-.02Z"/>
          <path class="cls-1" d="M31.08,104.93v-.04s0,0,0,0v.03Z"/>
          <path class="cls-1" d="M80.99,121.41l-.43.51-.03.04c.39-.09.65-.19.47-.56Z"/>
        </g>
      </g>
    </g>
  </g>
</svg>