<?xml version="1.0" encoding="UTF-8"?>
<svg id="_レイヤー_2" data-name="レイヤー 2" xmlns="http://www.w3.org/2000/svg" viewBox="0 0 88.09 86.65">
  <defs>
    <style>
      .cls-1 {
        fill: #fff;
      }

      .cls-2 {
        fill: #c5c2de;
        fill-rule: evenodd;
      }
    </style>
  </defs>
  <g id="_レイヤー_1-2" data-name="レイヤー 1">
    <g id="stars">
      <g>
        <polygon class="cls-2" points="42.07 34.49 41.02 35.26 40.59 36.3 39.88 37.18 39.62 38.39 38.96 39.34 37.88 39.89 37.51 41.18 36.48 41.76 35.26 42.02 34.41 42.8 34.31 42.61 33.15 42.38 31.98 42.78 30.8 42.94 29.62 42.84 28.44 42.59 27.27 43.14 26.08 42.51 24.9 42.81 23.73 42.93 22.55 43 21.37 43 20.19 42.96 19.01 42.62 17.84 43.19 16.66 43.43 15.48 43.19 14.3 43.34 13.13 43.45 11.94 42.74 10.77 43.15 9.59 43.23 8.41 43.27 7.23 43.27 6.05 43.42 4.88 43.65 3.69 42.83 2.51 42.97 1.33 42.69 .03 43.34 .23 44.64 0 46 1.36 46.5 2.57 46.49 3.78 46.17 4.98 45.69 6.19 45.74 7.41 46.06 8.61 45.72 9.83 46.24 11.04 46.14 12.24 45.76 13.46 46.43 14.66 46.01 15.87 46.06 17.08 45.77 18.29 46.33 19.5 45.68 20.71 45.9 21.92 45.89 23.13 46.37 24.34 46.28 25.55 46.22 26.76 45.98 27.97 45.84 29.17 45.57 30.38 45.57 31.67 45.3 33.35 45.94 34.49 46.51 35.08 47.89 36.27 48.34 37.2 49.16 37.9 50.19 38.6 51.19 39.96 51.72 40.24 53.03 40.94 54.04 41.13 55.35 41.94 56.26 41.76 57.41 42.04 58.58 42.39 59.76 42.72 60.94 42.44 62.14 42.05 63.33 41.92 64.52 42.01 65.71 42.27 66.89 42.43 68.08 42.19 69.27 42.51 70.46 42.43 71.65 41.93 72.83 41.87 74.01 42.47 75.22 42.35 76.4 42.66 77.61 42.34 78.78 42.32 79.98 41.86 81.14 42.37 82.36 42.34 83.55 41.52 84.69 41.92 85.99 43.15 86.65 44.04 85.67 44.74 84.9 44.98 83.71 44.87 82.51 44.7 81.3 44.81 80.11 45.03 78.92 45.05 77.72 45.59 76.54 44.88 75.31 44.99 74.12 45.21 72.92 45.4 71.73 45.23 70.52 44.91 69.32 45.24 68.13 44.89 66.93 45.64 65.72 45.61 64.52 45.73 63.32 44.75 62.14 45.58 60.92 45.48 59.72 44.78 58.54 44.63 57.35 44.73 56.15 45.19 54.97 45.61 54.22 46.27 53.54 46.64 52.37 46.87 51.05 48.01 50.4 48.59 49.3 49.92 48.94 50.38 47.66 51.32 46.9 52.3 46.16 53.43 45.56 54.75 45.69 56.01 45.52 57.27 45.93 58.52 45.45 59.78 45.27 61.04 46.06 62.3 45.58 63.55 46.02 64.76 45.68 65.96 45.76 67.15 46.26 68.37 45.61 69.57 45.91 70.78 45.72 71.99 45.56 73.17 46.19 74.4 45.59 75.58 46.23 76.79 46.09 77.99 46.23 79.21 45.81 80.4 46.45 81.6 46.39 82.81 46.43 84.01 46.16 85.22 46.01 86.42 46.12 87.32 45.71 88.09 44.8 87.15 44.07 86.42 43.11 85.22 43.5 84.02 43.05 82.81 43.81 81.61 43.57 80.4 43.64 79.2 43.54 78.01 43.34 76.81 43.04 75.61 43.09 74.4 43.47 73.21 43.05 72.02 42.67 70.8 43.14 69.62 42.55 68.4 43.1 67.19 43.28 65.99 43.3 64.79 43.28 63.6 42.91 62.33 43.32 61.07 42.55 59.8 43.28 58.54 42.99 57.27 43.12 56 42.67 54.81 42.48 53.67 42.48 52.64 41.98 51.56 41.56 50.7 40.74 49.79 40.06 49.01 39.22 47.94 38.71 47.1 37.91 46.43 36.98 45.95 35.92 45.27 35.02 44.67 34.04 45.11 32.88 44.17 31.77 44.66 30.62 44.71 29.48 44.51 28.34 44.99 27.19 44.52 26.07 44.63 24.93 44.81 23.79 44.89 22.61 44.39 21.42 44.43 20.24 44.03 19.05 44.36 17.87 44.57 16.69 44.69 15.51 44.94 14.32 44.56 13.14 44.41 11.96 44.17 10.77 44.29 9.59 44.69 8.4 44.88 7.22 44.34 6.04 44.53 4.86 44.9 3.66 44.22 2.5 44.4 1.31 43.58 .65 42.85 0 41.84 .41 41.46 1.45 41.63 2.62 41.42 3.8 41.8 4.97 41.51 6.15 41.54 7.33 41.7 8.5 41.78 9.68 41.95 10.85 41.61 12.03 41.24 13.2 41.33 14.38 42 15.56 41.51 16.73 41.67 17.91 42.06 19.09 41.94 20.26 41.22 21.43 41.99 22.61 41.87 23.78 42.01 24.96 41.73 26.14 41.7 27.32 41.74 28.49 41.48 29.68 41.31 30.86 41.48 32.03 41.58 33.21 42.16 34.2 42.07 34.49"/>
        <g>
          <path class="cls-1" d="M50.54,47.54h-2c.1-1.45.84-2.97,1.72-3.78.2-1.14,1.06-1.55,1.91-1.96l-.61-.24-.85-.81-.6-.45c-.64,1.33-1.29,2.68-2.06,4.26-.66.66-1.55,1.55-2.43,2.45-.03.03.11.21.17.32.55.19,1.09.38,1.62.56v1.05c-.3.32-.62.66-.99,1.06.08.35.17.76.36,1.59l.09-.53.74-.42c.35-.52.66-.97.96-1.41.03.03.05.05.08.07l1.27-.34.46-1.28.15-.13Z"/>
          <path class="cls-1" d="M43.64,66c.47.42.91.88,1.37,1.35l-.12-.42.75-1.2-.03-1.17h-1.97v1.44Z"/>
          <path class="cls-1" d="M42.4,75.91l-.05.5.31,1.2-.06.24c.12,0,.21-.02.26-.04.93-.8,1.64-1.42,2.32-2l-.28-.49.11-1.2.05-.27c-.67.86-1.2,1.54-1.75,2.24-.3-.13-.6-.17-.89-.19Z"/>
          <path class="cls-1" d="M45.61,54.22l.06-.06c-1.44,0-2.88,0-4.32.01-.12,0-.23.17-.35.27l.14.91.6.68c0-.29.15-.59.44-.88.33.29.66.58.99.86.32-.28.65-.58.97-.87.24.22.49.44.74.67l.33-.83.42-.75Z"/>
          <path class="cls-1" d="M42.03,56.8c-.07-.08-.1-.16-.14-.24l-.13.85.12.49c.27,0,.55.04.82.04.15-.6-.39-.79-.67-1.14Z"/>
          <path class="cls-1" d="M60.38,45.65h1.23s0,0,0,0c0,0,0,0,0,0v-1.52c-.52-.18-1.14-.26-1.58-.58-.13-.09-.25-.2-.37-.29l-1.12-.26-.46.05s-.01.01-.02.01c-.75,1.27.33,1.69.96,2.33l.75-.1.6.37Z"/>
          <path class="cls-1" d="M43.64,60.77c-.14-.96,1.76-1.37.51-2.82-.35,0-.9,0-1.46,0-.19.3-.33.72-.59.88l.29.94.28,1.02h.97s0,0,0,0c0,0,0,0,0,0Z"/>
          <path class="cls-1" d="M52.15,46.17v.1l.14-.11.81-.42c-.14-.67.26-1.47-.53-1.98h-2.32c.18,1.15,1.34,1.55,1.89,2.41Z"/>
          <path class="cls-1" d="M43.5,5.31c-.61-.4-1.25-.38-1.71-.31l-.28,1.15v.6c.21-.27.42-.6.72-.77.41-.23,1.19.27,1.27-.67Z"/>
          <path class="cls-1" d="M40.81,49.82c0-.75,0-1.49,0-2.24-.09.02-.17.04-.26.07,0,0,0,0,0,0-.18.07-.38.15-.62.25,0,1.25,0,2.54.01,3.82h.02s.06.27.06.27c.08.08.21.18.38.35.41-.11.92-.26,1.27-.36.39-1.2-.51-1.54-.86-2.15Z"/>
          <path class="cls-1" d="M69.57,45.91l.55-.08c0-.49,0-.98-.03-1.47-.02-.19-.34-.35-.52-.52-.41.59-1.21.87-1.34,1.68,0,.07.01.11.01.17l.14-.07,1.2.3Z"/>
          <path class="cls-1" d="M56,42.67l-1.19-.19h-.56c-.41,1.03-.15,1.12,1.29,1.29.11-.44.57-.63.88-.95l-.43-.15Z"/>
          <path class="cls-1" d="M46.43,36.98l-.38-.82c-.18.17-.36.34-.52.49v1.33s.05-.01.08-.03c-.03.05-.05.09-.08.13v.02c.41-.2.83-.4,1.26-.62l-.36-.51Z"/>
          <path class="cls-1" d="M41.93,72.83l-.04.74c.25.16.56.3.98.37-.43-.84.08-1.61-.43-2.49v.19s-.52,1.18-.52,1.18Z"/>
          <path class="cls-1" d="M37.83,50.03s-.02,0-.03.01l.03.05s0-.04,0-.06Z"/>
          <path class="cls-1" d="M1.65,43.81c.37-.08.79-.16,1.41-.29-.05-.22-.09-.41-.13-.61l-.42.05-1.18-.28-.26.13c0,.32.19.65.59.99Z"/>
          <path class="cls-1" d="M34.86,45.55c-.63.12-1.06.2-1.54.29v.09h.02s1.14.58,1.14.58l.37.87c.11-.02.21-.04.33-.06-.12-.65-.22-1.18-.33-1.77Z"/>
          <path class="cls-1" d="M15.37,43.2l-.88.11c.04.2.07.41.11.64.26-.31.52-.53.76-.76Z"/>
          <path class="cls-1" d="M42.19,69.25v.02s.21.77.21.77c.16-.03.32-.06.5-.09-.28-.24-.5-.48-.7-.71Z"/>
          <path class="cls-1" d="M42.06,22.18c-.06.1-.11.2-.15.31l.08.13-.12,1.17.06.55c.09.25.21.5.37.79.43-2.28.41-2.28-.25-2.95Z"/>
          <path class="cls-1" d="M42.99,26.52c-.13.71-.23,1.23-.43,2.28,1.04-.19,1.45-.27,1.88-.35-.14-.89-.87-1.17-1.46-1.93Z"/>
          <path class="cls-1" d="M42.93,63.63c-.36-.04-.7-.02-.93.17l-.08.72v.04h1.73c.11-.58-.24-.87-.72-.93Z"/>
          <path class="cls-1" d="M45.26,61.39l.15-.22c-.46-.63-1.18-.31-1.77-.41,0,0,0,0,0,0,0,0,0,0,0,0,.52.9.57.96,1.62.62Z"/>
          <path class="cls-1" d="M62.45,45.64l.84.29c-.24-.26-.53-.3-.84-.29Z"/>
          <path class="cls-1" d="M61.61,45.65c.03.06.06.11.09.16l.42-.16c-.17,0-.35.01-.51-.01,0,0,0,0,0,0,0,0,0,0,0,0Z"/>
          <path class="cls-1" d="M45.53,37.98c-.65.28-1.46-.29-1.81.66,1.2.4,1.26.4,1.81-.55.03-.05.05-.08.08-.13-.03.01-.05.02-.08.03Z"/>
          <path class="cls-1" d="M43.75,45.31c.55.51,1.08.48,1.85-.14-.86-.61-1.46-.89-1.85.14Z"/>
          <path class="cls-1" d="M28.2,42.98c-.22.06-.59.21-.6.34-.02.41.09.84.15,1.25.2-.01.4-.02.6-.03.06-.42.13-.84.15-1.26,0-.1-.23-.32-.3-.3Z"/>
          <path class="cls-1" d="M33.15,42.38l-1.17.4h0c.41.15.81.02,1.22-.39h-.04Z"/>
          <path class="cls-1" d="M42.7,40.45c-.11-.11-.23-.31-.31-.3-.22.05-.42.19-.63.3.1.11.21.21.34.34.2-.11.4-.22.61-.34Z"/>
          <path class="cls-1" d="M63.02,44.7c.11-.21.23-.41.34-.61-.13-.13-.23-.23-.34-.34-.1.21-.25.41-.3.63-.02.08.19.21.3.31Z"/>
          <path class="cls-1" d="M75.79,44.23c.21.11.41.23.61.34.13-.13.23-.23.34-.34-.21-.11-.41-.25-.63-.3-.08-.02-.21.19-.31.3Z"/>
          <path class="cls-1" d="M35.61,44.7c.11-.21.23-.41.34-.61-.13-.13-.23-.23-.34-.34-.1.21-.25.41-.3.63-.02.08.19.21.3.31Z"/>
          <path class="cls-1" d="M45.71,43.12c.05.22.19.42.3.63.11-.11.31-.23.3-.31-.05-.22-.19-.42-.3-.63-.11.11-.31.23-.3.31Z"/>
          <path class="cls-1" d="M72.94,42.98c.12.54.21.9.86.39-.07-.06-.15-.13-.23-.19l-.38-.13-.17-.05s.01.06.02.08c-.04-.04-.07-.06-.11-.1Z"/>
          <path class="cls-1" d="M73.06,43.08s-.01-.06-.02-.08l-.12-.04s.02.02.03.03c.04.03.07.06.11.1Z"/>
          <path class="cls-1" d="M80.69,45.96c.04.16.12.31.2.46h.28c.05-.06.1-.11.15-.17-.11-.2-.22-.4-.34-.61-.11.11-.31.23-.3.31Z"/>
          <path class="cls-1" d="M6.95,45.94l.46.12h.04c-.06-.15-.14-.28-.2-.42-.09.09-.19.19-.29.29Z"/>
          <path class="cls-1" d="M64.87,45.69h.07s-.02-.03-.02-.04c-.01.01-.03.03-.05.04Z"/>
          <path class="cls-1" d="M40.81,47.58c.63-.14,1.12-.17.56-.9-.22.26-.44.51-.82.96,0,0,0,0,0,0,.09-.03.18-.05.26-.07Z"/>
          <path class="cls-1" d="M44.45,15.06c-.11-.2-.22-.4-.34-.61-.11.11-.31.23-.3.31.05.22.19.42.3.63.1-.11.21-.21.34-.34Z"/>
          <path class="cls-1" d="M42.09,9.86c-.09.09-.17.17-.25.25l.02.15c.17.09.34.19.52.24.08.02.21-.19.31-.3-.21-.11-.41-.23-.61-.34Z"/>
        </g>
      </g>
    </g>
  </g>
</svg>