<?xml version="1.0" encoding="UTF-8"?>
<svg id="_レイヤー_2" data-name="レイヤー 2" xmlns="http://www.w3.org/2000/svg" viewBox="0 0 185.99 198.65">
  <defs>
    <style>
      .cls-1 {
        fill: #fff;
      }

      .cls-2 {
        fill: none;
      }

      .cls-3 {
        fill: #d1d5ea;
        fill-rule: evenodd;
      }
    </style>
  </defs>
  <g id="_レイヤー_1-2" data-name="レイヤー 1">
    <g id="stars">
      <g>
        <path class="cls-3" d="M81.96,151.31l1.12.33,1.21-.1,1.04.7,1.3.02-.66,1.2-.3,1.18.13,1.27-.17,1.2-.26,1.18-.34,1.17-.13,1.21-.56,1.12.2,1.28-.62,1.11-.5,1.13.38,1.32-.27,1.18-.55,1.13-.21,1.2-.18,1.2-.21,1.19-.49,1.14v1.23s.11,1.26.11,1.26l-1.1,1.03.42,1.31-.02,1.23-1.02,1.05.02,1.24.23,1.27-.9,1.07-.03,1.23-.28,1.18.06,1.24.23,1.27-.66,1.12-.27,1.18-.37,1.17.28,1.28-.08,1.21-.96,1.07.14,1.36-1.2.55-1.28.45-.94-.99-.51-.97-.54-1.12.13-1.18.67-1.09-.43-1.28.08-1.19.93-1.04.16-1.18.24-1.16-.43-1.28.92-1.04.13-1.18-.35-1.27.22-1.17.59-1.1-.13-1.23.05-1.2.79-1.06-.04-1.22-.13-1.23.61-1.09.19-1.17.2-1.17.35-1.14.7-1.07-.38-1.29-.04-1.22.2-1.17.46-1.12.69-1.07-.29-1.27.63-1.08.05-1.2.54-1.1.1-1.19-.21-1.26.43-1.12.95-1-.14-1.25.02-1.22.28.03ZM126.85,143.03l.71.99,1.04.73.38,1.25.97.79.44,1.21.75.96,1.09.69.84.89.77.94.71,1,.87.86.53,1.14,1.12.66.47,1.19.56,1.12,1.26.56.74.97.5,1.16.77.94.79.93.75.96.52,1.14.9.85,1,.78v1.51s1.22.62,1.22.62l.86.89.02,1.47.87.88,1.05.77-.27,1.34-.05,1.07-.78.77-1.01.6-1.39.14-.68-1.22-.61-1.06-.54-1.11-1.09-.73-.8-.93-.07-1.44-1.29-.57-.51-1.14-.99-.78-.31-1.29-.62-1.06-1.1-.69-.8-.92-.37-1.25-1.26-.56-.85-.88-.18-1.42-.8-.92-.74-.97-1.26-.54-.2-1.41-.82-.9-1.21-.59-.76-.95-.46-1.19-1.04-.73-.89-.85-.3-1.32-.96-.79-1.03-.74-.44-1.25,1-.68.97-.65,1.03-.55,1.24-.28-.26-.42ZM104.75,152.35l.21,1.15.62,1.06-.21,1.24.51,1.08-.15,1.23.24,1.15.67,1.04.37,1.11-.02,1.32-.74,1.08-1.09.75-1.27-.32-1.35-.3-.33-1.34-.04-1.26-.9-1.06-.25-1.21.04-1.28-.3-1.2-.32-1.2-.28-1.2-.02-1.21,1.09-.3,1.11-.48,1.28.72,1.05-.83.08.24ZM65.25,143.54l.95.7,1.18.32.74,1.02,1.22.47-1.12.76-.79.89-.46,1.17-.71.96-.78.9-.84.84-.69.98-1.02.69-.44,1.19-1.07.64-.98.71-.31,1.31-1.2.77-1.35-.23-1.14-.54-.75-1.04-.1-1.3.78-.99.65-1.06.55-1.15,1.48-.33.33-1.35.66-1.05,1.42-.38.63-1.08.47-1.22,1.33-.47.66-1.05.85-.89-.17-.19ZM114.7,149.61l.48,1.13.85.96.09,1.31.78.98-.14,1.23-.34,1.01-.59,1.08-1.25.36-1.26-.4-.82-1.01-.62-.96-.2-1.15-.89-.83-.13-1.18-.25-.96.82-.84,1.11-.33,1.21-.08,1.08-.43.08.1ZM52.08,130.41l.65.97,1,.7.35,1.21.98.86-1.29.4-1.01.62-.78.99-.95.72-1,.65-1.04.58-.93.75-1.17.38-.76,1.03-1.2.32-1.14.42-.66,1.18-1.02.62-1.17.37-.99.67-.97.69-.99.65-1.15.41-.88.83-.81.93-1.48-.1-.65,1.19-.89.81-1.44-.03-.87.85-.75,1.03-1.38.07-.89.81-1.03.6-.84.89-.74,1.03-1.24.28-1.03.61-1.08.53-.71,1.07-1.25.56-1.04-.96-1.34-.25-.19-1.3-.07-1.35,1.21-.63,1.09-.56.76-1.05.97-.74,1.28-.28.66-1.21.95-.77,1.43-.05.99-.7,1.04-.64.67-1.2,1.42-.05.98-.72.71-1.14,1.03-.65,1.23-.34.83-.95.93-.8,1.34-.17.88-.88.83-.95,1.24-.32,1.01-.68,1.01-.67,1.09-.55,1.29-.25.69-1.18.88-.89,1-.69,1.14-.47,1.27-.27.73-1.12,1.24-.33.91-.83,1.18-.41-.06-.15ZM139.18,130.56l.91.78,1.17.45.65,1.11,1.11.51.71,1.05.95.73,1.21.37,1.02.62.84,1.02.14,1.3-.34,1.28-1.17.58-1.22.65-1.12-.81-.83-.92-1.36-.2-.96-.75-.78-.99-.99-.71-1-.7-.97-.74-.76-.92.56-.98.45-1.12,1.41-.39.16-1.33.23.12ZM46.13,119.39l.4,1.09.8.92.05,1.25.75,1.05-1.37.25-1.12.52-.93.92-1.07.63-1.1.56-1.14.49-1.04.68-1.31-.02-1.39.02-.63-1.23v-1.2s-.2-1.39-.2-1.39l1.07-.94,1.28-.29,1.12-.6,1.12-.62,1.13-.58,1.26-.32,1.05-.76,1-.87.24.44ZM147.4,112.55l1.18.25,1.25-.15,1.1.68,1.23-.04,1.11.63,1.18.24,1.26-.18,1.2.13,1.19.22,1.17.3,1.21.1,1.12.53,1.27-.22,1.11.6,1.13.49,1.31-.39,1.18.26,1.12.55,1.19.2,1.19.18,1.19.22,1.13.5,1.23.02,1.25-.11,1.01,1.11,1.31-.41,1.22.03,1.03,1.03h1.23s1.27-.22,1.27-.22l1.06.91,1.03.3.56.94.35,1.12-.19,1.38-1.34.38-1.19.02-1.13-.38-1.25.26-1.19-.1-1.02-.98-1.3.47-1.11-.48-1.23.1-1.06-.75-1.13-.38-1.25.21-1.17-.16-1.07-.7-1.29.4-1.18-.12-1.02-.96-1.17-.19-1.15-.27-1.28.4-1.02-.94-1.18-.16-1.27.33-1.16-.24-1.09-.6-1.23.12-1.19-.06-1.05-.79-1.21.04-1.23.13-1.09-.6-1.17-.18-1.17-.19-1.14-.32.83-.96-.25-1.3.05-1.2.25-1.13.44.07ZM42.7,105.27l.09,1.16.52,1.1-.29,1.22.44,1.22-1.31-.19-1.16.13-1.1.56-1.14.25-1.15.16-1.16.08-1.14.29-1.19-.15-1.09.61-1.2-.21-1.13-.4-1.38-.28-.53-1.32.47-1.29.74-1.02,1.16-.55,1.15-.17,1.19.11,1.12-.37,1.1-.5,1.27.73,1.06-.8,1.12-.35,1.26.65,1.12-.39,1.09-.6.08.32ZM148.85,96.96l1.13.15,1.17-.26,1.09.58,1.16-.17,1.11.5,1.14.1,1.16-.34,1.14-.04,1.26.4.82,1.01.41,1.26-.67,1.12-.67,1.21-1.38-.07-1.25-.33-1.31.56-1.27-.11-1.24-.42-1.27-.08-1.27-.06-1.37-.15.22-1.06-.21-.91-.36-1.42.83-1.46-.39-.02ZM42.76,93.65l-1.17-.21-1.23.2-1.11-.64-1.21.09-1.12-.58-1.17-.19-1.24.23-1.19-.08-1.18-.17-1.16-.25-1.19-.04-1.13-.48-1.24.28-1.12-.55-1.13-.44-1.27.45-1.17-.21-1.12-.5-1.18-.15-1.18-.13-1.18-.17-1.13-.46-1.21.03-1.23.15-1.03-1.07-1.28.45h-1.2s-1.04-1-1.04-1l-1.21.03-1.25.24-1.05-.89-1.2-.02-1.16-.27-1.22.06-1.25.22-1.01-.97-.62-1.01.07-1.13.09-1.29,1.05-.87,1.25.65,1.29-.49,1.12.46,1.22-.12,1.08.72,1.14.35,1.24-.24,1.18.13,1.09.67,1.27-.44,1.19.08,1.05.93,1.18.15,1.16.23,1.27-.44,1.05.91,1.18.12,1.26-.38,1.17.19,1.11.56,1.23-.16,1.2.02,1.08.76,1.21-.08,1.23-.17,1.11.57,1.18.14,1.18.15,1.15.3,1.1.65,1.26-.44,1.21-.1,1.18.13,1.14.39,1.11.62,1.47-.24-.55,1.32v1.18s-.46,1.11-.46,1.11v1.18s0,.03,0,.03ZM44.84,83.87l-1.18-.53-1.34-.14-1.02-.93-1.3-.24-1.05-.86-.84-.65-.83-.91.06-1.3.79-1.06,1.23-.45,1.33.03,1.06.76,1.34.04,1.03.82,1.07.72,1.64.11-.45,1.42-.71.97-.36,1.11-.31,1.12-.19-.03ZM144.85,79.41l1.21-.36,1.08-.75,1.35.05,1.11-.65h1.33s1.2-.38,1.2-.38l1.07-.79,1.17-.49,1.32-.09,1.14.64.84,1.03-.21,1.29-.18,1.37-1.31.44-1.27.15-.98,1-1.19.37-1.29.09-1.18.42-1.17.45-1.18.41-1.22.14-.53-.99-.71-.98.42-1.4-1.04-.84.23-.13ZM51.05,70.75l-.88-.88-1.17-.57-.6-1.19-1.11-.63-.66-1.14-.92-.84-1.21-.52-.99-.76-.93-.83-.87-.89-.82-1.04.24-1.29.21-1.37,1.32-.42,1.18.2,1.41.03.86.82.67,1.03.91.77.93.75.9.78.71.99,1.04.63,1.12.54.28,1.46,1.4.5-.61,1.22-1.35.46-.48,1.1-.28,1.23-.3-.16ZM137.48,66.89l1-.69.75-1.02,1.26-.33.82-.93,1.22-.38.99-.69.74-1.04.93-.79.98-.71,1.03-.65.9-.82,1.16-.46.71-1.08,1.2-.4,1.13-.5.61-1.23.99-.69,1.17-.45.96-.74.94-.76.96-.73,1.13-.51.84-.9.76-1,1.5-.02.57-1.25.84-.9,1.45-.1.81-.94.67-1.11,1.38-.21.82-.91.98-.72.76-.99.64-1.12,1.22-.43.96-.74,1.08-.35,1.23-.39,1.2.66-.14,1.4.61,1.22-.93.93-.68,1.03-1.25.37-1.01.65-.63,1.1-.88.81-1.23.38-.53,1.25-.86.83-1.4.15-.91.77-.96.7-.55,1.23-1.39.14-.9.78-.61,1.17-.96.7-1.19.4-.75.99-.86.84-1.31.23-.81.92-.76.99-1.2.38-.94.73-.95.71-1.04.6-1.25.3-.6,1.2-.8.92-.94.73-1.09.52-1.23.33-.64,1.15-1.19.39-.84.87-1.13.47-.86.83-1.03,1.19-.82-1.27-.09-1.36-1.03-.69-.92-.76.2-.2ZM61.62,58.91l-.65-1-.99-.76-.29-1.25-.89-.83-.33-1.22-.65-1-1.01-.76-.74-.94-.66-.99-.59-1.04-.77-.92-.39-1.17-1.04-.75-.33-1.21-.43-1.14-1.18-.66-.62-1.02-.37-1.18-.67-.99-.69-.98-.65-1-.41-1.15-.82-.89-.93-.82.12-1.48-1.19-.66-.81-.9.05-1.44-.84-.88-1.02-.76-.05-1.38-.8-.9-.58-1.04-.87-.85-.81-1.13.72-1.2.85-.83,1.12-.19,1.28-.2,1.09.83v1.44s1.26.64,1.26.64l.44,1.16.93.85.21,1.31.52,1.11,1.03.79.71.99.24,1.28,1.19.69.75.97.02,1.43.69,1.01.62,1.05,1.19.68.04,1.42.72.99,1.13.72.65,1.03.34,1.23.96.83.8.93.18,1.34.89.87.97.82.35,1.23.71.99.7,1,.59,1.07.29,1.28,1.2.65.93.84.81,1.29-1.26.79-1.2.33-.58,1.15-1.15.43.02.07ZM125.16,55.52l.75-.97.42-1.21,1.11-.71.51-1.15,1.06-.75.74-.98.38-1.24.63-1.05.7-1.01.76-.97.58-1.09.93-.85.28-1.28,1.23-.64h1.2s1.39-.22,1.39-.22l.95,1.07v1.37s-.36,1.21-.36,1.21l-.58,1.01-.63.98-.87.81-.48,1.08-.38,1.15-1.4.43-.15,1.32-.52,1.06-1.34.46-.49,1.08-.32,1.21-1.25.53-.53,1.05-.57.8-.89-.45-1.19-.34-.67-1.05-.92-.72-.07.04ZM70.5,52.91l-.57-1.11-.94-.9-.21-1.32-.86-.94-.29-1.28-.63-1.08-1.01-.84-.75-1-.41-1.26.35-1.26.79-1.06,1.3-.11,1.38-.16.75,1.17.41,1.13,1.16.66.59,1.01.33,1.17.62.99.64.98.6,1.01.34,1.15.78,1.03-1,.87-1.43-.31-.76,1.1-.93.71-.24-.38ZM106.64,47.73l.39-1.12v-1.24s.78-1,.78-1l.08-1.21.73-1.03.35-1.14-.08-1.25.22-1.17.3-1.15.38-1.13.17-1.18.59-1.08-.16-1.26.64-1.06.78-.91.76-1.19,1.43-.02,1.03.91.69,1.06.09,1.28-.26,1.17-.55,1.09-.08,1.21.04,1.24-1.17.93.32,1.32-.12,1.21-1.1.93-.1,1.21.1,1.27-1.01.95-.16,1.2-.41,1.12-.1,1.23-1.25.1-1-.75-1.11-.35-1.1-.42-.08.22ZM82.87,48.15l-.27-1.16-.67-1.06.16-1.27-.55-1.09.1-1.25-.28-1.16-.7-1.05-.4-1.12-.32-1.14-.25-1.16-.47-1.1-.06-1.22-.51-1.29.93-1.03,1.12-.43,1.23-.68,1.26.67.47,1.29.4,1.17.41,1.17.36,1.18.07,1.26.53,1.14.65,1.11-.56,1.42.94,1.03.5,1.14-.47,1.4.55,1.13.73,1.33-1.5-.34-1.12.4-1.16.18-1.07.53h-.04ZM94.81,46.6l.16-1.2-.25-1.24.6-1.15-.13-1.23.54-1.15.16-1.2-.27-1.25.05-1.21.14-1.2.22-1.19.02-1.21.46-1.16-.3-1.26.53-1.15.42-1.16-.47-1.28.19-1.19.48-1.15.13-1.2.11-1.2.15-1.2.43-1.16-.05-1.23-.17-1.24,1.05-1.07-.48-1.29-.03-1.22.97-1.08-.06-1.23-.28-1.26.86-1.1v-1.22s.23-1.19.23-1.19l-.1-1.23-.27-1.26.63-1.13.24-1.19.59-.97.68-1.1,1.34-.28.81,1.15,1.26.53-.09,1.32.16,1.23-.69,1.11-.32,1.16.27,1.24-.1,1.19-.64,1.11.47,1.27-.05,1.2-.91,1.08-.13,1.19-.2,1.18.47,1.27-.89,1.08-.09,1.19.4,1.26-.18,1.18-.54,1.13.19,1.23v1.2s-.74,1.1-.74,1.1l.1,1.22.2,1.23-.55,1.13-.12,1.19-.13,1.19-.27,1.17-.63,1.12.47,1.26.13,1.22-.1,1.19-.36,1.16-.58,1.13.41,1.25-.52,1.14.08,1.21-.42,1.16.04,1.2-1.3.41-1.27-.22-1.28-.72-.82.43-.03-.03Z"/>
        <g>
          <path class="cls-2" d="M54.12,46.22c.22-.26.44-.51.69-.91-.6.15-1.33.09-.69.91Z"/>
          <path class="cls-2" d="M54.24,48.17c.41.02.84-.09,1.25-.15,0-.2-.02-.4-.03-.6-.42-.06-.84-.13-1.26-.15-.1,0-.32.23-.3.3.06.22.21.59.34.6Z"/>
          <path class="cls-2" d="M77.45,190.4c.26.22.51.44.91.69-.16-.6-.09-1.33-.91-.69Z"/>
          <path class="cls-2" d="M76.98,191.99c-.22.26-.44.51-.69.91.6-.15,1.33-.09.69-.91Z"/>
          <path class="cls-1" d="M52.28,45.09l.33,1.21,1.04.75.39,1.17.76.92c.11,0,.22,0,.33.02.34.31.67.61,1,.91.46-.46.91-.91,1.37-1.37v-1.85c-.22-.53-1.07-.69-.93-1.47-.63,0-1.26,0-1.76-.05-.25.4-.47.65-.69.91-.64-.83.09-.76.69-.91-.13-1.67-.13-3.39-.13-5.05l-.38-.24-.72-.99h0c-.2-.18-.44-.29-.76-.28.02.09.04.17.06.26-.04-.03-.07-.06-.11-.09v3.11c-.32.34-.63.68-.96,1.02v.88h.02s.43,1.15.43,1.15ZM54.2,47.27c.42.02.84.1,1.26.15,0,.2.02.4.03.6-.42.06-.84.17-1.25.15-.13,0-.27-.37-.34-.6-.02-.07.2-.3.3-.3Z"/>
          <path class="cls-1" d="M114.72,154.09h1.41c-.29-.49-.57-.99-.91-1.56.33-.11.67-.23.8-.27l.04-.04-.04-.51-.85-.96-.48-1.13-.08-.1-1.08.43h-.18v1.47c.58,1.15.97,1.92,1.36,2.68Z"/>
          <path class="cls-1" d="M116.07,152.24h0s-.02,0-.04.01h0s.03,0,.04-.01Z"/>
          <path class="cls-1" d="M43.31,107.53l-.52-1.1-.09-1.16-.08-.32-.17.09v2.87c.33-.07.58-.12.81-.16l.05-.22Z"/>
          <path class="cls-1" d="M75.63,183.95l-.07.62c.07.29.2.56.46.78.39-.08.82-.18,1.42-.31-.39-.47-.65-.79-.94-1.14-.03-.7-.28-1.46.16-2.16.23-.23.45-.45.73-.73-.44-.2-.87-.4-1.3-.6h0s-.59,1.11-.59,1.11l-.22,1.17v.02c.08.17.13.34.15.53l.2.72Z"/>
          <path class="cls-1" d="M78.06,179.81c.38.41.77.83,1.14,1.23-.32.39-.57.71-.97,1.2.65.09,1.08.13,1.51.23.33.07.46.64.79.75l-.22-1.21-.02-1.24.36-.37c-.62-1.08-1.73-2.12-1.38-3.66-.6.05-1.19.11-1.87.17.34.62.57,1.04.9,1.65h-2.32l-.03.64.06.52c.65-.29,1.35-.05,2.05.1Z"/>
          <path class="cls-1" d="M149.95,101.79c-.04.05-.08.1-.12.16l.31.03,1.27.06,1.04.06c-.51-.63-1.08-1.34-1.81-2.24-.29.85-.37,1.47-.69,1.92Z"/>
          <path class="cls-1" d="M151.03,98.8c1.34.95,2.61,1.85,3.9,2.77-.66.82-1.44.44-2.3.55h.04s1.24.42,1.24.42l1.27.11,1.31-.56.32.08c.12-.36.22-.68.31-.92.62-.14,1.04-.23,1.38-.31.29-.77.28-1.32-.58-1.8-.67.34-1.44.72-2.15,1.08-.96-.51-1.86-.98-2.76-1.45v-1.45l-.31.05c-.65.28-.99.95-1.66,1.43Z"/>
          <path class="cls-1" d="M152.32,80.38c-.09.45-.39,1.12-.22,1.27.19.17.34.37.46.57l1.15-.36.04-.04c-.29-.58-.66-1.13-1.43-1.44Z"/>
          <path class="cls-1" d="M147.67,117.47l.72.11,1.17.18.3.17c.26-.56.52-1.12.76-1.63h1.9c.37.34.71.64,1.09,1,.4-.12.82-.23,1.33-.38-.38-.43-.67-.76-.95-1.08.31-.56,1.25-.96.94-1.72l-.48.07-1.18-.24-1.11-.63-1.09.04c-.13.35-.24.7-.35,1.02-.84.2-1.66-.3-2.45.5,0,.46.11,1.09-.03,1.65-.09.35-.33.66-.57.97Z"/>
          <path class="cls-1" d="M77.62,189.07h-1.2c-.44.91-.88,1.83-1.35,2.8-.34-.29-.66-.57-1.11-.96-.16.26-.28.51-.35.75l-.03.37.16.46c.08.12.18.25.32.37.79,0,1.57,0,2.22.05.25-.4.47-.65.69-.91.64.83-.09.76-.69.91.34.32.57.68.76,1.06.13.25.21.52.32.78.38-.06.79.06,1.18,0l.05-.72-.28-1.28.11-.34c-.18-.43-.08-.91-.06-1.3-.4-.25-.65-.47-.91-.69.83-.64.76.09.91.69.18-.05.34-.13.48-.22l.11-.48.66-1.12-.13-.73c-.08-.14-.15-.28-.23-.41,0,0,0,0,0,0,0,0,0,0,0,0,0,0,0,0,0,0-.5.29-1,.58-1.64.95Z"/>
          <path class="cls-1" d="M172.02,40.78l-.95.34-.38.67c.1.1.19.19.27.27-.2.1-.4.23-.61.29l-.67.87-.35.26h1.13c.6.78,1.39,1.09,2.36.95,0,0,0,0,0,0h.04v-2.04c-.32-.61-.58-1.13-.83-1.61Z"/>
          <path class="cls-1" d="M104.67,152.1l-1.05.83-1.28-.72-1.11.48-.32.09c-.24.11-.5.23-.76.35l.02,1.07.28,1.2.13.5c1.29-1.02,2.03-2.7,3.9-2.96.11-.02.18-.36.26-.63l-.06-.21Z"/>
          <path class="cls-1" d="M81.96,151.31l-.28-.03-.02,1.22.14,1.25-.95,1-.11.29h.94c.29-.63.59-1.27.82-1.77.57-.15.99-.25,1.43-.37-.25-.44-.49-.86-.72-1.26h-.14s-1.12-.32-1.12-.32Z"/>
          <path class="cls-1" d="M101.16,159.77h.3c.35.33.68.64,1.07,1,.4-.1.81-.21,1.36-.35-.38-.45-.65-.76-.95-1.12.27-.3.56-.62.86-.96-.79-.83-1.81-.41-2.75-.46l-.04,1.19.14.7Z"/>
          <path class="cls-1" d="M19.83,156.35c.13.18.24.34.37.52l.6-.9c-.35-.09-.67.02-.97.38Z"/>
          <path class="cls-1" d="M81.78,166.42c-.27.12-.41.55-.6.86.08-.02.16-.04.24-.06-.05.06-.09.11-.14.16.77.31,1.32.84,1.8,1.38l.47-.95.14-.62c-.1-.02-.21-.03-.31-.05-.16-.04-.22-.5-.33-.76-.43,0-.91-.12-1.26.04Z"/>
          <path class="cls-1" d="M67.13,44.12c.51.56,1.16.19,1.72.3.15-.71.54-1.14,1.02-1.46l-.07-.04-.41-1.13-.61-.95v1.26c-.57.76-1.45,1.11-1.65,2.02Z"/>
          <path class="cls-1" d="M175.91,117.59l-.31.03c.08.09.16.17.26.27-.32.55-.67,1.16-1.02,1.77.5.32.74,1.14,1.56,1.13.2-.58.38-1.12.54-1.58.6-.2,1.32.16,1.5-.77-.11-.04-.22-.08-.33-.12l-1.18.37-1.01-1.11Z"/>
          <path class="cls-1" d="M153.56,54.72h.03s0-.02,0-.03l-.04.03Z"/>
          <path class="cls-1" d="M159.62,114.67l-.34-.03-1.17-.3-.36-.07c-.01.17-.02.34-.04.48.41.51.66.82.73.91-.3.74-.63,1.25-.68,1.79-.04.44.34.81.91.7.29-.5.58-1,.95-1.64v-1.85Z"/>
          <path class="cls-1" d="M168.5,118.01c-.28.79-.46,1.32-.65,1.85-.54.18-1.07.35-1.68.55.39.41.7.74.81.86.05.1.08.19.11.29l1,.1.89-.28c.04-.06.07-.12.1-.19-.28-.77.39-2-.58-3.19Z"/>
          <path class="cls-1" d="M151.79,118.16c-.06.03-.1.06-.16.09l.24-.03,1.21-.04,1.05.79h.15c-.27-.27-.55-.54-.82-.82-.61,0-1.23,0-1.68,0Z"/>
          <path class="cls-1" d="M50.04,131.81l-.11.03c.77.36,1.48.74,2.13,1.22.28.2.45.21.73-.28-.05-.34-.11-.77-.16-1.14-.67-.23-1.22-.42-1.73-.59h0s-.85.76-.85.76Z"/>
          <path class="cls-1" d="M146.76,138.08c.37-.35.67-.64.97-.92l-.71-.86c-.25.13-.51.25-.76.38.2.55.34.94.5,1.4Z"/>
          <path class="cls-1" d="M81.73,170.27c-.42.27-.82.67-1.3.81-.68.2-1.52-.26-2.09.48.53.79,1.38.31,2.04.52.64.2,1.21.61,1.84.86l.18-.41.08-.43c-.54-.41-.21-1.33-.74-1.83Z"/>
          <path class="cls-1" d="M172.82,44.42c.04.55.09,1.1.14,1.76l.4-.71,1.01-.65.22-.07c-.12-.11-.24-.23-.35-.34h-1.42s0,0,0,0Z"/>
          <path class="cls-1" d="M131.46,155.73c.99.52,2.07.14,3.11.26q.96.93,1.3.59c-.01-.83.58-1.76-.38-2.44-.34.31-.67.62-.97.9-1.07.16-2.17-.36-3.12.36-.04.03.04.21.06.34Z"/>
          <path class="cls-1" d="M111.38,32.63c1.1.75,2.29.39,3.05.36.5-.25.92-.46,1.31-.66l-.05-.78-.26-.39c-.16.02-.31.05-.46.07-.52.08-.94.7-1.47.87-.68.21-1.53-.25-2.12.53Z"/>
          <path class="cls-1" d="M77.69,197.65l-.02-.25c-.08-.09-.15-.18-.23-.28.06-.07.12-.14.18-.21l-.06-.62.43-.48c-.26-.33-.53-.67-.86-1.08.09,0-.13-.06-.21.01-.2.2-.5.5-.47.71.17,1.07-.42,1.89-.81,2.76.08.08.16.14.25.19l.6-.21,1.2-.55Z"/>
          <path class="cls-1" d="M38.6,107.76c.47,0,.93,0,1.4,0,.37-.69.78-1.37,1.12-2.07l-.71.25-.91-.47c-.3.29-.61.59-.9.87v1.43Z"/>
          <path class="cls-1" d="M57.51,153.62c0-.58.04-1.19-.03-1.8,0-.01-.01-.02-.02-.04l-.44.91-.65,1.06-.24.31c.46.06.94.09,1.38-.45Z"/>
          <path class="cls-1" d="M45.49,25.51c-.39.05-.69.09-1.22.16,0,.59-.12.97.02,1.19.37.56.85,1.05,1.3,1.59.33-.34.63-.64.96-.98l-.18-1.15-.89-.81Z"/>
          <path class="cls-1" d="M45.01,137.85c.31-1.11.35-2.2-.01-3.4l-.34.23-.88.89-.46.78c0,.08,0,.16,0,.25.56.38.82,1.15,1.68,1.25Z"/>
          <path class="cls-1" d="M69.71,51.6l.21.2.57,1.11.24.37c-.11-.69.28-1.45-.3-2.09-.31.06-.53.22-.73.41Z"/>
          <path class="cls-1" d="M32.73,111.65l.28.05,1.09-.61,1.19.15.47-.12v-.15c-.36-.14-.76-.3-1.05-.41-.69.38-1.33.73-1.98,1.09Z"/>
          <path class="cls-1" d="M61.49,148.41c.63.1,1.2.12,1.69-.48v-.94c-.25-.21-.51-.35-.76-.45l-.32.83-.61,1.04Z"/>
          <path class="cls-1" d="M14.07,87.08h0s0-.05,0,0Z"/>
          <path class="cls-1" d="M14.19,87.71c.23.04.39.1.44.06.76-.73,1.5-1.47,2.33-2.28-.35-.14-.66-.26-1.1-.44l-.5-.06c-.34.56-.72,1.18-1.28,2.1.02.09.07.36.11.63Z"/>
          <path class="cls-1" d="M.8,82.73s0-.07-.01-.11l-.62.52v.19c.22-.21.43-.41.64-.59Z"/>
          <path class="cls-1" d="M184.77,121.94c.14-.36.3-.75.51-1.28h0c-.17-.15-.34-.29-.51-.43l-.72-.21-.69-.6c.03.89-.56,1.72.41,2.51h1.01Z"/>
          <path class="cls-1" d="M148.29,112.97c-.1-.09-.19-.19-.29-.28l-.61-.13-.44-.07-.2.93c.48.03,1,.09,1.54-.44Z"/>
          <path class="cls-1" d="M56.67,51.94l.13.16.57.43c-.14-.17-.32-.39-.54-.67-.05.03-.1.05-.15.08Z"/>
          <path class="cls-1" d="M159,54.63c.37.15.81.1,1.9.2-.58-1.19,0-2-.63-2.68-.86.28-1.41.84-1.6,1.73.11.26.15.68.33.75Z"/>
          <path class="cls-1" d="M57.02,45.36c.27-.44.44-.89.52-1.34l-.16-.18-.96-.83-.22-.79c-.17.29-.34.6-.53.93.25.22.6.51.89.76v1.46c.16,0,.41.06.45,0Z"/>
          <path class="cls-1" d="M108.96,40.99l-.18.6c.09,0,.18,0,.26,0,.38-.56,1.16-.82,1.24-1.61-.46-.21-.91-.33-1.39-.3v.06s.07,1.25.07,1.25Z"/>
          <path class="cls-1" d="M79.26,188.13c.05,0,.1-.01.15-.02l-.02-.11-.05-1.06c-.12.36-.18.74-.08,1.18,0,0,0,0,0,0,0,0,0,0,0,0Z"/>
          <path class="cls-1" d="M116.13,155.5c.15.11.28.25.41.39l.22-.66.1-.89c-.2-.15-.43-.26-.74-.26h0v1.41Z"/>
          <path class="cls-1" d="M30.29,144.17s-.01-.03-.02-.05l-.06.09s.05-.03.08-.04Z"/>
          <path class="cls-1" d="M38.09,142.73c.47-.84.91-1.63,1.38-2.47-.56-.49-1.19-.58-1.82.12.15.72-.29,1.52.44,2.35Z"/>
          <path class="cls-1" d="M42.85,29.9l.63.66c.39-.37.85-.69.8-1.47-.63.43-1.33.12-2.1.31l.67.5Z"/>
          <path class="cls-1" d="M31.23,147.39h1.83c-.16-.83-.24-1.25-.36-1.87-.65.12-1.18.22-1.77.33.12.63.2,1.06.29,1.54Z"/>
          <path class="cls-1" d="M68.97,46.33c.69-.08,1.21-.13,1.93-.21-.21-.75-.34-1.25-.47-1.69h-1.61c.04.57.09,1.13.15,1.91Z"/>
          <path class="cls-1" d="M159.62,119.11s0,0,0,0c0,0,0,0,0,0,.05.13.1.26.16.4l.31-.08,1.18.16.52.48c.58-.02,1.18-.14,1.84-.47-1.42-.83-2.75-.32-4-.49Z"/>
          <path class="cls-1" d="M36.61,140.73c-.16-.03-.29-.08-.39-.15l-.19.19c.2-.01.39-.02.58-.04Z"/>
          <path class="cls-1" d="M44.08,64.65l.44.33.66.28c.12-.69.25-1.37-.44-1.96-.22.45-.43.9-.65,1.34Z"/>
          <path class="cls-1" d="M172.29,122.01h.04s-.01-.02-.03-.03c0,.01-.01.02-.02.03Z"/>
          <path class="cls-1" d="M46.94,123.59c.35.06.67.1,1,.15l.21-.04-.57-.79c-.18.19-.38.41-.63.67Z"/>
          <path class="cls-1" d="M160.2,50c.27.05.54.1.79.15.29-.27.46-.52.52-.78h-.84s-.47.63-.47.63Z"/>
          <path class="cls-1" d="M152.06,61.9s.09.08.14.12l.6-.35.33-.25c-.36-.06-.71.1-1.07.48Z"/>
          <path class="cls-1" d="M40.92,61.51l.4.51s.08-.08.11-.11c-.17-.19-.34-.32-.52-.4Z"/>
          <path class="cls-1" d="M37.66,109.65v-.95q-2.06.02-2.68.65c.84.57,1.79.18,2.68.3Z"/>
          <path class="cls-1" d="M141.38,67.89c.42-.55.45-1.07-.19-1.75-.42.08-.94.19-1.66.33.79.55,1.06,1.31,1.85,1.41Z"/>
          <path class="cls-1" d="M153.47,59.56c.79-.96.79-1.91,0-2.87-.79.96-.79,1.91,0,2.87Z"/>
          <path class="cls-1" d="M65.13,146.52c-.06-.94.13-1.69-.18-2.29l-.37.39-.45.72c.1.52.42,1.1,1.09,1.82-.04-.19-.06-.37-.07-.54-.02-.04-.04-.06-.06-.1.02,0,.04,0,.06,0Z"/>
          <path class="cls-1" d="M43.44,141.61l.34-.6.11-.04c-.1-.09-.2-.18-.31-.29-.05.33-.1.62-.14.93Z"/>
          <path class="cls-1" d="M135.21,153.15l-.67-.67-.43-.6c-.15.41,0,.83.44,1.25.2-.03.44.01.66.01Z"/>
          <path class="cls-1" d="M23.7,150.6c-.65-.12-1.16-.22-2.03-.38l-.12.22-.08.02c.15.83.22,1.21.29,1.6.89-.14,1.17-.87,1.93-1.46Z"/>
          <path class="cls-1" d="M27.4,147.15c.83.51,1.67.47,2.98-.21-2.22-.45-2.22-.44-2.98.21Z"/>
          <path class="cls-1" d="M79.26,176.56c.68.03,1.45.39,2.13.17l.55-.52c-1.42-.33-1.47-.31-2.68.35Z"/>
          <path class="cls-1" d="M143.07,170.19c.42-.08.94-.19,1.66-.33-.79-.55-1.06-1.31-1.85-1.41-.42.55-.45,1.07.19,1.75Z"/>
          <path class="cls-1" d="M18.58,90.15c-.08-.11-.17-.23-.29-.34-.07.09-.15.18-.24.26h.02s.51.08.51.08Z"/>
          <path class="cls-1" d="M176.34,42.75c.09-.5.17-.92.28-1.48l.08-.78c-.98.18-1.4.26-1.82.33.14.89.87,1.17,1.46,1.93Z"/>
          <path class="cls-1" d="M10.99,89.17h.06c.07-.39.15-.82.27-1.43-1.04.19-1.45.27-1.88.35,0,.04.02.06.03.1h.49s1.04.99,1.04.99Z"/>
          <path class="cls-1" d="M138.04,132.98c.84.47,1.67.47,2.95-.25-2.28-.43-2.28-.41-2.95.25Z"/>
          <path class="cls-1" d="M42.14,21.49l-.75.12-.35.06c.37.17.73.11,1.1-.18Z"/>
          <path class="cls-1" d="M147.8,80.36c-.1,0-.32.23-.3.3.06.22.21.59.34.6.41.02.84-.09,1.25-.15,0-.2-.02-.4-.03-.6-.42-.06-.84-.13-1.26-.15Z"/>
          <path class="cls-1" d="M154.57,78.33c.5-.54.47-1.07-.32-1.56.19.46-.95,1.22.32,1.56Z"/>
          <path class="cls-1" d="M140.3,70.99c-.06.03-.13.07-.2.11l.05.07.15-.18Z"/>
          <path class="cls-1" d="M48.53,35.93c-.1,0-.32.23-.3.3.06.22.21.59.34.6.41.02.84-.09,1.25-.15,0-.2-.02-.4-.03-.6-.42-.06-.84-.13-1.26-.15Z"/>
          <path class="cls-1" d="M45.22,29.29c.17.61-.46,1.46.55,1.81q.41-1.25-.55-1.81Z"/>
          <path class="cls-1" d="M157.29,56.68c.41.02.83-.09,1.25-.15,0-.2-.02-.4-.03-.6-.42-.06-.84-.13-1.26-.15-.1,0-.32.23-.3.3.06.22.21.59.34.6Z"/>
          <path class="cls-1" d="M150.48,58.43c.22-.06.59-.21.6-.34.02-.37-.07-.75-.13-1.13l-.67.22c-.05.31-.09.62-.1.94,0,.1.23.32.3.3Z"/>
          <path class="cls-1" d="M109.02,48.33l.15.11c-.02-.06-.03-.1-.05-.16-.04.01-.06.03-.1.05Z"/>
          <path class="cls-1" d="M99.66,15.98c.41-1.23.41-1.25-.5-1.78.02.08.04.16.06.23-.03-.03-.05-.05-.08-.07.03.58-.38,1.3.53,1.62Z"/>
          <path class="cls-1" d="M39.05,110.59c.12,0,.33-.22.32-.29-.06-.23-.18-.59-.32-.61-.45-.08-.92-.03-1.39-.03v.95c.46,0,.93.02,1.39-.01Z"/>
          <path class="cls-1" d="M37.16,110.9l.44-.03h.03c0-.1,0-.19.03-.27-.21.12-.37.22-.5.3Z"/>
          <path class="cls-1" d="M139.26,135.21c-.41-.02-.84.09-1.25.15,0,.16.01.33.02.49l.08.06.1.07c.36.05.72.11,1.09.13.1,0,.32-.23.3-.3-.06-.22-.21-.59-.34-.6Z"/>
          <path class="cls-1" d="M83.59,164.57c-1.01.35-.38,1.2-.55,1.81.27-.16.46-.27.59-.38l-.2-.69.23-.53c-.02-.07-.04-.13-.07-.21Z"/>
          <path class="cls-1" d="M8.82,84.11c.1,0,.32-.23.3-.3-.01-.04-.03-.08-.04-.12l-.77.15-.77-.24c0,.12.01.24.02.36.42.06.84.13,1.26.15Z"/>
          <path class="cls-1" d="M135.04,158.34c.63.68,1.26.68,1.9,0-.63-.68-1.26-.68-1.9,0Z"/>
          <path class="cls-1" d="M65.13,146.52s-.04,0-.06,0c.02.04.04.07.06.1.5.86.56.86,1.81.44-.44-.81-1.19-.46-1.81-.54Z"/>
          <path class="cls-1" d="M31.97,148.89c0-.1-.23-.32-.3-.3-.22.06-.59.21-.6.34,0,.1.01.21.02.32l.84.02c.01-.12.03-.25.04-.37Z"/>
          <path class="cls-1" d="M153.41,97.26l-.4.06s0,.03,0,.05h.64l-.23-.1Z"/>
          <path class="cls-1" d="M155.21,98.11c.36.08.52-.07.58-.3l-.14.04-.63-.05c.05.16.1.29.18.31Z"/>
          <path class="cls-1" d="M160.05,98.89l-.25-.31c-.06.07-.12.15-.18.21.16.09.32.18.48.27l-.05-.16Z"/>
          <path class="cls-1" d="M149.08,98.92c-.11-.2-.22-.4-.34-.61-.1.1-.3.23-.29.31v.02c.06.21.19.41.29.61.1-.11.21-.21.34-.34Z"/>
          <path class="cls-1" d="M37.66,108.71c.65.02.97-.29.95-.95-.65-.02-.97.29-.95.95Z"/>
          <path class="cls-1" d="M159.24,102.26c-.03-.06-.06-.11-.09-.17-.11.11-.31.23-.3.31,0,.02.02.05.03.07h.24s.12-.21.12-.21Z"/>
          <path class="cls-1" d="M18.28,86.96c.11-.21.23-.41.34-.61-.13-.13-.23-.23-.34-.34-.11.21-.25.41-.3.63-.02.08.19.21.3.31Z"/>
          <path class="cls-1" d="M5.82,86.79c.22-.05.42-.19.63-.3-.11-.1-.21-.21-.34-.34-.2.11-.4.22-.61.34.11.11.23.31.31.3Z"/>
          <path class="cls-1" d="M149.69,79.4c.11-.21.23-.41.34-.61-.13-.13-.23-.23-.34-.34-.11.21-.25.41-.3.63-.02.08.19.21.3.31Z"/>
          <path class="cls-1" d="M145.44,140.38c-.21-.11-.41-.25-.63-.3-.08-.02-.21.19-.31.3.21.11.41.23.61.34.13-.13.23-.23.34-.34Z"/>
          <path class="cls-1" d="M40.49,138.49c-.1-.11-.23-.31-.31-.3-.22.05-.42.19-.63.3.11.1.21.21.34.34.2-.11.4-.22.61-.34Z"/>
          <path class="cls-1" d="M81.18,167.28c-.64.14-1.16.17-.59.91.19-.22.39-.45.68-.8.05-.05.09-.1.14-.16-.08.02-.16.04-.24.06Z"/>
          <path class="cls-1" d="M132.51,151.08c.22-.05.42-.19.63-.3-.11-.11-.21-.21-.34-.34-.2.11-.4.22-.61.34.11.11.23.31.31.3Z"/>
          <path class="cls-1" d="M85.11,156.29c.05.22.19.42.3.63.1-.1.28-.22.29-.29v-.02c-.05-.22-.19-.42-.29-.63-.11.11-.31.23-.3.31Z"/>
          <path class="cls-1" d="M113.29,156.45c.21.11.41.23.61.34.13-.13.23-.23.34-.34-.21-.11-.41-.25-.63-.3-.08-.02-.21.19-.31.3Z"/>
          <path class="cls-1" d="M131.36,152.46s-.07-.06-.11-.1c.12.54.21.9.86.39-.23-.2-.47-.4-.85-.73.03.14.06.28.1.43Z"/>
          <path class="cls-1" d="M59.58,152.83c-.02.08.19.21.3.31.11-.21.23-.41.34-.61-.13-.13-.23-.23-.34-.34-.1.21-.25.41-.3.63Z"/>
          <path class="cls-1" d="M128.74,153.42h0s.4.21.4.21c.03-.05.05-.1.08-.14-.13-.13-.23-.23-.34-.34-.05.09-.1.18-.15.27Z"/>
          <path class="cls-1" d="M131.26,152.03c-.12-.54-.2-.9-.86-.39.23.2.47.4.85.73.04.03.07.06.11.1-.04-.15-.07-.29-.1-.43Z"/>
          <path class="cls-1" d="M62.24,151.73c.21.11.41.23.61.34.13-.13.23-.23.34-.34-.21-.11-.41-.25-.63-.3-.08-.02-.21.19-.31.3Z"/>
          <path class="cls-1" d="M75.52,188.13c.02.09.04.17.06.26-.03-.03-.06-.05-.09-.07.05.52.34.78.93.76.02-.64-.28-.95-.9-.94Z"/>
          <path class="cls-1" d="M35,143.06c.05.22.19.42.3.63.1-.11.31-.23.3-.31-.05-.22-.19-.42-.3-.63-.11.11-.31.23-.3.31Z"/>
          <path class="cls-1" d="M75.52,188.13c-.11-.5-.16-.91-.55-.77l.03.1-.08.37c.16.13.34.29.57.49.03.03.06.05.09.07-.02-.09-.05-.17-.06-.26Z"/>
          <path class="cls-1" d="M77.19,175.52c-.05-.22-.19-.42-.3-.63-.06.06-.15.12-.21.19l.05.45c.05.1.11.2.17.31.1-.11.31-.23.3-.31Z"/>
          <path class="cls-1" d="M171.91,118c-.11-.54-.2-.9-.86-.39.23.2.47.4.85.73-.03-.14-.06-.28-.1-.43.04.04.07.06.11.1Z"/>
          <path class="cls-1" d="M159.62,119.11c.02-.65-.29-.97-.95-.94-.02.65.29.97.94.95,0,0,0,0,0,0,0,0,0,0,0,0Z"/>
          <path class="cls-1" d="M171.8,117.9c.04.15.07.29.1.43.12.54.21.9.86.39-.23-.2-.47-.41-.85-.73-.04-.03-.07-.06-.11-.1Z"/>
          <path class="cls-1" d="M178.05,122.89c.11-.1.31-.23.3-.31-.05-.22-.19-.42-.3-.63-.11.11-.31.23-.3.31.05.22.19.42.3.63Z"/>
          <path class="cls-1" d="M174.52,122.67s.05-.07.05-.09c-.05-.22-.19-.42-.3-.63-.11.11-.31.23-.3.31,0,.02.01.03.02.05l.52.37Z"/>
          <path class="cls-1" d="M170.47,121.97h.04s-.01-.01-.02-.02c0,0-.02.01-.03.02Z"/>
          <path class="cls-1" d="M178.39,120.66c-.11-.2-.22-.4-.34-.61-.11.1-.31.23-.3.31.05.22.19.42.3.63.1-.11.21-.21.34-.34Z"/>
          <path class="cls-1" d="M172.54,120.23c-.22.05-.42.19-.63.3.1.11.23.31.31.3.22-.05.42-.19.63-.3-.11-.11-.23-.31-.31-.3Z"/>
          <path class="cls-1" d="M166.71,116.27c.1-.11.31-.23.3-.31,0-.03-.02-.05-.03-.08l-.51-.11c.07.17.16.34.24.5Z"/>
          <path class="cls-1" d="M185.81,123.67l.04-.3c-.07-.16-.16-.32-.24-.48-.11.11-.21.21-.34.34.11.19.22.39.33.59h.04c.05-.06.11-.1.16-.15Z"/>
          <path class="cls-1" d="M99.16,14.2c-.05-.22-.09-.42-.14-.57l-.32.36c.13.11.27.23.44.38.03.02.05.04.08.07-.02-.08-.04-.16-.06-.23Z"/>
          <path class="cls-1" d="M58.46,52.93s0,.03,0,.04c.63-.14,1.12-.17.56-.9-.2.23-.41.48-.73.86h.17Z"/>
          <path class="cls-1" d="M161.69,53.24c.05.22.19.42.3.63.11-.1.21-.21.34-.34-.11-.2-.22-.4-.34-.61-.11.1-.31.23-.3.31Z"/>
          <path class="cls-1" d="M58.29,52.93h-.43l.43.66c.14-.13.18-.36.17-.62,0-.01,0-.03,0-.04h-.17Z"/>
          <path class="cls-1" d="M169.08,45.2c-.12-.54-.21-.9-.86-.39.23.2.47.4.85.73-.03-.14-.06-.28-.1-.43.04.04.07.06.11.1Z"/>
          <path class="cls-1" d="M109.52,45.2c-.11-.54-.2-.9-.86-.39.23.2.47.4.85.73-.03-.14-.06-.28-.1-.43.04.04.07.06.11.1Z"/>
          <path class="cls-1" d="M168.97,45.1c.04.15.07.29.1.43.12.54.21.9.86.39-.23-.2-.47-.4-.85-.73-.04-.03-.07-.06-.11-.1Z"/>
          <path class="cls-1" d="M109.4,45.1c.04.15.07.29.1.43.12.54.21.9.86.39-.23-.2-.47-.4-.85-.73-.04-.03-.07-.06-.11-.1Z"/>
          <path class="cls-1" d="M69.33,48.2c-.1.11-.31.23-.3.31.05.22.19.42.3.63.11-.11.21-.21.34-.34-.11-.2-.22-.4-.34-.61Z"/>
          <path class="cls-1" d="M83.18,46.65c.11.2.22.4.34.61.1-.11.31-.23.3-.31-.05-.22-.19-.42-.3-.63-.11.11-.21.21-.34.34Z"/>
          <path class="cls-1" d="M148.14,59.21c-.05-.09-.1-.18-.15-.27l-.35.31c.05.1.11.2.16.3.1-.11.21-.21.34-.34Z"/>
          <path class="cls-1" d="M96.98,29.09c.07-.06.16-.19.24-.27-.04-.02-.08-.04-.12-.07l-.12.33Z"/>
          <path class="cls-1" d="M44.28,29.29h.95v-.95c-.65-.02-.97.29-.95.95Z"/>
          <path class="cls-1" d="M114.15,29.85c-.1-.08-.2-.17-.31-.26h-.52c.11.47.23.73.83.26Z"/>
          <path class="cls-1" d="M40.97,22.68c-.1.11-.31.23-.3.31.05.22.19.42.3.63.11-.11.21-.21.34-.34-.11-.2-.22-.4-.34-.61Z"/>
          <path class="cls-1" d="M42.86,27.4c.11-.21.23-.41.34-.61-.13-.13-.23-.23-.34-.34-.1.21-.25.41-.3.63-.02.08.19.21.3.31Z"/>
          <path class="cls-1" d="M46.64,32.13c-.11.21-.23.41-.34.61.13.13.23.23.34.34.11-.21.25-.41.3-.63.02-.08-.19-.21-.3-.31Z"/>
          <path class="cls-1" d="M44.6,33.21l.32.18c-.06-.1-.11-.21-.17-.31-.04.04-.1.09-.15.13Z"/>
          <path class="cls-1" d="M52.83,38.75c-.14-.63-.17-1.13-.9-.56.23.2.48.41.86.73.04.03.07.06.11.09-.02-.09-.05-.18-.06-.26Z"/>
        </g>
      </g>
    </g>
  </g>
</svg>