<?xml version="1.0" encoding="UTF-8"?>
<svg id="_レイヤー_2" data-name="レイヤー 2" xmlns="http://www.w3.org/2000/svg" viewBox="0 0 193.39 206.8">
  <defs>
    <style>
      .cls-1 {
        fill: #fff;
      }

      .cls-2 {
        fill: #efdfcd;
        fill-rule: evenodd;
      }
    </style>
  </defs>
  <g id="_レイヤー_1-2" data-name="レイヤー 1">
    <g id="stars">
      <g>
        <polygon class="cls-2" points="89.47 81.03 89.09 79.75 89.72 78.62 89.36 77.35 89.77 76.19 90.23 75.03 90.01 73.78 89.99 72.55 90.47 71.4 90.94 70.25 91.05 69.05 91.46 67.88 91.39 66.65 91.76 65.49 91.04 64.16 92.02 63.08 91.96 61.85 91.57 60.57 92.17 59.44 92.39 58.25 92.39 57.03 92.85 55.87 93.31 54.72 92.61 53.4 93.19 52.26 93.4 51.07 93.72 49.89 93.89 48.7 94.07 47.5 94.44 46.33 93.82 45.03 94.44 43.89 94.75 42.72 95.05 41.54 95.28 40.35 94.57 39.04 94.93 37.86 94.92 36.65 95.36 35.48 95.25 34.25 95.8 33.1 96.44 31.97 96.59 30.77 96.56 29.55 96.49 28.32 97.07 27.18 97.04 25.95 96.85 24.73 96.68 23.51 96.83 22.33 97.16 21.18 97.27 19.99 97.78 18.87 98.18 17.73 98.16 16.52 98.4 15.36 98.04 14.1 98.77 13.01 99.28 11.89 98.73 10.61 98.81 9.42 99.63 8.34 99.93 7.18 99.8 5.96 99.69 4.75 100.33 3.63 99.82 2.38 100.53 1.26 100.33 0 100.51 1.24 99.95 2.47 100.51 3.65 100.69 4.85 100.3 6.06 100.14 7.27 100.11 8.47 100.18 9.67 101.13 10.85 101.08 12.05 100.94 13.26 100.91 14.46 101.29 15.66 100.7 16.87 101.28 18.06 100.93 19.27 101.03 20.47 100.63 21.69 100.88 22.88 100.5 24.09 101.49 25.27 101.34 26.48 100.93 27.69 101.34 28.89 101.55 30.08 100.78 31.3 101.56 32.49 101.4 33.69 100.98 34.9 101.18 36.1 101.44 37.3 101.14 38.51 101.66 39.7 101.22 40.91 101.51 42.11 101.6 43.31 101.06 44.52 101.09 45.72 101.4 46.92 101.17 48.12 101.92 49.32 101.79 50.52 101.45 51.73 101.6 52.93 101.25 54.13 101.12 55.34 101.05 56.54 102.01 57.73 101.55 58.94 101.7 60.14 101.2 61.35 101.38 62.55 101.45 63.75 101.54 64.95 101.78 66.15 101.4 67.36 101.62 68.56 101.39 69.76 101.8 70.96 102.1 72.16 102.16 73.36 101.53 74.57 101.79 75.77 102.14 76.96 101.35 78.18 102.05 79.37 101.76 80.58 102.28 81.77 101.89 82.98 101.48 84.19 101.91 85.38 101.84 86.81 103.1 86.08 103.96 85.22 104.43 83.91 105.75 83.58 106.81 82.95 107.55 81.95 108.12 80.76 109.1 80.04 110.09 79.33 111.28 78.85 111.98 77.82 112.83 76.95 113.69 76.09 114.87 75.67 115.54 74.66 116.49 73.99 117.28 73.13 118.26 72.48 118.77 71.32 119.73 70.65 120.7 69.98 121.25 68.89 122.58 68.56 123.18 67.53 124.05 66.74 125.03 66.05 125.14 64.63 126.32 63.71 125.21 64.8 125.35 66.23 124.19 66.97 123.53 67.98 122.94 69.02 122.49 70.14 122.54 71.52 121.62 72.39 120.68 73.25 120.18 74.34 120.2 75.7 119.76 76.82 119.04 77.8 118.49 78.86 118.13 80.02 117.17 80.88 116.89 82.08 116.06 83 115.76 84.19 114.91 85.1 114.84 86.42 114.32 87.49 113.17 88.26 112.63 89.58 113.89 88.78 115.09 88.58 116.24 88.22 117.46 88.07 118.57 87.56 119.77 87.34 121.05 87.4 122.12 86.77 123.33 86.6 124.39 85.92 125.56 85.63 126.63 84.98 127.91 85.01 129.12 84.85 130.18 84.17 131.35 83.88 132.61 83.82 133.77 83.46 134.78 82.7 136.03 82.64 136.91 81.47 138.11 81.25 139.41 81.3 140.52 80.82 141.7 80.56 142.71 79.79 144.02 79.88 145.22 79.63 146.04 78.32 147.36 78.44 148.52 78.11 149.45 77.12 150.63 76.83 151.86 76.67 152.99 76.25 154.24 76.15 155.2 75.27 156.4 75.03 157.62 74.84 158.82 74.62 159.9 74.05 160.92 73.34 162.05 72.89 163.33 72.88 164.4 72.29 165.42 71.57 166.51 71.04 167.65 70.63 168.91 70.56 169.98 69.98 171.19 69.76 172.36 69.44 173.37 68.71 174.55 68.38 175.49 67.47 176.72 67.32 177.94 67.11 179.08 66.72 180.15 66.15 181.41 66.02 182.23 64.84 183.54 64.85 184.57 64.18 185.66 63.64 187.04 63.83 188.02 63.03 189.24 62.82 190.38 62.42 191.4 61.73 192.3 60.77 193.39 60.24 192.67 61.41 191.33 61.28 190.28 61.89 189.3 62.66 188.03 62.82 186.95 63.39 186.02 64.24 185.14 65.17 183.95 65.51 182.79 65.92 181.8 66.63 180.56 66.88 179.76 67.95 178.49 68.16 177.6 69.06 176.17 68.98 175.41 70.12 174.28 70.58 173.19 71.11 172.28 71.98 171.08 72.3 170.12 73.08 169.04 73.63 168.03 74.3 166.96 74.89 165.95 75.57 164.63 75.68 163.77 76.64 162.73 77.25 161.44 77.42 160.57 78.36 159.48 78.9 158.44 79.54 157.4 80.15 156.12 80.25 155.12 80.92 153.89 81.14 152.96 81.95 151.79 82.29 150.95 83.28 149.69 83.43 148.43 83.57 147.73 84.87 146.55 85.16 145.4 85.53 144.2 85.8 143.06 86.19 142.29 87.36 141.05 87.52 139.94 87.98 139.01 88.8 137.94 89.32 136.84 89.81 135.5 89.76 134.42 90.27 133.43 90.97 132.53 91.86 131.27 92 130.23 92.61 129.3 93.43 128.16 93.82 126.88 93.91 125.91 94.66 124.82 95.14 123.87 95.92 122.84 96.55 121.66 96.84 120.62 97.45 119.32 97.48 118.28 98.08 117.22 98.63 116.37 99.64 114.94 99.41 113.65 100.37 115.25 100.44 116.34 100.98 117.56 101.04 118.67 101.52 119.9 101.51 121.01 101.98 122.09 102.56 123.4 102.24 124.45 102.97 125.62 103.2 126.73 103.66 127.95 103.7 129.15 103.83 130.34 103.96 131.43 104.51 132.54 105 133.64 105.5 134.93 105.28 135.98 105.98 137.18 106.08 138.38 106.2 139.39 107.12 140.64 107 141.82 107.18 143.07 107.06 144.11 107.87 145.3 108.04 146.52 107.98 147.66 108.36 148.39 108.58 147.64 108.79 146.46 109.01 145.28 108.9 144.1 108.97 142.92 108.62 141.74 108.34 140.55 108.4 139.38 108.67 138.21 109.06 137.01 108.53 135.84 108.88 134.66 109.11 133.48 109.18 132.29 108.96 131.12 109.38 129.92 108.82 128.75 108.59 127.61 109.35 126.43 108.67 125.27 108.58 124.11 109.34 122.94 108.64 121.78 109.29 120.61 109.51 119.45 109.05 118.28 109.39 117.12 108.69 115.95 108.93 114.59 108.96 115.54 110.05 116.71 110.46 117.91 110.81 118.64 111.9 119.71 112.44 120.68 113.16 121.78 113.66 122.97 114.03 124.1 114.5 124.97 115.36 125.77 116.34 126.98 116.67 127.85 117.54 128.73 118.4 129.72 119.07 131.09 119.15 131.86 120.18 132.84 120.88 133.99 121.31 135.32 121.44 135.94 122.71 136.9 123.44 138.07 123.84 139.28 124.16 140.08 125.14 141.41 125.28 142.27 126.17 143.41 126.61 144.04 127.88 145.51 127.78 146.32 128.75 147.19 129.63 148.25 130.2 149.2 130.95 150.62 130.92 151.38 131.97 152.64 132.22 153.65 132.87 154.29 134.12 155.29 134.79 156.28 135.46 157.56 135.67 158.79 135.96 159.79 136.64 160.7 137.44 161.89 137.79 162.85 138.53 163.47 139.82 164.65 140.19 165.92 140.42 166.89 141.12 167.83 141.9 168.88 142.48 169.97 142.99 170.66 144.17 172.07 144.15 172.92 145.08 174.07 145.49 174.92 146.4 176.11 146.75 177.13 147.39 178 148.27 179.23 148.55 180.1 149.42 181.05 150.17 182.35 150.71 181.26 149.76 180.2 149.18 178.74 149.47 177.7 148.85 176.85 147.86 175.54 147.81 174.69 146.79 173.29 146.94 172.21 146.41 171.29 145.55 170.33 144.78 169.27 144.21 168.08 143.92 167.18 143.01 165.89 142.93 164.78 142.46 163.94 141.43 162.71 141.23 161.74 140.48 160.66 139.95 159.28 140.05 158.38 139.16 157.32 138.58 156.12 138.31 155.07 137.72 153.96 137.27 153.04 136.4 152.01 135.79 150.74 135.64 149.9 134.62 148.59 134.58 147.45 134.17 146.44 133.5 145.21 133.29 144.14 132.73 143.16 132.01 142.18 131.29 140.92 131.13 139.79 130.7 139.03 129.53 137.69 129.53 136.9 128.43 135.58 128.39 134.57 127.71 133.36 127.46 132.31 126.86 131.47 125.87 130.35 125.41 129.36 124.72 128.09 124.58 127.09 123.88 126.11 123.17 125.16 122.38 124.1 121.83 122.66 122 121.74 121.18 120.6 120.77 119.46 120.35 118.34 119.9 117.32 119.27 116.56 118.12 115.56 117.44 114.3 117.26 113.38 116.43 112.13 116.24 111.16 115.5 110.03 115.06 108.87 114.69 108.01 114.2 107.98 115.3 108.64 116.35 109.45 117.33 109.29 118.72 110.21 119.66 110.8 120.73 110.92 122 111.54 123.07 111.93 124.22 112.87 125.17 112.74 126.52 113.07 127.7 113.29 128.92 114.3 129.84 115 130.87 115.19 132.09 115.03 133.44 115.85 134.42 116.12 135.61 116.44 136.78 117.33 137.74 117.06 139.13 117.96 140.09 118.03 141.35 118.68 142.4 118.81 143.65 119.28 144.77 120.1 145.74 121.03 146.58 121.62 147.97 121.79 149.09 120.9 148.06 120.69 146.79 120.05 145.81 118.9 145.23 118.83 143.81 117.57 143.32 117.41 141.96 116.44 141.24 115.88 140.2 114.71 139.64 114.2 138.56 113.39 137.72 112.43 136.99 112.21 135.68 111.2 135 110.83 133.81 110.14 132.87 108.9 132.27 108.22 131.24 107.88 129.96 106.69 129.3 106.34 128.04 105.81 126.91 104.39 126.4 103.9 125.24 103.02 124.36 102.87 122.96 101.75 122.24 101.29 121.23 101.54 122.35 101 123.48 100.41 124.6 100.79 125.88 100.31 127.02 100.32 128.24 99.92 129.39 99.75 130.58 99.59 131.78 99 132.91 99.1 134.14 98.92 135.33 98.95 136.54 98.89 137.75 98.51 138.91 98.03 140.06 98.52 141.34 98.54 142.55 98.43 143.75 97.74 144.88 97.51 146.06 97.59 147.28 97.3 148.46 97.63 149.71 97.5 150.91 96.58 152.01 97.01 153.27 96.81 154.46 96.57 155.64 96.77 156.87 96.47 158.05 96.31 159.24 96.44 160.47 95.52 161.57 95.86 162.82 95.56 164 95.8 165.24 95.64 166.43 94.85 167.55 95.23 168.8 95 169.99 94.39 171.12 94.47 172.35 94.81 173.6 94.21 174.74 94.53 175.99 93.72 177.1 94.01 178.35 93.24 179.46 93.08 180.65 93.52 181.92 93.48 183.13 93.14 184.3 93.18 185.52 92.37 186.62 92.97 187.92 92.85 189.12 92.71 190.32 92.11 191.44 92.33 192.69 91.85 193.84 91.18 194.95 91.17 196.17 91.5 197.43 91.14 198.6 91.2 199.82 90.75 200.97 89.92 202.05 89.71 203.23 89.56 204.42 89.33 205.61 89.55 206.8 89.44 205.66 89.94 204.46 89.64 203.25 89.77 202.05 90.07 200.84 89.47 199.63 89.43 198.42 89.5 197.22 89.78 196.01 90.1 194.81 89.67 193.6 89.88 192.4 89.58 191.19 90.05 189.98 90.14 188.78 89.62 187.57 89.46 186.37 89.9 185.16 89.76 183.95 89.61 182.75 89.21 181.55 89.67 180.34 89.69 179.13 89.39 177.93 89.5 176.72 89.94 175.51 89.12 174.32 89.74 173.1 89.52 171.9 89.46 170.69 89.66 169.48 89.63 168.28 89.52 167.07 89.64 165.86 89.57 164.66 88.85 163.47 89.58 162.25 89.42 161.04 88.76 159.86 89.36 158.63 89.08 157.44 89.04 156.23 88.88 155.03 88.69 153.83 88.95 152.61 89.1 151.4 89.3 150.19 88.63 149.01 88.42 147.81 88.43 146.6 88.44 145.39 88.35 144.19 89.14 142.96 88.18 141.78 88.1 140.58 88.17 139.37 88.56 138.15 88.78 136.94 88.36 135.74 88.37 134.54 88.37 133.33 87.87 132.14 88.73 130.91 87.91 129.72 87.8 128.52 88.17 127.3 87.92 126.1 88.72 124.88 88.03 124.09 87.3 124.44 86.43 125.25 85.4 125.87 84.38 126.5 83.79 127.65 82.66 128.16 81.6 128.74 81.15 130.05 79.92 130.43 79.38 131.63 78.41 132.33 77.12 132.64 76.41 133.65 75.56 134.49 74.62 135.21 73.45 135.67 72.64 136.55 72.19 137.85 71.21 138.54 70.04 139.01 69.43 140.11 68.33 140.67 67.57 141.59 66.52 142.2 65.47 142.83 64.52 143.55 64.33 145.08 62.91 145.31 62.62 146.72 61.66 146.94 61.87 146.09 62.46 145.06 62.99 144 63.82 143.12 64.3 142.03 65.16 141.18 66.08 140.36 66.42 139.18 67.02 138.16 68.15 137.48 68.84 136.53 69.2 135.35 69.83 134.35 70.09 133.12 71.09 132.35 71.73 131.37 72 130.13 73 129.37 73.23 128.12 74.32 127.41 75.26 126.61 75.18 125.16 75.84 124.19 77.13 123.6 77 122.13 78.24 121.51 78.73 120.42 79.2 119.4 77.96 119.43 77.03 120.46 75.68 120.19 74.67 121.01 73.55 121.45 72.47 122.02 71.08 121.66 70.12 122.61 68.78 122.38 67.84 123.38 66.66 123.64 65.49 123.96 64.14 123.7 63.08 124.36 62.03 125.03 60.71 124.88 59.72 125.73 58.67 126.41 57.39 126.36 56.38 127.15 54.95 126.66 53.92 127.41 52.81 127.89 51.77 128.61 50.44 128.42 49.51 129.45 48.25 129.48 47.06 129.73 45.85 129.91 44.92 130.94 43.7 131.11 42.49 131.28 41.29 131.47 40.23 132.1 39.07 132.42 37.96 132.91 36.67 132.82 35.64 133.56 34.46 133.86 33.21 133.92 32.08 134.33 31.12 135.3 29.77 135.05 28.78 135.9 27.58 136.09 26.47 136.61 25.24 136.74 23.99 136.79 23.08 137.92 21.75 137.72 20.58 138.05 19.63 139.03 18.26 138.73 17.35 139.83 15.92 139.35 15 140.43 13.65 140.18 12.47 140.43 11.51 141.43 10.35 141.75 9.07 141.73 8.08 142.6 6.84 142.71 5.83 143.53 4.46 143.23 3.31 143.62 2.24 144.26 .93 144.16 0 145.3 .88 144.23 1.89 143.57 3.16 143.5 4.34 143.22 5.4 142.69 6.41 142.03 7.7 141.99 8.55 141 9.53 140.31 10.53 139.64 11.98 139.92 12.98 139.24 13.86 138.34 14.78 137.51 16.22 137.76 17.14 136.94 18.33 136.66 19.24 135.81 20.16 134.99 21.45 134.93 22.32 133.99 23.38 133.45 24.41 132.86 25.61 132.6 26.82 132.38 27.96 132.01 28.81 130.97 29.96 130.58 30.9 129.74 32.07 129.38 33.44 129.46 34.27 128.37 35.51 128.17 36.65 127.74 37.69 127.1 38.77 126.58 40 126.34 40.96 125.53 42.15 125.23 43.06 124.32 44.15 123.79 45.49 123.79 46.45 122.98 47.61 122.62 48.48 121.62 49.51 120.96 50.66 120.57 52.03 120.62 52.83 119.49 54.04 119.22 55.03 118.49 56.27 118.26 57.37 117.78 58.61 117.56 59.58 116.77 60.85 116.62 61.77 115.74 62.89 115.29 64.05 114.9 65.1 114.28 66.14 113.65 67.24 113.15 68.42 112.82 69.24 111.73 70.52 111.59 71.68 111.22 72.46 110.05 74.01 109.57 72.53 109.81 71.52 109.09 70.22 109.2 69.32 108.17 68 108.31 67.13 107.2 65.95 106.97 64.89 106.38 63.69 106.21 62.33 106.5 61.49 105.28 60.22 105.29 58.95 105.32 57.87 104.78 56.77 104.32 55.74 103.66 54.55 103.45 53.63 102.46 52.51 102.07 51.23 102.09 49.99 102.03 48.99 101.26 47.75 101.18 46.78 100.34 45.49 100.39 44.36 100 43.54 98.99 44.49 99.47 45.63 99.12 46.83 99.47 47.99 99.4 49.14 99.07 50.26 98.29 51.43 98.33 52.63 98.9 53.8 98.94 54.96 98.72 56.12 98.5 57.29 98.54 58.46 98.48 59.6 98.02 60.75 97.72 61.94 98.01 63.14 97.51 64.45 98.19 65.66 97.78 66.86 97.38 68.07 97.01 69.37 97.47 70.63 97.53 71.87 97.41 73.05 96.87 73.81 96.51 73.4 95.84 72.15 95.49 71.54 94.32 70.6 93.58 69.64 92.86 68.83 91.95 67.41 91.83 66.79 90.67 65.5 90.38 64.58 89.62 63.92 88.5 62.66 88.18 61.93 87.16 60.82 86.64 60.03 85.69 59.35 84.6 57.99 84.43 56.92 83.85 56.43 82.51 55.31 82 54.5 81.08 53.31 80.67 52.3 80.02 51.65 78.88 50.41 78.54 49.76 77.41 48.36 77.28 47.32 76.67 46.67 75.53 45.5 75.1 44.88 73.93 43.7 73.51 42.89 72.58 41.85 71.97 40.8 71.38 40.05 70.37 39.07 69.69 37.83 69.34 37.16 68.22 35.89 67.94 34.78 67.42 33.78 66.76 32.9 65.92 32.26 64.77 31.08 64.35 30.4 63.25 29.31 62.72 28.48 61.82 27.44 61.21 26.47 60.51 25.41 59.92 24.16 59.6 23.06 59.07 22.17 58.26 21.13 57.65 20.63 56.31 19.25 56.17 18.77 54.8 17.44 54.58 16.93 53.94 17.83 53.95 18.72 54.81 19.5 55.87 20.83 55.93 21.8 56.64 23.08 56.8 23.98 57.64 24.89 58.48 25.9 59.12 26.92 59.74 28.21 59.87 29.27 60.42 30.24 61.14 31.34 61.62 32.44 62.1 33.57 62.52 34.35 63.6 35.35 64.26 36.73 64.2 37.46 65.39 38.85 65.32 39.79 66.09 41 66.36 42.09 66.86 42.9 67.88 43.9 68.55 44.99 69.04 45.92 69.85 47.06 70.25 48.28 70.5 49.4 70.93 50.26 71.87 51.39 72.29 52.38 72.98 53.53 73.35 54.76 73.58 55.78 74.21 56.87 74.69 57.98 75.15 58.98 75.82 59.79 76.86 60.96 77.19 61.9 77.98 62.93 78.59 64.19 78.76 65.35 79.12 66.37 79.74 67.29 80.57 68.36 81.1 69.62 81.28 70.38 82.4 71.41 83.01 72.7 83.12 73.84 83.51 74.98 83.93 75.73 85.06 76.87 85.45 78.2 85.51 78.92 86.69 79.83 86.74 79.46 86 79.82 84.67 79.08 83.64 78.47 82.57 78.56 81.32 78.13 80.21 77.54 79.14 78 77.78 76.79 76.88 76.59 75.71 77.04 74.35 76.51 73.26 75.94 72.19 75.87 70.98 75.51 69.85 74.58 68.88 74.19 67.76 73.88 66.62 73.58 65.47 73.77 64.17 73.11 63.13 73.11 61.89 72.49 60.84 72.17 59.7 71.33 58.73 71.45 57.43 71.07 56.31 70.55 55.24 70.16 54.11 69.48 52.64 69.87 54.32 70.55 55.32 71.95 55.86 72.46 56.96 72.76 58.22 73.25 59.35 74.1 60.23 74.96 61.11 75.84 61.96 76.56 62.93 77.13 64.01 78.03 64.85 78.55 65.97 79.42 66.83 80.01 67.89 80.86 68.77 81.69 69.66 82.28 70.72 82.63 71.96 83.55 72.78 83.94 74.01 84.78 74.91 85.65 75.81 86.57 76.67 86.67 78.07 88.05 78.65 88.24 79.98 88.96 81.03 89.47 81.03"/>
        <g>
          <path class="cls-1" d="M62.91,145.31l.14-.02c-.15-.13-.3-.26-.45-.4-.02.01-.05.03-.07.04l-.07.13-.6,1.02-.21.86.96-.22.29-1.41Z"/>
          <path class="cls-1" d="M139.93,87.99c-.38-.02-.69-.04-.97-.06-.24-.69-.44-1.24-.64-1.82-.3.25-.5.47-.75.61-.23.14-.5.22-.76.33.02.09.04.18.07.28-.02-.01-.03-.02-.04-.04.25.81,1,1.23,1.52,1.82l.64-.32.92-.81Z"/>
          <path class="cls-1" d="M116.08,137.75v-2.32l-.22-1-.82-.99.16-1.35-.18-1.22-.71-1.03-.13-.11v.44c.31.31.53.53.8.8-.27.32-.54.64-.86,1.01v1.85c.27.29.58.63.89.97-.3.33-.61.66-.92.99-.35.98.62,1.32.94,1.96.11.65-.09,1.34-.03,2.02l.87.41c.3-.59.6-1.18.89-1.76-.22-.22-.45-.45-.68-.68Z"/>
          <path class="cls-1" d="M73.79,109.64l-1.29.4c.35.61.63,1.09.91,1.57.09-.02.19-.04.29-.07-.03.04-.06.06-.08.1.76-.06,1.01-.83.72-1.13-.25-.26-.41-.56-.54-.87Z"/>
          <path class="cls-1" d="M69.63,103.61v1.69c1.03,1.01,2.01,1.97,2.86,2.8v1.68l.04.03,1.25-.21c-.46-1.17-.3-2.56-1.29-3.47q-.95-3.38-2.82-5.34c.31-.33.62-.66.92-.99v-1.35c-.09.02-.17.04-.26.07.03-.04.06-.07.09-.11h-1.72v4.19c.28.31.58.64.92,1.02Z"/>
          <path class="cls-1" d="M163.24,76.2c.22.1.43.21.64.31l.73-.81c-.47-.02-.94.05-1.37.49Z"/>
          <path class="cls-1" d="M161.27,77.61h-.37c-.29.43-.83.68-1.08,1.13l.76-.37.7-.76Z"/>
          <path class="cls-1" d="M68.39,91.05c-.51-.19-1.05-.28-1.6-.36l.61,1.14,1.42.12.7.79c.39-.1.73-.2,1.15-.31-.87-.54-1.53-1.09-2.29-1.38Z"/>
          <path class="cls-1" d="M63.15,86.28c.31.77.54,1.49.74,2.21h.03s.65,1.13.65,1.13l.92.76.36.08v-2.93c-.45-.45-.9-.9-1.4-1.4-.37.04-.8.09-1.31.15Z"/>
          <path class="cls-1" d="M120.2,75.7v-.1c-.33-.17-.59-.49-.87-.79-.33.3-.66.59-1.04.93-.63.34-1.73-.68-2.22.56,1.13.86,2.51-.14,3.56.7,0,0,0,0,0,0l.13-.18.44-1.12Z"/>
          <path class="cls-1" d="M145.03,133.2c.08-.07.18-.15.26-.23v-1.43c-.09.02-.17.04-.26.07.03-.03.04-.05.07-.08-.55.1-.91.63-1.4.88l.45.33.88.47Z"/>
          <path class="cls-1" d="M92.61,53.4l.24.44c.11-.14.25-.26.45-.34-.07-.57.03-1.16,0-1.8l-.1.56-.59,1.14Z"/>
          <path class="cls-1" d="M73.38,61.17c.09.38.19.8.29,1.23.96.05,1.82.1,2.6.14l-.43-.59-.89-.85-.51-.52c-.32-.03-.67.12-1.07.59Z"/>
          <path class="cls-1" d="M101.84,71.13l-.04-.17-.4-1.2.2-1.08c-.09-.17-.18-.35-.27-.53h-1.89c-.45.45-.89.89-1.37,1.37,0,.5-.31,1.14.39,1.32.59-.36,1.09-.67,1.41-.86.82.18,1.35,1.21,1.98,1.15Z"/>
          <path class="cls-1" d="M63.53,79.5c-.33-.31-.66-.63-.99-.94-.31,0-.61,0-.93,0-.78.95-.78,1.89,0,2.84.32,0,.63,0,.93,0,.33-.32.66-.63.99-.95.69-.35,1.77.65,2.25-.57-.72-.68-1.53-.21-2.25-.37Z"/>
          <path class="cls-1" d="M102.05,79.37l-.7-1.19.22-.34c-.08-.13-.16-.26-.24-.4-.65.24-1.05.4-1.49.56.7.71,1.37,1.39,2.04,2.06l.17-.69Z"/>
          <path class="cls-1" d="M72.46,56.96l-.51-1.1-1.15-.44c.75,1.47,1.46,2.85,2.17,4.24.07-.15.15-.3.23-.44l-.42-.99-.3-1.25Z"/>
          <path class="cls-1" d="M151.81,133.77c-.46-.46-.89-.89-1.39-1.39-.64.32-1.46-.28-2.23.45.24.29.55.56.7.89.13.28.23.57.33.89l.68.02.54.66c.46.02.92.06,1.36-.36v-1.15Z"/>
          <path class="cls-1" d="M98.73,10.61l.31.72c.1-.46.01-.93-.26-1.39l-.05.67Z"/>
          <path class="cls-1" d="M97.09,50.67c.29-.32.6-.65.9-.97-.46-.46-.9-.9-1.4-1.4-.42.86-.84,1.7-1.25,2.55.47.45.92.87,1.4,1.33.44-.14.85-.27,1.34-.43-.39-.42-.69-.75-.99-1.07Z"/>
          <path class="cls-1" d="M95,169.99h0s.23-1.19.23-1.19l-.11-.38h-1c.4.69.61,1.19.88,1.56Z"/>
          <path class="cls-1" d="M109.16,85.25h-2.78c.16.83.24,1.25.32,1.64,1.01.13,1.91.56,2.71-.36-.07-.38-.16-.8-.25-1.28Z"/>
          <path class="cls-1" d="M73.94,88.03c-.46.82-.9,1.61-1.19,2.12.37.61.76,1.26,1.13,1.85.7-.29,1.08-.45,1.57-.65-.44-.38-.78-.68-1.05-.92-.18-.81.28-1.61-.46-2.4Z"/>
          <path class="cls-1" d="M66.86,97.38h-.02c.07.35.19.7.41,1.03h1.45c0-.4.04-.81-.04-1.18l-.6-.21-1.2.37Z"/>
          <path class="cls-1" d="M92.93,102.23c-.39-.8-.74-1.5-.98-1.99-1.06.17-1.89-.25-2.08.02.39.8.74,1.5.98,1.99,1.06-.17,1.89.25,2.08-.02Z"/>
          <path class="cls-1" d="M178.63,68.14c1.26-1.05,1.74-1.56,1.7-2.01l-.17.02-1.07.57-1.06.37c-.16.25-.36.48-.69.65.43.17.8.32,1.13.45l.03-.03.14-.02Z"/>
          <path class="cls-1" d="M41,66.36l-1.21-.27-.33-.27c1.66,1.61,1.92,1.73,2.63,1.05h0s-1.09-.51-1.09-.51Z"/>
          <path class="cls-1" d="M94.98,69.13s-.02-.03-.04-.05c-.35.03-.93.08-1.46.13-.09.5-.14.78-.26,1.44.4.32.97.78,1.54,1.23.45-.45.88-.88,1.32-1.32-.33-.42-.66-.85-1.06-1.37-.04,0-.07.02-.11.03.02-.03.04-.05.07-.08Z"/>
          <path class="cls-1" d="M16.93,53.94l.02.03h.9l-.03-.03h-.9Z"/>
          <path class="cls-1" d="M94.32,59.05v1.16c.47.47.9.9,1.35,1.35.41-.86.82-1.7,1.24-2.55-.84-.46-1.67-.46-2.59.04Z"/>
          <polygon class="cls-1" points="100.51 1.24 100.45 1.39 100.53 1.26 100.33 0 100.51 1.24"/>
          <path class="cls-1" d="M100.02,2.88s.07-.01.11-.02l-.19-.39.5-1.08-.63.99.2.5Z"/>
          <path class="cls-1" d="M77.16,71.56c.08.38.18.8.27,1.24h2.01c-.6-1.12.04-1.94-.63-2.6-.76.16-1.08.86-1.65,1.36Z"/>
          <path class="cls-1" d="M40.41,70.86l.39.53,1.05.59.38.22v-.05c-.6-.98-.97-1.58-1.36-2.22-.25.32-.39.63-.47.92Z"/>
          <path class="cls-1" d="M59.24,101.29c-.02-.08-.12-.49-.24-.95-.53.03-.94.05-1.74.08.26,1.12-.23,1.93.69,2.84.38-.59.77-1.18,1.28-1.97Z"/>
          <path class="cls-1" d="M93.78,114.46c.48-.48.92-.92,1.42-1.42-.46-.41-.93-.81-1.48-1.29-.36.33-.78.72-1.42,1.31.6.57,1.04.99,1.47,1.41Z"/>
          <path class="cls-1" d="M141.16,107.07l-.51-.08-1.25.12-.12-.11c-.22.08-.45.22-.67.43.12.42.25.91.38,1.36l.4-.13,1.18-.26h.14c.23-.43.45-.84.69-1.28-.08-.01-.15-.03-.22-.05Z"/>
          <path class="cls-1" d="M87.31,91.63c.1-.28.34-.58.27-.79-.11-.4-.42-.74-.61-1.11-.13-.25-.19-.53-.31-.78-.13-.29-.29-.58-.48-.94-.76.83-.31,1.63-.46,2.34.53.43.83,1.15,1.59,1.29Z"/>
          <path class="cls-1" d="M95.29,165.13c.16.2.3.37.45.55l.06-.44-.12-.61c-.17.06-.31.21-.39.51Z"/>
          <path class="cls-1" d="M94.8,54.05c-.76.61-.59,1.84-1.5,2.33-.06.03-.04.3,0,.44.08.27.21.52.21.54.44-.37.97-.81,1.63-1.36-.24-.41.44-1.25-.34-1.94Z"/>
          <path class="cls-1" d="M20.47,138.16c-.02-.08-.12-.49-.23-.95-.53.03-.94.05-1.74.08.13.56.07,1.05.1,1.51l1.03.22.84-.87Z"/>
          <path class="cls-1" d="M95.69,137.21c-.68.36-.4,1.02-.53,1.56-.16.65-.49,1.25-.94,2.34.93-.18,1.35-.26,1.94-.37-.05-1.13-.09-2.17-.16-3.21,0-.12-.2-.22-.31-.32Z"/>
          <path class="cls-1" d="M98.11,63.68c.27.81.91,1.3,1.76,1.68.28-.14.62-.31.98-.5-.54-.55-.98-1-1.41-1.44-.47,0-.93,0-1.38,0,.02.09.04.17.07.26,0,0-.01,0-.02-.01Z"/>
          <path class="cls-1" d="M112.05,131.67c-.43-.08-.84-.15-1.23-.23-.32.46-.83.72-1.11,1.21l.44.21.39.53c.07.01.14.03.21.04.42-.6,1.18-.87,1.31-1.77Z"/>
          <path class="cls-1" d="M74.62,135.21l.59-.45c-.06-.1-.11-.19-.2-.29-.88-.07-1.79-.53-2.54.36.47.23.93.45,1.4.68l.75-.3Z"/>
          <path class="cls-1" d="M95.12,134.89c.08.37.16.8.29,1.41.66-.14,1.18-.25,1.66-.35v-1.15c-.64-.67-1.27-.69-1.94.09Z"/>
          <path class="cls-1" d="M94.95,159.61c.68.13,1.08.21,1.42.27l-.07-.64.16-1.14c-.45.45-.9.9-1.51,1.51Z"/>
          <path class="cls-1" d="M11.9,141.02c-.07-.38-.2-.78-.42-1.2l-.11-.02c-.09.72-.15,1.28-.19,1.72l.33-.09.39-.4Z"/>
          <path class="cls-1" d="M73.72,101.93c.07.03.45.18,1.15.47.36-.6.75-1.24,1.11-1.83-.07-.03-.45-.18-1.15-.47-.36.6-.75,1.24-1.11,1.83Z"/>
          <path class="cls-1" d="M104.43,83.91l-.02.06s.05-.05.08-.08h-.05Z"/>
          <path class="cls-1" d="M98.01,113.06c-.64-.67-1.27-.69-1.94.09.08.37.16.8.29,1.41.66-.14,1.18-.25,1.66-.35v-1.15Z"/>
          <path class="cls-1" d="M132.1,120.54c-.02-.07-.03-.15-.05-.23l-.19-.14-.69-.91c-.37.08-.71.15-1.02.21v1.15c.64.67,1.27.69,1.94-.09Z"/>
          <path class="cls-1" d="M157.86,76.13c-2.22-.45-2.22-.44-2.98.21.83.51,1.67.47,2.98-.21Z"/>
          <path class="cls-1" d="M98.17,17.1v.62s-.11.36-.11.36c.31-.09.61-.25.92-.51-.27-.22-.54-.37-.8-.47Z"/>
          <path class="cls-1" d="M162.84,73.88c.37-.07.79-.15,1.22-.23-.08-.4-.27-.67-.49-.9l-.24.13h-1.06c0,.34.19.66.57,1Z"/>
          <path class="cls-1" d="M119.01,71.66c-.11-.09-.19-.18-.28-.27l-.15.34c.14-.02.27-.05.43-.08Z"/>
          <path class="cls-1" d="M68.3,89.86c.63-.96.73-1.86-.56-3.3-.02.18-.03.35.02.5-.02-.01-.03-.02-.05-.03.08,1.24-.29,2.15.59,2.83Z"/>
          <path class="cls-1" d="M88.72,93.02c-.65-.12-1.17-.22-2.22-.42.19,1.04.27,1.45.42,2.27.68-.7,1.17-1.17,1.8-1.85Z"/>
          <path class="cls-1" d="M141.5,84.22s0,0,0,0c.01,0,.02,0,.04,0-.04-.57-.08-1.12-.14-1.87-.66.04-1.17.08-1.79.12.52.93.97,1.59,1.89,1.75Z"/>
          <path class="cls-1" d="M71.87,85.34c.85-.8.87-.83,1.35-2.04l-.05-.02c-.58.07-1.08.12-1.76.2.18.74.31,1.24.47,1.86Z"/>
          <path class="cls-1" d="M119.8,87.34c.06.22.18.43.37.67.43-.07.95-.15,1.32-.2-.11-.17-.2-.33-.31-.49l-.14.08-1.24-.06Z"/>
          <path class="cls-1" d="M100.43,20.11c-.31,1.44-1.31,1.52-1.32,2.38.54.41,1.04.45,1.66-.1l-.15-.71.07-.23c-.07-.33-.15-.76-.27-1.35Z"/>
          <path class="cls-1" d="M60.22,120.63c-.08-.42-.19-.94-.44-2.2-.31,1.44-1.31,1.52-1.32,2.38.56.43,1.09.46,1.76-.18Z"/>
          <path class="cls-1" d="M95.97,127.4c-.11-.21-.19-.46-.35-.64-.29-.33-.62-.61-1.14-1.11-.11.7-.19,1.22-.32,2.06.73,0,.89.03,1.03,0,.27-.08.52-.21.78-.31Z"/>
          <path class="cls-1" d="M95.33,149.17c.54.45,1.06.46,1.75-.15-.08-.42-.17-.95-.29-1.65-.61.73-1.31,1.03-1.46,1.8Z"/>
          <path class="cls-1" d="M96.8,154.51c-.08-.19-.18-.38-.31-.58-.41,2.31-.39,2.33.27,2.9l-.19-1.19.23-1.13Z"/>
          <path class="cls-1" d="M101.2,15.84l.09-.18-.15-.46c-.1,0-.2.01-.29.01.12.19.23.43.35.62Z"/>
          <path class="cls-1" d="M100.3,13.4q-.41,1.25.55,1.81c-.17-.61.46-1.46-.55-1.81Z"/>
          <path class="cls-1" d="M75.34,97.94c0,.1.23.32.3.3.22-.06.59-.21.6-.34.02-.41-.09-.84-.15-1.25-.2.01-.4.02-.6.03-.06.42-.13.84-.15,1.26Z"/>
          <path class="cls-1" d="M104.7,93.21c-.86-.61-1.46-.89-1.85.14.55.51,1.08.48,1.85-.14Z"/>
          <path class="cls-1" d="M111.72,95.57c-.68.63-.68,1.26,0,1.9.68-.63.68-1.26,0-1.9Z"/>
          <path class="cls-1" d="M73.9,94.64c-.1,0-.32.23-.3.3.06.22.21.59.34.6.41.02.84-.09,1.25-.15-.01-.2-.02-.4-.03-.6-.42-.06-.84-.13-1.26-.15Z"/>
          <path class="cls-1" d="M91.51,105.64c.55.51,1.08.48,1.85-.14-.86-.61-1.46-.89-1.85.14Z"/>
          <path class="cls-1" d="M95.35,145.05c.06.22.21.59.34.6.41.02.84-.09,1.25-.15-.01-.2-.02-.4-.03-.6-.42-.06-.84-.13-1.26-.15-.1,0-.32.23-.3.3Z"/>
          <path class="cls-1" d="M170.37,143.68l-.4-.68-.33-.16c-.24.06-.48.22-.72.48.48.52.97.64,1.45.36Z"/>
          <path class="cls-1" d="M88.93,163.6c.19-.08.39-.22.58-.42-.1-.11-.21-.2-.31-.27l-.34.58.07.12Z"/>
          <path class="cls-1" d="M106.9,129.42c.22-.07.53-.2.54-.32.02-.41-.09-.84-.15-1.25-.2.01-.4.02-.6.03-.04.32-.09.65-.12.97l.13.45.21.12Z"/>
          <path class="cls-1" d="M95.65,130.56c.68-.63.68-1.26,0-1.9-.68.63-.68,1.26,0,1.9Z"/>
          <path class="cls-1" d="M79.1,130.08c.25.27.5.43.76.48l.06-.13,1.06-.33s.02-.01.02-.02c-.63-.68-1.26-.68-1.9,0Z"/>
          <path class="cls-1" d="M93.36,170.81c.53.18.83.27,1.06.24l.45-.82c-.58.06-1.21-.22-1.5.58Z"/>
          <path class="cls-1" d="M79.58,123.01c-.1,0-.32.23-.3.3.06.22.21.59.34.6.41.02.84-.09,1.25-.15-.01-.2-.02-.4-.03-.6-.42-.06-.84-.13-1.26-.15Z"/>
          <path class="cls-1" d="M80.05,126.3c-.63-.68-1.26-.68-1.9,0,.63.68,1.26.68,1.9,0Z"/>
          <path class="cls-1" d="M75.72,63.51q-.41,1.25.55,1.81s0,0,0,0c0,0,0,0,0,0-.17-.61.45-1.45-.55-1.8Z"/>
          <path class="cls-1" d="M99.07,60.26c.55.51,1.08.48,1.85-.14-.86-.61-1.46-.89-1.85.14Z"/>
          <path class="cls-1" d="M81.96,81.86c0,.1.23.32.3.3.22-.06.59-.21.6-.34.02-.41-.09-.84-.15-1.25-.2.01-.4.02-.6.03-.06.42-.13.84-.15,1.26Z"/>
          <path class="cls-1" d="M141.5,84.22q.56.97,1.87.54c-.44-.82-1.2-.45-1.83-.54-.01,0-.03,0-.04,0,0,0,0,0,0,0Z"/>
          <path class="cls-1" d="M99.07,83.89c.55.51,1.08.48,1.85-.14-.86-.61-1.46-.89-1.85.14Z"/>
          <path class="cls-1" d="M92.97,187.92l-.25-.54c-.58.6-.55,1.2.09,1.79.01-.01.02-.03.04-.04v-.02s.12-1.2.12-1.2Z"/>
          <path class="cls-1" d="M118.23,79.69c-.24-.12-.56-.02-1.28.22.19.36.44.48.72.52l.46-.41.1-.33Z"/>
          <path class="cls-1" d="M97,79.97c.86.61,1.46.89,1.85-.14-.55-.51-1.08-.48-1.85.14Z"/>
          <path class="cls-1" d="M92.58,186.34l.5-.68c-.56-.47-1.12-.4-1.68.2.4.42.79.58,1.18.48Z"/>
          <path class="cls-1" d="M102.74,90.37c-.63-.68-1.26-.68-1.9,0,.63.68,1.26.68,1.9,0Z"/>
          <path class="cls-1" d="M67.74,86.56c.06-.51.21-1.05-.54-1.31-.41,1.23-.41,1.25.5,1.78.02.01.03.02.05.03-.04-.16-.04-.33-.02-.5Z"/>
          <path class="cls-1" d="M89.34,88.79c.06-.42.13-.84.15-1.26,0-.1-.23-.32-.3-.3-.22.06-.59.21-.6.34-.02.41.09.84.15,1.25.2-.01.4-.02.6-.03Z"/>
          <path class="cls-1" d="M101.24,86.2c-.41,1.23-.41,1.25.5,1.78-.02-.08-.04-.16-.06-.23.03.03.05.05.08.07-.03-.58.38-1.3-.53-1.62Z"/>
          <path class="cls-1" d="M76.27,68.63c.63.68,1.26.68,1.9,0-.63-.68-1.26-.68-1.9,0Z"/>
          <path class="cls-1" d="M176.32,68.32c-.42-.06-.84-.13-1.26-.15-.1,0-.32.23-.3.3.06.22.21.59.34.6.41.02.84-.09,1.25-.15-.01-.2-.02-.4-.03-.6Z"/>
          <path class="cls-1" d="M76.27,65.32c.56.97.56.97,1.86.54-.45-.83-1.23-.43-1.86-.55,0,0,0,0,0,0,0,0,0,0,0,0Z"/>
          <path class="cls-1" d="M51.67,75.25c0-.1-.23-.32-.3-.3-.22.06-.59.21-.6.34-.02.41.09.84.15,1.25.2-.01.4-.02.6-.03.06-.42.13-.84.15-1.26Z"/>
          <path class="cls-1" d="M101.36,75.69c.14,0,.28-.01.41-.03l-.19-.84c-.09,0-.18-.02-.26-.03-.1,0-.32.23-.3.3.06.22.21.59.34.6Z"/>
          <path class="cls-1" d="M100.13,8.84c-.08.08-.16.16-.23.23.08.04.17.09.25.14l-.02-.36Z"/>
          <path class="cls-1" d="M101.03,26.87c.02.09.06.17.1.25l.19-.55c-.11.1-.3.23-.28.3Z"/>
          <path class="cls-1" d="M89.98,199.57c-.09.18-.2.36-.26.55l.14.29s.09.07.12.11c.11-.21.23-.41.34-.61-.13-.13-.23-.23-.34-.34Z"/>
          <path class="cls-1" d="M89.37,205.83s.03-.02.04-.03c-.02-.02-.04-.03-.06-.05v.08Z"/>
          <path class="cls-1" d="M161.83,75.72c-.1.1-.31.23-.3.31.05.22.19.42.3.63.11-.1.21-.21.34-.34-.11-.2-.22-.4-.34-.61Z"/>
          <path class="cls-1" d="M160.23,75.41c-.05-.22-.19-.42-.3-.63-.11.11-.31.23-.3.31.05.22.19.42.3.63.1-.11.31-.23.3-.31Z"/>
          <path class="cls-1" d="M79.28,74.14c.05.22.19.42.3.63.1-.11.21-.21.34-.34-.11-.2-.22-.4-.34-.61-.11.11-.31.23-.3.31Z"/>
          <path class="cls-1" d="M97.07,74.3c.21.11.41.25.63.3.08.02.21-.19.31-.3-.21-.11-.41-.23-.61-.34-.13.13-.23.23-.34.34Z"/>
          <path class="cls-1" d="M117.1,74.14c.05.22.19.42.3.63.1-.11.21-.21.34-.34-.11-.2-.22-.4-.34-.61-.11.11-.31.23-.3.31Z"/>
          <path class="cls-1" d="M48.54,73.06c-.22.05-.42.19-.63.3.1.11.23.31.31.3.22-.05.42-.19.63-.3-.1-.11-.23-.31-.31-.3Z"/>
          <path class="cls-1" d="M118.81,73.36c.21.1.41.25.63.3.08.02.21-.19.31-.3-.21-.11-.41-.23-.61-.34-.13.13-.23.23-.34.34Z"/>
          <path class="cls-1" d="M110.17,80.11c-.11-.19-.22-.4-.33-.6l-.11.08c-.1.08-.2.16-.19.22.05.22.19.42.3.63.11-.1.21-.21.34-.34Z"/>
          <path class="cls-1" d="M97.24,66.58c.05.22.19.42.3.63.11-.11.21-.21.34-.34-.11-.2-.22-.4-.34-.61-.1.11-.31.23-.3.31Z"/>
          <path class="cls-1" d="M39.87,68.16c-.11.1-.31.23-.3.31.05.22.19.42.3.63.1-.11.21-.21.34-.34-.11-.2-.22-.4-.34-.61Z"/>
          <path class="cls-1" d="M95.74,68.24c-.21.24-.42.49-.76.89-.02.03-.04.05-.07.08.04-.01.07-.02.11-.03.69-.18,1.33-.15.72-.94Z"/>
          <path class="cls-1" d="M121.99,68.96c.2-.11.4-.22.61-.34-.02-.02-.03-.04-.05-.06l-.76.19c.07.07.13.13.2.2Z"/>
          <path class="cls-1" d="M94.06,65.31c-.54.12-.9.2-.39.86.2-.23.4-.47.73-.85-.14.03-.28.06-.43.1.04-.04.06-.07.1-.11Z"/>
          <path class="cls-1" d="M46.33,70.81c.22-.05.42-.19.63-.3-.11-.11-.23-.31-.31-.3-.22.05-.42.19-.63.3.1.1.23.31.31.3Z"/>
          <path class="cls-1" d="M88.56,96.35c-.12-.54-.21-.9-.86-.39.23.2.47.4.85.73-.03-.14-.06-.28-.1-.43.04.04.07.06.11.1Z"/>
          <path class="cls-1" d="M106.35,96.21c-.05-.22-.19-.42-.3-.63-.11.1-.21.21-.34.34.11.2.22.4.34.61.11-.11.31-.23.3-.31Z"/>
          <path class="cls-1" d="M88.45,96.25c.04.15.07.29.1.43.12.54.21.9.86.39-.23-.2-.47-.4-.85-.73-.04-.03-.07-.06-.11-.1Z"/>
          <path class="cls-1" d="M62.87,83.28c-.54.12-.9.21-.39.86.2-.23.4-.47.73-.85-.14.03-.28.06-.43.1.04-.04.06-.07.1-.11Z"/>
          <path class="cls-1" d="M83.83,83.76c.1.1.23.31.31.3.22-.05.42-.19.63-.3-.1-.11-.23-.31-.31-.3-.22.05-.42.19-.63.3Z"/>
          <path class="cls-1" d="M134.41,84.23c.1-.1.31-.23.3-.31-.05-.22-.19-.42-.3-.63-.11.11-.21.21-.34.34.11.2.22.4.34.61Z"/>
          <path class="cls-1" d="M146.09,83.89c-.11-.2-.22-.4-.34-.61-.1.11-.31.23-.3.31.05.22.19.42.3.63.1-.1.21-.21.34-.34Z"/>
          <path class="cls-1" d="M62.87,83.28s-.06.07-.1.11c.15-.04.29-.07.43-.1.54-.12.9-.21.39-.86-.2.23-.4.47-.73.85Z"/>
          <path class="cls-1" d="M70.29,84.4c-.22.05-.42.19-.63.3.11.11.23.31.31.3.22-.05.42-.19.63-.3-.11-.11-.23-.31-.31-.3Z"/>
          <path class="cls-1" d="M136.81,87.05c-.14-.62-.18-1.1-.9-.55.25.21.5.43.92.79.01.01.03.02.04.04-.03-.09-.05-.19-.07-.28Z"/>
          <path class="cls-1" d="M101.75,87.98c.15.64.17,1.16.91.59-.24-.2-.49-.42-.88-.75-.03-.02-.05-.04-.08-.07.02.08.04.16.06.23Z"/>
          <path class="cls-1" d="M73.34,85.73c-.26-.22-.51-.44-.97-.82.21.73.14,1.46.97.82Z"/>
          <path class="cls-1" d="M94.54,48.12c.22-.05.42-.19.63-.3-.1-.11-.23-.31-.31-.3-.22.05-.42.19-.63.3.1.1.23.31.31.3Z"/>
          <path class="cls-1" d="M95.09,38.46c-.09-.08-.18-.15-.28-.24l-.14.46c.11-.02.24-.09.42-.23Z"/>
          <path class="cls-1" d="M99.9,57.28c.21.11.41.25.63.3.08.02.21-.19.31-.3-.21-.11-.41-.23-.61-.34-.13.13-.23.23-.34.34Z"/>
          <path class="cls-1" d="M184.89,64.11s.06.05.09.07c0-.07,0-.14-.02-.2l-.38.19-.12.08c.14.07.3.11.5.11-.02-.08-.04-.17-.06-.26Z"/>
          <path class="cls-1" d="M94.06,65.31s-.06.07-.1.11c.15-.04.29-.07.43-.1.54-.11.9-.2.39-.86-.2.23-.41.47-.73.85Z"/>
          <path class="cls-1" d="M184.95,64.37c.07.33.12.61.25.73l.38-.4c-.16-.14-.36-.3-.61-.52-.03-.03-.06-.05-.09-.07.02.09.05.17.06.26Z"/>
          <path class="cls-1" d="M32.6,63.12c-.05-.22-.19-.42-.3-.63-.11.1-.31.23-.3.31.05.22.19.42.3.63.1-.11.31-.23.3-.31Z"/>
          <path class="cls-1" d="M93.92,62.66c-.22.05-.42.19-.63.3.1.1.21.21.34.34.2-.11.4-.22.61-.34-.11-.1-.23-.31-.31-.3Z"/>
          <path class="cls-1" d="M98.12,63.69c-.03-.09-.05-.18-.07-.26-.14-.63-.17-1.12-.9-.56.25.22.51.43.95.81,0,0,.01,0,.02.01Z"/>
          <path class="cls-1" d="M91.87,61.54s0,0,0,0l.09.31.02.43c.07-.14.15-.27.22-.4-.13-.13-.23-.23-.34-.34Z"/>
          <path class="cls-1" d="M97.2,54.58c.13.13.23.23.34.34.11-.21.25-.41.3-.63.02-.08-.19-.21-.3-.31-.11.21-.23.41-.34.61Z"/>
          <path class="cls-1" d="M33.94,133.88l.53-.03h.03c-.03-.11-.09-.22-.21-.38-.11.13-.22.26-.35.41Z"/>
          <path class="cls-1" d="M92.17,140c-.54.12-.9.21-.39.86.2-.23.41-.47.73-.85-.14.03-.28.06-.43.1.04-.04.06-.07.1-.11Z"/>
          <path class="cls-1" d="M92.17,140s-.06.07-.1.11c.15-.04.29-.07.43-.1.54-.12.9-.21.39-.86-.2.23-.41.47-.73.85Z"/>
          <path class="cls-1" d="M90.11,165.67c-.16.09-.32.18-.48.27l-.02.19c.08.09.15.18.2.17.22-.05.42-.19.63-.3-.1-.11-.21-.21-.34-.34Z"/>
          <path class="cls-1" d="M89.12,151.27c.1-.08.22-.17.2-.23-.02-.1-.07-.2-.12-.3l-.09.53Z"/>
          <path class="cls-1" d="M113.95,110.36c-.11-.2-.22-.4-.34-.61-.1.1-.31.23-.3.31.05.22.19.42.3.63.1-.11.21-.21.34-.34Z"/>
          <path class="cls-1" d="M79.91,106.58c-.11-.2-.22-.4-.34-.61-.11.11-.31.23-.3.31.05.22.19.42.3.63.1-.11.21-.21.34-.34Z"/>
          <path class="cls-1" d="M94.1,107.53c-.11-.2-.22-.4-.34-.61-.1.1-.31.23-.3.31.05.22.19.42.3.63.1-.11.21-.21.34-.34Z"/>
          <path class="cls-1" d="M73.41,111.61c-.62.14-1.1.18-.54.9.2-.24.41-.48.74-.87.03-.03.05-.06.08-.1-.1.03-.19.05-.29.07Z"/>
          <path class="cls-1" d="M70.6,98.45c.63-.14,1.12-.17.56-.9-.2.23-.41.48-.73.86-.03.04-.06.07-.09.11.09-.03.18-.05.26-.07Z"/>
          <path class="cls-1" d="M52.97,99.22c.17-.09.34-.19.52-.28l-.83-.03c.1.1.2.2.31.31Z"/>
          <path class="cls-1" d="M56.89,99.35c.1-.11.31-.23.3-.31-.04-.18-.14-.35-.23-.52h-.17c-.07.07-.14.14-.23.22.11.2.22.4.34.61Z"/>
          <path class="cls-1" d="M110.91,99.22c.13-.13.23-.23.34-.34-.21-.11-.41-.25-.63-.3-.08-.02-.21.19-.31.3.21.11.41.23.61.34Z"/>
          <path class="cls-1" d="M79.1,103.61c.21.11.41.23.61.34.13-.13.23-.23.34-.34-.21-.11-.41-.25-.63-.3-.08-.02-.21.19-.31.3Z"/>
          <path class="cls-1" d="M107.47,126.3c-.1-.11-.21-.21-.34-.34-.2.11-.4.22-.61.34.1.1.23.31.31.3.22-.05.42-.19.63-.3Z"/>
          <path class="cls-1" d="M93.42,124.27c.11.2.22.4.34.61.11-.11.31-.23.3-.31-.05-.22-.19-.42-.3-.63-.1.11-.21.21-.34.34Z"/>
          <path class="cls-1" d="M95.95,124.57c-.05-.22-.19-.42-.3-.64-.11.1-.31.23-.3.31.05.22.19.42.3.63.11-.1.31-.23.3-.31Z"/>
          <path class="cls-1" d="M131.41,125.65c.22-.05.42-.19.63-.3-.11-.11-.23-.31-.31-.3-.22.05-.42.19-.63.3.1.1.23.31.31.3Z"/>
          <path class="cls-1" d="M145.28,131.54c.63-.14,1.12-.17.56-.9-.21.24-.42.49-.76.89-.02.03-.04.05-.07.08.09-.03.18-.05.26-.07Z"/>
          <path class="cls-1" d="M25.22,132.92c-.1-.05-.21-.11-.31-.17l-.49.11-.12.07c.2.11.4.22.59.32.13-.13.23-.23.34-.34Z"/>
          <path class="cls-1" d="M96.23,132.71s-.07-.06-.11-.1c.12.54.2.9.86.39-.23-.2-.47-.4-.85-.73.03.14.06.28.1.43Z"/>
          <path class="cls-1" d="M96.13,132.28c-.12-.54-.2-.9-.86-.39.23.2.47.4.85.73.04.03.07.06.11.1-.04-.15-.07-.29-.1-.43Z"/>
          <path class="cls-1" d="M95,117.01c-.05-.22-.19-.42-.3-.63-.11.11-.31.23-.3.31.05.22.19.42.3.63.11-.11.31-.23.3-.31Z"/>
          <path class="cls-1" d="M95.51,122.18c-.13.13-.23.23-.34.34.21.1.41.25.63.3.08.02.21-.19.31-.3-.21-.11-.41-.23-.61-.34Z"/>
          <path class="cls-1" d="M95.18,119.68c.21.11.41.25.63.3.08.02.21-.19.31-.3-.21-.11-.41-.23-.61-.34-.13.13-.23.23-.34.34Z"/>
        </g>
      </g>
    </g>
  </g>
</svg>