<?xml version="1.0" encoding="UTF-8"?>
<svg id="_レイヤー_2" data-name="レイヤー 2" xmlns="http://www.w3.org/2000/svg" viewBox="0 0 147.81 155.57">
  <defs>
    <style>
      .cls-1 {
        fill: #fff;
      }

      .cls-2 {
        fill: none;
      }

      .cls-3 {
        fill: #efdfcd;
        fill-rule: evenodd;
      }
    </style>
  </defs>
  <g id="_レイヤー_1-2" data-name="レイヤー 1">
    <g id="stars">
      <g>
        <polygon class="cls-3" points="37.34 155.57 38.27 154.81 39.17 154.01 40.31 153.51 41.04 152.49 41.88 151.61 43 151.09 43.92 150.31 44.89 149.61 45.72 148.71 46.48 147.72 47.62 147.23 48.32 146.17 49.4 145.59 50.27 144.75 51.41 144.25 52.38 143.54 53.32 142.79 54.46 142.28 55.02 141.06 55.98 140.32 56.92 139.58 57.76 138.7 59.15 138.49 59.61 137.15 60.57 136.42 61.37 135.5 62.5 134.98 63.49 134.29 64.33 133.41 65.25 132.63 66.02 131.67 67.16 131.16 68.26 130.59 68.86 129.44 69.78 128.67 71.06 128.29 71.61 127.09 72.34 126.11 73.8 125.94 74.62 125.04 75.16 123.85 76.27 123.27 77.07 122.36 77.87 121.45 79.01 120.91 79.6 119.78 80.65 119.32 81.68 119.67 82.82 120.06 83.76 120.85 84.71 121.6 86.12 121.51 87.02 122.36 88.09 122.88 89.13 123.48 89.89 124.57 91.21 124.67 92.32 125.13 93.09 126.2 94.2 126.66 95.32 127.12 96.45 127.54 97.22 128.6 98.37 129.01 99.68 129.13 100.36 130.33 101.3 131.09 102.53 131.36 103.71 131.71 104.51 132.71 105.45 133.46 106.43 134.16 107.78 134.23 108.95 134.59 109.83 135.45 111.03 135.77 111.79 136.84 112.76 137.56 113.88 138 114.91 138.62 115.79 139.48 116.9 139.96 118.08 140.31 119.07 140.98 120.02 141.73 121.15 142.16 122.21 142.71 123.35 143.12 124.26 143.94 125.15 144.81 126.24 145.31 127.64 145.23 128.5 146.16 129.45 146.57 129.28 145.57 129.26 144.38 129.47 143.15 128.53 142.11 129.1 140.81 128.55 139.71 128.57 138.5 127.97 137.41 128.04 136.19 127.91 135 126.87 134.04 127.39 132.69 126.76 131.63 126.7 130.42 126.07 129.36 126.18 128.11 125.33 127.11 125.06 125.95 124.71 124.82 124.6 123.63 124.29 122.49 124.21 121.29 123.79 120.18 123.54 119.04 123.26 117.88 123.16 116.68 122.72 115.56 121.96 114.51 122.24 113.23 121.46 112.18 121.33 110.99 121.37 109.76 121.39 108.53 120.72 107.46 120.61 106.26 119.92 105.19 119.68 104.03 119.61 102.82 119.27 101.68 119.15 100.48 118.77 99.35 118.53 98.18 118.06 97.08 117.97 95.87 117.75 94.69 116.92 93.7 116.41 92.61 116.07 91.48 116 90.19 116.61 89.11 117.65 88.44 118.4 87.54 119.36 86.82 120.1 85.91 120.7 84.88 121.29 83.84 121.9 82.82 123.09 82.3 123.47 81.08 124.36 80.3 124.86 79.19 125.71 78.34 126.93 77.79 126.92 76.28 127.99 75.6 128.63 74.6 129.31 73.63 130.6 73.12 130.67 71.67 131.67 70.95 132.14 69.81 133.29 69.2 133.67 67.99 134.84 67.39 134.92 65.96 135.76 65.11 136.51 64.19 137.19 63.21 138.2 62.48 138.98 61.58 139.55 60.52 140.29 59.6 141.32 58.89 141.77 57.74 142.41 56.73 143.3 55.92 143.56 54.62 144.92 54.17 145.66 53.24 145.99 52 146.6 50.96 147.33 50.03 147.81 49.38 147.04 48.89 145.83 49.07 144.62 49.41 143.48 48.55 142.26 48.98 141.08 48.8 139.92 48.38 138.71 48.64 137.51 48.72 136.36 48.04 135.16 48.1 133.98 47.9 132.79 47.88 131.57 48.4 130.41 47.95 129.21 48.03 128.01 48.21 126.85 47.6 125.62 48.19 124.44 47.99 123.24 48.1 122.11 47.21 120.86 48.01 119.7 47.55 118.55 46.92 117.32 47.4 116.19 46.68 114.95 46.95 113.75 46.73 112.48 47.1 111.28 46.92 110.09 46.56 108.88 46.46 107.72 45.95 106.5 45.87 105.25 46.02 104.1 45.44 102.9 45.25 101.66 45.32 100.46 45.14 99.25 44.95 98.03 44.89 96.82 44.84 95.56 45.2 94.25 44.87 94.09 43.39 92.92 42.72 92.36 41.65 91.42 40.83 90.66 39.88 90.17 38.76 89.31 37.88 88.69 36.85 88.56 35.49 87.9 34.48 86.63 33.88 86.06 32.81 85.88 31.48 85.42 30.34 84.38 29.59 83.79 28.53 83.33 27.38 82.69 26.36 81.8 25.51 80.79 24.74 80.58 23.43 79.77 22.52 78.85 21.69 78.45 20.5 77.2 19.89 77.28 18.38 76.53 17.43 75.81 16.46 75.04 15.52 74.41 14.5 73.53 13.64 72.7 12.75 72.34 11.53 71.03 10.98 70.8 9.67 70.18 8.63 69.49 7.64 68.58 6.81 68.14 5.64 67.62 4.53 66.13 4.12 65.86 2.83 65.44 1.64 64.52 .82 63.69 0 63.07 1.03 62.85 2.21 62.63 3.4 62.32 4.56 62.58 5.87 62.22 7.02 61.13 7.98 61.29 9.26 61.3 10.52 60.52 11.55 60.66 12.83 59.73 13.82 60.07 15.17 59.61 16.29 59.12 17.4 58.73 18.54 58.12 19.62 57.71 20.75 57.32 21.89 56.99 23.04 57 24.3 56.67 25.46 56.28 26.59 56.32 27.86 55.42 28.85 55.56 30.14 54.83 31.18 54.29 32.28 54.36 33.55 53.59 34.58 53.41 35.78 53.06 36.93 53.37 38.27 53.03 39.42 52.21 40.44 52.07 41.65 51.59 42.77 51.22 43.92 51.48 45.23 50.69 46.26 51.04 47.59 50.07 48.44 49.07 48.73 47.95 49.22 46.76 49.37 45.68 50.02 44.53 50.36 43.38 50.7 42.17 50.76 41.05 51.26 39.73 50.84 38.55 51.07 37.4 51.41 36.38 52.33 35.17 52.41 33.87 52.1 32.7 52.37 31.5 52.5 30.48 53.4 29.19 53.1 28.11 53.75 27.04 54.46 25.76 54.25 24.72 55.05 23.54 55.27 22.34 55.38 21.04 55.1 19.92 55.55 18.76 55.86 17.65 56.36 16.5 56.73 15.35 57.03 14.07 56.84 13.02 57.6 11.85 57.88 10.53 57.45 9.55 58.55 8.3 58.47 7.11 58.63 5.89 58.66 4.7 58.85 3.71 59.85 2.49 59.92 1.26 59.89 0 60.23 1.06 61.01 2.02 61.74 2.89 62.55 3.03 64.04 4.42 64.36 4.96 65.49 6.05 66.08 6.35 67.45 7.36 68.12 7.94 69.21 9.23 69.6 10.02 70.49 10.95 71.24 11.58 72.29 12.22 73.33 13.05 74.18 14.38 74.52 15 75.58 15.54 76.72 16.9 77.03 17.28 78.35 18.16 79.14 19.35 79.62 20.34 80.3 20.81 81.52 21.53 82.49 22.51 83.19 23.51 83.85 24.32 84.73 25.43 85.29 25.87 86.54 27.06 87.01 27.77 87.99 28.82 88.61 29.19 89.94 30.17 90.64 31.17 91.31 32.38 91.76 33.26 92.56 33.64 93.88 34.31 94.89 35.37 95.49 36.15 96.4 37.29 96.92 38.44 97.78 37.82 99.04 38.16 100.25 37.89 101.44 37.94 102.64 37.54 103.83 37.91 105.03 38.3 106.23 37.83 107.42 38.22 108.63 37.85 109.82 37.69 111.01 38.19 112.21 37.87 113.4 38.23 114.6 37.41 115.78 37.45 116.97 37.75 118.17 37.82 119.37 38.2 120.57 37.89 121.77 37.37 122.96 37.16 124.15 37.23 125.35 37.12 126.54 37.85 127.75 37.47 128.94 37.62 130.14 37.14 131.33 37.64 132.54 37.4 133.74 37 134.93 37.44 136.14 37.45 137.34 37.01 138.53 37.83 139.74 37.78 140.94 37.32 142.13 37.05 143.33 37.14 144.53 37.01 145.72 37.69 146.94 37.14 148.13 37.3 149.33 37.71 150.54 37.53 151.74 36.79 152.93 37.51 154.15 36.85 155.39 37.34 155.57"/>
        <g>
          <path class="cls-2" d="M54.03,61.07v-.95h-.95v.95h.95Z"/>
          <path class="cls-1" d="M38.9,142.38c-.11.27-.14.66-.34.77-.45.25-.97.38-1.49.55v.15c.32.35.58.64.82.91-.3.36-.57.67-.8.95.34.41.62.76.87,1.06-.02.67-.05,1.26-.79,1.28l-.04.08.16,1.2.41,1.21-.19,1.2-.73,1.19.3.51c.04-.22.09-.45.17-.67h1.6c-.02-.09-.04-.18-.07-.26.04.03.07.06.11.09,0-1.04,0-2.07,0-3.11.32-.34.63-.68.94-1.01v-2.79c-.31-.34-.61-.67-1.46-1.6.85-.38,1.69-.75,2.5-1.11-.73-.91-1.41-.5-1.99-.62Z"/>
          <path class="cls-1" d="M36.98,155.44c0-.09,0-.19-.01-.28l-.12.23.13.05Z"/>
          <path class="cls-1" d="M62.68,4.35c1.02-.53,1.8-.93,2.58-1.34-.14-.2-.27-.44-.46-.63-.29-.29-.62-.54-.92-.8l-1.13,1.13-.12.69-.26.95h.31Z"/>
          <path class="cls-1" d="M50.35,63.23s-.07-.06-.1-.09c.02.72.59.76,1.19.77.59.01,1.24-.15,1.65.5v.96c1.44.21,2.27,1.32,3.23,2.25,1,.16,2.18-.22,2.86.99h2.62c.95.57,1.8,1.07,2.64,1.57-.04.33-.07.63-.1.94-.57.27-1.16.54-1.85.87,1.09.52,1.99.95,2.9,1.38v-1.4c.31-.33.62-.66.82-.88-.42-.82-.81-1.59-1.08-2.12-1.34-.69-2.55-1.18-3.61-1.9-.62-.43-1.42-.19-2-.9-.51-.63-1.57-.6-2.27-1.25-.45-.43-1.49.26-2.12-.36-.17-.57-.34-1.11-.48-1.59h-4.34c.02.09.04.17.07.26Z"/>
          <path class="cls-1" d="M52.64,143.33l.68-.54.7-.32v-.52c-.29-.31-.59-.63-1.06-1.13.6-.15,1.09-.28,1.48-.38.29.25.43.52.5.78l.07-.16.95-.74.94-.74c-.12-.03-.24-.07-.35-.1-1.09-.36-1.33-1.78-2.6-1.84-1.46-.12-.41,1.72-2,1.97.07-.02-.34.11-.75.24v1.99c.2.53,1.06.68.92,1.47.17,0,.33,0,.5,0Z"/>
          <path class="cls-1" d="M35.23,93.42v1.99l.15.08.39.46c.24.06.47.11.72.17-.11.09-.21.19-.32.28l1.13.52.41.31c.09.04.18.09.25.12v.06l.48.36-.48.99v.34c.52,1.59,2.24,1.47,3.2,2.42.33.33,1.17.2,1.78.17.23,0,.44-.31.66-.48-.69-.56-1.12-1.55-2.47-1.35-.45-1.07-.77-1.83-1.08-2.59q1.67-1.67,1.27-2.16h-3.97c-.79-.49-.96-1.65-2.11-1.7Z"/>
          <path class="cls-1" d="M112.01,77.31c1.77-.5,3.65.26,5.63-.56-.93-.44-1.56-.75-2.36-1.13.43-.85.82-1.62,1.3-2.59-.89-.5-1.74-.98-2.76-1.55h-2.12c0,.47,0,.94,0,1.41.94.64,2.25.75,2.75,1.98-.78.4-1.55.79-2.38,1.22-.22-.2-.56-.51-.89-.82-.72.17-1.55-.33-2.15.3.85.74,1.69,1.47,2.54,2.2.04-.04.26-.26.44-.44Z"/>
          <path class="cls-1" d="M28.01,83.75c-.52,1.03-1.01,2.03-1.52,3.04l.57.23.7.98,1.06.61.04.14c.52-.24,1.05-.49,1.62-.76-.12-.48-.23-.91-.35-1.37-.52.32-.92.57-1.33.82-.79-1.42.12-2.36.49-3.52-.45-.06-.87-.12-1.28-.18Z"/>
          <path class="cls-1" d="M123.21,69.5c.54.04.85.06,1.18.08.32-.29.66-.61,1-.92.32.3.66.61.99.91.94.37,1.29-.58,1.95-.88.29.59.57,1.18.91,1.87.71-.95,1.4-1.48,2.31-.49v.96l.12-.09.47-1.13,1.15-.62.05-.15c-.75-.38-1.51-.77-2.43-1.24h-7.87c.06.67.11,1.2.16,1.7Z"/>
          <path class="cls-1" d="M136.28,56.44c.43.26,1.21.74,1.95,1.2-.66.91-1.59,1.26-1.79,2.29.75.34,1.51.16,2.25.15.46-.46.9-.9,1.23-1.23.4-1.15-.21-2.27.45-3.29.43.21.86.42,1.94.94-.69-1.21.1-2.09-.69-2.88h-2.21c-.23.66-.42,1.21-.64,1.82-.41-.38-.74-.68-1.08-1h-1.39v1.99Z"/>
          <path class="cls-1" d="M109.18,57.33c.55-.41.99-.75,1.49-1.13-.01-.04-.02-.08-.03-.12.03.03.05.05.08.07.04-.41.09-.99.15-1.69.67.39,1.14.66,1.68.98.93-.48,1.89-.98,3.03-1.57-.75-.27-1.29-.47-2.03-.73.09-.5.18-1.03.27-1.52h1.14c.34.31.66.62.97.9.37-.31.68-.69,1.08-.88.41-.19,1.18.18,1.09-.91h-4.16c-.46-.19-.58-1.44-1.32-.53v1.98c-.29.27-.6.63-.98.88-.59.38-1.23.69-1.85,1.02.25.93-.71,1.28-.91,1.96-.11.36.17.83.28,1.3Z"/>
          <path class="cls-1" d="M23.77,84.14v-.33c-.08.02-.16.04-.25.06l.25.27Z"/>
          <path class="cls-1" d="M23.36,83.75l.16.1h0s.06-.07.1-.1c-.09,0-.17,0-.26,0Z"/>
          <path class="cls-1" d="M20.34,80.3l.35.91c.06.03.12.06.17.08-.02.06-.05.1-.08.16l.03.07.72.97.32.23c-.06-.9.56-1.72.91-2.85-.97.31-1.88-.05-2.82.16l.41.28Z"/>
          <path class="cls-1" d="M49.12,59.19c-.61,0-.78-.73-1.27-.89-.34.3-.68.61-.94.83h-1.89c-.5-.49-.95-.93-1.39-1.36v-1.43c-.9.43-1.81.86-2.76,1.32,1.19,2.08,3.84,1.87,5.24,3.43,1.44-.15,2.84.28,4.1-.34-.33-.56-.61-1.05-.89-1.53-.09.02-.19.04-.29.07.03-.04.05-.06.08-.1Z"/>
          <path class="cls-1" d="M116.86,59.21c-.54.51-.67,1.1-.17,1.62.46.47.84.91.66,1.64-.28.31-.59.65-.89.97.31.34.62.68.98,1.08,0,1.53,0,3.09.01,4.65,0,.11.21.22.32.34.53.03,1.17.33,1.37-.53-.23-.23-.45-.45-.74-.74v-4.01c.63-.23,1.18-.43,1.93-.71-.78-.38-1.38-.67-2.01-.98.33-.36.63-.69.94-1.03v-1.39h-1.39c-.34-.31-.67-.61-1.01-.92Z"/>
          <path class="cls-1" d="M99.41,81.4c0,.47,0,.94,0,1.4.58.16,1.16-.16,1.77.31.91.71,2.03,1.13,3.11,1.58.27.11.64.07.93,0,.27-.07.51-.27.79-.43v-1c-.81-.4-1.66-.83-2.5-1.24-.27.27-.5.5-.78.78-1.49-1.29.81-2,.46-3.07-.17-.22-.34-.44-.65-.85-.45,1.67-2.04,1.74-3.14,2.52Z"/>
          <path class="cls-1" d="M103.2,54.92c-.07-.08-.02-.27-.01-.42-.08.02-.17.04-.26.06.04-.05.07-.08.11-.12-1.42-.22-2.28,1.1-3.62,1.33.46.59.87,1.12,1.23,1.59.62-.48.93-.71,1.48-1.13.08,1.07.13,1.81.19,2.55.44.44.89.89,1.31,1.31.73-.37.39-1.06.53-1.62.17-.64.5-1.24.75-1.84-.6-.6-1.16-1.14-1.7-1.72Z"/>
          <path class="cls-1" d="M40.29,113.07c-.72.16-1.54-.32-2.18.31-.04.13-.09.25-.13.38l.25.83-.82,1.18v.39c.79-.41,1.5-.78,2.11-1.1h2.85c.22.63.41,1.17.72,2.06.64-.64,1.11-1.11,1.57-1.57-.64-.65-1.07-1.09-1.5-1.53-.63,0-1.25,0-1.87,0-.33-.32-.67-.63-1-.95Z"/>
          <path class="cls-1" d="M68.33,6.15l-.19-.51-.28-.61c-.19.34-.37.67-.56,1.03.41.1.75.12,1.04.09Z"/>
          <path class="cls-1" d="M128.5,62.95c.67.07,1.22-.11,1.17-.96q-2.32-2.81-3.31-2.81c-.84,1.04-.38,2.26-.39,3.38.46.47.89.91,1.35,1.37.18.02.3-.04.38-.14-.01-.05-.02-.1-.04-.14.03.03.05.05.08.07.2-.31.23-.82.75-.76Z"/>
          <path class="cls-1" d="M41.41,89.38c.45.47.95.98,1.2,1.24.27,1.46-.42,2.63.55,3.54.32,0,.64,0,.95,0,1.04-.96.31-1.62-.4-2.28-.06-1.05-.12-2.11-.18-3.2-1.34-.24-2.52-.42-3.72.23.08.47.15.9.26,1.54.48-.38.8-.63,1.34-1.07Z"/>
          <path class="cls-1" d="M57.45,21.52c.31.28.58.54.85.78.43-.61,1.26-.91,1.43-1.88-.12-.24-.3-.58-.49-.95l-.96.96c-.11-.12-.22-.23-.33-.34l-.24.66-.26.77Z"/>
          <path class="cls-1" d="M72.63,61.24c-1.3-.06-.12,1.42-1,1.62-.43.11-.85.22-1.53.4.9.99,1.64,1.81,2.39,2.64.49-.13.91-.25,1.29-.35.04-.43.07-.73.1-1.08-.29-.32-.6-.66-.93-1.03-.2-.69.3-1.52-.32-2.19Z"/>
          <path class="cls-1" d="M76.86,53.84c0,.73,0,1.46.03,2.18,0,.11.19.25.32.31.13.05.3.01.46.01.11-.57-.28-1.24.3-1.73.86-.15,1.71-.31,2.53-.45v-1.22c-.5-.17-1.06-.3-1.55-.57-.19-.1-.23-.5-.34-.77-1.6-.06-.49,2.02-1.75,2.23Z"/>
          <path class="cls-1" d="M121.64,68.65c-1.26.83-1.64,2.21-2.21,3.56,1.17.33,2.31.37,3.58-.05-.34-.53-.74-.93-.88-1.41-.2-.68.26-1.52-.49-2.09Z"/>
          <path class="cls-1" d="M112.64,67.93c.56.87,1.09,1.78,2.47,1.64.15-.64,1.14-.73,1.15-1.38-.49-.59-.87-1.06-1.22-1.47-.82.19-1.63-.29-2.26.35-.05.29-.1.57-.15.86Z"/>
          <path class="cls-1" d="M115.87,125.27q4.01.09,4.32-.65c-.91-.14-1.77-.27-2.54-.38-.31-.33-.53-.55-.73-.77h-3.32c.02,1.53,2.03.56,2.28,1.8Z"/>
          <path class="cls-1" d="M46.89,131.98c-.26.3-.56.64-1.13,1.29-1.16-.42-1.7-2.17-3.2-.7.59.39,1.17.78,1.97,1.3.99-.27,2.38.32,3.88-.29-.11-.59-.21-1.12-.3-1.61h-1.22Z"/>
          <path class="cls-1" d="M125.62,48.19l-.46-.08c-.1.11-.2.21-.3.32.33.66-.31,1.52.53,2.22.31-.63.58-1.24.92-1.82.25-.43.76-.67,1.05-.97l-.51-.27-1.23.6Z"/>
          <path class="cls-1" d="M49.44,52.86c.41.83.79,1.69,1.26,2.5.23.39.63.67,1.25,1.31.05-.11.1-.2.15-.3-.02-.09-.04-.19-.07-.28.05.05.1.08.15.13.42-.85.76-1.53,1.13-2.27-.76-.26-1.4-.32-1.82-.65-.61-.49-1.1-1.06-2.05-.43Z"/>
          <path class="cls-1" d="M132.46,53.03c.41.64-.45,1.57.5,2.36h.94c.31-.29.65-.61.99-.93h1.44c-.05-.59-.1-1.17-.18-2.05-1,.37-1.72.63-2.44.89-.43.04-.35-1-1.24-.27Z"/>
          <path class="cls-1" d="M66.11,26.09c-.82.51-1.3.81-1.71,1.06-.63-.4-1.08-.68-1.66-1.05-.1.55-.18.97-.3,1.6,1.5.52,2.99.18,4.36.27.53-.53.96-.96,1.4-1.4-.23-.16-.45-.44-.69-.47-.59-.07-1.19-.02-1.39-.02Z"/>
          <path class="cls-1" d="M31.3,91.36l1.08.4.76.68c.41-.19.86-.39,1.49-.68-1.34-.53-2.39-.42-3.33-.4Z"/>
          <path class="cls-1" d="M131.2,60.13c.54-1.26.56-2.52-.04-3.87-.53.11-.95.19-1.66.34.57,1.21-.47,2.48.65,3.53h1.06Z"/>
          <path class="cls-1" d="M37.78,140.93h0s-.02.05-.02.05c-.04.13-.09.26-.13.38,0,0-.01,0-.02,0l-.3.77-.06.27c.54.03,1.09-.09,1.59-.02-.04-1.39,1.62-.54,1.91-1.45-.8-.52-1.18-2.03-2.59-1.12-.13.39-.26.77-.38,1.13Z"/>
          <path class="cls-1" d="M134.3,67.67l.54-.28.08-1.43.16-.16h-1.15c-.35-.32-.68-.64-1.08-1.01-.4.1-.82.21-1.2.31-.04.43-.08.73-.11,1.07.85.5,1.68,1.08,2.59,1.48.05.02.11.01.16.01Z"/>
          <path class="cls-1" d="M43.34,148.23c-1.41-.7-1.76.71-2.6,1.3.08.4.17.82.26,1.28h2.33l.35-.29c-.11-.97.2-1.69-.33-2.29Z"/>
          <path class="cls-1" d="M83.9,36.55c.39-.09.81-.18,1.25-.28v-2.95c-1.12.61-1.95-.04-2.58.62-.67,1.43.71,1.79,1.33,2.61Z"/>
          <path class="cls-1" d="M82.04,43.95c-.6.13-1.01.22-1.48.32.34.58.72,1.01.86,1.51.19.68-.27,1.52.53,2.06.3,0,.61,0,.91,0,.38-.56,1.16-.82,1.24-1.61-.55-.19-1.09-.37-1.57-.54-.18-.63-.33-1.16-.5-1.74Z"/>
          <path class="cls-1" d="M69.51,51.51h2.32c.06-.52.12-.94.16-1.31-.5-.5-.94-.94-1.39-1.39-.33.31-.66.61-.99.92h-1.39s-.06,0-.09,0c.16.87.97,1.19,1.39,1.78Z"/>
          <path class="cls-1" d="M57,36.83c.33.59.67,1.17.95,1.67-.42.61-.71,1.03-1.66,2.41,1.67-.99,2.57-.19,3.38-1.08-.29-.32-.58-.64-.88-.98.28-.3.59-.62,1.34-1.42h-.43s0-.07,0-.11c-1.12-.2-1.59-1.79-2.71-.5Z"/>
          <path class="cls-1" d="M40.34,104.33c-.83.41-1.53.76-2.28,1.14l.25.77-.05.13c.79.08,1.49.15,2.14.21.36.28.66.52,1.13.89.12-.64.2-1.06.15-.82-.6-1.04-.98-1.7-1.33-2.32Z"/>
          <path class="cls-1" d="M72.77,24.09c.2-2.29.19-2.29-.34-2.7h-.93c-.46.46-.91.91-1.35,1.35.34.46.69.91,1.12,1.49.37-.03.95-.09,1.5-.14Z"/>
          <path class="cls-1" d="M43.98,99.03c.45-.6.9-1.19,1.54-2.05v-.55c-.36-.14-.75-.3-1.3-.52-.45.6-.9,1.19-1.54,2.05v.55c.36.14.75.3,1.3.52Z"/>
          <path class="cls-1" d="M57.94,34.26c.64.67,1.46.18,2.17.34.69.43,1.15,1.67,2.34.56v-1.51q-4.38.01-4.52.61Z"/>
          <path class="cls-1" d="M49.72,117.95c.98-.32,1.82.17,2.38-.6-.77-1.32-2.25-1.54-3.55-2.31-.09.46-.17.88-.17.87.58.87.99,1.5,1.34,2.04Z"/>
          <path class="cls-1" d="M120.54,77.94c-1.08-.51-1.07-.53-1.28-.06-.26.61-.52,1.22-.77,1.82.75.5,1.51.21,2.25.22.44-.44.88-.88,1.41-1.41-.58-.2-1.12-.34-1.62-.57Z"/>
          <path class="cls-1" d="M65.82,60.13c-.71.15-1.51-.29-2.16.29.23,1.86,2.44,1.26,3.23,2.72.86-1.89-.52-2.24-1.07-3.01Z"/>
          <path class="cls-1" d="M133.03,51.56c.45-.45.89-.89,1.35-1.35v-1.83c.1-.12.2-.25.31-.37l-.7-.12h-.46c-.03.57-.06,1.09-.29,1.49-.45.77-1.33,1.31-.2,2.17Z"/>
          <path class="cls-1" d="M120.55,56.46c-.27,1.28-1.63,2.17-1.29,3.67.27-.11.61-.15.78-.34.7-.79,1.72-1.31,2.06-2.39q-.42-.93-1.56-.93Z"/>
          <path class="cls-1" d="M34.17,53.98c.86.58,1.35,2.3,2.85.96-.16-.76.29-1.56-.31-2.21-1.39-.69-1.75.72-2.54,1.25Z"/>
          <path class="cls-1" d="M87.48,67.62c1.28,0,2.62,0,3.96-.01.11,0,.22-.2.35-.34-.81-.46-1.61-.91-2.4-1.35-.3.25-.61.51-.89.74-.38-.31-.69-.55-1-.81-.57.61-.54,1.14-.03,1.77Z"/>
          <path class="cls-1" d="M46.66,142.56c-.3,1.17-.37,2.31.1,3.64.57-.1,1.09-.19,1.85-.32-.57-.5-.91-.8-1.29-1.13.38-.34.72-.63,1.06-.93-.6-.41-.86-1.19-1.73-1.25Z"/>
          <path class="cls-1" d="M75.6,118.74c-1.18,0-2.16,0-3.12,0-.39.56-1.2.81-1.23,1.64.62.4,1.12.32,1.66-.16.31-.27.77-.45,1.18-.52.59-.1,1.25.14,1.99-.96h-.11c-.14.03-.3.06-.46.11.03-.04.06-.07.09-.11Z"/>
          <path class="cls-1" d="M74.62,125.04v-.02c-.05-.22-.11-.45-.19-.69-.56.56-1,1-1.45,1.45.1.07.18.14.25.22l.56-.07.82-.89Z"/>
          <path class="cls-1" d="M67.21,118.34c.08.39.16.81.26,1.27h1.32c.49-.8.41-1.83,1.5-2.38-1.9-.87-2.25.51-3.08,1.11Z"/>
          <path class="cls-1" d="M59.49,137.49l.11-.33c-.23.09-.47.18-.73.26.22.02.42.04.62.07Z"/>
          <path class="cls-1" d="M114.33,127.54c.47.89-.17,1.72.57,2.46h1.83c-.57-1.1.06-1.93-.78-2.76-.4.07-.93.17-1.63.3Z"/>
          <path class="cls-1" d="M38.89,133.69c.05.2.14.61.24,1.04h1.34c.39-.85.45-1.78,1.25-2.3-.11-.11-.22-.22-.32-.32-.29-.04-.57-.08-1.03-.15-.41.48-.89,1.04-1.48,1.74Z"/>
          <path class="cls-1" d="M128.2,56.35c.44-.52,1.15-.82,1.3-1.59q-1.19-.25-2.26.65c-.68.31-1.73-.57-2.26.6,1.11.63,2.19.23,3.22.35Z"/>
          <path class="cls-1" d="M77.02,57.51c-.49.27-.83.79-1.26,1.22.95.68,1.8.57,2.67.17.16-.88.56-1.79-.33-2.59-.69.06-.56.91-1.08,1.2Z"/>
          <path class="cls-1" d="M123.35,61.15c.74-.68,1.18-1.09,1.58-1.45.1-.93-.06-1.57-1.59-1.41-.2.33-.58.98-.79,1.35.18.34.51.96.8,1.51Z"/>
          <path class="cls-1" d="M62.23,32.57c.32-.85.59-1.68,1.21-2.38.17-.19-.15-.81-.3-1.48-.87,1-1.58,1.81-2.34,2.68.42.28.62,1.06,1.43,1.18Z"/>
          <path class="cls-1" d="M78.07,47.67c-.56.75-1.65-.57-2.2.71.45.46.88.91,1.31,1.35h2.38c0-.93-.94-1.17-1.49-2.05Z"/>
          <path class="cls-1" d="M52.38,50.56c.43.05.73.08,1.17.12.5-.44,1.06-.94,1.6-1.42-.25-.66-.41-1.06-.53-1.39-.88-.27-.45.66-.92.78-.55.13-1.07.35-1.67.56.14.55.25.97.35,1.35Z"/>
          <path class="cls-1" d="M90.43,49.73c-.38.56-1.15.82-1.24,1.6.68.56,1.47.15,2.19.29.38-.56,1.15-.82,1.24-1.6-.68-.56-1.47-.15-2.19-.29Z"/>
          <path class="cls-1" d="M75.94,43.75c.26.1.59.36.77.28,1-.43,1.96-.95,2.87-1.41-.08-.49-.12-.78-.28-1.77-.92,1.65-3.12,1.05-3.36,2.9Z"/>
          <path class="cls-1" d="M73.32,29.97c.66-.66,1.09-1.09,1.56-1.56-.07-.38-.14-.79-.23-1.27-.96.46-1.79.87-2.24,1.08.27.51.59,1.13.91,1.75Z"/>
          <path class="cls-1" d="M61.71,37.44v2.81c.64-.04,1.16-.07,1.63-.1.07-.52.11-.8.17-1.28-.43-.42-.94-.94-1.48-1.43-.08-.07-.29-.01-.32-.01Z"/>
          <path class="cls-1" d="M54.64,42c-.56,1.01-1.01,1.8-1.47,2.62.34.34.77.77,1.5,1.5.42-1.51.46-2.64-.03-4.12Z"/>
          <path class="cls-1" d="M74.79,15.69c.06.71.1,1.22.14,1.73.61.08,1.18.16,1.73.18l-.14-.17-.72-.97-.58-.71c-.14-.12-.3-.24-.46-.38,0,.09.01.16.02.24.01.03.03.04.04.07-.01,0-.02,0-.04,0Z"/>
          <path class="cls-1" d="M110.75,126.88c.36.14.75.3,1.28.51.47-.58.93-1.14,1.39-1.7-.82-.62-1.76-.67-2.67.16v1.03Z"/>
          <path class="cls-1" d="M81.86,72.42c.42-.06.95-.14,1.46-.22,0-.52,0-.82,0-.77-.51-.79-.89-1.38-1.28-1.97-.32,1.11-.94,1.93-.18,2.96Z"/>
          <path class="cls-1" d="M16.53,62.2c-.61.8-.65,1.73.21,2.71.39-.08.81-.16,1.18-.23.08-.42.13-.71.25-1.36-.43-.3-1.04-.71-1.64-1.12Z"/>
          <path class="cls-1" d="M135.27,65.61l.49-.5.39-.48c.02-.42.04-.85.04-1.27,0-.11-.2-.21-.36-.37-.36.03-.77.06-1.84.15.56,1.1.91,1.81,1.28,2.48Z"/>
          <path class="cls-1" d="M61.77,108.2c1.29.13,2.47.4,3.58-.25-.38-.72-1.04-.44-1.58-.58-.65-.16-1.25-.49-2.34-.94.18.93.26,1.35.34,1.77Z"/>
          <path class="cls-1" d="M107.38,82.88c.81-.81,1.56-1.55,2.29-2.31.04-.04-.03-.2-.08-.43-.24-.04-.49-.09-.59-.1-1,.6-1.64.98-2.24,1.34.28.7.44,1.09.61,1.51Z"/>
          <path class="cls-1" d="M109,80.04h0c-.07-.01-.06-.01,0,0Z"/>
          <path class="cls-1" d="M96,119.69c-.14.36-.3.75-.51,1.28.58.47,1.14.93,1.7,1.39.62-.82.67-1.76-.16-2.67h-1.03Z"/>
          <path class="cls-1" d="M119.07,140.98l.57.45c.18-.09.34-.26.46-.58-.45-.45-.88-.88-1.36-1.36-.38.07-.8.15-1.42.27.02.12.04.23.06.34l.69.2.99.68Z"/>
          <path class="cls-1" d="M120.37,52.86c.28.85.84,1.4,1.73,1.59.26-.11.68-.15.75-.33.15-.37.1-.81.18-1.66-1.18.24-1.97-.19-2.66.39Z"/>
          <path class="cls-1" d="M81.44,51.45c0-.5,0-1.01-.01-1.71-.78,0-1.33,0-1.88-.01-.21.37-.44.73-.63,1.11-.13.25-.21.52-.32.78h2.79c-.02-.09-.04-.17-.07-.26.04.03.07.06.11.09Z"/>
          <path class="cls-1" d="M108.08,51.31c.75.4,1.74.38,2.36,1.54.16-.76.26-1.28.34-1.68-.58-.58-1.01-1.01-1.43-1.43-.4.54-1.13.82-1.27,1.58Z"/>
          <path class="cls-1" d="M54.97,134.34q-2.36-.6-4.73,0,2.36.6,4.73,0Z"/>
          <path class="cls-1" d="M107.08,58.5s-.07-.06-.11-.09c0,.69-.03,1.38.03,2.07.02.19.34.35.52.52,1.58-1.5,1.55-1.52.8-2.76h-1.3c.02.09.04.17.07.26Z"/>
          <path class="cls-1" d="M88.64,58.13c.45-.45.88-.88,1.36-1.36-.07-.38-.15-.8-.27-1.42-.65.11-1.17.21-1.76.31.43.92-.62,1.99.66,2.47Z"/>
          <path class="cls-1" d="M108.64,109.31c.05-.07.09-.12.14-.19,0-.03-.01-.06-.02-.1.02.02.04.03.06.05.35-.47.66-.88,1.01-1.34-.45-.14-.86-.28-1.18-.38-.66.49-1.23.92-2.34,1.75,1.38.12,1.97.18,2.33.21Z"/>
          <path class="cls-1" d="M74.96,108c.43.43.86.86,1.29,1.29.48-.09,1.18.29,1.28-.61-.43-.43-.86-.86-1.29-1.29-.48.09-1.18-.29-1.28.61Z"/>
          <path class="cls-1" d="M38.58,54.6c-.21.12-.41.24-.62.36.78,1-1.22,1.25-.59,2.28.42-.02.84-.04,1.53-.07,0-.87.04-1.33-.01-1.79-.03-.27-.2-.52-.31-.78Z"/>
          <path class="cls-1" d="M73.73,55.76c.61.42,1.23.84,1.79,1.22.02-.05.18-.43.46-1.13-.6-.36-1.24-.75-1.83-1.11-.03.07-.18.45-.41,1.02Z"/>
          <path class="cls-1" d="M77.7,63.9c.02.09.04.18.07.27,0,0,0,0,0,0,.07.18.14.36.22.56,1.13.11,2.29.36,3.77-.39-1.51-.71-2.82-.31-4.05-.44Z"/>
          <path class="cls-1" d="M85.9,63.91h-1.15c-.67.64-.69,1.27.09,1.94.37-.08.8-.16,1.41-.29-.14-.66-.25-1.18-.35-1.66Z"/>
          <path class="cls-1" d="M84.46,103.74c-.06.42-.2.85-.16,1.27.06.73-.3,1.53.56,2.59q.46-3.76-.39-3.86Z"/>
          <path class="cls-1" d="M79.53,105.03c.97.79,1.9.78,2.9,0-.46-.4-.91-.79-1.5-1.3-.52.49-.96.89-1.41,1.31Z"/>
          <path class="cls-1" d="M63.57,134.21l.11-.11s-.07.02-.1.03c0,.03,0,.06,0,.08Z"/>
          <path class="cls-1" d="M64.46,48.79s-.01,0-.02,0c0,0,0,0-.01,0-.11.55.23.89.67.92,1,.07,2.01.03,3.02.02.03,0,.06,0,.09,0,.11-.55-.23-.89-.67-.92-1.02-.07-2.05-.03-3.08-.02,0,0,0,0,0,0Z"/>
          <path class="cls-1" d="M64.43,16.91v1.15c.64.67,1.27.69,1.94-.09-.08-.37-.16-.8-.29-1.41-.66.14-1.18.25-1.66.35Z"/>
          <path class="cls-1" d="M60.17,84.71c-.67.64-.69,1.27.09,1.94.37-.08.8-.16,1.41-.29-.14-.66-.25-1.18-.35-1.66h-1.15Z"/>
          <path class="cls-1" d="M121.33,76.16c-.62.13-1.17.16-1.13.86h2.83c-.04-.64-.07-1.16-.11-1.8-.67.41-1.1.83-1.58.93Z"/>
          <path class="cls-1" d="M85.91,44.16s.05-.06.08-.09c-.87-.06-1.32-1.94-2.77-.34.59.34,1.2.7,2.2,1.28h.71c-.02-.09-.04-.17-.07-.26.04.03.07.06.11.09v-.73c-.09.02-.17.04-.26.07Z"/>
          <path class="cls-1" d="M13.27,61.35c.12.63.2,1.06.29,1.54h1.83c-.16-.83-.24-1.25-.36-1.87-.65.12-1.18.22-1.77.33Z"/>
          <path class="cls-1" d="M71.16,36.51c.69-.08,1.21-.13,1.93-.21-.21-.75-.34-1.25-.47-1.69h-1.61c.04.57.09,1.13.15,1.91Z"/>
          <path class="cls-1" d="M106.55,124.24c.5-.44.95-.83,1.41-1.23-1.01-.79-1.94-.8-2.87-.03.53.43.82,1.14,1.46,1.26Z"/>
          <path class="cls-1" d="M77.08,75.21c.42-.02.84-.04,1.53-.07,0-.87.04-1.33-.01-1.79-.03-.27-.2-.52-.31-.78-.21.12-.41.24-.62.36.78,1-1.22,1.25-.59,2.28Z"/>
          <path class="cls-1" d="M71.85,11.32l-.82-.34-.23-1.31-.54-.92c-.1,1.13-.15,1.66-.18,1.99.58.44,1.03.78,1.58,1.19.07-.21.13-.42.19-.61Z"/>
          <path class="cls-1" d="M55.91,118.63s.39-.1.8-.21c-.11-.21-.19-.45-.34-.64-.28-.35-.59-.68-.88-1.02-.51.1-.92.19-2.04.41,1.06.62,1.66.98,2.47,1.45Z"/>
          <path class="cls-1" d="M95.85,56.92c.39.45.78.89,1.16,1.34.48-.48.91-.91,1.6-1.6-2.2-.35-2.2-.33-2.76.26Z"/>
          <path class="cls-1" d="M37.53,87.49c-.59.59-1.01,1.01-1.06,1.06.31.65.61,1.29.95,2.02.78-1.26.62-2.11.11-3.07Z"/>
          <path class="cls-1" d="M98.64,112.79c.85.42,1.67.46,2.71-.14-.52-.52-.99-.99-1.47-1.47-.39.57-1.15.83-1.24,1.61Z"/>
          <path class="cls-1" d="M95.23,114.27c.39-.73.72-1.35,1.02-1.9-.24-.16-.5-.93-1.28-1.01-.42.85-.46,1.67.26,2.91Z"/>
          <path class="cls-1" d="M106.48,73.36c-.31,0-.61,0-.93,0-.67.64-.69,1.27.09,1.94.37-.08.8-.16,1.17-.24.07-.43.2-.74.15-1-.06-.26-.31-.47-.47-.71Z"/>
          <path class="cls-1" d="M69.19,32.67c-.28.14-.62.31-.98.5.54.55.98,1,1.41,1.44.49,0,.96,0,1.43,0-.21-.98-.91-1.51-1.85-1.93Z"/>
          <path class="cls-1" d="M48.58,139.6c.65-.12,1.18-.22,1.77-.33-.12-.63-.2-1.06-.29-1.54h-1.83c.16.83.24,1.25.36,1.87Z"/>
          <path class="cls-1" d="M33.76,74.59c.45-2.22.44-2.22-.21-2.98-.51.83-.47,1.67.21,2.98Z"/>
          <path class="cls-1" d="M26.63,70.52c.27-.08.52-.21.78-.31-.11-.21-.19-.46-.35-.64-.29-.33-.62-.61-1.14-1.11-.11.7-.19,1.22-.32,2.06.73,0,.89.03,1.03,0Z"/>
          <path class="cls-1" d="M73.72,71.81c.81.85.83.87,2.06,1.36-.07-.61-.13-1.12-.2-1.82-.74.18-1.24.31-1.86.47Z"/>
          <path class="cls-1" d="M78.95,35.67c-.43.43-.86.86-1.29,1.29.62.67,1.25.68,1.89,0-.07-.49.29-1.18-.6-1.3Z"/>
          <path class="cls-1" d="M74.83,36c.06.4.14.92.2,1.28.65-.41,1.24-.77,2.08-1.3-1.05-.47-1.57-.66-2.28.01Z"/>
          <path class="cls-1" d="M48.5,120.31c.83.51,1.67.47,2.98-.21-2.23-.45-2.22-.44-2.98.21Z"/>
          <path class="cls-1" d="M45.53,80.94c.08.27.21.52.31.78.21-.11.46-.19.64-.35.33-.29.61-.62,1.11-1.14-.7-.11-1.22-.19-2.06-.32,0,.73-.03.89,0,1.03Z"/>
          <path class="cls-1" d="M71.08,72.96q1.55.36,2.8-.32c-.92-.03-2.01-.7-2.8.32Z"/>
          <path class="cls-1" d="M114.69,84.42c.56.43,1.09.46,1.76-.18-.08-.42-.19-.94-.44-2.2-.31,1.43-1.31,1.52-1.32,2.38Z"/>
          <path class="cls-1" d="M96.04,74.31c.43-.07.95-.15,1.32-.2-.41-.65-.77-1.24-1.15-1.85-.76.82-.72,1.34-.17,2.05Z"/>
          <path class="cls-1" d="M45.36,119.05c-.84-.47-1.67-.47-2.95.25,2.28.43,2.28.41,2.95-.25Z"/>
          <path class="cls-1" d="M85.84,60.91c-.85.81-.87.83-1.36,2.06.61-.07,1.12-.13,1.82-.2-.18-.74-.31-1.24-.47-1.86Z"/>
          <path class="cls-1" d="M89.47,38.38c.1-.01.21-.01.32,0l-.48-.49-.33-.55c-.04.35.12.69.49,1.04Z"/>
          <path class="cls-1" d="M116.03,134.89c.2-.72,1.15-.83,1.2-1.79-.43-.08-.85-.16-1.27-.23-.62.68-.7,1.31.07,2.02Z"/>
          <path class="cls-1" d="M68.87,30.04c.29.11.18.54.34.73.07-.02.14-.03.21-.05-.04.04-.07.08-.1.12.07.02.15.03.28-.01.71-.57.71-1.17.06-1.87-.36.03-.77.06-1.76.14.56.56.73.86.98.95Z"/>
          <path class="cls-1" d="M108.08,84.4c.84.47,1.67.47,2.95-.25-2.28-.43-2.28-.41-2.95.25Z"/>
          <path class="cls-1" d="M99.57,83.43c-.81-.85-.83-.87-2.06-1.36.07.61.13,1.12.2,1.82.74-.18,1.24-.31,1.86-.47Z"/>
          <path class="cls-1" d="M59.52,135.11c-.84-.44-1.68-.48-2.92.28,2.33.41,2.33.39,2.92-.28Z"/>
          <path class="cls-1" d="M51.22,143.97c-.02.12-.02.25-.03.37l.22-.1.74-.54c0-.13,0-.26,0-.39-.53-.11-.87.23-.92.65Z"/>
          <path class="cls-1" d="M107.84,64.46c.72.2.83,1.15,1.79,1.2.08-.43.16-.85.23-1.27-.68-.62-1.31-.7-2.02.07Z"/>
          <path class="cls-1" d="M99.76,129.27c.59-.67,1.24-.98,1.39-1.72-.54-.45-1.06-.46-1.75.15.07.38.15.84.25,1.43h.03s.08.14.08.14Z"/>
          <path class="cls-1" d="M108.37,67.67c-.59.65-.67,1.28.01,1.91.49-.07,1.19.29,1.3-.6-.43-.43-.86-.86-1.31-1.31Z"/>
          <path class="cls-1" d="M86.16,40.28c-.27.08-.52.21-.78.31.11.21.19.46.35.64.29.33.62.61,1.14,1.11.11-.7.19-1.22.32-2.06-.73,0-.89-.03-1.03,0Z"/>
          <path class="cls-1" d="M67.41,108.02c.83.51,1.67.47,2.98-.21-2.23-.45-2.22-.44-2.98.21Z"/>
          <path class="cls-1" d="M89.76,104.84c.73.61,1.03,1.31,1.8,1.46.45-.54.46-1.06-.15-1.75-.42.08-.95.17-1.65.29Z"/>
          <path class="cls-1" d="M111.3,107.47c.2-.72,1.15-.83,1.2-1.79-.43-.08-.85-.16-1.27-.23-.62.68-.7,1.31.07,2.02Z"/>
          <path class="cls-1" d="M37.96,75.76c-.57-.71-1.17-.71-1.87-.06.03.36.06.77.14,1.76.56-.56.86-.73.95-.98.11-.29.54-.18.73-.34-.02-.07-.03-.14-.05-.21.04.04.08.07.12.1.02-.07.03-.15-.01-.28Z"/>
          <path class="cls-1" d="M111.68,109.76c.08.42.19.94.44,2.2.31-1.43,1.31-1.52,1.32-2.38-.56-.43-1.09-.46-1.76.18Z"/>
          <path class="cls-1" d="M86.44,55.79c-2.28-.43-2.28-.41-2.95.25.84.47,1.67.47,2.95-.25Z"/>
          <path class="cls-1" d="M64.46,48.78c-.04-.56-.08-1.12-.14-1.88-.66.04-1.17.08-1.79.12.53.94.98,1.6,1.91,1.76,0,0,.01,0,.02,0,0,0,0,0,0,0Z"/>
          <path class="cls-1" d="M143.55,48.6l-.06-.05-.36.13c.02.1.03.2.05.3.12-.15.25-.27.37-.38Z"/>
          <path class="cls-1" d="M74.38,49.71c-.42.08-.95.17-1.65.29.73.61,1.03,1.31,1.8,1.46.45-.54.46-1.06-.15-1.75Z"/>
          <path class="cls-1" d="M45.93,51.62c.43-.07.95-.15,1.32-.2-.38-.6-.72-1.15-1.06-1.7l-.39.24c-.42.61-.33,1.08.14,1.67Z"/>
          <path class="cls-1" d="M137.81,49.57c-.76.82-.72,1.34-.17,2.05.43-.07.95-.15,1.32-.2-.41-.65-.77-1.24-1.15-1.85Z"/>
          <path class="cls-1" d="M100.39,50.27q1.55.36,2.8-.32c-.92-.03-2.01-.7-2.8.32Z"/>
          <path class="cls-1" d="M69.96,19.8c-.83-.51-1.67-.47-2.98.21,2.23.45,2.22.44,2.98-.21Z"/>
          <path class="cls-1" d="M117.02,115.79c.55-.67.6-1.28-.22-1.78-.44,0-.88,0-1.33,0,.14.91.81,1.37,1.54,1.78Z"/>
          <path class="cls-1" d="M61.24,46.78c.55-.67.6-1.28-.22-1.78-.44,0-.88,0-1.33,0,.14.91.81,1.37,1.54,1.78Z"/>
          <path class="cls-1" d="M70.1,12.29c0-.44,0-.88,0-1.33-.91.14-1.37.81-1.78,1.54.67.55,1.28.6,1.78-.22Z"/>
          <path class="cls-1" d="M86.52,73.49c-.43.43-.86.86-1.31,1.31.65.59,1.28.67,1.91-.01-.07-.49.29-1.19-.6-1.3Z"/>
          <path class="cls-1" d="M67.11,31.11c-.54-.45-1.06-.46-1.75.15.08.42.17.95.29,1.65.61-.73,1.31-1.03,1.46-1.8Z"/>
          <path class="cls-1" d="M87.58,113.07c.49-.07,1.19.29,1.3-.6-.43-.43-.86-.86-1.31-1.31-.59.65-.67,1.28.01,1.91Z"/>
          <path class="cls-1" d="M122.13,80.88c.08-.02.16-.04.23-.06-.03.03-.05.05-.07.08.58-.03,1.3.38,1.62-.53-1.23-.41-1.25-.41-1.78.5Z"/>
          <path class="cls-1" d="M95.64,82.35c0,.1.23.32.3.3.22-.06.59-.21.6-.34.02-.41-.09-.84-.15-1.25-.2,0-.4.02-.6.03-.06.42-.13.84-.15,1.26Z"/>
          <path class="cls-1" d="M32.4,80.59c.55.51,1.08.48,1.85-.14-.86-.61-1.46-.89-1.85.14Z"/>
          <path class="cls-1" d="M27.57,79.51c0,.1.23.32.3.3.22-.06.59-.21.6-.34.02-.41-.09-.84-.15-1.25-.2,0-.4.02-.6.03-.06.42-.13.84-.15,1.26Z"/>
          <path class="cls-1" d="M36.62,81.95c-.99.34-.41,1.16-.55,1.77.04,0,.08-.02.12-.03.83-.48.82-.55.43-1.74Z"/>
          <path class="cls-1" d="M34,82.5c-.06-.22-.21-.59-.34-.6-.41-.02-.84.09-1.25.15,0,.2.02.4.03.6.42.06.84.13,1.26.15.1,0,.32-.23.3-.3Z"/>
          <path class="cls-1" d="M113.62,113.97c.08-.02.16-.04.24-.06-.03.04-.06.07-.09.11h1.72v-.9c-.09.02-.17.04-.26.07.04-.04.07-.08.1-.12-.38-.02-.79-.09-1.1.05-.27.12-.41.55-.6.86Z"/>
          <path class="cls-1" d="M107.17,113.99c.58-.03,1.3.38,1.62-.53-1.23-.41-1.25-.41-1.78.5.08-.02.16-.04.23-.06-.03.03-.05.05-.07.08Z"/>
          <path class="cls-1" d="M67.74,10.97c.68-.63.68-1.26,0-1.9-.68.63-.68,1.26,0,1.9Z"/>
          <path class="cls-1" d="M40.32,93.22c.68-.63.68-1.26,0-1.9-.68.63-.68,1.26,0,1.9Z"/>
          <path class="cls-1" d="M61.8,8.77c.46-.19,1.22.95,1.56-.32-.54-.5-1.07-.47-1.56.32Z"/>
          <path class="cls-1" d="M69.24,24.75q1.25.41,1.81-.55c-.61.17-1.46-.46-1.81.55Z"/>
          <path class="cls-1" d="M62.06,25.15c.68-.63.68-1.26,0-1.9-.68.63-.68,1.26,0,1.9Z"/>
          <path class="cls-1" d="M64.43,10.49c.63.68,1.26.68,1.9,0-.63-.68-1.26-.68-1.9,0Z"/>
          <path class="cls-1" d="M66.43,98.56c.55.51,1.08.48,1.85-.14-.86-.61-1.46-.89-1.85.14Z"/>
          <path class="cls-1" d="M64.3,99.66c0-.2-.02-.4-.03-.6-.42-.06-.84-.13-1.26-.15-.1,0-.32.23-.3.3.06.22.21.59.34.6.41.02.84-.09,1.25-.15Z"/>
          <path class="cls-1" d="M89.95,101.25c.63.68,1.26.68,1.9,0-.63-.68-1.26-.68-1.9,0Z"/>
          <path class="cls-1" d="M73.02,15.14c.34.99,1.17.41,1.77.55.01,0,.02,0,.04,0-.02-.03-.03-.05-.04-.07-.51-.89-.55-.88-1.77-.48Z"/>
          <path class="cls-1" d="M92.79,105.04c.63.68,1.26.68,1.9,0-.63-.68-1.26-.68-1.9,0Z"/>
          <path class="cls-1" d="M59.81,96.67c.55.51,1.08.48,1.85-.14-.86-.61-1.46-.89-1.85.14Z"/>
          <path class="cls-1" d="M127.75,134.85l-.69-.64c-.05.02-.1.03-.16.05.18.52.5.6.84.59Z"/>
          <path class="cls-1" d="M112.02,134.65c.22-.06.59-.21.6-.34.02-.41-.09-.84-.15-1.25-.2,0-.4.02-.6.03-.06.42-.13.84-.15,1.26,0,.1.23.32.3.3Z"/>
          <path class="cls-1" d="M119.13,130.85c0-.2-.02-.4-.03-.6-.42-.06-.84-.13-1.26-.15-.1,0-.32.23-.3.3.06.22.21.59.34.6.41.02.84-.09,1.25-.15Z"/>
          <path class="cls-1" d="M37.16,131.36l.16.4c.66.41,1.14.47,1.47-.39-.5-.46-.98-.45-1.63,0Z"/>
          <path class="cls-1" d="M42.05,137.69c-.34-.15-.81-.05-1.22-.04.01.04.02.09.03.14.17.3.3.66.55.77.34.15.81.05,1.22.04-.01-.04-.02-.09-.03-.14-.17-.3-.3-.66-.55-.77Z"/>
          <path class="cls-1" d="M126.49,139.43c.51-.55.48-1.08-.14-1.85-.61.86-.89,1.46.14,1.85Z"/>
          <path class="cls-1" d="M122.43,137.77c-.51.55-.48,1.08.14,1.85.61-.86.89-1.46-.14-1.85Z"/>
          <path class="cls-1" d="M113.77,137.96l.11.05.43.26c-.04-.15-.1-.31-.17-.53-.17.06-.28.14-.37.22Z"/>
          <path class="cls-1" d="M113.04,121.66q-.41,1.25.55,1.81c-.17-.61.46-1.46-.55-1.81Z"/>
          <path class="cls-1" d="M124.43,123.5c-.41-.02-.84.09-1.25.15,0,.2.02.4.03.6.42.06.84.13,1.26.15.05,0,.13-.06.2-.12l-.05-.58c-.06-.11-.12-.19-.18-.2Z"/>
          <path class="cls-1" d="M88.88,119.51c0-.2-.02-.4-.03-.6-.42-.06-.84-.13-1.26-.15-.1,0-.32.23-.3.3.06.22.21.59.34.6.41.02.84-.09,1.25-.15Z"/>
          <path class="cls-1" d="M104.06,121.11c.86.61,1.46.89,1.85-.14-.55-.51-1.08-.48-1.85.14Z"/>
          <path class="cls-1" d="M103.3,87.21c.55.51,1.08.48,1.85-.14-.86-.61-1.46-.89-1.85.14Z"/>
          <path class="cls-1" d="M58.91,125.19c.42.06.84.13,1.26.15.1,0,.32-.23.3-.3-.06-.22-.21-.59-.34-.6-.41-.02-.84.09-1.25.15,0,.2.02.4.03.6Z"/>
          <path class="cls-1" d="M57.03,124.57c-.06.42-.13.84-.15,1.26,0,.1.23.32.3.3.22-.06.59-.21.6-.34.02-.41-.09-.84-.15-1.25-.2,0-.4.02-.6.03Z"/>
          <path class="cls-1" d="M47.85,124.45c-.41-.02-.84.09-1.25.15,0,.2.02.4.03.6.42.06.84.13,1.26.15.1,0,.32-.23.3-.3-.06-.22-.21-.59-.34-.6Z"/>
          <path class="cls-1" d="M60.88,41.29c-.26.59-.46,1.11.27,1.86.59-.83.87-1.43-.27-1.86Z"/>
          <path class="cls-1" d="M54.03,47.84q-.56-.97-1.81-.55c.35,1.01,1.2.38,1.81.55Z"/>
          <path class="cls-1" d="M104.61,65.8c-.68.63-.68,1.26,0,1.9.68-.63.68-1.26,0-1.9Z"/>
          <path class="cls-1" d="M27.08,67.69c.68-.63.68-1.26,0-1.9-.68.63-.68,1.26,0,1.9Z"/>
          <path class="cls-1" d="M92.79,53.98c.63.68,1.26.68,1.9,0-.63-.68-1.26-.68-1.9,0Z"/>
          <path class="cls-1" d="M57.89,44.45c.35,1.01,1.2.38,1.81.55q-.56-.97-1.81-.55Z"/>
          <path class="cls-1" d="M54.01,58.74c0-.12-.22-.33-.29-.32-.23.06-.59.18-.61.32-.08.45-.03.92-.03,1.39h.95c0-.46.02-.93-.01-1.39Z"/>
          <path class="cls-1" d="M46.07,58.16q.41-1.25-.55-1.81c.17.61-.46,1.46.55,1.81Z"/>
          <path class="cls-1" d="M9.82,58.25c.25-.03.5-.07.72-.01-.12-.2-.21-.35-.29-.48l-.43.49Z"/>
          <path class="cls-1" d="M24.25,59.18c.68-.63.68-1.26,0-1.9-.68.63-.68,1.26,0,1.9Z"/>
          <path class="cls-1" d="M57.81,57.76c-.63-.68-1.26-.68-1.9,0,.63.68,1.26.68,1.9,0Z"/>
          <path class="cls-1" d="M75.27,61.1c-.41-.02-.84.09-1.25.15,0,.2.02.4.03.6.42.06.84.13,1.26.15.1,0,.32-.23.3-.3-.06-.22-.21-.59-.34-.6Z"/>
          <path class="cls-1" d="M25.62,61.57c.83.59,1.43.87,1.86-.26-.59-.26-1.11-.46-1.86.26Z"/>
          <path class="cls-1" d="M113.62,62.53c-.02.41.09.84.15,1.25.2,0,.4-.02.6-.03.06-.42.13-.84.15-1.26,0-.1-.23-.32-.3-.3-.22.06-.59.21-.6.34Z"/>
          <path class="cls-1" d="M44.89,55.44c-.34-.15-.81-.05-1.22-.04.02.09.04.18.07.27-.04-.03-.07-.06-.11-.09v.77h1.89c-.2-.32-.34-.78-.63-.91Z"/>
          <path class="cls-1" d="M116.09,57.18c.51-.55.48-1.08-.14-1.85-.61.86-.89,1.46.14,1.85Z"/>
          <path class="cls-1" d="M65.37,73.36q.56.97,1.81.55c-.35-1.01-1.2-.38-1.81-.55Z"/>
          <path class="cls-1" d="M54.97,71.95c.63.68,1.26.68,1.9,0-.63-.68-1.26-.68-1.9,0Z"/>
          <path class="cls-1" d="M98.63,48.94c-.06.42-.13.84-.15,1.26,0,.1.23.32.3.3.22-.06.59-.21.6-.34.02-.41-.09-.84-.15-1.25-.2,0-.4.02-.6.03Z"/>
          <path class="cls-1" d="M55.85,75.73c.86.61,1.46.89,1.85-.14-.55-.51-1.08-.48-1.85.14Z"/>
          <path class="cls-1" d="M101.3,76.67c-.63-.68-1.26-.68-1.9,0,.63.68,1.26.68,1.9,0Z"/>
          <path class="cls-1" d="M86.17,50.2c-.63-.68-1.26-.68-1.9,0,.63.68,1.26.68,1.9,0Z"/>
          <path class="cls-1" d="M95.86,49.8c-.26.59-.46,1.11.26,1.86.59-.83.86-1.43-.26-1.86Z"/>
          <path class="cls-1" d="M125.27,74.42c-.51.55-.48,1.08.14,1.85.61-.86.89-1.46-.14-1.85Z"/>
          <path class="cls-1" d="M72.93,68.16c.63.68,1.26.68,1.9,0-.63-.68-1.26-.68-1.9,0Z"/>
          <path class="cls-1" d="M82.07,38.55c-.22.06-.59.21-.6.34-.02.41.09.84.15,1.25.2,0,.4-.02.6-.03.06-.42.13-.84.15-1.26,0-.1-.23-.32-.3-.3Z"/>
          <path class="cls-1" d="M74,53.18c.54.5,1.07.47,1.56-.32-.46.19-1.22-.95-1.56.32Z"/>
          <path class="cls-1" d="M96.46,70.86c-.55-.51-1.08-.48-1.85.14.86.61,1.46.89,1.85-.14Z"/>
          <path class="cls-1" d="M60.13,37.44h1.46c.11-.58-.24-.87-.72-.93-.61-.07-1.18.04-1.17.82,0,.04,0,.07,0,.11h.43Z"/>
          <path class="cls-1" d="M111.7,71.47q-.56-.97-1.81-.55c.35,1.01,1.2.38,1.81.55Z"/>
          <path class="cls-1" d="M82.39,49.26c.21.11.41.23.61.34.13-.13.23-.23.34-.34-.21-.11-.41-.25-.63-.3-.08-.02-.21.19-.31.3Z"/>
          <path class="cls-1" d="M102.93,49.84c.73-.21,1.46-.14.82-.97-.22.26-.44.52-.82.97Z"/>
          <path class="cls-1" d="M105.22,50.06c.11.2.22.4.34.61.1-.1.31-.23.3-.31-.05-.22-.19-.42-.3-.63-.11.11-.21.21-.34.34Z"/>
          <path class="cls-1" d="M120.68,48.78c.11-.21.23-.41.34-.61-.07-.07-.12-.12-.17-.17l-.21-.08c-.1.18-.21.36-.25.55-.02.08.19.21.3.31Z"/>
          <path class="cls-1" d="M74.65,21.05c-.05-.22-.19-.42-.3-.63-.11.11-.31.23-.3.31.05.22.19.42.3.63.11-.11.31-.23.3-.31Z"/>
          <path class="cls-1" d="M64.9,36.49c-.11.21-.23.41-.34.61.13.13.23.23.34.34.11-.21.25-.41.3-.63.02-.08-.19-.21-.3-.31Z"/>
          <path class="cls-1" d="M68.39,35.86c.05.22.19.42.3.63.11-.11.21-.21.34-.34-.11-.2-.22-.4-.34-.61-.1.11-.31.23-.3.31Z"/>
          <path class="cls-1" d="M54.03,37.91c-.1-.11-.21-.21-.34-.34-.14.08-.29.16-.43.24l.09.38s.03.02.05.02c.22-.05.42-.19.63-.3Z"/>
          <path class="cls-1" d="M69.21,30.76c-.65.15-1.19.17-.61.91.2-.23.4-.47.72-.85.03-.04.06-.07.1-.12-.07.02-.14.04-.21.05Z"/>
          <path class="cls-1" d="M82.53,31.43l.34.34c.11-.21.25-.41.3-.63.02-.08-.19-.21-.3-.31-.11.21-.23.41-.34.61Z"/>
          <path class="cls-1" d="M86.17,44.1c.63-.14,1.12-.17.56-.9-.2.24-.41.48-.74.87-.03.03-.05.06-.08.09.09-.03.18-.05.26-.07Z"/>
          <path class="cls-1" d="M86.13,45c.14.63.17,1.12.9.56-.23-.2-.48-.41-.86-.73-.04-.03-.07-.06-.11-.09.03.09.05.18.07.26Z"/>
          <path class="cls-1" d="M76.25,23.26c-.1.11-.31.23-.3.31.05.22.19.42.3.63.11-.11.21-.21.34-.34-.11-.2-.22-.4-.34-.61Z"/>
          <path class="cls-1" d="M88.37,41.04c.22-.05.42-.19.63-.3-.11-.11-.23-.31-.31-.3-.22.05-.42.19-.63.3.11.11.23.31.31.3Z"/>
          <path class="cls-1" d="M90.51,39.54c-.19.06-.37.17-.55.26.11.11.23.31.31.3.15-.03.28-.1.42-.18l-.03-.03-.15-.35Z"/>
          <path class="cls-1" d="M84.28,41.69c-.11-.11-.21-.21-.34-.34-.2.11-.4.22-.61.34.11.1.23.31.31.3.22-.05.42-.19.63-.3Z"/>
          <path class="cls-1" d="M58.44,26.27c-.22.05-.42.19-.63.3.11.11.23.31.31.3.22-.05.42-.19.63-.3-.11-.11-.23-.31-.31-.3Z"/>
          <path class="cls-1" d="M64.9,9.07c.11-.21.23-.41.34-.61-.13-.13-.23-.23-.34-.34-.11.21-.25.41-.3.63-.02.08.19.21.3.31Z"/>
          <path class="cls-1" d="M65.24,5.9c-.11-.2-.22-.4-.34-.61-.11.11-.31.23-.3.31.05.22.19.42.3.63.11-.11.21-.21.34-.34Z"/>
          <path class="cls-1" d="M62.67,19.14c.13.13.23.23.34.34.11-.21.25-.41.3-.63.02-.08-.19-.21-.3-.31-.11.21-.23.41-.34.61Z"/>
          <path class="cls-1" d="M75.3,18.53c-.11.21-.23.41-.34.61.13.13.23.23.34.34.1-.21.25-.41.3-.63.02-.08-.19-.21-.3-.31Z"/>
          <path class="cls-1" d="M38.86,152.78c.14.63.17,1.12.9.56-.23-.2-.48-.41-.86-.73-.04-.03-.07-.06-.11-.09.03.09.05.18.07.26Z"/>
          <path class="cls-1" d="M58.86,78.35s-.07-.06-.11-.1c.12.54.21.9.86.39-.23-.2-.47-.41-.85-.73.03.14.06.28.1.43Z"/>
          <path class="cls-1" d="M18.28,78.73c-.02.08.19.21.3.31.11-.21.23-.41.34-.61l-.34-.34c-.11.21-.25.41-.3.63Z"/>
          <path class="cls-1" d="M41.1,76.38c-.08-.02-.21.19-.31.3.21.11.41.23.61.34.13-.13.23-.23.34-.34-.21-.11-.41-.25-.63-.3Z"/>
          <path class="cls-1" d="M37.9,76.15c.15.65.17,1.19.91.61-.23-.2-.47-.4-.85-.72-.04-.03-.07-.06-.12-.1.02.07.04.14.05.21Z"/>
          <path class="cls-1" d="M102.72,78.09c.11-.21.23-.41.34-.61-.13-.13-.23-.23-.34-.34-.11.21-.25.41-.3.63-.02.08.19.21.3.31Z"/>
          <path class="cls-1" d="M58.76,77.92c-.12-.54-.2-.9-.86-.39.23.2.47.41.85.73.04.03.07.06.11.1-.04-.15-.07-.29-.1-.43Z"/>
          <path class="cls-1" d="M122.13,80.88c-.64.15-1.16.17-.59.91.2-.24.42-.49.75-.88.02-.03.04-.05.07-.08-.08.02-.16.04-.23.06Z"/>
          <path class="cls-1" d="M57.63,81.56c-.05-.22-.19-.42-.3-.63-.11.11-.31.23-.3.31.05.22.19.42.3.63.1-.1.31-.23.3-.31Z"/>
          <path class="cls-1" d="M123.99,72.89c.11.11.23.31.31.3.22-.05.42-.19.63-.3-.11-.11-.21-.21-.34-.34-.2.11-.4.22-.61.34Z"/>
          <path class="cls-1" d="M18.28,72.73c.05.22.19.42.3.63.11-.11.31-.23.3-.31-.05-.22-.19-.42-.3-.63-.11.11-.31.23-.3.31Z"/>
          <path class="cls-1" d="M43.81,71.78c.05.22.19.42.3.63.11-.11.31-.23.3-.31-.05-.22-.19-.42-.3-.63-.11.11-.31.23-.3.31Z"/>
          <path class="cls-1" d="M92.02,75.57c.05.22.19.42.3.63.1-.1.31-.23.3-.31-.05-.22-.19-.42-.3-.63-.11.11-.31.23-.3.31Z"/>
          <path class="cls-1" d="M89.79,75.25c-.54.12-.9.21-.39.86.2-.23.41-.47.73-.85-.14.03-.28.06-.43.1.04-.04.06-.07.1-.11Z"/>
          <path class="cls-1" d="M20.63,76.02c.08.02.21-.19.31-.3-.21-.11-.41-.23-.61-.34-.13.13-.23.23-.34.34.21.11.41.25.63.3Z"/>
          <path class="cls-1" d="M89.79,75.25s-.06.07-.1.11c.15-.04.29-.07.43-.1.54-.12.9-.2.39-.86-.2.23-.41.47-.73.85Z"/>
          <path class="cls-1" d="M41.4,74.45c-.2.11-.4.22-.61.34.11.11.23.31.31.3.22-.05.42-.19.63-.3l-.34-.34Z"/>
          <path class="cls-1" d="M48.83,94.16c-.11.21-.23.41-.34.61.13.13.23.23.34.34.11-.21.25-.41.3-.63.02-.08-.19-.21-.3-.31Z"/>
          <path class="cls-1" d="M46.29,93.85c-.05-.22-.19-.42-.3-.63-.11.11-.31.23-.3.31.05.22.19.42.3.63.11-.11.31-.23.3-.31Z"/>
          <path class="cls-1" d="M111.7,84.24c.11.1.23.31.31.3.22-.05.42-.19.63-.3-.1-.11-.21-.21-.34-.34-.2.11-.4.22-.61.34Z"/>
          <path class="cls-1" d="M51.66,83.76c-.11.1-.31.23-.3.31.05.22.19.42.3.63.1-.11.21-.21.34-.34-.11-.2-.22-.4-.34-.61Z"/>
          <path class="cls-1" d="M35.5,84.62c.22-.26.44-.52.82-.97-.05.01-.09.02-.14.03-.04,0-.08.02-.12.03-.63.14-1.13.17-.57.9Z"/>
          <path class="cls-1" d="M23.53,83.87c.08-.02.17-.04.25-.06.63-.14,1.12-.17.56-.9-.2.23-.4.47-.72.84-.03.04-.06.07-.1.11h0Z"/>
          <path class="cls-1" d="M115.01,85.65c-.1.21-.25.41-.3.63-.02.08.19.21.3.31.11-.21.23-.41.34-.61l-.34-.34Z"/>
          <path class="cls-1" d="M40.97,86.29c-.02.08.19.21.3.31.11-.21.23-.41.34-.61-.13-.13-.23-.23-.34-.34-.11.21-.25.41-.3.63Z"/>
          <path class="cls-1" d="M33.54,86.42c.22-.05.42-.19.63-.3-.11-.11-.23-.31-.31-.3-.22.05-.42.19-.63.3.1.11.23.31.31.3Z"/>
          <path class="cls-1" d="M17.16,57.76c.1.11.23.31.31.3.22-.05.42-.19.63-.3-.1-.1-.21-.21-.34-.34-.2.11-.4.22-.61.34Z"/>
          <path class="cls-1" d="M11.48,58.24v.04c.48-.11.87-.16.78-.5l-.41.1-.19-.06c-.1.12-.22.26-.36.42h.17Z"/>
          <path class="cls-1" d="M128.54,57.93c-.05-.22-.19-.42-.3-.63-.11.11-.31.23-.3.31.05.22.19.42.3.63.11-.11.31-.23.3-.31Z"/>
          <path class="cls-1" d="M107.01,58.24c-.14-.63-.17-1.12-.9-.56.23.2.48.41.86.73.04.03.07.06.11.09-.03-.09-.05-.18-.07-.26Z"/>
          <path class="cls-1" d="M123.52,56.35c.1-.11.21-.21.34-.34-.11-.2-.22-.4-.34-.61-.11.1-.31.23-.3.31.05.22.19.42.3.63Z"/>
          <path class="cls-1" d="M80.03,55.4c-.1.1-.31.23-.3.31.05.22.19.42.3.63.11-.11.21-.21.34-.34-.11-.2-.22-.4-.34-.61Z"/>
          <path class="cls-1" d="M55.45,55.4c-.11.1-.31.23-.3.31.05.22.19.42.3.63.1-.11.21-.21.34-.34-.11-.2-.22-.4-.34-.61Z"/>
          <path class="cls-1" d="M110.68,56.2c.17.69.16,1.31.94.7-.24-.2-.49-.41-.88-.75-.03-.02-.05-.04-.08-.07.01.04.02.08.03.12Z"/>
          <path class="cls-1" d="M52.1,56.37c.14.62.18,1.1.9.54-.23-.19-.46-.39-.82-.7-.05-.04-.09-.08-.15-.13.03.1.05.19.07.28Z"/>
          <path class="cls-1" d="M54.78,60.75c.13-.57-.29-.66-.75-.63v.95c.26-.1.71-.16.75-.32Z"/>
          <path class="cls-1" d="M52.33,60.45c-.13.57.29.66.75.63v-.95c-.26.1-.71.16-.75.32Z"/>
          <path class="cls-1" d="M84.37,60.51c.26.22.51.44.97.82-.21-.73-.14-1.46-.97-.82Z"/>
          <path class="cls-1" d="M135.16,58.87c-.05-.22-.19-.42-.3-.63-.1.1-.21.21-.34.34.11.2.22.4.34.61.11-.1.31-.23.3-.31Z"/>
          <path class="cls-1" d="M49.86,58.32c-.2.24-.41.48-.74.87-.03.03-.05.06-.08.1.1-.03.19-.05.29-.07.62-.14,1.09-.18.54-.9Z"/>
          <path class="cls-1" d="M20.83,58.92s.07.06.11.1c-.12-.54-.21-.9-.86-.39.23.2.47.41.85.73-.03-.14-.06-.28-.1-.43Z"/>
          <path class="cls-1" d="M11.31,58.24h-.77c-.02.64.28.95.9.94-.02-.08-.04-.17-.06-.26.04.03.07.06.11.09v-.77h-.17Z"/>
          <path class="cls-1" d="M20.93,59.35c.12.54.21.9.86.39-.23-.2-.47-.4-.85-.73-.04-.03-.07-.06-.11-.1.04.15.07.29.1.43Z"/>
          <path class="cls-1" d="M11.44,59.18c.14.63.17,1.13.9.56-.23-.2-.48-.41-.86-.73-.04-.03-.07-.06-.11-.09.02.09.05.17.06.26Z"/>
          <path class="cls-1" d="M114.06,59.18c-.1.11-.31.23-.3.31.05.22.19.42.3.63.1-.11.21-.21.34-.34-.11-.2-.22-.4-.34-.61Z"/>
          <path class="cls-1" d="M70.57,59.18c-.1.11-.31.23-.3.31.05.22.19.42.3.63.11-.11.21-.21.34-.34-.11-.2-.22-.4-.34-.61Z"/>
          <path class="cls-1" d="M81.34,51.35c.03.09.05.18.07.26.14.63.17,1.12.9.56-.23-.2-.48-.41-.86-.73-.04-.03-.07-.06-.11-.09Z"/>
          <path class="cls-1" d="M96.57,53.04c.21.11.41.23.61.34.13-.13.23-.23.34-.34-.21-.11-.41-.25-.63-.3-.08-.02-.21.19-.31.3Z"/>
          <path class="cls-1" d="M45.38,52.9l-.34-.34c-.11.21-.25.41-.3.63-.02.08.19.21.3.31.11-.21.23-.41.34-.61Z"/>
          <path class="cls-1" d="M126.05,53.52c.54-.12.9-.21.39-.86-.2.23-.4.47-.73.85.14-.03.28-.06.43-.1-.04.04-.06.07-.1.11Z"/>
          <path class="cls-1" d="M48.53,54.77c.05.22.19.42.3.63.11-.11.31-.23.3-.31-.05-.22-.19-.42-.3-.63-.11.11-.31.23-.3.31Z"/>
          <path class="cls-1" d="M43.67,55.4c-.14-.63-.17-1.12-.9-.56.23.2.48.41.86.73.04.03.07.06.11.09-.03-.09-.05-.18-.07-.27Z"/>
          <path class="cls-1" d="M126.05,53.52s.06-.07.1-.11c-.15.04-.29.07-.43.1-.54.12-.9.2-.39.86.2-.23.41-.47.73-.85Z"/>
          <path class="cls-1" d="M103.19,54.5c.63-.14,1.13-.17.56-.9-.2.23-.4.47-.72.84-.04.04-.07.08-.11.12.09-.02.17-.05.26-.06Z"/>
          <path class="cls-1" d="M98.46,53.98c.21.11.41.23.61.34.13-.13.23-.23.34-.34-.21-.11-.41-.25-.63-.3-.08-.02-.21.19-.31.3Z"/>
          <path class="cls-1" d="M12.43,68.16c.11.11.23.31.31.3.22-.05.42-.19.63-.3l-.34-.34c-.2.11-.4.22-.61.34Z"/>
          <path class="cls-1" d="M80.68,66.43c-.02.08.19.21.3.31.11-.21.23-.41.34-.61-.13-.13-.23-.23-.34-.34-.11.21-.25.41-.3.63Z"/>
          <path class="cls-1" d="M102.88,66.92c-.22.05-.42.19-.63.3.1.11.23.31.31.3.22-.05.42-.19.63-.3-.11-.11-.23-.31-.31-.3Z"/>
          <path class="cls-1" d="M95.94,67.51c.22-.05.42-.19.63-.3-.11-.11-.23-.31-.31-.3-.22.05-.42.19-.63.3.11.11.23.31.31.3Z"/>
          <path class="cls-1" d="M34.04,67.35c-.11-.2-.22-.4-.34-.61-.1.11-.31.23-.3.31.05.22.19.42.3.63.11-.11.21-.21.34-.34Z"/>
          <path class="cls-1" d="M22.69,67.35c-.11-.2-.22-.4-.34-.61-.1.11-.31.23-.3.31.05.22.19.42.3.63.11-.11.21-.21.34-.34Z"/>
          <path class="cls-1" d="M103.01,71.16c-.05-.22-.19-.42-.3-.63-.11.11-.31.23-.3.31.05.22.19.42.3.63.11-.1.31-.23.3-.31Z"/>
          <path class="cls-1" d="M100.66,69.4c.22-.05.42-.19.63-.3-.11-.11-.21-.21-.34-.34-.2.11-.4.22-.61.34.1.11.23.31.31.3Z"/>
          <path class="cls-1" d="M11.48,69.11c-.11-.11-.21-.21-.34-.34-.2.11-.4.22-.61.34.11.11.23.31.31.3.22-.05.42-.19.63-.3Z"/>
          <path class="cls-1" d="M105.08,70.05c.21.11.41.23.61.34.13-.13.23-.23.34-.34-.21-.11-.41-.25-.63-.3-.08-.02-.21.19-.31.3Z"/>
          <path class="cls-1" d="M82.57,63.27c.05.22.19.42.3.63.11-.1.31-.23.3-.31-.05-.22-.19-.42-.3-.63-.11.11-.31.23-.3.31Z"/>
          <path class="cls-1" d="M77.7,63.9c-.14-.62-.18-1.11-.9-.55.26.22.51.44.96.82,0,0,0,0,0,0-.03-.09-.05-.18-.07-.27Z"/>
          <path class="cls-1" d="M136.91,61.25c-.22.05-.42.19-.63.3.11.11.23.31.31.3.22-.05.42-.19.63-.3-.11-.11-.23-.31-.31-.3Z"/>
          <path class="cls-1" d="M53.4,61.82c.57.13.66-.29.63-.75h-.95c.1.26.16.71.32.75Z"/>
          <path class="cls-1" d="M58.93,62.65c-.02.08.19.21.3.31.11-.21.23-.41.34-.61-.13-.13-.23-.23-.34-.34-.11.21-.25.41-.3.63Z"/>
          <path class="cls-1" d="M50.29,62.96c-.14-.63-.17-1.12-.9-.56.24.2.48.41.86.73.04.03.07.06.1.09-.03-.09-.05-.18-.07-.26Z"/>
          <path class="cls-1" d="M99.88,64.85c-.11.11-.31.23-.3.31.05.22.19.42.3.63.11-.11.21-.21.34-.34-.11-.2-.22-.4-.34-.61Z"/>
          <path class="cls-1" d="M4.97,65.12s-.07-.06-.11-.1c.04.2.08.38.15.49l.26.14c.11-.01.26-.09.46-.24-.23-.2-.47-.4-.85-.73.03.14.06.28.1.43Z"/>
          <path class="cls-1" d="M127.7,63.79c.17.68.16,1.28.93.68-.24-.2-.49-.41-.88-.75-.03-.02-.05-.05-.08-.07.01.05.02.1.04.14Z"/>
          <path class="cls-1" d="M92.48,64.09c-.22.05-.42.19-.63.3.11.11.23.31.31.3.22-.05.42-.19.63-.3-.11-.11-.23-.31-.31-.3Z"/>
          <path class="cls-1" d="M34.65,64.85c.11-.21.23-.41.34-.61-.13-.13-.23-.23-.34-.34-.11.21-.25.41-.3.63-.02.08.19.21.3.31Z"/>
          <path class="cls-1" d="M30.7,64.68c.22-.05.42-.19.63-.3-.11-.11-.23-.31-.31-.3-.22.05-.42.19-.63.3.11.11.23.31.31.3Z"/>
          <path class="cls-1" d="M4.87,64.69c-.11-.53-.21-.88-.83-.41l.38.09.23.48c.06.05.14.12.21.18.04.03.07.06.11.1-.04-.15-.07-.29-.1-.43Z"/>
          <path class="cls-1" d="M53.26,125.67c.05.22.19.42.3.63.11-.11.31-.23.3-.31-.05-.22-.19-.42-.3-.63-.11.11-.31.23-.3.31Z"/>
          <path class="cls-1" d="M66.95,124.59c-.22.05-.42.19-.63.3.11.11.23.31.31.3.22-.05.42-.19.63-.3-.11-.11-.23-.31-.31-.3Z"/>
          <path class="cls-1" d="M121.63,128.2c.1-.11.21-.21.34-.34-.11-.2-.22-.4-.34-.61-.11.11-.31.23-.3.31.05.22.19.42.3.63Z"/>
          <path class="cls-1" d="M109.5,128.38c-.22.05-.42.19-.63.3.11.11.21.21.34.34.2-.11.4-.22.61-.34-.11-.11-.23-.31-.31-.3Z"/>
          <path class="cls-1" d="M55.45,126.31c-.11.21-.23.41-.34.61.13.13.23.23.34.34.1-.21.25-.41.3-.63.02-.08-.19-.21-.3-.31Z"/>
          <path class="cls-1" d="M45.99,127.25c.11-.21.25-.41.3-.63.02-.08-.19-.21-.3-.31-.11.21-.23.41-.34.61.13.13.23.23.34.34Z"/>
          <path class="cls-1" d="M64.9,118.74c-.11.1-.31.23-.3.31.05.22.19.42.3.63.11-.1.21-.21.34-.34-.11-.2-.22-.4-.34-.61Z"/>
          <path class="cls-1" d="M93.26,119.69c-.11.11-.31.23-.3.31.05.22.19.42.3.63.11-.11.31-.23.3-.31-.05-.22-.19-.42-.3-.63Z"/>
          <path class="cls-1" d="M84.15,120.3c-.11-.2-.22-.4-.34-.61-.11.11-.31.23-.3.31.05.22.19.42.3.63.11-.11.21-.21.34-.34Z"/>
          <path class="cls-1" d="M123.23,117.54l-.03-.3c-.05.03-.11.06-.16.09.06.06.13.15.19.22Z"/>
          <path class="cls-1" d="M121.92,117.49c-.05-.22-.19-.42-.3-.63-.11.11-.31.23-.3.31.05.22.19.42.3.63.1-.1.31-.23.3-.31Z"/>
          <path class="cls-1" d="M75.6,118.74s-.06.07-.09.11c.16-.05.31-.08.46-.11.52-.11.87-.21.37-.86-.2.23-.41.48-.73.86Z"/>
          <path class="cls-1" d="M58.12,118.57c.22-.05.42-.19.63-.3-.11-.11-.23-.31-.31-.3-.22.05-.42.19-.63.3.11.1.23.31.31.3Z"/>
          <path class="cls-1" d="M101.41,121.84s-.07-.06-.11-.1c.12.54.2.9.86.39-.23-.2-.47-.4-.85-.73.03.14.06.28.1.43Z"/>
          <path class="cls-1" d="M72.17,121.89c.05.22.19.42.3.63.11-.11.21-.21.34-.34-.11-.2-.22-.4-.34-.61-.11.1-.31.23-.3.31Z"/>
          <path class="cls-1" d="M56.23,123.29c.22-.05.42-.19.63-.3-.11-.11-.21-.21-.34-.34-.2.11-.4.22-.61.34.1.1.23.31.31.3Z"/>
          <path class="cls-1" d="M41.74,123c-.1-.11-.21-.21-.34-.34-.2.11-.4.22-.61.34.11.11.23.31.31.3.22-.05.42-.19.63-.3Z"/>
          <path class="cls-1" d="M115.3,121.27c-.05-.22-.19-.42-.3-.63-.11.11-.31.23-.3.31.05.22.19.42.3.63.11-.11.31-.23.3-.31Z"/>
          <path class="cls-1" d="M101.31,121.41c-.12-.54-.2-.9-.86-.39.23.2.47.4.85.73.04.03.07.06.11.1-.04-.15-.07-.29-.1-.43Z"/>
          <path class="cls-1" d="M39.93,137.09c.26.22.52.44.97.82-.01-.04-.02-.09-.03-.13-.01-.05-.02-.09-.03-.14-.14-.63-.17-1.12-.9-.56Z"/>
          <path class="cls-1" d="M43.54,139.16c-.26-.22-.51-.44-.97-.82.01.04.02.09.03.13.01.05.02.09.03.14.14.63.17,1.12.9.56Z"/>
          <path class="cls-1" d="M46.15,137.83c-.22.05-.42.19-.63.3.1.1.23.31.31.3.22-.05.42-.19.63-.3-.11-.11-.23-.31-.31-.3Z"/>
          <path class="cls-1" d="M121.15,130.56c.21.11.41.23.61.34.13-.13.23-.23.34-.34-.21-.11-.41-.25-.63-.3-.08-.02-.21.19-.31.3Z"/>
          <path class="cls-1" d="M109.34,131.98c-.11.11-.31.23-.3.31.05.22.19.42.3.63l.34-.34c-.11-.2-.22-.4-.34-.61Z"/>
          <path class="cls-1" d="M56.53,133.73c.13-.13.23-.23.34-.34-.21-.11-.41-.25-.63-.3-.08-.02-.21.19-.31.3.21.11.41.23.61.34Z"/>
          <path class="cls-1" d="M58.28,102.67c-.1.11-.31.23-.3.31.05.22.19.42.3.63.11-.11.21-.21.34-.34-.11-.2-.22-.4-.34-.61Z"/>
          <path class="cls-1" d="M56.1,102.98c.05.22.19.42.3.63.11-.11.31-.23.3-.31-.05-.22-.19-.42-.3-.63-.11.11-.31.23-.3.31Z"/>
          <path class="cls-1" d="M106.8,103.61c.14-.03.28-.06.43-.1-.04.04-.06.07-.1.11.54-.12.9-.21.39-.86-.2.23-.4.47-.73.85Z"/>
          <path class="cls-1" d="M114.71,105.2c-.02.08.19.21.3.31.11-.21.23-.41.34-.61-.13-.13-.23-.23-.34-.34-.1.21-.25.41-.3.63Z"/>
          <path class="cls-1" d="M108.3,105.42c.2-.23.4-.47.73-.85-.14.03-.28.06-.43.1.04-.04.06-.07.1-.11-.54.12-.9.21-.39.86Z"/>
          <path class="cls-1" d="M113.28,103.79c-.22.05-.42.19-.63.3.11.11.21.21.34.34.2-.11.4-.22.61-.34-.11-.11-.23-.31-.31-.3Z"/>
          <path class="cls-1" d="M109.03,104.57c.54-.12.9-.21.39-.86-.2.23-.4.47-.73.85-.03.04-.06.07-.1.11.15-.04.29-.07.43-.1Z"/>
          <path class="cls-1" d="M106.8,103.61c-.54.12-.9.21-.39.86.2-.23.4-.47.73-.85.03-.04.06-.07.1-.11-.15.04-.29.07-.43.1Z"/>
          <path class="cls-1" d="M68.98,104.25c-.05-.22-.19-.42-.3-.63-.1.1-.21.21-.34.34.11.2.22.4.34.61.11-.11.31-.23.3-.31Z"/>
          <path class="cls-1" d="M62.06,103.62c-.11.1-.31.23-.3.31.05.22.19.42.3.63.1-.11.21-.21.34-.34-.11-.2-.22-.4-.34-.61Z"/>
          <path class="cls-1" d="M48.53,103.93c.05.22.19.42.3.63l.34-.34c-.11-.2-.22-.4-.34-.61-.11.1-.31.23-.3.31Z"/>
          <path class="cls-1" d="M56.87,95.89c-.12-.54-.21-.9-.86-.39.23.2.47.41.85.73-.03-.14-.06-.28-.1-.43.04.04.07.06.11.1Z"/>
          <path class="cls-1" d="M54.66,95.29c-.22.05-.42.19-.63.3.1.11.23.31.31.3.22-.05.42-.19.63-.3-.11-.11-.23-.31-.31-.3Z"/>
          <path class="cls-1" d="M50.07,96.69c-.05-.22-.19-.42-.3-.63-.1.11-.21.21-.34.34.11.2.22.4.34.61.1-.11.31-.23.3-.31Z"/>
          <path class="cls-1" d="M47.23,96.69c-.05-.22-.19-.42-.3-.63-.11.11-.31.23-.3.31.05.22.19.42.3.63.11-.11.31-.23.3-.31Z"/>
          <path class="cls-1" d="M56.76,95.79c.04.15.07.29.1.43.12.54.21.9.86.39-.23-.2-.47-.4-.85-.73-.04-.03-.07-.06-.11-.1Z"/>
          <path class="cls-1" d="M85.7,99.84c-.11.11-.31.23-.3.31.05.22.19.42.3.63.1-.11.21-.21.34-.34-.11-.2-.22-.4-.34-.61Z"/>
          <path class="cls-1" d="M59.39,99.07c-.22.05-.42.19-.63.3.11.11.23.31.31.3.22-.05.42-.19.63-.3-.11-.11-.23-.31-.31-.3Z"/>
          <path class="cls-1" d="M102.42,113.38c.05.22.19.42.3.63.11-.11.31-.23.3-.31-.05-.22-.19-.42-.3-.63-.11.11-.31.23-.3.31Z"/>
          <polygon class="cls-1" points="122.19 113.46 122.19 113.46 122.19 113.45 122.19 113.46"/>
          <path class="cls-1" d="M113.62,113.97c-.64.14-1.16.17-.59.91.2-.23.41-.48.73-.86.03-.04.06-.07.09-.11-.08.02-.16.04-.24.06Z"/>
          <path class="cls-1" d="M110.44,114.19c-.22.05-.42.19-.63.3.1.11.23.31.31.3.22-.05.42-.19.63-.3-.11-.11-.23-.31-.31-.3Z"/>
          <path class="cls-1" d="M106.41,114.87c.2-.24.42-.49.75-.88.02-.03.04-.05.07-.08-.08.02-.16.04-.23.06-.64.15-1.16.17-.59.91Z"/>
          <path class="cls-1" d="M115.48,113.11c.63-.14,1.12-.17.56-.9-.2.23-.4.47-.72.85-.03.04-.06.07-.1.12.09-.03.18-.05.26-.07Z"/>
          <path class="cls-1" d="M116.56,117.46c.13.13.23.23.34.34.11-.21.25-.41.3-.63.02-.08-.19-.21-.3-.31-.11.21-.23.41-.34.61Z"/>
          <path class="cls-1" d="M60.82,117.16c.05.22.19.42.3.63.11-.1.21-.21.34-.34-.11-.2-.22-.4-.34-.61-.11.11-.31.23-.3.31Z"/>
          <path class="cls-1" d="M45.99,115.91c.11-.11.31-.23.3-.31-.05-.22-.19-.42-.3-.63-.11.11-.31.23-.3.31.05.22.19.42.3.63Z"/>
          <path class="cls-1" d="M71.65,109.15c.13-.13.23-.23.34-.34-.21-.11-.41-.25-.63-.3-.08-.02-.21.19-.31.3.21.11.41.23.61.34Z"/>
          <path class="cls-1" d="M118.32,106.93c.1.11.23.31.31.3.22-.05.42-.19.63-.3-.11-.11-.21-.21-.34-.34-.2.11-.4.22-.61.34Z"/>
          <path class="cls-1" d="M105.55,106.45c-.11.1-.31.23-.3.31.05.22.19.42.3.63.1-.11.21-.21.34-.34-.11-.2-.22-.4-.34-.61Z"/>
          <path class="cls-1" d="M57.95,107.06c.13.13.23.23.34.34.11-.21.25-.41.3-.63.02-.08-.19-.21-.3-.31-.11.21-.23.41-.34.61Z"/>
          <path class="cls-1" d="M53.08,106.93c-.11-.11-.21-.21-.34-.34-.2.11-.4.22-.61.34.11.11.23.31.31.3.22-.05.42-.19.63-.3Z"/>
          <path class="cls-1" d="M51.01,107.09c-.05-.22-.19-.42-.3-.63-.11.11-.31.23-.3.31.05.22.19.42.3.63.11-.11.31-.23.3-.31Z"/>
          <path class="cls-1" d="M43.16,107.4c-.11.11-.31.23-.3.31.05.22.19.42.3.63.11-.11.21-.21.34-.34-.11-.2-.22-.4-.34-.61Z"/>
          <path class="cls-1" d="M95.94,108.17c.22-.05.42-.19.63-.3-.11-.1-.21-.21-.34-.34-.2.11-.4.22-.61.34.11.11.23.31.31.3Z"/>
          <path class="cls-1" d="M92.79,111.65c.21.11.41.25.63.3.08.02.21-.19.31-.3-.21-.11-.41-.23-.61-.34-.13.13-.23.23-.34.34Z"/>
          <path class="cls-1" d="M108.78,109.12c.18.7.15,1.34.94.73-.25-.21-.5-.42-.91-.77-.02-.02-.04-.03-.06-.05,0,.03.02.06.02.1Z"/>
          <path class="cls-1" d="M106.5,111.18c.11-.21.23-.41.34-.61-.13-.13-.23-.23-.34-.34-.1.21-.25.41-.3.63-.02.08.19.21.3.31Z"/>
          <path class="cls-1" d="M83.34,110.71c.11.1.23.31.31.3.22-.05.42-.19.63-.3-.11-.11-.21-.21-.34-.34-.2.11-.4.22-.61.34Z"/>
        </g>
      </g>
    </g>
  </g>
</svg>